<svg width="122" height="162" viewBox="0 0 122 162" fill="none" xmlns="http://www.w3.org/2000/svg">
<path d="M116.385 54.001H5.61538C3.06638 54.001 1 56.0654 1 58.6121V132.39C1 134.937 3.06638 137.001 5.61538 137.001H116.385C118.934 137.001 121 134.937 121 132.39V58.6121C121 56.0654 118.934 54.001 116.385 54.001Z" stroke="#BEDDF0" stroke-width="2" stroke-linecap="round" stroke-linejoin="round"/>
<path d="M52 137.001L43 160.001" stroke="#BEDDF0" stroke-width="2" stroke-linecap="round" stroke-linejoin="round"/>
<path d="M70 137.001L79 160.001" stroke="#BEDDF0" stroke-width="2" stroke-linecap="round" stroke-linejoin="round"/>
<path d="M33 160.001H88" stroke="#BEDDF0" stroke-width="2" stroke-linecap="round" stroke-linejoin="round"/>
<path d="M63.5759 86.689L59.0528 90.0541L53.7087 88.2474C53.4512 88.1604 53.1745 88.1469 52.9097 88.2085C52.645 88.2701 52.4028 88.4043 52.2105 88.5959C52.0182 88.7876 51.8835 89.029 51.8216 89.293C51.7597 89.557 51.7731 89.8329 51.8603 90.0897L53.6738 95.4195L50.2974 99.9298C50.1347 100.147 50.0362 100.405 50.0131 100.676C49.99 100.946 50.0432 101.217 50.1667 101.459C50.2902 101.7 50.479 101.903 50.7119 102.043C50.9447 102.183 51.2122 102.255 51.4841 102.251L57.1269 102.179L60.3858 106.772C60.5427 106.993 60.7586 107.167 61.009 107.272C61.2595 107.377 61.5346 107.411 61.8031 107.368C62.0716 107.326 62.3229 107.21 62.5285 107.032C62.7341 106.855 62.8858 106.624 62.9664 106.365L64.1532 102.558L86.5353 124.879C86.8103 125.143 87.1783 125.29 87.5602 125.286C87.9422 125.283 88.3075 125.13 88.5776 124.86C88.8476 124.591 89.0009 124.227 89.0044 123.846C89.0079 123.465 88.8613 123.098 88.5962 122.824L66.2114 100.505L70.0284 99.3221C70.2881 99.2416 70.52 99.0903 70.6979 98.8852C70.8758 98.6802 70.9927 98.4296 71.0352 98.1618C71.0778 97.894 71.0444 97.6196 70.9388 97.3698C70.8332 97.1199 70.6596 96.9045 70.4376 96.7479L65.8292 93.4991L65.9015 87.8715C65.905 87.6004 65.8323 87.3338 65.6918 87.1017C65.5512 86.8697 65.3483 86.6815 65.1061 86.5585C64.8638 86.4354 64.5919 86.3824 64.321 86.4055C64.0501 86.4286 63.7911 86.5268 63.5733 86.689H63.5759Z" fill="#F1C40F"/>
<path d="M66.2659 118.263L64.0039 119.5L66.2659 120.738L67.5034 123L68.741 120.738L71.0039 119.5L68.741 118.263L67.5034 116L66.2659 118.263Z" fill="#BEDDF0"/>
<path d="M45.2659 119.586L43.0039 121.001L45.2659 122.415L46.5034 125L47.741 122.415L50.0039 121.001L47.741 119.586L46.5034 117L45.2659 119.586Z" fill="#F1C40F"/>
<path d="M51.9122 72.5862L49.0039 74.0005L51.9122 75.4148L53.5033 78L55.0944 75.4148L58.0039 74.0005L55.0944 72.5862L53.5033 70L51.9122 72.5862Z" fill="#52A5D8"/>
<path d="M82.9131 97.5864L80.0039 99L82.9131 100.415L84.5032 103L86.0947 100.415L89.0039 99L86.0947 97.5864L84.5032 95L82.9131 97.5864Z" fill="#F1C40F"/>
<path d="M66.9427 72.9399L65.0039 73.9992L66.9427 75.0601L68.0039 77L69.0651 75.0601L71.0039 73.9992L69.0651 72.9399L68.0039 71L66.9427 72.9399Z" fill="#F1C40F"/>
<path d="M41.9427 87.9399L40.0039 88.9992L41.9427 90.0601L43.0039 92L44.0651 90.0601L46.0039 88.9992L44.0651 87.9399L43.0039 86L41.9427 87.9399Z" fill="#F1C40F"/>
<path d="M81.3607 78.0123L80.0402 80.4302L77.623 81.75L80.0447 83.0774L81.3721 85.499L82.6912 83.0811L85.1097 81.7613L82.6881 80.434L81.3607 78.0123Z" fill="#BEDDF0"/>
<path d="M28.9434 114.939L27.0039 116L28.9434 117.061L30.0034 119L31.0644 117.061L33.0039 116L31.0644 114.939L30.0034 113L28.9434 114.939Z" fill="#52A5D8"/>
<path d="M17.5899 100.586L15.0039 101.999L17.5899 103.414L19.0033 106L20.4179 103.414L23.0039 101.999L20.4179 100.586L19.0033 98L17.5899 100.586Z" fill="#F1C40F"/>
<path d="M14.5596 82.2325L11.0039 83.9992L14.5596 85.7675L16.503 89L18.4482 85.7675L22.0039 83.9992L18.4482 82.2325L16.503 79L14.5596 82.2325Z" fill="#52A5D8"/>
<path d="M18.2666 63.586L16.0039 64.9993L18.2666 66.414L19.5033 69L20.7412 66.414L23.0039 64.9993L20.7412 63.586L19.5033 61L18.2666 63.586Z" fill="#BEDDF0"/>
<path d="M29.5596 42.5557L26.0039 44.4991L29.5596 46.4443L31.503 50L33.4482 46.4443L37.0039 44.4991L33.4482 42.5557L31.503 39L29.5596 42.5557Z" fill="#F1C40F"/>
<path d="M64.5596 27.5557L61.0039 29.4991L64.5596 31.4443L66.503 35L68.4482 31.4443L72.0039 29.4991L68.4482 27.5557L66.503 24L64.5596 27.5557Z" fill="#F1C40F"/>
<path d="M46.9434 33.2627L45.0039 34.4994L46.9434 35.7373L48.0034 38L49.0644 35.7373L51.0039 34.4994L49.0644 33.2627L48.0034 31L46.9434 33.2627Z" fill="#52A5D8"/>
<path d="M94.9434 2.26272L93.0039 3.49943L94.9434 4.73728L96.0034 7L97.0644 4.73728L99.0039 3.49943L97.0644 2.26272L96.0034 -5.96046e-08L94.9434 2.26272Z" fill="#F1C40F"/>
<path d="M83.8829 17.5254L80.0039 19.9989L83.8829 22.4746L86.0029 27L88.125 22.4746L92.0039 19.9989L88.125 17.5254L86.0029 13L83.8829 17.5254Z" fill="#BEDDF0"/>
</svg>
