<svg width="201" height="160" viewBox="0 0 201 160" fill="none" xmlns="http://www.w3.org/2000/svg">
<path d="M43.3844 86.5513C57.5764 106.64 95.864 134.948 135.358 86.9075C139 87.2519 145.591 86.6034 151.922 77.9271C146.662 77.7299 141.597 75.8901 137.48 72.6816C131.375 63.6708 116.093 50.7905 101.714 72.9415C93.1437 66.807 77.0283 49.4578 79.3953 31.2638C70.2235 40.2724 55.2391 64.3008 68.5341 88.4871C66.3243 89.365 63.9465 89.7841 61.5532 89.7176C59.1598 89.6511 56.8036 89.1004 54.6354 88.1007" stroke="#F1C40F" stroke-width="2" stroke-linecap="round" stroke-linejoin="round"/>
<path d="M191.619 56.0425L175.888 80.1067L149.914 66.9287" stroke="#F1C40F" stroke-width="2" stroke-linecap="round" stroke-linejoin="round"/>
<path d="M149.914 66.9287L191.619 56.0425L199.534 84.8205C199.658 85.2695 199.593 85.7479 199.354 86.1504C199.116 86.5529 198.723 86.8467 198.262 86.967L160.033 96.946C159.572 97.0663 159.081 97.0033 158.668 96.7709C158.254 96.5385 157.953 96.1557 157.829 95.7067L149.914 66.9287Z" stroke="#F1C40F" stroke-width="2" stroke-linecap="round" stroke-linejoin="round"/>
<path d="M7.33609 45.999C6.24256 45.9991 5.16284 45.7493 4.17594 45.2679C3.18903 44.7864 2.31993 44.0855 1.63221 43.2164C0.944487 42.3473 0.455557 41.3321 0.201197 40.2449C-0.0531616 39.1578 -0.0665169 38.0262 0.162113 36.9331C0.390741 35.84 0.855564 34.813 1.52257 33.9272C2.18958 33.0414 3.0419 32.3193 4.01715 31.8136C4.9924 31.308 6.06592 31.0316 7.15913 31.0048C8.25235 30.9779 9.33761 31.2012 10.3355 31.6584C11.3239 30.2878 12.6724 29.232 14.2243 28.6135C15.7763 27.9951 17.4681 27.8395 19.1032 28.1647C20.7383 28.49 22.2496 29.2827 23.4614 30.4509C24.6733 31.6191 25.5361 33.1148 25.9495 34.7643C26.6893 34.6896 27.4361 34.7687 28.1452 34.9968C28.8542 35.225 29.5108 35.5975 30.0753 36.0918C30.6398 36.5862 31.1006 37.1922 31.4299 37.8735C31.7592 38.5547 31.9502 39.297 31.9915 40.0556C32.0328 40.8143 31.9234 41.5737 31.67 42.288C31.4166 43.0023 31.0243 43.6568 30.5169 44.2121C30.0095 44.7674 29.3974 45.212 28.7175 45.5191C28.0376 45.8262 27.3039 45.9894 26.5606 45.999M30.7982 40.4484C30.8112 39.7888 30.6766 39.1349 30.4047 38.5366C30.1328 37.9383 29.7308 37.4114 29.2294 36.996C28.728 36.5807 28.1405 36.2879 27.5115 36.14C26.8826 35.9921 26.2289 35.993 25.6003 36.1426H25.5927C25.1955 36.2546 24.8296 36.4602 24.5242 36.7429C24.2188 37.0256 23.9824 37.3776 23.8341 37.7705C23.8021 37.8551 23.7531 37.932 23.6902 37.9962C23.6274 38.0603 23.5522 38.1103 23.4693 38.1429C23.3865 38.1756 23.2978 38.1901 23.2091 38.1857C23.1205 38.1812 23.0337 38.1578 22.9544 38.117C22.8119 38.0394 22.7026 37.9105 22.6478 37.7552C22.593 37.5999 22.5965 37.4294 22.6577 37.2767C23.0333 36.2975 23.7737 35.5107 24.7164 35.0891C24.2377 33.1817 23.0628 31.5341 21.4329 30.4844C19.803 29.4347 17.8418 29.0628 15.9521 29.4449C12.8662 30.0678 10.5067 32.6643 10.0812 35.8498C10.0728 35.9148 10.0651 35.9789 10.0584 36.0439C10.043 36.2041 9.96981 36.3527 9.85308 36.4608C9.73636 36.5689 9.58445 36.6288 9.42695 36.6286C9.40549 36.6299 9.38399 36.6299 9.36253 36.6286C9.27951 36.6203 9.19891 36.5953 9.12536 36.555C9.05181 36.5148 8.98676 36.4601 8.93393 36.3941C8.88109 36.3281 8.84152 36.2521 8.81748 36.1704C8.79344 36.0888 8.78541 36.0031 8.79384 35.9182C8.9125 34.7002 9.37779 33.4925 9.69222 32.7933C8.76572 32.3941 7.75665 32.2366 6.75581 32.3351C5.75498 32.4335 4.79379 32.7848 3.95877 33.3573C3.12374 33.9298 2.44109 34.7056 1.97223 35.6148C1.50338 36.524 1.26305 37.5381 1.27287 38.5658C1.30508 41.9783 4.0748 44.703 7.41322 44.703H26.4894C28.8116 44.6995 30.7576 42.8221 30.8016 40.4484H30.7982Z" fill="#BEDDF0"/>
<path d="M155.664 143.999C156.757 143.999 157.837 143.749 158.824 143.268C159.811 142.786 160.68 142.086 161.368 141.216C162.056 140.347 162.544 139.332 162.799 138.245C163.053 137.158 163.067 136.026 162.838 134.933C162.609 133.84 162.144 132.813 161.477 131.927C160.81 131.041 159.958 130.319 158.983 129.814C158.008 129.308 156.934 129.032 155.841 129.005C154.748 128.978 153.662 129.201 152.665 129.658C151.676 128.288 150.328 127.232 148.776 126.614C147.224 125.995 145.532 125.839 143.897 126.165C142.262 126.49 140.75 127.283 139.539 128.451C138.327 129.619 137.464 131.115 137.05 132.764C136.311 132.69 135.564 132.769 134.855 132.997C134.146 133.225 133.489 133.597 132.925 134.092C132.36 134.586 131.899 135.192 131.57 135.873C131.241 136.555 131.05 137.297 131.008 138.056C130.967 138.814 131.077 139.574 131.33 140.288C131.583 141.002 131.976 141.657 132.483 142.212C132.99 142.767 133.603 143.212 134.282 143.519C134.962 143.826 135.696 143.989 136.439 143.999M132.202 138.448C132.189 137.789 132.323 137.135 132.595 136.537C132.867 135.938 133.269 135.411 133.771 134.996C134.272 134.581 134.86 134.288 135.488 134.14C136.117 133.992 136.771 133.993 137.4 134.143H137.407C137.804 134.255 138.17 134.46 138.476 134.743C138.781 135.026 139.018 135.378 139.166 135.77C139.198 135.855 139.247 135.932 139.31 135.996C139.373 136.06 139.448 136.11 139.531 136.143C139.614 136.176 139.702 136.19 139.791 136.186C139.88 136.181 139.966 136.158 140.046 136.117C140.188 136.039 140.297 135.91 140.352 135.755C140.407 135.6 140.403 135.429 140.342 135.277C139.967 134.297 139.226 133.511 138.284 133.089C138.762 131.182 139.937 129.534 141.567 128.484C143.197 127.435 145.158 127.063 147.048 127.445C150.134 128.068 152.493 130.664 152.919 133.85C152.927 133.915 152.935 133.979 152.942 134.044C152.957 134.204 153.03 134.353 153.147 134.461C153.264 134.569 153.416 134.629 153.573 134.629C153.595 134.63 153.616 134.63 153.637 134.629C153.72 134.62 153.801 134.595 153.875 134.555C153.948 134.515 154.013 134.46 154.066 134.394C154.119 134.328 154.158 134.252 154.183 134.17C154.207 134.089 154.215 134.003 154.206 133.918C154.088 132.7 153.622 131.492 153.308 130.793C154.234 130.394 155.243 130.237 156.244 130.335C157.245 130.434 158.206 130.785 159.041 131.357C159.876 131.93 160.559 132.706 161.028 133.615C161.497 134.524 161.737 135.538 161.727 136.566C161.695 139.978 158.925 142.703 155.587 142.703H136.511C134.188 142.7 132.242 140.822 132.198 138.448H132.202Z" fill="#BEDDF0"/>
<path d="M54.0788 159.999C55.8558 159.999 57.6104 159.583 59.2141 158.78C60.8178 157.978 62.2301 156.81 63.3477 155.361C64.4652 153.913 65.2597 152.221 65.6731 150.409C66.0864 148.597 66.1081 146.711 65.7366 144.889C65.365 143.067 64.6097 141.356 63.5258 139.879C62.4419 138.403 61.0569 137.199 59.4721 136.357C57.8873 135.514 56.1429 135.053 54.3664 135.009C52.5899 134.964 50.8264 135.336 49.2048 136.098C47.5987 133.814 45.4074 132.054 42.8854 131.023C40.3634 129.992 37.6143 129.733 34.9573 130.275C32.3003 130.817 29.8445 132.139 27.8752 134.086C25.9059 136.033 24.5039 138.525 23.832 141.274C22.6299 141.15 21.4163 141.282 20.2641 141.662C19.1119 142.042 18.045 142.663 17.1277 143.487C16.2104 144.311 15.4616 145.321 14.9265 146.456C14.3913 147.592 14.0809 148.829 14.0138 150.093C13.9467 151.358 14.1245 152.623 14.5363 153.814C14.9481 155.005 15.5854 156.095 16.41 157.021C17.2345 157.946 18.2292 158.687 19.3341 159.199C20.4389 159.711 21.6312 159.983 22.839 159.999M15.9529 150.748C15.9318 149.649 16.1506 148.559 16.5924 147.562C17.0342 146.565 17.6874 145.686 18.5022 144.994C19.3169 144.302 20.2718 143.814 21.2938 143.567C22.3158 143.321 23.3781 143.322 24.3995 143.572H24.4118C25.0573 143.758 25.652 144.101 26.1482 144.572C26.6445 145.043 27.0286 145.63 27.2696 146.285C27.3216 146.426 27.4013 146.554 27.5034 146.661C27.6054 146.768 27.7277 146.851 27.8624 146.906C27.997 146.96 28.141 146.984 28.2851 146.977C28.4292 146.969 28.5703 146.93 28.6992 146.862C28.9307 146.733 29.1082 146.518 29.1973 146.259C29.2864 146.001 29.2806 145.716 29.1812 145.462C28.571 143.83 27.3677 142.518 25.8359 141.816C26.6137 138.637 28.5229 135.891 31.1715 134.141C33.8201 132.392 37.007 131.772 40.0779 132.409C45.0924 133.447 48.9266 137.774 49.618 143.084C49.6318 143.192 49.6442 143.299 49.6552 143.407C49.6802 143.674 49.7991 143.922 49.9887 144.102C50.1784 144.282 50.4253 144.382 50.6812 144.382C50.7161 144.384 50.751 144.384 50.7859 144.382C50.9208 144.368 51.0518 144.326 51.1713 144.259C51.2908 144.192 51.3965 144.101 51.4824 143.991C51.5682 143.881 51.6325 143.754 51.6716 143.618C51.7107 143.482 51.7237 143.339 51.71 143.198C51.5172 141.168 50.7611 139.155 50.2501 137.99C51.7557 137.324 53.3955 137.062 55.0218 137.226C56.6482 137.39 58.2101 137.975 59.567 138.929C60.9239 139.884 62.0332 141.177 62.7951 142.692C63.557 144.207 63.9475 145.897 63.9316 147.61C63.8792 153.298 59.3784 157.839 53.9535 157.839H22.9547C19.1811 157.833 16.019 154.704 15.9474 150.748H15.9529Z" fill="#BEDDF0"/>
<path d="M156.913 24.999C158.416 24.9992 159.901 24.6522 161.258 23.9835C162.615 23.3148 163.81 22.3414 164.756 21.1343C165.701 19.9272 166.374 18.5171 166.723 17.0072C167.073 15.4973 167.091 13.9257 166.777 12.4075C166.463 10.8893 165.824 9.46289 164.906 8.23263C163.989 7.00236 162.817 5.99939 161.476 5.2971C160.135 4.59481 158.659 4.21097 157.156 4.17367C155.653 4.13637 154.161 4.44656 152.789 5.08153C151.43 3.1779 149.576 1.71145 147.442 0.852515C145.308 -0.00641676 142.981 -0.222576 140.733 0.229146C138.485 0.680867 136.407 1.78193 134.741 3.40444C133.074 5.02694 131.888 7.1043 131.319 9.3952C130.302 9.29146 129.275 9.40133 128.3 9.71821C127.325 10.0351 126.423 10.5524 125.647 11.239C124.87 11.9257 124.237 12.7674 123.784 13.7135C123.331 14.6596 123.068 15.6906 123.012 16.7443C122.955 17.798 123.105 18.8527 123.454 19.8448C123.802 20.8369 124.342 21.746 125.039 22.5172C125.737 23.2885 126.579 23.9059 127.513 24.3324C128.448 24.759 129.457 24.9857 130.479 24.999M124.652 17.2898C124.635 16.3737 124.82 15.4655 125.194 14.6346C125.567 13.8036 126.12 13.0718 126.81 12.4949C127.499 11.918 128.307 11.5114 129.172 11.306C130.036 11.1005 130.935 11.1018 131.8 11.3096H131.81C132.356 11.4652 132.859 11.7507 133.279 12.1433C133.699 12.536 134.024 13.0248 134.228 13.5705C134.272 13.6881 134.34 13.7948 134.426 13.8839C134.512 13.973 134.616 14.0424 134.73 14.0878C134.844 14.1331 134.965 14.1533 135.087 14.1471C135.209 14.1409 135.329 14.1085 135.438 14.0518C135.634 13.944 135.784 13.7649 135.859 13.5493C135.935 13.3336 135.93 13.0968 135.846 12.8846C135.329 11.5246 134.311 10.4319 133.015 9.84642C133.673 7.19725 135.289 4.90879 137.53 3.45093C139.771 1.99308 142.467 1.47648 145.066 2.00721C149.309 2.87235 152.553 6.47851 153.138 10.9029C153.15 10.9931 153.16 11.0822 153.17 11.1724C153.191 11.395 153.292 11.6014 153.452 11.7516C153.613 11.9017 153.821 11.9848 154.038 11.9846C154.067 11.9864 154.097 11.9864 154.127 11.9846C154.241 11.973 154.351 11.9383 154.453 11.8824C154.554 11.8265 154.643 11.7505 154.716 11.6589C154.788 11.5672 154.843 11.4616 154.876 11.3482C154.909 11.2348 154.92 11.1158 154.908 10.9979C154.745 9.30616 154.106 7.62882 153.673 6.65779C154.947 6.10329 156.335 5.88457 157.711 6.0213C159.087 6.15802 160.409 6.64592 161.557 7.44107C162.705 8.23621 163.644 9.31366 164.288 10.5764C164.933 11.8392 165.263 13.2477 165.25 14.6751C165.206 19.4147 161.397 23.199 156.807 23.199H130.577C127.384 23.1941 124.708 20.5867 124.648 17.2898H124.652Z" fill="#BEDDF0"/>
</svg>
