<svg width="93" height="93" viewBox="0 0 93 93" fill="none" xmlns="http://www.w3.org/2000/svg">
<path d="M46.3816 0.00823508C46.3816 0.00823508 73.7907 -1.21736 88.3223 26.2344H44.0494C44.0494 26.2344 35.6942 25.9661 28.557 36.0659C26.5068 40.3051 24.303 44.6719 26.7761 53.2779C23.2135 47.2638 7.8623 20.6293 7.8623 20.6293C7.8623 20.6293 18.6902 1.0935 46.3813 0.00823508H46.3816Z" fill="#EF3F36"/>
<path d="M86.8996 69.6979C86.8996 69.6979 74.2519 93.9704 43.1394 92.7702C46.9837 86.1433 65.2821 54.5673 65.2821 54.5673C65.2821 54.5673 69.7031 47.4937 64.4877 36.2832C61.8348 32.3889 59.131 28.3158 50.4178 26.1449C57.4273 26.0814 88.2453 26.1449 88.2453 26.1449C88.2453 26.1449 99.7905 45.2594 86.8996 69.6979Z" fill="#FCD900"/>
<path d="M6.05557 69.8892C6.05557 69.8892 -8.71919 46.8424 7.88781 20.5908C11.7193 27.2177 30.0177 58.7937 30.0177 58.7937C30.0177 58.7937 33.9646 66.1483 46.3045 67.2459C51.0076 66.9014 55.9024 66.6077 62.156 60.1853C58.7084 66.2632 43.2416 92.8212 43.2416 92.8212C43.2416 92.8212 20.8427 93.2298 6.05521 69.8892H6.05557Z" fill="#61BC5B"/>
<path d="M43.127 93L49.3544 67.1059C49.3544 67.1059 56.1972 66.5693 61.9381 60.3003C58.3755 66.5443 43.127 93 43.127 93Z" fill="#5AB055"/>
<path d="M25.5203 46.7915C25.5203 35.3768 34.8107 26.1196 46.2663 26.1196C57.7219 26.1196 67.0123 35.3768 67.0123 46.7915C67.0123 58.2065 57.7219 67.4633 46.2663 67.4633C34.8107 67.4506 25.5203 58.2065 25.5203 46.7915Z" fill="white"/>
<path d="M28.9924 46.7911C28.9924 37.2917 36.7195 29.5796 46.2661 29.5796C55.7996 29.5796 63.5394 37.279 63.5394 46.7911C63.5394 56.2909 55.8127 64.003 46.2661 64.003C36.7322 64.003 28.9924 56.2909 28.9924 46.7911Z" fill="url(#paint0_linear_522_30690)"/>
<path d="M88.2325 26.1577L62.5912 33.6527C62.5912 33.6527 58.7215 27.9961 50.4053 26.1577C57.6196 26.1193 88.2325 26.1577 88.2325 26.1577Z" fill="#EACA05"/>
<path d="M26.2764 52.333C22.6753 46.1148 7.8623 20.6294 7.8623 20.6294L26.8529 39.3475C26.8529 39.3475 24.9049 43.3441 25.6356 49.0641L26.2761 52.333H26.2764Z" fill="#DF3A32"/>
<defs>
<linearGradient id="paint0_linear_522_30690" x1="46.2652" y1="29.8226" x2="46.2652" y2="62.9669" gradientUnits="userSpaceOnUse">
<stop stop-color="#86BBE5"/>
<stop offset="1" stop-color="#1072BA"/>
</linearGradient>
</defs>
</svg>
