<svg width="10" height="10" viewBox="0 0 10 10" fill="none" xmlns="http://www.w3.org/2000/svg">
    <g clip-path="url(#clip0_341_81653)">
        <path
            d="M9.82128 2.54902L5.17842 0.0534759C5.13205 0.0187641 5.07566 0 5.0177 0C4.95975 0 4.90336 0.0187641 4.85699 0.0534759L0.214133 2.54902C0.151353 2.57636 0.0977736 2.62114 0.0597802 2.67803C0.0217868 2.73492 0.000982535 2.80151 -0.000152752 2.86988V3.93939C-0.00330951 3.98703 0.00376472 4.03478 0.0205963 4.07946C0.0374279 4.12415 0.0636284 4.16472 0.0974435 4.19848C0.131259 4.23223 0.171908 4.25839 0.21667 4.27519C0.261431 4.29199 0.309273 4.29905 0.35699 4.2959H9.6427C9.69042 4.29905 9.73826 4.29199 9.78302 4.27519C9.82779 4.25839 9.86844 4.23223 9.90225 4.19848C9.93607 4.16472 9.96227 4.12415 9.9791 4.07946C9.99593 4.03478 10.003 3.98703 9.99985 3.93939V2.86988C10.0002 2.80559 9.98394 2.7423 9.95266 2.6861C9.92138 2.6299 9.87614 2.58269 9.82128 2.54902Z"
            fill="#CCCCCC"/>
        <path
            d="M5.35715 7.86096C5.40487 7.86411 5.45271 7.85705 5.49747 7.84025C5.54223 7.82345 5.58288 7.79729 5.6167 7.76354C5.65051 7.72978 5.67671 7.68921 5.69354 7.64452C5.71037 7.59984 5.71745 7.55209 5.71429 7.50445V5.00891C5.71745 4.96128 5.71037 4.91352 5.69354 4.86884C5.67671 4.82416 5.65051 4.78358 5.6167 4.74983C5.58288 4.71607 5.54223 4.68992 5.49747 4.67312C5.45271 4.65631 5.40487 4.64925 5.35715 4.6524H4.64286C4.59515 4.64925 4.5473 4.65631 4.50254 4.67312C4.45778 4.68992 4.41713 4.71607 4.38332 4.74983C4.3495 4.78358 4.3233 4.82416 4.30647 4.86884C4.28964 4.91352 4.28256 4.96128 4.28572 5.00891V7.50445C4.28256 7.55209 4.28964 7.59984 4.30647 7.64452C4.3233 7.68921 4.3495 7.72978 4.38332 7.76354C4.41713 7.79729 4.45778 7.82345 4.50254 7.84025C4.5473 7.85705 4.59515 7.86411 4.64286 7.86096H5.35715Z"
            fill="#CCCCCC"/>
        <path
            d="M8.21428 7.86096C8.262 7.86411 8.30984 7.85705 8.3546 7.84025C8.39936 7.82345 8.44001 7.79729 8.47383 7.76354C8.50764 7.72978 8.53384 7.68921 8.55067 7.64452C8.56751 7.59984 8.57458 7.55209 8.57142 7.50445V5.00891C8.57458 4.96128 8.56751 4.91352 8.55067 4.86884C8.53384 4.82416 8.50764 4.78358 8.47383 4.74983C8.44001 4.71607 8.39936 4.68992 8.3546 4.67312C8.30984 4.65631 8.262 4.64925 8.21428 4.6524H7.5C7.45228 4.64925 7.40444 4.65631 7.35968 4.67312C7.31491 4.68992 7.27426 4.71607 7.24045 4.74983C7.20663 4.78358 7.18043 4.82416 7.1636 4.86884C7.14677 4.91352 7.1397 4.96128 7.14285 5.00891V7.50445C7.1397 7.55209 7.14677 7.59984 7.1636 7.64452C7.18043 7.68921 7.20663 7.72978 7.24045 7.76354C7.27426 7.79729 7.31491 7.82345 7.35968 7.84025C7.40444 7.85705 7.45228 7.86411 7.5 7.86096H8.21428Z"
            fill="#CCCCCC"/>
        <path
            d="M2.5 7.86096C2.54772 7.86411 2.59556 7.85705 2.64032 7.84025C2.68508 7.82345 2.72573 7.79729 2.75955 7.76354C2.79336 7.72978 2.81956 7.68921 2.8364 7.64452C2.85323 7.59984 2.8603 7.55209 2.85714 7.50445V5.00891C2.8603 4.96128 2.85323 4.91352 2.8364 4.86884C2.81956 4.82416 2.79336 4.78358 2.75955 4.74983C2.72573 4.71607 2.68508 4.68992 2.64032 4.67312C2.59556 4.65631 2.54772 4.64925 2.5 4.6524H1.78572C1.738 4.64925 1.69016 4.65631 1.6454 4.67312C1.60063 4.68992 1.55998 4.71607 1.52617 4.74983C1.49235 4.78358 1.46615 4.82416 1.44932 4.86884C1.43249 4.91352 1.42542 4.96128 1.42857 5.00891V7.50445C1.42542 7.55209 1.43249 7.59984 1.44932 7.64452C1.46615 7.68921 1.49235 7.72978 1.52617 7.76354C1.55998 7.79729 1.60063 7.82345 1.6454 7.84025C1.69016 7.85705 1.738 7.86411 1.78572 7.86096H2.5Z"
            fill="#CCCCCC"/>
        <path
            d="M9.64286 8.21747H0.357143C0.309425 8.21432 0.261584 8.22138 0.216822 8.23818C0.17206 8.25498 0.131411 8.28113 0.0975961 8.31489C0.063781 8.34864 0.0375805 8.38922 0.0207489 8.4339C0.00391731 8.47858 -0.00315692 8.52634 -1.6368e-07 8.57397V9.64349C-0.00315692 9.69112 0.00391731 9.73888 0.0207489 9.78356C0.0375805 9.82824 0.063781 9.86882 0.0975961 9.90258C0.131411 9.93633 0.17206 9.96248 0.216822 9.97929C0.261584 9.99609 0.309425 10.0031 0.357143 10H9.64286C9.69057 10.0031 9.73842 9.99609 9.78318 9.97929C9.82794 9.96248 9.86859 9.93633 9.9024 9.90258C9.93622 9.86882 9.96242 9.82824 9.97925 9.78356C9.99608 9.73888 10.0032 9.69112 10 9.64349V8.57397C10.0032 8.52634 9.99608 8.47858 9.97925 8.4339C9.96242 8.38922 9.93622 8.34864 9.9024 8.31489C9.86859 8.28113 9.82794 8.25498 9.78318 8.23818C9.73842 8.22138 9.69057 8.21432 9.64286 8.21747Z"
            fill="#CCCCCC"/>
    </g>
    <defs>
        <clipPath id="clip0_341_81653">
            <rect width="10" height="10" fill="white"/>
        </clipPath>
    </defs>
</svg>