<svg width="24" height="24" viewBox="0 0 24 24" fill="none" xmlns="http://www.w3.org/2000/svg">
<path d="M19.4044 17.248L19.4057 17.2502H4.59431L4.59557 17.248C5.29315 16.048 6.01859 13.9648 6.01903 10.5034C6.01904 10.5016 6.01904 10.4998 6.01904 10.4981C6.01684 9.71118 6.16993 8.93159 6.46954 8.20397C6.76914 7.47635 7.20938 6.815 7.76501 6.25781C8.32065 5.70062 8.98077 5.25854 9.70755 4.9569C10.4343 4.65527 11.2135 4.5 12.0004 4.5C12.7873 4.5 13.5664 4.65527 14.2932 4.9569C15.02 5.25854 15.6801 5.70062 16.2357 6.25781L16.7668 5.72822L16.2357 6.25781C16.7914 6.815 17.2316 7.47635 17.5312 8.20397C17.8308 8.9316 17.9839 9.71118 17.9817 10.4981V10.5002C17.9817 13.9636 18.707 16.0477 19.4044 17.248Z" stroke="#F1C40F" stroke-width="1.5" stroke-linecap="round" stroke-linejoin="round"/>
<mask id="path-2-inside-1_527_22130" fill="white">
<path d="M9 18V18.75C9 19.5456 9.31607 20.3087 9.87868 20.8713C10.4413 21.4339 11.2044 21.75 12 21.75C12.7956 21.75 13.5587 21.4339 14.1213 20.8713C14.6839 20.3087 15 19.5456 15 18.75V18"/>
</mask>
<path d="M10.5 18C10.5 17.1716 9.82843 16.5 9 16.5C8.17157 16.5 7.5 17.1716 7.5 18H10.5ZM9 18.75H7.5H9ZM16.5 18C16.5 17.1716 15.8284 16.5 15 16.5C14.1716 16.5 13.5 17.1716 13.5 18H16.5ZM7.5 18V18.75H10.5V18H7.5ZM7.5 18.75C7.5 19.9435 7.97411 21.0881 8.81802 21.932L10.9393 19.8107C10.658 19.5294 10.5 19.1478 10.5 18.75H7.5ZM8.81802 21.932C9.66193 22.7759 10.8065 23.25 12 23.25V20.25C11.6022 20.25 11.2206 20.092 10.9393 19.8107L8.81802 21.932ZM12 23.25C13.1935 23.25 14.3381 22.7759 15.182 21.932L13.0607 19.8107C12.7794 20.092 12.3978 20.25 12 20.25V23.25ZM15.182 21.932C16.0259 21.0881 16.5 19.9435 16.5 18.75H13.5C13.5 19.1478 13.342 19.5294 13.0607 19.8107L15.182 21.932ZM16.5 18.75V18H13.5V18.75H16.5Z" fill="#F1C40F" mask="url(#path-2-inside-1_527_22130)"/>
</svg>
