<svg width="27" height="24" viewBox="0 0 27 24" fill="none" xmlns="http://www.w3.org/2000/svg">
<path d="M10.4999 17C12.4329 17 13.9999 15.433 13.9999 13.5C13.9999 11.567 12.4329 10 10.4999 10C8.56694 10 6.99994 11.567 6.99994 13.5C6.99994 15.433 8.56694 17 10.4999 17Z" stroke="black" stroke-width="1.5" stroke-linecap="round" stroke-linejoin="round"/>
<path d="M3.78505 22.9998C4.37686 21.6833 5.31019 20.571 6.47666 19.7922C7.64313 19.0134 8.99488 18.6 10.3749 18.6C11.755 18.6 13.1068 19.0134 14.2732 19.7922C15.4397 20.571 16.373 21.6833 16.9648 22.9998L24.9583 23C25.095 23 25.2305 22.9716 25.3569 22.9163C25.4833 22.861 25.5981 22.78 25.6948 22.6778C25.7916 22.5757 25.8683 22.4544 25.9206 22.321C25.973 22.1875 25.9999 22.0445 25.9999 21.9V2.1C25.9999 1.80826 25.8902 1.52847 25.6948 1.32218C25.4995 1.11589 25.2345 1 24.9583 1H2.04161C1.76534 1 1.50039 1.11589 1.30504 1.32218C1.10969 1.52847 0.999939 1.80826 0.999939 2.1V21.9001C0.999939 22.0446 1.02688 22.1876 1.07923 22.321C1.13158 22.4545 1.20831 22.5757 1.30504 22.6779C1.40177 22.78 1.5166 22.861 1.64298 22.9163C1.76936 22.9716 1.90482 23 2.04161 23L3.78505 22.9998Z" stroke="black" stroke-width="1.5" stroke-linecap="round" stroke-linejoin="round"/>
<path d="M19.1249 17H20.9999V5H5.99994V7" stroke="black" stroke-width="1.5" stroke-linecap="round" stroke-linejoin="round"/>
</svg>
