<svg width="15" height="15" viewBox="0 0 15 15" fill="none" xmlns="http://www.w3.org/2000/svg">
<path d="M9.25218 13.4909C9.86672 13.8879 10.599 14.061 11.326 13.9809C12.0529 13.9008 12.7302 13.5725 13.2438 13.0511L13.6929 12.6113C13.8898 12.4097 14 12.1388 14 11.8568C14 11.5747 13.8898 11.3039 13.6929 11.1022L11.7869 9.21321C11.5872 9.01667 11.3184 8.90654 11.0384 8.90654C10.7585 8.90654 10.4897 9.01667 10.29 9.21321V9.21321C10.0886 9.41039 9.8182 9.52079 9.53658 9.52079C9.25496 9.52079 8.98453 9.41039 8.78316 9.21321L5.78942 6.21487C5.68955 6.1163 5.61024 5.99883 5.55611 5.86929C5.50198 5.73974 5.4741 5.60072 5.4741 5.46029C5.4741 5.31986 5.50198 5.18083 5.55611 5.05128C5.61024 4.92174 5.68955 4.80427 5.78942 4.7057V4.7057C5.98566 4.50571 6.09562 4.23652 6.09562 3.95612C6.09562 3.67571 5.98566 3.40652 5.78942 3.20653L3.89338 1.30758C3.69201 1.1104 3.42157 1 3.13995 1C2.85833 1 2.5879 1.1104 2.38653 1.30758L1.94745 1.75733C1.42688 2.27179 1.09906 2.95007 1.01909 3.67814C0.939127 4.4062 1.1119 5.13964 1.50837 5.75512C3.57409 8.80417 6.20249 11.4298 9.25218 13.4909V13.4909Z" stroke="#F1C40F" stroke-width="1.5" stroke-linecap="round" stroke-linejoin="round"/>
</svg>
