<svg width="20" height="20" viewBox="0 0 20 20" fill="none" xmlns="http://www.w3.org/2000/svg">
<path d="M10 20C15.5228 20 20 15.5228 20 10C20 4.47715 15.5228 0 10 0C4.47715 0 0 4.47715 0 10C0 15.5228 4.47715 20 10 20Z" fill="black" fill-opacity="0.2"/>
<path d="M14.705 8.00556L12.29 5.32222C12.105 5.11667 11.85 5 11.585 5H7C6.45 5 6 5.5 6 6.11111V13.8889C6 14.5 6.45 15 7 15H14C14.55 15 15 14.5 15 13.8889V8.79444C15 8.5 14.895 8.21667 14.705 8.00556ZM8 7.22222H11.5V8.33333H8V7.22222ZM13 12.7778H8V11.6667H13V12.7778ZM13 10.5556H8V9.44444H13V10.5556Z" fill="#7F808D"/>
</svg>
