<svg width="16" height="13" viewBox="0 0 16 13" fill="none" xmlns="http://www.w3.org/2000/svg">
<g clip-path="url(#clip0_70_3814)">
<path d="M16 12.3699V12.8984H0V12.3699C0 12.0894 0.227642 11.8577 0.512195 11.8577H1.02439C1.02439 11.8577 1.02439 11.8252 1.02439 11.8049V11.3293C1.02439 11.0488 1.25203 10.8211 1.53659 10.8171H2.30488V4.21545H1.02846C0.699187 4.21545 0.430894 3.95122 0.430894 3.62195C0.430894 3.38211 0.573171 3.16667 0.792683 3.07317L7.76423 0.0487805C7.91463 -0.0162602 8.08537 -0.0162602 8.23577 0.0487805L15.2154 3.07317C15.5163 3.20325 15.6585 3.55285 15.5285 3.85366C15.435 4.07317 15.2195 4.21545 14.9797 4.21545H13.7033V10.8211H14.4715C14.752 10.8211 14.9797 11.0488 14.9837 11.3333V11.8089C14.9837 11.8089 14.9837 11.8415 14.9837 11.8618H15.4959C15.7764 11.8618 16.0041 12.0894 16.0081 12.374L16 12.3699ZM3.49187 10.8252H5.70325V5.40244H3.49187V10.8252ZM3.89837 3.02846H12.1098L8.00407 1.24797L3.89837 3.02846ZM6.89837 5.40244V10.8211H9.10976V5.39837H6.89837V5.40244ZM12.5163 10.8252V5.40244H10.3049V10.8252H12.5163Z" fill="#999999"/>
</g>
<defs>
<clipPath id="clip0_70_3814">
<rect width="16" height="12.8984" fill="white"/>
</clipPath>
</defs>
</svg>
