<svg width="14" height="14" viewBox="0 0 14 14" fill="none" xmlns="http://www.w3.org/2000/svg">
<g clip-path="url(#clip0_70_3832)">
<path d="M6.4 1.1H1.5C1.27903 1.1 1.1 1.27903 1.1 1.5V12.5C1.1 12.721 1.27903 12.9 1.5 12.9H9.5C9.72097 12.9 9.9 12.721 9.9 12.5V9.71V9.66858L9.92929 9.63929L10.9293 8.63929L11.1 8.46858V8.71V12.5C11.1 13.3836 10.3836 14.1 9.5 14.1H1.5C0.616372 14.1 -0.1 13.3836 -0.1 12.5V1.5C-0.1 0.616372 0.616372 -0.0999994 1.5 -0.0999994L6.37992 -0.0999994L6.38 -0.0999994V0C6.9106 -0.000399431 7.4196 0.210001 7.795 0.585001L6.4 1.1ZM6.4 1.1V3C6.4 3.88363 7.11637 4.6 8 4.6H8.04142L8.07071 4.57071L9.07071 3.57071L9.24142 3.4H9.23642L6.4 1.1ZM7.6 3V1.94642L9.05358 3.4H9H8C7.77903 3.4 7.6 3.22097 7.6 3Z" fill="#999999" stroke="#999999" stroke-width="0.2"/>
<path d="M11.4217 2.36244L11.4217 2.36245C11.3527 2.4201 11.289 2.48356 11.2312 2.55239L10.2345 3.54912L10.2343 3.54928L5.98446 7.77912L5.98445 7.77911L5.98352 7.78006C5.79716 7.97055 5.63585 8.18413 5.50326 8.41523L5.50308 8.41513L5.50024 8.42091L4.2827 10.9H2.5C2.16857 10.9 1.9 11.1686 1.9 11.5C1.9 11.8314 2.16857 12.1 2.5 12.1L4.5 12.1L4.50128 12.1C4.63542 12.0983 4.76448 12.0516 4.8684 11.9683C4.89241 11.969 4.91647 11.9675 4.94026 11.9638L4.95554 11.9615L4.9694 11.9546L7.7244 10.5896L7.72455 10.5899L7.73179 10.5855C7.94643 10.4556 8.14437 10.2994 8.32065 10.1208C8.32084 10.1206 8.32102 10.1204 8.3212 10.1202L8.60007 9.84634L8.60067 9.84575L12.5707 5.88075L12.5707 5.88071L13.5691 4.88229C13.897 4.58225 14.0887 4.16179 14.1 3.71753L14.1001 3.71753L14.1 3.71188C14.0862 3.26986 13.8964 2.85181 13.5726 2.55089C13.0302 1.90684 12.0686 1.82226 11.4217 2.36244ZM12.7032 4.02038L12.1341 4.60724L11.4967 3.96577L12.0702 3.40126L12.0705 3.40163L12.077 3.39375C12.1569 3.29727 12.2673 3.23138 12.3897 3.20673C12.5123 3.23202 12.6228 3.2979 12.7033 3.39417L12.7087 3.40067L12.7152 3.40617C12.8106 3.48727 12.8763 3.59734 12.9029 3.71926C12.8897 3.77614 12.868 3.83037 12.839 3.8803L12.7032 4.02038ZM6.93429 8.99571L7.31789 9.38348L7.27381 9.42078L7.14881 9.50874L6.01786 10.0661L6.5524 8.96892C6.59801 8.89757 6.64857 8.82941 6.70361 8.76503L6.93391 8.99532L6.93429 8.99571ZM8.17954 8.54403L7.86072 8.22929L7.54097 7.90544L10.65 4.79642L11.2886 5.43499L8.17954 8.54403Z" fill="#999999" stroke="#999999" stroke-width="0.2"/>
</g>
<defs>
<clipPath id="clip0_70_3832">
<rect width="14" height="14" fill="white"/>
</clipPath>
</defs>
</svg>
