<svg width="10" height="14" viewBox="0 0 10 14" fill="none" xmlns="http://www.w3.org/2000/svg">
<path d="M5 7L1.2 4.15C1.1379 4.10343 1.0875 4.04303 1.05279 3.97361C1.01807 3.90418 1 3.82762 1 3.75V1.5C1 1.36739 1.05268 1.24021 1.14645 1.14645C1.24021 1.05268 1.36739 1 1.5 1H8.5C8.63261 1 8.75979 1.05268 8.85355 1.14645C8.94732 1.24021 9 1.36739 9 1.5V3.72757C9 3.80488 8.98208 3.88113 8.94763 3.95034C8.91319 4.01955 8.86317 4.07983 8.8015 4.12644L5 7Z" stroke="#999999" stroke-width="1.5" stroke-linecap="round" stroke-linejoin="round"/>
<path d="M5 7L1.2 9.85C1.1379 9.89657 1.0875 9.95697 1.05279 10.0264C1.01807 10.0958 1 10.1724 1 10.25V12.5C1 12.6326 1.05268 12.7598 1.14645 12.8536C1.24021 12.9473 1.36739 13 1.5 13H8.5C8.63261 13 8.75979 12.9473 8.85355 12.8536C8.94732 12.7598 9 12.6326 9 12.5V10.2724C9 10.1951 8.98208 10.1189 8.94763 10.0497C8.91319 9.98045 8.86317 9.92017 8.8015 9.87356L5 7Z" stroke="#999999" stroke-width="1.5" stroke-linecap="round" stroke-linejoin="round"/>
<path d="M1 2.99976H9" stroke="#999999" stroke-width="1.5" stroke-linecap="round" stroke-linejoin="round"/>
</svg>
