<svg width="16" height="10" viewBox="0 0 16 10" fill="none" xmlns="http://www.w3.org/2000/svg">
<g clip-path="url(#clip0_70_4360)">
<path d="M7.9203 0.246923H6.62629C6.55753 0.246923 6.5044 0.303184 6.5044 0.368822V7.31393H6.38875L1.57843 0.300059C1.55655 0.268803 1.51592 0.246923 1.47841 0.246923H0.121899C0.0531354 0.246923 0 0.303184 0 0.368822V9.83942C0 9.90819 0.056261 9.96132 0.121899 9.96132H1.40027C1.46904 9.96132 1.52217 9.90506 1.52217 9.83942V2.80055H1.63782L6.50127 9.91131C6.52315 9.94257 6.56378 9.96445 6.60442 9.96445H7.9203C7.98906 9.96445 8.0422 9.90819 8.0422 9.84255V0.371948C8.0422 0.300059 7.98593 0.246923 7.9203 0.246923ZM15.6343 8.67669H9.42997C9.33932 8.67669 9.26744 8.75171 9.26744 8.83923V9.81754C9.26744 9.90819 9.34245 9.98007 9.42997 9.98007H15.6343C15.7249 9.98007 15.7968 9.90506 15.7968 9.81754V8.83923C15.8 8.74858 15.7249 8.67669 15.6343 8.67669ZM12.5274 7.38894C13.6058 7.38894 14.4716 7.03888 15.103 6.33249C15.7031 5.66048 16 4.78531 16 3.70385C16 2.62239 15.7031 1.73471 15.103 1.06583C14.4716 0.35632 13.6089 0 12.5274 0C11.446 0 10.5708 0.35632 9.94882 1.07834C9.35183 1.75347 9.06427 2.62864 9.06427 3.70385C9.06427 4.77906 9.35495 5.64798 9.95194 6.32311C10.5771 7.03262 11.4429 7.38894 12.5274 7.38894ZM11.0709 2.00664C11.4147 1.58468 11.8929 1.37527 12.5274 1.37527C13.1619 1.37527 13.6464 1.57218 13.9777 1.96913C14.3122 2.38484 14.4872 2.95995 14.4872 3.70072C14.4872 4.44149 14.3153 5.01035 13.9809 5.41356C13.6433 5.81051 13.1651 6.01055 12.5306 6.01055C11.8961 6.01055 11.4085 5.80113 11.074 5.38855C10.7427 4.9791 10.5739 4.42274 10.5739 3.70385C10.5708 2.97558 10.7365 2.41922 11.0709 2.00664Z" fill="#999999"/>
</g>
<defs>
<clipPath id="clip0_70_4360">
<rect width="16" height="9.98007" fill="white"/>
</clipPath>
</defs>
</svg>
