<svg width="20" height="20" viewBox="0 0 20 20" fill="none" xmlns="http://www.w3.org/2000/svg">
<path d="M10 6.25H16.875C17.0408 6.25 17.1997 6.31585 17.3169 6.43306C17.4342 6.55027 17.5 6.70924 17.5 6.875V15.625C17.5 15.7908 17.4342 15.9497 17.3169 16.0669C17.1997 16.1842 17.0408 16.25 16.875 16.25H3.125C2.95939 16.2495 2.8007 16.1835 2.68359 16.0664C2.56649 15.9493 2.50048 15.7906 2.5 15.625V8.125" stroke="black" stroke-width="1.5" stroke-linecap="round" stroke-linejoin="round"/>
<path d="M7.29167 8.125H2.5V5C2.5 4.83424 2.56585 4.67527 2.68306 4.55806C2.80027 4.44085 2.95924 4.375 3.125 4.375H7.29167C7.4269 4.375 7.55848 4.41886 7.66667 4.5L10 6.25L7.66667 8C7.55848 8.08114 7.4269 8.125 7.29167 8.125Z" stroke="black" stroke-width="1.5" stroke-linecap="round" stroke-linejoin="round"/>
</svg>
