<svg width="32" height="33" viewBox="0 0 32 33" fill="none" xmlns="http://www.w3.org/2000/svg">
<circle cx="16" cy="16.002" r="16" fill="#999999"/>
<path d="M7.19158 16.0289C11.8444 14.0531 14.9471 12.7506 16.4995 12.1213C20.932 10.3245 21.853 10.0124 22.4533 10.0021C22.5853 9.9998 22.8806 10.0317 23.0718 10.1829C23.2333 10.3106 23.2777 10.4831 23.2989 10.6042C23.3202 10.7253 23.3467 11.001 23.3256 11.2166C23.0854 13.6763 22.0461 19.6453 21.5174 22.4002C21.2936 23.5659 20.8531 23.9568 20.4266 23.995C19.4997 24.0781 18.7959 23.398 17.8982 22.8245C16.4934 21.927 15.6998 21.3684 14.3363 20.4926C12.7605 19.4805 13.782 18.9243 14.6801 18.0152C14.9151 17.7773 18.9989 14.157 19.0779 13.8286C19.0878 13.7876 19.097 13.6345 19.0037 13.5536C18.9103 13.4728 18.7726 13.5004 18.6732 13.5224C18.5323 13.5536 16.2882 14.9992 11.9409 17.8593C11.3039 18.2856 10.7269 18.4933 10.21 18.4824C9.64013 18.4704 8.54391 18.1683 7.72898 17.9102C6.72944 17.5935 5.93502 17.4261 6.0042 16.8883C6.04023 16.6082 6.43602 16.3217 7.19158 16.0289Z" fill="white"/>
</svg>
