<svg width="32" height="33" viewBox="0 0 32 33" fill="none" xmlns="http://www.w3.org/2000/svg">
<circle cx="16" cy="16.002" r="16" fill="#999999"/>
<path fill-rule="evenodd" clip-rule="evenodd" d="M15.9999 5.33545C13.103 5.33545 12.7398 5.34773 11.6021 5.39964C10.4667 5.45142 9.69132 5.63175 9.01285 5.89546C8.31142 6.16801 7.71656 6.53274 7.12353 7.12573C6.53054 7.71876 6.16581 8.31362 5.89326 9.01504C5.62956 9.69352 5.44923 10.4689 5.39744 11.6043C5.34553 12.742 5.33325 13.1052 5.33325 16.0021C5.33325 18.899 5.34553 19.2623 5.39744 20.4C5.44923 21.5353 5.62956 22.3107 5.89326 22.9892C6.16581 23.6906 6.53054 24.2855 7.12353 24.8785C7.71656 25.4715 8.31142 25.8362 9.01285 26.1088C9.69132 26.3725 10.4667 26.5528 11.6021 26.6046C12.7398 26.6565 13.103 26.6688 15.9999 26.6688C18.8968 26.6688 19.2601 26.6565 20.3978 26.6046C21.5331 26.5528 22.3085 26.3725 22.987 26.1088C23.6884 25.8362 24.2833 25.4715 24.8763 24.8785C25.4693 24.2855 25.834 23.6906 26.1066 22.9892C26.3703 22.3107 26.5506 21.5353 26.6024 20.4C26.6543 19.2623 26.6666 18.899 26.6666 16.0021C26.6666 13.1052 26.6543 12.742 26.6024 11.6043C26.5506 10.4689 26.3703 9.69352 26.1066 9.01504C25.834 8.31362 25.4693 7.71876 24.8763 7.12573C24.2833 6.53274 23.6884 6.16801 22.987 5.89546C22.3085 5.63175 21.5331 5.45142 20.3978 5.39964C19.2601 5.34773 18.8968 5.33545 15.9999 5.33545ZM15.9999 7.25737C18.848 7.25737 19.1854 7.26825 20.3102 7.31957C21.3502 7.36699 21.9149 7.54076 22.2908 7.68684C22.7887 7.88034 23.144 8.11148 23.5173 8.48476C23.8906 8.858 24.1217 9.21333 24.3152 9.71122C24.4613 10.0871 24.635 10.6519 24.6825 11.6919C24.7338 12.8166 24.7447 13.154 24.7447 16.0021C24.7447 18.8502 24.7338 19.1876 24.6825 20.3124C24.635 21.3524 24.4613 21.9171 24.3152 22.293C24.1217 22.7909 23.8906 23.1462 23.5173 23.5195C23.144 23.8928 22.7887 24.1239 22.2908 24.3174C21.9149 24.4635 21.3502 24.6372 20.3102 24.6847C19.1856 24.736 18.8482 24.7469 15.9999 24.7469C13.1516 24.7469 12.8143 24.736 11.6897 24.6847C10.6497 24.6372 10.0849 24.4635 9.70902 24.3174C9.21113 24.1239 8.8558 23.8928 8.48256 23.5195C8.10932 23.1462 7.87814 22.7909 7.68464 22.293C7.53856 21.9171 7.36479 21.3524 7.31737 20.3124C7.26605 19.1876 7.25517 18.8502 7.25517 16.0021C7.25517 13.154 7.26605 12.8166 7.31737 11.6919C7.36479 10.6519 7.53856 10.0871 7.68464 9.71122C7.87814 9.21333 8.10928 8.858 8.48256 8.48476C8.8558 8.11148 9.21113 7.88034 9.70902 7.68684C10.0849 7.54076 10.6497 7.36699 11.6897 7.31957C12.8144 7.26825 13.1518 7.25737 15.9999 7.25737Z" fill="white"/>
<path fill-rule="evenodd" clip-rule="evenodd" d="M16 19.5574C14.0362 19.5574 12.4444 17.9656 12.4444 16.0019C12.4444 14.0382 14.0362 12.4463 16 12.4463C17.9636 12.4463 19.5555 14.0382 19.5555 16.0019C19.5555 17.9656 17.9636 19.5574 16 19.5574ZM16 10.5244C12.9748 10.5244 10.5225 12.9767 10.5225 16.0019C10.5225 19.027 12.9748 21.4794 16 21.4794C19.0251 21.4794 21.4774 19.027 21.4774 16.0019C21.4774 12.9767 19.0251 10.5244 16 10.5244Z" fill="white"/>
<path fill-rule="evenodd" clip-rule="evenodd" d="M22.9738 10.3083C22.9738 11.0153 22.4007 11.5883 21.6938 11.5883C20.9869 11.5883 20.4138 11.0153 20.4138 10.3083C20.4138 9.60141 20.9869 9.02832 21.6938 9.02832C22.4007 9.02832 22.9738 9.60141 22.9738 10.3083Z" fill="white"/>
</svg>
