<svg width="32" height="33" viewBox="0 0 32 33" fill="none" xmlns="http://www.w3.org/2000/svg">
<circle cx="16" cy="16.002" r="16" fill="#999999"/>
<path fill-rule="evenodd" clip-rule="evenodd" d="M24.3114 9.11168C25.2288 9.35344 25.9546 10.0653 26.201 10.9652C26.6529 12.6037 26.6666 16.0018 26.6666 16.0018C26.6666 16.0018 26.6666 19.4133 26.2147 21.0384C25.9683 21.9383 25.2425 22.6501 24.3251 22.8919C22.6683 23.3351 15.9999 23.3351 15.9999 23.3351C15.9999 23.3351 9.33154 23.3351 7.67472 22.8919C6.7573 22.6501 6.03158 21.9383 5.78511 21.0384C5.33325 19.3998 5.33325 16.0018 5.33325 16.0018C5.33325 16.0018 5.33325 12.6037 5.77142 10.9786C6.01789 10.0787 6.74361 9.36687 7.66102 9.12511C9.31785 8.68189 15.9862 8.66846 15.9862 8.66846C15.9862 8.66846 22.6546 8.66846 24.3114 9.11168ZM19.3957 16.0018L13.8638 19.1446V12.8589L19.3957 16.0018Z" fill="white"/>
</svg>
