<svg width="32" height="33" viewBox="0 0 32 33" fill="none" xmlns="http://www.w3.org/2000/svg">
<rect y="0.00195312" width="32" height="32" rx="16" fill="#999999"/>
<path d="M23.8357 8.12482C23.3064 7.63824 21.1638 6.08034 16.3876 6.059C16.3876 6.059 10.7578 5.71754 8.01335 8.23579C6.48532 9.76382 5.94753 11.9961 5.89204 14.7705C5.83655 17.5405 5.76399 22.735 10.7706 24.1435H10.7749L10.7706 26.2904C10.7706 26.2904 10.7407 27.1611 11.3127 27.3361C12.0041 27.5495 12.4139 26.8879 13.0755 26.1752C13.4383 25.7825 13.9376 25.2105 14.3175 24.7709C17.7406 25.0569 20.3741 24.3996 20.6729 24.3014C21.3644 24.0752 25.2783 23.5758 25.9143 18.3814C26.5716 13.0375 25.5942 9.65284 23.8357 8.12482ZM24.4161 18.0058C23.8784 22.3423 20.7071 22.6155 20.1223 22.8033C19.8748 22.8844 17.5614 23.4606 14.6504 23.2685C14.6504 23.2685 12.4822 25.8849 11.8078 26.5636C11.7011 26.6703 11.5773 26.713 11.4962 26.6916C11.381 26.6617 11.3468 26.5252 11.3511 26.3245C11.3511 26.0343 11.3682 22.752 11.3682 22.752C11.3639 22.752 11.3639 22.752 11.3682 22.752C7.12982 21.5783 7.37738 17.1564 7.42433 14.843C7.47128 12.5296 7.90664 10.6303 9.19991 9.35407C11.5176 7.2541 16.3022 7.56568 16.3022 7.56568C20.34 7.58275 22.2735 8.7992 22.7217 9.20468C24.2113 10.4851 24.971 13.5369 24.4161 18.0058Z" fill="white"/>
<path d="M18.3554 14.9243C18.2145 14.9243 18.095 14.8133 18.0865 14.6682C18.0395 13.7505 17.6085 13.3024 16.7292 13.2554C16.5798 13.2469 16.4646 13.1188 16.4731 12.9694C16.4816 12.82 16.6097 12.7048 16.7591 12.7133C17.92 12.7774 18.5688 13.4432 18.6286 14.6383C18.6371 14.7877 18.5219 14.9157 18.3725 14.92C18.3639 14.9243 18.3597 14.9243 18.3554 14.9243Z" fill="white"/>
<path d="M19.7382 15.385H19.7339C19.5845 15.3807 19.465 15.2569 19.4693 15.1075C19.4906 14.1856 19.226 13.4387 18.6626 12.824C18.1035 12.2094 17.3309 11.8765 16.3108 11.8039C16.1614 11.7911 16.0505 11.6631 16.0633 11.5137C16.0761 11.3643 16.2041 11.2533 16.3535 11.2661C17.5059 11.3515 18.4151 11.7527 19.0638 12.4612C19.7169 13.174 20.0327 14.0661 20.0114 15.1204C20.0071 15.2697 19.8833 15.385 19.7382 15.385Z" fill="white"/>
<path d="M21.1552 15.9401C21.0059 15.9401 20.8863 15.8206 20.8863 15.6712C20.8735 14.0194 20.3998 12.7603 19.4351 11.817C18.4833 10.8866 17.2754 10.4128 15.8541 10.4C15.7047 10.4 15.5852 10.2762 15.5852 10.1268C15.5852 9.97742 15.709 9.85791 15.8541 9.85791C17.4205 9.87071 18.7522 10.3957 19.8065 11.4286C20.865 12.4615 21.4071 13.8871 21.4241 15.6627C21.4284 15.8164 21.3089 15.9401 21.1552 15.9401C21.1595 15.9401 21.1595 15.9401 21.1552 15.9401Z" fill="white"/>
<path d="M16.793 18.2663C16.793 18.2663 17.1729 18.3004 17.3778 18.0486L17.7747 17.5492C17.9668 17.3016 18.432 17.1437 18.8845 17.3955C19.1363 17.5364 19.593 17.8181 19.8747 18.0272C20.1777 18.2492 20.7924 18.7614 20.7966 18.7656C21.0911 19.0132 21.1594 19.376 20.9588 19.7644C20.9588 19.7644 20.9588 19.7687 20.9588 19.7729C20.7539 20.1357 20.4765 20.4772 20.1308 20.793C20.1265 20.793 20.1265 20.7973 20.1223 20.7973C19.8363 21.0363 19.5546 21.1729 19.2814 21.2028C19.2473 21.2113 19.2088 21.2113 19.1576 21.2113C19.0381 21.2113 18.9186 21.1943 18.7991 21.1558L18.7906 21.143C18.3637 21.0235 17.6552 20.7247 16.4772 20.0717C15.7089 19.6492 15.0729 19.2181 14.5309 18.787C14.2449 18.5608 13.9547 18.3089 13.6559 18.0102C13.6473 18.0016 13.6345 17.9888 13.626 17.9803C13.6175 17.9717 13.6047 17.9589 13.5961 17.9504C13.5876 17.9419 13.5748 17.9291 13.5663 17.9205C13.5577 17.912 13.5449 17.8992 13.5364 17.8906C13.2419 17.5919 12.9858 17.3016 12.7596 17.0157C12.3285 16.4779 11.8974 15.8376 11.4748 15.0693C10.8218 13.887 10.523 13.1785 10.4035 12.756L10.3907 12.7474C10.3523 12.6279 10.3352 12.5084 10.3352 12.3889C10.3352 12.3377 10.3352 12.2993 10.3437 12.2651C10.3779 11.9877 10.5145 11.7103 10.7492 11.4243C10.7492 11.42 10.7535 11.42 10.7535 11.4157C11.0693 11.0657 11.4108 10.7926 11.7736 10.5877C11.7736 10.5877 11.7779 10.5877 11.7821 10.5877C12.1663 10.3871 12.5291 10.4554 12.7809 10.7499C12.7809 10.7499 13.2974 11.3688 13.5193 11.6718C13.7284 11.9578 14.0101 12.4102 14.151 12.6621C14.4028 13.1145 14.2449 13.5797 13.9973 13.7718L13.498 14.1688C13.2461 14.3736 13.2803 14.7535 13.2803 14.7535C13.2803 14.7535 14.0187 17.562 16.793 18.2663Z" fill="white"/>
</svg>
