<svg xmlns="http://www.w3.org/2000/svg" viewBox="0 0 512 512"><path d="M30 180.947v331h452v-331H30z" fill="#f40000"/><path d="M409.6 48.646c-4.799-23.399-21.899-41.4-45-46.8-23.399-5.7-46.8 2.401-61.5 21l-47.4 58.802-47.1-58.801c-14.7-18.6-38.399-26.7-61.5-21-23.101 5.4-40.199 23.401-45 46.8-3.6 17.701 1.199 36 12.599 50.101 11.4 14.099 28.5 22.2 46.8 22.2H350.2c18.3 0 35.099-8.101 46.8-22.2 11.401-14.101 16.2-32.401 12.6-50.102z" fill="#fdbf00"/><path d="M350.2 120.947h-94.5v-39.3l47.4-58.8c14.7-18.6 38.101-26.7 61.5-21 23.101 5.4 40.201 23.401 45 46.8 3.6 17.701-1.199 36-12.599 50.101-11.701 14.099-28.501 22.199-46.801 22.199z" fill="#ff9f00"/><path fill="#e10000" d="M255.7 180.949H482v331H255.7z"/><path d="M0 90.947v120h512v-120H0z" fill="#ff3636"/><path fill="#f40000" d="M255.7 90.949H512v120H255.7z"/><path d="M181 90.947v421h150v-421H181z" fill="#ffd400"/><path fill="#fdbf00" d="M255.7 90.949H331v421h-75.3z"/></svg>