<svg width="16" height="16" viewBox="0 0 16 16" fill="none" xmlns="http://www.w3.org/2000/svg">
<g clip-path="url(#clip0_520_27189)">
<path d="M15.12 7.2343C15.3095 7.4443 15.4144 7.71713 15.4144 8.00002C15.4144 8.2829 15.3095 8.55573 15.12 8.76573C13.92 10.0572 11.1885 12.5714 7.99996 12.5714C4.81138 12.5714 2.07995 10.0572 0.879955 8.76573C0.690423 8.55573 0.58551 8.2829 0.58551 8.00002C0.58551 7.71713 0.690423 7.4443 0.879955 7.2343C2.07995 5.94287 4.81138 3.42859 7.99996 3.42859C11.1885 3.42859 13.92 5.94287 15.12 7.2343Z" stroke="#999999" stroke-width="1.5" stroke-linecap="round" stroke-linejoin="round"/>
<path d="M7.99995 10.2857C9.26231 10.2857 10.2857 9.26237 10.2857 8.00001C10.2857 6.73764 9.26231 5.71429 7.99995 5.71429C6.73758 5.71429 5.71423 6.73764 5.71423 8.00001C5.71423 9.26237 6.73758 10.2857 7.99995 10.2857Z" stroke="#999999" stroke-width="1.5" stroke-linecap="round" stroke-linejoin="round"/>
</g>
<defs>
<clipPath id="clip0_520_27189">
<rect width="16" height="16" fill="white"/>
</clipPath>
</defs>
</svg>
