<svg xmlns="http://www.w3.org/2000/svg" width="12" height="11" viewBox="0 0 12 11" fill="none">
    <path
        d="M0 11H1.2C1.53 11 1.8 10.725 1.8 10.3889V4.88889C1.8 4.55278 1.53 4.27778 1.2 4.27778H0V11ZM11.898 6.64889C11.964 6.49611 12 6.33111 12 6.16V5.5C12 4.82778 11.46 4.27778 10.8 4.27778H7.5L8.052 1.43611C8.082 1.30167 8.064 1.155 8.004 1.03278C7.866 0.757778 7.692 0.507222 7.476 0.287222L7.2 0L3.354 3.91722C3.126 4.14944 3 4.46111 3 4.785V9.57611C3 10.3583 3.63 11 4.404 11H9.27C9.69 11 10.086 10.7739 10.302 10.4072L11.898 6.64889Z"
        fill="#7F808D"/>
</svg>