<svg width="160" height="19" viewBox="0 0 160 19" fill="none" xmlns="http://www.w3.org/2000/svg">
<path d="M10.4467 12.0618C10.2635 12.2418 9.89691 12.2418 9.53036 12.2418C9.53036 12.2418 5.49828 12.2418 4.94845 12.2418C5.49828 11.5218 5.86483 10.6218 6.04811 9.54183C6.41466 8.28183 6.59794 6.84183 6.59794 5.22183V3.24183V3.06183C6.59794 2.88183 6.59794 2.70183 6.78121 2.52183C6.78121 2.52183 6.96449 2.34183 7.14777 2.34183C7.51432 2.34183 8.4307 2.34183 8.98053 2.34183H9.89691C10.2635 2.34183 10.4467 2.34183 10.63 2.52183C10.63 2.70183 10.8133 2.70183 10.8133 2.88183V11.1618C10.8133 11.7018 10.63 11.8818 10.4467 12.0618ZM15.7617 16.9218C15.7617 16.7418 15.7617 16.5618 15.7617 16.2018C15.7617 15.8418 15.5785 15.3018 15.5785 14.7618C15.5785 14.4018 15.5785 14.2218 15.5785 14.0418C15.5785 13.8618 15.5785 13.5018 15.5785 13.3218C15.5785 12.9618 15.3952 12.6018 15.2119 12.4218C15.0286 12.2418 14.8454 12.2418 14.4788 12.2418H13.7457C13.3792 12.2418 13.1959 12.2418 13.0126 12.0618C12.8293 11.8818 12.8293 11.7018 12.8293 11.1618V2.88183C12.8293 2.34183 13.0126 2.16183 13.3792 2.16183C13.5624 2.16183 13.5624 2.16183 13.7457 2.16183C13.929 2.16183 14.1123 2.16183 14.2955 2.16183C14.6621 2.16183 14.8454 2.16183 15.0286 1.98183C15.2119 1.80183 15.2119 1.62183 15.2119 1.26183C15.2119 1.08183 15.2119 0.90183 15.0286 0.72183C14.8454 0.54183 14.4788 0.541831 13.7457 0.541831C13.5624 0.541831 13.0126 0.541831 12.4628 0.541831C11.9129 0.541831 11.3631 0.541831 11.1798 0.541831C10.4467 0.541831 4.94845 0.541831 4.39862 0.541831C4.21535 0.541831 3.8488 0.541831 3.48224 0.541831C3.11569 0.541831 2.74914 0.541831 2.38259 0.541831C2.19931 0.541831 1.83276 0.54183 1.64948 0.72183C1.64948 0.90183 1.64948 1.08183 1.64948 1.44183C1.64948 1.80183 1.83276 2.34183 2.56586 2.34183C2.74914 2.34183 2.93242 2.34183 3.11569 2.16183C3.48225 2.16183 3.66552 2.16183 3.8488 2.16183C4.03207 2.16183 4.21535 2.16183 4.39862 2.34183C4.5819 2.52183 4.5819 2.70183 4.5819 3.06183V5.04183C4.5819 8.28183 4.03207 10.4418 2.93242 11.3418C2.38259 11.8818 1.83276 12.0618 1.28293 12.0618C0.366552 12.0618 0.183276 12.4218 0.183276 13.1418C0.183276 13.3218 0.183276 13.6818 0.183276 13.8618C0.183276 14.0418 0.183276 14.4018 0.183276 14.7618C0.183276 15.3018 0.183276 15.8418 0 16.2018C0 16.5618 0 16.7418 0 16.9218C0 17.2818 0.183276 17.4618 0.366552 17.6418C0.549828 17.8218 0.733103 17.8218 1.09966 17.8218C1.28293 17.8218 1.64948 17.6418 1.83276 17.4618C2.01604 17.2818 2.19931 16.9218 2.19931 16.7418C2.19931 16.5618 2.19931 16.3818 2.19931 16.0218C2.19931 15.6618 2.19931 15.4818 2.19931 15.1218C2.19931 14.5818 2.38259 14.4018 2.56586 14.0418C2.93242 13.6818 3.66552 13.5018 4.94845 13.5018H11.9129H12.2795H12.646C13.1959 13.5018 14.4788 13.6818 14.4788 14.9418C14.4788 15.3018 14.4788 15.6618 14.4788 15.8418C14.4788 16.0218 14.4788 16.3818 14.4788 16.5618C14.4788 16.9218 14.6621 17.1018 14.8454 17.2818C15.0286 17.4618 15.2119 17.4618 15.3952 17.4618C15.5785 17.4618 15.7617 17.4618 15.945 17.2818C15.5785 17.4618 15.7617 17.2818 15.7617 16.9218ZM28.4078 9.18183C28.4078 8.82183 28.2245 8.64183 28.0412 8.46183C27.858 8.28183 27.6747 8.28183 27.4914 8.28183C27.3081 8.28183 27.1249 8.46183 26.9416 8.46183C26.7583 8.64183 26.575 8.82183 26.575 9.18183C26.575 9.36183 26.575 9.54183 26.575 9.90183C26.575 10.0818 26.575 10.4418 26.575 10.8018C26.575 11.5218 26.3918 11.8818 26.2085 12.0618C26.0252 12.2418 25.6586 12.2418 24.7423 12.2418H21.6266C21.26 12.2418 20.8935 12.2418 20.8935 12.0618C20.7102 11.8818 20.7102 11.5218 20.7102 11.1618V8.10183C20.7102 7.92183 20.7102 7.74183 20.8935 7.56183C20.8935 7.56183 21.0767 7.38183 21.4433 7.38183C22.543 7.38183 23.0928 7.38183 23.2761 7.56183C23.4593 7.74183 23.4593 8.10183 23.4593 8.64183V8.82183C23.4593 9.00183 23.4593 9.18183 23.4593 9.36183C23.4593 9.54183 23.4593 9.90183 23.6426 9.90183C23.8259 10.0818 24.0092 10.0818 24.1924 10.0818C24.3757 10.0818 24.559 10.0818 24.559 9.90183C24.7423 9.72183 24.9255 9.36183 24.9255 8.82183C24.9255 8.64183 24.9255 8.28183 24.9255 7.92183C24.9255 7.56183 24.9255 7.02183 24.9255 6.48183C24.9255 5.94183 24.9255 5.40183 24.9255 5.04183C24.9255 4.68183 24.9255 4.50183 24.9255 4.32183C24.9255 3.78183 24.7423 3.42183 24.559 3.24183C24.3757 3.06183 24.1924 3.06183 24.0092 3.06183C23.8259 3.06183 23.6426 3.06183 23.4593 3.24183C23.2761 3.42183 23.2761 3.60183 23.2761 3.96183C23.2761 4.14183 23.2761 4.32183 23.2761 4.50183C23.2761 4.68183 23.2761 4.86183 23.2761 4.86183C23.2761 5.76183 23.0928 5.94183 21.26 5.94183C20.7102 5.94183 20.5269 5.76183 20.5269 5.40183V3.24183C20.5269 2.70183 20.5269 2.52183 20.7102 2.34183C20.8935 2.16183 21.0767 2.16183 21.4433 2.16183H24.3757C25.1088 2.16183 25.4754 2.16183 25.8419 2.34183C26.0252 2.52183 26.2085 2.88183 26.2085 3.60183C26.2085 3.96183 26.2085 4.32183 26.2085 4.50183C26.2085 4.68183 26.2085 4.86183 26.2085 5.04183C26.2085 5.40183 26.3918 5.58183 26.575 5.76183C26.7583 5.94183 26.9416 5.94183 27.1249 5.94183C27.6747 5.94183 28.0412 5.58183 28.0412 5.04183C28.0412 4.86183 28.0412 4.68183 28.0412 4.32183C28.0412 3.96183 27.858 3.42183 27.858 2.88183C27.858 2.52183 27.858 2.34183 27.858 2.16183C27.858 1.98183 27.858 1.62183 27.858 1.44183C27.858 1.08183 27.6747 0.721831 27.4914 0.541831C27.3081 0.361831 27.1249 0.18183 26.7583 0.18183C26.575 0.18183 26.2085 0.18183 26.0252 0.18183C25.6586 0.18183 25.2921 0.18183 24.7423 0.18183H20.7102H20.3436C20.1604 0.18183 19.7938 0.18183 19.6105 0.18183C18.8774 0.18183 18.3276 0.181831 17.9611 0.00183105C17.5945 0.00183105 17.228 0.00183105 17.0447 0.00183105C16.6781 0.00183105 16.4948 0.00182996 16.3116 0.18183C16.1283 0.36183 16.1283 0.541831 16.1283 0.901831C16.1283 1.08183 16.1283 1.26183 16.3116 1.44183C16.4948 2.16183 16.6781 2.16183 16.8614 2.16183C17.0447 2.16183 17.2279 2.16183 17.4112 2.16183C17.5945 2.16183 17.7778 2.16183 17.9611 2.16183C18.6942 2.16183 18.8774 2.52183 18.8774 3.06183V11.1618C18.8774 12.0618 18.6942 12.2418 17.9611 12.2418C17.7778 12.2418 17.5945 12.2418 17.4112 12.2418C17.2279 12.2418 17.0447 12.2418 16.8614 12.2418C16.3116 12.2418 15.945 12.6018 15.945 13.1418C15.945 13.5018 15.945 13.6818 16.1283 13.8618C16.3116 14.0418 16.4948 14.0418 16.8614 14.0418C16.8614 14.0418 17.0447 14.0418 17.228 14.0418C17.5945 14.0418 18.3276 13.8618 19.4273 13.8618H24.9255C26.0252 13.8618 26.575 13.8618 26.7583 14.0418H26.9416C27.4914 14.0418 28.0412 13.6818 28.0412 12.9618C28.0412 12.7818 28.0412 12.6018 28.0412 12.2418C28.0412 12.0618 28.0412 11.7018 28.0412 11.5218C28.0412 10.9818 28.0412 10.4418 28.2245 10.0818C28.4078 9.54183 28.4078 9.36183 28.4078 9.18183ZM39.5876 11.5218C39.0378 12.0618 38.1214 12.2418 37.0218 12.2418C35.9221 12.2418 35.189 12.2418 34.8225 11.8818C34.6392 11.7018 34.6392 11.5218 34.6392 11.1618V8.46183C34.6392 7.92183 34.8225 7.74183 35.0057 7.56183C35.189 7.38183 35.7388 7.38183 36.4719 7.38183C38.1214 7.38183 39.2211 7.56183 39.7709 8.28183C40.1375 8.64183 40.3207 9.18183 40.3207 9.90183C40.1375 10.6218 39.9542 11.1618 39.5876 11.5218ZM37.0218 5.94183H35.7388C35.189 5.94183 34.8225 5.94183 34.6392 5.76183V5.58183V3.06183C34.6392 2.70183 34.6392 2.52183 34.8225 2.34183C35.0057 2.16183 35.189 2.16183 35.3723 2.16183H38.488C39.0378 2.16183 39.2211 2.16183 39.4044 2.34183C39.4044 2.34183 39.5876 2.52183 39.5876 2.70183C39.5876 3.06183 39.5876 3.24183 39.5876 3.60183C39.5876 3.78183 39.5876 3.96183 39.5876 4.14183C39.5876 4.32183 39.5876 4.50183 39.7709 4.68183C39.9542 4.86183 40.1375 4.86183 40.504 4.86183C41.0538 4.86183 41.2371 4.68183 41.2371 4.14183C41.2371 3.96183 41.2371 3.78183 41.2371 3.42183C41.2371 3.24183 41.2371 2.88183 41.2371 2.70183C41.2371 2.52183 41.2371 2.16183 41.2371 1.98183C41.2371 1.80183 41.2371 1.62183 41.2371 1.62183C41.2371 1.44183 41.2371 0.541831 39.9542 0.541831C39.7709 0.541831 39.4044 0.541831 39.0378 0.541831C38.3047 0.541831 37.5716 0.541831 36.8385 0.541831H33.3562C32.6231 0.541831 32.0733 0.541831 31.5235 0.541831C31.1569 0.541831 30.9737 0.541831 30.7904 0.541831C29.874 0.541831 29.874 1.08183 29.874 1.44183C29.874 1.98183 30.2406 2.34183 30.7904 2.34183C30.9737 2.34183 31.1569 2.34183 31.1569 2.34183C31.3402 2.34183 31.5235 2.34183 31.89 2.34183C32.4399 2.34183 32.8064 2.70183 32.8064 3.24183V11.3418C32.8064 12.2418 32.6231 12.6018 31.89 12.6018C31.7068 12.6018 31.5235 12.6018 31.3402 12.6018C31.1569 12.6018 30.9737 12.6018 30.7904 12.6018C30.6071 12.6018 30.2406 12.6018 30.0573 12.7818C29.6907 12.6018 29.6907 12.7818 29.6907 12.9618C29.6907 13.3218 29.6907 13.5018 29.874 13.6818C30.0573 13.8618 30.2406 13.8618 30.6071 13.8618C30.7904 13.8618 30.9737 13.8618 31.3402 13.8618C31.89 13.8618 32.4399 13.6818 33.3562 13.6818C34.0894 13.6818 34.8225 13.6818 35.3723 13.8618C35.9221 13.8618 36.4719 13.8618 37.0218 13.8618C40.3207 13.8618 42.3368 12.4218 42.3368 9.90183C42.3368 8.82183 41.9702 7.92183 41.2371 7.20183C40.3207 6.30183 38.8545 5.94183 37.0218 5.94183ZM54.2497 8.10183C53.6999 8.10183 53.3333 8.64183 53.3333 9.18183C53.3333 9.36183 53.3333 9.54183 53.3333 9.90183C53.3333 10.2618 53.3333 10.4418 53.3333 10.8018C53.3333 11.5218 53.1501 11.8818 52.9668 12.0618C52.7835 12.2418 52.417 12.2418 51.5006 12.2418H48.3849C48.0183 12.2418 47.6518 12.2418 47.6518 12.0618C47.4685 11.8818 47.4685 11.5218 47.4685 11.1618V8.10183C47.4685 7.92183 47.4685 7.74183 47.6518 7.74183C47.6518 7.74183 47.8351 7.56183 48.2016 7.56183C49.3013 7.56183 49.8511 7.56183 50.0344 7.74183C50.2176 7.92183 50.2176 8.28183 50.2176 8.82183V9.00183C50.2176 9.18183 50.2176 9.18183 50.2176 9.36183V9.54183C50.2176 9.72183 50.2176 9.90183 50.4009 10.0818C50.5842 10.2618 50.7675 10.2618 50.9507 10.2618C51.134 10.2618 51.3173 10.2618 51.3173 10.0818C51.5006 9.90183 51.6839 9.54183 51.6839 9.00183C51.6839 8.82183 51.6839 8.46183 51.6839 8.10183C51.6839 7.74183 51.6839 7.20183 51.6839 6.66183C51.6839 6.12183 51.6839 5.58183 51.6839 5.22183C51.6839 4.86183 51.6839 4.68183 51.6839 4.50183C51.6839 3.42183 51.134 3.24183 50.9507 3.24183C50.7675 3.24183 50.5842 3.24183 50.4009 3.42183C50.2176 3.60183 50.2176 3.78183 50.2176 4.14183C50.2176 4.32183 50.2176 4.50183 50.2176 4.68183C50.2176 4.86183 50.2176 5.04183 50.2176 5.04183C50.2176 5.58183 50.2176 5.76183 49.8511 5.94183C49.4845 6.12183 48.9347 6.12183 48.2016 6.12183C47.8351 6.12183 47.6518 6.12183 47.6518 5.94183C47.6518 5.94183 47.4685 5.76183 47.4685 5.40183V3.24183C47.4685 2.70183 47.4685 2.34183 47.6518 2.34183C47.8351 2.16183 48.0183 2.16183 48.3849 2.16183H51.3173C52.2337 2.16183 52.6002 2.34183 52.7835 2.52183C52.9668 2.70183 53.1501 3.06183 53.1501 3.78183C53.1501 4.14183 53.1501 4.50183 53.1501 4.68183C53.1501 4.86183 53.1501 5.04183 53.1501 5.22183C53.1501 5.58183 53.3333 5.76183 53.5166 5.94183C53.6999 6.12183 53.8832 6.12183 54.0664 6.12183C54.6163 6.12183 54.9828 5.76183 54.9828 5.22183C54.9828 5.04183 54.9828 4.86183 54.9828 4.50183C54.9828 4.14183 54.7995 3.60183 54.7995 3.06183C54.7995 2.70183 54.7995 2.52183 54.7995 2.16183C54.7995 1.98183 54.7995 1.62183 54.7995 1.44183C54.7995 0.721831 54.433 0.361831 53.6999 0.361831C53.5166 0.361831 53.1501 0.361831 52.9668 0.361831C52.6002 0.361831 52.2337 0.361831 51.6839 0.361831H47.6518H47.2852C47.1019 0.361831 46.9187 0.361831 46.5521 0.361831C45.819 0.361831 45.2692 0.36183 44.7194 0.18183C44.3528 0.18183 43.9863 0.18183 43.803 0.18183C43.4364 0.18183 43.2532 0.181831 43.0699 0.361831C42.8866 0.54183 42.8866 0.721831 42.8866 0.901831C42.8866 1.08183 42.8866 1.26183 43.0699 1.44183C43.2532 1.62183 43.4364 1.62183 43.803 1.62183C43.9863 1.62183 44.1695 1.62183 44.3528 1.62183C44.5361 1.62183 44.7194 1.62183 44.9026 1.62183C45.2692 1.62183 45.4525 1.62183 45.6357 1.80183C45.819 1.98183 45.819 2.16183 45.819 2.52183V10.6218C45.819 11.5218 45.6357 11.7018 44.9026 11.7018C44.7194 11.7018 44.5361 11.7018 44.3528 11.7018C44.1695 11.7018 43.9863 11.7018 43.803 11.7018C43.6197 11.7018 43.4364 11.7018 43.2531 11.8818C43.0699 12.0618 43.0699 12.2418 43.0699 12.4218C43.0699 12.7818 43.0699 12.9618 43.2531 13.1418C43.4364 13.3218 43.6197 13.3218 43.9863 13.3218C43.9863 13.3218 44.1695 13.3218 44.3528 13.3218C44.7194 13.3218 45.4525 13.1418 46.5521 13.1418H52.0504C53.1501 13.1418 53.6999 13.1418 53.8832 13.3218H54.0664C54.433 13.3218 54.6163 13.1418 54.7995 12.9618C54.9828 12.7818 55.1661 12.4218 55.1661 12.0618C55.1661 11.8818 55.1661 11.5218 55.1661 11.3418C55.1661 10.9818 55.1661 10.8018 55.1661 10.4418C55.1661 9.90183 55.1661 9.36183 55.3494 9.00183C55.3494 8.82183 55.3494 8.46183 55.3494 8.28183C55.3494 7.92183 55.1661 7.74183 55.1661 7.56183C54.6163 8.28183 54.433 8.10183 54.2497 8.10183ZM67.8121 4.68183C67.8121 4.32183 67.6289 3.78183 67.6289 3.24183C67.6289 2.88183 67.6289 2.70183 67.6289 2.34183C67.6289 2.16183 67.6289 1.80183 67.6289 1.62183C67.6289 0.90183 67.2623 0.361831 66.3459 0.361831C66.1627 0.361831 66.1627 0.361831 65.9794 0.361831C65.6128 0.361831 65.063 0.541831 63.5968 0.541831H60.2978C58.6483 0.541831 57.9152 0.54183 57.732 0.361831H57.5487C57.1821 0.361831 56.8156 0.54183 56.6323 0.72183C56.449 0.90183 56.2658 1.26183 56.2658 1.62183C56.2658 1.80183 56.2658 2.16183 56.2658 2.34183C56.2658 2.52183 56.2658 2.88183 56.2658 3.24183C56.2658 3.78183 56.2658 4.32183 56.0825 4.68183C56.0825 4.86183 56.0825 5.22183 56.0825 5.40183C56.0825 5.76183 56.2658 5.94183 56.449 6.12183C56.6323 6.30183 56.8156 6.30183 56.9989 6.30183C57.1821 6.30183 57.3654 6.30183 57.5487 6.12183C57.732 5.94183 57.9152 5.58183 57.9152 5.40183C57.9152 5.22183 57.9152 5.04183 57.9152 4.86183C57.9152 4.50183 57.9152 4.32183 57.9152 3.96183C57.9152 3.24183 57.9152 3.06183 58.0985 2.70183C58.2818 2.52183 58.6483 2.34183 59.5647 2.34183C60.1145 2.34183 60.4811 2.34183 60.6644 2.52183C60.8477 2.70183 60.8477 2.88183 60.8477 3.42183V11.1618C60.8477 12.0618 60.6644 12.2418 59.748 12.2418C59.5647 12.2418 59.3815 12.2418 59.1982 12.2418C59.0149 12.2418 58.8316 12.2418 58.6483 12.2418C58.4651 12.2418 58.0985 12.4218 57.9152 12.4218C57.732 12.6018 57.732 12.7818 57.732 12.9618C57.732 13.3218 57.9152 13.5018 58.0985 13.6818C58.2818 13.8618 58.4651 13.8618 58.8316 13.8618C59.1982 13.8618 59.748 13.8618 60.1145 13.8618C60.6644 13.8618 61.2142 13.8618 61.764 13.8618C62.4971 13.8618 63.047 13.8618 63.5968 13.8618C63.9634 13.8618 64.3299 13.8618 64.6964 13.8618C65.4296 13.8618 65.7961 13.5018 65.7961 12.9618C65.7961 12.4218 65.4296 12.0618 64.6964 12.0618C64.5132 12.0618 64.3299 12.0618 64.1466 12.0618C63.9633 12.0618 63.7801 12.0618 63.7801 12.0618C63.4135 12.0618 63.047 12.0618 62.8637 11.8818C62.6804 11.7018 62.6804 11.5218 62.6804 10.9818V3.24183C62.6804 2.70183 62.6804 2.52183 62.8637 2.34183C63.047 2.16183 63.2302 2.16183 63.7801 2.16183C64.6964 2.16183 65.063 2.34183 65.4296 2.52183C65.6128 2.70183 65.7961 3.06183 65.7961 3.78183C65.7961 4.14183 65.7961 4.50183 65.7961 4.86183C65.7961 5.04183 65.7961 5.22183 65.7961 5.40183C65.7961 5.76183 65.9794 5.94183 66.1627 6.12183C66.3459 6.30183 66.5292 6.30183 66.7125 6.30183C66.8958 6.30183 67.079 6.30183 67.2623 6.12183C67.4456 5.94183 67.4456 5.76183 67.4456 5.40183C67.8121 5.22183 67.8121 4.86183 67.8121 4.68183ZM89.622 9.36183C89.622 8.64183 89.0722 8.46183 88.8889 8.46183C88.7056 8.46183 88.5223 8.46183 88.3391 8.64183C88.1558 8.82183 88.1558 9.00183 88.1558 9.36183V10.8018C88.1558 12.0618 87.9725 12.4218 87.2394 12.4218C86.5063 12.4218 86.323 11.7018 86.1398 10.6218C85.9565 9.90183 85.7732 9.00183 85.4067 8.28183C85.0401 7.56183 83.7572 6.84183 82.6575 6.66183C83.3906 6.12183 83.9404 5.58183 84.1237 4.68183L84.4903 3.42183C84.6735 2.52183 85.0401 2.16183 85.7732 2.16183C85.9565 2.16183 85.9565 2.16183 85.9565 2.16183C85.7732 2.34183 85.5899 2.52183 85.5899 2.88183C85.5899 3.42183 86.1398 3.96183 86.8729 3.96183C87.2394 3.96183 87.4227 3.78183 87.7892 3.60183C87.9725 3.42183 88.1558 3.06183 88.1558 2.70183C88.1558 2.16183 87.9725 1.62183 87.606 1.26183C87.2394 0.901831 86.5063 0.541831 85.7732 0.541831C85.5899 0.541831 85.0401 0.541831 84.4903 0.901831C83.5739 1.08183 83.2073 1.44183 82.8408 2.16183C82.6575 2.70183 82.4742 3.24183 82.291 3.78183C82.1077 4.50183 81.9244 5.22183 81.3746 5.58183C81.008 5.94183 80.6415 6.12183 79.3585 6.12183H79.1753C79.1753 6.12183 78.992 5.94183 78.992 5.76183V2.88183C78.992 2.34183 79.1753 2.16183 79.7251 2.16183C79.9084 2.16183 80.0916 2.16183 80.0916 2.16183C80.2749 2.16183 80.4582 2.16183 80.4582 2.16183C80.8248 2.16183 81.1913 1.80183 81.1913 1.44183C81.1913 0.901831 80.8247 0.541831 80.0916 0.541831C79.9084 0.541831 79.7251 0.541831 79.3585 0.541831C78.992 0.541831 78.4422 0.541831 77.7091 0.541831C76.976 0.541831 76.4261 0.541831 75.8763 0.541831C75.5098 0.541831 75.1432 0.541831 74.9599 0.541831C74.5934 0.541831 74.2268 0.721831 74.0435 0.901831C73.8603 1.08183 73.8603 1.26183 73.8603 1.44183C73.8603 1.62183 73.8603 1.80183 74.0435 1.98183C74.2268 2.16183 74.4101 2.16183 74.7766 2.16183C74.9599 2.16183 75.1432 2.16183 75.3265 2.16183C75.5097 2.16183 75.693 2.16183 75.8763 2.16183C76.4261 2.16183 76.7927 2.34183 76.7927 3.06183V11.5218C76.7927 11.8818 76.7927 12.2418 76.6094 12.2418C76.4261 12.4218 76.2428 12.4218 76.0596 12.4218C75.8763 12.4218 75.693 12.4218 75.5097 12.4218C75.3265 12.4218 75.1432 12.4218 74.9599 12.4218C74.7766 12.4218 74.4101 12.4218 74.4101 12.6018C74.2268 12.7818 74.2268 12.9618 74.2268 13.1418C74.2268 13.6818 74.5934 14.0418 75.1432 14.0418C75.3265 14.0418 75.5098 14.0418 75.8763 14.0418C76.4261 14.0418 77.1592 13.8618 78.0756 14.0418C78.6254 14.0418 78.992 14.0418 79.5418 14.0418C79.9084 14.0418 80.2749 14.0418 80.6415 14.0418C81.1913 14.0418 81.5579 13.8618 81.7411 13.6818C81.9244 13.5018 81.9244 13.3218 81.9244 13.1418C81.9244 12.9618 81.9244 12.7818 81.7411 12.6018C81.5579 12.4218 81.3746 12.4218 81.1913 12.4218C81.008 12.4218 81.008 12.4218 80.8247 12.4218C80.6415 12.4218 80.4582 12.4218 80.2749 12.4218C79.9084 12.4218 79.7251 12.4218 79.5418 12.2418C79.3585 12.0618 79.3585 11.8818 79.3585 11.5218V8.10183C79.3585 7.92183 79.3585 7.74183 79.3585 7.74183C79.3585 7.74183 79.7251 7.56183 79.9084 7.56183C81.3746 7.56183 82.4742 7.92183 83.0241 8.64183C83.5739 9.18183 83.9404 10.8018 84.307 11.8818C84.4903 12.2418 84.4903 12.6018 84.6735 12.9618C84.8568 13.3218 85.0401 13.6818 85.5899 13.8618C85.9565 14.0418 86.323 14.2218 86.8729 14.2218C87.7892 14.2218 88.3391 14.0418 88.8889 13.6818C89.4387 13.3218 89.622 12.6018 89.622 11.7018V9.36183ZM99.3356 4.50183C99.3356 5.40183 99.1524 5.94183 98.4193 6.30183C97.8694 6.66183 96.953 6.84183 95.3036 6.84183C94.7537 6.84183 94.5704 6.84183 94.3872 6.84183C94.3872 6.84183 94.2039 6.84183 94.2039 6.48183V3.24183C94.2039 2.88183 94.2039 2.70183 94.3872 2.52183C94.5704 2.34183 95.1203 2.34183 96.0367 2.34183C97.3196 2.34183 98.236 2.52183 98.7858 3.06183C99.1524 3.24183 99.3356 3.78183 99.3356 4.50183ZM100.252 1.44183C99.5189 0.901831 98.236 0.541831 96.7698 0.541831C96.2199 0.541831 95.6701 0.541831 95.1203 0.541831C94.3872 0.541831 93.8373 0.541831 93.1042 0.541831C92.3711 0.541831 91.8213 0.541831 91.4548 0.541831C91.0882 0.541831 90.9049 0.541831 90.7217 0.541831C90.3551 0.541831 90.1718 0.54183 89.9886 0.72183C89.8053 0.90183 89.8053 1.08183 89.8053 1.44183C89.8053 1.62183 89.8053 1.98183 89.9886 1.98183C90.1718 2.16183 90.3551 2.16183 90.7217 2.16183C90.9049 2.16183 91.0882 2.16183 91.0882 2.16183C91.2715 2.16183 91.4548 2.16183 91.8213 2.16183C92.3711 2.16183 92.5544 2.52183 92.5544 3.06183V11.3418C92.5544 11.7018 92.5544 11.8818 92.3711 12.0618C92.1879 12.2418 92.0046 12.2418 91.638 12.2418C91.4548 12.2418 91.2715 12.2418 91.2715 12.2418C91.0882 12.2418 90.9049 12.2418 90.7217 12.2418C90.5384 12.2418 90.1718 12.2418 90.1718 12.4218C89.9886 12.6018 89.9886 12.7818 89.9886 12.9618C89.9886 13.1418 89.9886 13.5018 90.1718 13.5018C90.3551 13.6818 90.5384 13.6818 90.9049 13.6818C91.0882 13.6818 91.2715 13.6818 91.638 13.6818C92.1879 13.6818 92.921 13.6818 93.6541 13.6818C94.2039 13.6818 94.5705 13.6818 95.1203 13.6818C95.4868 13.6818 96.0367 13.6818 96.4032 13.6818C96.953 13.6818 97.3196 13.5018 97.5029 13.3218C97.6861 13.1418 97.6861 12.9618 97.6861 12.7818C97.6861 12.6018 97.6861 12.4218 97.5029 12.2418C97.3196 12.0618 97.1363 12.0618 96.7698 12.0618C96.5865 12.0618 96.5865 12.0618 96.4032 12.0618C96.2199 12.0618 96.0367 12.0618 95.8534 12.0618C95.1203 12.0618 94.937 11.8818 94.937 11.1618V8.46183C94.937 8.28183 94.937 8.28183 94.937 8.28183C94.937 8.28183 95.3036 8.28183 95.4868 8.28183C95.6701 8.28183 95.6701 8.28183 95.8534 8.28183C96.0367 8.28183 96.4032 8.28183 96.5865 8.28183C98.6025 8.28183 100.069 7.92183 100.985 7.02183C101.718 6.30183 101.902 5.40183 101.902 4.32183C101.535 3.06183 101.168 2.16183 100.252 1.44183ZM113.448 8.28183C113.265 8.28183 113.081 8.46183 112.898 8.46183C112.715 8.64183 112.532 9.00183 112.532 9.18183C112.532 9.36183 112.532 9.54183 112.532 9.72183C112.532 10.0818 112.532 10.2618 112.532 10.6218C112.532 11.1618 112.532 11.5218 112.165 11.8818C111.982 12.0618 111.615 12.2418 110.699 12.2418H107.583C107.217 12.2418 106.85 12.2418 106.85 12.0618C106.85 12.0618 106.667 11.7018 106.667 11.1618V8.10183C106.667 7.92183 106.667 7.74183 106.85 7.56183C106.85 7.56183 107.033 7.38183 107.4 7.38183C108.499 7.38183 109.049 7.38183 109.233 7.56183C109.416 7.74183 109.416 8.10183 109.416 8.64183V8.82183C109.416 9.00183 109.416 9.18183 109.416 9.54183C109.416 9.72183 109.416 10.0818 109.599 10.0818C109.782 10.2618 109.966 10.2618 110.149 10.2618C110.332 10.2618 110.515 10.2618 110.515 10.0818C110.699 9.90183 110.882 9.54183 110.882 9.00183C110.882 8.82183 110.882 8.46183 110.882 8.10183C110.882 7.74183 110.882 7.20183 110.882 6.66183C110.882 6.12183 110.882 5.58183 110.882 5.22183C110.882 4.86183 110.882 4.68183 110.882 4.50183C110.882 3.96183 110.699 3.60183 110.515 3.42183C110.332 3.24183 110.149 3.24183 109.966 3.24183C109.416 3.24183 109.233 3.60183 109.233 4.14183C109.233 4.32183 109.233 4.50183 109.233 4.68183C109.233 4.86183 109.233 5.04183 109.233 5.22183C109.233 5.58183 109.233 5.76183 109.049 5.94183C108.866 6.12183 108.316 6.30183 107.4 6.30183C107.033 6.30183 106.85 6.30183 106.85 6.12183C106.85 6.12183 106.667 5.94183 106.667 5.58183V3.42183C106.667 2.88183 106.667 2.70183 106.85 2.52183C107.033 2.34183 107.217 2.34183 107.583 2.34183H110.515C111.249 2.34183 111.615 2.34183 111.982 2.52183C112.165 2.70183 112.348 3.06183 112.348 3.78183C112.348 4.14183 112.348 4.50183 112.348 4.68183C112.348 4.86183 112.348 5.04183 112.348 5.22183C112.348 5.58183 112.532 5.76183 112.715 5.94183C112.898 6.12183 113.081 6.12183 113.265 6.12183C113.814 6.12183 114.181 5.76183 114.181 5.22183C114.181 5.04183 114.181 4.86183 114.181 4.50183C114.181 4.14183 113.998 3.60183 113.998 3.06183C113.998 2.70183 113.998 2.52183 113.998 2.16183C113.998 1.98183 113.998 1.62183 113.998 1.44183C113.998 0.721831 113.631 0.361831 112.898 0.361831C112.715 0.361831 112.348 0.361831 112.165 0.361831C111.798 0.361831 111.432 0.361831 110.882 0.361831H106.667C106.483 0.361831 106.483 0.361831 106.3 0.361831C106.117 0.361831 105.934 0.361831 105.567 0.361831C104.834 0.361831 104.284 0.361831 103.734 0.361831C103.368 0.361831 103.001 0.361831 102.818 0.361831C102.268 0.361831 101.902 0.721831 101.902 1.26183C101.902 1.80183 102.268 2.16183 102.818 2.16183C103.001 2.16183 103.184 2.16183 103.368 2.16183C103.551 2.16183 103.734 2.16183 103.918 2.16183C104.651 2.16183 104.834 2.52183 104.834 3.06183V11.1618C104.834 11.7018 104.834 11.8818 104.651 12.0618C104.467 12.2418 104.284 12.2418 103.918 12.2418C103.734 12.2418 103.551 12.2418 103.368 12.2418C103.184 12.2418 103.001 12.2418 102.818 12.2418C102.268 12.2418 101.902 12.6018 101.902 13.1418C101.902 13.6818 102.268 14.0418 102.818 14.0418C102.818 14.0418 103.001 14.0418 103.184 14.0418C103.551 14.0418 104.284 13.8618 105.384 13.8618H110.882C111.982 13.8618 112.532 13.8618 112.715 14.0418H112.898C113.631 14.0418 113.998 13.6818 113.998 12.9618C113.998 12.7818 113.998 12.4218 113.998 12.2418C113.998 11.8818 113.998 11.7018 113.998 11.3418C113.998 10.8018 113.998 10.2618 114.181 9.90183C114.181 9.72183 114.181 9.36183 114.181 9.18183C114.181 8.82183 113.998 8.64183 113.814 8.46183C113.814 8.28183 113.631 8.28183 113.448 8.28183ZM147.904 0.901831C147.721 0.721831 147.537 0.72183 147.171 0.72183C146.987 0.72183 146.804 0.72183 146.621 0.72183C146.071 0.72183 145.338 0.901831 144.238 0.901831C143.139 0.901831 142.406 0.90183 141.856 0.72183C141.489 0.72183 141.306 0.72183 141.306 0.72183C140.389 0.72183 140.389 1.26183 140.206 1.62183C140.206 2.16183 140.573 2.52183 141.123 2.52183C141.306 2.52183 141.306 2.52183 141.489 2.52183C141.672 2.52183 141.856 2.52183 142.222 2.52183C142.772 2.52183 142.955 2.88183 143.139 3.42183C142.955 3.42183 137.274 9.00183 136.724 9.54183C136.724 8.82183 136.724 3.42183 136.724 3.42183C136.724 2.70183 136.907 2.52183 137.457 2.52183C137.64 2.52183 138.007 2.52183 138.19 2.52183C138.373 2.52183 138.557 2.52183 138.557 2.52183C138.74 2.52183 139.107 2.52183 139.29 2.34183C139.473 1.98183 139.656 1.80183 139.656 1.44183C139.656 1.08183 139.656 0.90183 139.473 0.72183C139.29 0.54183 139.107 0.541831 138.74 0.541831C138.557 0.541831 138.373 0.541831 138.007 0.541831C137.457 0.541831 136.724 0.72183 135.808 0.72183C134.708 0.72183 133.975 0.721831 133.425 0.541831C133.242 0.541831 133.058 0.541831 132.875 0.541831C132.509 0.541831 132.325 0.54183 132.142 0.72183C131.959 0.90183 131.959 1.08183 131.959 1.26183C131.959 1.44183 131.959 1.62183 132.142 1.80183C132.325 1.98183 132.509 1.98183 132.875 1.98183C133.058 1.98183 133.242 1.98183 133.425 1.98183C133.608 1.98183 133.792 1.98183 134.158 1.98183C134.708 1.98183 135.074 2.34183 135.074 2.88183V11.1618C135.074 11.7018 134.891 12.2418 134.158 12.2418C133.975 12.2418 133.608 12.2418 133.425 12.2418C133.242 12.2418 133.058 12.2418 133.058 12.2418C132.692 12.2418 132.509 12.2418 132.325 12.4218C132.142 12.6018 132.142 12.7818 132.142 12.9618C132.142 13.5018 132.509 13.8618 133.058 13.8618C133.242 13.8618 133.425 13.8618 133.608 13.8618C134.158 13.8618 134.891 13.6818 135.991 13.6818C137.09 13.6818 137.824 13.6818 138.373 13.8618C138.557 13.8618 138.74 13.8618 138.923 13.8618C139.473 13.8618 139.84 13.5018 139.84 12.9618C139.84 12.4218 139.473 12.2418 138.923 12.2418C138.74 12.2418 138.74 12.2418 138.557 12.2418C138.373 12.2418 138.19 12.2418 137.824 12.2418C137.274 12.2418 137.09 11.8818 137.09 11.3418C137.09 11.3418 142.955 5.58183 143.505 5.22183C143.505 5.94183 143.505 11.3418 143.505 11.3418C143.505 11.7018 143.505 11.8818 143.322 12.0618C143.139 12.2418 142.955 12.2418 142.772 12.2418C142.589 12.2418 142.222 12.2418 142.039 12.2418C141.856 12.2418 141.672 12.2418 141.672 12.2418C141.306 12.2418 141.123 12.2418 140.939 12.4218C140.756 12.6018 140.756 12.7818 140.756 12.9618C140.756 13.5018 141.123 13.8618 141.672 13.8618C141.856 13.8618 141.856 13.8618 142.222 13.8618C142.772 13.8618 143.505 13.6818 144.605 13.6818C145.704 13.6818 146.438 13.8618 146.987 13.8618C147.171 13.8618 147.354 13.8618 147.537 13.8618C148.27 13.8618 148.454 13.5018 148.454 12.9618C148.454 12.7818 148.454 12.6018 148.27 12.4218C148.087 12.2418 147.904 12.2418 147.537 12.2418C147.354 12.2418 147.171 12.2418 146.987 12.2418C146.804 12.2418 146.621 12.2418 146.254 12.2418C146.071 12.2418 145.888 12.2418 145.704 12.0618C145.521 11.8818 145.521 11.7018 145.521 11.3418V3.06183C145.521 2.70183 145.521 2.52183 145.704 2.34183C145.888 2.16183 146.071 2.16183 146.254 2.16183C146.438 2.16183 146.804 2.16183 146.987 2.16183C147.171 2.16183 147.354 2.16183 147.537 2.16183C147.721 2.16183 148.087 2.16183 148.27 1.98183C148.454 1.80183 148.454 1.62183 148.454 1.44183C148.087 1.26183 148.087 1.08183 147.904 0.901831ZM160 4.86183C160 4.50183 159.817 3.96183 159.817 3.42183C159.817 3.06183 159.817 2.88183 159.817 2.52183C159.817 2.34183 159.817 1.98183 159.817 1.80183C159.817 1.44183 159.633 1.08183 159.45 0.901831C159.267 0.721831 158.9 0.541831 158.534 0.541831C158.351 0.541831 158.351 0.541831 158.167 0.541831C157.801 0.541831 157.434 0.72183 155.785 0.72183H152.486C150.836 0.72183 150.103 0.721831 149.92 0.541831C149.737 0.541831 149.737 0.541831 149.737 0.541831C149.37 0.541831 149.003 0.721831 148.82 0.901831C148.637 1.08183 148.454 1.44183 148.454 1.80183C148.454 1.98183 148.454 2.34183 148.454 2.52183C148.454 2.88183 148.454 3.06183 148.454 3.42183C148.454 3.96183 148.454 4.50183 148.27 4.86183C148.27 5.04183 148.27 5.40183 148.27 5.58183C148.27 6.12183 148.637 6.48183 149.187 6.48183C149.37 6.48183 149.553 6.30183 149.737 6.30183C149.92 6.12183 150.103 5.94183 150.103 5.58183C150.103 5.40183 150.103 5.22183 150.103 5.04183C150.103 4.68183 150.103 4.50183 150.103 4.14183C150.103 3.42183 150.103 3.06183 150.47 2.88183C150.653 2.70183 151.019 2.52183 151.936 2.70183C152.486 2.70183 152.852 2.70183 153.036 2.88183C153.219 3.06183 153.219 3.24183 153.219 3.78183V11.1618C153.219 12.0618 153.036 12.2418 152.119 12.2418C151.936 12.2418 151.753 12.2418 151.569 12.2418C151.386 12.2418 151.203 12.2418 151.019 12.2418C150.836 12.2418 150.47 12.4218 150.286 12.4218C150.103 12.6018 150.103 12.7818 150.103 12.9618C150.103 13.3218 150.286 13.8618 151.203 13.8618C151.569 13.8618 152.119 13.8618 152.486 13.8618C153.036 13.8618 153.585 13.8618 154.135 13.8618C154.868 13.8618 155.418 13.8618 155.968 13.8618C156.334 13.8618 156.701 13.8618 157.068 13.8618C157.434 13.8618 157.617 13.8618 157.801 13.6818C157.984 13.5018 157.984 13.3218 157.984 12.9618C157.984 12.4218 157.617 12.0618 156.884 12.0618C156.701 12.0618 156.518 12.0618 156.518 12.0618C156.334 12.0618 156.151 12.0618 155.968 12.0618C155.418 12.0618 155.235 12.0618 155.052 11.8818C154.868 11.7018 154.868 11.5218 154.868 10.9818V3.24183C154.868 2.70183 154.868 2.52183 155.052 2.34183C155.235 2.16183 155.418 2.16183 155.968 2.16183C156.884 2.16183 157.251 2.34183 157.617 2.52183C157.801 2.70183 157.984 3.06183 157.984 3.78183C157.984 4.14183 157.984 4.50183 157.984 4.86183C157.984 5.04183 157.984 5.22183 157.984 5.40183C157.984 5.94183 158.351 6.48183 158.9 6.48183C159.45 6.48183 159.817 6.12183 159.817 5.58183C160 5.22183 160 5.04183 160 4.86183ZM126.094 12.2418C125.911 12.4218 125.544 12.4218 125.178 12.4218C125.178 12.4218 121.145 12.4218 120.596 12.4218C121.145 11.7018 121.512 10.8018 121.695 9.72183C122.062 8.46183 122.245 7.02183 122.245 5.40183V3.42183C122.245 3.42183 122.245 3.42183 122.245 3.24183C122.245 3.06183 122.245 2.88183 122.428 2.70183C122.428 2.70183 122.612 2.52183 122.795 2.52183H124.444H125.727C126.094 2.52183 126.277 2.70183 126.46 2.70183C126.46 2.88183 126.644 2.88183 126.644 3.06183V11.3418C126.46 11.8818 126.277 12.0618 126.094 12.2418ZM131.226 16.3818C131.226 16.0218 131.042 15.4818 131.042 14.9418C131.042 14.7618 131.042 14.4018 131.042 14.2218C131.042 13.8618 131.042 13.6818 131.042 13.5018C131.042 13.1418 130.859 12.7818 130.676 12.6018C130.493 12.4218 130.309 12.4218 129.943 12.4218H129.21C128.843 12.4218 128.66 12.4218 128.477 12.2418C128.293 12.0618 128.293 11.8818 128.293 11.3418V3.06183C128.293 2.70183 128.293 2.52183 128.477 2.52183C128.477 2.52183 128.66 2.34183 128.843 2.34183C129.026 2.34183 129.21 2.34183 129.393 2.34183C129.576 2.34183 129.759 2.34183 129.943 2.34183C130.493 2.34183 130.859 1.98183 130.859 1.44183C130.859 1.26183 130.859 1.08183 130.676 0.901831C130.493 0.721831 130.126 0.72183 129.576 0.72183C129.393 0.72183 129.026 0.72183 128.477 0.72183C127.927 0.72183 127.377 0.72183 127.194 0.72183C126.827 0.72183 124.628 0.72183 122.795 0.72183H120.412C120.229 0.72183 119.863 0.72183 119.496 0.72183C119.129 0.72183 118.763 0.72183 118.396 0.72183C118.03 0.72183 117.297 0.72183 117.297 1.62183C117.297 1.98183 117.297 2.16183 117.48 2.34183C117.663 2.52183 117.847 2.52183 118.213 2.52183C118.396 2.52183 118.58 2.52183 118.763 2.34183C118.946 2.34183 119.129 2.16183 119.313 2.16183C119.496 2.16183 119.679 2.16183 119.863 2.34183C120.046 2.52183 120.046 2.70183 120.046 3.06183V5.04183C120.046 7.38183 119.679 9.18183 119.129 10.2618C118.763 10.8018 118.58 11.3418 118.03 11.5218C117.663 11.8818 117.113 11.8818 116.564 11.8818C115.647 11.8818 115.464 12.2418 115.464 12.9618C115.464 13.1418 115.464 13.5018 115.464 13.6818C115.464 13.8618 115.464 14.2218 115.464 14.5818C115.464 15.1218 115.464 15.6618 115.281 16.2018C115.281 16.3818 115.281 16.7418 115.281 16.9218C115.281 17.4618 115.647 18.0018 116.197 18.0018C116.38 18.0018 116.747 17.8218 116.93 17.6418C117.113 17.4618 117.297 17.2818 117.297 16.9218C117.297 16.7418 117.297 16.5618 117.297 16.2018C117.297 15.8418 117.297 15.6618 117.297 15.3018C117.297 14.7618 117.48 14.2218 118.03 14.0418C118.396 13.8618 118.946 13.6818 120.046 13.6818H127.01C127.194 13.6818 127.377 13.6818 127.56 13.6818H127.743C128.293 13.6818 129.576 13.8618 129.576 15.1218C129.576 15.4818 129.576 15.8418 129.576 16.0218C129.576 16.2018 129.576 16.3818 129.576 16.7418C129.576 17.1018 129.759 17.2818 129.943 17.4618C130.126 17.6418 130.309 17.6418 130.493 17.6418C130.676 17.6418 130.859 17.6418 131.042 17.4618C131.226 17.2818 131.409 16.9218 131.409 16.7418C131.226 16.9218 131.226 16.7418 131.226 16.3818ZM73.677 6.12183H69.8282C69.2784 6.12183 68.9118 6.48183 68.9118 7.02183C68.9118 7.56183 69.2784 7.92183 69.8282 7.92183H73.677C74.2268 7.92183 74.5934 7.56183 74.5934 7.02183C74.5934 6.48183 74.2268 6.12183 73.677 6.12183Z" fill="#999999"/>
</svg>
