<svg width="20" height="20" viewBox="0 0 20 20" fill="none" xmlns="http://www.w3.org/2000/svg">
<path d="M12.5 14.0385V16.3462C12.5 16.6522 12.3829 16.9457 12.1746 17.162C11.9662 17.3784 11.6836 17.5 11.3889 17.5H3.61111C3.31643 17.5 3.03381 17.3784 2.82544 17.162C2.61706 16.9457 2.5 16.6522 2.5 16.3462V3.65385C2.5 3.34783 2.61706 3.05434 2.82544 2.83795C3.03381 2.62157 3.31643 2.5 3.61111 2.5H11.3889C11.6836 2.5 11.9662 2.62157 12.1746 2.83795C12.3829 3.05434 12.5 3.34783 12.5 3.65385V5.96154" stroke="#F3CF3C" stroke-width="1.5" stroke-linecap="round" stroke-linejoin="round"/>
<path d="M10 10H17.5" stroke="#F3CF3C" stroke-width="1.5" stroke-linecap="round" stroke-linejoin="round"/>
<path d="M15 7.5L17.5 10L15 12.5" stroke="#F3CF3C" stroke-width="1.5" stroke-linecap="round" stroke-linejoin="round"/>
</svg>
