<svg width="20" height="20" viewBox="0 0 20 20" fill="none" xmlns="http://www.w3.org/2000/svg">
<path d="M11.875 6.25V15.9155C11.875 16.0184 11.9004 16.1197 11.949 16.2104C11.9975 16.3011 12.0677 16.3785 12.1533 16.4355L13.0121 17.008C13.0954 17.0636 13.1909 17.0983 13.2904 17.1093C13.39 17.1202 13.4907 17.1071 13.5841 17.071C13.6776 17.0349 13.7609 16.9768 13.8272 16.9017C13.8935 16.8267 13.9408 16.7368 13.9651 16.6396L15 12.5" stroke="black" stroke-width="1.5" stroke-linecap="round" stroke-linejoin="round"/>
<path d="M15 12.5001C15.8288 12.5001 16.6237 12.1709 17.2097 11.5848C17.7958 10.9988 18.125 10.2039 18.125 9.37513C18.125 8.54633 17.7958 7.75147 17.2097 7.16542C16.6237 6.57937 15.8288 6.25013 15 6.25013H11.875C11.875 6.25013 7.62096 6.25013 3.52726 2.81672C3.43622 2.74009 3.32518 2.69105 3.20722 2.67537C3.08926 2.65969 2.96927 2.67802 2.86137 2.7282C2.75346 2.77838 2.66214 2.85833 2.59812 2.95865C2.5341 3.05896 2.50006 3.17547 2.5 3.29447V15.4558C2.50006 15.5748 2.5341 15.6913 2.59812 15.7916C2.66214 15.8919 2.75346 15.9719 2.86137 16.0221C2.96927 16.0722 3.08926 16.0906 3.20722 16.0749C3.32518 16.0592 3.43622 16.0102 3.52726 15.9335C7.62096 12.5001 11.875 12.5001 11.875 12.5001H15Z" stroke="black" stroke-width="1.5" stroke-linecap="round" stroke-linejoin="round"/>
</svg>
