<svg width="14" height="14" viewBox="0 0 14 14" fill="none" xmlns="http://www.w3.org/2000/svg">
<path d="M7 12.9999C5.64792 11.5113 3.81428 10.5471 1.82155 10.2768C1.59474 10.2517 1.38526 10.1435 1.23354 9.973C1.08183 9.80253 0.998633 9.58191 1.00002 9.35371V1.92296C1.00001 1.78963 1.02888 1.65788 1.08465 1.53678C1.14043 1.41568 1.22177 1.30809 1.32309 1.22143C1.42263 1.13634 1.53913 1.0734 1.66486 1.0368C1.79059 1.00019 1.92267 0.990758 2.05232 1.00912C3.95782 1.32537 5.70097 2.275 7 3.7045V12.9999Z" stroke="#999999" stroke-width="1.5" stroke-linecap="round" stroke-linejoin="round"/>
<path d="M7 12.9999C8.35208 11.5113 10.1857 10.5471 12.1784 10.2768C12.4053 10.2517 12.6147 10.1435 12.7665 9.973C12.9182 9.80253 13.0014 9.58191 13 9.35371V1.92296C13 1.78963 12.9711 1.65788 12.9153 1.53678C12.8596 1.41568 12.7782 1.30809 12.6769 1.22143C12.5774 1.13634 12.4609 1.0734 12.3351 1.0368C12.2094 1.00019 12.0773 0.990758 11.9477 1.00912C10.0422 1.32537 8.29903 2.275 7 3.7045V12.9999Z" stroke="#999999" stroke-width="1.5" stroke-linecap="round" stroke-linejoin="round"/>
</svg>
