<svg width="14" height="14" viewBox="0 0 14 14" fill="none" xmlns="http://www.w3.org/2000/svg">
<path d="M4.4078 0.488069C6.16427 -0.210821 8.20918 -0.162749 9.91757 0.650774C9.42946 0.576817 8.93395 0.632285 8.45323 0.713637C7.1442 0.961392 5.90173 1.57523 4.9292 2.4923C3.99364 3.40936 3.33913 4.62225 3.15793 5.92388C3.03591 6.84464 3.15054 7.81348 3.561 8.64919C3.98625 9.52927 4.73691 10.2503 5.64288 10.6238C6.51557 10.9936 7.52508 10.9899 8.40886 10.6608C9.73268 10.1764 10.683 8.86366 10.794 7.46218C10.8642 6.54512 10.6387 5.56519 10.0211 4.86261C9.43316 4.17111 8.57156 3.79393 7.70627 3.57576C7.6582 2.72526 8.06126 1.88585 8.69729 1.33118C9.04858 1.01316 9.48863 0.809781 9.93976 0.680357L9.97304 0.669263C11.271 1.2905 12.3692 2.3148 13.0718 3.57576C13.6746 4.64813 13.9852 5.88321 13.9556 7.11089C13.9482 8.70096 13.3566 10.2762 12.336 11.4928C11.3708 12.6539 10.0248 13.486 8.55677 13.8225C7.08503 14.1627 5.49866 14.0147 4.11937 13.3898C2.76966 12.7871 1.62703 11.7406 0.902256 10.45C0.295811 9.37766 -0.0259007 8.14628 -1.58866e-05 6.91121C0.00368195 5.3766 0.547264 3.8531 1.49761 2.655C2.25936 1.69726 3.26887 0.935507 4.4078 0.488069Z" fill="#E60000"/>
<path d="M8.44947 0.713729C8.93019 0.632377 9.4257 0.57691 9.91381 0.650866L9.98407 0.66196L9.936 0.680449C9.48486 0.809873 9.04482 1.01325 8.69352 1.33127C8.0575 1.88594 7.65813 2.72535 7.7025 3.57585C8.5641 3.79033 9.4257 4.1712 10.0173 4.8627C10.6349 5.56899 10.8568 6.54521 10.7902 7.46228C10.683 8.86376 9.72892 10.1765 8.40509 10.6609C7.52131 10.99 6.5118 10.9937 5.63911 10.6239C4.73684 10.2504 3.98618 9.52937 3.55723 8.64928C3.14308 7.80987 3.03214 6.84474 3.15417 5.92398C3.33906 4.62234 3.99358 3.40945 4.92543 2.49239C5.89796 1.57532 7.14043 0.961484 8.44947 0.713729Z" fill="white"/>
</svg>
