<svg width="14" height="11" viewBox="0 0 14 11" fill="none" xmlns="http://www.w3.org/2000/svg">
<path d="M12.4166 11H1.56062V9.44287C1.61758 7.62993 3.25793 6.25075 4.24898 4.6825V3.30333H5.90073V4.29322H8.12205V3.30333H9.7738V4.6825C10.8446 6.36198 12.4166 7.45197 12.4166 9.42062V11ZM13.9544 4.6825C13.9544 4.43781 14 4.19312 13.9658 3.92618C12.7469 4.31547 11.5622 4.20424 10.4003 3.58139C10.3548 4.00404 10.4231 4.3822 10.5826 4.73812C10.9927 5.6279 13.9203 5.92821 13.9544 4.6825ZM0.0341741 4.6825C0.0341741 4.43781 -0.0113914 4.19312 0.0227828 3.92618C1.24166 4.31547 2.42636 4.20424 3.58828 3.58139C3.63385 4.00404 3.5655 4.3822 3.40602 4.73812C2.99593 5.6279 0.0569569 5.92821 0.0341741 4.6825ZM0 3.54802C0.979658 -0.912036 13.1456 -1.44591 14 3.55915C12.8153 3.8817 11.6078 3.69262 10.4003 3.15874C10.4345 2.92517 10.3775 2.73609 10.2522 2.58038C9.53458 1.70172 4.39707 1.66835 3.73637 2.61375C3.63385 2.75834 3.58828 2.9363 3.59967 3.1365C2.40358 3.84833 1.19609 4.01516 0 3.54802Z" fill="#F3CF3C"/>
</svg>
