<svg width="14" height="14" viewBox="0 0 14 14" fill="none" xmlns="http://www.w3.org/2000/svg">
<path d="M3.82317 7.18987V6.42631C5.0895 6.42362 6.11385 5.39927 6.11654 4.13295C6.11385 2.86662 5.0895 1.84227 3.82317 1.83958C2.55685 1.84227 1.5325 2.86662 1.52981 4.13295C1.5325 5.39927 2.55685 6.42362 3.82317 6.42631V7.18987V7.95343C1.71263 7.95343 0 6.24349 0 4.13026C0 2.01703 1.71263 0.307084 3.82317 0.307084C5.9364 0.307084 7.64635 2.01971 7.64635 4.13026C7.64635 6.24349 5.93372 7.95343 3.82317 7.95343V7.18987Z" fill="#F1C40F"/>
<path d="M6.54402 5.77028L12.7762 12.0024C13.0746 12.3009 13.0746 12.7848 12.7762 13.0832C12.4777 13.3817 11.9938 13.3817 11.6954 13.0832L5.4632 6.85109C5.16477 6.55266 5.16477 6.06872 5.4632 5.77028C5.76164 5.47185 6.24558 5.47185 6.54402 5.77028Z" fill="#F1C40F"/>
<path d="M10.9318 11.2389L12.4616 9.70907C12.76 9.41064 13.244 9.41064 13.5424 9.70907C13.8408 10.0075 13.8408 10.4915 13.5424 10.7899L12.0126 12.3197C11.7142 12.6181 11.2302 12.6181 10.9318 12.3197C10.6333 12.0213 10.6307 11.5373 10.9318 11.2389Z" fill="#F1C40F"/>
<path d="M8.63572 8.9428L10.1655 7.41299C10.464 7.11456 10.9479 7.11456 11.2463 7.41299C11.5448 7.71143 11.5448 8.19537 11.2463 8.4938L9.71653 10.0236C9.4181 10.322 8.93415 10.322 8.63572 10.0236C8.33729 9.72787 8.33729 9.24392 8.63572 8.9428Z" fill="#F1C40F"/>
</svg>
