<svg width="22" height="20" viewBox="0 0 22 20" fill="none" xmlns="http://www.w3.org/2000/svg">
<path d="M0.905487 7.27637V9.98857V11.7953V18.1592C0.905487 19.1624 1.70894 19.9659 2.7122 19.9659H10.8828H19.0534C20.0567 19.9659 20.8601 19.1624 20.8601 18.1592V11.7953V9.98857V7.27637H0.905487Z" fill="#F1C40F"/>
<path d="M1.80672 4.56445C0.803458 4.56445 0 5.36791 0 6.37117V8.17789H21.7656V6.37117C21.7656 5.36791 20.9622 4.56445 19.9589 4.56445H18.1522H11.7883H9.98158H3.61768H1.80672Z" fill="#F1C40F"/>
<path d="M13.629 3.65869H8.17062V19.9999H13.629V3.65869Z" fill="#E74C3C"/>
<path d="M7.16736 0.0453451C6.26188 -0.0566813 5.39466 0.415191 4.88877 1.11662C4.18734 2.1879 4.62096 3.561 5.82827 4.19867C6.23212 4.46649 6.63172 4.56851 7.06534 4.56851H7.26514H10.2452H11.5205H14.5005H14.7003C15.1339 4.56851 15.5718 4.46649 15.9374 4.19867C17.1447 3.561 17.5783 2.1879 16.8769 1.11662C16.1754 0.045345 14.6323 -0.3245 13.3952 0.313164C12.9914 0.478957 12.6938 0.780785 12.4897 1.11662H12.4557C12.4217 1.21865 12.3877 1.21865 12.3877 1.28241L10.8828 3.561L9.37793 1.28241C9.34393 1.18039 9.30992 1.18039 9.30992 1.11662H9.27591C9.07611 0.746776 8.77428 0.478957 8.37042 0.313164C7.97082 0.109112 7.56697 0.0453451 7.16736 0.0453451ZM6.99732 1.11662C7.23113 1.11662 7.49895 1.21865 7.73276 1.28241L7.93256 1.38444C7.96657 1.48647 8.00058 1.48647 8.0686 1.55023H8.1026L8.17062 1.65226H8.20463C8.20463 1.75429 8.23864 1.75429 8.23864 1.75429L9.30992 3.39096H7.20137H7.06534H7.03133H6.9293H6.86128C6.79327 3.39096 6.75926 3.39096 6.69549 3.28893C6.62747 3.28893 6.5297 3.28893 6.46168 3.18691C6.29589 3.18691 6.15985 3.02111 6.05783 2.91909C5.756 2.54924 5.72199 2.11563 5.98981 1.64801C6.19386 1.38444 6.59772 1.11662 6.99732 1.11662ZM14.7683 1.11662C15.1722 1.11662 15.5718 1.38444 15.7716 1.65226C16.0394 2.11988 15.9714 2.55774 15.6696 2.92334C15.5675 3.02536 15.4357 3.19116 15.2997 3.19116C15.2317 3.29318 15.1637 3.29318 15.0659 3.29318C14.9979 3.39521 14.9299 3.39521 14.9001 3.39521H14.8661H14.7641H14.7301H14.5643H12.4557L13.527 1.75429C13.527 1.75429 13.561 1.75429 13.561 1.65226H13.595L13.663 1.55023H13.697C13.7311 1.44821 13.7991 1.44821 13.8331 1.38444L14.0329 1.28241C14.2667 1.2144 14.5345 1.11662 14.7683 1.11662Z" fill="#C0392B"/>
<path d="M20.8644 8.18213H0.905487V10.8943H20.8644V8.18213Z" fill="#F39C12"/>
<path d="M13.629 8.18213H8.17062V10.8943H13.629V8.18213Z" fill="#C0392B"/>
<path d="M8.17061 8.18213H0.905487V9.08761H8.17061V8.18213Z" fill="#E67E22"/>
<path d="M20.8601 8.18213H13.595V9.08761H20.8601V8.18213Z" fill="#E67E22"/>
</svg>
