<svg width="20" height="20" viewBox="0 0 20 20" fill="none" xmlns="http://www.w3.org/2000/svg">
<path d="M10 20C15.5228 20 20 15.5228 20 10C20 4.47715 15.5228 0 10 0C4.47715 0 0 4.47715 0 10C0 15.5228 4.47715 20 10 20Z" fill="#F1C40F"/>
<mask id="mask0_527_21887" style="mask-type:alpha" maskUnits="userSpaceOnUse" x="0" y="0" width="20" height="20">
<path d="M10 20C15.5228 20 20 15.5228 20 10C20 4.47715 15.5228 0 10 0C4.47715 0 0 4.47715 0 10C0 15.5228 4.47715 20 10 20Z" fill="#74747D"/>
</mask>
<g mask="url(#mask0_527_21887)">
<path d="M10 32C15.5228 32 20 27.5228 20 22C20 16.4772 15.5228 12 10 12C4.47715 12 0 16.4772 0 22C0 27.5228 4.47715 32 10 32Z" fill="#DE4747"/>
</g>
<path d="M9.99996 12.5385C12.1241 12.5385 13.8461 10.8165 13.8461 8.69235C13.8461 6.56817 12.1241 4.84619 9.99996 4.84619C7.87579 4.84619 6.15381 6.56817 6.15381 8.69235C6.15381 10.8165 7.87579 12.5385 9.99996 12.5385Z" fill="#DE4747"/>
</svg>
