<?xml version="1.0" standalone="no"?>
<!DOCTYPE svg PUBLIC "-//W3C//DTD SVG 20010904//EN"
 "http://www.w3.org/TR/2001/REC-SVG-20010904/DTD/svg10.dtd">
<svg version="1.0" xmlns="http://www.w3.org/2000/svg"
 width="512.000000pt" height="512.000000pt" viewBox="0 0 512.000000 512.000000"
 preserveAspectRatio="xMidYMid meet">
<metadata>
Created by potrace 1.14, written by Peter Selinger 2001-2017
</metadata>
<g transform="translate(0.000000,512.000000) scale(0.100000,-0.100000)"
fill="#000000" stroke="none">
<path d="M2323 5040 c-577 -56 -1109 -308 -1522 -721 -385 -385 -624 -860
-708 -1409 -24 -161 -24 -539 0 -700 96 -628 400 -1167 882 -1568 351 -292
768 -477 1235 -549 161 -24 539 -24 700 0 547 84 1027 325 1410 707 382 383
623 863 707 1410 24 161 24 539 0 700 -84 547 -322 1021 -705 1407 -380 381
-865 627 -1402 708 -125 19 -467 27 -597 15z m489 -517 c-128 -198 -166 -348
-127 -498 21 -81 50 -130 167 -286 126 -167 148 -212 148 -301 0 -73 -9 -100
-54 -168 -56 -84 -189 -210 -289 -275 -26 -17 -24 -12 21 59 77 117 95 172 90
281 -6 115 -30 164 -177 359 -146 192 -164 227 -169 341 -4 89 -3 91 39 174
34 68 61 104 138 181 86 86 251 223 259 215 2 -2 -19 -39 -46 -82z m-617 -510
c-43 -104 -59 -187 -51 -266 10 -103 49 -166 194 -319 144 -151 167 -188 167
-268 0 -81 -39 -153 -141 -258 -79 -82 -84 -84 -68 -47 38 91 43 113 44 186 0
110 -23 149 -192 326 -161 168 -188 212 -188 310 0 79 24 143 86 229 49 70
171 200 179 192 3 -2 -11 -41 -30 -85z m1675 -1340 l33 -37 -7 -149 c-7 -140
-6 -148 11 -143 154 47 373 68 484 47 122 -24 210 -86 256 -179 25 -51 28 -68
28 -152 -1 -81 -5 -106 -29 -165 -139 -343 -540 -604 -1059 -690 -32 -5 -43
-14 -65 -52 -56 -94 -176 -270 -228 -335 l-55 -68 -782 0 -783 0 -48 58 c-161
189 -365 573 -456 859 -80 251 -143 587 -156 843 l-7 125 27 32 c15 17 37 34
49 36 12 2 637 5 1388 6 l1367 1 32 -37z"/>
<path d="M4162 2235 c-90 -25 -169 -73 -246 -151 -62 -61 -88 -116 -132 -271
-20 -70 -56 -183 -80 -250 -24 -67 -44 -124 -44 -127 0 -24 257 37 388 92 189
79 368 234 437 377 74 154 55 258 -59 317 -53 28 -187 34 -264 13z"/>
</g>
</svg>
