<svg width="400" height="260" fill="none" xmlns="http://www.w3.org/2000/svg">
    <g clip-path="url(#a)">
        <path
            d="M244.753 241.819c-43.637 25.233-112.203 26.012-155.818-52.681-9.8-17.68-29.26-55.704-2.017-77.555 24.484-19.64 4.812-82.823 40.51-98.883 6.837-3.069 14.215-4.536 21.648-5.524 25.392-3.376 45.776 6.171 66.81 0 91.012-26.65 100.047 81.771 98.117 109.023-1.734 24.527-7.093 89.68-69.25 125.62Z"
            fill="#E5F6FF"/>
        <g filter="url(#b)">
            <ellipse cx="250.5" cy="110.5" rx="98.5" ry="89.5" fill="#B5E0FF" fill-opacity=".6"/>
        </g>
        <g filter="url(#c)">
            <circle cx="123" cy="163" r="79" fill="#FFE7C3" fill-opacity=".6"/>
        </g>
        <path
            d="M90.732 171.682a10.665 10.665 0 0 0 10.665 10.664h63.913a10.663 10.663 0 0 0 10.665-10.664V66.725a10.665 10.665 0 0 0-10.665-10.664s-64.754.024-65.165.073a10.665 10.665 0 0 0-9.413 10.591v104.957Z"
            fill="#fff"/>
        <path
            d="M165.311 182.81h-63.913a11.138 11.138 0 0 1-11.125-11.128V90.214a.46.46 0 1 1 .921 0v81.468a10.214 10.214 0 0 0 10.204 10.204h63.913a10.215 10.215 0 0 0 10.205-10.204V66.725a10.22 10.22 0 0 0-10.205-10.204h-63.913a10.198 10.198 0 0 0-10.204 10.198v13.006a.46.46 0 1 1-.92 0V66.74A11.119 11.119 0 0 1 101.4 55.615h63.914a11.135 11.135 0 0 1 11.124 11.125v104.942a11.135 11.135 0 0 1-11.128 11.128Z"
            fill="#000"/>
        <path
            d="M143.172 125.231h-17.53a2.113 2.113 0 0 1 0-4.22h17.53a2.114 2.114 0 0 1 2.031 2.11 2.115 2.115 0 0 1-2.031 2.11Z"
            fill="#A2D2EC"/>
        <path
            d="M164.197 136.807h-59.592a2.115 2.115 0 0 1-2.031-2.11 2.113 2.113 0 0 1 2.031-2.11h59.592a2.11 2.11 0 0 1 0 4.22ZM164.197 144.93h-59.592a2.115 2.115 0 0 1-2.031-2.11 2.113 2.113 0 0 1 2.031-2.11h59.592a2.11 2.11 0 0 1 0 4.22Z"
            fill="#E5F6FF"/>
        <path d="M118.695 102.493a20.296 20.296 0 0 0 27.875 0 48.68 48.68 0 0 0-27.875 0Z" fill="#A2D2EC"/>
        <path
            d="m139.6 88.763 1.906-6.392c.251-.846.302-1.74.148-2.609a5.676 5.676 0 0 0-5.58-4.683h-6.405a5.679 5.679 0 0 0-3.858 1.516l-.35.326a5.67 5.67 0 0 0-1.476 6.08l2.108 5.848 13.507-.086Z"
            fill="#E5F6FF"/>
        <path
            d="M133.085 78.08h-7.099v10.514a6.273 6.273 0 0 0 2.762 5.362v5.79a4.144 4.144 0 0 0 8.287 0v-5.63c1.534-1.247 2.762-3.254 2.762-5.525v-4.026c0-3.652-3.069-6.485-6.712-6.485Z"
            fill="#fff"/>
        <path
            d="M132.754 104.349a4.603 4.603 0 0 1-4.604-4.603V94.01a.462.462 0 0 1 .461-.46.459.459 0 0 1 .46.46v5.736a3.682 3.682 0 1 0 7.365 0v-5.5a.462.462 0 0 1 .461-.46.459.459 0 0 1 .46.46v5.5a4.604 4.604 0 0 1-4.603 4.603Z"
            fill="#E5F6FF"/>
        <path
            d="M132.855 95.898a.463.463 0 0 1-.461-.46.462.462 0 0 1 .461-.461 6.391 6.391 0 0 0 6.383-6.383v-4.03a6.16 6.16 0 0 0-6.138-6.153h-6.613v10.183a6.403 6.403 0 0 0 3.741 5.812.47.47 0 0 1 .251.256.446.446 0 0 1 .032.18.458.458 0 0 1-.664.401 7.318 7.318 0 0 1-4.296-6.65V77.952a.458.458 0 0 1 .46-.46h7.074a7.08 7.08 0 0 1 7.058 7.073v4.03a7.31 7.31 0 0 1-7.288 7.304Z"
            fill="#E5F6FF"/>
        <path d="m137.32 77.696-11.049 7.181v-6.926s11.049-.083 11.049-.255Z" fill="#E5F6FF"/>
        <path
            d="M132.634 108.496a20.779 20.779 0 1 1 20.733-22.155.46.46 0 1 1-.92.062 19.855 19.855 0 0 0-30.325-15.52 19.852 19.852 0 1 0 25.485 29.879.46.46 0 0 1 .497-.131c.058.02.111.051.157.091a.481.481 0 0 1 .155.319.466.466 0 0 1-.116.335 20.796 20.796 0 0 1-15.666 7.12Z"
            fill="#E5F6FF"/>
        <path
            d="M315.9 57.565h-63.659c-5.873 0-10.634 4.76-10.634 10.633v104.739c0 5.873 4.761 10.634 10.634 10.634H315.9c5.873 0 10.634-4.761 10.634-10.634V68.198c0-5.873-4.761-10.633-10.634-10.633Z"
            fill="#fff"/>
        <path
            d="M315.9 184.031h-63.661a11.11 11.11 0 0 1-11.094-11.094V68.197a11.111 11.111 0 0 1 11.094-11.094H315.9a11.105 11.105 0 0 1 11.101 11.095v104.739a11.107 11.107 0 0 1-11.101 11.094ZM252.239 58.024a10.183 10.183 0 0 0-10.174 10.174v104.739a10.183 10.183 0 0 0 10.174 10.173H315.9a10.183 10.183 0 0 0 10.18-10.173V68.197a10.185 10.185 0 0 0-10.171-10.173h-63.67Z"
            fill="#000"/>
        <path d="M263.842 90.512a20.248 20.248 0 0 1 12.516-18.7 20.255 20.255 0 1 1-12.516 18.7Z" fill="#fff"/>
        <path
            d="M284.099 111.246a20.743 20.743 0 0 1-9.571-2.357 20.756 20.756 0 0 1-9.895-25.493.46.46 0 0 1 .865.307 19.822 19.822 0 1 0 3.305-5.782.446.446 0 0 1-.312.176.459.459 0 0 1-.49-.6.465.465 0 0 1 .09-.16 20.727 20.727 0 0 1 28.153-3.61 20.719 20.719 0 0 1 8.53 18.063 20.715 20.715 0 0 1-3.177 9.811 20.728 20.728 0 0 1-17.498 9.636v.009Z"
            fill="#E5F6FF"/>
        <path
            d="M283.792 77.159s-3.71-3.07-8.574 3.375c-4.297 5.687 1.206 10.781-.644 14.32-1.851 3.538-8.121 5.472-8.121 5.472s2.01 4.023 4.502 5.794h26.451s5.466-5.954 5.466-7.645c0 0-5.868-.307-6.27-5.389-.402-5.082 1.842-8.234-3.176-13.96-5.187-5.93-9.634-1.967-9.634-1.967Z"
            fill="#E5F6FF"/>
        <path d="M270.203 105.255a20.227 20.227 0 0 0 27.795 0 48.546 48.546 0 0 0-27.795 0Z" fill="#A2D2EC"/>
        <path
            d="M284.099 111.246a20.617 20.617 0 0 1-14.212-5.656.46.46 0 0 1 .181-.773 48.975 48.975 0 0 1 28.066 0 .457.457 0 0 1 .306.334.464.464 0 0 1-.131.439 20.621 20.621 0 0 1-14.21 5.656Zm-12.981-5.782a19.765 19.765 0 0 0 25.966 0 48.244 48.244 0 0 0-25.966 0Z"
            fill="#E5F6FF"/>
        <path d="M284.221 106.648a3.192 3.192 0 0 1-3.198-3.198V87.13h6.387v16.32a3.193 3.193 0 0 1-3.189 3.198Z"
              fill="#fff"/>
        <path
            d="M284.223 107.108a3.666 3.666 0 0 1-3.659-3.658V87.13a.462.462 0 0 1 .461-.461h6.386a.463.463 0 0 1 .461.46v16.321a3.66 3.66 0 0 1-3.649 3.658Zm-2.738-19.518v15.86a2.739 2.739 0 1 0 5.472 0V87.593l-5.472-.003Z"
            fill="#E5F6FF"/>
        <path
            d="M284.315 98.475a6.515 6.515 0 0 0 6.512-6.515v-3.84a6.288 6.288 0 0 0-1.842-4.453 6.31 6.31 0 0 0-4.452-1.847h-6.73v10.128a6.509 6.509 0 0 0 3.817 5.932l2.695.595Z"
            fill="#fff"/>
        <path
            d="M284.315 98.949a.459.459 0 0 1-.46-.46.458.458 0 0 1 .46-.46 6.062 6.062 0 0 0 6.052-6.056v-3.851a5.83 5.83 0 0 0-5.831-5.831h-6.27v9.68a6.082 6.082 0 0 0 3.548 5.523.46.46 0 1 1-.384.838 6.999 6.999 0 0 1-4.084-6.353V81.852a.458.458 0 0 1 .46-.46h6.73a6.75 6.75 0 0 1 6.752 6.751v3.84a6.98 6.98 0 0 1-6.973 6.966Z"
            fill="#E5F6FF"/>
        <path
            d="m284.717 82.07-6.672 6.355v-6.598s6.672.396 6.672.243ZM304.867 136.807h-50.535a2.115 2.115 0 0 1-2.031-2.11 2.109 2.109 0 0 1 2.031-2.11h50.535a2.109 2.109 0 0 1 2.031 2.11 2.109 2.109 0 0 1-2.031 2.11ZM313.871 145.74h-59.537a2.114 2.114 0 0 1-2.031-2.11 2.11 2.11 0 0 1 2.031-2.109h59.537a2.111 2.111 0 0 1 0 4.219ZM304.867 154.678h-50.535a2.11 2.11 0 0 1 0-4.22h50.535a2.109 2.109 0 0 1 2.031 2.11 2.109 2.109 0 0 1-2.031 2.11ZM313.872 163.614h-41.32a2.11 2.11 0 0 1 0-4.22h41.32a2.11 2.11 0 0 1 0 4.22Z"
            fill="#E5F6FF"/>
        <path
            d="M292.855 125.23h-17.512a2.114 2.114 0 0 1-2.031-2.11 2.114 2.114 0 0 1 2.031-2.11h17.512a2.108 2.108 0 0 1 2.023 1.284 2.112 2.112 0 0 1-2.023 2.936Z"
            fill="#A2D2EC"/>
        <path
            d="M243.341 33.32H179.51c-5.881 0-10.649 4.767-10.649 10.648v108.987c0 5.881 4.768 10.649 10.649 10.649h63.831c5.881 0 10.649-4.768 10.649-10.649V43.968c0-5.88-4.768-10.649-10.649-10.649Z"
            fill="#fff"/>
        <path
            d="M243.338 164.065h-63.833a11.127 11.127 0 0 1-11.107-11.104V43.971a11.126 11.126 0 0 1 11.113-11.109h63.833a11.12 11.12 0 0 1 11.113 11.11v59.362a.46.46 0 0 1-.921 0V43.972a10.2 10.2 0 0 0-10.192-10.189h-63.833a10.201 10.201 0 0 0-10.192 10.189V152.96a10.198 10.198 0 0 0 10.192 10.189h63.833a10.2 10.2 0 0 0 10.186-10.189v-36.029a.46.46 0 0 1 .921 0v36.029a11.122 11.122 0 0 1-11.113 11.104Z"
            fill="#000"/>
        <path d="M219.63 102.082h-17.536a2.11 2.11 0 1 1 0-4.223h17.542a2.111 2.111 0 1 1 0 4.223h-.006Z"
              fill="#A2D2EC"/>
        <path
            d="M240.681 114.474h-59.638a2.112 2.112 0 0 1 0-4.223h59.638a2.11 2.11 0 1 1 0 4.223ZM240.681 123.681h-59.638a2.112 2.112 0 0 1 0-4.223h59.638a2.11 2.11 0 1 1 0 4.223ZM220.963 132.887h-39.92a2.11 2.11 0 1 1 0-4.222h39.92a2.11 2.11 0 0 1 2.112 2.111 2.112 2.112 0 0 1-2.112 2.111ZM240.681 142.094h-59.638a2.11 2.11 0 1 1 0-4.222h59.638a2.11 2.11 0 1 1 0 4.222Z"
            fill="#E5F6FF"/>
        <path
            d="M191.838 52.472a23.775 23.775 0 0 0 11.932 37.929l-2.734 9.774a1.301 1.301 0 0 0 .905 1.608 1.305 1.305 0 0 0 1.608-.905l2.762-9.91a23.713 23.713 0 0 0 18.61-4.75c10.324-8.111 13.331-24.134 4.008-33.38-6.58-6.528-10.674-8.732-18.107-9.137-11.33-.608-18.984 8.771-18.984 8.771Z"
            fill="#fff"/>
        <path
            d="M203.816 75.502a6.236 6.236 0 0 1-6.076-7.712c1.605-6.445 5.125-14.777 12.693-15.959 7.89-1.227 12.15 8.397 14.23 15.74a6.236 6.236 0 0 1-1.041 5.46 6.242 6.242 0 0 1-4.98 2.468l-14.826.003Z"
            fill="#000"/>
        <path
            d="M210.139 88.207c5.831-.14 9.741-1.4 13.945-5.367-4.864-1.507-7.267-1.571-13.043-1.571-5.775 0-9.286.288-14.15 1.795-.013.012 5.511 5.346 13.248 5.143Z"
            fill="#52A5D8"/>
        <path
            d="M196.783 83.56a.462.462 0 0 1-.455-.4.458.458 0 0 1 .339-.504 57.332 57.332 0 0 1 27.408-.338.465.465 0 0 1 .383.373.456.456 0 0 1-.227.483.468.468 0 0 1-.368.037 55.404 55.404 0 0 0-12.821-1.47 54.678 54.678 0 0 0-14.139 1.805.527.527 0 0 1-.12.015Z"
            fill="#000"/>
        <path
            d="M211.18 85.366a3.706 3.706 0 0 1-3.707-3.704V59.477h7.414v22.185a3.71 3.71 0 0 1-1.086 2.62 3.698 3.698 0 0 1-2.621 1.084Z"
            fill="#fff"/>
        <path
            d="M211.18 85.826a4.17 4.17 0 0 1-4.174-4.165V59.476a.458.458 0 0 1 .46-.46h7.412a.459.459 0 0 1 .46.46v22.185a4.173 4.173 0 0 1-4.158 4.165Zm-3.253-25.89v21.725a3.245 3.245 0 0 0 6.49 0V59.936h-6.49Z"
            fill="#000"/>
        <path
            d="M208.41 71.942c-2.403-1.188-4.072-3.817-4.072-6.871v-3.944c0-4.296 3.213-7.8 7.181-7.8 3.71 0 6.718 3.265 6.718 7.294v4.447c0 4.167-3.112 7.546-6.951 7.546l-2.876-.672Z"
            fill="#fff"/>
        <path
            d="M211.301 73.074a.46.46 0 0 1 0-.92c3.578 0 6.491-3.18 6.491-7.087V60.62c0-3.768-2.808-6.834-6.258-6.834-3.707 0-6.721 3.293-6.721 7.34v3.941c0 2.762 1.498 5.313 3.815 6.445a.452.452 0 0 1 .232.265.468.468 0 0 1-.023.352.457.457 0 0 1-.266.232.457.457 0 0 1-.351-.023c-2.63-1.299-4.327-4.159-4.327-7.283v-3.928c0-4.558 3.428-8.262 7.641-8.262 3.959 0 7.178 3.48 7.178 7.755v4.447c-.015 4.42-3.339 8.007-7.411 8.007Z"
            fill="#000"/>
        <path
            d="M204.283 59.01h14.442a7.359 7.359 0 0 0-2.872-4.76c-2.197-1.62-5.131-1.777-7.623-.657-1.691.758-3.437 2.124-3.76 4.557l-.187.86ZM211.302 68.235a3.108 3.108 0 0 1-2.289-.991.458.458 0 0 1 .025-.647.462.462 0 0 1 .647.018 2.221 2.221 0 0 0 1.616.7 2.214 2.214 0 0 0 1.616-.7.452.452 0 0 1 .322-.15.458.458 0 0 1 .478.448.472.472 0 0 1-.128.33 3.102 3.102 0 0 1-2.287.992Z"
            fill="#000"/>
        <path
            d="M202.291 102.297a1.77 1.77 0 0 1-1.753-1.553c-.028-.23-.01-.464.053-.687l2.611-9.342a24.04 24.04 0 0 1-12.021-8.216 24.246 24.246 0 0 1 .307-30.317.463.463 0 0 1 .64-.055.46.46 0 0 1 .072.638 23.462 23.462 0 0 0-.285 29.155 23.128 23.128 0 0 0 11.987 8.025.466.466 0 0 1 .307.567l-2.728 9.793a.839.839 0 0 0 .271.925.845.845 0 0 0 1.212-.161.845.845 0 0 0 .14-.31l2.762-9.91a.46.46 0 0 1 .519-.327 23.323 23.323 0 1 0-10.554-41.323.46.46 0 0 1-.568-.725 24.243 24.243 0 1 1 11.38 43.02l-2.661 9.514a1.764 1.764 0 0 1-1.691 1.289Zm7.979-13.675a21.093 21.093 0 1 1 20.927-23.63.462.462 0 0 1-.405.515.465.465 0 0 1-.516-.405 20.188 20.188 0 0 0-20.861-17.762 20.19 20.19 0 1 0 20.613 24.139.467.467 0 0 1 .719-.302.48.48 0 0 1 .201.297.47.47 0 0 1 0 .183 21.083 21.083 0 0 1-20.669 16.956l-.009.009ZM126.186 229.457l-3.007 5.656s-1.025 3.068 1.021 4.029c2.047.961 4.453.123 4.453.123l3.778-7.402-6.245-2.406ZM160.588 229.577s-1.443 7.175.337 9.206l.629 1.099-4.879 1.495c-1.977.613-4.297.119-4.843-1.872 0 0 1.022-2.649 1.673-10.92l7.083.992Z"
            fill="#000"/>
        <path
            d="M152.615 150.549v.098c.872 18.812-18.821 44.153-25.818 72.426l-1.136 5.494a2.72 2.72 0 0 0 .454 2.148l.049.071a5.273 5.273 0 0 0 5.524 2.059 2.705 2.705 0 0 0 1.44-.878c3.624-4.235 23.161-27.329 26.285-36.934 3.443-10.597 10.127-32.279 10.127-32.279l-16.925-12.205Z"
            fill="#000"/>
        <path
            d="M164.416 159.182c.243 8.995-1.583 16.658-3.376 21.043-4.646 11.373-9.206 26.856-8.755 47.706a2.783 2.783 0 0 0 1.485 2.455 10.34 10.34 0 0 0 5.853 1.078 2.695 2.695 0 0 0 2.068-1.406c3.272-6.079 21.418-34.065 22.649-55.022.457-7.777 2.375-16.388 2.762-24.592l-22.686 8.738Z"
            fill="#000"/>
        <path
            d="M152.633 209.518a.423.423 0 0 1-.123 0 .456.456 0 0 1-.306-.564c2.393-8.744 5.036-16.855 6.711-21.532a.461.461 0 0 1 .866.307c-1.67 4.662-4.297 12.745-6.688 21.464a.457.457 0 0 1-.46.325Z"
            fill="#F2EFE0"/>
        <path
            d="M150.069 242.755s-1.335 1.765-1.633 3.266c-.298 1.5.666 3.397 2.566 4.232 1.899.834 7.399 1.227 10.597-1.099a36.635 36.635 0 0 0 6.334-5.849c.666-.869 2.599-3.425 1.504-5.945-1.246-2.869-19.368 5.395-19.368 5.395Z"
            fill="#000"/>
        <path
            d="M152.278 239.115c.226.25.477.476.749.675 2.826 2.081 6.809-.095 6.671-3.603l-.055-1.375a24.41 24.41 0 0 0 4.453.722c1.314.064 2.971.196 4.03.782 1.605.887 1.083 3.79-.12 4.874-1.203 1.083-7.261 5.432-8.424 6.018-1.912.96-4.957 1.378-7.544.07-1.304-.659-1.884-1.5-1.964-2.599-.126-1.709 1.295-4.554 1.802-5.524a.25.25 0 0 1 .08-.085.253.253 0 0 1 .226-.022c.037.014.07.037.096.067Z"
            fill="#fff"/>
        <path
            d="M155.635 248.57a8.4 8.4 0 0 1-3.805-.88c-1.393-.706-2.118-1.679-2.216-2.977-.132-1.802 1.255-4.628 1.842-5.764a.716.716 0 0 1 .539-.367.712.712 0 0 1 .611.226c.204.228.432.434.679.614a3.627 3.627 0 0 0 3.922.276 3.753 3.753 0 0 0 2.016-3.492l-.08-2.004.614.165c1.427.369 2.885.606 4.355.706 1.534.077 3.133.233 4.232.841a2.504 2.504 0 0 1 1.227 1.998c.151 1.307-.377 2.83-1.255 3.618-1.19 1.074-7.264 5.454-8.525 6.089a9.51 9.51 0 0 1-4.156.951Zm-3.489-8.927c-.54 1.056-1.722 3.538-1.611 5.002.071.973.614 1.657 1.712 2.222 2.409 1.228 5.316.841 7.126-.07 1.093-.553 7.083-4.831 8.326-5.951.651-.583 1.068-1.841.955-2.83a1.642 1.642 0 0 0-.749-1.298c-.939-.518-2.455-.657-3.833-.724a23.695 23.695 0 0 1-3.947-.589l.031.764a4.666 4.666 0 0 1-2.501 4.342 4.581 4.581 0 0 1-4.91-.349 5.7 5.7 0 0 1-.599-.519Z"
            fill="#000"/>
        <path
            d="M163.081 240.315a.46.46 0 0 1-.421-.651c0-.04.921-2.262-.116-3.922a.456.456 0 0 1-.053-.342.462.462 0 0 1 .829-.152c1.317 2.081.233 4.668.184 4.778a.452.452 0 0 1-.423.289ZM165.406 239.591a.456.456 0 0 1-.435-.608c0-.037.613-1.927-.267-2.983a.463.463 0 0 1 .056-.649.459.459 0 0 1 .649.057c1.228 1.457.467 3.771.433 3.867a.464.464 0 0 1-.436.316ZM119.848 239.029s-.675.801-1.375 1.651c-1.086 1.316-1.341 3.241 0 5.34 1.341 2.099 4.027 3.962 7.93 2.716 3.729-1.191 3.834-3.284 5.233-4.134.997-.614 8.55-4.947 5.199-9.747l-16.987 4.174Z"
            fill="#000"/>
        <path
            d="m130.561 233.98 1.381-.181a7.313 7.313 0 0 1 3.182.283 2.618 2.618 0 0 1 1.667 3.351l-.126.359a7.293 7.293 0 0 1-4.257 4.385l-1.841.715c-.479.185-1.013.777-1.36 1.228a6.227 6.227 0 0 1-1.641 1.492 5.328 5.328 0 0 1-5.325.159c-1.479-.74-2.253-2.277-2.645-3.489a3.04 3.04 0 0 1 .506-2.842l3.259-3.772c.401.522.894.966 1.455 1.311a3.752 3.752 0 0 0 5.702-2.615l.043-.384Z"
            fill="#fff"/>
        <path
            d="M124.807 246.87a6.254 6.254 0 0 1-2.786-.694c-1.633-.819-2.456-2.495-2.876-3.759a3.486 3.486 0 0 1-.119-1.708 3.486 3.486 0 0 1 .705-1.56l3.658-4.236.338.488c.369.469.816.87 1.323 1.185a3.203 3.203 0 0 0 3.093.212 3.306 3.306 0 0 0 1.909-2.511l.107-.709 1.725-.23a7.785 7.785 0 0 1 3.376.307 3.07 3.07 0 0 1 1.964 3.944l-.126.359a7.748 7.748 0 0 1-4.526 4.661l-1.842.716c-.464.264-.863.63-1.166 1.071a6.763 6.763 0 0 1-1.762 1.602 5.693 5.693 0 0 1-2.995.862Zm-1.461-10.499-2.906 3.376a2.58 2.58 0 0 0-.42 2.4c.356 1.095 1.065 2.544 2.415 3.219a4.856 4.856 0 0 0 4.879-.141 5.777 5.777 0 0 0 1.535-1.384c.574-.724 1.096-1.182 1.556-1.36l1.841-.715a6.822 6.822 0 0 0 3.99-4.109l.126-.359a2.152 2.152 0 0 0-.629-2.346 2.143 2.143 0 0 0-.746-.416 6.853 6.853 0 0 0-2.98-.267l-1.037.138v.028a4.229 4.229 0 0 1-2.437 3.213 4.154 4.154 0 0 1-3.968-.279 6.368 6.368 0 0 1-1.219-1.007v.009Z"
            fill="#000"/>
        <path
            d="M132.787 237.59a.441.441 0 0 1-.089 0 .462.462 0 0 1-.362-.541 2.43 2.43 0 0 0-1.209-2.455.463.463 0 0 1-.16-.632.466.466 0 0 1 .633-.16 3.331 3.331 0 0 1 1.638 3.435.458.458 0 0 1-.451.353ZM134.537 236.491a.458.458 0 0 1-.458-.427s-.122-1.39-1.135-1.859a.466.466 0 0 1-.226-.26.459.459 0 0 1 .613-.575c1.509.696 1.66 2.547 1.666 2.627a.461.461 0 0 1-.427.491l-.033.003Z"
            fill="#000"/>
        <path
            d="M138.913 142.834c-1.569.157-11.454.884-17.493-5.116a.18.18 0 0 0-.135-.051.177.177 0 0 0-.071.021.183.183 0 0 0-.055.049c-1.065 1.359-9.121 11.076-22.207 11.226a.178.178 0 0 0-.092.026.174.174 0 0 0-.046.256c.746.921 3.269 3.873 6.313 5.619 3.311 1.903 5.809 4.911 6.227 5.432a.166.166 0 0 0 .162.062c1.305-.209 15.001-2.547 22.744-9.434 4.066-3.615 4.748-7.009 4.858-7.893a.175.175 0 0 0-.052-.151.172.172 0 0 0-.153-.046Z"
            fill="#fff"/>
        <path
            d="M111.47 160.83a.611.611 0 0 1-.488-.236c-.454-.565-2.879-3.468-6.101-5.322-3.124-1.792-5.718-4.836-6.445-5.729a.615.615 0 0 1-.083-.666.64.64 0 0 1 .574-.366c12.948-.147 20.973-9.934 21.848-11.048a.644.644 0 0 1 .46-.242.625.625 0 0 1 .488.184c5.849 5.797 15.302 5.168 17.137 4.981a.64.64 0 0 1 .666.433c.03.091.039.187.028.282-.123.985-.854 4.484-5.009 8.179-7.804 6.942-21.446 9.298-22.977 9.544a.532.532 0 0 1-.098.006Zm-11.935-11.413c1 1.178 3.222 3.575 5.803 5.057 3.167 1.82 5.586 4.604 6.255 5.414 2.12-.356 14.961-2.731 22.344-9.299 3.517-3.124 4.423-6.036 4.653-7.255-2.535.206-11.459.479-17.284-5.057-1.547 1.89-9.437 10.726-21.771 11.14Z"
            fill="#000"/>
        <path
            d="M129.292 150.092c-.381 0-9.379-.291-12.724-4.708a.459.459 0 0 1 .733-.555c3.069 4.066 11.926 4.343 12.015 4.343a.46.46 0 0 1-.024.92ZM125.228 153.293h-.074c-.307-.049-7.365-1.227-10.802-5.524a.457.457 0 0 1 .409-.746.462.462 0 0 1 .309.169c3.228 4.03 10.161 5.193 10.231 5.217a.46.46 0 0 1 .387.495.465.465 0 0 1-.46.426v-.037ZM108.121 153.081a.464.464 0 0 1-.203-.046c-.076-.036-1.945-.948-2.762-1.936a.458.458 0 0 1 .712-.583c.565.69 1.955 1.455 2.456 1.691a.46.46 0 0 1-.2.874h-.003Z"
            fill="#52A5D8"/>
        <path
            d="M139.581 135.432s-.568 1.74-.894 2.949c-.34 1.283.221 3.719-.945 4.554-.27.193-.776-.061-1.227-.024-1.489.122-5.626 4.324-6.985 3.559-1.909-1.071-1.228-3.375 3.32-7.819 1.016-.991 2.541-4.821 2.541-4.821l4.19 1.602Z"
            fill="#fff"/>
        <path
            d="M129.901 147.023a1.204 1.204 0 0 1-.613-.151 2.194 2.194 0 0 1-1.228-1.651c-.202-1.534 1.206-3.741 4.438-6.899.776-.758 2.022-3.624 2.436-4.664l.169-.421 5.036 1.921-.138.418s-.568 1.74-.884 2.925a6.908 6.908 0 0 0-.122 1.512c-.025 1.228-.049 2.615-1.001 3.296a1.271 1.271 0 0 1-1.01.108 1.921 1.921 0 0 0-.46-.046c-.506.04-1.663.859-2.682 1.58-1.479 1.059-2.906 2.072-3.941 2.072Zm5.733-12.604c-.445 1.068-1.593 3.683-2.476 4.563-2.925 2.857-4.328 4.911-4.168 6.117a1.284 1.284 0 0 0 .749.969c.528.307 2.455-1.058 3.587-1.869 1.277-.902 2.382-1.684 3.137-1.746.232-.012.466.006.693.056.11.022.222.036.335.039.558-.423.58-1.552.614-2.55a7.672 7.672 0 0 1 .153-1.737c.23-.859.577-1.961.764-2.553l-3.388-1.289Z"
            fill="#000"/>
        <path
            d="M157.245 91.549c9.013-3.161 22.777-1.077 27.123 2.845s5.303 8.037 6.23 10.158c.927 2.121 3.235 8.98 4.198 9.207.372.095-.086-4.327.645-7.746a3.571 3.571 0 0 1 1.703-2.369 3.586 3.586 0 0 1 2.9-.317l3.324 1.059c4.846-1.187-.752 28.418-5.635 28.925-4.944.509-15.001-13.85-13.528-9.677 8.529 24.18 7.332 55.904 7.059 61.311a1 1 0 0 1-.835.939l-1.961.307a1.874 1.874 0 0 1-1.989-1.077c-.669-1.485-1.749-3.962-2.375-5.831a.958.958 0 0 0-.866-.652.952.952 0 0 0-.917.578c-.921 2.115-2.455 5.178-3.351 6.887a2.084 2.084 0 0 1-2.099 1.114c-2.851-.344-9.342-1.194-13.783-2.262-10.695-2.581-22.351-7.81-26.512-9.762a1.675 1.675 0 0 1-.871-.974 1.67 1.67 0 0 1 .101-1.303c2.93-5.5 12.809-24.244 14.97-30.879 3.784-11.629 5.165-22.382 4.18-25.908-1.559-5.595-10.34 14.985-12.107 19.352-1.001 2.456-9.428-1.939-9.354-2.249 2.897-12.488 11.855-37.502 23.75-41.676Z"
            fill="#F1C40F"/>
        <path
            d="M202.619 105.7a4.077 4.077 0 0 1-2.148-.408 4.573 4.573 0 0 1-1.783-1.559c.055-.359.11-.728.162-1.108 0 0-.451-3.13 1.961-4.978 2.339-1.79 4.825-3.658 5.079 1.126.011.259.055.514.132.761.218.694.439 2.541-2.344 4.475-.28.193-.762.497-.844.822l-.215.869Z"
            fill="#fff"/>
        <path
            d="M202.3 106.164a4.552 4.552 0 0 1-2.047-.464c-1.034-.524-2.099-1.592-2.031-2.034.055-.341.104-.688.156-1.044-.058-.503-.276-3.486 2.149-5.34 1.565-1.2 3.185-2.44 4.443-1.86.838.387 1.274 1.443 1.375 3.327.008.22.046.438.111.648.251.801.506 2.888-2.523 4.993l-.086.058c-.147.102-.534.366-.574.498l-.291 1.169-.307.04c-.125.011-.25.014-.375.009Zm-3.127-2.544c.405.522.921.949 1.51 1.249.49.242 1.028.37 1.574.374l.132-.534c.117-.466.614-.795.946-1.034l.082-.055c2.529-1.756 2.36-3.355 2.17-3.96a3.444 3.444 0 0 1-.153-.877c-.098-1.82-.51-2.384-.838-2.535-.755-.35-2.277.816-3.502 1.753-2.148 1.654-1.789 4.52-1.786 4.548v.129c-.043.319-.089.635-.135.942Z"
            fill="#000"/>
        <path
            d="M183.018 175.879h-.04a.45.45 0 0 1-.312-.163.46.46 0 0 1-.105-.337c.021-.282 2.36-28.575-3.505-48.299a.459.459 0 0 1 .311-.572.465.465 0 0 1 .573.312c5.914 19.889 3.56 48.353 3.538 48.639a.46.46 0 0 1-.46.42ZM178.234 120.643a.464.464 0 0 1-.451-.374c0-.031-.638-3.287-1.013-6.752a.464.464 0 0 1 .411-.51.458.458 0 0 1 .34.101.461.461 0 0 1 .17.311c.368 3.431.991 6.647.997 6.681a.459.459 0 0 1-.362.54.47.47 0 0 1-.092.003ZM181.608 74.913c.77.264 1.13 1.841 1.252 2.658.402 2.651-1.006 8.783-2.906 9.283-2.673.7-2.599-.684-3.925.129-1.123.687-1.304 1.814-1.841 4.343-.034.162 4.422.862 4.48 1.015.135.35-2.311 5.095-8.691 4.297-6.043-.761-5.469-4.88-5.493-5.168 0-.172 3.148-.464 3.228-.63 1.059-2.17 1.841-5.947 1.841-5.947s3.944-12.736 12.055-9.98Z"
            fill="#fff"/>
        <path
            d="M171.406 97.184a11.86 11.86 0 0 1-1.473-.095c-3.845-.485-5.997-2.502-5.899-5.525v-.07c-.039-.506.28-.552 2.047-.807a22.91 22.91 0 0 0 1.305-.212c.985-2.114 1.724-5.64 1.731-5.677v-.043c.095-.307 2.36-7.498 7.086-9.913a6.893 6.893 0 0 1 5.524-.359c1.009.344 1.408 2.04 1.559 3.023.408 2.707-.979 9.207-3.244 9.799-1.535.405-2.28.162-2.814 0a.9.9 0 0 0-.988.089c-.894.546-1.084 1.458-1.535 3.652.442.104 1.255.26 1.891.38 2.323.448 2.369.464 2.488.77.2.529-.644 1.64-.816 1.857-.764.986-2.915 3.13-6.862 3.13Zm-6.445-5.392c0 2.455 1.771 3.965 5.095 4.382 5.109.644 7.519-2.455 8.062-3.53a71.795 71.795 0 0 0-1.661-.33c-2.381-.458-2.479-.498-2.63-.725l-.107-.16.114-.564c.481-2.342.724-3.517 1.964-4.275a1.776 1.776 0 0 1 1.758-.178c.448.147 1.004.331 2.29 0 1.506-.396 2.973-6.089 2.565-8.771-.184-1.228-.574-2.148-.942-2.287a6.008 6.008 0 0 0-4.827.307c-4.272 2.182-6.488 8.937-6.617 9.348-.074.35-.838 3.9-1.878 6.03-.141.29-.347.33-1.924.56-.405.048-.955.128-1.262.193Z"
            fill="#000"/>
        <path
            d="M178.158 81.696h-.064c-1.271-.172-1.986-1.535-2.127-2.78-.132-1.158.215-2.066.878-2.318 1.184-.448 2.13.838 2.504 1.666a.459.459 0 0 1-.232.61.459.459 0 0 1-.609-.232c0-.015-.678-1.43-1.338-1.181-.178.067-.377.573-.288 1.35.098.877.558 1.866 1.338 1.973a.467.467 0 0 1 .316.157.454.454 0 0 1 .113.334.476.476 0 0 1-.046.174.474.474 0 0 1-.266.233.462.462 0 0 1-.179.023v-.01Z"
            fill="#000"/>
        <path
            d="M184.619 73.448a2.928 2.928 0 0 1-3.039 3.446 27.512 27.512 0 0 0-3.956.084 1.804 1.804 0 0 0-1.374.825c-.82.921-.571 20.24-4.211 27.08-2.817 5.297-7.979 12.12-17.091 11.868-12.997-.362-16.376-14.185-14.08-18.954 5.954-12.377 19.027-.92 21.32-19.469 1.326-10.741 13.592-18.898 21.05-8.4a8.87 8.87 0 0 1 1.381 3.52Z"
            fill="#fff"/>
        <path
            d="M155.447 117.218h-.51c-5.435-.151-9.94-2.716-12.684-7.221-2.817-4.622-3.029-9.821-1.798-12.393 2.716-5.65 6.819-6.506 10.787-7.331 4.963-1.038 9.25-1.934 10.49-11.994.785-6.374 5.312-11.996 10.762-13.374 4.229-1.068 8.179.614 11.122 4.763a9.226 9.226 0 0 1 1.455 3.704 3.377 3.377 0 0 1-3.514 3.99 26.737 26.737 0 0 0-3.87.08 1.256 1.256 0 0 0-.979.54l-.095.113c-.197.42-.371 2.999-.54 5.497-.451 6.702-1.136 16.83-3.628 21.513-4.281 8.037-9.998 12.113-16.998 12.113Zm19.466-51.72a8.98 8.98 0 0 0-2.198.282c-5.011 1.267-9.344 6.68-10.072 12.582-1.323 10.714-6.352 11.763-11.217 12.78-3.75.782-7.626 1.592-10.146 6.83-1.141 2.373-.797 7.329 1.756 11.515 1.823 2.992 5.371 6.598 11.923 6.779 6.865.191 12.469-3.719 16.673-11.625 2.397-4.508 3.1-14.92 3.52-21.142.307-4.474.417-5.652.755-6.027l.074-.092a2.144 2.144 0 0 1 1.58-.88 27.3 27.3 0 0 1 4.042-.09 2.452 2.452 0 0 0 2.513-1.799c.099-.36.115-.737.046-1.104a8.291 8.291 0 0 0-1.301-3.336c-2.182-3.047-4.947-4.674-7.948-4.674Z"
            fill="#000"/>
        <path
            d="M156.573 110.742a7.76 7.76 0 0 1-4.523-1.442.46.46 0 1 1 .534-.752 6.874 6.874 0 0 0 9.866-2.028 6.889 6.889 0 0 0 1.004-3.582c0-.122.048-.239.134-.326a.463.463 0 0 1 .652 0 .463.463 0 0 1 .134.326 7.808 7.808 0 0 1-7.801 7.804ZM153.201 102.824a5.275 5.275 0 0 1-4.932-3.422.468.468 0 0 1 .268-.598.465.465 0 0 1 .501.121.47.47 0 0 1 .094.155 4.357 4.357 0 0 0 5.876 2.431 4.362 4.362 0 0 0 1.796-1.51.453.453 0 0 1 .296-.213.456.456 0 0 1 .357.068.463.463 0 0 1 .189.493.48.48 0 0 1-.081.167 5.258 5.258 0 0 1-4.364 2.308ZM113.465 49.937a3.087 3.087 0 0 1 0-6.171.459.459 0 0 1 .46.46.462.462 0 0 1-.46.46 2.164 2.164 0 0 0-2.002 1.339 2.165 2.165 0 0 0 2.833 2.829 2.168 2.168 0 0 0 1.335-2.004.462.462 0 0 1 .786-.326.462.462 0 0 1 .135.326 3.09 3.09 0 0 1-3.087 3.087ZM184.259 224.081a.476.476 0 0 1-.329-.135l-1.344-1.348a.464.464 0 0 1-.146-.328.45.45 0 0 1 .134-.334.458.458 0 0 1 .513-.095.468.468 0 0 1 .15.107l1.347 1.347a.466.466 0 0 1 0 .651.473.473 0 0 1-.325.135ZM188.97 228.791a.467.467 0 0 1-.328-.135l-1.345-1.347a.462.462 0 0 1 .329-.774.462.462 0 0 1 .322.123l1.347 1.347a.463.463 0 0 1 0 .651.466.466 0 0 1-.325.135ZM182.91 228.791a.462.462 0 0 1-.425-.636.444.444 0 0 1 .1-.149l1.344-1.348a.458.458 0 0 1 .652-.001.458.458 0 0 1 .002.652l-1.347 1.347a.464.464 0 0 1-.326.135ZM187.621 224.081a.466.466 0 0 1-.461-.461.464.464 0 0 1 .136-.325l1.344-1.347a.461.461 0 0 1 .654.65l-1.347 1.348a.469.469 0 0 1-.326.135ZM249.515 214.487a.464.464 0 0 1-.325-.135l-1.347-1.347a.466.466 0 0 1-.101-.502.464.464 0 0 1 .752-.149l1.347 1.347a.467.467 0 0 1 0 .651.473.473 0 0 1-.326.135ZM254.226 219.198a.454.454 0 0 1-.325-.135l-1.347-1.347a.462.462 0 0 1-.136-.325.457.457 0 0 1 .461-.459c.122 0 .239.048.325.133l1.348 1.348a.463.463 0 0 1-.326.785ZM248.168 219.198a.465.465 0 0 1-.461-.46.466.466 0 0 1 .136-.326l1.347-1.347a.463.463 0 0 1 .639.011.459.459 0 0 1 .012.64l-1.347 1.347a.469.469 0 0 1-.326.135ZM252.879 214.487a.465.465 0 0 1-.461-.46.466.466 0 0 1 .136-.326l1.347-1.347a.457.457 0 0 1 .639.011.459.459 0 0 1 .012.64l-1.348 1.347a.444.444 0 0 1-.325.135ZM240.886 206.327a3.254 3.254 0 1 1 3.253-3.253 3.258 3.258 0 0 1-3.253 3.253Zm0-5.586a2.33 2.33 0 0 0-2.155 1.44 2.338 2.338 0 0 0 .506 2.542 2.33 2.33 0 0 0 2.541.506 2.334 2.334 0 0 0 1.44-2.155 2.337 2.337 0 0 0-2.332-2.333ZM232.668 213.299a2.152 2.152 0 0 1-1.985-1.326 2.143 2.143 0 0 1 .466-2.341 2.15 2.15 0 0 1 3.305.326 2.146 2.146 0 0 1-1.786 3.341Zm0-3.354a1.227 1.227 0 1 0 0 2.453 1.227 1.227 0 0 0 0-2.453ZM283.686 219.443a.458.458 0 0 1-.329-.138.46.46 0 0 1 0-.651 108.576 108.576 0 0 0 13.543-16.069.464.464 0 0 1 .632-.106.455.455 0 0 1 .19.289.455.455 0 0 1-.064.339 109.485 109.485 0 0 1-13.656 16.204.453.453 0 0 1-.316.132ZM121.621 209.941a.469.469 0 0 1-.359-.169 118.142 118.142 0 0 1-7.246-9.955.449.449 0 0 1-.079-.17.453.453 0 0 1 .063-.361.452.452 0 0 1 .308-.2.453.453 0 0 1 .356.089c.05.038.092.086.123.141a116.962 116.962 0 0 0 7.196 9.876.46.46 0 0 1-.362.749ZM272.108 235.804a.47.47 0 0 1-.393-.221.462.462 0 0 1 .154-.632 116.058 116.058 0 0 0 41.286-43.487.463.463 0 0 1 .625-.185.46.46 0 0 1 .185.624 116.953 116.953 0 0 1-41.614 43.831.473.473 0 0 1-.243.07ZM289.967 51.439a.471.471 0 0 1-.307-.12 115.53 115.53 0 0 0-25.656-17.82.469.469 0 0 1-.228-.27.456.456 0 0 1 .14-.492.465.465 0 0 1 .509-.058 116.612 116.612 0 0 1 25.858 17.962.459.459 0 0 1-.307.798h-.009ZM120.155 40.946a.462.462 0 0 1-.396-.697c3.708-6.212 8.345-11.048 13.78-14.396 5.889-3.619 12.908-5.595 20.868-5.874a.463.463 0 0 1 .478.443.467.467 0 0 1-.269.436.458.458 0 0 1-.175.041c-15.154.531-26.236 7.016-33.881 19.82a.458.458 0 0 1-.405.227ZM236.092 29.119a.45.45 0 0 1-.178-.037.463.463 0 0 1-.256-.254.466.466 0 0 1 .008-.36l9.053-21.74a.453.453 0 0 1 .254-.255.461.461 0 0 1 .36.006.459.459 0 0 1 .252.255.461.461 0 0 1-.004.359l-9.053 21.74a.464.464 0 0 1-.436.286ZM243.672 28.849a.457.457 0 0 1-.416-.266.466.466 0 0 1 .063-.49l4.061-4.876a.46.46 0 1 1 .709.59l-4.064 4.864a.458.458 0 0 1-.353.178ZM211.992 27.765a.46.46 0 0 1-.461-.46V11.995a.462.462 0 0 1 .786-.325.462.462 0 0 1 .135.325v15.308a.462.462 0 0 1-.46.46ZM206.939 184.547a.572.572 0 0 1-.117 0 .465.465 0 0 1-.328-.565l3.609-13.718a.462.462 0 0 1 .902.054.49.49 0 0 1-.012.179l-3.609 13.721a.467.467 0 0 1-.168.239.468.468 0 0 1-.277.09ZM227.874 196.098a.457.457 0 0 1-.445-.347l-6.859-27.077a.451.451 0 0 1 .034-.366.458.458 0 0 1 .785-.035c.036.053.06.112.071.174l6.862 27.077a.468.468 0 0 1-.334.561.492.492 0 0 1-.114.013Z"
            fill="#000"/>
    </g>
    <defs>
        <filter id="b" x="102" y="-29" width="297" height="279" filterUnits="userSpaceOnUse"
                color-interpolation-filters="sRGB">
            <feFlood flood-opacity="0" result="BackgroundImageFix"/>
            <feBlend in="SourceGraphic" in2="BackgroundImageFix" result="shape"/>
            <feGaussianBlur stdDeviation="25" result="effect1_foregroundBlur_1938_35635"/>
        </filter>
        <filter id="c" x="-16" y="24" width="278" height="278" filterUnits="userSpaceOnUse"
                color-interpolation-filters="sRGB">
            <feFlood flood-opacity="0" result="BackgroundImageFix"/>
            <feBlend in="SourceGraphic" in2="BackgroundImageFix" result="shape"/>
            <feGaussianBlur stdDeviation="30" result="effect1_foregroundBlur_1938_35635"/>
        </filter>
        <clipPath id="a">
            <path fill="#fff" d="M0 0h400v260H0z"/>
        </clipPath>
    </defs>
</svg>