<svg width="93" height="93" viewBox="0 0 93 93" fill="none" xmlns="http://www.w3.org/2000/svg">
<path d="M83.9382 69.2117C82.6983 69.8602 81.4196 70.4315 80.1094 70.9226C75.939 72.483 71.5212 73.2779 67.0684 73.2691C49.879 73.2691 34.9055 61.4457 34.9055 46.2731C34.9275 44.2381 35.4923 42.2459 36.5415 40.502C37.5906 38.7581 39.0862 37.3259 40.8739 36.353C25.3264 37.0069 21.3306 53.2074 21.3306 62.6988C21.3306 89.535 46.0648 92.2557 51.3938 92.2557C54.2672 92.2557 58.6009 91.4202 61.2018 90.5993L61.6777 90.4395C71.6863 86.9796 80.2188 80.2155 85.8707 71.2604C86.0438 70.9877 86.1211 70.6651 86.0903 70.3435C86.0596 70.022 85.9226 69.7198 85.7009 69.4848C85.4792 69.2499 85.1856 69.0954 84.8664 69.046C84.5471 68.9965 84.2205 69.0548 83.9382 69.2117Z" fill="url(#paint0_linear_522_30721)"/>
<path opacity="0.35" d="M83.9382 69.2117C82.6983 69.8602 81.4196 70.4315 80.1094 70.9226C75.939 72.483 71.5212 73.2779 67.0684 73.2691C49.879 73.2691 34.9055 61.4457 34.9055 46.2731C34.9275 44.2381 35.4923 42.2459 36.5415 40.502C37.5906 38.7581 39.0862 37.3259 40.8739 36.353C25.3264 37.0069 21.3306 53.2074 21.3306 62.6988C21.3306 89.535 46.0648 92.2557 51.3938 92.2557C54.2672 92.2557 58.6009 91.4202 61.2018 90.5993L61.6777 90.4395C71.6863 86.9796 80.2188 80.2155 85.8707 71.2604C86.0438 70.9877 86.1211 70.6651 86.0903 70.3435C86.0596 70.022 85.9226 69.7198 85.7009 69.4848C85.4792 69.2499 85.1856 69.0954 84.8664 69.046C84.5471 68.9965 84.2205 69.0548 83.9382 69.2117Z" fill="url(#paint1_radial_522_30721)"/>
<path d="M38.4076 87.6934C35.1676 85.6825 32.3596 83.0476 30.1471 79.9419C27.6253 76.487 25.89 72.5223 25.0628 68.3258C24.2356 64.1293 24.3366 59.8027 25.3587 55.6494C26.3808 51.496 28.2993 47.6166 30.9796 44.2832C33.6598 40.9498 37.037 38.2431 40.8741 36.353C42.0075 35.8191 43.9436 34.8528 46.5191 34.9001C48.3337 34.9133 50.1205 35.3465 51.7395 36.1657C53.3586 36.985 54.7659 38.1681 55.8513 39.6222C57.3182 41.5807 58.127 43.9536 58.1616 46.4003C58.1616 46.324 67.0469 17.4863 29.1009 17.4863C13.1539 17.4863 0.0402263 32.6189 0.0402263 45.8953C-0.0226758 52.9184 1.48009 59.8672 4.43929 66.2368C9.27545 76.5549 17.7326 84.7378 28.2047 89.2317C38.6769 93.7256 50.4347 94.2174 61.2457 90.6139C57.4603 91.8073 53.4612 92.1655 49.524 91.6638C45.5868 91.1621 41.8053 89.8125 38.4403 87.7079L38.4076 87.6934Z" fill="url(#paint2_linear_522_30721)"/>
<path opacity="0.41" d="M38.4076 87.6934C35.1676 85.6825 32.3596 83.0476 30.1471 79.9419C27.6253 76.487 25.89 72.5223 25.0628 68.3258C24.2356 64.1293 24.3366 59.8027 25.3587 55.6494C26.3808 51.496 28.2993 47.6166 30.9796 44.2832C33.6598 40.9498 37.037 38.2431 40.8741 36.353C42.0075 35.8191 43.9436 34.8528 46.5191 34.9001C48.3337 34.9133 50.1205 35.3465 51.7395 36.1657C53.3586 36.985 54.7659 38.1681 55.8513 39.6222C57.3182 41.5807 58.127 43.9536 58.1616 46.4003C58.1616 46.324 67.0469 17.4863 29.1009 17.4863C13.1539 17.4863 0.0402263 32.6189 0.0402263 45.8953C-0.0226758 52.9184 1.48009 59.8672 4.43929 66.2368C9.27545 76.5549 17.7326 84.7378 28.2047 89.2317C38.6769 93.7256 50.4347 94.2174 61.2457 90.6139C57.4603 91.8073 53.4612 92.1655 49.524 91.6638C45.5868 91.1621 41.8053 89.8125 38.4403 87.7079L38.4076 87.6934Z" fill="url(#paint3_radial_522_30721)"/>
<path d="M55.3352 54.0719C55.0409 54.4533 54.1364 54.98 54.1364 56.1279C54.1364 57.0759 54.754 57.9877 55.851 58.7541C61.0747 62.3865 70.9226 61.907 70.948 61.907C74.8186 61.8977 78.6159 60.8503 81.9439 58.874C85.3011 56.9138 88.0875 54.1099 90.0265 50.7405C91.9655 47.3711 92.9899 43.5533 92.9978 39.6658C93.0923 31.5256 90.0917 26.1133 88.8785 23.716C81.181 8.65965 64.5656 2.27622e-07 46.4971 2.27622e-07C34.2778 -0.00120798 22.5491 4.80748 13.8477 13.386C5.14638 21.9646 0.171834 33.6234 0 45.8409C0.174364 32.5681 13.3679 21.8489 29.0607 21.8489C30.3321 21.8489 37.5827 21.9724 44.3175 25.5067C50.2532 28.6233 53.3627 32.3865 55.5241 36.117C57.769 39.9928 58.1686 44.8892 58.1686 46.8398C58.1686 48.7904 57.1733 51.6818 55.3352 54.0719Z" fill="url(#paint4_radial_522_30721)"/>
<path d="M55.3352 54.0719C55.0409 54.4533 54.1364 54.98 54.1364 56.1279C54.1364 57.0759 54.754 57.9877 55.851 58.7541C61.0747 62.3865 70.9226 61.907 70.948 61.907C74.8186 61.8977 78.6159 60.8503 81.9439 58.874C85.3011 56.9138 88.0875 54.1099 90.0265 50.7405C91.9655 47.3711 92.9899 43.5533 92.9978 39.6658C93.0923 31.5256 90.0917 26.1133 88.8785 23.716C81.181 8.65965 64.5656 2.27622e-07 46.4971 2.27622e-07C34.2778 -0.00120798 22.5491 4.80748 13.8477 13.386C5.14638 21.9646 0.171834 33.6234 0 45.8409C0.174364 32.5681 13.3679 21.8489 29.0607 21.8489C30.3321 21.8489 37.5827 21.9724 44.3175 25.5067C50.2532 28.6233 53.3627 32.3865 55.5241 36.117C57.769 39.9928 58.1686 44.8892 58.1686 46.8398C58.1686 48.7904 57.1733 51.6818 55.3352 54.0719Z" fill="url(#paint5_radial_522_30721)"/>
<defs>
<linearGradient id="paint0_linear_522_30721" x1="21.3306" y1="64.3116" x2="86.1141" y2="64.3116" gradientUnits="userSpaceOnUse">
<stop stop-color="#0C59A4"/>
<stop offset="1" stop-color="#114A8B"/>
</linearGradient>
<radialGradient id="paint1_radial_522_30721" cx="0" cy="0" r="1" gradientUnits="userSpaceOnUse" gradientTransform="translate(57.1115 64.8222) scale(34.6476 32.9136)">
<stop offset="0.72" stop-opacity="0"/>
<stop offset="0.95" stop-opacity="0.53"/>
<stop offset="1"/>
</radialGradient>
<linearGradient id="paint2_linear_522_30721" x1="55.4844" y1="36.2114" x2="15.0232" y2="80.2853" gradientUnits="userSpaceOnUse">
<stop stop-color="#1B9DE2"/>
<stop offset="0.16" stop-color="#1595DF"/>
<stop offset="0.67" stop-color="#0680D7"/>
<stop offset="1" stop-color="#0078D4"/>
</linearGradient>
<radialGradient id="paint3_radial_522_30721" cx="0" cy="0" r="1" gradientUnits="userSpaceOnUse" gradientTransform="translate(25.6443 72.2878) rotate(-81.3839) scale(52.0982 42.0921)">
<stop offset="0.76" stop-opacity="0"/>
<stop offset="0.95" stop-opacity="0.5"/>
<stop offset="1"/>
</radialGradient>
<radialGradient id="paint4_radial_522_30721" cx="0" cy="0" r="1" gradientUnits="userSpaceOnUse" gradientTransform="translate(9.39477 17.2092) rotate(92.2907) scale(73.5895 156.738)">
<stop stop-color="#35C1F1"/>
<stop offset="0.11" stop-color="#34C1ED"/>
<stop offset="0.23" stop-color="#2FC2DF"/>
<stop offset="0.31" stop-color="#2BC3D2"/>
<stop offset="0.67" stop-color="#36C752"/>
</radialGradient>
<radialGradient id="paint5_radial_522_30721" cx="0" cy="0" r="1" gradientUnits="userSpaceOnUse" gradientTransform="translate(87.2083 28.117) rotate(73.739) scale(35.3579 28.7543)">
<stop stop-color="#66EB6E"/>
<stop offset="1" stop-color="#66EB6E" stop-opacity="0"/>
</radialGradient>
</defs>
</svg>
