<svg width="320" height="208" viewBox="0 0 320 208" fill="none" xmlns="http://www.w3.org/2000/svg">
<g clip-path="url(#clip0_3408_44517)">
<path d="M94.8344 19.5019C93.4075 20.3158 92.1756 21.4085 90.8215 22.328C79.3857 30.0903 36.0569 58.13 41.2264 120.49C48.5609 208.935 86.2575 207.513 142.543 207.513C198.828 207.513 240.709 215.185 252.443 169.628C264.37 123.328 242.788 120.992 239.035 68.1758C235.282 15.3595 204.665 -4.30253 159.696 0.771861C131.517 3.95466 114.865 8.082 94.8344 19.5019Z" fill="#E5F6FF"/>
<g filter="url(#filter0_f_3408_44517)">
<ellipse cx="107.6" cy="90.0004" rx="78.8" ry="71.6" fill="#B5E0FF" fill-opacity="0.6"/>
</g>
<g filter="url(#filter1_f_3408_44517)">
<circle cx="229.6" cy="120.8" r="63.2" fill="#FFE7C3" fill-opacity="0.6"/>
</g>
<path d="M173.146 61.5824C173.093 61.5826 173.04 61.5722 172.991 61.552C172.941 61.5317 172.897 61.5018 172.859 61.4642L171.539 60.1205C171.468 60.0437 171.43 59.9425 171.432 59.838C171.435 59.7336 171.477 59.6341 171.552 59.5606C171.626 59.487 171.726 59.4452 171.83 59.4439C171.935 59.4425 172.036 59.4818 172.112 59.5534L173.431 60.881C173.486 60.9379 173.523 61.0096 173.538 61.0873C173.553 61.165 173.545 61.2454 173.515 61.3185C173.484 61.3916 173.433 61.4543 173.368 61.4988C173.302 61.5433 173.225 61.5677 173.146 61.569V61.5824Z" fill="black"/>
<path d="M177.766 66.2294C177.713 66.2296 177.66 66.2192 177.611 66.1989C177.561 66.1786 177.516 66.1488 177.479 66.1112L176.159 64.7675C176.088 64.6907 176.05 64.5894 176.052 64.485C176.054 64.3805 176.097 64.2811 176.171 64.2076C176.246 64.134 176.346 64.0922 176.45 64.0909C176.554 64.0895 176.655 64.1288 176.731 64.2004L178.051 65.5307C178.126 65.6063 178.169 65.7087 178.169 65.8156C178.169 65.9224 178.126 66.0248 178.051 66.1004C178.015 66.1401 177.971 66.1719 177.922 66.1941C177.873 66.2163 177.82 66.2283 177.766 66.2294V66.2294Z" fill="black"/>
<path d="M171.824 66.2287C171.723 66.2257 171.627 66.1844 171.555 66.1131C171.518 66.0759 171.488 66.0315 171.467 65.9826C171.447 65.9337 171.436 65.8812 171.436 65.8282C171.436 65.7752 171.447 65.7228 171.467 65.6739C171.488 65.625 171.518 65.5806 171.555 65.5434L172.875 64.2131C172.951 64.1415 173.052 64.1022 173.156 64.1035C173.261 64.1049 173.361 64.1467 173.435 64.2202C173.509 64.2938 173.552 64.3932 173.554 64.4977C173.556 64.6021 173.518 64.7034 173.447 64.7801L172.128 66.1239C172.087 66.1608 172.039 66.1892 171.987 66.2072C171.934 66.2252 171.879 66.2325 171.824 66.2287V66.2287Z" fill="black"/>
<path d="M176.444 61.5827C176.365 61.5814 176.288 61.557 176.222 61.5125C176.157 61.4679 176.106 61.4053 176.076 61.3322C176.045 61.2591 176.037 61.1787 176.052 61.101C176.067 61.0233 176.104 60.9516 176.159 60.8947L177.478 59.5671C177.555 59.4955 177.655 59.4562 177.76 59.4576C177.864 59.4589 177.964 59.5007 178.038 59.5743C178.113 59.6478 178.155 59.7472 178.158 59.8517C178.16 59.9561 178.122 60.0574 178.051 60.1341L176.731 61.4779C176.653 61.549 176.55 61.5866 176.444 61.5827Z" fill="black"/>
<path d="M186.191 83.082C185.633 83.0858 185.086 82.9235 184.619 82.6159C184.153 82.3083 183.789 81.8692 183.573 81.3542C183.357 80.8393 183.298 80.2717 183.405 79.7236C183.512 79.1754 183.779 78.6713 184.173 78.2753C184.567 77.8792 185.069 77.6091 185.617 77.4991C186.165 77.3891 186.732 77.4442 187.249 77.6574C187.765 77.8706 188.206 78.2323 188.516 78.6967C188.827 79.1611 188.992 79.7071 188.991 80.2656C188.993 81.0102 188.699 81.725 188.174 82.253C187.649 82.781 186.936 83.0792 186.191 83.082V83.082ZM186.191 78.2446C185.792 78.2409 185.401 78.3558 185.068 78.5747C184.734 78.7936 184.473 79.1067 184.318 79.4741C184.163 79.8416 184.12 80.2469 184.196 80.6386C184.271 81.0303 184.462 81.3907 184.742 81.6741C185.023 81.9575 185.382 82.1511 185.773 82.2303C186.164 82.3095 186.569 82.2707 186.938 82.1189C187.307 81.9672 187.623 81.7092 187.845 81.3778C188.067 81.0464 188.185 80.6564 188.185 80.2575C188.182 79.7295 187.971 79.224 187.598 78.8506C187.225 78.4773 186.719 78.2663 186.191 78.2635V78.2446Z" fill="black"/>
<path d="M255.251 32.4693C255.174 32.4694 255.1 32.4479 255.036 32.4074C254.971 32.3669 254.92 32.309 254.887 32.2405C254.854 32.1719 254.841 32.0954 254.85 32.0199C254.859 31.9444 254.888 31.8728 254.936 31.8136C259.049 26.6705 261.625 20.4697 262.367 13.9259C262.373 13.873 262.389 13.8218 262.415 13.7751C262.441 13.7285 262.476 13.6875 262.517 13.6543C262.559 13.6211 262.607 13.5964 262.658 13.5817C262.709 13.567 262.763 13.5625 262.816 13.5685C262.869 13.5745 262.92 13.5909 262.966 13.6167C263.013 13.6425 263.054 13.6772 263.087 13.7189C263.121 13.7605 263.145 13.8084 263.16 13.8596C263.175 13.9108 263.179 13.9644 263.173 14.0173C262.416 20.712 259.78 27.0558 255.57 32.3161C255.532 32.3642 255.483 32.4029 255.428 32.4295C255.373 32.456 255.312 32.4696 255.251 32.4693Z" fill="black"/>
<path d="M230.65 202.781C230.553 202.782 230.459 202.748 230.385 202.686C230.311 202.624 230.262 202.537 230.247 202.442C230.232 202.346 230.251 202.248 230.302 202.166C230.353 202.084 230.431 202.023 230.523 201.993C239.009 199.181 246.519 194.01 252.173 187.086C252.207 187.045 252.248 187.011 252.295 186.986C252.341 186.96 252.392 186.945 252.445 186.939C252.498 186.934 252.551 186.939 252.602 186.955C252.653 186.97 252.7 186.996 252.74 187.03C252.823 187.097 252.875 187.195 252.886 187.302C252.897 187.408 252.865 187.514 252.797 187.597C247.045 194.639 239.407 199.899 230.776 202.759C230.735 202.773 230.693 202.78 230.65 202.781V202.781Z" fill="black"/>
<path d="M244.382 206.436C244.29 206.437 244.2 206.405 244.128 206.347C244.055 206.289 244.005 206.208 243.986 206.118C243.966 206.028 243.979 205.933 244.02 205.851C244.062 205.768 244.131 205.702 244.216 205.665C250.19 202.939 255.265 198.571 258.849 193.069C258.878 193.024 258.916 192.986 258.959 192.956C259.003 192.927 259.053 192.906 259.104 192.895C259.156 192.884 259.21 192.884 259.262 192.894C259.314 192.904 259.364 192.924 259.408 192.953C259.452 192.982 259.49 193.02 259.52 193.064C259.55 193.107 259.571 193.157 259.581 193.209C259.592 193.261 259.593 193.314 259.583 193.366C259.573 193.418 259.553 193.468 259.523 193.512C255.857 199.146 250.663 203.62 244.549 206.412C244.496 206.431 244.439 206.44 244.382 206.436V206.436Z" fill="black"/>
<path d="M160.736 6.89563C160.687 6.89606 160.638 6.88692 160.593 6.86875C158.433 6.05159 156.219 5.38617 153.966 4.87735C153.912 4.86793 153.861 4.84763 153.815 4.81769C153.769 4.78775 153.73 4.74881 153.7 4.70322C153.669 4.65764 153.649 4.60637 153.639 4.55254C153.629 4.49871 153.63 4.44344 153.643 4.39011C153.655 4.33678 153.678 4.2865 153.71 4.24233C153.742 4.19816 153.783 4.16103 153.83 4.1332C153.877 4.10537 153.93 4.08741 153.984 4.08044C154.038 4.07346 154.093 4.07761 154.146 4.09262C156.43 4.61045 158.675 5.28847 160.865 6.12164C160.952 6.15537 161.026 6.21866 161.071 6.30059C161.117 6.38252 161.133 6.47794 161.116 6.57036C161.1 6.66278 161.051 6.7464 160.979 6.80677C160.907 6.86714 160.816 6.90047 160.722 6.901L160.736 6.89563Z" fill="black"/>
<path d="M126.742 5.2973C126.635 5.30942 126.528 5.27857 126.444 5.21154C126.36 5.14451 126.305 5.04679 126.293 4.93987C126.281 4.83296 126.312 4.72561 126.379 4.64145C126.446 4.55728 126.544 4.50319 126.651 4.49107C134.737 2.60986 142.636 2.22018 150.131 3.32741C150.238 3.34273 150.334 3.3999 150.399 3.48633C150.464 3.57277 150.492 3.68139 150.476 3.78831C150.461 3.89522 150.404 3.99166 150.317 4.05643C150.231 4.12119 150.122 4.14896 150.015 4.13364C142.62 3.03985 134.821 3.42953 126.834 5.28386C126.804 5.29216 126.773 5.29668 126.742 5.2973V5.2973Z" fill="black"/>
<path d="M88.6719 28.1132C88.5889 28.1146 88.5075 28.0904 88.4388 28.0438C88.3701 27.9972 88.3175 27.9306 88.2881 27.8529C88.2587 27.7753 88.254 27.6905 88.2746 27.6101C88.2952 27.5297 88.3401 27.4576 88.4031 27.4037C90.5853 25.5225 92.8724 23.7219 95.1997 22.0691C95.2871 22.0103 95.394 21.9881 95.4976 22.0071C95.6012 22.0262 95.6933 22.085 95.754 22.1711C95.8148 22.2571 95.8395 22.3635 95.8227 22.4675C95.806 22.5715 95.7493 22.6649 95.6646 22.7276C93.3588 24.3642 91.096 26.1406 88.946 28.0138C88.8702 28.08 88.7725 28.1154 88.6719 28.1132V28.1132Z" fill="black"/>
<path d="M60.3247 89.7229C60.2236 89.7225 60.1264 89.6842 60.0522 89.6155C59.978 89.5468 59.9324 89.4528 59.9243 89.352C59.51 83.6125 59.9062 77.8432 61.1014 72.2142C61.112 72.1623 61.1327 72.113 61.1623 72.0691C61.1919 72.0253 61.2299 71.9876 61.2741 71.9584C61.3183 71.9292 61.3678 71.909 61.4197 71.899C61.4717 71.8889 61.5252 71.8892 61.5771 71.8997C61.629 71.9103 61.6782 71.931 61.7221 71.9607C61.766 71.9903 61.8036 72.0283 61.8328 72.0725C61.862 72.1166 61.8822 72.1661 61.8923 72.2181C61.9023 72.2701 61.9021 72.3235 61.8915 72.3754C60.7116 77.9311 60.3199 83.6253 60.7278 89.2902C60.7353 89.3966 60.7005 89.5016 60.6311 89.5826C60.5617 89.6636 60.4632 89.714 60.357 89.7229H60.3247Z" fill="black"/>
<path d="M197.96 24.1357H197.93C197.877 24.132 197.825 24.1178 197.778 24.094C197.731 24.0701 197.689 24.0371 197.654 23.9969C197.62 23.9566 197.593 23.9099 197.577 23.8595C197.561 23.809 197.555 23.7559 197.559 23.703C197.559 23.4934 197.586 23.2865 197.597 23.0769C198.046 13.1333 191.23 4.38032 181.391 2.27067L174.538 0.800639C174.485 0.791596 174.433 0.771764 174.388 0.742339C174.342 0.712914 174.302 0.674505 174.272 0.629434C174.241 0.584363 174.22 0.533564 174.21 0.480103C174.199 0.426641 174.2 0.371626 174.211 0.318379C174.223 0.265131 174.245 0.214755 174.276 0.170294C174.308 0.125832 174.348 0.0882044 174.394 0.0596849C174.441 0.0311655 174.492 0.0123446 174.546 0.00435809C174.6 -0.00362843 174.655 -0.000616354 174.708 0.0132156L181.561 1.48325C186.458 2.53982 190.832 5.27708 193.923 9.2204C197.025 13.168 198.61 18.096 198.392 23.1118C198.392 23.3295 198.371 23.5472 198.355 23.7649C198.347 23.8647 198.302 23.958 198.229 24.0266C198.156 24.0951 198.06 24.134 197.96 24.1357V24.1357Z" fill="black"/>
<path d="M205.283 20.626H205.253C205.147 20.6178 205.048 20.568 204.978 20.4876C204.908 20.4071 204.873 20.3024 204.88 20.196L205.022 18.1993C205.449 12.1805 204.253 6.15745 201.561 0.757742C201.534 0.710159 201.517 0.657623 201.511 0.603325C201.505 0.549027 201.51 0.494101 201.526 0.441876C201.542 0.389651 201.569 0.341219 201.604 0.299519C201.639 0.25782 201.683 0.223723 201.732 0.199298C201.78 0.174873 201.834 0.160627 201.888 0.15743C201.943 0.154232 201.997 0.16215 202.049 0.180697C202.1 0.199244 202.147 0.228037 202.187 0.265328C202.227 0.302618 202.259 0.347627 202.281 0.397625C205.04 5.92573 206.264 12.093 205.826 18.2557L205.686 20.2525C205.678 20.3542 205.633 20.4493 205.558 20.5186C205.483 20.5879 205.385 20.6263 205.283 20.626V20.626Z" fill="black"/>
<path d="M222.684 192.461C222.589 192.462 222.496 192.43 222.423 192.369C222.349 192.308 222.299 192.224 222.282 192.13C222.265 192.036 222.282 191.94 222.329 191.857C222.377 191.775 222.452 191.711 222.542 191.679C223.942 191.141 225.347 190.582 226.721 189.999C226.819 189.957 226.93 189.956 227.029 189.996C227.128 190.036 227.208 190.113 227.25 190.212C227.292 190.31 227.293 190.421 227.253 190.52C227.214 190.62 227.136 190.699 227.038 190.741C225.654 191.33 224.237 191.899 222.829 192.434C222.783 192.452 222.734 192.461 222.684 192.461V192.461Z" fill="black"/>
<path d="M199.013 199.18C198.96 199.185 198.906 199.181 198.855 199.166C198.804 199.151 198.757 199.126 198.715 199.093C198.631 199.026 198.577 198.928 198.566 198.821C198.554 198.714 198.585 198.607 198.652 198.523C198.72 198.439 198.817 198.385 198.924 198.373C203.762 197.298 209.481 195.955 215.318 194.146C215.42 194.114 215.531 194.125 215.625 194.174C215.72 194.224 215.791 194.31 215.823 194.412C215.855 194.514 215.844 194.625 215.795 194.72C215.745 194.815 215.659 194.886 215.557 194.917C209.69 196.742 203.947 198.086 199.102 199.161C199.073 199.171 199.043 199.177 199.013 199.18V199.18Z" fill="black"/>
<path d="M199.284 31.4079C200.033 31.6861 200.838 31.7783 201.631 31.6767C202.829 31.5504 210.529 29.2257 213.705 19.0107C213.705 19.0107 229.894 21.7277 238.118 21.0828C246.342 20.4378 250.765 19.7767 250.765 19.7767C250.765 19.7767 245.828 45.3477 227.71 44.0524L222.396 43.7218C221.652 43.6573 212.023 42.8108 208.567 42.5608C204.968 42.2921 195.331 43.7272 188.266 41.3972C181.201 39.0671 177.599 35.5735 165.651 30.0105C163.904 29.2042 158.801 27.6858 158.801 27.6858C157.476 30.2308 156.731 33.4746 156.46 37.8981C154.802 64.786 149.389 71.1499 144.735 70.7951L141.83 70.4511C140.545 70.3114 132.883 69.5051 122.01 69.1074L120.733 69.0805C121.271 75.6728 123.547 83.5417 128.72 91.4885C140.389 109.408 142.496 137.199 134.603 136.189C134.603 136.189 125.245 135.468 115.356 135.49L56.2559 134.923C56.2559 134.923 36.1538 90.6526 73.2029 96.1458C73.6437 96.2103 74.1758 96.2398 74.6139 96.264C71.5576 88.9591 69.2708 81.3556 67.7904 73.5766C66.2828 65.5385 68.9434 53.5525 81.7033 53.4208C89.4593 53.3402 106.965 54.9903 106.965 54.9903C106.965 54.9903 108.059 53.5632 108.083 53.5229C108.723 52.5232 115.283 44.1572 120.669 30.3518C126.229 16.0922 150.784 22.5205 163.896 21.5154L168.978 21.1365C177.309 20.5775 188.596 25.861 199.263 31.4214L199.284 31.4079Z" fill="white"/>
<path d="M135.014 136.594C134.861 136.594 134.709 136.584 134.557 136.565C134.482 136.565 125.119 135.855 115.361 135.869L56.256 135.302C56.1793 135.3 56.1046 135.278 56.0404 135.236C55.9762 135.194 55.9251 135.135 55.8932 135.065C54.0887 130.882 52.6666 126.543 51.6443 122.104C49.4944 112.542 50.1367 105.38 53.5766 100.816C57.1831 96.0326 63.8077 94.318 73.2675 95.7101C73.4932 95.7424 73.7432 95.7666 73.9931 95.7854C71.0695 88.6294 68.8605 81.2019 67.3981 73.6113C66.5274 68.962 66.9332 62.367 70.6849 57.7983C73.2729 54.6513 76.9789 53.0281 81.7034 52.9824C88.9165 52.9126 104.724 54.3423 106.788 54.5331C107.188 54.0117 107.718 53.3184 107.761 53.2566C107.831 53.1464 107.981 52.9368 108.207 52.6196C113.152 45.6656 117.215 38.1243 120.3 30.1687C124.539 19.3034 139.161 20.1284 152.061 20.8567C156.414 21.104 160.529 21.3351 163.885 21.0798L168.967 20.6982C177.298 20.1392 188.545 25.334 199.473 31.0287C200.155 31.2614 200.881 31.3359 201.596 31.2464C201.676 31.2464 209.956 29.7011 213.329 18.8626C213.36 18.7713 213.422 18.6939 213.505 18.6446C213.588 18.5953 213.686 18.5773 213.781 18.5939C213.942 18.6208 230.015 21.2975 238.094 20.6605C246.172 20.0236 250.671 19.3652 250.725 19.3571C250.789 19.3479 250.854 19.3541 250.915 19.375C250.976 19.396 251.031 19.4312 251.075 19.4777C251.12 19.5242 251.153 19.5806 251.172 19.6424C251.19 19.7042 251.193 19.7694 251.182 19.8328C250.199 24.2861 248.591 28.5776 246.403 32.5794C242.015 40.3918 236.025 44.4821 229.018 44.4821C228.583 44.4821 228.142 44.4821 227.699 44.4364L222.362 44.1139C222.259 44.1139 212.079 43.2082 208.537 42.9529C207.543 42.8803 206.033 42.9529 204.283 43.0147C199.639 43.2055 193.265 43.4635 188.14 41.7677C184.291 40.4993 181.421 38.8734 177.806 36.8121C174.762 35.0787 170.972 32.9207 165.482 30.3622C164.031 29.6877 160.153 28.4998 159.008 28.1558C157.804 30.6014 157.127 33.7108 156.858 37.9032C155.783 55.2506 153.055 65.9547 148.739 69.7172C147.5 70.7921 146.14 71.2866 144.708 71.1791L141.792 70.8351C140.381 70.6819 132.8 69.8865 121.999 69.4914L121.375 69.478H121.185C121.684 74.7454 123.477 82.6653 129.07 91.2463C138.567 105.844 142.171 128.121 138.03 134.729C137.253 135.957 136.218 136.594 135.014 136.594ZM115.82 135.062C125.444 135.062 134.547 135.756 134.633 135.761C135.751 135.904 136.629 135.425 137.32 134.302C139.177 131.346 139.4 124.468 137.901 116.368C136.248 107.446 132.776 98.4486 128.368 91.6843C122.55 82.7486 120.782 74.5142 120.325 69.1609C120.321 69.1269 120.321 69.0926 120.325 69.0587C120.325 68.9547 120.364 68.8546 120.436 68.7791C120.507 68.7036 120.605 68.6584 120.709 68.6529H120.741L121.381 68.6664L122.018 68.6798C132.845 69.0829 140.454 69.8784 141.87 70.0235L144.778 70.3675C145.979 70.4562 147.14 70.0343 148.21 69.1017C151.061 66.6158 154.737 59.177 156.052 37.8467C156.32 33.3641 157.086 30.072 158.438 27.4786C158.481 27.3953 158.552 27.3298 158.638 27.2934C158.725 27.2571 158.821 27.2522 158.911 27.2797C159.121 27.3415 164.06 28.8062 165.815 29.6232C171.338 32.1951 175.143 34.3584 178.201 36.0999C181.784 38.1397 184.614 39.7495 188.387 40.9911C193.388 42.6412 199.674 42.3858 204.243 42.1977C206.017 42.1252 207.548 42.0634 208.586 42.1386C212.136 42.3939 222.007 43.262 222.423 43.2996L227.726 43.6274C235.076 44.1649 241.112 40.3031 245.672 32.1816C247.726 28.4223 249.262 24.4033 250.241 20.2332C248.79 20.4294 244.622 20.9508 238.148 21.4614C230.623 22.0553 216.379 19.8301 213.982 19.4431C210.816 29.1556 203.482 31.8645 201.671 32.0553C200.809 32.1692 199.932 32.0696 199.118 31.7651L199.067 31.7382C188.25 26.0946 177.124 20.9535 169.01 21.5071L163.931 21.886C160.534 22.1548 156.406 21.9129 152.012 21.6656C139.381 20.9508 125.073 20.1446 121.048 30.4643C117.939 38.4818 113.846 46.0819 108.863 53.0899C108.65 53.3856 108.497 53.6006 108.43 53.7054C108.43 53.7242 108.395 53.7618 107.291 55.205C107.249 55.2585 107.194 55.3008 107.131 55.328C107.069 55.3552 107.001 55.3665 106.933 55.3608C106.756 55.3447 89.3519 53.7081 81.7088 53.7914C77.2342 53.8344 73.7351 55.3581 71.3057 58.3143C67.7287 62.668 67.3497 68.9969 68.1882 73.4661C69.6717 81.2133 71.9492 88.7871 74.9848 96.0675C75.0138 96.1303 75.0258 96.1995 75.0197 96.2684C75.0136 96.3373 74.9895 96.4033 74.9498 96.4599C74.9113 96.5175 74.8582 96.5638 74.7958 96.5941C74.7335 96.6243 74.6642 96.6374 74.5951 96.6319H74.5279C74.0845 96.605 73.5846 96.5782 73.1465 96.511C64.0092 95.1672 57.6319 96.7636 54.2162 101.295C46.7693 111.176 55.4605 132.044 56.522 134.49L115.361 135.054L115.82 135.062Z" fill="black"/>
<path d="M85.2426 97.4815C82.3374 97.5129 79.4339 97.3251 76.5568 96.9198C76.4499 96.9034 76.3539 96.8452 76.2899 96.758C76.2259 96.6708 76.1991 96.5618 76.2155 96.4549C76.2319 96.348 76.2901 96.2519 76.3773 96.1879C76.4645 96.1239 76.5735 96.0972 76.6805 96.1136C89.1529 98.062 111.246 94.2727 111.469 94.2323C111.522 94.2233 111.577 94.2249 111.629 94.2368C111.681 94.2488 111.731 94.2709 111.775 94.302C111.818 94.333 111.856 94.3724 111.884 94.4179C111.913 94.4633 111.932 94.514 111.941 94.5669C111.95 94.6199 111.949 94.6741 111.937 94.7264C111.925 94.7788 111.903 94.8283 111.871 94.8721C111.84 94.9159 111.801 94.9531 111.756 94.9817C111.71 95.0103 111.659 95.0296 111.607 95.0386C111.424 95.0681 97.3415 97.4815 85.2426 97.4815Z" fill="black"/>
<path d="M108.782 55.4258C108.116 55.4258 107.465 55.4016 106.823 55.356C106.717 55.3477 106.618 55.298 106.548 55.2175C106.478 55.1371 106.443 55.0323 106.449 54.926C106.453 54.8731 106.467 54.8214 106.49 54.774C106.514 54.7265 106.546 54.6841 106.586 54.6494C106.626 54.6147 106.673 54.5882 106.723 54.5715C106.773 54.5549 106.826 54.5484 106.879 54.5524C111.448 54.8749 116.578 54.0149 122.585 51.9214C122.686 51.8858 122.797 51.8918 122.894 51.9382C122.991 51.9845 123.065 52.0674 123.101 52.1686C123.136 52.2699 123.13 52.3811 123.084 52.4779C123.038 52.5746 122.955 52.649 122.853 52.6846C117.578 54.5202 112.953 55.4258 108.782 55.4258Z" fill="black"/>
<path d="M135.022 136.594C133.974 136.594 132.644 136.113 130.991 134.713C125.514 130.144 123.584 120.566 121.883 112.139C119.897 102.286 118.183 93.778 111.762 94.9981C110.781 95.1775 109.851 95.5691 109.036 96.1457C108.222 96.7222 107.544 97.4697 107.049 98.3359C103.66 103.896 105.132 114.866 107.422 122.571C107.453 122.674 107.441 122.785 107.391 122.879C107.34 122.973 107.253 123.043 107.151 123.074C107.048 123.104 106.937 123.093 106.843 123.042C106.749 122.991 106.679 122.905 106.648 122.802C104.2 114.563 102.837 103.697 106.358 97.9167C106.911 96.953 107.668 96.1217 108.575 95.4807C109.482 94.8396 110.519 94.4044 111.612 94.2053C118.814 92.8347 120.69 102.136 122.673 111.98C124.35 120.287 126.248 129.717 131.507 134.106C133.657 135.909 135.388 136.256 136.635 135.157C138.949 133.103 139.553 126.288 138.175 117.82C136.645 108.414 133.068 98.8815 128.39 91.6818C118.309 76.1994 118.984 60.3838 122.676 54.0979C123.652 52.4343 124.826 51.5663 125.974 51.6442C129.285 51.8727 132.571 56.7181 135.751 61.4023C137.331 63.7297 138.825 65.9307 140.15 67.2637C140.956 68.0699 143.821 70.631 146.887 69.4512C150.454 68.078 154.95 61.483 156.06 37.8603C156.065 37.7534 156.112 37.6529 156.191 37.5808C156.27 37.5087 156.375 37.471 156.481 37.476C156.588 37.481 156.689 37.5283 156.761 37.6074C156.833 37.6865 156.871 37.791 156.866 37.898C155.952 57.2126 152.692 68.0806 147.175 70.2037C143.657 71.5474 140.456 68.731 139.577 67.8334C138.199 66.4467 136.686 64.2161 135.073 61.8512C132.144 57.5512 128.825 52.6467 125.906 52.4451C125.076 52.3913 124.173 53.1196 123.359 54.5037C119.768 60.6096 119.164 76.0462 129.056 91.2384C133.802 98.5294 137.411 108.169 138.959 117.688C140.402 126.557 139.714 133.49 137.159 135.756C136.577 136.293 135.814 136.592 135.022 136.594V136.594Z" fill="black"/>
<path d="M158.906 27.9466C158.824 27.9475 158.744 27.9231 158.677 27.8767C158.589 27.8164 158.529 27.7237 158.509 27.6189C158.49 27.5141 158.512 27.4059 158.572 27.3178L158.637 27.1968C158.809 26.8824 159.002 26.533 159.112 26.3745C160.897 23.7461 163.627 21.013 170.343 20.6744C170.396 20.6716 170.449 20.6792 170.499 20.6969C170.549 20.7145 170.595 20.7418 170.635 20.7773C170.674 20.8127 170.706 20.8556 170.729 20.9034C170.752 20.9512 170.765 21.0031 170.768 21.056C170.771 21.109 170.763 21.1619 170.745 21.2119C170.728 21.2619 170.701 21.3079 170.665 21.3474C170.63 21.3868 170.587 21.4189 170.539 21.4417C170.491 21.4646 170.439 21.4778 170.386 21.4806C164.022 21.8004 161.453 24.3643 159.779 26.8286C159.682 26.9684 159.454 27.385 159.344 27.5865L159.239 27.7693C159.202 27.8239 159.153 27.8687 159.094 27.8997C159.036 27.9306 158.971 27.9467 158.906 27.9466V27.9466Z" fill="black"/>
<path d="M230.526 44.4103C227.421 44.3197 224.347 43.7589 221.41 42.7467C217.451 41.3278 211.929 38.4468 206.092 35.3831C203.716 34.1415 201.254 32.8569 198.938 31.6906C198.842 31.6425 198.77 31.5584 198.736 31.4568C198.703 31.3553 198.711 31.2446 198.759 31.1491C198.807 31.0536 198.891 30.9811 198.993 30.9476C199.094 30.914 199.205 30.9222 199.3 30.9704C201.625 32.1394 204.087 33.424 206.465 34.6683C212.286 37.7132 217.785 40.5807 221.69 41.9889C224.564 42.9836 227.576 43.5275 230.617 43.6013V43.6013C230.724 43.6013 230.827 43.6438 230.902 43.7194C230.978 43.795 231.02 43.8975 231.02 44.0045C231.02 44.1114 230.978 44.2139 230.902 44.2895C230.827 44.3651 230.724 44.4076 230.617 44.4076L230.526 44.4103Z" fill="black"/>
<path d="M108.043 53.9909C108 53.9916 107.957 53.9844 107.917 53.9694C107.865 53.9544 107.817 53.9292 107.776 53.8954C107.734 53.8615 107.7 53.8196 107.675 53.7723C107.65 53.7249 107.635 53.673 107.63 53.6196C107.625 53.5662 107.631 53.5125 107.648 53.4615C107.796 53.1665 107.976 52.8889 108.185 52.6337C113.131 45.6798 117.193 38.1384 120.279 30.1828C124.517 19.3175 139.139 20.1425 152.039 20.8708C156.546 21.1261 160.803 21.368 164.208 21.0643C164.315 21.0547 164.421 21.088 164.504 21.1568C164.586 21.2255 164.638 21.3243 164.647 21.4312C164.657 21.5381 164.624 21.6444 164.555 21.7268C164.486 21.8092 164.387 21.8609 164.28 21.8706C160.814 22.1769 156.53 21.9351 151.993 21.6798C139.362 20.9649 125.055 20.1587 121.029 30.4785C117.92 38.4959 113.827 46.096 108.844 53.1041C108.634 53.397 108.435 53.6738 108.392 53.749C108.362 53.8179 108.314 53.877 108.252 53.9197C108.19 53.9625 108.118 53.9871 108.043 53.9909V53.9909ZM108.425 53.7222C108.426 53.7302 108.426 53.7383 108.425 53.7463C108.429 53.736 108.429 53.7244 108.425 53.7141V53.7222Z" fill="black"/>
<path d="M142.023 70.86H141.975C141.894 70.86 133.773 69.9274 121.969 69.4867C121.916 69.4847 121.864 69.4724 121.816 69.4503C121.768 69.4283 121.725 69.397 121.689 69.3582C121.653 69.3193 121.624 69.2738 121.606 69.2242C121.588 69.1745 121.579 69.1217 121.581 69.0688C121.583 69.0158 121.595 68.9638 121.617 68.9156C121.639 68.8675 121.671 68.8241 121.709 68.7881C121.748 68.752 121.794 68.7239 121.843 68.7055C121.893 68.687 121.946 68.6785 121.999 68.6804C133.837 69.1185 141.988 70.0484 142.069 70.0564C142.176 70.0625 142.276 70.1108 142.347 70.1906C142.418 70.2705 142.455 70.3755 142.449 70.4824C142.443 70.5893 142.395 70.6894 142.315 70.7607C142.235 70.832 142.13 70.8687 142.023 70.8627V70.86Z" fill="black"/>
<path d="M83.289 105.27C72.6682 105.27 60.5962 104.679 59.8356 104.641C59.7287 104.636 59.6283 104.588 59.5565 104.509C59.4847 104.429 59.4473 104.325 59.4527 104.218C59.458 104.111 59.5056 104.01 59.585 103.939C59.6644 103.867 59.769 103.829 59.8759 103.835C60.1447 103.835 88.1479 105.221 96.7154 103.835C96.7684 103.826 96.8224 103.828 96.8746 103.841C96.9267 103.853 96.9759 103.876 97.0194 103.907C97.0628 103.939 97.0996 103.978 97.1277 104.024C97.1557 104.07 97.1746 104.12 97.183 104.173C97.1915 104.226 97.1895 104.28 97.177 104.333C97.1646 104.385 97.142 104.434 97.1106 104.477C97.0791 104.521 97.0394 104.558 96.9938 104.586C96.9481 104.614 96.8974 104.632 96.8444 104.641C93.8936 105.119 88.7848 105.27 83.289 105.27Z" fill="black"/>
<path d="M89.943 112.158C89.8361 112.158 89.7336 112.116 89.658 112.04C89.5824 111.964 89.5399 111.862 89.5399 111.755C89.5399 111.648 89.5824 111.546 89.658 111.47C89.7336 111.394 89.8361 111.352 89.943 111.352C92.0124 111.322 93.7216 111.274 95.0223 111.201C95.1287 111.198 95.2325 111.235 95.3117 111.307C95.3909 111.378 95.4394 111.477 95.4469 111.583C95.4498 111.636 95.4423 111.689 95.4246 111.739C95.407 111.789 95.3797 111.835 95.3442 111.875C95.3088 111.914 95.2659 111.946 95.218 111.969C95.1702 111.992 95.1183 112.005 95.0653 112.008C93.7538 112.078 92.0366 112.129 89.9592 112.158H89.943Z" fill="black"/>
<path d="M84.2403 112.187C72.4774 112.171 57.3847 111.749 57.2342 111.744C57.1812 111.742 57.1291 111.731 57.0807 111.709C57.0324 111.688 56.9887 111.657 56.9523 111.618C56.9158 111.58 56.8873 111.535 56.8684 111.485C56.8494 111.436 56.8404 111.383 56.8418 111.33C56.8432 111.277 56.8551 111.225 56.8766 111.177C56.8982 111.128 56.9291 111.085 56.9675 111.048C57.0059 111.012 57.0511 110.983 57.1006 110.964C57.15 110.945 57.2027 110.936 57.2557 110.938C57.4062 110.938 72.4881 111.365 84.2403 111.381C84.3472 111.381 84.4498 111.424 84.5254 111.499C84.601 111.575 84.6434 111.677 84.6434 111.784C84.6434 111.891 84.601 111.994 84.5254 112.069C84.4498 112.145 84.3472 112.187 84.2403 112.187Z" fill="black"/>
<path d="M95.9092 119.199H58.1156C58.0087 119.199 57.9062 119.156 57.8306 119.081C57.755 119.005 57.7125 118.903 57.7125 118.796C57.7125 118.689 57.755 118.586 57.8306 118.511C57.9062 118.435 58.0087 118.393 58.1156 118.393H95.9092C96.0161 118.393 96.1186 118.435 96.1942 118.511C96.2698 118.586 96.3123 118.689 96.3123 118.796C96.3123 118.903 96.2698 119.005 96.1942 119.081C96.1186 119.156 96.0161 119.199 95.9092 119.199V119.199Z" fill="black"/>
<path d="M84.9015 56.4414L100.696 57.6589C103.326 57.8608 105.967 57.8949 108.602 57.761L113.708 57.4922C113.977 57.4796 114.245 57.5284 114.491 57.6348C114.738 57.7412 114.957 57.9025 115.133 58.1064C115.308 58.3103 115.434 58.5515 115.502 58.8115C115.57 59.0716 115.578 59.3437 115.525 59.6073C114.961 62.4506 114.243 67.5809 115.09 72.4344C115.136 72.6913 115.125 72.9552 115.057 73.2073C114.99 73.4594 114.867 73.6934 114.698 73.8925C114.529 74.0916 114.319 74.2509 114.081 74.3589C113.843 74.4669 113.585 74.521 113.324 74.5172L74.5064 73.7701C74.0887 73.7615 73.6876 73.6045 73.375 73.3273C73.0623 73.0501 72.8585 72.6708 72.7999 72.2571C72.4473 69.9157 72.5092 67.5305 72.9826 65.2106C73.5828 62.56 75.1182 60.2145 77.3072 58.604C79.4962 56.9934 82.1924 56.2257 84.9015 56.4414V56.4414Z" fill="#A2D2EC"/>
<path d="M87.2852 79.4976C86.5139 79.4976 85.7345 79.4734 84.9659 79.425L73.9474 78.7397C73.8945 78.7367 73.8428 78.7231 73.7952 78.6999C73.7476 78.6767 73.7051 78.6443 73.6701 78.6046C73.6351 78.5649 73.6083 78.5186 73.5913 78.4684C73.5744 78.4183 73.5675 78.3652 73.5711 78.3124C73.5787 78.2062 73.6278 78.1072 73.7077 78.0368C73.7877 77.9664 73.8921 77.9303 73.9984 77.9362L85.017 78.6188C85.8474 78.6725 86.6912 78.694 87.5243 78.6887L95.8393 78.6349C95.9462 78.6349 96.0488 78.6774 96.1244 78.753C96.2 78.8286 96.2424 78.9311 96.2424 79.038C96.2424 79.1449 96.2 79.2475 96.1244 79.3231C96.0488 79.3987 95.9462 79.4412 95.8393 79.4412L87.5243 79.4949L87.2852 79.4976Z" fill="black"/>
<path d="M84.2107 91.8513C83.0778 91.8519 81.9456 91.7918 80.8191 91.6713L77.9839 91.3676C77.9309 91.362 77.8796 91.3459 77.8329 91.3205C77.7861 91.295 77.7448 91.2606 77.7114 91.2191C77.678 91.1777 77.653 91.1301 77.638 91.079C77.6229 91.028 77.6181 90.9744 77.6237 90.9215C77.6294 90.8685 77.6454 90.8172 77.6709 90.7705C77.6964 90.7237 77.7308 90.6825 77.7722 90.649C77.8136 90.6156 77.8613 90.5906 77.9123 90.5756C77.9634 90.5606 78.0169 90.5557 78.0699 90.5614L80.9051 90.8651C82.1831 91.0016 83.4684 91.059 84.7535 91.037L86.3902 91.0075C86.4431 91.0064 86.4958 91.0158 86.5451 91.0351C86.5944 91.0544 86.6394 91.0832 86.6776 91.1199C86.7158 91.1565 86.7464 91.2004 86.7676 91.2489C86.7889 91.2974 86.8003 91.3496 86.8014 91.4025C86.8024 91.4555 86.7931 91.5081 86.7738 91.5574C86.7545 91.6067 86.7257 91.6518 86.689 91.6899C86.6523 91.7281 86.6085 91.7587 86.56 91.7799C86.5115 91.8012 86.4593 91.8127 86.4063 91.8137L84.7697 91.8433L84.2107 91.8513Z" fill="black"/>
<path d="M94.6542 86.1646C89.6797 86.1646 84.7106 85.92 79.7657 85.4336L75.8985 85.0547C75.8456 85.0496 75.7942 85.0341 75.7472 85.0091C75.7003 84.9841 75.6587 84.9501 75.6249 84.9091C75.5911 84.868 75.5657 84.8207 75.5501 84.7698C75.5346 84.719 75.5292 84.6655 75.5343 84.6126C75.5395 84.5597 75.555 84.5083 75.5799 84.4613C75.6049 84.4144 75.6389 84.3728 75.68 84.339C75.721 84.3052 75.7683 84.2798 75.8192 84.2642C75.8701 84.2487 75.9235 84.2433 75.9764 84.2485L79.8464 84.6301C87.2894 85.3626 94.7766 85.5423 102.246 85.1676L118.065 84.3613C118.171 84.356 118.276 84.3933 118.355 84.4651C118.435 84.537 118.482 84.6374 118.488 84.7443C118.493 84.8512 118.456 84.9559 118.384 85.0352C118.312 85.1146 118.212 85.1622 118.105 85.1676L102.289 85.9738C99.7523 86.101 97.2073 86.1646 94.6542 86.1646Z" fill="black"/>
<path d="M147.634 61.2302H147.613L136.815 60.6174C136.762 60.6144 136.71 60.601 136.662 60.578C136.614 60.555 136.572 60.5228 136.536 60.4832C136.465 60.4033 136.428 60.2984 136.434 60.1915C136.441 60.0846 136.489 59.9844 136.569 59.9131C136.649 59.8418 136.754 59.8051 136.86 59.8112L147.659 60.4239C147.766 60.4271 147.867 60.4727 147.94 60.5506C148.013 60.6284 148.053 60.7322 148.05 60.8391C148.046 60.9461 148.001 61.0473 147.923 61.1206C147.845 61.194 147.741 61.2334 147.634 61.2302V61.2302Z" fill="black"/>
<path d="M148.855 54.6545H148.836L132.813 53.9531C132.76 53.9508 132.708 53.9381 132.66 53.9157C132.612 53.8934 132.569 53.8617 132.533 53.8227C132.497 53.7836 132.47 53.7379 132.451 53.6881C132.433 53.6383 132.425 53.5855 132.428 53.5325C132.43 53.4796 132.442 53.4276 132.465 53.3796C132.487 53.3315 132.519 53.2884 132.558 53.2526C132.597 53.2168 132.643 53.189 132.692 53.1709C132.742 53.1527 132.795 53.1446 132.848 53.1469L148.871 53.8483C148.978 53.8504 149.079 53.8949 149.153 53.9721C149.227 54.0492 149.268 54.1526 149.266 54.2595C149.264 54.3664 149.219 54.4681 149.142 54.5422C149.065 54.6162 148.961 54.6567 148.855 54.6545V54.6545Z" fill="black"/>
<path d="M149.784 47.4038L117.39 46.3504C117.337 46.3488 117.285 46.3368 117.237 46.315C117.188 46.2933 117.145 46.2623 117.108 46.2237C117.072 46.1852 117.044 46.1398 117.025 46.0903C117.006 46.0408 116.997 45.9881 116.999 45.9351C117 45.8822 117.012 45.8301 117.034 45.7818C117.056 45.7335 117.087 45.69 117.125 45.6536C117.164 45.6173 117.209 45.589 117.259 45.5702C117.308 45.5514 117.361 45.5425 117.414 45.5441L149.808 46.5949C149.915 46.5949 150.018 46.6374 150.094 46.713C150.169 46.7886 150.212 46.8911 150.212 46.998C150.212 47.1049 150.169 47.2075 150.094 47.2831C150.018 47.3587 149.915 47.4012 149.808 47.4012L149.784 47.4038Z" fill="black"/>
<path d="M150.945 40.389H150.913C143.7 39.8139 121.679 40.0369 121.456 40.0396C121.349 40.0396 121.247 39.9971 121.171 39.9215C121.095 39.8459 121.053 39.7434 121.053 39.6365C121.053 39.5296 121.095 39.427 121.171 39.3514C121.247 39.2758 121.349 39.2334 121.456 39.2334C121.679 39.2334 143.735 39.0076 150.983 39.5854C151.036 39.5874 151.088 39.5997 151.136 39.6218C151.184 39.6438 151.228 39.6752 151.264 39.714C151.3 39.7528 151.328 39.7983 151.346 39.8479C151.365 39.8976 151.373 39.9504 151.371 40.0033C151.369 40.0563 151.357 40.1083 151.335 40.1565C151.313 40.2046 151.282 40.248 151.243 40.284C151.204 40.3201 151.158 40.3482 151.109 40.3666C151.059 40.3851 151.006 40.3936 150.953 40.3917L150.945 40.389Z" fill="black"/>
<path d="M125.498 33.5529H151.499C151.669 33.5538 151.833 33.4971 151.967 33.3922C152.1 33.2872 152.194 33.1402 152.233 32.9751C152.55 31.6314 153.496 28.2963 155.398 26.0657C155.493 25.9583 155.555 25.8263 155.578 25.685C155.6 25.5437 155.582 25.3989 155.526 25.2674C155.47 25.1358 155.378 25.0228 155.26 24.9415C155.142 24.8602 155.004 24.8139 154.861 24.808C150.166 24.5742 137.328 24.077 131.628 25.2191C131.176 25.309 130.743 25.4763 130.349 25.7136C128.973 26.5467 125.683 28.8741 124.756 32.6069C124.727 32.7195 124.725 32.8372 124.749 32.9509C124.772 33.0646 124.822 33.1713 124.894 33.2627C124.966 33.3542 125.057 33.4279 125.162 33.4782C125.267 33.5285 125.382 33.5541 125.498 33.5529V33.5529Z" fill="#F1C40F"/>
<path d="M235.291 26.7101C226.288 26.7101 216.839 25.2025 216.713 25.181C216.66 25.1725 216.609 25.1537 216.563 25.1256C216.517 25.0975 216.478 25.0607 216.446 25.0173C216.415 24.9739 216.392 24.9247 216.38 24.8726C216.367 24.8204 216.365 24.7663 216.374 24.7134C216.382 24.6604 216.401 24.6097 216.429 24.564C216.457 24.5184 216.494 24.4787 216.538 24.4472C216.581 24.4158 216.63 24.3932 216.682 24.3808C216.734 24.3683 216.789 24.3663 216.842 24.3748C217.008 24.4016 233.504 27.0326 243.531 25.3127C243.632 25.3018 243.735 25.33 243.816 25.3917C243.898 25.4534 243.953 25.5439 243.971 25.6448C243.988 25.7457 243.967 25.8495 243.91 25.9351C243.854 26.0206 243.767 26.0816 243.668 26.1055C240.897 26.5379 238.095 26.7402 235.291 26.7101V26.7101Z" fill="black"/>
<path d="M237.056 32.7247C225.56 32.7247 212.552 30.4673 212.413 30.4431C212.36 30.4339 212.309 30.4144 212.264 30.3857C212.218 30.3569 212.179 30.3195 212.148 30.2756C212.117 30.2317 212.095 30.1821 212.083 30.1297C212.072 30.0773 212.07 30.023 212.079 29.9701C212.089 29.9172 212.108 29.8666 212.137 29.8212C212.166 29.7758 212.203 29.7365 212.247 29.7055C212.291 29.6746 212.34 29.6526 212.393 29.6408C212.445 29.629 212.499 29.6277 212.552 29.6369C212.703 29.6637 227.978 32.3243 239.983 31.854C240.09 31.8497 240.194 31.8881 240.273 31.9607C240.352 32.0333 240.398 32.1341 240.402 32.241C240.407 32.3479 240.368 32.4521 240.296 32.5308C240.223 32.6094 240.122 32.656 240.015 32.6602C239.048 32.7086 238.056 32.7247 237.056 32.7247Z" fill="black"/>
<path d="M232.778 38.8307C227.497 38.8307 221.117 37.6912 220.8 37.6347C220.747 37.6254 220.697 37.6057 220.651 37.5768C220.606 37.5479 220.567 37.5104 220.536 37.4663C220.474 37.3774 220.449 37.2673 220.468 37.1604C220.487 37.0535 220.548 36.9585 220.637 36.8962C220.726 36.834 220.836 36.8096 220.942 36.8285C221.034 36.8473 230.179 38.4759 235.543 37.8793C235.596 37.8733 235.649 37.8778 235.7 37.8924C235.75 37.907 235.798 37.9315 235.839 37.9645C235.88 37.9974 235.914 38.0382 235.94 38.0845C235.965 38.1307 235.981 38.1816 235.987 38.234C235.999 38.3402 235.968 38.4469 235.902 38.5305C235.835 38.6142 235.738 38.668 235.632 38.6802C234.684 38.7818 233.731 38.832 232.778 38.8307V38.8307Z" fill="black"/>
<path d="M170.626 190.257H74.982C73.662 190.257 72.3961 189.733 71.4627 188.8C70.5293 187.866 70.0049 186.6 70.0049 185.28V184.998H175.603V185.28C175.603 186.6 175.078 187.866 174.145 188.8C173.211 189.733 171.946 190.257 170.626 190.257V190.257Z" fill="black"/>
<path d="M70.0049 185.106H131.563L112.004 127.17C111.418 126.272 110.617 125.536 109.673 125.028C108.73 124.519 107.674 124.255 106.602 124.259H54.5655C54.0404 124.25 53.521 124.369 53.0518 124.605C52.5826 124.841 52.1776 125.187 51.8716 125.613C51.5655 126.04 51.3676 126.535 51.2948 127.055C51.222 127.575 51.2764 128.105 51.4534 128.599C51.7598 129.406 52.0903 130.212 52.3591 131.018L70.0049 185.106Z" fill="black"/>
<path d="M90.3388 159.727C92.5531 159.092 93.7532 156.502 93.0192 153.943C92.2853 151.383 89.8953 149.823 87.681 150.458C85.4667 151.093 84.2666 153.682 85.0006 156.242C85.7345 158.801 88.1245 160.362 90.3388 159.727Z" fill="#F1C40F"/>
<path d="M122.206 184.996H79.1448C79.0379 184.996 78.9354 184.953 78.8598 184.878C78.7842 184.802 78.7417 184.699 78.7417 184.593C78.7417 184.486 78.7842 184.383 78.8598 184.308C78.9354 184.232 79.0379 184.189 79.1448 184.189H122.206C122.313 184.189 122.415 184.232 122.491 184.308C122.566 184.383 122.609 184.486 122.609 184.593C122.609 184.699 122.566 184.802 122.491 184.878C122.415 184.953 122.313 184.996 122.206 184.996Z" fill="#CADDFF"/>
<path d="M74.4418 184.996H69.4351C69.3282 184.996 69.2256 184.953 69.1501 184.878C69.0745 184.802 69.032 184.699 69.032 184.593C69.032 184.486 69.0745 184.383 69.1501 184.308C69.2256 184.232 69.3282 184.189 69.4351 184.189H74.4418C74.5487 184.189 74.6513 184.232 74.7269 184.308C74.8025 184.383 74.8449 184.486 74.8449 184.593C74.8449 184.699 74.8025 184.802 74.7269 184.878C74.6513 184.953 74.5487 184.996 74.4418 184.996Z" fill="#CADDFF"/>
<path d="M110.266 208C100.129 208 91.7222 207.463 85.0761 206.388C74.9902 204.743 69.0106 201.846 67.3041 197.788C65.052 192.413 71.0074 187.135 71.26 186.912C71.3406 186.841 71.4461 186.804 71.5535 186.811C71.6608 186.817 71.7612 186.866 71.8324 186.947C71.9037 187.027 71.9401 187.133 71.9335 187.24C71.927 187.348 71.878 187.448 71.7975 187.519C71.7384 187.57 66.0222 192.639 68.0539 197.479C70.0641 202.271 79.5561 207.221 110.147 207.221C119.285 207.221 130.322 206.777 143.603 205.756C152.94 205.039 170.01 203.378 178.779 201.725C178.884 201.705 178.993 201.728 179.081 201.789C179.169 201.849 179.23 201.942 179.25 202.048C179.269 202.153 179.246 202.261 179.186 202.35C179.125 202.438 179.032 202.498 178.927 202.518C170.128 204.165 153.017 205.832 143.665 206.549C131.042 207.511 119.876 208 110.266 208Z" fill="black"/>
<path d="M246.496 100.645L246.504 100.646L246.513 100.646L246.513 100.646L246.515 100.646L246.522 100.647L246.552 100.649C246.578 100.651 246.618 100.654 246.671 100.658C246.777 100.666 246.933 100.68 247.135 100.699C247.539 100.739 248.125 100.805 248.846 100.908C250.29 101.115 252.275 101.472 254.44 102.074C258.789 103.284 263.786 105.46 266.641 109.311L266.641 109.311C268.518 111.837 269.401 115.74 269.539 121.035C269.676 126.318 269.071 132.916 268.036 140.773L268.036 140.773C266.883 149.533 264.91 154.543 262.854 159.765C262.488 160.693 262.12 161.627 261.754 162.591L262.128 162.733L261.754 162.591C258.724 170.559 254.899 175.595 250.647 178.752C246.396 181.91 241.682 183.215 236.829 183.662C224.634 184.778 181.493 184.166 171.264 183.999C170.76 183.99 170.268 183.843 169.842 183.575C169.415 183.306 169.07 182.926 168.844 182.476L168.843 182.475L168.185 181.171L168.185 181.171C168.038 180.881 167.904 180.403 167.794 179.784C167.687 179.173 167.608 178.455 167.561 177.704C167.465 176.197 167.494 174.589 167.641 173.485L167.642 173.478C167.718 172.836 167.944 172.222 168.303 171.684C168.663 171.147 169.144 170.702 169.708 170.386L169.709 170.386C169.92 170.267 170.152 170.192 170.392 170.166L170.394 170.166L190.84 167.823L191.007 167.803L191.11 167.671L190.795 167.425C191.11 167.671 191.11 167.671 191.111 167.671L191.111 167.67L191.114 167.666L191.125 167.651L191.169 167.596C191.206 167.546 191.262 167.473 191.334 167.378C191.478 167.187 191.688 166.906 191.951 166.545C192.478 165.823 193.22 164.778 194.082 163.486C195.804 160.903 198.009 157.327 199.933 153.364C201.856 149.405 203.507 145.039 204.108 140.877C204.708 136.717 204.263 132.712 201.929 129.535L201.929 129.535C200.977 128.239 199.218 128.032 197.148 128.264C195.08 128.495 192.51 129.19 189.683 129.954L189.554 129.989C183.76 131.555 176.834 133.405 170.395 132.479C167.725 132.095 164.967 130.633 162.262 128.524C159.562 126.418 156.943 123.69 154.554 120.817C149.776 115.071 145.948 108.785 144.25 105.849L144.25 105.849C143.611 104.746 143.395 103.448 143.643 102.198C143.848 101.176 144.189 99.9505 144.755 98.8326C145.321 97.7134 146.097 96.7294 147.158 96.1474L147.158 96.1474L147.16 96.1461C148.121 95.6107 149.44 94.9342 150.915 94.8061C152.355 94.681 153.977 95.0764 155.583 96.747L155.589 96.7562C155.606 96.7815 155.631 96.8187 155.664 96.8669C155.731 96.9634 155.829 97.104 155.957 97.2826C156.214 97.6398 156.591 98.1491 157.076 98.7606C158.044 99.9829 159.444 101.617 161.17 103.262C164.606 106.538 169.401 109.923 174.695 110.085C177.354 110.167 180.053 109.325 183.084 108.095C184.291 107.605 185.54 107.058 186.865 106.479C188.908 105.585 191.128 104.614 193.638 103.656C201.844 100.524 212.899 97.6471 229.416 98.8396L246.496 100.645Z" fill="#F1C40F" stroke="black" stroke-width="0.8"/>
<path d="M190.537 167.427C190.43 167.432 190.325 167.394 190.247 167.322C190.168 167.249 190.121 167.149 190.116 167.042C190.111 166.935 190.15 166.831 190.222 166.752C190.294 166.673 190.395 166.626 190.502 166.621C210.435 164.882 244.329 157.347 247.365 126.42C247.371 126.367 247.386 126.315 247.411 126.268C247.436 126.221 247.47 126.18 247.511 126.146C247.552 126.112 247.599 126.087 247.65 126.071C247.701 126.056 247.755 126.05 247.808 126.056C247.86 126.061 247.912 126.076 247.959 126.101C248.006 126.126 248.047 126.16 248.081 126.201C248.115 126.242 248.14 126.29 248.156 126.34C248.171 126.391 248.177 126.445 248.172 126.498C246.715 141.34 238.102 152.493 222.574 159.642C213.705 163.73 202.937 166.361 190.577 167.436L190.537 167.427Z" fill="#EEF1EB"/>
<path d="M149.921 107.345C146.893 107.345 144.934 104.12 144.85 103.977C144.795 103.885 144.779 103.775 144.805 103.672C144.832 103.568 144.898 103.479 144.99 103.424C145.082 103.369 145.192 103.353 145.296 103.379C145.4 103.405 145.489 103.471 145.544 103.563C145.56 103.593 147.352 106.538 149.924 106.538H149.978C151.975 106.506 153.961 104.738 155.89 101.284C155.943 101.194 156.028 101.128 156.128 101.099C156.228 101.07 156.335 101.081 156.428 101.129C156.519 101.18 156.586 101.265 156.615 101.366C156.644 101.466 156.633 101.574 156.584 101.666C154.512 105.394 152.284 107.31 149.983 107.334L149.921 107.345Z" fill="black"/>
<path d="M177.707 178.9C177.66 178.9 177.614 178.892 177.57 178.876C177.469 178.84 177.387 178.765 177.342 178.668C177.297 178.572 177.292 178.461 177.328 178.36C177.779 177.108 177.739 175.987 177.207 175.031C176.008 172.881 172.714 172.152 172.681 172.147C172.629 172.136 172.58 172.115 172.537 172.085C172.493 172.055 172.455 172.017 172.426 171.972C172.397 171.928 172.378 171.878 172.368 171.826C172.358 171.774 172.359 171.72 172.37 171.669C172.381 171.617 172.402 171.567 172.432 171.524C172.462 171.48 172.5 171.443 172.544 171.414C172.589 171.385 172.638 171.365 172.69 171.355C172.743 171.345 172.796 171.346 172.848 171.357C172.996 171.389 176.53 172.163 177.911 174.636C178.562 175.807 178.621 177.151 178.086 178.634C178.058 178.712 178.006 178.78 177.938 178.827C177.871 178.875 177.79 178.9 177.707 178.9V178.9Z" fill="black"/>
<path d="M172.141 175.711C171.619 175.014 170.849 174.544 169.991 174.397C169.375 174.29 168.766 174.138 168.172 173.942L159.975 171.36C159.237 171.147 158.464 171.081 157.7 171.167C156.937 171.253 156.197 171.488 155.525 171.86C151.41 174.125 142.972 179.226 144.31 182.287C145.75 185.587 153.243 182.496 155.866 181.282C156.473 181.004 157.165 180.976 157.793 181.204C159.405 181.774 162.574 182.84 164.401 183.101C165.912 183.316 167.272 182.593 168.376 181.717C168.895 181.318 169.503 181.052 170.147 180.94C170.655 180.848 171.136 180.643 171.554 180.341C171.972 180.038 172.318 179.646 172.566 179.194V179.172C172.832 178.669 172.948 178.1 172.901 177.532C172.853 176.965 172.643 176.423 172.297 175.971L172.141 175.711Z" fill="white"/>
<path d="M147.277 184.159C146.67 184.174 146.065 184.079 145.493 183.877C145.15 183.758 144.835 183.57 144.569 183.324C144.303 183.078 144.09 182.78 143.945 182.447C142.601 179.338 149.389 174.78 155.334 171.507C156.787 170.708 158.496 170.515 160.091 170.969L168.298 173.557C168.874 173.747 169.464 173.894 170.061 173.998C171.019 174.162 171.878 174.687 172.461 175.465V175.465L172.663 175.734C173.054 176.248 173.29 176.864 173.343 177.508C173.395 178.152 173.262 178.797 172.958 179.368V179.392C172.682 179.898 172.297 180.336 171.829 180.674C171.362 181.011 170.825 181.24 170.257 181.343C169.675 181.441 169.126 181.681 168.658 182.042C167.164 183.224 165.764 183.705 164.377 183.509C162.534 183.24 159.397 182.195 157.691 181.593C157.166 181.401 156.587 181.424 156.078 181.655C154.227 182.488 150.222 184.159 147.277 184.159ZM158.357 171.528C157.436 171.528 156.53 171.761 155.724 172.205C147.965 176.479 143.84 180.182 144.684 182.117C144.787 182.351 144.937 182.56 145.126 182.733C145.315 182.905 145.538 183.036 145.78 183.117C148.387 184.111 154.044 181.676 155.724 180.907C156.427 180.587 157.227 180.554 157.954 180.816C159.631 181.41 162.711 182.429 164.485 182.697C165.64 182.864 166.839 182.429 168.15 181.399C168.721 180.96 169.389 180.666 170.099 180.542C170.55 180.462 170.977 180.282 171.349 180.015C171.721 179.748 172.029 179.401 172.249 178.999V178.975C172.479 178.541 172.58 178.05 172.54 177.561C172.5 177.071 172.32 176.603 172.023 176.212L171.821 175.944C171.365 175.332 170.692 174.917 169.94 174.785C169.303 174.675 168.674 174.517 168.059 174.315L159.862 171.732C159.372 171.598 158.866 171.532 158.357 171.536V171.528Z" fill="black"/>
<path d="M124.928 76.8096C125.048 76.4537 125.294 76.1542 125.62 75.9679C125.946 75.7817 126.329 75.7216 126.697 75.7992C128.814 76.2506 139.72 78.5699 141.746 79.0241C143.773 79.4783 143.861 81.6578 145.02 83.6599C146.027 85.4014 149.494 91.7841 153.273 96.2291C153.827 96.886 154.165 97.6989 154.239 98.5556C154.312 99.4123 154.118 100.271 153.684 101.013C153.176 101.886 152.531 102.743 151.762 103.249C149.728 104.592 148.215 106.205 143.969 96.0302C142.521 95.2546 141.23 94.2156 140.163 92.9666C140.163 92.9666 133.531 100.787 131.832 84.9042C131.748 84.2184 131.868 83.523 132.175 82.9043C132.483 82.2856 132.965 81.7709 133.563 81.424C133.662 81.3675 133.765 81.3111 133.872 81.2574L125.936 78.7822C125.739 78.721 125.556 78.621 125.398 78.488C125.24 78.3551 125.111 78.192 125.017 78.0082C124.923 77.8244 124.867 77.6237 124.851 77.4178C124.836 77.212 124.862 77.0052 124.928 76.8096V76.8096Z" fill="white"/>
<path d="M149.645 104.638C149.446 104.638 149.249 104.608 149.059 104.549C147.5 104.082 145.88 101.617 143.652 96.315C142.345 95.5906 141.165 94.6584 140.158 93.555C139.457 94.2511 137.685 95.7345 135.815 95.1675C133.56 94.4741 132.088 91.0369 131.437 84.9552C131.36 84.2842 131.454 83.6046 131.712 82.9802C131.969 82.3559 132.382 81.8073 132.91 81.3863L125.815 79.1906C125.566 79.1138 125.336 78.9875 125.137 78.8194C124.939 78.6513 124.776 78.4449 124.659 78.2124C124.493 77.8857 124.421 77.5185 124.454 77.153C124.487 76.7876 124.622 76.4388 124.844 76.1468C125.066 75.8548 125.366 75.6314 125.709 75.5024C126.053 75.3734 126.426 75.3439 126.785 75.4175C126.914 75.4443 139.634 78.1479 141.835 78.6424C143.447 78.9971 143.985 80.314 144.555 81.7061C144.782 82.3117 145.052 82.9008 145.361 83.4691C145.474 83.6625 145.613 83.9098 145.78 84.2054C147.124 86.5516 150.233 92.0501 153.574 95.9791C154.181 96.6998 154.551 97.5909 154.632 98.53C154.714 99.4692 154.503 100.411 154.028 101.225C153.388 102.324 152.7 103.122 151.98 103.595L151.711 103.77C151.082 104.189 150.416 104.638 149.645 104.638ZM140.161 92.5446C140.218 92.545 140.275 92.5576 140.328 92.5817C140.38 92.6058 140.427 92.6408 140.464 92.6843C141.498 93.8865 142.745 94.8885 144.141 95.6405C144.23 95.6839 144.299 95.7585 144.337 95.8501C146.436 100.862 148.008 103.375 149.29 103.759C149.921 103.947 150.459 103.617 151.281 103.063L151.55 102.886C152.165 102.48 152.767 101.773 153.345 100.782C153.736 100.112 153.91 99.3374 153.843 98.5648C153.777 97.7922 153.473 97.059 152.974 96.4655C149.585 92.4774 146.439 86.9332 145.095 84.5655C144.928 84.2726 144.791 84.028 144.681 83.8345C144.348 83.2343 144.059 82.611 143.816 81.9695C143.294 80.6768 142.88 79.6583 141.666 79.3922C139.459 78.9058 126.742 76.2022 126.616 76.1673C126.345 76.1112 126.063 76.1559 125.823 76.293C125.583 76.4301 125.402 76.6501 125.313 76.9117C125.262 77.0566 125.242 77.2102 125.252 77.3632C125.262 77.5163 125.303 77.6658 125.372 77.8028C125.44 77.9398 125.536 78.0617 125.653 78.1611C125.77 78.2606 125.905 78.3356 126.052 78.3817L133.996 80.8434C134.073 80.8664 134.141 80.912 134.191 80.9742C134.242 81.0364 134.273 81.1124 134.28 81.1924C134.287 81.2723 134.27 81.3525 134.23 81.4226C134.191 81.4926 134.132 81.5492 134.06 81.5852L133.765 81.7437C133.236 82.0531 132.81 82.5103 132.539 83.0591C132.268 83.6079 132.163 84.2241 132.238 84.8316C132.999 91.9748 134.729 93.9555 136.049 94.3613C137.909 94.9337 139.835 92.6951 139.854 92.6736C139.892 92.6288 139.939 92.5927 139.992 92.5677C140.045 92.5427 140.102 92.5293 140.161 92.5284V92.5446Z" fill="black"/>
<path d="M141.679 89.7795C141.609 89.7802 141.54 89.7616 141.48 89.7258C140.959 89.4329 139.986 88.7691 139.599 88.495C138.091 87.4851 136.771 86.219 135.699 84.754C135.33 84.2411 135.136 83.6229 135.146 82.9911C135.128 82.6346 135.235 82.2831 135.449 81.9974C135.663 81.7117 135.97 81.51 136.318 81.427C137.629 80.9835 139.709 82.1902 139.94 82.33C139.99 82.3546 140.034 82.3893 140.07 82.4318C140.106 82.4743 140.132 82.5238 140.148 82.5771C140.164 82.6304 140.168 82.6863 140.162 82.7415C140.155 82.7966 140.136 82.8498 140.108 82.8975C140.079 82.9453 140.041 82.9866 139.996 83.019C139.951 83.0513 139.9 83.074 139.845 83.0856C139.791 83.0971 139.735 83.0973 139.68 83.0862C139.626 83.075 139.574 83.0527 139.529 83.0206C138.992 82.6981 137.379 81.9161 136.573 82.1902C136.248 82.3004 135.966 82.3944 135.949 83.0126C135.944 83.4719 136.087 83.9208 136.358 84.2918C137.372 85.6768 138.621 86.8737 140.048 87.8285C140.44 88.0972 141.391 88.7476 141.878 89.0244C141.956 89.0678 142.017 89.1359 142.052 89.218C142.087 89.3 142.094 89.3914 142.072 89.4778C142.049 89.5642 141.999 89.6406 141.928 89.6952C141.858 89.7499 141.771 89.7795 141.682 89.7795H141.679Z" fill="black"/>
<path d="M140.249 93.4532C140.195 93.4533 140.142 93.4426 140.092 93.4218C140.042 93.4011 139.997 93.3706 139.959 93.3323C138.169 91.4941 138.277 89.5296 138.282 89.4463C138.285 89.3933 138.299 89.3416 138.323 89.2939C138.346 89.2463 138.378 89.2037 138.418 89.1687C138.458 89.1336 138.504 89.1068 138.555 89.0896C138.605 89.0724 138.658 89.0653 138.711 89.0687C138.764 89.072 138.815 89.0858 138.863 89.1091C138.911 89.1325 138.953 89.165 138.988 89.2048C139.023 89.2446 139.05 89.2909 139.067 89.3411C139.085 89.3913 139.092 89.4444 139.088 89.4973C139.088 89.5672 139.013 91.2012 140.54 92.7706C140.595 92.8269 140.633 92.8986 140.649 92.9765C140.664 93.0545 140.655 93.1351 140.624 93.2083C140.594 93.2814 140.542 93.3438 140.475 93.3874C140.409 93.431 140.331 93.4539 140.252 93.4532H140.249Z" fill="black"/>
<path d="M244.347 99.5023L246.497 82.3457L231.553 86.96L230.042 97.0084C229.682 99.6958 231.687 101.604 231.687 101.604C234.132 104.17 238.137 104.482 241.329 102.983L242.071 102.633C242.684 102.346 243.215 101.909 243.613 101.361C244.011 100.814 244.264 100.174 244.347 99.5023V99.5023Z" fill="white"/>
<path d="M237.312 104.313C236.214 104.332 235.123 104.128 234.106 103.712C233.09 103.296 232.169 102.678 231.399 101.894C231.327 101.827 229.249 99.8408 229.65 96.9679L231.16 86.9142C231.17 86.8404 231.201 86.7708 231.248 86.7134C231.296 86.6559 231.358 86.6128 231.429 86.589L246.363 81.9747C246.427 81.954 246.495 81.95 246.561 81.9632C246.627 81.9764 246.688 82.0062 246.739 82.0499C246.791 82.0935 246.831 82.1492 246.856 82.212C246.881 82.2749 246.89 82.3429 246.882 82.4101L244.732 99.5667C244.642 100.306 244.366 101.01 243.928 101.613C243.491 102.216 242.907 102.697 242.232 103.012L241.496 103.345C240.189 103.97 238.761 104.3 237.312 104.313V104.313ZM231.918 87.2851L230.448 97.0835C230.117 99.5452 231.95 101.305 231.969 101.324C234.151 103.614 237.927 104.146 241.166 102.63L241.907 102.284C242.458 102.026 242.935 101.632 243.291 101.139C243.648 100.647 243.874 100.071 243.947 99.4673L246.014 82.9287L231.918 87.2851Z" fill="black"/>
<path d="M237.312 104.313C236.214 104.332 235.123 104.128 234.106 103.712C233.09 103.296 232.169 102.678 231.399 101.894C231.327 101.827 229.249 99.8408 229.65 96.9679L231.16 86.9142C231.17 86.8404 231.201 86.7708 231.248 86.7134C231.296 86.6559 231.358 86.6128 231.429 86.589L246.363 81.9747C246.427 81.954 246.495 81.95 246.561 81.9632C246.627 81.9764 246.688 82.0062 246.739 82.0499C246.791 82.0935 246.831 82.1492 246.856 82.212C246.881 82.2749 246.89 82.3429 246.882 82.4101L244.732 99.5667C244.642 100.306 244.366 101.01 243.928 101.613C243.491 102.216 242.907 102.697 242.232 103.012L241.496 103.345C240.189 103.97 238.761 104.3 237.312 104.313V104.313ZM231.918 87.2851L230.448 97.0835C230.117 99.5452 231.95 101.305 231.969 101.324C234.151 103.614 237.927 104.146 241.166 102.63L241.907 102.284C242.458 102.026 242.935 101.632 243.291 101.139C243.648 100.647 243.874 100.071 243.947 99.4673L246.014 82.9287L231.918 87.2851Z" fill="black"/>
<path d="M230.814 57.253C234.514 57.6803 229.257 60.6499 243.487 59.059C249.155 58.4247 245.339 64.2538 246.809 64.0926C252.241 63.5013 252.055 63.5148 254.466 64.6301C256.059 65.3637 256.616 68.6397 255.904 70.8918C254.963 73.848 252.318 74.2108 248.989 80.2549C246.651 84.4983 246.57 87.3094 244.638 87.6534C242.705 87.9974 241.768 85.3073 239.618 85.5249C236.836 85.8071 236.565 90.5021 233.651 91.9587C231.816 92.8778 227.927 92.7649 222.364 88.7499C221.926 88.4322 221.613 87.9717 221.478 87.4478C221.343 86.9239 221.395 86.3693 221.625 85.8797C222.233 84.5843 223.009 82.9531 223.88 81.4561C228.037 74.321 231.047 73.0713 230.405 70.9214C229.421 67.6292 223.402 68.3656 222.88 65.7131C222.343 62.9477 225.748 56.6645 230.814 57.253Z" fill="black"/>
<path d="M241.332 72.6283L239.945 74.4046C239.292 75.2409 238.697 76.1218 238.166 77.041C237.169 78.7637 235.431 81.7172 234.331 83.2947C232.719 85.614 225.208 81.1233 225.208 81.1233L224.993 79.4786L224.122 78.9411C223.952 78.8368 223.811 78.6906 223.713 78.5164C223.603 78.3113 223.56 78.0765 223.592 77.8457C223.623 77.6149 223.727 77.4 223.888 77.2318C225.64 75.4097 229.357 71.2765 231.123 67.2883C233.136 67.2458 235.128 67.7131 236.913 68.6467C238.698 69.5803 240.218 70.9499 241.332 72.6283V72.6283Z" fill="white"/>
<path d="M241.735 72.6418C241.445 73.0637 241.144 73.4937 240.832 73.9157L239.927 75.1143C239.377 75.865 238.873 76.6485 238.419 77.4604C237.47 79.0998 236.506 80.7283 235.484 82.3354C235.216 82.7359 234.968 83.1417 234.694 83.5313C234.516 83.7845 234.276 83.9887 233.998 84.1253C233.867 84.1915 233.73 84.2454 233.59 84.2865C233.453 84.3107 233.321 84.351 233.181 84.3618C232.667 84.4101 232.148 84.383 231.641 84.2812C231.158 84.189 230.681 84.0651 230.214 83.9103C229.296 83.605 228.398 83.2405 227.527 82.8192C226.661 82.4053 225.82 81.9646 224.987 81.4755C224.934 81.4441 224.889 81.4012 224.855 81.3501C224.821 81.2989 224.799 81.2407 224.791 81.1798L224.584 79.5351L224.769 79.8227C224.501 79.6507 224.232 79.4572 223.985 79.2664C223.82 79.1572 223.677 79.0198 223.56 78.8606C223.442 78.6921 223.361 78.5007 223.321 78.2989C223.278 78.1019 223.278 77.898 223.32 77.7009C223.363 77.5039 223.448 77.3183 223.568 77.1567C223.597 77.1158 223.63 77.0772 223.665 77.0412L223.748 76.9525L223.912 76.7778L224.237 76.4284C225.106 75.495 225.934 74.5284 226.721 73.5287C227.505 72.5316 228.252 71.4997 228.935 70.4354C229.623 69.381 230.229 68.2749 230.746 67.1272V67.1272C230.775 67.0618 230.82 67.0056 230.879 66.9648C230.937 66.924 231.006 66.9002 231.077 66.8961C231.603 66.8704 232.131 66.8884 232.654 66.9498C232.91 66.9794 233.168 67.017 233.423 67.0573C233.678 67.0976 233.931 67.1514 234.184 67.2132C235.193 67.4457 236.169 67.807 237.086 68.2882C238.009 68.7636 238.864 69.3601 239.628 70.0619C240.009 70.41 240.368 70.7816 240.703 71.1745C240.901 71.3925 241.081 71.6261 241.241 71.8732C241.429 72.1258 241.587 72.3892 241.735 72.6418ZM240.929 72.6149C240.776 72.4671 240.633 72.3274 240.504 72.185C240.375 72.0425 240.289 71.8974 240.101 71.7093C239.784 71.3436 239.444 70.9989 239.083 70.6773C238.371 70.0218 237.576 69.4633 236.718 69.0165C235.862 68.5625 234.952 68.2202 234.009 67.9979C233.772 67.9388 233.533 67.9012 233.297 67.8501C233.06 67.799 232.818 67.7749 232.579 67.7453C232.106 67.6921 231.63 67.6733 231.155 67.6889L231.491 67.4497C230.392 69.8334 228.857 71.9377 227.226 73.9264C226.4 74.9154 225.548 75.8793 224.67 76.8181L224.337 77.1702L224.17 77.3422L224.09 77.4282C224.068 77.4486 224.048 77.4711 224.03 77.4954C223.957 77.5893 223.905 77.699 223.881 77.816C223.856 77.933 223.858 78.0541 223.888 78.1699C223.922 78.2857 223.982 78.3919 224.065 78.4797C224.148 78.5675 224.25 78.6345 224.364 78.6751C224.649 78.8256 224.933 78.9734 225.205 79.1401C225.253 79.1692 225.294 79.2083 225.325 79.2546C225.357 79.301 225.378 79.3536 225.388 79.4088V79.4088L225.611 81.0508L225.417 80.7552C227.019 81.7005 228.713 82.4812 230.472 83.0852C230.904 83.2243 231.345 83.3356 231.792 83.4185C232.213 83.5028 232.644 83.5254 233.071 83.4857C233.247 83.4773 233.42 83.4313 233.577 83.3506C233.734 83.27 233.872 83.1566 233.982 83.018C234.251 82.6391 234.503 82.2467 234.756 81.8517C235.766 80.2661 236.726 78.6268 237.677 77.0143C238.155 76.1764 238.683 75.3687 239.26 74.5956C239.397 74.4102 239.561 74.2005 239.69 74.0366C239.819 73.8727 239.959 73.7114 240.088 73.5502C240.357 73.2519 240.639 72.9374 240.929 72.6149V72.6149Z" fill="black"/>
<path d="M238.672 79.2091C238.672 79.2091 241.999 74.9334 243.611 76.8683C245.224 78.8033 241.442 83.4203 238.672 79.2091Z" fill="white"/>
<g clip-path="url(#clip1_3408_44517)">
<path d="M18.4 33.6341L24.8668 27.9768L23.8585 19.4487L31.2545 23.8365L39.0674 20.2494L37.1723 28.6194L43.0056 34.9246L34.443 35.7095L30.2356 43.1998L26.8359 35.3144L18.4 33.6341Z" fill="white"/>
<path d="M33.081 42.4412C32.978 42.4382 32.8782 42.4052 32.7937 42.3462C32.7093 42.2872 32.644 42.2049 32.6059 42.1094L29.3223 34.4873L21.1663 32.8649C21.062 32.852 20.964 32.8083 20.8847 32.7395C20.8055 32.6707 20.7486 32.5799 20.7214 32.4786C20.6942 32.3773 20.6979 32.2703 20.732 32.1711C20.7661 32.072 20.8291 31.9853 20.9129 31.922L27.1368 26.4491L26.1655 18.2107C26.1499 18.1089 26.1646 18.0047 26.2078 17.911C26.2509 17.8174 26.3206 17.7385 26.4083 17.684C26.4945 17.6273 26.5955 17.5972 26.6987 17.5972C26.8019 17.5972 26.9029 17.6273 26.9891 17.684L34.1368 21.898L41.6859 18.4267C41.7785 18.3816 41.8824 18.3645 41.9846 18.3776C42.0869 18.3908 42.183 18.4334 42.2613 18.5005C42.3394 18.5616 42.3986 18.6434 42.4322 18.7366C42.4658 18.8297 42.4725 18.9305 42.4513 19.0272L40.6142 27.1181L46.2575 33.2126C46.3363 33.284 46.3916 33.3775 46.4161 33.4808C46.4407 33.5842 46.4333 33.6925 46.3951 33.7916C46.3568 33.8907 46.2895 33.976 46.2018 34.0362C46.1141 34.0965 46.0103 34.1288 45.9038 34.1291L37.6527 34.9245L33.5878 42.162C33.5398 42.2527 33.4663 42.3275 33.3762 42.3771C33.2862 42.4267 33.1836 42.449 33.081 42.4412ZM22.4438 32.0116L29.7922 33.4759C29.8795 33.4912 29.9615 33.5282 30.0307 33.5834C30.0999 33.6387 30.154 33.7104 30.1881 33.792L33.1444 40.6661L36.8397 34.1396C36.8821 34.0618 36.9436 33.9959 37.0183 33.948C37.0931 33.9001 37.1787 33.8718 37.2673 33.8657L44.7266 33.181L39.6429 27.687C39.5833 27.6217 39.5403 27.5432 39.5173 27.458C39.4943 27.3728 39.4921 27.2833 39.5109 27.1971L41.1633 19.9016L34.3586 23.0305C34.2751 23.0694 34.1833 23.0873 34.0913 23.0827C33.9993 23.0782 33.9098 23.0512 33.8307 23.0042L27.3903 19.18L28.2718 26.6071C28.2836 26.6953 28.2729 26.785 28.2406 26.8679C28.2083 26.9508 28.1555 27.0242 28.0871 27.0812L22.4438 32.0116Z" fill="#52A5D8"/>
</g>
<g clip-path="url(#clip2_3408_44517)">
<path d="M279.771 41.0043L281.756 46.5588L287.462 48.0736L282.79 51.679L283.112 57.5681L278.239 54.242L272.737 56.3661L274.396 50.708L270.669 46.1303L276.568 45.9578L279.771 41.0043Z" fill="white"/>
<path d="M270.436 48.1364C270.464 48.0715 270.51 48.0162 270.569 47.9773C270.628 47.9384 270.698 47.9176 270.768 47.9175L276.469 47.7523L279.565 42.9626C279.599 42.8994 279.652 42.8479 279.716 42.8148C279.78 42.7817 279.852 42.7684 279.924 42.7766C279.995 42.7849 280.063 42.8144 280.118 42.8612C280.172 42.908 280.212 42.9701 280.231 43.0396L282.159 48.3926L287.671 49.8576C287.74 49.8735 287.803 49.9092 287.852 49.9604C287.901 50.0116 287.933 50.076 287.946 50.1457C287.961 50.215 287.954 50.287 287.928 50.3528C287.902 50.4186 287.858 50.4754 287.8 50.516L283.302 54.0072L283.616 59.6987C283.622 59.7692 283.606 59.8397 283.572 59.9016C283.538 59.9634 283.486 60.014 283.424 60.0469C283.365 60.0812 283.298 60.0983 283.23 60.0961C283.162 60.094 283.096 60.0727 283.039 60.0348L278.331 56.8164L273.011 58.8726C272.945 58.9047 272.871 58.9163 272.799 58.9058C272.727 58.8953 272.659 58.8632 272.606 58.8138C272.552 58.7643 272.514 58.6998 272.498 58.6287C272.482 58.5575 272.487 58.4831 272.514 58.4152L274.088 52.9531L270.487 48.5302C270.441 48.4766 270.412 48.4108 270.403 48.3409C270.394 48.2709 270.405 48.1998 270.436 48.1364ZM279.788 43.993L276.997 48.3078C276.965 48.3596 276.921 48.4025 276.868 48.4327C276.816 48.4628 276.756 48.4792 276.695 48.4803L271.555 48.6259L274.794 52.6333C274.834 52.68 274.86 52.7359 274.872 52.7957C274.884 52.8554 274.88 52.9172 274.862 52.9752L273.417 57.9045L278.212 56.0532C278.269 56.0317 278.33 56.0241 278.39 56.031C278.45 56.0379 278.508 56.0592 278.558 56.093L282.805 58.9923L282.522 53.862C282.518 53.799 282.53 53.7359 282.556 53.6784C282.582 53.6209 282.622 53.5707 282.672 53.5321L286.742 50.3933L281.772 49.0763C281.712 49.0615 281.658 49.0319 281.613 48.9904C281.568 48.9488 281.535 48.8966 281.515 48.8385L279.788 43.993Z" fill="#52A5D8"/>
</g>
<g clip-path="url(#clip3_3408_44517)">
<path d="M156.381 140.02L158.365 145.574L164.071 147.089L159.4 150.695L159.721 156.584L154.849 153.258L149.347 155.382L151.006 149.724L147.279 145.146L153.178 144.973L156.381 140.02Z" fill="white"/>
<path d="M147.046 147.152C147.074 147.087 147.12 147.032 147.179 146.993C147.238 146.954 147.307 146.933 147.378 146.933L153.079 146.768L156.174 141.978C156.209 141.915 156.261 141.864 156.325 141.83C156.389 141.797 156.462 141.784 156.533 141.792C156.605 141.801 156.673 141.83 156.727 141.877C156.782 141.924 156.822 141.986 156.841 142.055L158.769 147.408L164.28 148.873C164.349 148.889 164.412 148.925 164.461 148.976C164.51 149.027 164.543 149.092 164.556 149.161C164.57 149.231 164.564 149.303 164.538 149.368C164.512 149.434 164.467 149.491 164.409 149.532L159.912 153.023L160.226 158.714C160.231 158.785 160.216 158.855 160.182 158.917C160.148 158.979 160.096 159.03 160.033 159.062C159.975 159.097 159.907 159.114 159.839 159.112C159.771 159.11 159.705 159.088 159.649 159.05L154.94 155.832L149.62 157.888C149.555 157.92 149.481 157.932 149.409 157.921C149.336 157.911 149.269 157.879 149.215 157.829C149.162 157.78 149.124 157.715 149.108 157.644C149.091 157.573 149.097 157.499 149.124 157.431L150.697 151.969L147.096 147.546C147.051 147.492 147.021 147.426 147.012 147.356C147.003 147.287 147.015 147.215 147.046 147.152ZM156.397 143.009L153.607 147.323C153.575 147.375 153.531 147.418 153.478 147.448C153.425 147.478 153.366 147.495 153.305 147.496L148.165 147.642L151.404 151.649C151.443 151.696 151.47 151.752 151.482 151.811C151.493 151.871 151.49 151.933 151.471 151.991L150.027 156.92L154.822 155.069C154.878 155.047 154.939 155.04 155 155.047C155.06 155.054 155.118 155.075 155.168 155.109L159.415 158.008L159.132 152.878C159.128 152.815 159.14 152.752 159.166 152.694C159.192 152.637 159.232 152.586 159.282 152.548L163.352 149.409L158.381 148.092C158.322 148.077 158.268 148.048 158.223 148.006C158.178 147.964 158.144 147.912 158.125 147.854L156.397 143.009Z" fill="#52A5D8"/>
</g>
</g>
<defs>
<filter id="filter0_f_3408_44517" x="-3.19995" y="-13.5996" width="221.6" height="207.2" filterUnits="userSpaceOnUse" color-interpolation-filters="sRGB">
<feFlood flood-opacity="0" result="BackgroundImageFix"/>
<feBlend mode="normal" in="SourceGraphic" in2="BackgroundImageFix" result="shape"/>
<feGaussianBlur stdDeviation="16" result="effect1_foregroundBlur_3408_44517"/>
</filter>
<filter id="filter1_f_3408_44517" x="118.4" y="9.59961" width="222.4" height="222.4" filterUnits="userSpaceOnUse" color-interpolation-filters="sRGB">
<feFlood flood-opacity="0" result="BackgroundImageFix"/>
<feBlend mode="normal" in="SourceGraphic" in2="BackgroundImageFix" result="shape"/>
<feGaussianBlur stdDeviation="24" result="effect1_foregroundBlur_3408_44517"/>
</filter>
<clipPath id="clip0_3408_44517">
<rect width="320" height="208" fill="white"/>
</clipPath>
<clipPath id="clip1_3408_44517">
<rect width="28" height="25.6" fill="white" transform="translate(18.4 17.5996)"/>
</clipPath>
<clipPath id="clip2_3408_44517">
<rect width="19.2" height="17.6" fill="white" transform="translate(290.021 45.061) rotate(111.593)"/>
</clipPath>
<clipPath id="clip3_3408_44517">
<rect width="19.2" height="17.6" fill="white" transform="translate(166.631 144.077) rotate(111.593)"/>
</clipPath>
</defs>
</svg>
