<svg width="90" height="93" viewBox="0 0 90 93" fill="none" xmlns="http://www.w3.org/2000/svg">
<path d="M86.742 31.1991C84.7843 26.4867 80.8132 21.3987 77.7034 19.7903C79.9215 24.0877 81.4607 28.7028 82.2663 33.4716L82.2744 33.5472C77.1803 20.8416 68.5417 15.7187 61.4864 4.56343C61.1295 3.99938 60.7726 3.43418 60.425 2.83757C60.2262 2.49682 60.067 2.18979 59.9286 1.90719C59.636 1.3403 59.4105 0.741189 59.2567 0.122013C59.2569 0.0934415 59.2466 0.0657935 59.2277 0.0443437C59.2089 0.0228939 59.1828 0.00914343 59.1544 0.00571546C59.1266 -0.00190515 59.0973 -0.00190515 59.0695 0.00571546C59.0637 0.00571546 59.0544 0.0161823 59.0475 0.0185082C59.0405 0.0208342 59.0254 0.031301 59.0149 0.0359529L59.0323 0.00571546C47.7153 6.6347 43.8755 18.9064 43.5221 25.0447C39.0026 25.3554 34.6816 27.0215 31.1228 29.8257C30.7515 29.511 30.3634 29.2167 29.9603 28.9441C28.9336 25.3493 28.8899 21.5447 29.8335 17.9272C25.6775 19.9414 21.9846 22.7967 18.9885 26.3123H18.9675C17.1819 24.048 17.3075 16.5817 17.4098 15.0221C16.8815 15.2345 16.3773 15.5023 15.9055 15.8211C14.3292 16.9466 12.8556 18.2094 11.5019 19.5949C9.95936 21.1595 8.55051 22.8506 7.29011 24.6504V24.6574V24.6492C4.39341 28.7575 2.33885 33.3991 1.24505 38.3061L1.1846 38.6038C1.09974 39.0004 0.793995 40.9868 0.741682 41.4182C0.741682 41.452 0.734707 41.4834 0.73122 41.5171C0.336824 43.5678 0.0924355 45.6446 0 47.7309L0 47.9635C0.009878 59.2494 4.25134 70.1209 11.8861 78.4296C19.5209 86.7383 29.9935 91.8796 41.2341 92.8373C52.4748 93.795 63.6656 90.4995 72.595 83.6021C81.5243 76.7048 87.5424 66.7073 89.4599 55.5856C89.5355 55.0042 89.5971 54.4285 89.6645 53.8412C90.5925 46.1681 89.5879 38.3847 86.742 31.1991ZM34.8126 66.4816C35.023 66.5828 35.2206 66.6921 35.4368 66.7886L35.4682 66.8084C35.2497 66.7037 35.0311 66.5948 34.8126 66.4816ZM82.2779 33.5577V33.5146L82.2861 33.5623L82.2779 33.5577Z" fill="url(#paint0_linear_522_30707)"/>
<path d="M86.742 31.1993C84.7843 26.487 80.8132 21.3989 77.7034 19.7905C79.9215 24.0879 81.4607 28.703 82.2663 33.4718V33.5148L82.2744 33.5625C85.7472 43.5042 85.2449 54.4039 80.8725 63.9837C75.7086 75.0681 63.2092 86.4292 43.6442 85.8768C22.5039 85.2779 3.88628 69.5846 0.405717 49.0301C-0.227852 45.7889 0.405717 44.1456 0.724245 41.5115C0.28973 43.5576 0.0472612 45.6398 0 47.7311L0 47.9637C0.009878 59.2496 4.25134 70.1212 11.8861 78.4298C19.5209 86.7385 29.9935 91.8798 41.2341 92.8375C52.4748 93.7952 63.6656 90.4998 72.595 83.6024C81.5243 76.705 87.5424 66.7075 89.4599 55.5859C89.5355 55.0044 89.5971 54.4287 89.6645 53.8414C90.5925 46.1683 89.5879 38.3849 86.742 31.1993Z" fill="url(#paint1_radial_522_30707)"/>
<path d="M86.742 31.1993C84.7843 26.487 80.8132 21.3989 77.7034 19.7905C79.9215 24.0879 81.4607 28.703 82.2663 33.4718V33.5148L82.2744 33.5625C85.7472 43.5042 85.2449 54.4039 80.8725 63.9837C75.7086 75.0681 63.2092 86.4292 43.6442 85.8768C22.5039 85.2779 3.88628 69.5846 0.405717 49.0301C-0.227852 45.7889 0.405717 44.1456 0.724245 41.5115C0.28973 43.5576 0.0472612 45.6398 0 47.7311L0 47.9637C0.009878 59.2496 4.25134 70.1212 11.8861 78.4298C19.5209 86.7385 29.9935 91.8798 41.2341 92.8375C52.4748 93.7952 63.6656 90.4998 72.595 83.6024C81.5243 76.705 87.5424 66.7075 89.4599 55.5859C89.5355 55.0044 89.5971 54.4287 89.6645 53.8414C90.5925 46.1683 89.5879 38.3849 86.742 31.1993Z" fill="url(#paint2_radial_522_30707)"/>
<path d="M64.8471 36.4978C64.9447 36.5664 65.0354 36.635 65.1273 36.7037C63.9955 34.696 62.5866 32.8579 60.9422 31.2435C46.9386 17.2319 57.2722 0.862975 59.0148 0.0314449L59.0322 0.00585938C47.7152 6.63484 43.8754 18.9066 43.522 25.0448C44.0474 25.0087 44.5682 24.9645 45.1053 24.9645C49.1208 24.9719 53.0628 26.0429 56.5304 28.0687C59.998 30.0945 62.8675 33.0028 64.8471 36.4978Z" fill="url(#paint3_radial_522_30707)"/>
<path d="M45.1347 39.2957C45.0603 40.4169 41.1008 44.2838 39.7162 44.2838C26.9042 44.2838 24.8245 52.0373 24.8245 52.0373C25.3918 58.5663 29.9395 63.9439 35.437 66.7886C35.6881 66.9188 35.9427 67.0363 36.1973 67.1514C36.6383 67.3468 37.0793 67.5274 37.5203 67.6934C39.407 68.3614 41.3831 68.7428 43.3828 68.8249C65.839 69.8786 70.1892 41.9601 53.9837 33.8588C57.8067 33.3612 61.6782 34.3016 64.8474 36.4976C62.8678 33.0026 59.9983 30.0943 56.5307 28.0685C53.0631 26.0427 49.1212 24.9717 45.1056 24.9644C44.5709 24.9644 44.0478 25.0085 43.5223 25.0446C39.0028 25.3554 34.6818 27.0215 31.123 29.8256C31.81 30.4071 32.5854 31.184 34.2187 32.7947C37.2761 35.808 45.1173 38.9294 45.1347 39.2957Z" fill="url(#paint4_radial_522_30707)"/>
<path d="M45.1347 39.2957C45.0603 40.4169 41.1008 44.2838 39.7162 44.2838C26.9042 44.2838 24.8245 52.0373 24.8245 52.0373C25.3918 58.5663 29.9395 63.9439 35.437 66.7886C35.6881 66.9188 35.9427 67.0363 36.1973 67.1514C36.6383 67.3468 37.0793 67.5274 37.5203 67.6934C39.407 68.3614 41.3831 68.7428 43.3828 68.8249C65.839 69.8786 70.1892 41.9601 53.9837 33.8588C57.8067 33.3612 61.6782 34.3016 64.8474 36.4976C62.8678 33.0026 59.9983 30.0943 56.5307 28.0685C53.0631 26.0427 49.1212 24.9717 45.1056 24.9644C44.5709 24.9644 44.0478 25.0085 43.5223 25.0446C39.0028 25.3554 34.6818 27.0215 31.123 29.8256C31.81 30.4071 32.5854 31.184 34.2187 32.7947C37.2761 35.808 45.1173 38.9294 45.1347 39.2957Z" fill="url(#paint5_radial_522_30707)"/>
<path d="M29.0222 28.3266C29.3873 28.5592 29.6884 28.7616 29.9523 28.9441C28.9256 25.3493 28.8819 21.5448 29.8255 17.9272C25.6695 19.9414 21.9766 22.7967 18.9805 26.3123C19.2002 26.3065 25.7358 26.189 29.0222 28.3266Z" fill="url(#paint6_radial_522_30707)"/>
<path d="M0.411688 49.0299C3.88876 69.5844 22.5099 85.2776 43.6502 85.8765C63.2152 86.4301 75.7145 75.0678 80.8784 63.9835C85.2508 54.4036 85.7532 43.5039 82.2804 33.5623V33.5192C82.2804 33.4855 82.2734 33.4657 82.2804 33.4762L82.2886 33.5518C83.887 43.9919 78.579 54.1063 70.281 60.9458L70.2554 61.0039C54.0872 74.177 38.6142 68.9517 35.4823 66.8188C35.2638 66.7141 35.0452 66.6052 34.8267 66.492C25.3999 61.9843 21.5055 53.3922 22.3401 46.0236C20.1024 46.0566 17.9032 45.4397 16.0088 44.2477C14.1145 43.0556 12.6063 41.3396 11.6671 39.3074C14.1417 37.7908 16.9632 36.9334 19.8629 36.817C22.7625 36.7005 25.6437 37.3289 28.2318 38.6422C33.5675 41.0654 39.6392 41.3042 45.1486 39.3074C45.1312 38.941 37.2901 35.8184 34.2326 32.8063C32.5993 31.1956 31.8239 30.4199 31.1369 29.8372C30.7656 29.5226 30.3775 29.2283 29.9744 28.9557C29.707 28.7731 29.4059 28.5754 29.0444 28.3382C25.7579 26.2006 19.2223 26.3181 19.0061 26.3239H18.9851C17.1995 24.0596 17.3251 16.5932 17.4274 15.0337C16.8991 15.2461 16.3949 15.5139 15.9231 15.8327C14.3468 16.9581 12.8732 18.221 11.5195 19.6065C9.97143 21.1667 8.55674 22.8539 7.29027 24.6504V24.6573V24.6492C4.39357 28.7575 2.33901 33.3991 1.24521 38.3061C1.22312 38.3979 -0.377658 45.3991 0.411688 49.0299Z" fill="url(#paint7_radial_522_30707)"/>
<path d="M60.9447 31.2433C62.5896 32.8595 63.9985 34.6996 65.1298 36.7093C65.3774 36.8966 65.6087 37.0826 65.8052 37.2629C76.0202 46.683 70.668 59.9991 70.2693 60.947C78.5673 54.1075 83.8706 43.9931 82.2768 33.553C77.1804 20.8416 68.5418 15.7187 61.4865 4.56343C61.1296 3.99938 60.7727 3.43418 60.4251 2.83757C60.2263 2.49682 60.067 2.18979 59.9287 1.90719C59.6361 1.3403 59.4106 0.741188 59.2568 0.122013C59.257 0.0934415 59.2467 0.0657935 59.2278 0.0443437C59.2089 0.0228939 59.1828 0.00914343 59.1545 0.00571546C59.1267 -0.00190515 59.0974 -0.00190515 59.0696 0.00571546C59.0638 0.00571546 59.0545 0.0161823 59.0475 0.0185082C59.0405 0.0208342 59.0254 0.031301 59.015 0.0359529C57.2724 0.862831 46.9388 17.2318 60.9447 31.2433Z" fill="url(#paint8_radial_522_30707)"/>
<path d="M65.7981 37.2569C65.6016 37.0766 65.3703 36.8905 65.1227 36.7033C65.0308 36.6347 64.9402 36.566 64.8425 36.4974C61.6733 34.3014 57.8018 33.361 53.9788 33.8586C70.1843 41.9646 65.8365 69.8784 43.3779 68.8247C41.3782 68.7426 39.4021 68.3612 37.5153 67.6932C37.0744 67.528 36.6334 67.3474 36.1924 67.1512C35.9378 67.0349 35.6832 66.9186 35.4321 66.7884L35.4635 66.8081C38.5953 68.9469 54.0637 74.1721 70.2366 60.9932L70.2621 60.9351C70.6655 59.9931 76.0177 46.6735 65.7981 37.2569Z" fill="url(#paint9_radial_522_30707)"/>
<path d="M24.8243 52.0377C24.8243 52.0377 26.9041 44.2841 39.7161 44.2841C41.1007 44.2841 45.0637 40.4172 45.1346 39.2961C39.6252 41.2929 33.5535 41.0541 28.2177 38.6309C25.6296 37.3176 22.7485 36.6892 19.8488 36.8057C16.9492 36.9221 14.1276 37.7795 11.6531 39.2961C12.5923 41.3283 14.1004 43.0443 15.9948 44.2364C17.8891 45.4284 20.0884 46.0453 22.3261 46.0123C21.4914 53.3821 25.3858 61.9742 34.8126 66.4807C35.0231 66.5819 35.2207 66.6912 35.4369 66.7877C29.9347 63.9443 25.3916 58.5666 24.8243 52.0377Z" fill="url(#paint10_radial_522_30707)"/>
<path d="M86.742 31.1991C84.7843 26.4867 80.8132 21.3987 77.7034 19.7903C79.9215 24.0877 81.4607 28.7028 82.2663 33.4716L82.2744 33.5472C77.1803 20.8416 68.5417 15.7187 61.4864 4.56343C61.1295 3.99938 60.7726 3.43418 60.425 2.83757C60.2262 2.49682 60.067 2.18979 59.9286 1.90719C59.636 1.3403 59.4105 0.741189 59.2567 0.122013C59.2569 0.0934415 59.2466 0.0657935 59.2277 0.0443437C59.2089 0.0228939 59.1828 0.00914343 59.1544 0.00571546C59.1266 -0.00190515 59.0973 -0.00190515 59.0695 0.00571546C59.0637 0.00571546 59.0544 0.0161823 59.0475 0.0185082C59.0405 0.0208342 59.0254 0.031301 59.0149 0.0359529L59.0323 0.00571546C47.7153 6.6347 43.8755 18.9064 43.5221 25.0447C44.0476 25.0086 44.5684 24.9644 45.1055 24.9644C49.121 24.9718 53.063 26.0428 56.5305 28.0686C59.9981 30.0943 62.8676 33.0026 64.8472 36.4977C61.678 34.3016 57.8065 33.3612 53.9836 33.8589C70.189 41.9648 65.8412 69.8787 43.3826 68.825C41.3829 68.7428 39.4068 68.3614 37.5201 67.6934C37.0791 67.5283 36.6381 67.3476 36.1971 67.1515C35.9425 67.0352 35.6879 66.9189 35.4368 66.7886L35.4682 66.8084C35.2497 66.7037 35.0311 66.5948 34.8126 66.4816C35.023 66.5828 35.2206 66.6921 35.4368 66.7886C29.9347 63.944 25.3916 58.5664 24.8243 52.0374C24.8243 52.0374 26.904 44.2838 39.7161 44.2838C41.1006 44.2838 45.0636 40.4169 45.1345 39.2958C45.1171 38.9295 37.2759 35.8069 34.2185 32.7947C32.5852 31.184 31.8098 30.4083 31.1228 29.8257C30.7515 29.511 30.3634 29.2167 29.9603 28.9441C28.9336 25.3493 28.8899 21.5447 29.8335 17.9272C25.6775 19.9414 21.9846 22.7967 18.9885 26.3123H18.9675C17.1819 24.048 17.3075 16.5817 17.4098 15.0221C16.8815 15.2345 16.3773 15.5023 15.9055 15.8211C14.3292 16.9466 12.8556 18.2094 11.5019 19.5949C9.95936 21.1595 8.55051 22.8506 7.29011 24.6504V24.6574V24.6492C4.39341 28.7575 2.33885 33.3991 1.24505 38.3061L1.1846 38.6038C1.09974 39.0004 0.719595 41.0147 0.664957 41.4473C0.664957 41.4799 0.664957 41.4136 0.664957 41.4473C0.317262 43.5266 0.0952064 45.6249 0 47.7309L0 47.9635C0.009878 59.2494 4.25134 70.1209 11.8861 78.4296C19.5209 86.7383 29.9935 91.8796 41.2341 92.8373C52.4748 93.795 63.6656 90.4995 72.595 83.6021C81.5243 76.7048 87.5424 66.7073 89.4599 55.5856C89.5355 55.0042 89.5971 54.4285 89.6645 53.8412C90.5925 46.1681 89.5879 38.3847 86.742 31.1991ZM82.2721 33.5146L82.2803 33.5623L82.2721 33.5146Z" fill="url(#paint11_linear_522_30707)"/>
<defs>
<linearGradient id="paint0_linear_522_30707" x1="80.7783" y1="14.408" x2="5.95447" y2="86.5699" gradientUnits="userSpaceOnUse">
<stop offset="0.048" stop-color="#FFF44F"/>
<stop offset="0.111" stop-color="#FFE847"/>
<stop offset="0.225" stop-color="#FFC830"/>
<stop offset="0.368" stop-color="#FF980E"/>
<stop offset="0.401" stop-color="#FF8B16"/>
<stop offset="0.462" stop-color="#FF672A"/>
<stop offset="0.534" stop-color="#FF3647"/>
<stop offset="0.705" stop-color="#E31587"/>
</linearGradient>
<radialGradient id="paint1_radial_522_30707" cx="0" cy="0" r="1" gradientUnits="userSpaceOnUse" gradientTransform="translate(77.3221 10.3213) scale(93.9275 93.9652)">
<stop offset="0.129" stop-color="#FFBD4F"/>
<stop offset="0.186" stop-color="#FFAC31"/>
<stop offset="0.247" stop-color="#FF9D17"/>
<stop offset="0.283" stop-color="#FF980E"/>
<stop offset="0.403" stop-color="#FF563B"/>
<stop offset="0.467" stop-color="#FF3750"/>
<stop offset="0.71" stop-color="#F5156C"/>
<stop offset="0.782" stop-color="#EB0878"/>
<stop offset="0.86" stop-color="#E50080"/>
</radialGradient>
<radialGradient id="paint2_radial_522_30707" cx="0" cy="0" r="1" gradientUnits="userSpaceOnUse" gradientTransform="translate(43.0003 48.7371) scale(93.9275 93.9652)">
<stop offset="0.3" stop-color="#960E18"/>
<stop offset="0.351" stop-color="#B11927" stop-opacity="0.74"/>
<stop offset="0.435" stop-color="#DB293D" stop-opacity="0.343"/>
<stop offset="0.497" stop-color="#F5334B" stop-opacity="0.094"/>
<stop offset="0.53" stop-color="#FF3750" stop-opacity="0"/>
</radialGradient>
<radialGradient id="paint3_radial_522_30707" cx="0" cy="0" r="1" gradientUnits="userSpaceOnUse" gradientTransform="translate(54.3238 -11.003) scale(68.0465 68.0738)">
<stop offset="0.132" stop-color="#FFF44F"/>
<stop offset="0.252" stop-color="#FFDC3E"/>
<stop offset="0.506" stop-color="#FF9D12"/>
<stop offset="0.526" stop-color="#FF980E"/>
</radialGradient>
<radialGradient id="paint4_radial_522_30707" cx="0" cy="0" r="1" gradientUnits="userSpaceOnUse" gradientTransform="translate(32.6111 73.2809) scale(44.723 44.741)">
<stop offset="0.353" stop-color="#3A8EE6"/>
<stop offset="0.472" stop-color="#5C79F0"/>
<stop offset="0.669" stop-color="#9059FF"/>
<stop offset="1" stop-color="#C139E6"/>
</radialGradient>
<radialGradient id="paint5_radial_522_30707" cx="0" cy="0" r="1" gradientUnits="userSpaceOnUse" gradientTransform="translate(48.133 41.036) rotate(-13.5968) scale(23.7124 27.7712)">
<stop offset="0.206" stop-color="#9059FF" stop-opacity="0"/>
<stop offset="0.278" stop-color="#8C4FF3" stop-opacity="0.064"/>
<stop offset="0.747" stop-color="#7716A8" stop-opacity="0.45"/>
<stop offset="0.975" stop-color="#6E008B" stop-opacity="0.6"/>
</radialGradient>
<radialGradient id="paint6_radial_522_30707" cx="0" cy="0" r="1" gradientUnits="userSpaceOnUse" gradientTransform="translate(41.8145 6.47667) scale(32.1737 32.1866)">
<stop stop-color="#FFE226"/>
<stop offset="0.121" stop-color="#FFDB27"/>
<stop offset="0.295" stop-color="#FFC82A"/>
<stop offset="0.502" stop-color="#FFA930"/>
<stop offset="0.732" stop-color="#FF7E37"/>
<stop offset="0.792" stop-color="#FF7139"/>
</radialGradient>
<radialGradient id="paint7_radial_522_30707" cx="0" cy="0" r="1" gradientUnits="userSpaceOnUse" gradientTransform="translate(67.1037 -13.939) scale(137.271 137.326)">
<stop offset="0.113" stop-color="#FFF44F"/>
<stop offset="0.456" stop-color="#FF980E"/>
<stop offset="0.622" stop-color="#FF5634"/>
<stop offset="0.716" stop-color="#FF3647"/>
<stop offset="0.904" stop-color="#E31587"/>
</radialGradient>
<radialGradient id="paint8_radial_522_30707" cx="0" cy="0" r="1" gradientUnits="userSpaceOnUse" gradientTransform="translate(55.5343 -6.30295) rotate(83.9784) scale(100.649 66.029)">
<stop stop-color="#FFF44F"/>
<stop offset="0.06" stop-color="#FFE847"/>
<stop offset="0.168" stop-color="#FFC830"/>
<stop offset="0.304" stop-color="#FF980E"/>
<stop offset="0.356" stop-color="#FF8B16"/>
<stop offset="0.455" stop-color="#FF672A"/>
<stop offset="0.57" stop-color="#FF3647"/>
<stop offset="0.737" stop-color="#E31587"/>
</radialGradient>
<radialGradient id="paint9_radial_522_30707" cx="0" cy="0" r="1" gradientUnits="userSpaceOnUse" gradientTransform="translate(41.0566 18.3981) scale(85.7004 85.7348)">
<stop offset="0.137" stop-color="#FFF44F"/>
<stop offset="0.48" stop-color="#FF980E"/>
<stop offset="0.592" stop-color="#FF5634"/>
<stop offset="0.655" stop-color="#FF3647"/>
<stop offset="0.904" stop-color="#E31587"/>
</radialGradient>
<radialGradient id="paint10_radial_522_30707" cx="0" cy="0" r="1" gradientUnits="userSpaceOnUse" gradientTransform="translate(63.6791 23.4163) scale(93.7984 93.8361)">
<stop offset="0.094" stop-color="#FFF44F"/>
<stop offset="0.231" stop-color="#FFE141"/>
<stop offset="0.509" stop-color="#FFAF1E"/>
<stop offset="0.626" stop-color="#FF980E"/>
</radialGradient>
<linearGradient id="paint11_linear_522_30707" x1="79.8797" y1="14.0219" x2="16.2112" y2="77.6636" gradientUnits="userSpaceOnUse">
<stop offset="0.167" stop-color="#FFF44F" stop-opacity="0.8"/>
<stop offset="0.266" stop-color="#FFF44F" stop-opacity="0.634"/>
<stop offset="0.489" stop-color="#FFF44F" stop-opacity="0.217"/>
<stop offset="0.6" stop-color="#FFF44F" stop-opacity="0"/>
</linearGradient>
</defs>
</svg>
