<svg width="400" height="260" viewBox="0 0 400 260" fill="none" xmlns="http://www.w3.org/2000/svg">
<g clip-path="url(#clip0_2034_43493)">
<path d="M80.4185 80.7561C74.7725 93.2267 66.4112 117.105 69.7722 146.799C74.0811 184.9 95.4149 214.936 116.19 231.813C185.082 287.839 311.203 251.645 327.903 198.894C330.934 189.315 330.082 180.092 329.034 168.73C325.7 132.591 308.14 121.853 296.326 83.4929C285.579 48.5806 296.174 44.6533 286.123 29.1312C264.323 -4.54035 201.383 -6.2326 158.079 9.90986C141.448 16.1087 101.084 35.143 80.4185 80.7561Z" fill="#E5F6FF"/>
<g filter="url(#filter0_f_2034_43493)">
<circle cx="117" cy="109" r="64" fill="#FFE7C3" fill-opacity="0.6"/>
</g>
<g filter="url(#filter1_f_2034_43493)">
<ellipse cx="275.5" cy="160.5" rx="67.5" ry="73.5" fill="#B5E0FF" fill-opacity="0.6"/>
</g>
<path d="M211.885 102.994C213.04 99.9969 220.554 80.0233 216.936 68.3054C216.43 66.6771 215.645 64.1456 213.354 62.1249C208.792 58.0928 204.138 61.3495 200.492 58.403C195.687 54.5214 201.167 46.7718 195.929 35.5739C194.674 32.8874 192.735 28.7047 188.401 26.5974C183.578 24.2484 180.776 26.903 176.017 25.0922C170.086 22.8344 170.725 17.2879 165.149 11.7415C159.267 5.89851 147.81 1.35552 139.324 5.96237C131.932 9.98082 129.628 19.4363 129.975 25.9041C130.49 35.4827 137.051 43.2779 143.923 46.8858C153.801 52.0765 163.803 48.2998 165.126 52.0537C166.358 55.5522 157.734 58.9731 158.182 65.5231C158.492 70.0843 163.114 74.568 167.836 75.722C174.384 77.3276 178.185 71.8449 182.09 73.934C186.197 76.1234 183.915 83.1705 186.831 89.5563C189.254 94.8245 195.56 100.407 211.885 102.994Z" fill="#A2D2EC"/>
<path d="M212.136 100.917C212.028 100.919 211.923 100.882 211.84 100.813C211.756 100.745 211.7 100.649 211.68 100.543C206.063 74.0146 189.478 55.0216 176.547 43.7644C162.526 31.5494 149.663 25.5195 149.535 25.483C149.478 25.4585 149.426 25.4225 149.383 25.3773C149.34 25.332 149.307 25.2785 149.286 25.2199C149.265 25.1613 149.255 25.099 149.259 25.0368C149.263 24.9746 149.279 24.9137 149.307 24.8581C149.332 24.8013 149.368 24.7502 149.413 24.7077C149.457 24.6652 149.511 24.6323 149.569 24.611C149.627 24.5897 149.688 24.5804 149.75 24.5836C149.812 24.5869 149.872 24.6027 149.928 24.63C150.06 24.6893 163.023 30.7421 177.145 43.0346C185.157 49.9415 192.225 57.8733 198.165 66.6254C205.096 76.8361 209.995 88.2847 212.597 100.347C212.612 100.407 212.614 100.47 212.603 100.532C212.593 100.593 212.57 100.652 212.535 100.704C212.501 100.756 212.457 100.801 212.404 100.835C212.352 100.869 212.294 100.892 212.232 100.903L212.136 100.917Z" fill="#E5F6FF"/>
<path d="M213.319 92.6974C223.197 70.2196 221.901 60.3947 218.338 55.6373C217.275 54.2142 214.77 51.5732 213.25 46.9983C211.279 41.0687 212.876 37.6386 212.68 32.7125C212.292 23.0791 205.275 13.8563 197.49 9.41366C192.052 6.31202 181.585 2.88197 175.156 7.96319C172.418 10.107 169.708 14.3489 170.908 17.4186C172.623 21.802 181.192 19.3982 185.285 25.2914C187.516 28.4842 185.623 30.1354 188.023 33.529C191.805 38.8793 198.271 37.3239 199.557 41.1189C200.803 44.7952 194.995 47.2172 195.821 51.9336C196.76 57.3158 204.686 58.0502 205.024 63.2363C205.224 66.3243 202.459 66.7029 202.286 70.288C202.094 74.6531 206.091 76.4776 209.796 82.9683C211.476 86.0052 212.665 89.2889 213.319 92.6974Z" fill="#52A5D8"/>
<path d="M213.573 90.8685H213.537C213.475 90.8657 213.414 90.8503 213.358 90.8232C213.302 90.7961 213.252 90.7579 213.212 90.711C213.171 90.664 213.141 90.6092 213.122 90.5501C213.103 90.4909 213.097 90.4285 213.103 90.3668C214.472 71.2323 211.41 50.9211 204.867 36.0378C196.257 16.4473 183.541 10.7594 183.422 10.7047C183.365 10.6818 183.312 10.6475 183.268 10.6037C183.224 10.5599 183.189 10.5075 183.166 10.4499C183.143 10.3922 183.132 10.3305 183.134 10.2684C183.136 10.2063 183.15 10.1453 183.176 10.0889C183.199 10.0312 183.233 9.97867 183.277 9.93468C183.321 9.89068 183.373 9.8561 183.431 9.83304C183.489 9.80998 183.55 9.79893 183.612 9.80057C183.674 9.80222 183.736 9.81651 183.792 9.84259C183.924 9.89733 196.965 15.7083 205.734 35.6592C212.337 50.6794 215.444 71.1548 214.048 90.4352C214.042 90.5554 213.989 90.6684 213.9 90.7495C213.811 90.8307 213.693 90.8735 213.573 90.8685Z" fill="#E5F6FF"/>
<path d="M278.415 237.151H139.401C135.085 237.151 131.571 232.85 132.265 228.572L162.151 43.3351C162.703 39.9278 165.445 37.077 168.881 37.077H307.904C312.22 37.077 315.697 41.3053 315.008 45.5837L285.108 230.82C284.561 234.228 281.855 237.151 278.415 237.151Z" fill="black"/>
<path d="M272.867 237.143H133.863C132.848 237.143 131.845 236.923 130.924 236.497C130.003 236.071 129.185 235.451 128.528 234.678C127.87 233.906 127.388 233 127.115 232.023C126.841 231.046 126.784 230.021 126.946 229.02L156.873 43.3773C157.138 41.7361 157.98 40.243 159.247 39.1657C160.513 38.0883 162.122 37.4971 163.785 37.4978H302.795C303.809 37.4979 304.812 37.7184 305.733 38.144C306.654 38.5696 307.471 39.1902 308.129 39.9628C308.786 40.7354 309.268 41.6416 309.54 42.6186C309.813 43.5956 309.87 44.6202 309.707 45.6214L279.785 231.264C279.517 232.905 278.674 234.398 277.407 235.475C276.14 236.552 274.531 237.143 272.867 237.143Z" fill="#A2D2EC"/>
<path d="M272.867 237.613H133.862C132.779 237.614 131.709 237.38 130.725 236.926C129.742 236.472 128.869 235.81 128.167 234.986C127.465 234.162 126.95 233.195 126.659 232.152C126.367 231.109 126.306 230.016 126.48 228.947L156.407 43.3045C156.684 41.5501 157.581 39.953 158.934 38.8019C160.287 37.6508 162.008 37.0217 163.785 37.0282H302.794C303.876 37.0282 304.946 37.2633 305.929 37.7172C306.912 38.1711 307.784 38.8331 308.486 39.6573C309.188 40.4815 309.702 41.4483 309.993 42.4907C310.284 43.5331 310.345 44.6263 310.172 45.6946L280.245 231.337C279.966 233.091 279.069 234.688 277.716 235.839C276.363 236.99 274.643 237.619 272.867 237.613ZM163.776 37.9861C162.224 37.9805 160.722 38.5288 159.539 39.5323C158.356 40.5358 157.571 41.9285 157.324 43.4596L127.401 229.102C127.25 230.037 127.305 230.993 127.56 231.904C127.816 232.816 128.266 233.661 128.881 234.381C129.495 235.101 130.259 235.679 131.119 236.075C131.979 236.471 132.915 236.675 133.862 236.674H272.867C274.418 236.679 275.92 236.131 277.103 235.128C278.286 234.124 279.072 232.731 279.318 231.2L309.246 45.5578C309.397 44.6237 309.343 43.6679 309.089 42.7564C308.834 41.845 308.385 40.9998 307.771 40.2793C307.157 39.5587 306.395 38.9801 305.535 38.5833C304.676 38.1866 303.74 37.9813 302.794 37.9815L163.776 37.9861Z" fill="black"/>
<path d="M269.673 231.297H138.799C137.844 231.297 136.9 231.09 136.033 230.69C135.165 230.289 134.396 229.705 133.776 228.978C133.157 228.251 132.703 227.398 132.446 226.479C132.189 225.559 132.135 224.595 132.288 223.652L160.463 48.9016C160.712 47.3551 161.505 45.9479 162.698 44.9324C163.891 43.9168 165.407 43.3593 166.974 43.3597H297.843C298.799 43.3592 299.743 43.5664 300.611 43.967C301.478 44.3675 302.249 44.9518 302.868 45.6794C303.487 46.407 303.941 47.2605 304.198 48.1807C304.454 49.101 304.508 50.066 304.354 51.009L276.184 225.759C275.932 227.305 275.14 228.71 273.947 229.725C272.754 230.739 271.239 231.296 269.673 231.297Z" fill="white"/>
<path d="M226.359 227.705H179.49C179.365 227.705 179.246 227.656 179.158 227.568C179.07 227.48 179.02 227.36 179.02 227.236C179.02 227.111 179.07 226.992 179.158 226.903C179.246 226.815 179.365 226.766 179.49 226.766H226.359C226.483 226.766 226.603 226.815 226.691 226.903C226.779 226.992 226.829 227.111 226.829 227.236C226.829 227.36 226.779 227.48 226.691 227.568C226.603 227.656 226.483 227.705 226.359 227.705Z" fill="black"/>
<path d="M241.999 48.117H218.729C217.348 48.117 216.024 47.5687 215.048 46.5926C214.071 45.6166 213.523 44.2929 213.523 42.9126H247.205C247.205 44.2929 246.657 45.6166 245.68 46.5926C244.704 47.5687 243.38 48.117 241.999 48.117Z" fill="#A2D2EC"/>
<path d="M193.862 70.8085H262.445C263.462 70.7759 264.437 70.3959 265.207 69.7319C265.978 69.0679 266.498 68.16 266.68 67.1595L267.168 64.0442C267.258 63.5935 267.245 63.1283 267.131 62.6832C267.016 62.2382 266.802 61.8248 266.505 61.4739C266.208 61.1231 265.835 60.8439 265.415 60.6571C264.995 60.4703 264.538 60.3807 264.079 60.3952H195.496C194.479 60.4278 193.504 60.8077 192.734 61.4717C191.963 62.1357 191.444 63.0437 191.262 64.0442L190.774 67.1595C190.683 67.6102 190.696 68.0754 190.811 68.5205C190.926 68.9655 191.139 69.3789 191.436 69.7297C191.733 70.0806 192.106 70.3598 192.526 70.5466C192.946 70.7334 193.403 70.8229 193.862 70.8085Z" fill="#A2D2EC"/>
<path d="M176.072 94.5052H272.803C273.776 94.4733 274.708 94.1084 275.444 93.4716C276.18 92.8347 276.675 91.9646 276.846 91.0067C276.934 90.5758 276.924 90.1304 276.815 89.7041C276.707 89.2777 276.503 88.8815 276.219 88.5452C275.936 88.2089 275.579 87.9413 275.177 87.7625C274.775 87.5837 274.338 87.4983 273.898 87.5128H177.167C176.195 87.5437 175.263 87.9076 174.527 88.5437C173.791 89.1798 173.296 90.0493 173.125 91.0067C173.036 91.4379 173.047 91.8834 173.155 92.31C173.264 92.7365 173.467 93.133 173.751 93.4696C174.035 93.8062 174.391 94.0742 174.793 94.2536C175.195 94.433 175.632 94.519 176.072 94.5052Z" fill="#E5F6FF"/>
<path d="M272.183 98.5199H175.453C174.48 98.551 173.547 98.9156 172.811 99.5525C172.075 100.19 171.58 101.06 171.41 102.018C171.322 102.449 171.333 102.894 171.442 103.32C171.551 103.746 171.755 104.142 172.038 104.478C172.322 104.814 172.678 105.082 173.079 105.261C173.481 105.44 173.918 105.526 174.358 105.512H271.088C272.061 105.482 272.994 105.118 273.731 104.482C274.467 103.846 274.963 102.976 275.135 102.018C275.224 101.587 275.213 101.141 275.105 100.714C274.996 100.287 274.792 99.8904 274.508 99.5537C274.224 99.2169 273.867 98.949 273.464 98.7699C273.062 98.5909 272.624 98.5054 272.183 98.5199Z" fill="#E5F6FF"/>
<path d="M270.462 109.529H173.731C172.759 109.56 171.827 109.924 171.091 110.56C170.355 111.196 169.86 112.065 169.689 113.023C169.604 113.453 169.618 113.897 169.728 114.321C169.839 114.746 170.044 115.14 170.329 115.474C170.613 115.808 170.969 116.073 171.37 116.251C171.771 116.428 172.207 116.513 172.646 116.498H269.376C270.348 116.468 271.281 116.104 272.017 115.468C272.753 114.832 273.248 113.962 273.419 113.005C273.503 112.574 273.49 112.13 273.379 111.706C273.268 111.282 273.063 110.888 272.779 110.554C272.495 110.22 272.139 109.954 271.738 109.777C271.337 109.599 270.9 109.514 270.462 109.529Z" fill="#E5F6FF"/>
<path d="M267.205 130.32H170.474C169.501 130.351 168.568 130.714 167.832 131.35C167.095 131.986 166.599 132.856 166.427 133.814C166.339 134.245 166.35 134.69 166.459 135.117C166.568 135.543 166.773 135.939 167.057 136.275C167.341 136.612 167.697 136.879 168.099 137.058C168.502 137.237 168.939 137.322 169.379 137.308H266.11C267.079 137.278 268.01 136.916 268.745 136.284C269.481 135.651 269.977 134.786 270.152 133.832C270.243 133.4 270.234 132.953 270.127 132.525C270.02 132.096 269.816 131.698 269.532 131.36C269.249 131.021 268.892 130.752 268.488 130.572C268.085 130.392 267.646 130.306 267.205 130.32Z" fill="#E5F6FF"/>
<path d="M265.479 141.326H168.749C167.776 141.357 166.844 141.721 166.108 142.357C165.372 142.993 164.877 143.863 164.706 144.82C164.617 145.251 164.628 145.696 164.736 146.123C164.845 146.549 165.048 146.945 165.332 147.281C165.616 147.618 165.972 147.885 166.374 148.064C166.776 148.243 167.214 148.328 167.654 148.314H264.384C265.356 148.283 266.289 147.919 267.025 147.283C267.761 146.647 268.256 145.777 268.427 144.82C268.515 144.389 268.505 143.944 268.396 143.517C268.288 143.091 268.084 142.695 267.801 142.358C267.517 142.022 267.161 141.755 266.758 141.576C266.356 141.397 265.919 141.312 265.479 141.326Z" fill="#E5F6FF"/>
<path d="M263.755 152.331H167.024C166.051 152.362 165.118 152.727 164.382 153.364C163.646 154.001 163.152 154.871 162.981 155.829C162.893 156.26 162.903 156.706 163.012 157.132C163.12 157.559 163.324 157.955 163.608 158.291C163.891 158.627 164.248 158.895 164.65 159.074C165.052 159.253 165.489 159.338 165.929 159.323H262.66C263.632 159.293 264.564 158.929 265.3 158.293C266.036 157.656 266.531 156.787 266.702 155.829C266.791 155.398 266.78 154.953 266.672 154.526C266.563 154.1 266.36 153.703 266.076 153.367C265.792 153.03 265.436 152.762 265.034 152.583C264.632 152.403 264.195 152.317 263.755 152.331Z" fill="#E5F6FF"/>
<path d="M260.501 173.123H163.771C162.798 173.154 161.866 173.518 161.13 174.154C160.394 174.79 159.899 175.659 159.728 176.617C159.64 177.048 159.65 177.493 159.759 177.92C159.867 178.346 160.071 178.743 160.354 179.08C160.638 179.416 160.994 179.684 161.396 179.864C161.798 180.043 162.236 180.129 162.676 180.115H259.406C260.378 180.083 261.31 179.718 262.045 179.081C262.78 178.444 263.274 177.574 263.444 176.617C263.532 176.186 263.521 175.742 263.412 175.316C263.304 174.89 263.1 174.495 262.817 174.159C262.534 173.823 262.179 173.555 261.778 173.376C261.377 173.196 260.94 173.11 260.501 173.123Z" fill="#E5F6FF"/>
<path d="M258.778 184.128H162.047C161.074 184.16 160.142 184.525 159.406 185.162C158.67 185.798 158.175 186.669 158.004 187.626C157.917 188.057 157.928 188.502 158.037 188.928C158.146 189.354 158.349 189.75 158.633 190.086C158.916 190.422 159.272 190.69 159.674 190.869C160.076 191.048 160.512 191.134 160.952 191.12H257.683C258.655 191.089 259.587 190.725 260.323 190.089C261.059 189.453 261.554 188.584 261.725 187.626C261.813 187.195 261.802 186.75 261.693 186.324C261.584 185.898 261.38 185.502 261.097 185.165C260.813 184.829 260.458 184.561 260.056 184.381C259.654 184.202 259.217 184.115 258.778 184.128Z" fill="#E5F6FF"/>
<path d="M257.056 195.139H160.326C159.353 195.17 158.42 195.534 157.683 196.17C156.946 196.806 156.45 197.675 156.278 198.633C156.191 199.064 156.202 199.51 156.311 199.936C156.42 200.362 156.624 200.758 156.908 201.095C157.192 201.431 157.549 201.698 157.951 201.877C158.353 202.056 158.791 202.141 159.231 202.127H255.961C256.933 202.096 257.866 201.732 258.602 201.096C259.338 200.46 259.833 199.59 260.004 198.633C260.091 198.202 260.08 197.757 259.972 197.331C259.863 196.905 259.659 196.509 259.375 196.173C259.092 195.837 258.736 195.57 258.334 195.391C257.933 195.211 257.496 195.125 257.056 195.139Z" fill="#E5F6FF"/>
<path d="M287.276 0.551636C276.201 0.551636 265.579 4.9497 257.748 12.7783C249.917 20.6069 245.517 31.2248 245.517 42.2961V84.0452H286.623H287.276C298.163 83.7664 308.511 79.247 316.113 71.4505C323.715 63.654 327.97 53.1973 327.97 42.3098C327.97 31.4224 323.715 20.9656 316.113 13.1691C308.511 5.37259 298.163 0.853174 287.276 0.574443V0.551636Z" fill="white"/>
<path d="M287.275 84.5155H286.778H286.714H286.637H245.517C245.396 84.5155 245.28 84.4675 245.194 84.3819C245.109 84.2964 245.061 84.1804 245.061 84.0594V42.2967C245.062 33.9477 247.539 25.7864 252.18 18.8449C256.82 11.9034 263.416 6.4934 271.132 3.299C278.849 0.104597 287.339 -0.730738 295.53 0.898624C303.721 2.52799 311.245 6.54887 317.151 12.4528C323.056 18.3568 327.077 25.8787 328.706 34.0673C330.335 42.256 329.499 50.7436 326.303 58.457C323.106 66.1704 317.694 72.7631 310.75 77.4014C303.805 82.0398 295.641 84.5155 287.289 84.5155H287.275ZM286.623 83.5668H286.796H287.275C295.443 83.5677 303.427 81.1475 310.218 76.6122C317.009 72.0769 322.302 65.6303 325.428 58.0876C328.555 50.5449 329.373 42.2448 327.78 34.2372C326.187 26.2295 322.255 18.8738 316.48 13.1003C310.705 7.32687 303.348 3.39494 295.338 1.8018C287.327 0.208666 279.024 1.02587 271.479 4.15006C263.933 7.27425 257.484 12.5651 252.946 19.3535C248.409 26.142 245.987 34.1231 245.987 42.2875V83.5668H286.536C286.565 83.5623 286.594 83.5623 286.623 83.5668Z" fill="black"/>
<path d="M292.943 60.8007V34.975H281.605V60.8007C281.605 61.6379 281.272 62.4407 280.68 63.0326C280.088 63.6246 279.285 63.9571 278.447 63.9571V66.744H296.105V63.9571C295.69 63.9577 295.279 63.8765 294.895 63.7182C294.512 63.5598 294.163 63.3274 293.87 63.0342C293.576 62.7411 293.343 62.3929 293.184 62.0097C293.025 61.6264 292.943 61.2156 292.943 60.8007Z" fill="#52A5D8"/>
<path d="M288.74 29.8004C292.174 28.9902 294.3 25.551 293.49 22.1185C292.68 18.6861 289.239 16.5603 285.806 17.3704C282.372 18.1805 280.246 21.6198 281.056 25.0523C281.866 28.4847 285.307 30.6105 288.74 29.8004Z" fill="#52A5D8"/>
<path d="M111.565 178.258H105.588V247.251H111.565V178.258Z" fill="white"/>
<path d="M111.564 247.72H105.573C105.452 247.72 105.336 247.672 105.25 247.587C105.165 247.501 105.116 247.385 105.116 247.264V178.257C105.116 178.136 105.165 178.02 105.25 177.935C105.336 177.849 105.452 177.801 105.573 177.801H111.55C111.671 177.801 111.787 177.849 111.873 177.935C111.958 178.02 112.006 178.136 112.006 178.257V247.25C112.008 247.31 111.998 247.37 111.977 247.426C111.956 247.482 111.923 247.533 111.882 247.577C111.841 247.621 111.792 247.656 111.737 247.68C111.683 247.705 111.624 247.719 111.564 247.72ZM106.056 246.781H111.075V178.727H106.056V246.781Z" fill="black"/>
<path d="M108.575 243.428C102.674 243.429 96.8122 244.381 91.2142 246.247L89.0058 246.981C88.0311 247.308 87.1835 247.932 86.5826 248.766C85.9817 249.6 85.6579 250.601 85.6567 251.629H131.494C131.493 250.601 131.169 249.6 130.568 248.766C129.968 247.932 129.12 247.308 128.145 246.981L125.937 246.247C120.339 244.381 114.477 243.429 108.575 243.428Z" fill="#A2D2EC"/>
<path d="M131.494 252.099H85.6567C85.5357 252.099 85.4196 252.051 85.3341 251.965C85.2485 251.88 85.2004 251.764 85.2004 251.643C85.1997 250.516 85.5542 249.418 86.2136 248.504C86.873 247.59 87.8037 246.907 88.8735 246.552L91.0773 245.813C102.444 242.025 114.734 242.025 126.101 245.813L128.305 246.552C129.37 246.911 130.296 247.596 130.951 248.509C131.606 249.422 131.957 250.519 131.955 251.643C131.955 251.703 131.943 251.763 131.92 251.818C131.897 251.874 131.863 251.924 131.82 251.967C131.777 252.009 131.726 252.043 131.67 252.065C131.614 252.088 131.555 252.099 131.494 252.099ZM86.1541 251.159H130.997C130.907 250.315 130.576 249.515 130.044 248.853C129.511 248.192 128.8 247.697 127.995 247.428L125.786 246.694C114.615 242.966 102.536 242.966 91.3647 246.694L89.1472 247.428C88.3434 247.698 87.6341 248.194 87.1035 248.855C86.573 249.516 86.2434 250.316 86.1541 251.159Z" fill="black"/>
<path d="M117.281 129.488H86.6785C84.862 129.486 83.0934 130.072 81.6376 131.158C80.1818 132.244 79.117 133.772 78.6025 135.514C76.9303 141.295 76.0915 147.285 76.1112 153.303C76.1033 157.902 76.5882 162.49 77.5576 166.986C78.3213 170.411 80.2331 173.472 82.9759 175.661C85.7187 177.85 89.1277 179.037 92.6375 179.024H126.402C129.955 179.015 133.398 177.787 136.155 175.546C138.911 173.304 140.814 170.184 141.546 166.708C141.728 165.842 141.902 164.742 142.061 163.565C142.201 162.515 142.115 161.447 141.808 160.433C141.502 159.419 140.982 158.482 140.284 157.685C139.586 156.887 138.725 156.249 137.76 155.811C136.795 155.373 135.748 155.146 134.688 155.145C132.842 155.142 131.064 154.452 129.698 153.21C128.333 151.968 127.479 150.263 127.301 148.427C126.881 143.998 126.224 138.488 125.353 135.523C124.84 133.78 123.776 132.251 122.321 131.163C120.866 130.075 119.098 129.488 117.281 129.488Z" fill="#A2D2EC"/>
<path d="M126.42 179.483H92.6558C89.0422 179.483 85.5359 178.255 82.7121 176.001C79.8884 173.746 77.9148 170.6 77.1151 167.077C76.1396 162.549 75.6516 157.929 75.6596 153.297C75.6387 147.236 76.4837 141.203 78.1691 135.381C78.7194 133.546 79.8456 131.936 81.3813 130.791C82.9169 129.645 84.7806 129.023 86.6969 129.018H117.299C119.215 129.024 121.078 129.645 122.613 130.791C124.148 131.937 125.273 133.546 125.823 135.381C126.735 138.428 127.383 144.125 127.789 148.371C127.948 150.098 128.748 151.703 130.032 152.869C131.316 154.035 132.99 154.678 134.725 154.67C135.849 154.675 136.959 154.92 137.981 155.388C139.004 155.855 139.914 156.535 140.653 157.383C141.392 158.23 141.941 159.225 142.265 160.301C142.589 161.377 142.68 162.51 142.531 163.624C142.358 164.928 142.18 165.996 142.011 166.817C141.241 170.386 139.277 173.586 136.442 175.889C133.608 178.192 130.073 179.46 126.42 179.483ZM86.6786 129.957C84.964 129.962 83.2964 130.518 81.9231 131.544C80.5497 132.57 79.5437 134.012 79.0543 135.654C77.3925 141.391 76.5597 147.335 76.5812 153.306C76.5743 157.871 77.0561 162.423 78.0185 166.885C78.7693 170.196 80.623 173.154 83.2758 175.274C85.9286 177.394 89.2231 178.55 92.6193 178.553H126.384C129.825 178.533 133.157 177.338 135.827 175.168C138.497 172.997 140.345 169.98 141.067 166.616C141.236 165.832 141.404 164.792 141.573 163.51C141.706 162.526 141.627 161.525 141.34 160.574C141.054 159.623 140.568 158.745 139.914 157.997C139.26 157.25 138.454 156.651 137.549 156.241C136.645 155.831 135.663 155.619 134.67 155.619C132.701 155.627 130.8 154.897 129.343 153.573C127.886 152.249 126.978 150.427 126.799 148.467C126.397 144.266 125.74 138.628 124.864 135.654C124.374 134.014 123.368 132.575 121.995 131.551C120.623 130.527 118.957 129.971 117.245 129.967L86.6786 129.957Z" fill="black"/>
<path d="M134.67 165.961H93.0755C91.1739 165.959 89.3509 165.203 88.0063 163.859C86.6617 162.514 85.9052 160.692 85.9028 158.791C85.9028 158.666 85.9523 158.547 86.0405 158.459C86.1286 158.371 86.2482 158.321 86.3728 158.321C86.4974 158.321 86.617 158.371 86.7051 158.459C86.7932 158.547 86.8428 158.666 86.8428 158.791C86.8452 160.443 87.5026 162.026 88.671 163.194C89.8393 164.362 91.4232 165.019 93.0755 165.022H134.67C134.794 165.022 134.914 165.071 135.002 165.159C135.09 165.247 135.14 165.367 135.14 165.492C135.14 165.616 135.09 165.736 135.002 165.824C134.914 165.912 134.794 165.961 134.67 165.961Z" fill="black"/>
<path d="M122.432 200.872L116.072 205.757L121.657 213.342L127.616 207.668L122.432 200.872Z" fill="white"/>
<path d="M121.657 213.813H121.616C121.55 213.807 121.486 213.787 121.429 213.754C121.371 213.721 121.321 213.675 121.283 213.621L115.694 206.036C115.656 205.987 115.628 205.931 115.613 205.872C115.597 205.812 115.593 205.75 115.602 205.689C115.611 205.628 115.632 205.57 115.665 205.517C115.697 205.465 115.739 205.419 115.79 205.384L122.15 200.503C122.199 200.465 122.255 200.438 122.314 200.422C122.374 200.406 122.436 200.403 122.497 200.412C122.558 200.419 122.617 200.439 122.67 200.469C122.723 200.5 122.77 200.541 122.807 200.59L127.99 207.386C128.064 207.477 128.099 207.592 128.09 207.708C128.08 207.825 128.027 207.933 127.94 208.011L122.009 213.685C121.961 213.728 121.906 213.762 121.846 213.784C121.785 213.806 121.721 213.816 121.657 213.813ZM116.725 205.849L121.721 212.636L126.987 207.619L122.346 201.534L116.725 205.849Z" fill="black"/>
<path d="M125.443 212.453L119.512 207.668L118.398 203.659C115.291 203.581 111.81 205.894 109.898 207.381C109.467 207.713 109.164 208.183 109.04 208.713C108.916 209.242 108.979 209.798 109.218 210.286C112.371 216.672 119.484 226.68 122.906 231.387C123.099 231.653 123.365 231.858 123.672 231.976C123.979 232.095 124.313 232.122 124.635 232.055C124.957 231.989 125.253 231.83 125.487 231.599C125.721 231.368 125.883 231.074 125.954 230.753C127.515 223.551 125.443 212.453 125.443 212.453Z" fill="#52A5D8"/>
<path d="M124.316 232.558C123.973 232.557 123.634 232.474 123.33 232.315C123.025 232.156 122.762 231.927 122.564 231.646C118.764 226.451 111.924 216.795 108.817 210.473C108.532 209.888 108.457 209.223 108.604 208.59C108.751 207.956 109.111 207.392 109.624 206.993C111.504 205.528 115.15 203.084 118.426 203.17C118.529 203.167 118.631 203.199 118.714 203.261C118.797 203.323 118.856 203.412 118.882 203.512L119.954 207.38L125.754 212.069C125.84 212.142 125.898 212.242 125.918 212.352C126.005 212.808 127.989 223.618 126.465 230.83C126.359 231.316 126.089 231.751 125.7 232.062C125.312 232.374 124.828 232.542 124.33 232.54L124.316 232.558ZM118.061 204.128C115.154 204.228 111.915 206.409 110.204 207.75C109.86 208.016 109.619 208.393 109.519 208.816C109.419 209.239 109.468 209.684 109.656 210.076C112.736 216.334 119.544 225.94 123.322 231.108C123.463 231.304 123.659 231.455 123.886 231.541C124.112 231.626 124.358 231.644 124.595 231.591C124.827 231.545 125.039 231.431 125.207 231.263C125.374 231.096 125.488 230.883 125.535 230.652C126.903 224.106 125.256 214.126 125.01 212.708L119.233 208.032C119.158 207.972 119.104 207.889 119.078 207.795L118.061 204.128Z" fill="black"/>
<path d="M123.46 228.987C123.384 228.986 123.309 228.967 123.242 228.931C123.174 228.896 123.116 228.845 123.072 228.782L113.659 215.217C112.978 214.213 112.678 212.998 112.815 211.792C112.907 210.259 112.677 208.724 112.14 207.285C112.093 207.17 112.095 207.04 112.143 206.926C112.192 206.811 112.285 206.72 112.4 206.674C112.516 206.627 112.645 206.628 112.76 206.677C112.874 206.726 112.965 206.818 113.012 206.934C113.609 208.513 113.861 210.202 113.751 211.887C113.637 212.869 113.878 213.859 114.431 214.679L123.848 228.249C123.885 228.299 123.911 228.355 123.925 228.416C123.939 228.476 123.94 228.539 123.929 228.6C123.918 228.661 123.895 228.719 123.86 228.771C123.826 228.823 123.781 228.867 123.729 228.901C123.651 228.957 123.557 228.988 123.46 228.987Z" fill="black"/>
<path d="M140.437 237.934L149.179 252.187L157.201 247.243L147.632 233.327L140.437 237.934Z" fill="white"/>
<path d="M149.179 252.656H149.07C149.009 252.643 148.952 252.617 148.902 252.581C148.852 252.545 148.809 252.499 148.778 252.446L140.035 238.192C140.001 238.141 139.978 238.083 139.968 238.022C139.957 237.961 139.959 237.899 139.973 237.839C139.987 237.778 140.013 237.722 140.05 237.672C140.086 237.622 140.133 237.58 140.186 237.549L147.381 232.947C147.431 232.913 147.488 232.889 147.547 232.877C147.607 232.865 147.668 232.865 147.728 232.877C147.787 232.889 147.843 232.912 147.894 232.946C147.944 232.98 147.987 233.024 148.02 233.075L157.602 246.991C157.639 247.043 157.665 247.103 157.677 247.166C157.69 247.229 157.689 247.293 157.675 247.356C157.661 247.418 157.635 247.476 157.598 247.528C157.561 247.58 157.514 247.623 157.46 247.657L149.439 252.601C149.36 252.645 149.269 252.664 149.179 252.656ZM141.08 238.06L149.334 251.52L156.534 247.082L147.504 233.969L141.08 238.06Z" fill="black"/>
<path d="M156.627 243.402L151.366 248.876L147.259 249.656C146.926 252.744 148.947 256.406 150.275 258.431C150.571 258.887 151.015 259.226 151.532 259.393C152.049 259.559 152.607 259.541 153.113 259.344C159.757 256.726 170.301 250.458 175.275 247.416C175.555 247.245 175.78 246.996 175.923 246.7C176.066 246.404 176.121 246.073 176.08 245.746C176.04 245.42 175.906 245.112 175.695 244.86C175.484 244.608 175.205 244.421 174.891 244.324C167.855 242.248 156.627 243.402 156.627 243.402Z" fill="#52A5D8"/>
<path d="M152.282 260C151.81 260 151.344 259.883 150.929 259.658C150.513 259.433 150.159 259.109 149.9 258.714C148.595 256.72 146.46 252.889 146.811 249.628C146.82 249.527 146.862 249.432 146.931 249.358C146.999 249.283 147.09 249.234 147.19 249.217L151.132 248.465L156.284 243.078C156.361 242.997 156.464 242.945 156.576 242.932C157.032 242.886 167.983 241.796 175.046 243.903C175.446 244.02 175.804 244.252 176.074 244.569C176.344 244.887 176.515 245.277 176.565 245.691C176.623 246.111 176.557 246.539 176.374 246.921C176.192 247.304 175.901 247.625 175.539 247.844C170.063 251.201 159.861 257.222 153.304 259.804C152.979 259.933 152.632 260 152.282 260ZM147.719 250.075C147.578 252.976 149.499 256.383 150.685 258.198C150.924 258.563 151.281 258.835 151.696 258.968C152.111 259.102 152.56 259.089 152.967 258.933C159.455 256.374 169.589 250.385 175.05 247.042C175.258 246.918 175.425 246.735 175.529 246.517C175.633 246.298 175.669 246.054 175.634 245.815C175.608 245.58 175.513 245.359 175.362 245.179C175.21 244.998 175.008 244.867 174.781 244.802C168.366 242.886 158.282 243.721 156.85 243.853L151.707 249.231C151.64 249.302 151.552 249.35 151.456 249.368L147.719 250.075Z" fill="black"/>
<path d="M150.238 256.256C150.117 256.274 149.994 256.244 149.895 256.171C149.797 256.098 149.732 255.989 149.713 255.868C149.695 255.748 149.726 255.624 149.799 255.526C149.871 255.428 149.98 255.362 150.101 255.344C151.731 254.876 153.443 254.764 155.12 255.016C156.092 255.205 157.099 255.044 157.963 254.559L172.263 246.285C172.371 246.225 172.499 246.21 172.618 246.244C172.737 246.277 172.839 246.357 172.899 246.466C172.96 246.574 172.975 246.702 172.941 246.821C172.907 246.94 172.827 247.041 172.719 247.102L158.41 255.371C157.352 255.966 156.116 256.165 154.924 255.932C153.399 255.711 151.844 255.813 150.361 256.233C150.321 256.246 150.28 256.254 150.238 256.256Z" fill="black"/>
<path d="M128.775 136.45C128.775 136.45 146.935 150.786 156.544 164.205C157.861 166.048 158.654 168.214 158.838 170.471C159.022 172.729 158.59 174.994 157.589 177.026C153.163 186.012 143.595 202.113 128.789 210.155L116.351 194.272C116.351 194.272 127.224 182.249 135.218 176.776L114.831 153.933L109.767 142.461L128.775 136.45Z" fill="black"/>
<path d="M137.513 243.525C138.156 244.66 152.807 233.946 152.807 233.946C152.807 233.946 141.619 220.842 123.788 154.188C123.582 153.413 120.297 137.115 120.297 137.115L95.9595 149.864C95.9595 149.864 100.235 177.916 137.513 243.525Z" fill="black"/>
<path d="M126.713 165.348C126.609 165.351 126.506 165.319 126.423 165.255C126.34 165.192 126.282 165.103 126.257 165.002L123.975 156.636C123.758 155.842 123.717 155.01 123.853 154.198C123.989 153.386 124.3 152.614 124.765 151.934L126.17 149.886C126.205 149.835 126.249 149.791 126.301 149.757C126.352 149.724 126.41 149.7 126.471 149.689C126.531 149.677 126.593 149.678 126.654 149.691C126.714 149.703 126.771 149.728 126.822 149.762C126.873 149.797 126.917 149.842 126.951 149.893C126.984 149.945 127.008 150.003 127.019 150.063C127.031 150.124 127.03 150.186 127.017 150.246C127.005 150.307 126.98 150.364 126.946 150.415L125.54 152.463C125.152 153.03 124.892 153.676 124.779 154.354C124.665 155.032 124.701 155.727 124.883 156.39L127.165 164.751C127.183 164.811 127.189 164.874 127.182 164.936C127.175 164.998 127.156 165.059 127.124 165.113C127.093 165.167 127.051 165.215 127.001 165.252C126.95 165.289 126.893 165.316 126.831 165.33C126.793 165.34 126.753 165.346 126.713 165.348Z" fill="#CADDFF"/>
<path d="M138.671 238.945C138.587 238.947 138.504 238.925 138.432 238.882C138.359 238.84 138.3 238.778 138.261 238.704C137.453 237.276 136.645 235.825 135.856 234.402C135.795 234.293 135.781 234.164 135.816 234.044C135.85 233.923 135.931 233.822 136.041 233.761C136.15 233.701 136.279 233.686 136.4 233.721C136.52 233.756 136.621 233.837 136.682 233.946C137.467 235.369 138.274 236.815 139.077 238.243C139.123 238.313 139.148 238.395 139.15 238.479C139.152 238.563 139.131 238.645 139.089 238.718C139.047 238.791 138.986 238.85 138.912 238.89C138.838 238.93 138.755 238.949 138.671 238.945Z" fill="#CADDFF"/>
<path d="M134.669 231.734C134.585 231.735 134.502 231.713 134.429 231.669C134.357 231.626 134.298 231.563 134.259 231.488C131.977 227.278 129.742 223.059 127.647 218.94C127.618 218.885 127.6 218.825 127.595 218.763C127.589 218.701 127.597 218.639 127.616 218.58C127.636 218.521 127.668 218.467 127.709 218.42C127.75 218.374 127.801 218.337 127.857 218.31C127.912 218.281 127.972 218.263 128.033 218.257C128.095 218.251 128.157 218.258 128.216 218.278C128.275 218.297 128.329 218.328 128.376 218.369C128.423 218.41 128.46 218.46 128.487 218.516C130.577 222.621 132.794 226.835 135.085 231.036C135.116 231.09 135.136 231.15 135.144 231.212C135.151 231.274 135.145 231.337 135.127 231.397C135.11 231.457 135.079 231.513 135.039 231.56C134.999 231.608 134.949 231.647 134.893 231.675C134.825 231.713 134.748 231.734 134.669 231.734Z" fill="#CADDFF"/>
<path d="M119.485 201.338C119.394 201.339 119.305 201.314 119.228 201.264C119.152 201.215 119.092 201.143 119.056 201.059C108.22 177.076 105.158 163.657 105.126 163.534C105.111 163.474 105.108 163.411 105.118 163.35C105.127 163.288 105.15 163.229 105.183 163.177C105.216 163.124 105.26 163.079 105.312 163.044C105.363 163.009 105.421 162.985 105.482 162.973C105.543 162.958 105.605 162.955 105.667 162.964C105.728 162.974 105.787 162.996 105.84 163.03C105.892 163.063 105.937 163.107 105.973 163.158C106.008 163.21 106.032 163.268 106.043 163.329C106.075 163.461 109.123 176.789 119.914 200.672C119.942 200.728 119.958 200.789 119.962 200.851C119.965 200.914 119.955 200.976 119.934 201.035C119.912 201.093 119.878 201.147 119.835 201.192C119.791 201.237 119.739 201.273 119.682 201.297C119.62 201.323 119.553 201.337 119.485 201.338Z" fill="#CADDFF"/>
<path d="M141.582 209.091C141.49 209.093 141.399 209.067 141.321 209.017C141.244 208.966 141.184 208.894 141.149 208.808C141.094 208.676 135.559 195.704 133.506 189.195C133.469 189.074 133.481 188.943 133.54 188.831C133.599 188.719 133.7 188.635 133.821 188.597C133.942 188.56 134.073 188.572 134.185 188.631C134.297 188.69 134.381 188.791 134.419 188.912C136.463 195.393 141.975 208.32 142.029 208.452C142.055 208.509 142.07 208.57 142.071 208.632C142.073 208.694 142.062 208.756 142.039 208.813C142.016 208.871 141.981 208.923 141.937 208.967C141.893 209.011 141.841 209.045 141.783 209.068C141.719 209.091 141.65 209.098 141.582 209.091Z" fill="#CADDFF"/>
<path d="M147.72 90.0802C147.72 90.0802 156.845 93.5923 167.796 84.6933C170.273 82.6665 172.306 80.1518 173.768 77.3056C175.231 74.4594 176.091 71.3428 176.297 68.1497C176.382 66.8864 176.946 65.7034 177.875 64.8428L185.728 59.8254C185.203 60.794 184.813 61.8299 184.569 62.9043C183.962 65.121 182.119 67.0778 181.881 67.9992L185.728 66.8543C185.41 68.4034 184.612 69.8128 183.446 70.8819C181.567 72.4966 180.928 76.5424 180.928 76.5424C180.928 76.5424 178.245 108.786 150.061 108.289L147.72 90.0802Z" fill="white"/>
<path d="M150.744 108.745H150.069C149.956 108.745 149.846 108.704 149.762 108.628C149.677 108.552 149.624 108.447 149.613 108.334L147.272 90.1487C147.257 90.0668 147.264 89.9823 147.293 89.9042C147.322 89.8261 147.372 89.7575 147.437 89.7058C147.503 89.6541 147.581 89.6213 147.664 89.6109C147.746 89.6005 147.83 89.613 147.906 89.647C147.993 89.6835 156.909 92.9447 167.526 84.3377C169.952 82.3452 171.942 79.8749 173.373 77.0806C174.803 74.2863 175.643 71.2277 175.84 68.0951C175.931 66.7124 176.55 65.4176 177.569 64.478C177.588 64.4574 177.609 64.439 177.633 64.4233L185.49 59.4059C185.58 59.3467 185.688 59.321 185.794 59.3335C185.901 59.3461 186 59.3959 186.074 59.4744C186.152 59.5486 186.201 59.6478 186.212 59.7546C186.224 59.8614 186.198 59.9689 186.138 60.0582C185.642 60.9878 185.271 61.9785 185.034 63.0048C184.603 64.3261 183.967 65.5714 183.149 66.6948L182.816 67.2102L185.609 66.3801C185.685 66.3529 185.768 66.3467 185.848 66.3623C185.928 66.3778 186.002 66.4145 186.063 66.4685C186.124 66.5225 186.17 66.5919 186.195 66.6694C186.22 66.7469 186.224 66.8297 186.206 66.9092C185.87 68.5679 185.013 70.0762 183.761 71.215C182.086 72.6518 181.443 76.319 181.397 76.579C180.734 82.2336 179.072 87.7254 176.488 92.7988C172.646 100.115 165.085 108.745 150.744 108.745ZM150.494 107.805H150.744C161.905 107.805 170.278 102.619 175.643 92.3837C178.178 87.4174 179.807 82.0392 180.453 76.5015C180.453 76.5015 180.453 76.4787 180.453 76.465C180.48 76.2962 181.146 72.2276 183.131 70.5354C184.026 69.7291 184.69 68.6996 185.056 67.5523L182.013 68.4646C181.934 68.4888 181.849 68.4909 181.769 68.4708C181.689 68.4507 181.615 68.4092 181.557 68.3505C181.496 68.2935 181.452 68.2208 181.429 68.1403C181.407 68.0599 181.407 67.9748 181.429 67.8944C181.654 67.2938 181.961 66.7273 182.342 66.2113C183.099 65.1672 183.693 64.0136 184.103 62.7904C184.294 62.0971 184.477 61.5315 184.646 61.0753L178.153 65.2124C177.332 65.98 176.832 67.0292 176.752 68.1498C176.544 71.4111 175.667 74.5946 174.175 77.5026C172.684 80.4106 170.61 82.9809 168.083 85.0538C158.684 92.6847 150.69 91.3894 148.281 90.7417L150.494 107.805Z" fill="black"/>
<path d="M87.7241 105.2L94.7143 95.8681C97.0674 92.7302 100.466 90.5378 104.296 89.6876C111.761 88.0273 124.372 85.5825 131.143 86.1526C141.209 87.0193 153.638 87.9407 153.638 87.9407L152.196 109.511L140 108.599C140 108.599 132.243 126.698 134.328 137.152C134.328 137.152 109.598 148.208 91.347 152.382C91.347 152.382 84.8952 127.108 95.3302 109.506L87.7241 105.2Z" fill="#F1C40F"/>
<path d="M120.014 112.599L121.88 143.565C121.896 143.792 121.843 144.019 121.729 144.216C121.614 144.413 121.443 144.571 121.237 144.669L85.0133 161.586C84.8468 161.665 84.6628 161.7 84.479 161.688C84.2952 161.675 84.1177 161.615 83.9638 161.514L82.8231 160.793L81.5729 129.649C81.5574 129.421 81.611 129.194 81.7266 128.997C81.8421 128.8 82.0144 128.642 82.2208 128.545L118.591 111.066C118.591 111.066 119.234 111.522 119.54 111.728C119.679 111.828 119.794 111.959 119.876 112.109C119.958 112.26 120.005 112.427 120.014 112.599Z" fill="black"/>
<path d="M118.86 111.91L120.731 142.877C120.746 143.105 120.692 143.332 120.577 143.53C120.461 143.728 120.289 143.886 120.083 143.985L83.9593 160.802C83.7931 160.877 83.611 160.91 83.4291 160.898C83.2472 160.886 83.0711 160.83 82.9161 160.734C82.7611 160.638 82.6321 160.505 82.5403 160.348C82.4485 160.19 82.3968 160.013 82.3897 159.831L80.519 128.864C80.5035 128.637 80.557 128.409 80.6726 128.213C80.7882 128.016 80.9604 127.858 81.1669 127.761L117.29 110.939C117.456 110.864 117.639 110.831 117.82 110.843C118.002 110.855 118.179 110.911 118.333 111.007C118.488 111.103 118.618 111.236 118.709 111.393C118.801 111.551 118.853 111.728 118.86 111.91Z" fill="white"/>
<path d="M83.5037 161.372C83.2227 161.372 82.9468 161.296 82.7052 161.153C82.4795 161.016 82.2902 160.827 82.1535 160.602C82.0169 160.376 81.9369 160.121 81.9205 159.858L80.0497 128.891C80.0307 128.57 80.1073 128.251 80.2697 127.973C80.4321 127.696 80.6731 127.472 80.9623 127.331L117.086 110.514C117.316 110.406 117.569 110.356 117.823 110.369C118.076 110.382 118.323 110.457 118.541 110.587C118.767 110.723 118.956 110.912 119.092 111.138C119.228 111.364 119.307 111.619 119.321 111.882L121.192 142.849C121.212 143.17 121.136 143.49 120.974 143.768C120.811 144.046 120.57 144.269 120.28 144.409L84.1562 161.23C83.9513 161.324 83.7288 161.372 83.5037 161.372ZM117.752 111.308C117.662 111.307 117.574 111.326 117.492 111.362L81.3912 128.184C81.2703 128.243 81.1697 128.336 81.1022 128.453C81.0347 128.569 81.0035 128.702 81.0125 128.837L82.8832 159.803C82.8884 159.913 82.9207 160.02 82.9772 160.115C83.0337 160.209 83.1127 160.289 83.2071 160.346C83.2934 160.399 83.3916 160.43 83.4928 160.435C83.594 160.441 83.695 160.421 83.7866 160.378L119.91 143.556C120.031 143.497 120.131 143.404 120.198 143.287C120.265 143.171 120.295 143.037 120.284 142.903L118.395 111.937C118.389 111.826 118.355 111.718 118.298 111.623C118.241 111.528 118.162 111.448 118.067 111.39C117.971 111.334 117.862 111.306 117.752 111.308Z" fill="black"/>
<path d="M116.4 109.47L118.266 140.431C118.282 140.659 118.23 140.887 118.115 141.084C118 141.282 117.829 141.441 117.623 141.54L81.4995 158.362C81.3326 158.436 81.15 158.469 80.9675 158.457C80.7851 158.445 80.6085 158.388 80.4531 158.291C80.2977 158.195 80.1683 158.062 80.0763 157.904C79.9843 157.746 79.9325 157.568 79.9253 157.386L78.0546 126.424C78.04 126.196 78.0939 125.968 78.2093 125.771C78.3247 125.573 78.4964 125.415 78.7025 125.315L114.826 108.494C114.993 108.419 115.175 108.386 115.358 108.398C115.54 108.411 115.717 108.467 115.872 108.564C116.028 108.66 116.157 108.793 116.249 108.951C116.341 109.109 116.393 109.287 116.4 109.47Z" fill="white"/>
<path d="M81.0388 158.917C80.7578 158.917 80.482 158.841 80.2403 158.698C80.0146 158.562 79.8256 158.373 79.6896 158.147C79.5537 157.921 79.4749 157.666 79.4601 157.403L77.5893 126.436C77.5685 126.115 77.6442 125.795 77.8069 125.517C77.9695 125.239 78.2115 125.016 78.5019 124.877L114.625 108.055C114.855 107.947 115.108 107.897 115.362 107.91C115.616 107.922 115.863 107.997 116.081 108.128C116.306 108.264 116.495 108.453 116.631 108.679C116.767 108.904 116.846 109.16 116.861 109.423L118.732 140.389C118.753 140.711 118.677 141.031 118.514 141.309C118.352 141.587 118.11 141.81 117.819 141.949L81.6958 158.771C81.4898 158.866 81.2657 158.916 81.0388 158.917ZM115.287 108.848C115.197 108.848 115.108 108.868 115.027 108.908L78.9034 125.725C78.7833 125.785 78.6834 125.878 78.616 125.994C78.5487 126.11 78.5169 126.243 78.5247 126.377L80.3954 157.343C80.4004 157.455 80.433 157.563 80.4903 157.659C80.5477 157.754 80.628 157.834 80.7239 157.891C80.8102 157.942 80.9077 157.972 81.008 157.976C81.1082 157.981 81.2081 157.961 81.2988 157.918L117.436 141.128C117.556 141.069 117.656 140.975 117.723 140.859C117.791 140.743 117.822 140.61 117.815 140.476L115.944 109.51C115.939 109.398 115.906 109.29 115.849 109.194C115.792 109.099 115.711 109.019 115.615 108.962C115.517 108.9 115.403 108.865 115.287 108.862V108.848Z" fill="black"/>
<path d="M114.338 112.144L115.99 139.429C116.002 139.63 115.954 139.83 115.853 140.003C115.751 140.177 115.6 140.317 115.419 140.405L83.5895 155.224C83.4436 155.287 83.2845 155.314 83.1261 155.302C82.9676 155.29 82.8144 155.239 82.6798 155.155C82.5451 155.071 82.433 154.955 82.353 154.818C82.273 154.68 82.2276 154.526 82.2206 154.367L80.5735 127.082C80.5594 126.88 80.6063 126.68 80.7081 126.506C80.8098 126.331 80.9617 126.192 81.1438 126.105L112.969 111.286C113.115 111.223 113.274 111.196 113.432 111.209C113.591 111.221 113.744 111.271 113.879 111.355C114.013 111.44 114.126 111.556 114.206 111.693C114.286 111.83 114.331 111.985 114.338 112.144Z" fill="#E5F6FF"/>
<path d="M107.471 144.562C107.35 144.589 107.223 144.566 107.119 144.5C107.014 144.433 106.941 144.327 106.914 144.206C106.887 144.085 106.91 143.959 106.977 143.854C107.043 143.75 107.149 143.677 107.27 143.65L115.168 140.001C115.264 139.953 115.343 139.877 115.396 139.784C115.449 139.69 115.473 139.583 115.465 139.476L115.282 136.448C115.275 136.323 115.317 136.201 115.4 136.107C115.483 136.014 115.6 135.958 115.725 135.951C115.849 135.943 115.972 135.986 116.065 136.069C116.158 136.152 116.215 136.268 116.222 136.393L116.405 139.422C116.423 139.716 116.352 140.009 116.203 140.264C116.053 140.518 115.831 140.722 115.565 140.849L107.667 144.526C107.605 144.552 107.538 144.565 107.471 144.562Z" fill="black"/>
<path d="M82.1699 126.127C82.08 126.128 81.9919 126.102 81.9164 126.054C81.8409 126.005 81.7814 125.935 81.7455 125.853C81.7173 125.797 81.7007 125.737 81.6967 125.675C81.6928 125.613 81.7015 125.551 81.7225 125.492C81.7434 125.434 81.7761 125.38 81.8185 125.335C81.8609 125.289 81.9122 125.253 81.9691 125.228L87.1935 122.783C87.306 122.73 87.4351 122.724 87.5523 122.765C87.6695 122.807 87.7653 122.894 87.8186 123.007C87.8718 123.119 87.8782 123.248 87.8362 123.365C87.7943 123.483 87.7075 123.578 87.595 123.632L82.3706 126.076C82.3084 126.108 82.2397 126.125 82.1699 126.127Z" fill="black"/>
<path d="M83.1337 155.799C82.8747 155.799 82.6207 155.728 82.3991 155.594C82.1927 155.469 82.0196 155.295 81.8949 155.089C81.7701 154.882 81.6973 154.648 81.6828 154.408L80.1907 129.727C80.1835 129.602 80.226 129.48 80.309 129.387C80.392 129.293 80.5087 129.237 80.6333 129.23C80.758 129.222 80.8804 129.265 80.9737 129.348C81.0669 129.431 81.1234 129.547 81.1307 129.672L82.6227 154.357C82.6226 154.45 82.6465 154.54 82.6921 154.62C82.7378 154.7 82.8035 154.767 82.8828 154.814C82.9497 154.858 83.0271 154.884 83.1072 154.888C83.1873 154.893 83.2673 154.877 83.339 154.841L90.6395 151.434C90.6955 151.408 90.7561 151.393 90.8178 151.39C90.8796 151.388 90.9412 151.397 90.9993 151.418C91.0573 151.439 91.1106 151.472 91.1561 151.514C91.2017 151.555 91.2385 151.606 91.2646 151.662C91.2906 151.718 91.3054 151.778 91.308 151.84C91.3107 151.902 91.3011 151.963 91.28 152.021C91.2588 152.079 91.2264 152.133 91.1846 152.178C91.1428 152.224 91.0924 152.261 91.0364 152.287L83.736 155.689C83.5458 155.77 83.3401 155.807 83.1337 155.799Z" fill="black"/>
<path d="M90.0597 106.326L101.01 112.78C101.01 112.78 91.8483 127.732 105.769 143.564L114.767 142.46C113.593 143.322 112.259 143.942 110.843 144.285C108.849 144.645 108.425 146.766 108.425 146.766L112.531 149.01C112.531 149.01 107.512 153.685 104.355 151.861C101.197 150.036 75.0026 130.396 90.0597 106.326Z" fill="white"/>
<path d="M105.997 152.738C105.334 152.746 104.68 152.578 104.104 152.249C101.247 150.598 89.0054 141.074 85.7476 127.961C83.9225 120.521 85.2092 113.16 89.6396 106.067C89.6706 106.015 89.7117 105.969 89.7605 105.933C89.8094 105.896 89.865 105.87 89.9241 105.856C89.9832 105.841 90.0445 105.839 90.1046 105.849C90.1647 105.858 90.2222 105.88 90.2738 105.912L101.252 112.393C101.306 112.424 101.354 112.466 101.392 112.516C101.43 112.567 101.456 112.624 101.471 112.685C101.499 112.806 101.479 112.934 101.416 113.041C99.8617 115.918 98.9159 119.084 98.6374 122.341C98.1583 127.414 99.048 135.113 105.965 143.086L114.698 141.996C114.801 141.981 114.907 142.002 114.996 142.055C115.086 142.108 115.155 142.19 115.191 142.288C115.232 142.384 115.239 142.491 115.211 142.591C115.183 142.692 115.121 142.779 115.036 142.84C113.806 143.736 112.41 144.378 110.929 144.728C110.476 144.829 110.058 145.048 109.717 145.363C109.375 145.678 109.123 146.077 108.986 146.521L112.745 148.578C112.813 148.611 112.872 148.661 112.915 148.723C112.959 148.785 112.986 148.857 112.996 148.932C113.005 149.007 112.995 149.083 112.967 149.153C112.939 149.224 112.895 149.286 112.837 149.335C112.659 149.504 109.136 152.738 105.997 152.738ZM90.1963 106.965C86.0898 113.702 84.9126 120.686 86.6601 127.733C89.8541 140.527 101.786 149.823 104.574 151.451C106.855 152.769 110.396 150.165 111.696 149.093L108.201 147.173C108.113 147.126 108.042 147.052 108 146.961C107.958 146.871 107.947 146.769 107.968 146.671C107.968 146.571 108.484 144.231 110.761 143.816C111.382 143.693 111.986 143.494 112.558 143.223L105.833 144.048C105.757 144.059 105.679 144.049 105.607 144.021C105.535 143.993 105.472 143.948 105.422 143.889C98.1218 135.583 97.2092 127.514 97.7066 122.205C97.9936 118.981 98.8999 115.844 100.376 112.964L90.1963 106.965Z" fill="black"/>
<path d="M120.548 79.6583C119.457 80.3379 117.742 81.4053 115.83 80.8351C113.795 80.2285 112.107 77.9342 112.486 76.397C112.814 75.0286 114.539 75.0788 114.799 73.6603C115.05 72.3375 113.613 71.8358 113.512 70.2165C113.384 68.0545 115.721 65.4728 117.888 65.4136C119.22 65.3725 119.353 66.3258 120.89 66.4079C122.989 66.5356 123.404 64.8251 125.781 64.5834C127.497 64.4146 128.893 65.1444 130.075 65.7602C131.818 66.6725 132.968 67.27 133.077 68.2096C133.296 70.1253 128.811 70.4309 124.668 75.275C123.162 77.0675 122.597 78.3857 120.548 79.6583Z" fill="black"/>
<path d="M127.62 81.259C129.235 76.8756 125.708 71.2972 125.448 70.8365C124.117 71.8577 122.471 72.382 120.794 72.319C118.134 72.1411 118.358 75.7399 118.358 75.7399C116.907 75.4252 116.656 76.3967 117.016 78.3808C117.377 80.365 119.343 79.7857 119.343 79.7857C119.606 80.0979 119.895 80.3878 120.206 80.6523L116.829 85.6469C115.905 87.0099 114.617 88.0862 113.111 88.7531L111.742 89.3552C111.665 89.389 111.6 89.447 111.559 89.5205C111.518 89.594 111.502 89.679 111.513 89.7625C111.524 89.846 111.563 89.9236 111.622 89.9834C111.681 90.0433 111.759 90.0821 111.842 90.0941C114.521 90.4544 120.803 90.9014 125.53 88.1556C125.593 88.1184 125.642 88.0634 125.672 87.9978C125.703 87.9322 125.713 87.859 125.701 87.7876C125.689 87.7163 125.656 87.6502 125.606 87.5978C125.556 87.5455 125.492 87.5094 125.421 87.4942L124.321 87.2616C124.139 87.223 123.969 87.1428 123.823 87.0273C123.677 86.9117 123.56 86.764 123.481 86.5956C123.402 86.4273 123.363 86.2429 123.367 86.0569C123.371 85.8709 123.418 85.6884 123.505 85.5237L125.22 82.2488C125.719 82.2291 126.215 82.168 126.703 82.0663C126.912 82.0202 127.105 81.922 127.266 81.7808C127.426 81.6396 127.548 81.4601 127.62 81.259Z" fill="white"/>
<path d="M115.853 90.827C114.49 90.8257 113.129 90.7358 111.778 90.5579C111.594 90.5344 111.422 90.4506 111.29 90.3194C111.158 90.1882 111.073 90.0171 111.048 89.8327C111.02 89.6466 111.053 89.4561 111.144 89.2911C111.235 89.1261 111.378 88.9958 111.55 88.9204L112.919 88.3184C114.345 87.6904 115.565 86.6721 116.437 85.3809L119.585 80.7193C119.444 80.5825 119.302 80.4411 119.17 80.2951C118.603 80.3932 118.02 80.2934 117.518 80.0123C117.254 79.8383 117.031 79.6091 116.864 79.3406C116.697 79.0721 116.59 78.7707 116.551 78.457C116.273 76.9198 116.373 76.0532 116.875 75.5697C117.011 75.4444 117.171 75.3479 117.345 75.2859C117.519 75.224 117.704 75.198 117.888 75.2094C117.929 74.4978 118.112 73.2799 118.878 72.5182C119.133 72.2688 119.44 72.079 119.776 71.9622C120.113 71.8455 120.472 71.8048 120.826 71.8432C122.383 71.8978 123.91 71.4146 125.152 70.4748C125.204 70.4303 125.266 70.3982 125.332 70.3808C125.398 70.3635 125.468 70.3613 125.535 70.3744C125.603 70.3862 125.668 70.4132 125.724 70.4535C125.78 70.4938 125.826 70.5463 125.859 70.6071L125.923 70.712C127.319 73.0792 129.459 77.6222 128.063 81.4218L127.607 81.2575L128.063 81.4218C127.961 81.6997 127.79 81.947 127.565 82.1401C127.341 82.3333 127.071 82.466 126.781 82.5256C126.358 82.6126 125.929 82.672 125.499 82.7035L123.911 85.7413C123.858 85.8416 123.83 85.9527 123.827 86.0658C123.825 86.179 123.849 86.2912 123.897 86.3936C123.945 86.4961 124.016 86.586 124.105 86.6564C124.194 86.7268 124.297 86.7758 124.408 86.7995L125.503 87.0321C125.668 87.0665 125.819 87.1504 125.934 87.2727C126.05 87.395 126.126 87.5498 126.151 87.7163C126.18 87.8807 126.157 88.0498 126.086 88.2008C126.015 88.3518 125.899 88.4773 125.754 88.5601C122.638 90.3755 118.851 90.827 115.853 90.827ZM112.203 89.6639C114.808 89.9832 120.607 90.3253 125.029 87.8942L124.212 87.7208C123.959 87.6665 123.722 87.5546 123.52 87.3937C123.317 87.2329 123.155 87.0275 123.045 86.7935C122.935 86.5595 122.88 86.3033 122.886 86.0448C122.891 85.7863 122.956 85.5326 123.076 85.3034L124.787 82.0284C124.826 81.9563 124.883 81.8955 124.953 81.8516C125.022 81.8077 125.102 81.7822 125.184 81.7775C125.658 81.7592 126.129 81.7012 126.594 81.6042C126.727 81.5765 126.851 81.515 126.953 81.4255C127.055 81.336 127.133 81.2216 127.178 81.0934C128.419 77.7363 126.425 73.4943 125.302 71.5147C123.964 72.4129 122.373 72.8575 120.763 72.7828C120.543 72.754 120.319 72.7747 120.108 72.8433C119.898 72.912 119.705 73.0269 119.544 73.1796C118.732 73.9824 118.823 75.6928 118.823 75.7065C118.829 75.7796 118.817 75.853 118.789 75.9205C118.76 75.9879 118.716 76.0476 118.659 76.0942C118.604 76.1421 118.539 76.1762 118.468 76.1937C118.398 76.2111 118.324 76.2114 118.253 76.1946C118.007 76.1398 117.674 76.1034 117.528 76.2447C117.381 76.3861 117.208 76.8103 117.477 78.2927C117.496 78.4735 117.553 78.6482 117.645 78.8054C117.736 78.9626 117.859 79.0987 118.007 79.205C118.382 79.3895 118.812 79.4301 119.216 79.319C119.303 79.2926 119.396 79.2928 119.483 79.3196C119.57 79.3464 119.647 79.3986 119.704 79.4696C119.949 79.7598 120.218 80.0298 120.507 80.2769C120.598 80.3497 120.658 80.4545 120.674 80.5698C120.69 80.6852 120.661 80.8023 120.594 80.8972L117.217 85.9146C116.245 87.3519 114.886 88.4855 113.298 89.185L112.203 89.6639Z" fill="black"/>
<path d="M124.778 82.7447C123.73 82.6969 122.708 82.3982 121.799 81.8735C121.692 81.8088 121.615 81.7042 121.585 81.5828C121.555 81.4613 121.574 81.3329 121.639 81.2259C121.704 81.1188 121.808 81.0418 121.93 81.0119C122.051 80.9819 122.18 81.0015 122.287 81.0662C122.319 81.0662 123.788 81.9556 125.148 81.7823C125.208 81.7745 125.269 81.7786 125.327 81.7943C125.385 81.8101 125.44 81.8371 125.488 81.874C125.536 81.9108 125.576 81.9567 125.606 82.0091C125.636 82.0615 125.656 82.1192 125.663 82.1791C125.671 82.239 125.667 82.2999 125.651 82.3582C125.636 82.4165 125.609 82.4712 125.572 82.519C125.535 82.5669 125.489 82.607 125.437 82.6372C125.384 82.6673 125.326 82.6868 125.266 82.6946C125.105 82.7227 124.942 82.7394 124.778 82.7447Z" fill="black"/>
<path d="M117.966 93.3986C111.578 93.3986 107.513 90.7941 107.449 90.7531C107.397 90.7193 107.353 90.6756 107.318 90.6246C107.284 90.5736 107.259 90.5163 107.247 90.456C107.234 90.3956 107.234 90.3334 107.245 90.2728C107.257 90.2123 107.28 90.1546 107.314 90.1031C107.348 90.0516 107.392 90.0073 107.443 89.9726C107.494 89.938 107.551 89.9137 107.611 89.9012C107.672 89.8887 107.734 89.8882 107.795 89.8998C107.855 89.9113 107.913 89.9347 107.964 89.9686C108.051 90.0233 116.798 95.5743 128.634 89.9366C128.746 89.8834 128.875 89.877 128.993 89.919C129.11 89.9609 129.206 90.0476 129.259 90.1601C129.312 90.2726 129.318 90.4017 129.276 90.5189C129.235 90.6361 129.148 90.7318 129.035 90.785C125.589 92.4765 121.805 93.3698 117.966 93.3986Z" fill="black"/>
</g>
<defs>
<filter id="filter0_f_2034_43493" x="18.3333" y="10.3333" width="197.333" height="197.333" filterUnits="userSpaceOnUse" color-interpolation-filters="sRGB">
<feFlood flood-opacity="0" result="BackgroundImageFix"/>
<feBlend mode="normal" in="SourceGraphic" in2="BackgroundImageFix" result="shape"/>
<feGaussianBlur stdDeviation="17.3333" result="effect1_foregroundBlur_2034_43493"/>
</filter>
<filter id="filter1_f_2034_43493" x="179.111" y="58.1111" width="192.778" height="204.778" filterUnits="userSpaceOnUse" color-interpolation-filters="sRGB">
<feFlood flood-opacity="0" result="BackgroundImageFix"/>
<feBlend mode="normal" in="SourceGraphic" in2="BackgroundImageFix" result="shape"/>
<feGaussianBlur stdDeviation="14.4444" result="effect1_foregroundBlur_2034_43493"/>
</filter>
<clipPath id="clip0_2034_43493">
<rect width="400" height="260" fill="white"/>
</clipPath>
</defs>
</svg>
