<svg width="400" height="260" viewBox="0 0 400 260" fill="none" xmlns="http://www.w3.org/2000/svg">
<g clip-path="url(#clip0_1941_57360)">
<path d="M99.701 127.787C91.8894 97.6623 74.6403 96.1729 74.0049 78.0057C73.0424 50.0568 119.753 16.958 156.41 5.89708C201.313 -7.64313 257.793 1.55955 288.47 39.6402C321.249 80.3262 312.657 135.729 277.542 171.937C264.105 185.795 245.081 197.795 224.589 205.76C221.786 206.843 218.403 207.352 215.572 208.281C213.358 209.01 211.722 210.186 209.498 210.812C203.145 212.609 196.677 213.97 190.138 214.883C187.171 215.289 184.237 213.814 181.317 214.005C178 214.22 174.701 216.074 171.473 215.99C161.704 215.742 152.42 214.089 144.109 210.774C139.792 209.052 116.441 199.382 105.906 177.853C97.1968 160.064 105.896 151.669 99.701 127.787Z" fill="#E5F6FF"/>
<g filter="url(#filter0_f_1941_57360)">
<ellipse cx="185.5" cy="147" rx="91.5" ry="90" fill="#B5E0FF" fill-opacity="0.6"/>
</g>
<g filter="url(#filter1_f_1941_57360)">
<circle cx="252" cy="88" r="79" fill="#FFE7C3" fill-opacity="0.6"/>
</g>
<g clip-path="url(#clip1_1941_57360)">
<path d="M280.981 168.085L280.462 164.546C279.995 155.259 285.755 146.594 295.165 142.364L304.042 138.381C305.934 137.532 307.726 136.473 309.382 135.225C309.989 134.758 312.652 137.12 313.208 136.625C313.867 136.032 312.414 132.563 313.003 131.905C313.772 131.044 314.478 130.128 315.114 129.164L322.258 118.313C323.192 116.875 325.701 117.44 325.743 119.102L326 129.491C326.22 138.572 320.595 146.673 311.984 150.833C310.952 151.333 308.989 148.499 307.877 148.9C307.13 149.157 307.247 152.635 306.476 152.841C305.16 153.173 303.824 153.418 302.477 153.574C291.736 153.985 280.981 168.085 280.981 168.085Z" fill="#A2D2EC"/>
<path d="M286.227 159.807C286.165 159.836 286.097 159.851 286.028 159.851C285.959 159.851 285.892 159.836 285.83 159.807C285.783 159.787 285.74 159.758 285.706 159.721C285.671 159.683 285.645 159.639 285.629 159.591C285.613 159.543 285.608 159.492 285.613 159.441C285.619 159.391 285.635 159.342 285.661 159.298C288.818 154.4 293.432 150.614 298.855 148.475C300.014 148.008 301.224 147.579 302.392 147.168C302.929 146.981 303.457 146.794 303.976 146.603C313.32 143.213 317.992 138.554 320.669 129.981C321.314 127.918 323.047 123.076 323.061 123.029C323.104 122.929 323.183 122.849 323.283 122.804C323.382 122.759 323.494 122.753 323.598 122.786C323.648 122.796 323.696 122.817 323.738 122.846C323.779 122.876 323.814 122.914 323.84 122.958C323.866 123.002 323.883 123.051 323.888 123.102C323.894 123.153 323.889 123.204 323.874 123.253C323.874 123.305 322.131 128.128 321.491 130.177C318.725 139.006 313.908 143.802 304.303 147.299L302.705 147.864C301.551 148.27 300.369 148.69 299.215 149.157C293.948 151.236 289.468 154.918 286.409 159.681C286.36 159.738 286.297 159.781 286.227 159.807Z" fill="white"/>
<path d="M280.957 167.838L277.518 156.025C274.303 144.989 275.384 133.147 280.546 122.875C280.689 122.614 280.92 122.412 281.197 122.303C281.475 122.195 281.782 122.187 282.064 122.282L284.073 122.884C284.587 121.904 282.284 119.369 282.672 118.355C284.028 114.697 284.508 110.772 284.074 106.895C283.64 103.018 282.304 99.2963 280.172 96.028C279.186 94.4779 281.307 92.8438 282.924 93.9083L289.269 98.0824C293.455 100.751 296.651 104.719 298.365 109.377C298.589 110.002 296.029 111.567 296.207 112.202C296.384 112.837 299.225 112.542 299.318 113.177C299.707 115.844 299.561 118.562 298.889 121.172C298.217 123.782 297.032 126.232 295.403 128.38C290.777 134.587 287.431 141.651 285.559 149.162L280.957 167.838Z" fill="white"/>
<path d="M291.211 118.407C291.136 118.442 291.051 118.453 290.969 118.44C290.917 118.438 290.865 118.426 290.818 118.403C290.771 118.381 290.729 118.35 290.695 118.311C290.66 118.272 290.634 118.227 290.617 118.177C290.601 118.128 290.595 118.076 290.599 118.024C291.562 111.249 289.09 104.61 283.049 97.723C283.015 97.6854 282.989 97.6407 282.974 97.5921C282.959 97.5434 282.955 97.492 282.962 97.4416C282.97 97.3912 282.988 97.343 283.016 97.3005C283.044 97.2579 283.081 97.222 283.124 97.1954C283.216 97.1348 283.327 97.1085 283.436 97.1213C283.545 97.1342 283.647 97.1852 283.722 97.2655C289.913 104.316 292.436 111.137 291.445 118.117C291.433 118.181 291.405 118.241 291.364 118.291C291.324 118.342 291.271 118.381 291.211 118.407Z" fill="#E4F6FF"/>
<path d="M280.924 154.139L280.826 154.172C280.721 154.197 280.611 154.182 280.516 154.131C280.422 154.079 280.351 153.993 280.316 153.891C280.288 153.784 277.597 143.059 285.414 130.378C286.876 128.006 288.876 124.775 289.969 120.951C290.006 120.85 290.08 120.766 290.176 120.716C290.272 120.666 290.383 120.653 290.487 120.681C290.54 120.687 290.591 120.705 290.636 120.733C290.681 120.761 290.72 120.799 290.749 120.843C290.778 120.888 290.797 120.938 290.806 120.99C290.814 121.043 290.81 121.096 290.796 121.147C289.679 125.046 287.647 128.342 286.161 130.747C278.499 143.181 281.12 153.625 281.148 153.733C281.163 153.816 281.149 153.901 281.108 153.975C281.067 154.049 281.002 154.107 280.924 154.139Z" fill="#E4F6FF"/>
<path d="M102.037 147.037C102.037 147.037 85.8855 120.032 91.875 97.8116C92.4403 95.7199 92.0993 94.4499 93.1598 92.5823C93.7345 91.5738 97.159 91.9053 97.2852 91.2983C97.3833 90.8314 94.2063 87.4464 94.2998 86.9795C96.1601 77.5651 97.1268 67.9963 97.1871 58.4003C97.1871 57.177 98.9438 56.6401 99.8221 57.5832C103.602 61.6593 110.432 70.0449 113.563 80.3494C113.908 81.484 110.811 82.4505 111.058 83.6178C111.231 84.4442 114.796 85.4854 114.889 86.3071C115.581 91.289 115.642 96.7051 113.245 101.944C103.214 123.865 102.037 147.037 102.037 147.037Z" fill="white"/>
<path d="M100.074 112.696C99.9655 112.734 99.8471 112.734 99.7381 112.696C99.6896 112.684 99.6441 112.662 99.6045 112.632C99.565 112.601 99.5321 112.563 99.508 112.519C99.4839 112.475 99.4691 112.427 99.4645 112.377C99.4598 112.327 99.4655 112.277 99.4811 112.23C105.134 98.3811 105.158 86.2883 104.181 78.5798C103.121 70.2269 100.691 65.0816 100.668 65.0396C100.647 64.993 100.636 64.9425 100.637 64.8916C100.637 64.8406 100.648 64.7902 100.669 64.7439C100.691 64.6975 100.721 64.6562 100.76 64.6226C100.798 64.5891 100.843 64.5641 100.892 64.5493C100.994 64.5124 101.106 64.5122 101.209 64.5489C101.311 64.5855 101.397 64.6567 101.453 64.7501C101.476 64.8014 103.948 70.0214 105.022 78.477C106.013 86.2697 105.999 98.4932 100.28 112.491C100.24 112.583 100.167 112.657 100.074 112.696Z" fill="#E4F6FF"/>
<path d="M267.151 149.124L267.071 151.669C266.946 155.578 266.182 159.441 264.81 163.104C264.703 163.393 265.385 164.476 265.899 165.233C265.971 165.353 266.009 165.491 266.008 165.632C266.006 165.772 265.966 165.91 265.891 166.028C265.815 166.147 265.708 166.243 265.582 166.304C265.455 166.366 265.314 166.391 265.174 166.377C264.403 166.377 263.553 166.32 263.404 166.755C261.566 172.095 261.022 177.795 261.815 183.386L262.091 185.319C266.372 182.183 270.454 178.783 274.313 175.14L274.061 163.304C273.975 159.507 273.287 155.747 272.024 152.164L270.8 148.681C270.178 146.907 267.207 147.266 267.151 149.124Z" fill="white"/>
<path d="M237.372 48.6045H167.759C151.952 48.6045 139.138 61.4103 139.138 77.207V83.4542C139.138 99.2509 151.952 112.057 167.759 112.057H237.372C253.179 112.057 265.993 99.2509 265.993 83.4542V77.207C265.993 61.4103 253.179 48.6045 237.372 48.6045Z" fill="white" stroke="black" stroke-miterlimit="10"/>
<path d="M237.372 48.6045H167.759C151.952 48.6045 139.138 61.4103 139.138 77.207C139.138 93.0038 151.952 105.81 167.759 105.81H237.372C253.179 105.81 265.993 93.0038 265.993 77.207C265.993 61.4103 253.179 48.6045 237.372 48.6045Z" fill="#F1C40F" stroke="black" stroke-miterlimit="10"/>
<path d="M249.901 91.3835C258.071 83.6246 258.437 70.7537 250.717 62.6356C242.998 54.5175 230.117 54.2263 221.947 61.9853C213.776 69.7443 213.411 82.6152 221.131 90.7333C228.85 98.8514 241.731 99.1425 249.901 91.3835Z" fill="#52A5D8" stroke="black" stroke-miterlimit="10"/>
<path d="M161.657 66.0344C163.517 66.0344 165.025 67.5417 165.025 69.4004V85.0136C165.025 86.8723 163.517 88.3796 161.657 88.3796C159.796 88.3796 158.288 86.8723 158.288 85.0136V69.4004C158.288 67.5417 159.796 66.0344 161.657 66.0344Z" fill="#52A5D8" stroke="black"/>
<path d="M179.037 239.844L178.032 250.531C178.02 250.599 178.022 250.668 178.038 250.735C178.053 250.802 178.082 250.865 178.123 250.92C178.163 250.976 178.215 251.022 178.274 251.057C178.333 251.092 178.399 251.115 178.467 251.124L183.774 251.456C183.892 251.456 184.005 251.412 184.092 251.332C184.179 251.253 184.232 251.143 184.241 251.026L185.227 241.31L179.037 239.844Z" fill="white"/>
<path d="M183.803 251.936H183.746L178.434 251.61C178.309 251.6 178.187 251.565 178.075 251.508C177.964 251.45 177.865 251.37 177.785 251.273C177.694 251.164 177.627 251.037 177.587 250.901C177.546 250.764 177.534 250.621 177.551 250.48L178.556 239.797C178.563 239.728 178.585 239.661 178.62 239.601C178.654 239.541 178.701 239.488 178.757 239.447C178.813 239.406 178.877 239.378 178.945 239.365C179.012 239.353 179.082 239.355 179.149 239.372L185.335 240.838C185.452 240.862 185.555 240.929 185.623 241.027C185.692 241.124 185.721 241.243 185.704 241.361L184.718 251.073C184.701 251.305 184.597 251.522 184.428 251.682C184.258 251.842 184.035 251.932 183.803 251.936ZM178.523 250.643L183.751 250.965L184.686 241.683L179.453 240.441L178.518 250.578C178.513 250.6 178.515 250.622 178.523 250.643Z" fill="black"/>
<path d="M177.191 247.763C176.841 249.028 176.098 252.586 175.79 254.729C175.697 255.376 175.845 256.035 176.204 256.581C176.564 257.127 177.111 257.522 177.742 257.694C181.419 258.683 190.203 258.627 197.519 258.964C197.942 258.968 198.355 258.828 198.688 258.568C199.022 258.307 199.257 257.942 199.355 257.53C200.757 253.417 193.057 252.142 185.461 247.959C185.387 247.922 185.305 247.905 185.223 247.91C185.141 247.915 185.062 247.941 184.993 247.987L184.666 248.206C183.923 248.616 183.089 248.835 182.239 248.841C181.39 248.848 180.553 248.642 179.803 248.243L178.289 247.31C178.19 247.25 178.079 247.214 177.963 247.205C177.848 247.197 177.733 247.215 177.626 247.259C177.519 247.303 177.424 247.372 177.349 247.459C177.273 247.547 177.219 247.651 177.191 247.763Z" fill="#52A5D8"/>
<path d="M197.576 259.449H197.515C195.646 259.365 193.651 259.304 191.722 259.248C185.914 259.076 180.425 258.912 177.635 258.16C176.89 257.958 176.244 257.491 175.82 256.846C175.395 256.201 175.222 255.423 175.332 254.659C175.641 252.52 176.383 248.948 176.734 247.655C176.782 247.473 176.873 247.305 176.999 247.164C177.125 247.024 177.282 246.915 177.458 246.847C177.631 246.776 177.819 246.747 178.006 246.762C178.193 246.777 178.373 246.837 178.532 246.936L180.046 247.87C180.718 248.223 181.467 248.405 182.227 248.401C182.986 248.396 183.733 248.204 184.401 247.842L184.709 247.632C184.852 247.532 185.02 247.474 185.194 247.465C185.369 247.456 185.542 247.496 185.695 247.58C187.979 248.836 190.292 249.835 192.334 250.723C197.132 252.8 200.926 254.458 199.809 257.726C199.668 258.213 199.376 258.643 198.974 258.953C198.573 259.262 198.083 259.436 197.576 259.449ZM177.892 247.711C177.861 247.708 177.83 247.708 177.799 247.711C177.763 247.727 177.732 247.75 177.706 247.779C177.68 247.808 177.661 247.842 177.649 247.879C177.294 249.158 176.556 252.735 176.248 254.78C176.171 255.311 176.291 255.851 176.585 256.299C176.88 256.747 177.328 257.072 177.846 257.213C180.527 257.936 186.213 258.104 191.712 258.268C193.642 258.324 195.641 258.384 197.52 258.469C197.837 258.464 198.143 258.352 198.388 258.151C198.633 257.95 198.803 257.672 198.87 257.362C199.659 255.027 196.889 253.701 191.927 251.554C189.872 250.662 187.54 249.658 185.223 248.383L184.896 248.603C184.076 249.057 183.154 249.299 182.216 249.305C181.279 249.312 180.354 249.083 179.528 248.64L178.009 247.706C177.97 247.7 177.931 247.701 177.892 247.711Z" fill="black"/>
<path d="M175.556 255.695C175.554 255.72 175.554 255.745 175.556 255.77C175.36 257.114 176.635 257.941 177.855 258.511C181.476 260.21 196.076 259.234 196.664 259.197H196.697C196.879 259.197 198.734 259.197 199.267 258.048C199.337 257.877 199.383 257.696 199.402 257.511C199.442 257.2 199.426 256.884 199.356 256.578C199.326 256.461 199.252 256.361 199.15 256.298C199.049 256.234 198.926 256.213 198.809 256.237C196.094 256.932 189.759 257.171 183.424 256.465C179.219 255.999 177.388 255.065 176.416 254.5C176.353 254.467 176.284 254.45 176.213 254.448C176.143 254.446 176.072 254.46 176.008 254.49C175.944 254.519 175.887 254.562 175.842 254.617C175.797 254.671 175.765 254.735 175.748 254.803C175.687 255.069 175.626 255.396 175.556 255.695Z" fill="white"/>
<path d="M187.465 260C183.508 260 179.406 259.776 177.654 258.949C176.874 258.585 174.804 257.609 175.08 255.681C175.08 255.681 175.08 255.634 175.08 255.583L175.253 254.701C175.281 254.553 175.345 254.414 175.438 254.296C175.532 254.178 175.652 254.085 175.79 254.024C175.926 253.963 176.075 253.937 176.224 253.946C176.372 253.954 176.517 253.999 176.645 254.075C177.654 254.682 179.448 255.536 183.466 255.975C190.007 256.694 196.174 256.4 198.678 255.76C198.798 255.731 198.922 255.725 199.044 255.743C199.166 255.762 199.283 255.804 199.388 255.868C199.495 255.933 199.588 256.019 199.661 256.121C199.734 256.223 199.786 256.338 199.814 256.461C199.897 256.82 199.916 257.192 199.87 257.558C199.844 257.789 199.786 258.016 199.697 258.23C199.047 259.631 197.062 259.664 196.674 259.664C195.875 259.738 191.754 260 187.465 260ZM176.042 255.798V255.854C175.925 256.68 176.547 257.367 178.07 258.081C180.873 259.398 191.446 259.08 196.641 258.725C196.668 258.723 196.694 258.723 196.721 258.725C197.309 258.725 198.51 258.562 198.837 257.852C198.888 257.727 198.92 257.595 198.931 257.46C198.961 257.219 198.95 256.974 198.898 256.736C196.286 257.39 189.984 257.693 183.382 256.965C179.233 256.498 177.308 255.606 176.206 254.957L176.042 255.798Z" fill="black"/>
<path d="M185.974 251.768C185.9 251.769 185.826 251.752 185.759 251.719C185.693 251.686 185.635 251.637 185.591 251.577C185.55 251.528 185.52 251.47 185.503 251.409C185.485 251.347 185.48 251.283 185.488 251.219C185.497 251.156 185.518 251.095 185.551 251.04C185.584 250.985 185.628 250.937 185.68 250.9L187.899 249.21C187.949 249.169 188.006 249.139 188.068 249.122C188.13 249.105 188.195 249.1 188.258 249.109C188.322 249.118 188.383 249.14 188.438 249.173C188.492 249.206 188.54 249.251 188.577 249.303C188.617 249.353 188.648 249.41 188.665 249.471C188.683 249.533 188.688 249.597 188.679 249.661C188.671 249.724 188.65 249.786 188.617 249.84C188.584 249.895 188.54 249.943 188.488 249.98L186.269 251.661C186.185 251.728 186.081 251.765 185.974 251.768Z" fill="black"/>
<path d="M188.922 252.978C188.847 252.979 188.772 252.962 188.704 252.927C188.637 252.893 188.578 252.843 188.534 252.782C188.498 252.732 188.472 252.676 188.457 252.616C188.443 252.556 188.44 252.494 188.45 252.433C188.46 252.373 188.481 252.314 188.513 252.262C188.545 252.21 188.587 252.164 188.637 252.128L190.576 250.671C190.626 250.631 190.684 250.601 190.746 250.584C190.808 250.567 190.873 250.563 190.936 250.573C191 250.582 191.061 250.604 191.115 250.638C191.17 250.672 191.217 250.716 191.254 250.769C191.294 250.819 191.324 250.876 191.341 250.938C191.359 251 191.363 251.065 191.354 251.128C191.346 251.192 191.324 251.253 191.29 251.307C191.257 251.362 191.213 251.409 191.16 251.446L189.217 252.903C189.13 252.96 189.026 252.986 188.922 252.978Z" fill="black"/>
<path d="M163.25 140.972C163.25 140.972 159.045 149.404 157.62 158.285C156.298 166.549 151.444 200.591 139.619 227.896C138.278 230.991 139.825 234.213 143.123 234.932C144.441 235.217 144.992 234.75 146.137 234.194C146.692 233.865 147.216 233.485 147.702 233.06C147.702 233.06 168.642 215.574 177.177 169.682C182.672 140.169 181.756 142.508 181.756 142.508L163.25 140.972Z" fill="#52A5D8"/>
<path d="M169.128 144.833C169.128 144.833 166.67 160.848 171.319 172.698C175.79 184.095 178.645 228.769 176.981 241.674C176.929 242.064 177.034 242.458 177.272 242.772C177.51 243.085 177.862 243.291 178.252 243.346C180.284 243.63 183.952 244.018 186.461 243.546C186.684 243.504 186.891 243.399 187.056 243.244C187.222 243.088 187.339 242.889 187.395 242.668C189.054 236.132 202.785 176.928 193.1 146.594L169.128 144.833Z" fill="#52A5D8"/>
<path d="M173.827 186.561C173.703 186.561 173.584 186.512 173.497 186.424C173.409 186.336 173.36 186.218 173.36 186.094C172.961 181.956 171.928 177.904 170.295 174.08C169.381 171.845 168.773 169.498 168.487 167.1C168.476 167.037 168.479 166.972 168.494 166.91C168.51 166.848 168.538 166.79 168.577 166.739C168.616 166.688 168.665 166.646 168.721 166.615C168.777 166.584 168.839 166.565 168.903 166.559C168.966 166.548 169.031 166.551 169.093 166.566C169.155 166.582 169.213 166.61 169.264 166.649C169.315 166.688 169.357 166.737 169.388 166.793C169.419 166.849 169.438 166.91 169.445 166.974C169.721 169.283 170.307 171.545 171.187 173.698C172.874 177.621 173.934 181.785 174.327 186.038C174.333 186.103 174.325 186.168 174.304 186.229C174.283 186.291 174.25 186.348 174.206 186.396C174.162 186.443 174.108 186.482 174.049 186.508C173.989 186.534 173.925 186.547 173.86 186.547L173.827 186.561Z" fill="#99B9FF"/>
<path d="M180.27 169.902C179.329 169.904 178.411 169.608 177.649 169.057L174.799 166.998C174.309 166.643 173.904 166.182 173.614 165.651C173.325 165.119 173.158 164.53 173.126 163.925L172.659 154.867C172.648 154.643 172.686 154.418 172.772 154.21C172.857 154.001 172.988 153.815 173.154 153.663C173.32 153.51 173.519 153.396 173.735 153.33C173.95 153.263 174.179 153.246 174.402 153.28C178.557 153.886 182.77 153.993 186.951 153.597C187.159 153.575 187.37 153.596 187.571 153.659C187.771 153.721 187.956 153.824 188.114 153.962C188.272 154.099 188.4 154.267 188.49 154.456C188.58 154.645 188.63 154.85 188.638 155.059L188.913 163.711C188.939 164.516 188.725 165.31 188.297 165.993C187.87 166.676 187.248 167.216 186.512 167.544L182.111 169.514C181.532 169.774 180.904 169.906 180.27 169.902ZM174.154 154.232C174.016 154.232 173.882 154.284 173.78 154.377C173.719 154.432 173.67 154.5 173.639 154.576C173.607 154.652 173.593 154.734 173.598 154.816L174.065 163.874C174.089 164.334 174.217 164.782 174.437 165.186C174.658 165.59 174.967 165.94 175.341 166.208L178.186 168.268C178.684 168.626 179.268 168.848 179.879 168.911C180.489 168.974 181.106 168.876 181.667 168.627L186.063 166.657C186.625 166.407 187.099 165.995 187.426 165.475C187.752 164.954 187.915 164.348 187.895 163.734L187.619 155.087C187.616 155.01 187.597 154.936 187.564 154.867C187.531 154.798 187.485 154.736 187.427 154.685C187.37 154.635 187.302 154.597 187.229 154.574C187.156 154.552 187.078 154.545 187.002 154.555C182.741 154.956 178.446 154.848 174.21 154.232H174.154Z" fill="#99B9FF"/>
<path d="M159.035 167.856C158.714 167.856 158.401 167.757 158.138 167.572L157.003 166.801C156.948 166.767 156.901 166.723 156.865 166.67C156.828 166.617 156.803 166.557 156.791 166.494C156.779 166.431 156.779 166.366 156.793 166.303C156.807 166.24 156.834 166.181 156.872 166.129C156.907 166.075 156.952 166.028 157.005 165.992C157.058 165.956 157.118 165.931 157.181 165.919C157.244 165.908 157.309 165.909 157.372 165.923C157.434 165.938 157.493 165.965 157.545 166.003L158.69 166.773C158.776 166.837 158.879 166.875 158.986 166.884C159.093 166.893 159.201 166.873 159.297 166.825L164.142 164.364C164.23 164.32 164.306 164.254 164.361 164.172C164.416 164.09 164.448 163.995 164.455 163.897L165.548 153.817C165.565 153.671 165.526 153.525 165.439 153.407C165.353 153.29 165.225 153.209 165.081 153.182L160.502 152.458C160.439 152.45 160.378 152.429 160.323 152.397C160.268 152.365 160.22 152.321 160.182 152.27C160.144 152.218 160.118 152.159 160.104 152.097C160.09 152.034 160.089 151.97 160.101 151.907C160.108 151.843 160.129 151.782 160.162 151.726C160.195 151.671 160.239 151.623 160.291 151.585C160.343 151.547 160.402 151.521 160.465 151.507C160.528 151.493 160.594 151.493 160.657 151.506L165.231 152.225C165.625 152.285 165.982 152.495 166.225 152.812C166.468 153.129 166.578 153.527 166.534 153.924L165.441 164C165.414 164.256 165.323 164.501 165.177 164.713C165.031 164.925 164.834 165.097 164.605 165.214L159.76 167.674C159.537 167.793 159.288 167.856 159.035 167.856Z" fill="#99B9FF"/>
<path d="M143.1 240.114C143.745 236.888 144.034 236.225 145.571 233.737C146.725 231.869 143.927 229.1 142.502 228.885C140.124 228.419 140.502 229.152 137.783 232.621L135.657 235.235C135.657 235.235 142.534 242.935 143.1 240.114Z" fill="white"/>
<path d="M142.464 241.217C140.502 241.217 136.521 236.94 135.292 235.572C135.214 235.486 135.17 235.373 135.17 235.257C135.17 235.14 135.214 235.027 135.292 234.941L137.311 232.481C137.903 231.72 138.444 230.922 138.932 230.09C138.963 230.034 139.005 229.985 139.056 229.945C139.106 229.906 139.165 229.878 139.227 229.862C139.289 229.846 139.354 229.843 139.417 229.854C139.481 229.864 139.541 229.887 139.595 229.922C139.652 229.953 139.701 229.995 139.74 230.046C139.78 230.097 139.808 230.155 139.824 230.217C139.84 230.279 139.843 230.344 139.832 230.407C139.822 230.471 139.798 230.531 139.764 230.585C139.254 231.454 138.687 232.289 138.068 233.083L136.302 235.236C138.712 237.874 141.684 240.474 142.511 240.245C142.567 240.245 142.604 240.152 142.632 240.021C143.216 237.103 143.417 236.253 144.636 234.222C144.667 234.166 144.709 234.117 144.76 234.077C144.811 234.038 144.869 234.01 144.932 233.994C144.994 233.978 145.059 233.975 145.122 233.986C145.185 233.996 145.246 234.019 145.3 234.054C145.356 234.085 145.406 234.127 145.445 234.178C145.484 234.229 145.513 234.287 145.529 234.349C145.544 234.411 145.547 234.476 145.537 234.539C145.526 234.603 145.503 234.663 145.468 234.717C144.328 236.622 144.151 237.365 143.599 240.208C143.573 240.432 143.483 240.643 143.338 240.815C143.194 240.988 143.002 241.114 142.786 241.179C142.681 241.206 142.573 241.219 142.464 241.217Z" fill="black"/>
<path d="M143.473 238.905L140.721 234.755C140.421 234.3 140.023 233.917 139.557 233.634C139.091 233.351 138.568 233.174 138.025 233.116C137.483 233.059 136.934 233.122 136.419 233.301C135.904 233.48 135.435 233.771 135.045 234.152L131.896 236.795C131.896 236.795 131.293 238.611 131.485 239.783C131.803 241.798 132.369 243.767 133.171 245.643C134.634 248.958 138.684 255.625 140.123 257.964C140.427 258.431 141.179 258.94 141.707 258.707C142.408 258.354 143.048 257.892 143.604 257.339C144.571 256.433 144.249 252.203 143.903 249.238C143.679 247.342 143.842 242.514 143.903 240.521C143.934 239.951 143.783 239.385 143.473 238.905Z" fill="#52A5D8"/>
<path d="M141.398 259.253C141.056 259.224 140.726 259.116 140.433 258.937C140.14 258.758 139.893 258.513 139.712 258.221C138.095 255.593 134.185 249.131 132.732 245.839C131.913 243.925 131.332 241.918 131.003 239.863C130.798 238.588 131.41 236.72 131.433 236.641L131.475 236.515L134.717 233.793C135.158 233.367 135.687 233.043 136.266 232.843C136.846 232.643 137.462 232.572 138.072 232.635C138.687 232.703 139.279 232.905 139.806 233.228C140.333 233.551 140.783 233.986 141.123 234.502L143.874 238.653C144.251 239.217 144.437 239.886 144.407 240.563C144.328 242.538 144.164 247.342 144.407 249.201C145.173 255.737 144.519 257.185 143.94 257.708C143.347 258.288 142.664 258.769 141.917 259.132C141.755 259.208 141.578 259.25 141.398 259.253ZM132.311 237.075C132.032 237.922 131.914 238.813 131.961 239.704C132.274 241.679 132.83 243.608 133.615 245.447C135.086 248.78 139.282 255.677 140.534 257.712C140.754 258.067 141.282 258.366 141.51 258.263C142.163 257.935 142.758 257.503 143.272 256.984C143.496 256.778 144.159 255.583 143.421 249.294C143.192 247.366 143.361 242.505 143.421 240.502C143.442 240.031 143.313 239.565 143.052 239.172L140.296 235.021C140.034 234.629 139.689 234.3 139.285 234.058C138.881 233.816 138.429 233.666 137.96 233.62C137.488 233.569 137.011 233.623 136.563 233.778C136.114 233.933 135.706 234.185 135.367 234.516V234.544L132.311 237.075Z" fill="black"/>
<path d="M143.786 244.121C143.745 244.127 143.702 244.127 143.66 244.121L140.698 243.308C140.635 243.294 140.576 243.266 140.524 243.228C140.472 243.189 140.428 243.14 140.396 243.084C140.364 243.028 140.344 242.966 140.337 242.902C140.331 242.837 140.337 242.772 140.357 242.711C140.372 242.648 140.4 242.589 140.439 242.538C140.477 242.486 140.527 242.443 140.583 242.412C140.639 242.38 140.701 242.361 140.765 242.354C140.829 242.348 140.894 242.355 140.955 242.374L143.917 243.187C143.979 243.202 144.038 243.229 144.089 243.268C144.14 243.306 144.183 243.355 144.214 243.41C144.246 243.466 144.265 243.527 144.272 243.591C144.279 243.655 144.273 243.719 144.254 243.78C144.225 243.881 144.164 243.969 144.079 244.031C143.994 244.093 143.891 244.124 143.786 244.121Z" fill="black"/>
<path d="M143.581 246.763C143.539 246.77 143.496 246.77 143.454 246.763L140.516 245.932C140.453 245.918 140.393 245.891 140.341 245.852C140.289 245.813 140.246 245.764 140.214 245.708C140.182 245.652 140.162 245.59 140.155 245.526C140.148 245.461 140.155 245.396 140.175 245.335C140.19 245.272 140.217 245.213 140.256 245.162C140.295 245.11 140.344 245.067 140.4 245.036C140.456 245.004 140.518 244.985 140.582 244.978C140.647 244.972 140.711 244.979 140.773 244.998L143.735 245.811C143.797 245.826 143.855 245.853 143.906 245.892C143.957 245.93 144 245.979 144.031 246.034C144.063 246.09 144.083 246.151 144.09 246.215C144.096 246.279 144.09 246.343 144.071 246.404C144.046 246.512 143.982 246.608 143.892 246.674C143.802 246.74 143.692 246.772 143.581 246.763Z" fill="black"/>
<path d="M140.558 258.926C140.847 258.926 141.135 258.879 141.408 258.786C142.296 258.483 144.506 257.824 144.258 254.654C144.006 251.386 141.502 249.691 139.675 247.534C138.274 245.89 138.423 239.008 137.984 237.659C137.199 235.245 133.672 234.857 131.91 236.795C130.789 238.004 130.653 240.628 130.766 242.556C130.966 246.17 133.102 253.365 135.779 256.839C137.077 258.534 139.114 258.926 140.558 258.926Z" fill="white"/>
<path d="M140.558 259.407C139.282 259.407 136.914 259.113 135.381 257.133C132.578 253.477 130.462 246.077 130.242 242.585C130.149 240.913 130.186 237.915 131.518 236.468C132.05 235.913 132.717 235.505 133.453 235.282C134.19 235.058 134.971 235.028 135.722 235.193C136.338 235.306 136.913 235.583 137.385 235.993C137.858 236.404 138.211 236.934 138.409 237.528C138.611 238.512 138.729 239.512 138.759 240.516C138.932 242.809 139.194 246.278 140.011 247.244C140.422 247.711 140.88 248.178 141.324 248.645C142.885 250.256 144.496 251.913 144.707 254.621C144.973 258.072 142.529 258.907 141.609 259.22L141.53 259.248C141.216 259.352 140.888 259.406 140.558 259.407ZM134.793 236.062C134.318 236.057 133.848 236.149 133.411 236.333C132.973 236.517 132.579 236.788 132.251 237.131C131.457 237.981 131.088 239.932 131.233 242.533C131.424 245.904 133.433 253.034 136.152 256.54C137.428 258.188 139.46 258.436 140.558 258.436C140.795 258.437 141.03 258.4 141.254 258.324L141.333 258.296C142.268 257.978 143.987 257.39 143.777 254.687C143.595 252.352 142.17 250.863 140.665 249.313C140.198 248.846 139.731 248.379 139.306 247.842C138.287 246.637 138.035 243.271 137.834 240.567C137.798 239.641 137.695 238.719 137.526 237.808C137.376 237.379 137.115 236.997 136.768 236.702C136.421 236.407 136.002 236.211 135.554 236.132C135.304 236.079 135.048 236.054 134.793 236.057V236.062Z" fill="black"/>
<path d="M140.558 259.407C140.197 259.406 139.837 259.385 139.479 259.342C139.415 259.336 139.352 259.316 139.296 259.285C139.24 259.254 139.19 259.211 139.151 259.16C139.112 259.108 139.084 259.049 139.069 258.987C139.054 258.924 139.052 258.859 139.063 258.795C139.069 258.732 139.088 258.67 139.12 258.614C139.151 258.558 139.193 258.509 139.244 258.47C139.295 258.431 139.353 258.403 139.415 258.387C139.477 258.372 139.542 258.369 139.605 258.38C139.915 258.421 140.227 258.441 140.539 258.441C140.8 258.451 141.06 258.405 141.302 258.307C141.544 258.209 141.762 258.06 141.941 257.871C142.073 257.72 142.169 257.541 142.224 257.348C142.278 257.155 142.288 256.953 142.254 256.755C141.82 253.622 140.142 252.016 138.199 250.153C136.456 248.482 136.054 243.313 135.835 240.54C135.783 239.877 135.737 239.251 135.695 239.106C135.526 238.494 134.583 237.705 133.489 237.607C133.075 237.545 132.652 237.618 132.284 237.816C131.915 238.014 131.62 238.325 131.443 238.705C131.415 238.762 131.375 238.814 131.327 238.855C131.278 238.897 131.221 238.929 131.16 238.947C131.098 238.966 131.034 238.972 130.97 238.965C130.906 238.958 130.845 238.937 130.789 238.905C130.731 238.877 130.68 238.838 130.638 238.789C130.596 238.74 130.565 238.684 130.546 238.622C130.527 238.561 130.521 238.496 130.528 238.433C130.536 238.369 130.556 238.307 130.588 238.252C130.857 237.702 131.292 237.25 131.832 236.962C132.373 236.674 132.99 236.563 133.597 236.646C134.998 236.8 136.335 237.766 136.629 238.849C136.72 239.382 136.778 239.92 136.802 240.46C136.993 242.921 137.39 248.038 138.872 249.453C140.857 251.358 142.735 253.155 143.212 256.62C143.262 256.951 143.24 257.29 143.147 257.612C143.054 257.934 142.893 258.233 142.675 258.487C142.407 258.782 142.08 259.016 141.715 259.175C141.351 259.334 140.956 259.413 140.558 259.407Z" fill="black"/>
<path d="M146.772 148.583C146.772 148.583 142.96 147.588 141.969 148.443C141.717 148.667 142.544 153.635 142.268 153.882C140.969 155.077 138.937 156.614 138.53 157.729C137.862 159.452 138.661 164.453 139.068 166.694C139.113 166.946 139.238 167.176 139.425 167.351C139.611 167.526 139.849 167.636 140.104 167.666C140.358 167.695 140.615 167.642 140.836 167.514C141.058 167.386 141.232 167.19 141.334 166.955C141.462 166.568 141.502 166.156 141.45 165.751C141.349 164.493 141.405 163.227 141.619 161.983C141.678 161.694 141.845 161.439 142.086 161.269C143.179 160.456 146.552 157.828 147.048 155.867C147.055 155.414 146.977 154.964 146.819 154.541C146.678 154.078 146.615 153.595 146.632 153.112L146.772 148.583Z" fill="white"/>
<path d="M140.245 168.16H140.058C139.694 168.125 139.351 167.972 139.082 167.724C138.813 167.476 138.632 167.147 138.568 166.787C138.101 164.112 137.362 159.349 138.054 157.561C138.432 156.59 139.722 155.474 140.969 154.391C141.273 154.13 141.572 153.873 141.843 153.63C141.866 153.233 141.731 151.991 141.637 151.141C141.366 148.648 141.371 148.34 141.637 148.088C142.759 147.117 146.197 147.948 146.875 148.125C146.98 148.149 147.074 148.208 147.14 148.293C147.207 148.379 147.242 148.484 147.239 148.592L147.085 153.116C147.071 153.548 147.128 153.978 147.253 154.391C147.561 155.409 147.538 155.792 147.491 155.974C146.968 158.042 143.716 160.643 142.352 161.647C142.216 161.748 142.123 161.896 142.09 162.062C141.885 163.266 141.83 164.491 141.927 165.709C141.975 166.191 141.912 166.678 141.745 167.133C141.628 167.435 141.422 167.695 141.154 167.879C140.887 168.062 140.57 168.16 140.245 168.16ZM142.404 148.737C142.404 149.138 142.511 150.217 142.6 151.029C142.88 153.621 142.88 153.98 142.6 154.242C142.319 154.503 141.96 154.811 141.609 155.115C140.558 156.025 139.273 157.155 138.96 157.916C138.526 159.041 138.736 162.296 139.526 166.619C139.552 166.774 139.629 166.915 139.745 167.021C139.861 167.126 140.009 167.191 140.166 167.203C140.312 167.222 140.461 167.192 140.588 167.116C140.715 167.041 140.813 166.925 140.866 166.787C140.977 166.468 141.016 166.128 140.979 165.793C140.877 164.494 140.937 163.188 141.156 161.903C141.234 161.498 141.461 161.137 141.791 160.89C143.866 159.354 146.211 157.197 146.576 155.754C146.553 155.389 146.476 155.028 146.347 154.685C146.192 154.172 146.123 153.638 146.141 153.102L146.281 148.975C144.922 148.648 143.048 148.415 142.385 148.737H142.404Z" fill="black"/>
<path d="M224.183 88.5995L225.986 86.8673C227.327 85.7328 227.827 83.2582 227.827 83.2582C228.066 82.3224 228.608 81.4919 229.369 80.8956L236.928 75.022C237.041 74.9338 237.175 74.8762 237.317 74.8547C237.459 74.8332 237.604 74.8485 237.738 74.8991C237.872 74.9497 237.991 75.034 238.083 75.1439C238.175 75.2537 238.238 75.3854 238.264 75.5262C238.367 76.1426 238.222 76.927 237.283 77.7861L235.274 79.4436C235.1 79.5847 234.983 79.7834 234.944 80.0037C234.904 80.2239 234.945 80.4509 235.059 80.6435C235.693 81.6646 235.898 82.8946 235.629 84.0659C234.783 87.2175 231.027 88.2961 230.088 88.5155C229.953 88.5482 227.5 92.2507 227.5 92.2507L224.183 88.5995Z" fill="white"/>
<path d="M227.5 92.7178C227.432 92.7184 227.366 92.7045 227.305 92.6771C227.243 92.6497 227.189 92.6094 227.144 92.559L223.823 88.9219C223.777 88.8783 223.741 88.8261 223.717 88.7683C223.692 88.7106 223.68 88.6485 223.68 88.5857C223.68 88.5229 223.692 88.4608 223.717 88.4031C223.741 88.3453 223.777 88.2931 223.823 88.2495L225.626 86.5173C226.845 85.4854 227.327 83.1883 227.331 83.1649C227.591 82.1149 228.197 81.1826 229.051 80.5176L236.605 74.6393C236.787 74.4995 237.001 74.4089 237.228 74.3762C237.455 74.3435 237.686 74.3698 237.899 74.4525C238.11 74.5329 238.297 74.667 238.44 74.8414C238.584 75.0158 238.679 75.2245 238.717 75.447C238.829 76.1147 238.717 77.1185 237.582 78.1457L235.559 79.8172C235.477 79.8876 235.422 79.9842 235.403 80.0907C235.384 80.1971 235.403 80.3067 235.456 80.4009C235.804 80.961 236.037 81.5843 236.143 82.235C236.249 82.8856 236.225 83.5508 236.073 84.1921C235.204 87.4278 231.62 88.623 230.321 88.9545C230.008 89.3514 228.882 90.9996 227.883 92.503C227.84 92.5634 227.785 92.6139 227.722 92.6509C227.658 92.688 227.587 92.7108 227.514 92.7178H227.5ZM224.855 88.6184L227.443 91.4525C229.667 88.1188 229.779 88.1001 229.98 88.0487C230.705 87.876 234.377 86.8628 235.162 83.94C235.401 82.8937 235.214 81.7954 234.643 80.8864C234.473 80.5945 234.413 80.2518 234.472 79.9194C234.531 79.5869 234.706 79.286 234.965 79.0702L236.974 77.4127C237.255 77.2092 237.478 76.9358 237.621 76.6196C237.763 76.3035 237.821 75.9556 237.787 75.6104C237.776 75.5529 237.751 75.4992 237.713 75.4543C237.675 75.4094 237.627 75.3747 237.572 75.3536C237.515 75.3317 237.453 75.3249 237.393 75.3339C237.332 75.3429 237.275 75.3674 237.227 75.405L229.667 81.2786C228.991 81.8066 228.51 82.544 228.298 83.375C228.298 83.4638 227.752 86.0084 226.299 87.2363L224.855 88.6184Z" fill="black"/>
<path d="M229.546 90.1778L225.378 86.0083C225.184 85.9066 224.961 85.8711 224.744 85.9074C224.527 85.9436 224.329 86.0496 224.178 86.2091C214.707 95.3417 207.484 94.3566 199.883 92.4516C199.883 92.4516 192.099 90.6353 189.941 90.4346C188.315 90.2805 183.989 89.1833 173.864 90.3178C169.926 90.7571 166.11 91.9559 162.628 93.8476L162.105 94.1278C162.105 94.1278 133.461 112.08 140.464 150.843C140.501 151.055 140.609 151.248 140.772 151.389C140.935 151.53 141.141 151.611 141.356 151.618H147.112C147.346 151.611 147.569 151.517 147.736 151.355C147.904 151.192 148.005 150.973 148.019 150.74C148.276 146.72 149.841 129.37 157.9 119.751C158.099 119.508 158.36 119.322 158.655 119.214C158.951 119.107 159.27 119.081 159.579 119.139C159.888 119.197 160.175 119.338 160.411 119.546C160.647 119.754 160.822 120.022 160.918 120.321C161.563 122.366 161.727 126.727 160.035 135.906C159.984 136.182 157.853 147.014 157.853 147.014C157.853 147.014 180.279 150.852 188.086 149.451C194.263 148.345 196.127 146.823 196.636 146.234C196.691 146.171 196.733 146.096 196.757 146.016C196.782 145.936 196.79 145.851 196.781 145.767L195.874 137.877C195.552 135.015 194.758 129.668 195.697 122.852C196.991 113.481 202.611 113.663 202.611 113.663C209.75 113.196 222.575 114.704 229.985 91.3217C230.055 91.1097 230.05 90.8798 229.97 90.6713C229.89 90.4627 229.74 90.2884 229.546 90.1778Z" fill="black"/>
<path d="M191.74 70.4324C191.74 70.4324 193.104 72.5241 193.17 74.2423C193.275 75.5074 193.721 76.7205 194.459 77.7534C194.505 77.8261 194.524 77.9126 194.513 77.9978C194.502 78.0831 194.462 78.1618 194.399 78.2203L193.319 79.1541C193.282 79.185 193.252 79.2235 193.231 79.267C193.21 79.3105 193.199 79.358 193.198 79.4063C193.198 80.0132 193.142 82.2544 193.067 82.6746C192.975 83.0834 192.733 83.4431 192.39 83.6831C191.876 83.9539 189.666 83.6457 189.666 83.6457C189.666 83.6457 189.073 83.6971 187.872 86.83C186.578 90.2151 189.171 91.5271 189.171 91.5271C190.142 92.05 189.988 93.0165 188.923 93.3433C185.26 94.4639 178.145 95.6779 174.015 92.5589C173.239 91.9753 173.547 91.3543 174.234 91.2049C184.092 89.0198 179.518 78.6919 179.724 78.6359C180.252 78.5051 183.293 75.3675 185.064 74.4898C186.274 73.8875 187.722 74.7933 188.708 73.8781L191.74 70.4324Z" fill="white"/>
<path d="M181.205 95.0522C178.588 95.0522 175.827 94.5573 173.729 92.9698C173.506 92.8413 173.326 92.6479 173.215 92.4152C173.104 92.1826 173.067 91.9216 173.108 91.6671C173.174 91.4335 173.305 91.2237 173.486 91.0623C173.668 90.901 173.891 90.7949 174.131 90.7567C176.542 90.2244 178.247 89.1319 179.196 87.521C180.938 84.5702 179.766 80.5828 179.378 79.2755C179.228 78.7666 179.186 78.6312 179.303 78.4257C179.335 78.3671 179.379 78.3159 179.432 78.2756C179.485 78.2354 179.546 78.2069 179.611 78.1923C180.119 77.8142 180.605 77.409 181.069 76.9783C182.265 75.9325 183.755 74.6438 184.853 74.0789C185.476 73.8201 186.157 73.7346 186.825 73.8314C187.54 73.8781 188.002 73.8874 188.367 73.5606L191.38 70.1149C191.428 70.057 191.489 70.0115 191.558 69.9823C191.627 69.953 191.702 69.9408 191.777 69.9468C191.852 69.9533 191.924 69.9764 191.989 70.0143C192.054 70.0523 192.109 70.1042 192.151 70.1662C192.207 70.2596 193.585 72.3934 193.655 74.2236C193.755 75.4024 194.174 76.532 194.866 77.4919C194.984 77.6655 195.034 77.8762 195.007 78.0843C194.981 78.2925 194.879 78.4837 194.721 78.6219L193.684 79.523C193.684 80.5969 193.623 82.3851 193.548 82.7913C193.49 83.067 193.377 83.3283 193.217 83.56C193.056 83.7917 192.851 83.9891 192.614 84.1406C192.072 84.4255 190.563 84.2807 189.773 84.178C189.605 84.3461 189.114 84.9671 188.325 87.0308C187.208 89.9489 189.301 91.0788 189.39 91.1255C189.668 91.2442 189.903 91.4443 190.065 91.6993C190.227 91.9544 190.307 92.2525 190.296 92.5543C190.243 92.866 190.098 93.1546 189.879 93.3827C189.66 93.6108 189.377 93.7679 189.068 93.8336C186.516 94.6018 183.869 95.012 181.205 95.0522ZM180.27 78.902L180.298 79C180.714 80.4008 181.98 84.7009 180.023 88.016C178.929 89.8836 177.014 91.1068 174.332 91.6998C174.136 91.7465 174.052 91.8352 174.047 91.8726C174.042 91.9099 174.075 92.022 174.304 92.1947C178.911 95.6778 187.171 93.3994 188.787 92.9044C189.105 92.8064 189.32 92.629 189.339 92.4375C189.357 92.2461 189.203 92.1014 188.946 91.9706C188.923 91.9706 185.993 90.4205 187.423 86.6713C188.292 84.4021 189.035 83.2302 189.628 83.1788H189.736C190.539 83.3237 191.359 83.3521 192.17 83.2629C192.381 83.0931 192.531 82.8584 192.595 82.5952C192.642 82.3524 192.688 81.0731 192.716 79.4156C192.719 79.2994 192.745 79.1851 192.794 79.0797C192.844 78.9744 192.914 78.8805 193.001 78.8039L194.006 77.9262C193.246 76.8395 192.791 75.569 192.688 74.247C192.562 73.184 192.214 72.1596 191.665 71.2401L189.077 74.2049L189.044 74.2376C188.353 74.8819 187.512 74.8306 186.769 74.7839C186.271 74.7046 185.76 74.7561 185.288 74.9333C184.297 75.4236 182.802 76.7356 181.709 77.6927C180.99 78.3277 180.564 78.6966 180.275 78.9067L180.27 78.902Z" fill="black"/>
<path d="M194.371 77.9728C194.247 77.9728 194.128 77.9236 194.04 77.8361C193.953 77.7485 193.903 77.6298 193.903 77.5059C193.9 77.4415 193.91 77.3772 193.932 77.3165C193.953 77.2558 193.987 77.2 194.03 77.1523C194.074 77.1046 194.126 77.0659 194.185 77.0385C194.243 77.011 194.306 76.9953 194.371 76.9923C194.474 76.9913 194.576 76.9663 194.669 76.9193C194.761 76.8723 194.841 76.8046 194.903 76.7215C195.277 76.2546 195.272 75.2555 195.207 74.6111L187.951 75.6663C187.888 75.6776 187.824 75.6759 187.762 75.6613C187.7 75.6467 187.641 75.6195 187.59 75.5814C187.539 75.5434 187.496 75.4952 187.464 75.44C187.432 75.3847 187.412 75.3235 187.405 75.2601C187.393 75.1967 187.394 75.1314 187.409 75.0684C187.423 75.0055 187.451 74.9463 187.489 74.8945C187.528 74.8427 187.577 74.7995 187.633 74.7676C187.689 74.7357 187.751 74.7158 187.816 74.7092L195.553 73.584C195.614 73.5726 195.677 73.5737 195.738 73.5871C195.799 73.6006 195.857 73.6261 195.908 73.6623C195.959 73.6984 196.002 73.7444 196.035 73.7975C196.068 73.8506 196.09 73.9098 196.099 73.9715C196.141 74.2003 196.501 76.2453 195.669 77.3192C195.522 77.5103 195.334 77.6666 195.119 77.7771C194.904 77.8876 194.668 77.9497 194.427 77.9588L194.371 77.9728Z" fill="black"/>
<path d="M187.811 78.8273C187.256 78.8288 186.715 78.6535 186.266 78.3269C185.818 78.0003 185.485 77.5394 185.316 77.011C184.933 76.0399 185.092 75.1714 185.737 74.6765C186.101 74.4372 186.534 74.3224 186.969 74.3493C187.405 74.3762 187.82 74.5435 188.152 74.8259C188.416 75.0727 188.641 75.3576 188.82 75.671C188.855 75.7247 188.879 75.7849 188.889 75.848C188.9 75.9112 188.898 75.9759 188.882 76.038C188.867 76.1002 188.839 76.1586 188.8 76.2095C188.761 76.2604 188.712 76.3028 188.657 76.334C188.603 76.369 188.543 76.3927 188.479 76.4034C188.416 76.4141 188.351 76.4118 188.289 76.3964C188.227 76.3811 188.169 76.3532 188.118 76.3143C188.067 76.2755 188.024 76.2265 187.993 76.1706C187.87 75.9622 187.724 75.768 187.559 75.5916C187.394 75.4401 187.185 75.3448 186.962 75.3197C186.74 75.2945 186.515 75.3407 186.321 75.4516C186.036 75.6664 185.998 76.1006 186.213 76.6515C186.329 77.065 186.602 77.4169 186.974 77.6322C187.345 77.8476 187.787 77.9095 188.203 77.8048C188.264 77.7849 188.329 77.7779 188.393 77.784C188.456 77.7901 188.518 77.8094 188.575 77.8405C188.631 77.8716 188.68 77.9139 188.719 77.9648C188.758 78.0157 188.786 78.0741 188.801 78.1363C188.821 78.1973 188.828 78.2617 188.822 78.3255C188.816 78.3893 188.797 78.4512 188.766 78.5072C188.735 78.5633 188.692 78.6124 188.641 78.6514C188.59 78.6904 188.532 78.7185 188.47 78.7339C188.255 78.7953 188.034 78.8267 187.811 78.8273Z" fill="black"/>
<path d="M194.646 65.3153C193.95 64.12 193.198 63.0881 190.866 62.6026C189.273 62.2711 186.661 63.4196 185.358 64.7643C185.335 64.7908 185.308 64.8122 185.276 64.8268C185.245 64.8414 185.21 64.849 185.176 64.849C185.141 64.849 185.107 64.8414 185.075 64.8268C185.044 64.8122 185.016 64.7908 184.993 64.7643C184.718 64.4141 184.059 63.6204 183.494 63.5457C181.821 63.3309 180.078 65.4834 179.452 66.5946C178.679 68.1022 178.13 69.7144 177.822 71.3804C177.809 71.4442 177.774 71.5013 177.722 71.5409C177.671 71.5804 177.606 71.5997 177.542 71.5951C176.688 71.4921 175.826 71.7029 175.117 72.1881C174.627 72.54 174.236 73.0125 173.982 73.5597C173.728 74.107 173.62 74.7105 173.668 75.3117C173.86 77.7909 176.36 79.6445 178.256 80.6577C179.042 81.1185 179.897 81.4482 180.789 81.6336C180.833 81.6452 180.88 81.6452 180.924 81.6336C181.962 81.7945 183.024 81.7065 184.022 81.3768C186.059 80.6951 185.942 77.3334 185.942 77.3334L185.694 76.6937C185.538 76.309 185.538 75.8785 185.694 75.4938C186.161 74.3312 187.941 75.2276 188.03 75.2136C191.361 74.5646 192.543 73.6028 193.169 72.9491C195.319 70.596 196.332 68.2148 194.646 65.3153Z" fill="black"/>
<path d="M120.786 55.0104C120.031 55.0092 119.307 54.7085 118.773 54.1746C118.24 53.6406 117.94 52.9168 117.94 52.1623C117.94 51.4081 118.24 50.6849 118.774 50.1517C119.307 49.6184 120.031 49.3188 120.786 49.3188C120.842 49.3188 120.897 49.3298 120.948 49.3512C121 49.3725 121.047 49.4038 121.086 49.4433C121.126 49.4828 121.157 49.5296 121.178 49.5811C121.2 49.6327 121.211 49.6879 121.211 49.7437C121.211 49.7995 121.2 49.8548 121.178 49.9063C121.157 49.9579 121.126 50.0047 121.086 50.0442C121.047 50.0836 121 50.1149 120.948 50.1363C120.897 50.1576 120.842 50.1686 120.786 50.1686C120.257 50.1698 119.75 50.3803 119.376 50.7539C119.003 51.1275 118.792 51.6339 118.791 52.1623C118.791 52.6915 119.001 53.1991 119.375 53.5737C119.749 53.9483 120.256 54.1594 120.786 54.1606C121.316 54.1606 121.825 53.9501 122.2 53.5753C122.575 53.2006 122.785 52.6923 122.785 52.1623C122.785 52.1065 122.796 52.0512 122.818 51.9997C122.839 51.9481 122.87 51.9013 122.91 51.8619C122.949 51.8224 122.996 51.7911 123.048 51.7698C123.099 51.7484 123.155 51.7374 123.21 51.7374C123.323 51.7374 123.431 51.7822 123.511 51.8619C123.591 51.9415 123.636 52.0496 123.636 52.1623C123.634 52.9173 123.334 53.641 122.8 54.1748C122.265 54.7087 121.541 55.0092 120.786 55.0104Z" fill="black"/>
<path d="M116.039 131.569C115.982 131.569 115.927 131.558 115.874 131.536C115.822 131.515 115.775 131.483 115.735 131.443L114.493 130.205C114.413 130.125 114.369 130.017 114.369 129.904C114.369 129.791 114.413 129.683 114.493 129.603C114.573 129.524 114.681 129.48 114.794 129.48C114.907 129.48 115.015 129.524 115.095 129.603L116.338 130.845C116.417 130.924 116.461 131.032 116.461 131.144C116.461 131.256 116.417 131.363 116.338 131.443C116.299 131.482 116.252 131.514 116.201 131.536C116.15 131.557 116.095 131.568 116.039 131.569Z" fill="black"/>
<path d="M120.383 135.916C120.328 135.916 120.273 135.904 120.221 135.883C120.17 135.861 120.123 135.829 120.084 135.79L118.842 134.548C118.802 134.509 118.77 134.462 118.748 134.411C118.726 134.36 118.715 134.305 118.715 134.249C118.715 134.193 118.726 134.138 118.748 134.087C118.77 134.035 118.802 133.989 118.842 133.95C118.88 133.91 118.927 133.878 118.978 133.856C119.03 133.834 119.085 133.823 119.141 133.823C119.197 133.823 119.252 133.834 119.303 133.856C119.354 133.878 119.401 133.91 119.44 133.95L120.682 135.187C120.722 135.227 120.754 135.274 120.775 135.325C120.797 135.377 120.808 135.433 120.808 135.488C120.808 135.544 120.797 135.6 120.775 135.652C120.754 135.703 120.722 135.75 120.682 135.79C120.644 135.83 120.597 135.861 120.546 135.883C120.494 135.905 120.439 135.916 120.383 135.916Z" fill="black"/>
<path d="M114.82 135.916C114.763 135.916 114.707 135.905 114.655 135.883C114.603 135.861 114.556 135.83 114.516 135.789C114.437 135.709 114.393 135.601 114.393 135.488C114.393 135.376 114.437 135.268 114.516 135.187L115.759 133.95C115.798 133.91 115.845 133.879 115.897 133.857C115.949 133.836 116.004 133.825 116.06 133.825C116.116 133.825 116.171 133.836 116.223 133.857C116.275 133.879 116.322 133.91 116.361 133.95C116.44 134.029 116.484 134.137 116.484 134.249C116.484 134.361 116.44 134.468 116.361 134.548L115.119 135.789C115.08 135.829 115.033 135.861 114.982 135.883C114.93 135.904 114.875 135.915 114.82 135.916Z" fill="black"/>
<path d="M119.141 131.569C119.085 131.569 119.03 131.557 118.979 131.536C118.927 131.514 118.881 131.482 118.842 131.443C118.802 131.404 118.77 131.357 118.748 131.306C118.726 131.255 118.715 131.2 118.715 131.144C118.715 131.088 118.726 131.033 118.748 130.982C118.77 130.93 118.802 130.884 118.842 130.845L120.084 129.603C120.164 129.524 120.272 129.48 120.383 129.48C120.495 129.48 120.603 129.524 120.682 129.603C120.722 129.643 120.754 129.689 120.775 129.741C120.797 129.793 120.808 129.848 120.808 129.904C120.808 129.96 120.797 130.016 120.775 130.067C120.754 130.119 120.722 130.166 120.682 130.205L119.44 131.443C119.401 131.483 119.354 131.514 119.303 131.536C119.252 131.558 119.196 131.569 119.141 131.569Z" fill="black"/>
<path d="M246.342 206.763C246.229 206.764 246.12 206.72 246.038 206.642L244.795 205.4C244.716 205.32 244.672 205.212 244.672 205.099C244.672 204.986 244.716 204.878 244.795 204.798C244.876 204.719 244.984 204.675 245.097 204.675C245.209 204.675 245.317 204.719 245.398 204.798L246.641 206.04C246.72 206.12 246.764 206.228 246.764 206.341C246.764 206.454 246.72 206.562 246.641 206.642C246.56 206.719 246.453 206.763 246.342 206.763Z" fill="black"/>
<path d="M250.687 211.111C250.631 211.11 250.576 211.099 250.525 211.077C250.474 211.056 250.427 211.024 250.388 210.984L249.145 209.742C249.105 209.704 249.073 209.657 249.052 209.606C249.03 209.555 249.019 209.499 249.019 209.444C249.019 209.388 249.03 209.333 249.052 209.281C249.073 209.23 249.105 209.184 249.145 209.145C249.184 209.105 249.231 209.073 249.282 209.051C249.333 209.029 249.389 209.018 249.444 209.018C249.5 209.018 249.555 209.029 249.607 209.051C249.658 209.073 249.705 209.105 249.743 209.145L250.986 210.387C251.026 210.426 251.058 210.472 251.08 210.523C251.102 210.575 251.113 210.63 251.113 210.686C251.113 210.741 251.102 210.797 251.08 210.848C251.058 210.899 251.026 210.946 250.986 210.984C250.947 211.024 250.901 211.056 250.849 211.078C250.798 211.099 250.743 211.111 250.687 211.111Z" fill="black"/>
<path d="M245.099 211.11C245.043 211.111 244.987 211.099 244.935 211.078C244.883 211.056 244.835 211.024 244.796 210.984C244.717 210.905 244.673 210.797 244.673 210.685C244.673 210.574 244.717 210.466 244.796 210.387L246.039 209.145C246.078 209.105 246.125 209.074 246.177 209.052C246.228 209.031 246.284 209.02 246.34 209.02C246.396 209.02 246.451 209.031 246.503 209.052C246.555 209.074 246.602 209.105 246.641 209.145C246.72 209.224 246.764 209.332 246.764 209.444C246.764 209.555 246.72 209.663 246.641 209.742L245.398 210.984C245.359 211.024 245.313 211.056 245.262 211.077C245.21 211.099 245.155 211.11 245.099 211.11Z" fill="black"/>
<path d="M249.444 206.764C249.332 206.763 249.225 206.719 249.145 206.642C249.105 206.603 249.074 206.556 249.052 206.504C249.031 206.452 249.02 206.397 249.02 206.341C249.02 206.285 249.031 206.23 249.052 206.178C249.074 206.126 249.105 206.079 249.145 206.04L250.388 204.798C250.467 204.719 250.575 204.675 250.687 204.675C250.799 204.675 250.906 204.719 250.986 204.798C251.025 204.837 251.057 204.884 251.078 204.936C251.1 204.988 251.111 205.043 251.111 205.099C251.111 205.155 251.1 205.21 251.078 205.262C251.057 205.314 251.025 205.361 250.986 205.4L249.743 206.642C249.663 206.72 249.555 206.763 249.444 206.764Z" fill="black"/>
<path d="M286.237 182.018C285.441 182.015 284.679 181.698 284.117 181.135C283.555 180.573 283.239 179.811 283.237 179.016C283.239 178.221 283.555 177.459 284.117 176.897C284.679 176.336 285.442 176.019 286.237 176.018C287.033 176.018 287.796 176.334 288.359 176.896C288.923 177.458 289.24 178.22 289.241 179.016C289.24 179.811 288.923 180.574 288.36 181.137C287.796 181.7 287.033 182.017 286.237 182.018ZM286.237 176.882C285.667 176.882 285.12 177.108 284.717 177.511C284.314 177.914 284.088 178.46 284.088 179.03C284.088 179.6 284.314 180.146 284.717 180.55C285.12 180.953 285.666 181.181 286.237 181.182C286.808 181.181 287.355 180.954 287.758 180.55C288.162 180.147 288.389 179.6 288.391 179.03C288.392 178.746 288.337 178.465 288.229 178.203C288.122 177.941 287.963 177.702 287.763 177.502C287.563 177.301 287.325 177.141 287.063 177.033C286.801 176.924 286.52 176.868 286.237 176.868V176.882Z" fill="black"/>
<path d="M278.653 188.447C278.13 188.447 277.629 188.239 277.259 187.87C276.889 187.5 276.682 186.999 276.682 186.477C276.682 185.954 276.889 185.453 277.259 185.083C277.629 184.714 278.13 184.506 278.653 184.506C278.912 184.506 279.169 184.557 279.408 184.656C279.647 184.755 279.864 184.9 280.047 185.083C280.23 185.266 280.376 185.484 280.475 185.723C280.574 185.962 280.625 186.218 280.625 186.477C280.625 186.735 280.574 186.992 280.475 187.231C280.376 187.47 280.23 187.687 280.047 187.87C279.864 188.053 279.647 188.198 279.408 188.297C279.169 188.396 278.912 188.447 278.653 188.447ZM278.653 185.356C278.356 185.356 278.071 185.474 277.86 185.684C277.65 185.894 277.532 186.179 277.532 186.477C277.532 186.774 277.65 187.059 277.86 187.269C278.071 187.479 278.356 187.597 278.653 187.597C278.801 187.598 278.947 187.569 279.084 187.513C279.22 187.457 279.345 187.375 279.449 187.271C279.554 187.167 279.637 187.043 279.693 186.907C279.75 186.77 279.779 186.624 279.779 186.477C279.779 186.33 279.749 186.184 279.692 186.048C279.635 185.912 279.552 185.789 279.448 185.686C279.343 185.582 279.219 185.5 279.083 185.444C278.946 185.389 278.801 185.36 278.653 185.361V185.356Z" fill="black"/>
<path d="M221.514 194.447C221.459 194.431 221.409 194.404 221.364 194.368C221.32 194.332 221.284 194.287 221.257 194.237C221.206 194.137 221.197 194.021 221.231 193.914C221.265 193.808 221.34 193.719 221.439 193.667C227.186 190.681 232.63 187.146 237.693 183.11C237.782 183.041 237.895 183.01 238.007 183.023C238.119 183.036 238.221 183.093 238.292 183.18C238.361 183.269 238.393 183.381 238.381 183.492C238.369 183.604 238.313 183.707 238.226 183.778C233.115 187.846 227.621 191.409 221.823 194.419C221.727 194.467 221.617 194.477 221.514 194.447Z" fill="black"/>
<path d="M126.967 173.086C126.904 173.086 126.842 173.072 126.786 173.046C126.729 173.019 126.679 172.98 126.64 172.932C124.254 169.989 122.023 166.924 119.959 163.748C119.928 163.701 119.908 163.649 119.898 163.595C119.888 163.54 119.888 163.484 119.9 163.43C119.912 163.375 119.934 163.324 119.966 163.278C119.998 163.233 120.038 163.194 120.085 163.164C120.179 163.102 120.294 163.08 120.404 163.103C120.515 163.126 120.612 163.191 120.674 163.285C122.725 166.436 124.941 169.477 127.313 172.395C127.384 172.482 127.417 172.594 127.406 172.706C127.395 172.818 127.339 172.921 127.252 172.992C127.172 173.058 127.07 173.091 126.967 173.086Z" fill="black"/>
<path d="M206.91 205.783C206.84 205.763 206.776 205.725 206.725 205.672C206.674 205.62 206.638 205.555 206.62 205.484C206.592 205.375 206.608 205.259 206.665 205.162C206.722 205.065 206.815 204.994 206.924 204.966C225.084 200.235 241.68 190.814 255.046 177.647C255.085 177.608 255.132 177.576 255.184 177.555C255.236 177.533 255.291 177.522 255.347 177.522C255.403 177.522 255.459 177.533 255.51 177.555C255.562 177.576 255.609 177.608 255.649 177.647C255.688 177.687 255.72 177.734 255.741 177.785C255.763 177.837 255.774 177.893 255.774 177.949C255.774 178.004 255.763 178.06 255.741 178.112C255.72 178.163 255.688 178.21 255.649 178.25C242.178 191.521 225.454 201.02 207.153 205.797C207.072 205.819 206.987 205.814 206.91 205.783Z" fill="black"/>
<path d="M283.671 56.3971C283.564 56.3967 283.461 56.3568 283.381 56.2851C276.269 49.762 268.303 44.2333 259.703 39.8501C259.604 39.7974 259.529 39.7076 259.495 39.6002C259.461 39.4928 259.47 39.3762 259.521 39.2758C259.573 39.1765 259.662 39.1016 259.769 39.0675C259.875 39.0334 259.991 39.0428 260.091 39.0937C268.756 43.5125 276.781 49.0852 283.947 55.6594C283.988 55.6966 284.022 55.7417 284.046 55.792C284.069 55.8423 284.083 55.8968 284.086 55.9524C284.088 56.008 284.08 56.0636 284.061 56.1159C284.042 56.1682 284.012 56.2162 283.975 56.2571C283.936 56.2997 283.889 56.3341 283.837 56.3582C283.785 56.3823 283.728 56.3955 283.671 56.3971Z" fill="black"/>
<path d="M126.967 46.7277C126.889 46.7259 126.814 46.705 126.747 46.667C126.699 46.6382 126.657 46.6003 126.624 46.5554C126.591 46.5104 126.567 46.4594 126.553 46.4052C126.54 46.351 126.537 46.2947 126.546 46.2394C126.554 46.1842 126.573 46.1312 126.602 46.0834C130.022 40.3545 134.302 35.8909 139.315 32.8093C144.748 29.471 151.228 27.6453 158.568 27.3885C158.681 27.386 158.79 27.4276 158.872 27.5044C158.954 27.5812 159.002 27.6871 159.007 27.7994C159.01 27.9118 158.968 28.0207 158.891 28.1027C158.815 28.1848 158.709 28.2334 158.596 28.2383C144.613 28.7052 134.386 34.7096 127.331 46.5176C127.294 46.5815 127.241 46.6346 127.177 46.6715C127.113 46.7084 127.04 46.7278 126.967 46.7277Z" fill="black"/>
<path d="M233.956 35.8115C233.9 35.8096 233.845 35.7986 233.792 35.7788C233.689 35.7345 233.607 35.6515 233.565 35.5476C233.522 35.4438 233.521 35.3273 233.564 35.2232L241.898 15.1743C241.919 15.1224 241.95 15.0752 241.99 15.0355C242.029 14.9958 242.076 14.9643 242.128 14.943C242.18 14.9217 242.236 14.911 242.292 14.9114C242.348 14.9118 242.403 14.9234 242.454 14.9455C242.557 14.9889 242.639 15.071 242.682 15.1741C242.725 15.2772 242.725 15.393 242.683 15.4965L234.33 35.55C234.299 35.6246 234.247 35.6887 234.181 35.7351C234.115 35.7814 234.037 35.8079 233.956 35.8115Z" fill="black"/>
<path d="M240.965 35.5592C240.865 35.5594 240.77 35.5247 240.694 35.4612C240.607 35.3893 240.552 35.286 240.542 35.1739C240.531 35.0619 240.566 34.9503 240.638 34.8635L244.375 30.3672C244.411 30.3242 244.455 30.2887 244.504 30.2627C244.554 30.2368 244.608 30.2209 244.663 30.2161C244.719 30.2114 244.775 30.2177 244.828 30.2348C244.882 30.252 244.931 30.2795 244.973 30.3159C245.06 30.3878 245.114 30.4911 245.125 30.6031C245.135 30.7152 245.101 30.8268 245.029 30.9135L241.292 35.4051C241.252 35.4535 241.202 35.4925 241.146 35.5191C241.089 35.5458 241.027 35.5594 240.965 35.5592Z" fill="black"/>
<path d="M211.713 34.5507C211.6 34.5507 211.492 34.5059 211.413 34.4262C211.333 34.3466 211.288 34.2385 211.288 34.1258V20.0113C211.288 19.8986 211.333 19.7906 211.413 19.7109C211.492 19.6312 211.6 19.5864 211.713 19.5864C211.769 19.5864 211.824 19.5974 211.876 19.6188C211.928 19.6401 211.974 19.6714 212.014 19.7109C212.053 19.7503 212.085 19.7972 212.106 19.8487C212.127 19.9003 212.138 19.9555 212.138 20.0113V34.1258C212.138 34.1816 212.127 34.2368 212.106 34.2884C212.085 34.3399 212.053 34.3868 212.014 34.4262C211.974 34.4657 211.928 34.497 211.876 34.5183C211.824 34.5397 211.769 34.5507 211.713 34.5507Z" fill="black"/>
<path d="M217.604 139.679H217.492C217.384 139.649 217.292 139.578 217.236 139.481C217.18 139.384 217.164 139.269 217.193 139.161L220.524 126.507C220.552 126.399 220.623 126.305 220.72 126.248C220.818 126.192 220.933 126.176 221.043 126.204C221.151 126.234 221.243 126.304 221.3 126.401C221.357 126.498 221.373 126.613 221.346 126.722L218.01 139.375C217.985 139.463 217.931 139.54 217.858 139.595C217.785 139.65 217.696 139.679 217.604 139.679Z" fill="black"/>
<path d="M236.914 150.343C236.818 150.343 236.726 150.311 236.651 150.253C236.575 150.195 236.522 150.113 236.498 150.021L230.172 125.051C230.144 124.942 230.16 124.826 230.216 124.729C230.273 124.632 230.367 124.561 230.476 124.533C230.585 124.507 230.7 124.525 230.797 124.582C230.894 124.639 230.965 124.732 230.994 124.841L237.325 149.815C237.352 149.924 237.334 150.039 237.277 150.136C237.219 150.232 237.125 150.301 237.017 150.329L236.914 150.343Z" fill="black"/>
</g>
</g>
<defs>
<filter id="filter0_f_1941_57360" x="54" y="17" width="263" height="260" filterUnits="userSpaceOnUse" color-interpolation-filters="sRGB">
<feFlood flood-opacity="0" result="BackgroundImageFix"/>
<feBlend mode="normal" in="SourceGraphic" in2="BackgroundImageFix" result="shape"/>
<feGaussianBlur stdDeviation="20" result="effect1_foregroundBlur_1941_57360"/>
</filter>
<filter id="filter1_f_1941_57360" x="113" y="-51" width="278" height="278" filterUnits="userSpaceOnUse" color-interpolation-filters="sRGB">
<feFlood flood-opacity="0" result="BackgroundImageFix"/>
<feBlend mode="normal" in="SourceGraphic" in2="BackgroundImageFix" result="shape"/>
<feGaussianBlur stdDeviation="30" result="effect1_foregroundBlur_1941_57360"/>
</filter>
<clipPath id="clip0_1941_57360">
<rect width="400" height="260" fill="white"/>
</clipPath>
<clipPath id="clip1_1941_57360">
<rect width="252" height="260" fill="white" transform="translate(74)"/>
</clipPath>
</defs>
</svg>
