<svg width="400" height="260" viewBox="0 0 400 260" fill="none" xmlns="http://www.w3.org/2000/svg">
<g clip-path="url(#clip0_2052_38823)">
<path d="M127.577 68.1326C154.819 42.7894 146.423 26.4263 166.387 14.4543C195.028 -2.70515 245.529 14.9823 274.861 42.0459C310.785 75.2032 327.67 133.779 303.731 185.2C278.234 239.991 215.841 266.465 161.544 255.571C113.054 245.843 66.6171 205.439 63.6483 159.073C63.3273 154.044 56.4264 127.68 73.4828 104.999C87.5835 86.2513 105.986 88.218 127.577 68.1326Z" fill="#E5F6FF"/>
<g filter="url(#filter0_f_2052_38823)">
<ellipse cx="126.5" cy="124.5" rx="69.5" ry="68.5" fill="#B5E0FF" fill-opacity="0.6"/>
</g>
<g filter="url(#filter1_f_2052_38823)">
<circle cx="272" cy="128" r="79" fill="#FFE7C3" fill-opacity="0.6"/>
</g>
<path d="M243.791 247.555C260.223 240.295 291.648 232.296 299.209 214.287C279.615 209.839 258.116 224.799 258.116 224.799L243.791 247.555Z" fill="#52A5D8"/>
<path d="M183.975 183.44C183.887 181.491 176.701 181.073 176.498 179.106C176.331 177.32 183.395 172.132 183.14 170.333C181.627 159.584 178.117 150.916 173.054 140.291C172.968 140.109 172.841 139.95 172.682 139.826C172.523 139.703 172.337 139.619 172.14 139.58C171.942 139.542 171.739 139.551 171.545 139.607C171.352 139.662 171.174 139.762 171.027 139.899C166.835 143.78 153.24 157.534 142.799 181.381C142.161 182.837 147.527 190.959 146.92 192.477C146.313 193.995 139.263 190.92 138.673 192.504C133.052 208.013 129.617 224.922 130.598 245.302C142.249 251.207 153.931 254.678 167.79 256.654C177.461 236.036 185.295 211.986 183.975 183.44Z" fill="#A2D2EC"/>
<path d="M148.965 246.525C148.925 246.531 148.885 246.531 148.846 246.525C148.788 246.509 148.734 246.48 148.687 246.442C148.64 246.404 148.602 246.357 148.574 246.303C148.547 246.249 148.53 246.191 148.526 246.13C148.522 246.07 148.531 246.01 148.551 245.953C151.45 236.85 154.137 227.553 156.547 218.313C156.56 218.254 156.586 218.199 156.621 218.15C156.657 218.101 156.702 218.06 156.754 218.03C156.806 217.999 156.863 217.98 156.923 217.973C156.983 217.965 157.044 217.97 157.101 217.988C157.16 218.001 157.216 218.026 157.264 218.061C157.313 218.097 157.354 218.142 157.384 218.194C157.415 218.246 157.434 218.304 157.442 218.364C157.449 218.423 157.444 218.484 157.427 218.542C155.012 227.782 152.32 237.109 149.418 246.23C149.386 246.323 149.324 246.402 149.242 246.455C149.16 246.509 149.062 246.533 148.965 246.525Z" fill="#CADDFF"/>
<path d="M160.251 205.615H160.163C160.104 205.603 160.048 205.58 159.999 205.545C159.949 205.511 159.907 205.467 159.876 205.416C159.844 205.365 159.823 205.308 159.814 205.248C159.805 205.188 159.809 205.128 159.825 205.07C163.497 189.393 166.501 173.364 168.757 157.432L169.791 150.133C169.797 150.073 169.816 150.015 169.846 149.962C169.876 149.909 169.916 149.864 169.964 149.827C170.012 149.791 170.068 149.765 170.126 149.751C170.185 149.737 170.246 149.735 170.306 149.746C170.365 149.753 170.423 149.772 170.475 149.802C170.527 149.832 170.572 149.872 170.608 149.92C170.644 149.969 170.67 150.024 170.684 150.082C170.697 150.141 170.699 150.201 170.688 150.26L169.655 157.56C167.398 173.518 164.377 189.573 160.709 205.276C160.685 205.378 160.626 205.468 160.542 205.53C160.458 205.592 160.355 205.622 160.251 205.615Z" fill="#CADDFF"/>
<path d="M135.617 247.286C138.255 234.452 143.74 194.448 119.589 158.893C118.71 157.573 113.432 160.873 112.521 159.544C111.36 157.846 114.589 151.497 113.291 149.864C108.246 143.478 102.347 137.817 95.7597 133.039C95.7597 133.039 73.6145 186.52 124.858 241.769C128.365 243.763 131.951 245.603 135.617 247.286Z" fill="#52A5D8"/>
<path d="M78.1934 200.766C90.6272 220.755 111.33 237.769 135.225 247.427C131.817 233.902 118.002 203.816 78.1934 200.766Z" fill="#52A5D8"/>
<path d="M128.922 238.07L128.553 238.226C124.441 228.555 120.552 218.645 116.946 208.773L117.319 208.626L128.922 238.07Z" fill="#E1F5FF" stroke="#E1F5FF" stroke-width="0.4"/>
<path d="M112.834 194.177L112.452 194.298C106.846 177.217 101.925 159.676 97.8053 142.148L98.1919 142.044L112.834 194.177Z" fill="#E1F5FF" stroke="#E1F5FF" stroke-width="0.4"/>
<path d="M252.297 243.621C272.436 218.432 278.937 191.294 278.937 191.294C270.839 192.976 262.905 195.367 255.226 198.439C254.236 198.835 252.917 206.517 251.945 206.926C250.858 207.366 247.45 201.726 246.385 202.205C209.299 218.859 187.621 245.416 179.035 257.758C196.338 258.994 229.558 255.659 252.297 243.621Z" fill="#A2D2EC"/>
<path d="M261.631 209.065C261.568 209.063 261.507 209.048 261.451 209.02C261.395 208.993 261.345 208.954 261.305 208.906C261.264 208.862 261.232 208.81 261.212 208.753C261.192 208.696 261.183 208.636 261.188 208.575C261.192 208.515 261.208 208.456 261.236 208.403C261.264 208.349 261.302 208.302 261.349 208.264L272.697 198.399C272.741 198.358 272.793 198.326 272.85 198.306C272.907 198.286 272.967 198.277 273.027 198.282C273.088 198.286 273.146 198.302 273.2 198.33C273.254 198.358 273.301 198.396 273.339 198.443C273.38 198.487 273.412 198.54 273.432 198.596C273.452 198.653 273.461 198.714 273.457 198.774C273.452 198.834 273.436 198.893 273.408 198.947C273.38 199 273.342 199.048 273.295 199.086L261.947 208.959C261.86 209.034 261.746 209.072 261.631 209.065Z" fill="white"/>
<path d="M202.333 176.686C198.12 178.2 193.264 175.41 191.505 170.478L169.707 109.364L184.89 103.912L206.727 165.136C208.469 170.029 206.507 175.19 202.333 176.686Z" fill="#52A5D8"/>
<path d="M200.222 177.544C198.907 177.581 197.602 177.302 196.417 176.73C193.905 175.479 191.986 173.288 191.078 170.632L169.28 109.522C169.258 109.466 169.247 109.406 169.249 109.346C169.251 109.286 169.265 109.227 169.291 109.173C169.316 109.118 169.353 109.07 169.398 109.03C169.443 108.99 169.496 108.96 169.553 108.941L184.735 103.49C184.848 103.444 184.975 103.444 185.087 103.49C185.195 103.544 185.278 103.637 185.32 103.749L207.158 164.969C208.974 170.082 206.881 175.529 202.487 177.1C201.76 177.365 200.995 177.515 200.222 177.544ZM170.287 109.636L191.935 170.324C192.761 172.756 194.512 174.763 196.809 175.912C197.637 176.321 198.538 176.562 199.459 176.621C200.381 176.681 201.305 176.558 202.179 176.259C206.102 174.851 207.954 169.928 206.3 165.29L184.617 104.493L170.287 109.636Z" fill="black"/>
<path d="M199.972 55.7954L158.259 73.9976L141.044 85.6617L133.431 94.2942L133.378 94.3646C131.931 95.8298 131.724 99.8776 132.938 104.291C134.152 108.704 136.408 111.982 138.392 112.567H138.326L148.737 115.968L169.347 117.002L214.855 110.842L265.532 130.98L265.901 131.068C253.146 125.846 239.072 104.414 231.406 76.6815C223.74 48.9492 224.848 23.4432 233.09 12.4744L200.398 55.2674L199.972 55.7954Z" fill="#E5F6FE"/>
<path d="M274.812 131.852C289.231 127.852 293.187 96.7143 283.648 62.3045C274.109 27.8947 254.687 3.24282 240.268 7.24302C225.849 11.2432 221.893 42.3807 231.432 76.7905C240.972 111.2 260.393 135.852 274.812 131.852Z" fill="#F1C40F"/>
<path d="M272.072 132.736C265.54 132.956 258.129 128.16 250.881 118.938C242.656 108.462 235.584 93.4978 230.97 76.7959C223.977 51.4923 224.056 27.0775 231.168 14.5819C233.548 10.402 236.591 7.78411 240.211 6.79854C245.876 5.25419 252.403 7.8853 259.084 14.4103C265.54 20.7153 271.672 30.1574 276.804 41.6894C276.83 41.7437 276.845 41.8028 276.847 41.863C276.849 41.9231 276.839 41.9831 276.817 42.0392C276.796 42.0953 276.762 42.1463 276.72 42.1891C276.678 42.2318 276.627 42.2654 276.571 42.2878C276.517 42.3139 276.458 42.3287 276.399 42.3313C276.339 42.3338 276.279 42.3241 276.223 42.3026C276.167 42.2812 276.116 42.2486 276.073 42.2067C276.03 42.1648 275.996 42.1145 275.973 42.059C265.527 18.5374 251.251 4.70858 240.448 7.65209C237.071 8.57166 234.212 11.0488 231.96 15.0087C224.958 27.3019 224.923 51.4527 231.846 76.532C240.712 108.616 258.195 132.291 272.032 131.829C272.917 131.799 273.795 131.667 274.649 131.438C278.027 130.514 280.886 128.041 283.142 124.081C290.14 111.788 290.179 87.6372 283.252 62.558C281.824 57.3712 280.119 52.2644 278.146 47.2597C278.122 47.2044 278.109 47.1448 278.109 47.0846C278.109 47.0244 278.122 46.9648 278.146 46.9095C278.169 46.8543 278.204 46.8045 278.248 46.7633C278.292 46.7221 278.344 46.6904 278.401 46.6701C278.456 46.6461 278.516 46.6337 278.576 46.6336C278.636 46.6336 278.696 46.6459 278.751 46.6698C278.806 46.6937 278.856 46.7288 278.897 46.7727C278.938 46.8166 278.97 46.8686 278.99 46.9253C280.976 51.963 282.691 57.1036 284.127 62.3248C291.121 87.624 291.041 112.043 283.929 124.539C281.55 128.719 278.506 131.337 274.887 132.322C273.968 132.568 273.023 132.707 272.072 132.736Z" fill="black"/>
<path d="M270.388 125.445C264.595 125.643 258.033 121.397 251.616 113.231C244.341 103.992 238.087 90.7347 234.023 75.9688C227.866 53.5955 227.914 31.9966 234.204 20.9441C236.315 17.235 238.998 14.9251 242.213 14.0451C250.798 11.7044 261.728 20.5218 270.735 37.0476C270.767 37.0996 270.787 37.1575 270.795 37.2177C270.802 37.2779 270.798 37.339 270.781 37.3973C270.764 37.4555 270.735 37.5096 270.696 37.5562C270.657 37.6028 270.609 37.6409 270.555 37.668C270.503 37.6984 270.445 37.7177 270.385 37.7249C270.325 37.732 270.265 37.7267 270.207 37.7094C270.149 37.6921 270.096 37.663 270.05 37.6241C270.004 37.5852 269.966 37.5373 269.939 37.4832C261.143 21.3445 250.587 12.6988 242.45 14.9207C239.477 15.7303 236.961 17.9082 234.973 21.3973C228.794 32.2518 228.758 53.5779 234.876 75.7312C242.701 104.044 258.139 124.952 270.339 124.543C271.118 124.518 271.892 124.402 272.644 124.2C283.97 121.12 287.994 98.0869 282.004 70.6318C281.989 70.5736 281.987 70.5132 281.997 70.4542C282.007 70.3951 282.029 70.3388 282.062 70.2885C282.094 70.2383 282.137 70.1952 282.186 70.1619C282.236 70.1287 282.292 70.1059 282.351 70.095C282.409 70.0801 282.47 70.0773 282.529 70.0867C282.588 70.0961 282.645 70.1175 282.696 70.1497C282.746 70.1818 282.79 70.224 282.824 70.2736C282.857 70.3232 282.881 70.3792 282.892 70.4382C285.812 83.8314 286.455 96.7274 284.695 106.746C282.901 116.98 278.705 123.492 272.882 125.076C272.068 125.297 271.231 125.422 270.388 125.445Z" fill="black"/>
<path d="M253.675 86.1569C257.013 85.2309 257.928 78.0205 255.719 70.052C253.51 62.0835 249.014 56.3745 245.676 57.3005C242.338 58.2265 241.423 65.4369 243.632 73.4054C245.841 81.3739 250.337 87.0829 253.675 86.1569Z" fill="#DFF3FF"/>
<path d="M253.063 86.7132C249.544 86.832 245.344 81.297 243.193 73.5136C241.548 67.5738 241.584 61.8144 243.273 58.8445C243.504 58.3781 243.828 57.9634 244.224 57.6253C244.62 57.2873 245.08 57.033 245.577 56.8778C249.215 55.8878 253.872 61.6428 256.173 69.9762C257.818 75.9204 257.787 81.6798 256.093 84.6497C255.861 85.1156 255.537 85.5298 255.141 85.8677C254.745 86.2056 254.285 86.4603 253.789 86.6164C253.551 86.6751 253.308 86.7075 253.063 86.7132ZM246.343 57.6741C246.164 57.6826 245.988 57.7092 245.815 57.7534C245.433 57.8794 245.081 58.0806 244.779 58.3451C244.477 58.6096 244.231 58.932 244.055 59.2933C242.481 62.0652 242.481 67.5518 244.055 73.2717C246.035 80.4302 250.011 85.9169 253.01 85.8157C253.189 85.8115 253.366 85.7849 253.538 85.7365C253.92 85.6111 254.272 85.4101 254.574 85.1456C254.877 84.881 255.122 84.5582 255.297 84.1965C256.872 81.429 256.872 75.9424 255.297 70.2182C253.323 63.0508 249.342 57.5686 246.343 57.6654V57.6741Z" fill="black"/>
<path d="M265.914 131.521H265.791L265.422 131.433L265.36 131.411L214.798 111.282L169.408 117.442H169.325L148.719 116.412C148.679 116.409 148.639 116.402 148.6 116.39L138.19 112.989C138.128 112.969 138.071 112.936 138.022 112.892C135.889 112.065 133.699 108.704 132.507 104.383C131.245 99.8204 131.456 95.6714 133.035 94.039L133.07 93.995L133.092 93.9686L140.701 85.3361C140.727 85.3078 140.757 85.2827 140.789 85.2613L158.026 73.6237C158.049 73.6066 158.074 73.5918 158.1 73.5797L199.703 55.4258L232.743 12.184C232.778 12.1352 232.822 12.0941 232.873 12.063C232.924 12.032 232.981 12.0117 233.041 12.0035C233.1 11.9952 233.16 11.9992 233.218 12.0151C233.276 12.031 233.33 12.0585 233.376 12.096C233.426 12.1314 233.467 12.1766 233.498 12.2289C233.529 12.2811 233.549 12.3393 233.557 12.3996C233.567 12.4585 233.566 12.5189 233.552 12.5771C233.538 12.6354 233.513 12.6903 233.477 12.7384C229.493 18.0182 227.109 27.1171 226.766 38.3104C226.405 49.9436 228.169 63.1652 231.868 76.554C235.567 89.9428 240.858 102.236 247.156 112.061C253.212 121.521 259.942 128.116 266.095 130.641C266.203 130.682 266.29 130.763 266.339 130.868C266.387 130.972 266.393 131.092 266.354 131.2C266.324 131.294 266.266 131.375 266.187 131.433C266.108 131.49 266.012 131.521 265.914 131.521ZM214.838 110.402C214.901 110.397 214.964 110.407 215.022 110.433L260.386 128.472C248.849 120.113 237.515 100.454 230.97 76.8312C224.487 53.3755 224.114 30.8658 229.616 17.7806L200.332 56.1078C200.287 56.1692 200.226 56.2177 200.156 56.2486L158.465 74.398L141.312 86.0093L133.708 94.6418L133.668 94.6858C132.349 96.0322 132.204 100.023 133.352 104.168C134.473 108.237 136.637 111.581 138.493 112.131C138.558 112.15 138.619 112.183 138.669 112.228L148.785 115.532L169.329 116.562L214.794 110.402H214.838Z" fill="black"/>
<path d="M200.072 55.6679L233.059 12.4568C224.817 23.4213 223.721 48.9757 231.374 76.664C239.027 104.352 253.159 125.837 265.901 131.082L265.531 130.994L214.951 110.886L213.777 110.446C207.905 108.075 201.431 98.4081 197.992 85.8597C194.473 72.9769 195.859 61.1721 199.672 56.2311L200.072 55.6679Z" fill="#F1C40F"/>
<path d="M265.914 131.521H265.791L265.422 131.433L265.36 131.411L214.763 111.282L213.588 110.842C207.378 108.334 200.926 98.3333 197.535 85.9521C193.682 71.8725 195.74 60.5253 199.294 55.9274L199.707 55.3995L232.716 12.1972C232.751 12.1484 232.795 12.1073 232.847 12.0762C232.898 12.0452 232.955 12.0249 233.014 12.0167C233.073 12.0085 233.134 12.0124 233.191 12.0283C233.249 12.0442 233.303 12.0718 233.35 12.1092C233.399 12.1446 233.441 12.1899 233.472 12.2421C233.503 12.2944 233.522 12.3525 233.53 12.4128C233.54 12.4717 233.539 12.5321 233.525 12.5904C233.512 12.6486 233.486 12.7035 233.451 12.7516C229.466 18.0314 227.082 27.1303 226.739 38.3236C226.378 49.9568 228.142 63.1784 231.841 76.5672C235.54 89.956 240.831 102.249 247.129 112.074C253.186 121.534 259.915 128.129 266.068 130.655C266.176 130.695 266.263 130.777 266.312 130.881C266.36 130.986 266.366 131.105 266.328 131.213C266.297 131.3 266.241 131.376 266.168 131.431C266.094 131.485 266.006 131.517 265.914 131.521ZM229.616 17.7454L200.433 55.9406L200.02 56.4642C196.501 61.0269 194.821 72.5325 198.423 85.6881C201.691 97.6205 208.073 107.608 213.94 109.975L215.11 110.415L260.412 128.411C248.875 120.051 237.541 100.392 230.997 76.7696C224.487 53.3403 224.113 30.8306 229.616 17.7454Z" fill="black"/>
<path d="M148.196 116.254C148.143 116.257 148.091 116.25 148.042 116.232L138.19 113.016C138.128 112.995 138.071 112.962 138.022 112.919C135.889 112.092 133.699 108.73 132.507 104.41C131.245 99.847 131.456 95.6979 133.035 94.0656L133.07 94.0216L133.092 93.9952L140.701 85.3627C140.739 85.3161 140.787 85.2778 140.841 85.2504C140.894 85.223 140.953 85.2069 141.013 85.2032C141.074 85.1994 141.134 85.2082 141.191 85.2288C141.247 85.2494 141.299 85.2815 141.343 85.323C141.39 85.3614 141.428 85.409 141.455 85.4627C141.483 85.5165 141.499 85.5754 141.503 85.6356C141.506 85.6959 141.498 85.7562 141.477 85.813C141.456 85.8697 141.424 85.9216 141.383 85.9654L133.739 94.6419L133.699 94.686C132.38 96.0323 132.234 100.023 133.382 104.168C134.504 108.238 136.668 111.581 138.524 112.131C138.589 112.15 138.649 112.183 138.7 112.228L148.323 115.37C148.381 115.387 148.434 115.415 148.481 115.453C148.527 115.492 148.565 115.539 148.592 115.593C148.619 115.646 148.635 115.705 148.639 115.765C148.642 115.825 148.634 115.885 148.613 115.942C148.586 116.032 148.531 116.11 148.456 116.167C148.381 116.223 148.289 116.253 148.196 116.254Z" fill="black"/>
<path d="M148.846 115.946C145.618 115.018 142.024 109.408 140.05 102.306C137.969 94.765 138.629 87.5581 141.312 85.5121L133.426 94.3119L133.373 94.3823C131.926 95.8474 131.719 99.8953 132.933 104.308C134.147 108.721 136.403 111.999 138.387 112.585H138.321L148.846 115.946Z" fill="#F1C40F"/>
<path d="M148.864 116.399C148.817 116.406 148.77 116.406 148.723 116.399C148.64 116.399 148.561 116.351 148.477 116.32L138.19 113.033C138.128 113.012 138.071 112.98 138.022 112.936C135.889 112.109 133.699 108.748 132.507 104.427C131.245 99.8645 131.456 95.7154 133.035 94.0831L133.07 94.0391L133.092 94.0083L139.993 86.2733C140.272 85.8373 140.621 85.4507 141.026 85.1294C141.115 85.0567 141.229 85.0216 141.343 85.0315C141.457 85.0413 141.563 85.0954 141.638 85.1822C141.714 85.2669 141.755 85.3765 141.755 85.4902C141.755 85.6038 141.714 85.7134 141.638 85.7982L140.675 86.8717C138.915 89.6876 138.753 95.9266 140.477 102.17C142.359 108.981 145.728 114.375 148.741 115.44L148.97 115.51C149.027 115.527 149.081 115.555 149.127 115.593C149.174 115.631 149.212 115.678 149.239 115.731C149.267 115.784 149.283 115.842 149.288 115.902C149.292 115.961 149.284 116.021 149.264 116.078C149.24 116.167 149.188 116.245 149.116 116.303C149.044 116.361 148.956 116.394 148.864 116.399ZM138.695 112.224L145.803 114.494C143.371 112.074 141.079 107.696 139.619 102.412C138.207 97.2994 138.014 92.2923 138.924 88.8473L133.739 94.6419L133.699 94.6859C132.38 96.0322 132.234 100.023 133.382 104.168C134.504 108.237 136.668 111.581 138.524 112.131C138.588 112.148 138.647 112.179 138.695 112.224Z" fill="black"/>
<path d="M168.581 117.002H169.461C164.671 117.002 158.905 108.537 155.879 97.5985C152.8 86.4404 153.926 76.1931 158.245 74.0108L157.669 74.4024L141.347 85.4725C138.629 87.47 137.947 94.7122 140.028 102.302C142.051 109.623 145.891 115.33 149.18 116.012L168.581 117.002Z" fill="#52A5D8"/>
<path d="M169.492 117.442H169.408H168.581L149.194 116.461H149.124C145.605 115.735 141.708 109.967 139.628 102.43C137.499 94.7343 138.137 87.2897 141.101 85.1074L157.111 74.253C157.399 73.9998 157.718 73.7839 158.061 73.6106C158.112 73.5827 158.167 73.5651 158.225 73.5589C158.283 73.5527 158.341 73.5578 158.396 73.5742C158.452 73.5906 158.504 73.6177 158.549 73.6542C158.594 73.6906 158.631 73.7356 158.659 73.7866C158.69 73.8354 158.711 73.8898 158.721 73.9468C158.731 74.0037 158.729 74.062 158.717 74.1184C158.704 74.1748 158.68 74.2281 158.647 74.2753C158.614 74.3226 158.571 74.3628 158.523 74.3937L157.643 74.9921C154.248 77.984 153.619 87.6065 156.324 97.4798C159.31 108.29 164.927 116.465 169.413 116.549H169.461C169.578 116.549 169.69 116.595 169.772 116.678C169.855 116.76 169.901 116.872 169.901 116.989C169.905 117.103 169.864 117.213 169.788 117.298C169.711 117.382 169.605 117.434 169.492 117.442ZM149.26 115.546L166.286 116.426C162.169 113.861 157.929 106.772 155.448 97.7218C153.073 89.1245 153.188 80.8967 155.422 76.4837L141.611 85.851C138.972 87.7781 138.493 94.9587 140.49 102.188C142.452 109.254 146.15 114.868 149.264 115.546H149.26Z" fill="black"/>
<path d="M245.696 57.309C242.353 58.2198 241.298 65.4576 243.629 73.3861C247.561 86.6825 252.993 86.3525 253.639 86.2645C253.639 86.2645 253.639 86.2645 253.639 86.2865L240.673 92.8599C238.277 87.315 236.273 81.6091 234.674 75.784C233.124 70.1958 231.948 64.5103 231.155 58.7654L245.696 57.309Z" fill="black"/>
<path d="M240.453 93.4847L240.26 93.0447C237.856 87.4798 235.846 81.7533 234.243 75.9072C232.69 70.3004 231.514 64.5956 230.724 58.8314L230.658 58.365L245.669 56.8602L245.832 57.7402C245.435 57.8753 245.069 58.089 244.756 58.3687C244.443 58.6484 244.19 58.9883 244.011 59.3682C242.437 62.1973 242.463 67.7763 244.082 73.2541C247.899 86.2029 253.028 85.8949 253.577 85.8157L253.956 85.7629L254.198 86.5021L253.85 86.6913L240.453 93.4847ZM231.657 59.1658C232.453 64.7274 233.609 70.2314 235.118 75.6432C236.669 81.2926 238.601 86.8301 240.902 92.2175L252.073 86.5549C249.874 85.9521 246.122 83.3958 243.193 73.4961C241.482 67.7147 241.487 61.9905 243.193 58.915C243.384 58.5605 243.616 58.2298 243.884 57.9294L231.657 59.1658Z" fill="black"/>
<path d="M146.981 234.738L145.644 245.113L151.018 245.495L152.76 235.732L146.981 234.738Z" fill="white"/>
<path d="M151.037 245.949H150.988L145.614 245.566C145.552 245.561 145.491 245.544 145.436 245.515C145.381 245.486 145.332 245.447 145.293 245.399C145.253 245.351 145.225 245.296 145.208 245.237C145.191 245.178 145.187 245.116 145.196 245.055L146.515 234.68C146.524 234.619 146.545 234.561 146.577 234.508C146.608 234.455 146.65 234.409 146.7 234.373C146.748 234.336 146.804 234.309 146.863 234.295C146.922 234.28 146.983 234.278 147.043 234.289L152.822 235.288C152.881 235.297 152.938 235.318 152.989 235.35C153.039 235.381 153.083 235.423 153.117 235.472C153.152 235.521 153.176 235.576 153.189 235.634C153.202 235.692 153.203 235.753 153.192 235.811L151.433 245.575C151.418 245.672 151.371 245.762 151.299 245.83C151.228 245.898 151.135 245.94 151.037 245.949ZM146.15 244.695L150.636 245.011L152.224 236.102L147.386 235.266L146.15 244.695Z" fill="black"/>
<path d="M151.502 243.238C150.667 243.625 149.734 243.748 148.828 243.59C147.921 243.433 147.083 243.003 146.427 242.358L145.71 241.637C145.653 241.58 145.584 241.537 145.508 241.51C145.433 241.484 145.352 241.475 145.272 241.485C145.192 241.495 145.116 241.523 145.048 241.567C144.981 241.61 144.924 241.669 144.883 241.738L141.365 247.458C141.055 247.934 140.923 248.503 140.993 249.067C141.062 249.63 141.327 250.151 141.743 250.538C143.204 251.839 144.818 252.958 146.55 253.868C150.35 255.804 153.754 260.147 157.493 258.889C161.231 257.63 161.011 257.459 161.399 256.249C161.786 255.039 159.846 252.658 156.706 250.045C154.784 248.448 152.826 244.893 152.193 243.507C152.136 243.38 152.032 243.281 151.903 243.231C151.774 243.181 151.63 243.183 151.502 243.238Z" fill="#52A5D8"/>
<path d="M156.306 259.557C154.028 259.632 151.886 258.057 149.796 256.526C148.712 255.684 147.564 254.928 146.361 254.264C144.593 253.337 142.944 252.197 141.453 250.868C140.963 250.404 140.651 249.783 140.57 249.112C140.49 248.442 140.647 247.765 141.013 247.198L144.532 241.478C144.609 241.351 144.714 241.244 144.839 241.163C144.964 241.082 145.106 241.031 145.253 241.012C145.401 240.994 145.551 241.01 145.692 241.059C145.833 241.108 145.962 241.188 146.067 241.294L146.771 241.989C147.355 242.571 148.101 242.964 148.911 243.115C149.722 243.267 150.559 243.17 151.314 242.838C151.431 242.784 151.558 242.754 151.687 242.749C151.816 242.744 151.945 242.766 152.066 242.812C152.188 242.856 152.3 242.924 152.395 243.013C152.491 243.101 152.567 243.208 152.62 243.326C153.276 244.761 155.206 248.201 157.018 249.702C159.521 251.787 162.393 254.638 161.856 256.394L161.786 256.627C161.417 257.89 161.109 258.176 157.661 259.337C157.222 259.476 156.766 259.55 156.306 259.557ZM145.345 241.958C145.322 241.963 145.301 241.977 145.288 241.998L141.77 247.717C141.516 248.101 141.407 248.561 141.46 249.018C141.513 249.474 141.725 249.897 142.06 250.212C143.492 251.49 145.076 252.588 146.775 253.481C148.023 254.163 149.215 254.944 150.337 255.818C152.752 257.578 155.03 259.263 157.375 258.457C160.625 257.362 160.673 257.19 160.893 256.354C160.92 256.28 160.942 256.196 160.968 256.108C161.188 255.395 160.128 253.468 156.42 250.388C154.34 248.659 152.325 244.88 151.785 243.692C151.781 243.682 151.775 243.673 151.768 243.666C151.76 243.659 151.751 243.654 151.741 243.652C151.731 243.648 151.72 243.645 151.71 243.645C151.699 243.645 151.689 243.648 151.679 243.652C150.757 244.07 149.73 244.198 148.734 244.021C147.738 243.843 146.819 243.368 146.098 242.658L145.403 241.958C145.384 241.951 145.364 241.951 145.345 241.958Z" fill="black"/>
<path d="M150.865 249.596C150.772 249.603 150.68 249.58 150.6 249.531C150.521 249.482 150.46 249.409 150.425 249.323C150.399 249.269 150.384 249.21 150.382 249.15C150.38 249.09 150.39 249.03 150.412 248.974C150.434 248.918 150.467 248.867 150.509 248.824C150.552 248.781 150.602 248.747 150.658 248.725L154.119 247.181C154.173 247.155 154.232 247.14 154.292 247.137C154.352 247.135 154.412 247.144 154.468 247.166C154.524 247.187 154.575 247.22 154.618 247.262C154.661 247.304 154.695 247.354 154.718 247.409C154.744 247.464 154.76 247.523 154.763 247.583C154.766 247.644 154.756 247.704 154.735 247.761C154.713 247.817 154.68 247.869 154.638 247.912C154.596 247.955 154.545 247.989 154.489 248.012L151.028 249.557C150.975 249.577 150.921 249.591 150.865 249.596Z" fill="black"/>
<path d="M152.308 251.695C152.215 251.702 152.123 251.68 152.044 251.632C151.965 251.584 151.904 251.512 151.868 251.426C151.841 251.372 151.826 251.313 151.823 251.253C151.82 251.192 151.829 251.132 151.851 251.075C151.872 251.019 151.905 250.967 151.948 250.924C151.99 250.881 152.041 250.846 152.097 250.824L155.765 249.178C155.819 249.151 155.878 249.136 155.939 249.133C155.999 249.13 156.059 249.14 156.116 249.161C156.172 249.183 156.224 249.216 156.267 249.258C156.31 249.3 156.345 249.351 156.367 249.407C156.394 249.461 156.409 249.52 156.412 249.581C156.415 249.641 156.406 249.702 156.384 249.758C156.363 249.815 156.33 249.866 156.288 249.91C156.245 249.953 156.195 249.987 156.139 250.01L152.475 251.638C152.423 251.666 152.366 251.685 152.308 251.695Z" fill="black"/>
<path d="M161.311 256.53C161.311 256.53 159.473 259.307 155.18 257.159C152.317 255.734 141.392 247.387 141.392 247.387L140.552 248.646C140.347 248.955 140.265 249.33 140.323 249.696C140.381 250.063 140.574 250.395 140.864 250.626C143.578 252.79 150.861 258.374 154.965 259.324C160.076 260.517 161.311 256.53 161.311 256.53Z" fill="white"/>
<path d="M156.987 259.997C156.27 260.015 155.554 259.939 154.858 259.769C150.701 258.801 143.488 253.301 140.581 250.969C140.204 250.666 139.953 250.233 139.877 249.754C139.802 249.276 139.907 248.787 140.172 248.382L141.012 247.128C141.046 247.075 141.09 247.03 141.143 246.996C141.195 246.962 141.254 246.939 141.316 246.93C141.376 246.919 141.439 246.922 141.499 246.937C141.559 246.952 141.615 246.98 141.663 247.018C141.773 247.101 152.588 255.351 155.381 256.746C159.238 258.673 160.861 256.368 160.932 256.271C160.99 256.178 161.081 256.11 161.187 256.081C161.293 256.051 161.406 256.063 161.504 256.112C161.604 256.157 161.685 256.238 161.728 256.339C161.772 256.44 161.777 256.554 161.741 256.658C161.38 257.631 160.732 258.471 159.883 259.068C159.034 259.664 158.024 259.988 156.987 259.997ZM141.5 248.043L140.929 248.897C140.788 249.112 140.733 249.372 140.773 249.625C140.814 249.879 140.948 250.109 141.148 250.269C144.007 252.548 151.089 257.96 155.065 258.884C157.264 259.39 158.645 258.906 159.524 258.237C158.442 258.554 156.938 258.55 154.977 257.569C152.382 256.271 143.51 249.557 141.5 248.043Z" fill="black"/>
<path d="M176.037 235.512L174.066 249.843L180.088 252.513L182.718 236.898L176.037 235.512Z" fill="white"/>
<path d="M180.105 252.958C180.035 252.962 179.966 252.948 179.903 252.918L173.881 250.252C173.79 250.213 173.714 250.145 173.666 250.058C173.618 249.971 173.601 249.87 173.618 249.772L175.588 235.442C175.596 235.38 175.617 235.321 175.649 235.267C175.682 235.214 175.726 235.169 175.777 235.134C175.827 235.097 175.884 235.072 175.945 235.059C176.006 235.046 176.068 235.046 176.129 235.059L182.814 236.445C182.872 236.455 182.927 236.476 182.977 236.508C183.026 236.54 183.069 236.581 183.102 236.629C183.135 236.678 183.158 236.732 183.17 236.79C183.182 236.847 183.182 236.907 183.171 236.964L180.532 252.579C180.521 252.648 180.495 252.713 180.454 252.77C180.414 252.827 180.36 252.873 180.298 252.905C180.239 252.938 180.173 252.957 180.105 252.958ZM174.563 249.561L179.74 251.853L182.199 237.246L176.424 236.049L174.563 249.561Z" fill="black"/>
<path d="M173.138 248.905C172.91 250.951 172.803 253.007 172.817 255.065C172.833 255.753 173.102 256.41 173.571 256.912C174.041 257.414 174.679 257.726 175.363 257.789C182.238 258.334 189.149 258.226 196.004 257.467C196.442 257.395 196.844 257.177 197.143 256.849C197.443 256.521 197.624 256.102 197.658 255.659C198.379 251.206 190.687 250.379 182.185 247.449C182.022 247.392 181.847 247.383 181.679 247.423C181.512 247.463 181.359 247.55 181.239 247.673L180.36 248.589C179.932 249.034 179.382 249.343 178.78 249.476C178.177 249.609 177.548 249.561 176.973 249.337L174.18 248.25C174.068 248.207 173.949 248.191 173.83 248.202C173.711 248.214 173.596 248.253 173.495 248.317C173.394 248.381 173.309 248.467 173.247 248.569C173.185 248.671 173.148 248.786 173.138 248.905Z" fill="#52A5D8"/>
<path d="M188.045 258.537C183.801 258.69 179.553 258.596 175.321 258.255C174.526 258.182 173.786 257.819 173.241 257.236C172.696 256.653 172.384 255.89 172.365 255.092C172.349 253.009 172.456 250.927 172.686 248.857C172.705 248.668 172.768 248.486 172.869 248.326C172.971 248.166 173.108 248.031 173.271 247.933C173.431 247.834 173.613 247.774 173.801 247.757C173.988 247.741 174.177 247.768 174.353 247.836L177.146 248.927C177.637 249.12 178.175 249.161 178.69 249.047C179.206 248.932 179.676 248.667 180.04 248.285L180.919 247.374C181.099 247.187 181.328 247.055 181.58 246.995C181.831 246.934 182.095 246.946 182.34 247.031C184.324 247.713 186.224 248.272 188.058 248.791C194.017 250.551 198.724 251.919 198.108 255.73C198.059 256.271 197.832 256.782 197.462 257.18C197.091 257.578 196.599 257.842 196.063 257.93C193.463 258.26 190.71 258.444 188.045 258.537ZM173.895 248.663C173.841 248.666 173.789 248.681 173.742 248.707C173.699 248.734 173.664 248.77 173.638 248.813C173.612 248.856 173.596 248.904 173.592 248.954C173.365 250.984 173.257 253.026 173.271 255.07C173.286 255.645 173.511 256.195 173.904 256.615C174.298 257.035 174.831 257.296 175.404 257.349C182.248 257.896 189.129 257.79 195.953 257.032C196.129 257.032 197.013 256.838 197.211 255.602C197.699 252.584 193.547 251.369 187.803 249.684C185.955 249.143 184.042 248.58 182.041 247.889C181.96 247.86 181.872 247.855 181.789 247.876C181.705 247.896 181.629 247.94 181.57 248.003L180.691 248.914C180.202 249.426 179.572 249.781 178.882 249.934C178.191 250.086 177.47 250.03 176.812 249.772L174.019 248.685C173.98 248.668 173.938 248.661 173.895 248.663Z" fill="black"/>
<path d="M172.812 254.74C172.812 254.74 172.812 254.968 172.812 255.078C172.829 255.766 173.098 256.423 173.567 256.925C174.037 257.427 174.675 257.739 175.359 257.802C182.234 258.347 189.145 258.239 196 257.481C196.438 257.408 196.839 257.19 197.139 256.862C197.439 256.535 197.62 256.115 197.654 255.672C197.691 255.296 197.691 254.918 197.654 254.542L197.113 254.586C189.379 255.229 181.608 255.302 173.864 254.806L172.812 254.74Z" fill="white"/>
<path d="M188.043 258.537C183.8 258.69 179.551 258.596 175.319 258.255C174.524 258.182 173.784 257.819 173.239 257.236C172.694 256.653 172.383 255.89 172.363 255.091V254.744C172.362 254.681 172.373 254.619 172.398 254.562C172.422 254.504 172.458 254.452 172.504 254.41C172.549 254.366 172.603 254.332 172.662 254.311C172.722 254.289 172.785 254.281 172.847 254.286L173.894 254.352C181.615 254.847 189.362 254.773 197.073 254.132L197.618 254.088C197.677 254.082 197.737 254.087 197.793 254.104C197.85 254.121 197.903 254.149 197.948 254.187C197.994 254.225 198.031 254.271 198.059 254.324C198.086 254.376 198.102 254.434 198.106 254.493C198.151 254.91 198.151 255.33 198.106 255.747C198.058 256.289 197.831 256.799 197.46 257.197C197.09 257.596 196.598 257.859 196.061 257.947C193.462 258.259 190.708 258.444 188.043 258.537ZM173.278 255.223C173.329 255.77 173.569 256.281 173.957 256.669C174.345 257.057 174.856 257.298 175.403 257.349C182.247 257.896 189.127 257.79 195.951 257.032C196.127 257.032 197.011 256.838 197.209 255.602C197.228 255.412 197.228 255.22 197.209 255.03H197.13C189.375 255.673 181.584 255.746 173.819 255.25L173.278 255.223Z" fill="black"/>
<path d="M184.287 252.632C184.172 252.634 184.061 252.593 183.975 252.518C183.929 252.478 183.893 252.43 183.867 252.375C183.841 252.321 183.827 252.261 183.824 252.201C183.822 252.141 183.833 252.081 183.855 252.025C183.877 251.969 183.91 251.918 183.953 251.875L186.798 248.795C186.838 248.75 186.887 248.713 186.941 248.687C186.995 248.661 187.055 248.647 187.115 248.645C187.175 248.643 187.235 248.653 187.291 248.675C187.347 248.697 187.398 248.731 187.441 248.773C187.485 248.815 187.52 248.864 187.544 248.92C187.567 248.975 187.58 249.034 187.58 249.095C187.58 249.155 187.567 249.214 187.544 249.27C187.52 249.325 187.485 249.375 187.441 249.416L184.595 252.496C184.555 252.538 184.507 252.571 184.455 252.595C184.402 252.618 184.345 252.631 184.287 252.632Z" fill="black"/>
<path d="M187.19 252.843C187.132 252.845 187.074 252.836 187.02 252.816C186.966 252.795 186.916 252.764 186.874 252.724C186.827 252.686 186.789 252.638 186.762 252.584C186.735 252.53 186.72 252.471 186.716 252.411C186.713 252.351 186.722 252.29 186.743 252.234C186.764 252.177 186.797 252.126 186.838 252.082L189.108 249.543C189.147 249.497 189.194 249.459 189.248 249.432C189.302 249.405 189.361 249.389 189.421 249.386C189.482 249.383 189.542 249.392 189.598 249.413C189.655 249.434 189.707 249.466 189.75 249.508C189.796 249.547 189.834 249.595 189.861 249.649C189.888 249.703 189.904 249.761 189.907 249.822C189.91 249.882 189.901 249.942 189.88 249.999C189.859 250.055 189.827 250.107 189.785 250.151L187.516 252.689C187.474 252.735 187.424 252.773 187.368 252.799C187.313 252.825 187.252 252.84 187.19 252.843Z" fill="black"/>
<path d="M164.416 154.009C164.623 154.783 163.387 160.873 163.976 165.642C164.944 173.272 163.857 177.337 160.528 186.097C157.295 194.589 149.198 202.883 145.134 236.383C145.088 236.778 145.127 237.178 145.249 237.556C145.372 237.934 145.574 238.281 145.843 238.574C146.112 238.866 146.441 239.097 146.808 239.251C147.174 239.404 147.57 239.477 147.967 239.463L152.242 239.322C152.756 239.304 153.255 239.142 153.683 238.856C154.11 238.569 154.449 238.168 154.661 237.699C157.216 232.049 165.142 215.326 168.256 209.047C171.911 201.668 182.44 183.154 182.708 174.499C182.959 166.338 181.855 154.739 181.728 153.437C181.724 153.404 181.708 153.373 181.683 153.351C181.658 153.329 181.625 153.317 181.591 153.318L164.416 154.009Z" fill="black"/>
<path d="M188.317 150.973C188.317 150.973 199.391 171.56 194.474 197.172C190.956 215.704 185.651 236.423 183.918 242.336C183.753 242.902 183.414 243.401 182.95 243.763C182.486 244.125 181.92 244.333 181.332 244.356L176.666 244.55C176.269 244.566 175.872 244.499 175.503 244.351C175.134 244.203 174.801 243.979 174.525 243.693C174.249 243.407 174.037 243.066 173.902 242.691C173.768 242.317 173.714 241.919 173.745 241.522C174.506 231.79 176.767 200.287 176.151 192.724C175.135 180.259 171.753 175.256 170.702 166.5C169.567 156.961 171.493 151.915 171.493 151.915L188.317 150.973Z" fill="black"/>
<path d="M175.873 195.174H175.851C175.791 195.175 175.732 195.162 175.677 195.139C175.622 195.116 175.573 195.081 175.532 195.038C175.491 194.995 175.459 194.944 175.438 194.888C175.417 194.832 175.408 194.772 175.411 194.712C175.543 186.925 173.652 181.535 171.8 176.325C170.612 172.973 169.495 169.8 169.078 166.294C169.068 166.234 169.071 166.173 169.086 166.115C169.102 166.057 169.129 166.002 169.166 165.955C169.203 165.907 169.249 165.868 169.302 165.839C169.355 165.811 169.413 165.793 169.473 165.788C169.533 165.779 169.594 165.782 169.652 165.797C169.71 165.812 169.765 165.839 169.812 165.876C169.859 165.913 169.899 165.96 169.928 166.013C169.956 166.065 169.974 166.124 169.979 166.184C170.384 169.594 171.488 172.718 172.653 176.022C174.413 181.064 176.453 186.775 176.321 194.726C176.323 194.785 176.312 194.844 176.29 194.899C176.268 194.954 176.235 195.004 176.193 195.046C176.151 195.088 176.101 195.121 176.046 195.143C175.991 195.165 175.932 195.176 175.873 195.174Z" fill="#CADDFF"/>
<path d="M217.094 93.5859L217.916 90.5984C218.207 89.5251 218.219 88.3954 217.951 87.3161C217.512 85.5078 216.887 83.2022 217.903 82.881C219.988 82.221 218.875 85.8333 220.634 85.8685C221.554 85.8685 221.817 84.3374 221.844 83.5014C221.919 80.6151 222.935 79.6867 224.043 79.8935C225.151 80.1003 227.315 83.9238 225.899 87.2985C224.483 90.6732 220.26 94.8574 220.26 94.8574L217.094 93.5859Z" fill="white"/>
<path d="M220.296 95.3106C220.235 95.3115 220.174 95.3011 220.116 95.2798L216.927 94.0083C216.822 93.9694 216.735 93.8916 216.685 93.791C216.636 93.6904 216.626 93.5745 216.659 93.4671L217.477 90.4752C217.75 89.4787 217.762 88.4286 217.512 87.4261L217.468 87.2457C216.954 85.2041 216.377 82.8854 217.763 82.4454C217.958 82.3685 218.168 82.3339 218.378 82.3437C218.588 82.3536 218.794 82.4077 218.981 82.5026C219.548 82.8194 219.711 83.5014 219.861 84.1614C220.085 85.0941 220.23 85.4065 220.635 85.4109C221.039 85.4153 221.356 84.4254 221.378 83.4926C221.426 81.6755 221.818 80.4391 222.596 79.8275C222.809 79.6519 223.057 79.5263 223.325 79.46C223.592 79.3938 223.871 79.3885 224.14 79.4447C224.954 79.5943 225.631 80.6987 225.9 81.1651C226.74 82.7182 227.303 85.191 226.339 87.4745C224.91 90.8932 220.776 95.0071 220.622 95.1786C220.579 95.2218 220.529 95.2558 220.473 95.2785C220.417 95.3013 220.357 95.3122 220.296 95.3106ZM217.657 93.3131L220.186 94.3207C221.066 93.4407 224.334 89.9516 225.521 87.1225C225.857 86.2274 225.994 85.27 225.924 84.3166C225.853 83.3632 225.576 82.4365 225.112 81.6007C224.672 80.7427 224.184 80.3731 224.004 80.3379C223.863 80.3076 223.717 80.3093 223.577 80.3428C223.437 80.3763 223.306 80.4408 223.195 80.5315C222.667 80.9715 222.355 82.0187 222.315 83.5146C222.28 84.8346 221.822 86.3393 220.644 86.3217C219.465 86.3041 219.201 85.1865 219.003 84.377C218.898 83.937 218.774 83.4178 218.563 83.2946C218.403 83.2333 218.226 83.2333 218.066 83.2946C217.49 83.4794 218.066 85.8641 218.374 87.0081L218.418 87.1885C218.708 88.3456 218.694 89.558 218.379 90.7084L217.657 93.3131Z" fill="black"/>
<path d="M222.749 94.9146C222.749 94.9146 214.674 112.048 206.058 118.762C199.592 123.791 191.152 125.802 185.756 126.633C185.276 126.707 184.821 126.89 184.424 127.168C184.027 127.447 183.7 127.814 183.469 128.24C183.237 128.666 183.107 129.139 183.089 129.624C183.07 130.109 183.164 130.591 183.363 131.033C186.046 136.999 190.945 148.492 192.296 155.804L162.616 157.344C162.616 157.344 160.857 146.037 156.718 136.036C154.466 130.593 151.616 127.632 150.732 123.008C149.721 117.728 152.549 112.008 158.689 110.477C164.829 108.946 186.09 110.785 190.721 110.407C195.353 110.028 209.079 102.746 215.791 91.9052L222.749 94.9146Z" fill="white"/>
<path d="M162.635 157.784C162.523 157.792 162.413 157.756 162.326 157.685C162.239 157.614 162.183 157.513 162.169 157.401C162.169 157.287 160.374 146.028 156.302 136.194C155.471 134.255 154.517 132.371 153.447 130.553C152.04 128.054 150.808 125.894 150.285 123.074C149.317 117.992 151.89 111.691 158.58 110.019C162.573 109.02 172.654 109.421 180.769 109.742C185.211 109.918 189.046 110.068 190.687 109.936C194.782 109.601 208.513 102.781 215.405 91.6498C215.46 91.5541 215.549 91.4824 215.654 91.449C215.759 91.4156 215.873 91.4229 215.972 91.4694L222.935 94.4922C222.991 94.5158 223.041 94.5506 223.082 94.5945C223.124 94.6384 223.156 94.6904 223.177 94.7473C223.202 94.8035 223.214 94.8642 223.214 94.9255C223.214 94.9869 223.202 95.0476 223.177 95.1037C222.843 95.8077 214.956 112.413 206.354 119.105C200.002 124.046 191.694 126.145 185.84 127.069C185.429 127.131 185.037 127.289 184.697 127.528C184.356 127.768 184.076 128.084 183.879 128.45C183.68 128.813 183.569 129.217 183.554 129.63C183.539 130.043 183.62 130.454 183.791 130.831C186.557 136.99 191.404 148.386 192.759 155.703C192.769 155.767 192.766 155.832 192.75 155.895C192.734 155.958 192.706 156.017 192.666 156.068C192.626 156.119 192.575 156.16 192.517 156.19C192.46 156.219 192.397 156.236 192.332 156.24L162.657 157.78L162.635 157.784ZM164.21 110.345C162.393 110.36 160.581 110.547 158.8 110.904C152.585 112.457 150.263 118.119 151.178 122.906C151.688 125.577 152.871 127.676 154.256 130.109C155.343 131.953 156.313 133.863 157.159 135.829C160.836 144.703 162.657 154.722 163.018 156.838L191.769 155.347C190.309 148.109 185.655 137.158 182.972 131.187C182.743 130.684 182.633 130.135 182.653 129.583C182.673 129.031 182.822 128.491 183.087 128.006C183.353 127.514 183.73 127.091 184.188 126.77C184.646 126.45 185.173 126.24 185.726 126.158C191.47 125.278 199.62 123.197 205.817 118.375C213.501 112.4 220.863 97.7965 222.174 95.1257L216.016 92.4462C209.318 102.975 195.758 110.424 190.806 110.829C189.117 110.965 185.255 110.829 180.782 110.635C175.289 110.437 168.942 110.186 164.21 110.345Z" fill="black"/>
<path d="M166.993 110.028L164.918 106.117C164.849 105.934 164.84 105.734 164.893 105.546C164.945 105.358 165.055 105.191 165.208 105.07L167.556 103.235C167.702 103.119 167.806 102.959 167.852 102.778C167.898 102.598 167.884 102.408 167.812 102.236L166.461 99.0197L167.187 97.735C167.201 97.7113 167.21 97.6851 167.214 97.6579C167.218 97.6306 167.217 97.6029 167.21 97.5762C167.203 97.5496 167.191 97.5246 167.174 97.5027C167.157 97.4809 167.136 97.4626 167.112 97.449L164.768 96.0234C163.967 95.4558 162.798 93.8235 162.402 94.1094C162.402 94.1094 152.62 96.3094 153.799 101.149C153.971 101.864 154.4 102.49 155.004 102.909L156.24 103.789C157.499 104.658 158.398 105.956 158.769 107.441C158.844 107.753 159.121 109.808 159.297 111.168C159.397 111.938 159.217 112.719 158.791 113.368C158.25 114.186 157.603 115.211 157.766 115.207C158.785 115.611 159.864 115.842 160.959 115.893C164.297 116.074 167.965 114.573 170.094 112.008C170.094 112.004 167.262 110.842 166.993 110.028Z" fill="white"/>
<path d="M161.868 116.351C161.556 116.351 161.244 116.351 160.936 116.351C159.785 116.298 158.651 116.054 157.58 115.629C157.482 115.588 157.4 115.515 157.347 115.422C157.202 115.167 157.14 115.048 158.411 113.121C158.78 112.564 158.936 111.892 158.851 111.229C158.455 108.211 158.354 107.648 158.332 107.547C157.985 106.169 157.149 104.965 155.979 104.159L154.743 103.279C154.055 102.802 153.563 102.093 153.358 101.281C153.234 100.781 153.215 100.261 153.301 99.7528C153.387 99.2448 153.577 98.7601 153.859 98.3289C155.75 95.2886 161.503 93.8586 162.238 93.687C162.774 93.4186 163.359 94.0214 164.089 94.7694C164.378 95.0857 164.689 95.3799 165.022 95.6494L167.353 97.0661C167.502 97.1558 167.61 97.3007 167.654 97.4694C167.698 97.6381 167.673 97.8172 167.586 97.9681L166.97 99.0592L168.228 102.042C168.337 102.306 168.357 102.597 168.287 102.873C168.216 103.149 168.058 103.395 167.837 103.574L165.501 105.43C165.429 105.49 165.376 105.57 165.349 105.66C165.322 105.751 165.323 105.847 165.352 105.936L167.415 109.817C167.427 109.841 167.437 109.866 167.445 109.892C167.546 110.217 168.875 111.009 170.287 111.586C170.353 111.611 170.412 111.653 170.459 111.707C170.505 111.76 170.538 111.824 170.555 111.894C170.573 111.963 170.574 112.036 170.558 112.105C170.542 112.175 170.509 112.24 170.463 112.294C168.47 114.679 165.119 116.241 161.868 116.351ZM158.35 114.934C159.203 115.217 160.091 115.385 160.989 115.436C162.531 115.499 164.07 115.242 165.508 114.681C166.946 114.119 168.253 113.266 169.345 112.175C168.391 111.735 166.874 110.956 166.588 110.213L164.521 106.328C164.518 106.309 164.518 106.29 164.521 106.271C164.42 105.998 164.409 105.7 164.488 105.42C164.567 105.141 164.732 104.893 164.96 104.713L167.261 102.878C167.326 102.822 167.372 102.747 167.392 102.663C167.413 102.58 167.407 102.492 167.375 102.412L166.025 99.1957C165.995 99.133 165.98 99.0647 165.98 98.9955C165.98 98.9263 165.995 98.8579 166.025 98.7953L166.636 97.7129L164.494 96.3929H164.468C164.083 96.0938 163.724 95.7626 163.395 95.403C163.115 95.091 162.807 94.8053 162.475 94.5494C162.414 94.5494 156.379 95.9442 154.602 98.7997C154.383 99.1278 154.236 99.4983 154.169 99.8871C154.103 100.276 154.118 100.674 154.215 101.057C154.369 101.654 154.733 102.176 155.24 102.526L156.481 103.406C157.838 104.335 158.809 105.727 159.212 107.322C159.273 107.577 159.454 108.845 159.748 111.093C159.863 111.973 159.657 112.865 159.168 113.605C158.719 114.296 158.464 114.696 158.341 114.934H158.35Z" fill="black"/>
<path d="M160.224 86.8277C158.025 87.4657 161.517 88.7196 152.787 89.208C149.312 89.4016 152.215 92.5211 151.313 92.5739C147.988 92.7719 148.098 92.7587 146.766 93.6739C145.886 94.2766 145.886 96.3138 146.55 97.5898C147.43 99.2837 151.463 101.95 154.577 103.978C156.178 105.021 158.729 104.291 158.381 101.941C158.289 101.29 156.147 100.573 156.521 99.3673C157.207 97.1674 158.936 99.4553 159.864 98.2849C160.65 97.2625 161.331 96.1627 161.896 95.0026C162.894 93.1679 166.065 94.3779 165.876 91.1C165.779 89.4016 163.211 85.9609 160.224 86.8277Z" fill="black"/>
<path d="M255.921 47.3257L293.258 74.7544L337.557 35.1381L255.921 47.3257Z" fill="white"/>
<path d="M293.277 75.2031C293.175 75.2071 293.076 75.176 292.995 75.1151L255.667 47.6952C255.592 47.6438 255.535 47.5705 255.504 47.4855C255.472 47.4004 255.468 47.3077 255.491 47.22C255.51 47.1312 255.557 47.0505 255.624 46.989C255.691 46.9276 255.775 46.8884 255.865 46.8768L337.474 34.6892C337.571 34.6719 337.671 34.6877 337.758 34.7339C337.845 34.7802 337.914 34.8543 337.954 34.9444C337.998 35.0326 338.011 35.1331 337.991 35.2296C337.971 35.3262 337.919 35.4132 337.844 35.4768L293.549 75.0756C293.474 75.1463 293.379 75.191 293.277 75.2031ZM257.083 47.616L293.237 74.1736L336.124 35.8112L257.083 47.616Z" fill="black"/>
<path d="M270.299 74.9789L267.295 55.8219L324.586 40.2375L273.681 60.3801L283.252 67.3055L270.299 74.9789Z" fill="white"/>
<path d="M270.313 75.4365C270.242 75.4373 270.171 75.4222 270.106 75.3925C270.038 75.3617 269.979 75.3141 269.934 75.254C269.89 75.194 269.861 75.1235 269.851 75.0493L266.852 55.8923C266.83 55.7811 266.853 55.666 266.914 55.571C266.976 55.4759 267.071 55.4082 267.181 55.3819L324.468 39.7976C324.524 39.7808 324.583 39.7752 324.641 39.7811C324.699 39.7871 324.755 39.8045 324.806 39.8323C324.857 39.8601 324.902 39.8979 324.939 39.9433C324.975 39.9887 325.002 40.0409 325.018 40.0968C325.058 40.2065 325.052 40.3274 325.003 40.433C324.953 40.5386 324.864 40.6203 324.754 40.66L274.614 60.499L283.512 66.9404C283.574 66.9832 283.624 67.0414 283.657 67.1092C283.69 67.177 283.706 67.2522 283.701 67.3275C283.699 67.4028 283.678 67.4764 283.639 67.5411C283.601 67.6058 283.546 67.6595 283.481 67.6971L270.524 75.3705C270.46 75.4088 270.388 75.4314 270.313 75.4365ZM267.81 56.1519L270.643 74.2485L282.426 67.2836L273.418 60.763C273.348 60.7152 273.294 60.6482 273.261 60.5702C273.228 60.4922 273.219 60.4063 273.233 60.323C273.241 60.2412 273.272 60.1633 273.321 60.098C273.371 60.0327 273.438 59.9826 273.515 59.9534L316.829 42.7939L267.81 56.1519Z" fill="black"/>
<path d="M270.313 75.4013C270.277 75.4077 270.24 75.4077 270.203 75.4013C270.096 75.3722 270.005 75.304 269.946 75.2103C269.887 75.1165 269.866 75.004 269.887 74.8953L273.26 60.2878C273.289 60.181 273.357 60.0892 273.451 60.0304C273.545 59.9717 273.657 59.9505 273.766 59.971C273.872 60.0001 273.964 60.0683 274.023 60.162C274.082 60.2558 274.103 60.3683 274.082 60.477L270.696 75.0757C270.673 75.1626 270.624 75.2403 270.555 75.2985C270.487 75.3567 270.403 75.3926 270.313 75.4013Z" fill="black"/>
<path d="M161.383 59.1669C160.939 59.2343 160.486 59.1374 160.109 58.8943C159.731 58.6513 159.456 58.2789 159.333 57.847C159.201 57.3788 159.259 56.8771 159.496 56.4522C159.61 56.2397 159.766 56.0523 159.954 55.9011C160.143 55.75 160.359 55.6381 160.591 55.5722C161.059 55.439 161.56 55.4967 161.986 55.7325C162.411 55.9684 162.726 56.3632 162.861 56.8306C162.994 57.2985 162.936 57.8001 162.7 58.2256C162.465 58.6511 162.07 58.9659 161.603 59.1009L161.383 59.1669ZM160.956 56.439C160.917 56.4436 160.879 56.4524 160.842 56.4654C160.725 56.498 160.616 56.5537 160.52 56.6293C160.425 56.7049 160.346 56.7988 160.288 56.9054C160.17 57.1205 160.141 57.3734 160.209 57.6093C160.277 57.8445 160.436 58.0431 160.65 58.1617C160.864 58.2804 161.117 58.3096 161.352 58.2429C161.469 58.2095 161.578 58.1534 161.673 58.0778C161.768 58.0022 161.847 57.9086 161.906 57.8023C161.965 57.6961 162.002 57.5792 162.016 57.4586C162.029 57.3379 162.019 57.2157 161.985 57.099C161.924 56.8824 161.785 56.6958 161.596 56.5743C161.406 56.4527 161.179 56.4046 160.956 56.439Z" fill="black"/>
<path d="M299.82 119.642C299.532 119.724 299.232 119.75 298.935 119.716C298.637 119.682 298.35 119.59 298.088 119.445C297.827 119.3 297.597 119.104 297.411 118.87C297.225 118.636 297.087 118.367 297.005 118.08C296.922 117.793 296.897 117.492 296.93 117.195C296.964 116.898 297.056 116.611 297.2 116.349C297.345 116.088 297.539 115.857 297.773 115.671C298.007 115.485 298.275 115.346 298.562 115.264C299.142 115.097 299.765 115.167 300.294 115.459C300.822 115.751 301.213 116.241 301.381 116.821C301.547 117.403 301.476 118.026 301.183 118.554C300.89 119.083 300.4 119.474 299.82 119.642Z" fill="#52A5D8"/>
<path d="M176.209 35.2052C175.58 35.2981 174.939 35.1611 174.403 34.8192C173.868 34.4773 173.473 33.9535 173.293 33.344C173.109 32.6779 173.193 31.966 173.528 31.3614C173.862 30.7567 174.421 30.3075 175.083 30.1102C175.749 29.9259 176.46 30.0102 177.065 30.345C177.669 30.6798 178.118 31.2385 178.316 31.9009C178.5 32.567 178.415 33.2789 178.081 33.8836C177.746 34.4882 177.188 34.9375 176.525 35.1348C176.422 35.1666 176.316 35.1901 176.209 35.2052ZM175.518 30.9373C175.449 30.9498 175.38 30.9659 175.312 30.9857C174.878 31.1115 174.512 31.4038 174.294 31.7988C174.076 32.1938 174.022 32.6592 174.146 33.0932C174.207 33.3086 174.311 33.5098 174.45 33.6852C174.589 33.8606 174.761 34.0069 174.957 34.1156C175.152 34.2243 175.368 34.2933 175.59 34.3187C175.812 34.3441 176.038 34.3254 176.253 34.2636C176.687 34.1368 177.053 33.8438 177.272 33.4483C177.491 33.0529 177.545 32.5869 177.423 32.1517C177.308 31.7552 177.055 31.4131 176.71 31.1878C176.364 30.9625 175.949 30.8689 175.54 30.9241L175.518 30.9373Z" fill="black"/>
<path d="M231.283 143.441C230.613 143.542 229.928 143.42 229.335 143.093C228.984 142.899 228.675 142.637 228.426 142.323C228.177 142.009 227.993 141.649 227.883 141.263C227.771 140.877 227.736 140.473 227.781 140.074C227.826 139.676 227.951 139.29 228.147 138.94C228.34 138.588 228.601 138.279 228.914 138.029C229.228 137.779 229.587 137.593 229.973 137.483C230.358 137.372 230.762 137.339 231.16 137.384C231.558 137.429 231.944 137.553 232.295 137.747C232.646 137.941 232.956 138.203 233.205 138.517C233.455 138.831 233.641 139.191 233.751 139.578C233.862 139.963 233.897 140.367 233.851 140.766C233.806 141.164 233.682 141.55 233.487 141.901C233.293 142.252 233.031 142.562 232.717 142.812C232.403 143.062 232.043 143.247 231.657 143.357C231.534 143.391 231.409 143.419 231.283 143.441ZM230.487 138.302C230.398 138.314 230.31 138.333 230.223 138.359C229.677 138.516 229.215 138.883 228.939 139.38C228.802 139.626 228.715 139.897 228.683 140.177C228.652 140.457 228.676 140.741 228.754 141.012C228.911 141.558 229.278 142.02 229.775 142.297C230.021 142.434 230.292 142.521 230.572 142.552C230.852 142.584 231.136 142.56 231.406 142.481C231.677 142.405 231.93 142.275 232.151 142.1C232.371 141.925 232.555 141.707 232.691 141.461C232.828 141.214 232.915 140.943 232.946 140.663C232.978 140.383 232.954 140.099 232.875 139.828C232.799 139.557 232.669 139.304 232.494 139.084C232.319 138.863 232.102 138.68 231.855 138.544C231.439 138.312 230.957 138.227 230.487 138.302Z" fill="black"/>
<path d="M199.203 34.3064C199.101 34.3217 198.998 34.3032 198.908 34.2536C198.854 34.2261 198.806 34.1878 198.768 34.141C198.73 34.0942 198.701 34.04 198.685 33.9818C198.668 33.9236 198.664 33.8626 198.672 33.8026C198.68 33.7426 198.701 33.685 198.732 33.6333L199.55 32.1725C199.578 32.1186 199.616 32.071 199.663 32.0325C199.71 31.9941 199.764 31.9658 199.822 31.9493C199.88 31.9328 199.941 31.9284 200.001 31.9365C200.061 31.9447 200.119 31.9651 200.171 31.9965C200.224 32.0245 200.27 32.0629 200.308 32.1095C200.345 32.1561 200.373 32.2099 200.389 32.2676C200.405 32.3252 200.409 32.3856 200.401 32.4449C200.393 32.5042 200.373 32.5612 200.342 32.6125L199.528 34.0777C199.496 34.1387 199.449 34.1912 199.393 34.2309C199.336 34.2707 199.271 34.2966 199.203 34.3064Z" fill="black"/>
<path d="M202.058 29.185C201.958 29.198 201.856 29.1796 201.767 29.1322C201.713 29.1046 201.666 29.0663 201.627 29.0195C201.589 28.9728 201.561 28.9186 201.544 28.8604C201.528 28.8021 201.523 28.7411 201.531 28.6811C201.539 28.6212 201.56 28.5635 201.591 28.5118L202.405 27.0511C202.433 26.9971 202.471 26.9495 202.518 26.9111C202.565 26.8727 202.619 26.8443 202.677 26.8278C202.735 26.8113 202.796 26.807 202.856 26.8151C202.916 26.8232 202.974 26.8436 203.026 26.8751C203.079 26.9026 203.126 26.9408 203.164 26.9872C203.202 27.0336 203.23 27.0874 203.247 27.145C203.263 27.2027 203.268 27.2632 203.26 27.3227C203.252 27.3822 203.232 27.4395 203.202 27.491L202.383 28.9562C202.351 29.0172 202.304 29.0697 202.248 29.1095C202.191 29.1492 202.126 29.1751 202.058 29.185Z" fill="black"/>
<path d="M204.34 32.8325C204.24 32.8489 204.137 32.8302 204.049 32.7797L202.58 31.9701C202.526 31.9426 202.479 31.9044 202.441 31.858C202.403 31.8116 202.375 31.7579 202.359 31.7002C202.342 31.6425 202.338 31.582 202.345 31.5225C202.353 31.463 202.373 31.4057 202.404 31.3542C202.431 31.3005 202.469 31.253 202.515 31.2145C202.561 31.1761 202.615 31.1475 202.673 31.1306C202.73 31.1137 202.791 31.1088 202.851 31.1162C202.91 31.1237 202.968 31.1432 203.02 31.1738L204.489 31.9833C204.543 32.0105 204.59 32.0484 204.629 32.0946C204.667 32.1409 204.696 32.1945 204.713 32.2523C204.73 32.31 204.735 32.3706 204.727 32.4303C204.72 32.4899 204.7 32.5475 204.67 32.5993C204.635 32.6598 204.587 32.7121 204.53 32.7523C204.473 32.7926 204.408 32.82 204.34 32.8325Z" fill="black"/>
<path d="M199.203 30.0034C199.103 30.0198 199 30.0011 198.913 29.9506L197.443 29.1454C197.389 29.1179 197.342 29.0796 197.303 29.0328C197.265 28.986 197.236 28.9318 197.22 28.8736C197.203 28.8154 197.199 28.7544 197.207 28.6944C197.215 28.6344 197.236 28.5768 197.267 28.525C197.295 28.4717 197.333 28.4246 197.379 28.3866C197.426 28.3486 197.479 28.3205 197.537 28.304C197.595 28.2875 197.655 28.283 197.715 28.2908C197.774 28.2985 197.832 28.3184 197.883 28.3491L199.353 29.1542C199.407 29.1814 199.455 29.2194 199.494 29.266C199.533 29.3126 199.562 29.3667 199.578 29.425C199.595 29.4832 199.6 29.5444 199.592 29.6045C199.584 29.6647 199.564 29.7226 199.533 29.7746C199.498 29.8347 199.451 29.8864 199.394 29.9259C199.337 29.9655 199.271 29.9919 199.203 30.0034Z" fill="black"/>
<path d="M131.177 138.819C131.085 138.774 131.011 138.699 130.965 138.608C130.937 138.554 130.92 138.496 130.915 138.435C130.91 138.375 130.917 138.314 130.937 138.257C130.957 138.2 130.988 138.147 131.029 138.103C131.07 138.058 131.12 138.022 131.175 137.998L132.68 137.265C132.734 137.237 132.792 137.219 132.853 137.214C132.913 137.21 132.974 137.217 133.031 137.237C133.088 137.256 133.141 137.288 133.185 137.329C133.23 137.37 133.266 137.419 133.29 137.475C133.318 137.528 133.334 137.586 133.338 137.646C133.343 137.705 133.335 137.765 133.315 137.822C133.295 137.878 133.264 137.93 133.224 137.974C133.183 138.018 133.134 138.054 133.08 138.078L131.575 138.817C131.514 138.849 131.446 138.865 131.377 138.866C131.307 138.866 131.239 138.85 131.177 138.819Z" fill="black"/>
<path d="M136.444 136.242C136.355 136.196 136.282 136.123 136.236 136.033C136.207 135.98 136.19 135.921 136.185 135.861C136.18 135.8 136.188 135.74 136.208 135.682C136.227 135.625 136.259 135.573 136.299 135.528C136.34 135.483 136.39 135.448 136.445 135.423L137.947 134.688C138.001 134.66 138.059 134.642 138.12 134.637C138.18 134.633 138.241 134.64 138.298 134.66C138.355 134.679 138.408 134.711 138.452 134.752C138.497 134.793 138.533 134.842 138.557 134.898C138.585 134.951 138.602 135.009 138.607 135.069C138.612 135.128 138.604 135.189 138.585 135.245C138.565 135.302 138.534 135.354 138.494 135.399C138.454 135.443 138.405 135.479 138.35 135.504L136.842 136.24C136.781 136.272 136.713 136.288 136.643 136.289C136.574 136.289 136.506 136.273 136.444 136.242Z" fill="black"/>
<path d="M136.238 140.54C136.146 140.496 136.072 140.422 136.029 140.331L135.284 138.828C135.256 138.774 135.239 138.716 135.235 138.656C135.23 138.597 135.237 138.536 135.257 138.48C135.276 138.423 135.307 138.371 135.347 138.326C135.388 138.282 135.437 138.246 135.491 138.221C135.544 138.193 135.602 138.175 135.662 138.17C135.722 138.165 135.783 138.172 135.84 138.191C135.897 138.21 135.949 138.241 135.994 138.281C136.039 138.321 136.075 138.37 136.1 138.425L136.845 139.928C136.873 139.981 136.891 140.039 136.896 140.099C136.901 140.159 136.894 140.219 136.875 140.276C136.856 140.333 136.825 140.386 136.785 140.431C136.745 140.476 136.696 140.512 136.642 140.537C136.579 140.567 136.51 140.582 136.44 140.583C136.37 140.584 136.301 140.569 136.238 140.54Z" fill="black"/>
<path d="M133.634 135.286C133.542 135.242 133.469 135.168 133.425 135.076L132.678 133.577C132.649 133.523 132.632 133.465 132.627 133.404C132.622 133.344 132.63 133.283 132.65 133.226C132.669 133.169 132.701 133.116 132.742 133.072C132.782 133.027 132.832 132.991 132.887 132.967C132.941 132.939 132.999 132.922 133.059 132.917C133.118 132.912 133.179 132.92 133.235 132.939C133.292 132.959 133.344 132.99 133.389 133.03C133.433 133.07 133.469 133.119 133.494 133.174L134.241 134.674C134.27 134.727 134.288 134.785 134.293 134.846C134.299 134.906 134.291 134.967 134.272 135.025C134.253 135.082 134.222 135.135 134.181 135.18C134.14 135.225 134.091 135.261 134.035 135.286C133.972 135.315 133.904 135.331 133.834 135.331C133.765 135.331 133.696 135.315 133.634 135.286Z" fill="black"/>
<path d="M271.909 170.297C271.809 170.311 271.708 170.292 271.619 170.245C271.565 170.217 271.517 170.179 271.479 170.132C271.44 170.085 271.412 170.031 271.396 169.973C271.379 169.915 271.375 169.854 271.383 169.794C271.391 169.734 271.411 169.676 271.443 169.624L272.45 167.82C272.478 167.767 272.516 167.72 272.563 167.682C272.609 167.644 272.663 167.616 272.72 167.599C272.778 167.583 272.839 167.578 272.898 167.586C272.958 167.594 273.015 167.614 273.066 167.644C273.12 167.672 273.168 167.71 273.206 167.757C273.245 167.804 273.273 167.858 273.29 167.916C273.306 167.974 273.311 168.035 273.302 168.095C273.294 168.155 273.274 168.213 273.242 168.265L272.235 170.069C272.202 170.13 272.156 170.182 272.099 170.222C272.043 170.262 271.978 170.288 271.909 170.297Z" fill="black"/>
<path d="M275.432 163.975C275.332 163.992 275.23 163.975 275.141 163.926C275.087 163.899 275.04 163.861 275.001 163.814C274.963 163.767 274.935 163.713 274.918 163.655C274.902 163.596 274.897 163.535 274.905 163.475C274.913 163.415 274.934 163.358 274.965 163.306L275.973 161.502C276 161.449 276.039 161.402 276.085 161.364C276.131 161.326 276.185 161.298 276.243 161.281C276.301 161.265 276.361 161.26 276.421 161.268C276.48 161.276 276.537 161.295 276.589 161.326C276.642 161.354 276.689 161.392 276.727 161.438C276.765 161.485 276.793 161.538 276.81 161.596C276.826 161.654 276.831 161.714 276.823 161.774C276.815 161.833 276.796 161.891 276.765 161.942L275.757 163.75C275.724 163.811 275.678 163.862 275.621 163.901C275.565 163.94 275.5 163.965 275.432 163.975Z" fill="black"/>
<path d="M278.248 168.48C278.148 168.497 278.046 168.478 277.958 168.428L276.15 167.433C276.096 167.406 276.048 167.368 276.01 167.322C275.971 167.276 275.943 167.222 275.926 167.164C275.909 167.107 275.904 167.046 275.912 166.986C275.919 166.927 275.939 166.869 275.969 166.817C275.996 166.764 276.034 166.716 276.08 166.678C276.127 166.639 276.18 166.611 276.238 166.594C276.296 166.577 276.356 166.572 276.416 166.579C276.476 166.587 276.533 166.606 276.585 166.637L278.398 167.631C278.452 167.658 278.5 167.696 278.539 167.743C278.578 167.79 278.607 167.844 278.624 167.902C278.641 167.96 278.645 168.021 278.637 168.082C278.63 168.142 278.61 168.2 278.578 168.252C278.545 168.313 278.498 168.366 278.441 168.406C278.383 168.446 278.317 168.471 278.248 168.48Z" fill="black"/>
<path d="M271.909 164.987C271.811 165.003 271.711 164.986 271.623 164.938L269.811 163.94C269.757 163.912 269.709 163.875 269.671 163.828C269.633 163.782 269.604 163.728 269.587 163.671C269.57 163.613 269.565 163.552 269.573 163.493C269.58 163.433 269.6 163.375 269.63 163.324C269.657 163.269 269.695 163.221 269.742 163.182C269.789 163.144 269.843 163.115 269.901 163.098C269.959 163.081 270.02 163.076 270.081 163.084C270.141 163.092 270.199 163.112 270.251 163.143L272.059 164.142C272.113 164.169 272.16 164.207 272.199 164.253C272.237 164.3 272.266 164.353 272.283 164.411C272.299 164.469 272.304 164.529 272.297 164.589C272.29 164.649 272.27 164.706 272.239 164.758C272.206 164.82 272.159 164.872 272.102 164.912C272.045 164.952 271.979 164.978 271.909 164.987Z" fill="black"/>
</g>
<defs>
<filter id="filter0_f_2052_38823" x="17" y="16" width="219" height="217" filterUnits="userSpaceOnUse" color-interpolation-filters="sRGB">
<feFlood flood-opacity="0" result="BackgroundImageFix"/>
<feBlend mode="normal" in="SourceGraphic" in2="BackgroundImageFix" result="shape"/>
<feGaussianBlur stdDeviation="20" result="effect1_foregroundBlur_2052_38823"/>
</filter>
<filter id="filter1_f_2052_38823" x="133" y="-11" width="278" height="278" filterUnits="userSpaceOnUse" color-interpolation-filters="sRGB">
<feFlood flood-opacity="0" result="BackgroundImageFix"/>
<feBlend mode="normal" in="SourceGraphic" in2="BackgroundImageFix" result="shape"/>
<feGaussianBlur stdDeviation="30" result="effect1_foregroundBlur_2052_38823"/>
</filter>
<clipPath id="clip0_2052_38823">
<rect width="400" height="260" fill="white"/>
</clipPath>
</defs>
</svg>
