<svg width="400" height="260" viewBox="0 0 400 260" fill="none" xmlns="http://www.w3.org/2000/svg">
<g clip-path="url(#clip0_1941_54031)">
<path d="M125.155 249.659C137.504 255.213 178.497 262.465 207.904 259.172C245.625 254.945 275.379 234.014 292.094 213.655C347.56 146.098 311.727 22.4306 259.48 6.05455C250.001 3.08297 240.858 3.91614 229.609 4.94678C193.83 8.21459 183.197 25.4362 145.2 37.017C110.63 47.5548 106.737 37.1651 91.367 47.021C58.0269 68.3991 59.5791 128.148 69.6494 172.364C73.7215 190.218 79.964 229.392 125.155 249.659Z" fill="#E5F5FE"/>
<g filter="url(#filter0_f_1941_54031)">
<ellipse cx="234.5" cy="143" rx="98.5" ry="99" fill="#B5E0FF" fill-opacity="0.6"/>
</g>
<g filter="url(#filter1_f_1941_54031)">
<circle cx="127" cy="111" r="79" fill="#FFE7C3" fill-opacity="0.6"/>
</g>
<path d="M116.532 108.817C117.315 106.789 122.407 93.2739 119.955 85.3497C119.615 84.245 119.083 82.5324 117.528 81.1685C114.436 78.4407 111.282 80.6408 108.815 78.6505C105.556 76.0245 109.273 70.7788 105.723 63.2032C104.87 61.3857 103.559 58.5561 100.618 57.1336C97.3503 55.5413 95.4519 57.3403 92.227 56.1153C88.2075 54.5878 88.6434 50.8325 84.862 47.0833C80.8797 43.1304 73.1128 40.057 67.3618 43.1736C62.3529 45.8922 60.7915 52.2889 61.0265 56.6645C61.3759 63.1446 65.8221 68.4182 70.4785 70.859C77.1725 74.3675 83.953 71.8125 84.8466 74.3551C85.6814 76.7219 79.8408 79.0362 80.1407 83.4674C80.3541 86.5531 83.4831 89.5833 86.6832 90.3671C91.1201 91.4502 93.6956 87.7411 96.3423 89.1575C99.125 90.6386 97.5791 95.403 99.5548 99.7262C101.184 103.29 105.457 107.067 116.532 108.817Z" fill="#A2D2EC"/>
<path d="M116.693 107.41C116.62 107.411 116.549 107.387 116.492 107.341C116.436 107.295 116.397 107.231 116.383 107.16C112.574 89.21 101.335 76.364 92.5757 68.7484C83.0712 60.4848 74.3551 56.4054 74.2685 56.3776C74.23 56.361 74.1953 56.3368 74.1666 56.3064C74.1378 56.276 74.1155 56.2401 74.101 56.2009C74.0865 56.1616 74.0803 56.1199 74.0825 56.0781C74.0847 56.0363 74.0954 55.9955 74.1139 55.958C74.1302 55.9189 74.1544 55.8836 74.1849 55.8543C74.2154 55.825 74.2517 55.8022 74.2914 55.7875C74.3312 55.7727 74.3735 55.7662 74.4158 55.7685C74.4581 55.7708 74.4996 55.7817 74.5375 55.8006C74.6241 55.8438 83.4082 59.9355 92.9776 68.2547C98.4073 72.9273 103.197 78.2933 107.222 84.2142C111.919 91.1216 115.239 98.8669 117.002 107.027C117.012 107.068 117.013 107.11 117.006 107.152C116.999 107.193 116.984 107.233 116.961 107.268C116.938 107.303 116.908 107.333 116.873 107.357C116.838 107.38 116.799 107.396 116.758 107.404C116.736 107.408 116.714 107.41 116.693 107.41Z" fill="#E6F6FD"/>
<path d="M117.492 101.852C124.189 86.6426 123.311 79.9959 120.893 76.7775C120.172 75.8178 118.475 74.0311 117.445 70.933C116.11 66.9216 117.195 64.6042 117.059 61.2716C116.796 54.7514 112.041 48.5151 106.766 45.5095C103.08 43.4082 95.9907 41.0908 91.6156 44.5252C89.7605 45.9786 87.9238 48.8452 88.737 50.9219C89.9027 53.8874 95.7093 52.2612 98.4796 56.248C99.9916 58.4265 98.7084 59.5281 100.335 61.8239C102.895 65.4435 107.279 64.3913 108.148 66.9586C108.992 69.4457 105.056 71.0812 105.616 74.2749C106.253 77.9161 111.623 78.4098 111.852 81.9214C111.991 84.0104 110.114 84.2635 109.997 86.692C109.87 89.645 112.576 90.8793 115.086 95.2704C116.233 97.323 117.045 99.5448 117.492 101.852Z" fill="#52A5D8"/>
<path d="M117.666 100.612H117.641C117.599 100.61 117.558 100.6 117.52 100.581C117.482 100.563 117.449 100.537 117.421 100.505C117.394 100.474 117.373 100.436 117.36 100.396C117.348 100.356 117.343 100.314 117.347 100.272C118.275 87.3277 116.2 73.5869 111.767 63.515C105.932 50.2648 97.315 46.4168 97.2346 46.3798C97.1955 46.3644 97.1599 46.3411 97.1301 46.3115C97.1003 46.2818 97.0768 46.2464 97.0612 46.2074C97.0455 46.1684 97.0381 46.1267 97.0392 46.0847C97.0403 46.0427 97.05 46.0014 97.0677 45.9632C97.0831 45.9238 97.1065 45.8879 97.1364 45.8579C97.1663 45.8278 97.2021 45.8043 97.2416 45.7886C97.281 45.773 97.3233 45.7656 97.3657 45.767C97.4081 45.7684 97.4498 45.7784 97.4882 45.7966C97.5747 45.8336 106.414 49.7618 112.354 63.2589C116.828 73.4202 118.934 87.2752 117.987 100.319C117.983 100.4 117.947 100.476 117.887 100.531C117.827 100.586 117.747 100.615 117.666 100.612Z" fill="#E6F6FD"/>
<path d="M180.535 194.292H260.059C261.348 194.263 262.585 193.777 263.548 192.921C264.512 192.065 265.138 190.895 265.315 189.62L278.53 80.4218C278.839 77.8421 277.426 74.5342 273.274 74.5342L194.9 75.75L180.535 194.292Z" fill="black"/>
<path d="M105.59 194.292H180.479L194.823 75.7498H119.937C118.647 75.7792 117.411 76.2653 116.448 77.1212C115.485 77.9771 114.858 79.147 114.68 80.4216L101.466 189.62C101.375 190.207 101.414 190.807 101.581 191.377C101.748 191.947 102.039 192.474 102.432 192.919C102.826 193.365 103.313 193.719 103.858 193.956C104.404 194.193 104.995 194.308 105.59 194.292Z" fill="black"/>
<path d="M178.914 193.016L178.846 193.576H179.41H258.922V193.576L258.933 193.576C260.341 193.545 261.691 193.014 262.743 192.079C263.795 191.144 264.479 189.866 264.673 188.473L264.673 188.473L264.674 188.465L277.888 79.274C277.988 78.618 277.944 77.9481 277.757 77.311C277.57 76.6713 277.245 76.0804 276.804 75.58C276.363 75.0796 275.818 74.6819 275.206 74.4148C274.597 74.1486 273.936 74.0188 273.271 74.0342H193.754H193.31L193.257 74.4741L178.914 193.016Z" fill="#A2D2EC" stroke="black"/>
<path d="M179.339 193.576H179.782L179.835 193.136L194.178 74.5942L194.246 74.0342H193.682H118.796V74.034L118.785 74.0343C117.377 74.0664 116.027 74.5972 114.975 75.5319C113.923 76.4667 113.239 77.7444 113.045 79.1369L113.044 79.1368L113.043 79.1459L99.8295 188.337C99.7291 188.993 99.774 189.664 99.9609 190.302C100.149 190.943 100.475 191.534 100.917 192.035C101.359 192.535 101.906 192.933 102.518 193.199C103.129 193.464 103.79 193.593 104.456 193.576H179.339Z" fill="#A2D2EC" stroke="black"/>
<path d="M259.295 189.716H179.746L191.115 174.71L250.848 172.553L259.554 176.416L259.295 189.716Z" fill="#A2D2EC"/>
<path d="M259.292 190.105H179.743C179.67 190.105 179.599 190.085 179.537 190.046C179.476 190.008 179.426 189.954 179.394 189.889C179.361 189.824 179.347 189.751 179.353 189.678C179.36 189.606 179.387 189.536 179.431 189.478L190.8 174.472C190.836 174.424 190.882 174.385 190.936 174.358C190.989 174.33 191.049 174.316 191.109 174.315L250.841 172.155C250.901 172.154 250.96 172.165 251.015 172.189L259.724 176.052C259.795 176.084 259.854 176.136 259.895 176.201C259.936 176.267 259.957 176.342 259.956 176.419L259.697 189.719C259.696 189.771 259.685 189.822 259.664 189.87C259.643 189.918 259.613 189.961 259.575 189.997C259.537 190.032 259.493 190.06 259.444 190.079C259.396 190.098 259.344 190.106 259.292 190.105ZM180.534 189.321H258.905L259.152 176.669L250.767 172.948L191.313 175.108L180.534 189.321Z" fill="black"/>
<path d="M272.05 61.9812L273.593 71.5409L259.293 189.716L257.707 180.523L272.05 61.9812Z" fill="#A2D2EC"/>
<path d="M259.294 190.105C259.203 190.106 259.115 190.075 259.044 190.019C258.973 189.963 258.924 189.884 258.904 189.796L257.321 180.604C257.315 180.566 257.315 180.527 257.321 180.49L271.664 61.9474C271.676 61.8533 271.721 61.7664 271.791 61.7028C271.862 61.6393 271.953 61.6034 272.048 61.6018C272.142 61.6014 272.232 61.6344 272.304 61.695C272.375 61.7555 272.423 61.8396 272.437 61.932L273.983 71.4978C273.988 71.5337 273.988 71.57 273.983 71.6058L259.683 189.79C259.671 189.883 259.627 189.969 259.557 190.032C259.487 190.095 259.397 190.13 259.303 190.133L259.294 190.105ZM258.103 180.511L259.226 187.007L273.195 71.5472L272.107 64.7925L258.103 180.511Z" fill="black"/>
<path d="M179.781 189.713C185.511 183.878 193.243 180.52 200.955 180.52H257.707L272.056 61.9783H215.298C207.59 61.9783 199.857 65.3356 194.125 71.1707L179.781 189.713Z" fill="white"/>
<path d="M179.783 190.105C179.724 190.105 179.666 190.092 179.613 190.068C179.539 190.032 179.478 189.974 179.439 189.902C179.399 189.83 179.384 189.748 179.394 189.666L193.737 71.1243C193.748 71.0381 193.787 70.958 193.848 70.8959C199.658 64.9805 207.477 61.5862 215.3 61.5862H272.058C272.116 61.5841 272.174 61.5949 272.228 61.6178C272.281 61.6408 272.329 61.6753 272.367 61.7189C272.405 61.7603 272.433 61.8093 272.449 61.8626C272.466 61.9159 272.471 61.9722 272.463 62.0275L258.098 180.57C258.087 180.665 258.041 180.753 257.969 180.816C257.897 180.88 257.805 180.915 257.709 180.915H200.944C193.329 180.915 185.713 184.223 180.052 189.99C179.98 190.061 179.884 190.102 179.783 190.105ZM194.501 71.3526L180.309 188.648C186.026 183.22 193.49 180.128 200.957 180.128H257.359L271.61 62.3854H215.3C207.728 62.3854 200.156 65.644 194.501 71.3526Z" fill="black"/>
<path d="M188.211 176.45C192.511 174.662 197.12 173.732 201.778 173.713H251.709L264.405 68.7976H214.477C209.53 68.7976 204.61 70.6491 200.619 73.923L188.211 176.45Z" fill="#E6F6FD"/>
<path d="M140.327 88.8364L179.746 189.716H105.633L104.047 180.523L140.327 88.8364Z" fill="#A2D2EC"/>
<path d="M179.744 190.105H105.631C105.541 190.106 105.453 190.075 105.382 190.019C105.311 189.963 105.261 189.884 105.242 189.796L103.659 180.604C103.645 180.533 103.653 180.46 103.68 180.394L139.958 88.707C139.987 88.6333 140.037 88.5701 140.103 88.5255C140.169 88.4809 140.246 88.4571 140.326 88.457C140.404 88.4585 140.481 88.483 140.546 88.5274C140.61 88.5718 140.661 88.6343 140.69 88.707L180.112 189.586C180.135 189.646 180.144 189.71 180.136 189.774C180.128 189.837 180.105 189.898 180.069 189.95C180.031 190 179.982 190.04 179.926 190.067C179.869 190.094 179.807 190.107 179.744 190.105ZM105.962 189.321H179.169L140.322 89.9073L104.45 180.57L105.962 189.321Z" fill="black"/>
<path d="M179.746 189.713C175.417 183.878 168.51 180.52 160.799 180.52H104.047L118.39 61.9783H175.142C182.853 61.9783 189.773 65.3356 194.093 71.1707L179.746 189.713Z" fill="white"/>
<path d="M179.744 190.105C179.684 190.104 179.625 190.089 179.571 190.062C179.517 190.035 179.471 189.996 179.435 189.947C175.187 184.205 168.397 180.912 160.803 180.912H104.045C103.99 180.912 103.935 180.901 103.884 180.879C103.834 180.856 103.788 180.824 103.751 180.783C103.714 180.741 103.687 180.692 103.67 180.639C103.653 180.585 103.648 180.529 103.655 180.474L117.999 61.9318C118.01 61.8366 118.056 61.7489 118.128 61.6852C118.2 61.6215 118.292 61.5863 118.388 61.5862H175.14C182.985 61.5862 190.006 64.9959 194.406 70.9391C194.466 71.0198 194.492 71.1203 194.48 71.2199L180.134 189.762C180.125 189.84 180.092 189.912 180.041 189.971C179.99 190.03 179.922 190.072 179.846 190.092C179.813 190.101 179.779 190.105 179.744 190.105ZM104.475 180.128H160.785C168.286 180.128 175.035 183.245 179.457 188.716L193.679 71.2785C189.428 65.6162 182.678 62.37 175.128 62.37H118.738L104.475 180.128Z" fill="black"/>
<path d="M186.936 73.9138C183.736 70.6336 179.25 68.7883 174.318 68.7883H124.387L111.691 173.704H161.623C166.072 173.68 170.473 174.614 174.528 176.441L186.936 73.9138Z" fill="#E6F6FD"/>
<path d="M249.534 82.7916H214.596C214.082 82.7916 213.59 82.5881 213.227 82.2258C212.864 81.8636 212.66 81.3722 212.66 80.8599C212.66 80.3476 212.864 79.8563 213.227 79.494C213.59 79.1317 214.082 78.9282 214.596 78.9282H249.534C250.048 78.9282 250.541 79.1317 250.904 79.4938C251.267 79.856 251.472 80.3473 251.473 80.8599C251.472 81.3725 251.267 81.8638 250.904 82.226C250.541 82.5882 250.048 82.7916 249.534 82.7916Z" fill="#A2D2EC"/>
<path d="M234.221 97.3531H203.389C202.875 97.3531 202.383 97.1496 202.02 96.7873C201.657 96.4251 201.453 95.9337 201.453 95.4214C201.453 94.9091 201.657 94.4178 202.02 94.0555C202.383 93.6933 202.875 93.4897 203.389 93.4897H234.221C234.735 93.4897 235.227 93.6933 235.59 94.0555C235.953 94.4178 236.157 94.9091 236.157 95.4214C236.157 95.9337 235.953 96.4251 235.59 96.7873C235.227 97.1496 234.735 97.3531 234.221 97.3531Z" fill="#A2D2EC"/>
<path d="M239.72 155.233H205.354C204.84 155.233 204.348 155.029 203.985 154.667C203.622 154.304 203.418 153.813 203.418 153.301C203.418 152.789 203.622 152.297 203.985 151.935C204.348 151.573 204.84 151.369 205.354 151.369H239.72C240.233 151.369 240.726 151.573 241.089 151.935C241.452 152.297 241.656 152.789 241.656 153.301C241.656 153.813 241.452 154.304 241.089 154.667C240.726 155.029 240.233 155.233 239.72 155.233Z" fill="#A2D2EC"/>
<path d="M173.607 125.705H139.24C138.727 125.705 138.235 125.502 137.872 125.139C137.509 124.777 137.305 124.286 137.305 123.773C137.305 123.261 137.509 122.769 137.871 122.406C138.234 122.044 138.727 121.839 139.24 121.839H173.607C174.12 121.839 174.613 122.044 174.976 122.406C175.338 122.769 175.542 123.261 175.542 123.773C175.542 124.027 175.492 124.278 175.395 124.513C175.298 124.747 175.155 124.96 174.975 125.139C174.796 125.319 174.582 125.461 174.347 125.558C174.113 125.655 173.861 125.705 173.607 125.705Z" fill="#A2D2EC"/>
<path d="M230.682 164.771H199.853C199.339 164.771 198.846 164.567 198.483 164.205C198.119 163.843 197.915 163.352 197.914 162.839C197.914 162.326 198.118 161.834 198.482 161.471C198.845 161.108 199.339 160.904 199.853 160.904H230.682C231.196 160.904 231.689 161.108 232.053 161.471C232.417 161.834 232.621 162.326 232.621 162.839C232.62 163.352 232.415 163.843 232.052 164.205C231.688 164.567 231.196 164.771 230.682 164.771Z" fill="#A2D2EC"/>
<path d="M253.463 115.769H222.631C222.118 115.769 221.625 115.565 221.262 115.203C220.899 114.841 220.695 114.35 220.695 113.837C220.695 113.325 220.899 112.834 221.262 112.471C221.625 112.109 222.118 111.906 222.631 111.906H253.463C253.977 111.906 254.469 112.109 254.832 112.471C255.195 112.834 255.399 113.325 255.399 113.837C255.399 114.35 255.195 114.841 254.832 115.203C254.469 115.565 253.977 115.769 253.463 115.769Z" fill="#A2D2EC"/>
<path d="M255.254 106.481H209.803C209.29 106.48 208.798 106.276 208.435 105.914C208.072 105.552 207.868 105.061 207.867 104.549C207.867 104.037 208.071 103.545 208.434 103.182C208.797 102.82 209.289 102.615 209.803 102.615H255.254C255.767 102.615 256.26 102.82 256.623 103.182C256.986 103.545 257.189 104.037 257.189 104.549C257.189 105.062 256.985 105.553 256.622 105.915C256.259 106.277 255.767 106.481 255.254 106.481Z" fill="#A2D2EC"/>
<path d="M180.014 80.8321H139.572C139.059 80.8321 138.567 80.6286 138.204 80.2663C137.841 79.9041 137.637 79.4127 137.637 78.9004C137.637 78.3881 137.841 77.8968 138.204 77.5345C138.567 77.1723 139.059 76.9688 139.572 76.9688H180.014C180.528 76.9687 181.02 77.1723 181.383 77.5345C181.746 77.8968 181.95 78.3881 181.95 78.9004C181.95 79.4127 181.746 79.9041 181.383 80.2663C181.02 80.6286 180.528 80.8321 180.014 80.8321Z" fill="#A2D2EC"/>
<path d="M172.879 90.5552H128.378C128.122 90.5565 127.868 90.5071 127.631 90.41C127.395 90.313 127.18 90.1701 126.999 89.9897C126.818 89.8092 126.674 89.5948 126.576 89.3587C126.479 89.1227 126.429 88.8697 126.43 88.6143C126.43 88.102 126.634 87.6106 126.997 87.2484C127.36 86.8861 127.852 86.6826 128.365 86.6826H172.867C173.38 86.6826 173.873 86.8861 174.236 87.2484C174.599 87.6106 174.803 88.102 174.803 88.6143C174.804 89.1258 174.603 89.6172 174.242 89.9809C173.882 90.3447 173.392 90.5512 172.879 90.5552Z" fill="#A2D2EC"/>
<path d="M171.309 115.248H126.807C126.293 115.248 125.801 115.044 125.438 114.682C125.075 114.32 124.871 113.828 124.871 113.316C124.871 112.803 125.075 112.312 125.438 111.949C125.801 111.586 126.293 111.382 126.807 111.381H171.309C171.822 111.382 172.314 111.586 172.677 111.949C173.04 112.312 173.244 112.803 173.244 113.316C173.244 113.828 173.04 114.32 172.677 114.682C172.314 115.044 171.822 115.248 171.309 115.248Z" fill="#A2D2EC"/>
<path d="M178.683 105.558H146.982C146.468 105.558 145.975 105.355 145.612 104.993C145.248 104.63 145.044 104.139 145.043 103.627C145.044 103.114 145.248 102.623 145.612 102.26C145.975 101.898 146.468 101.695 146.982 101.695H178.683C179.196 101.695 179.689 101.898 180.052 102.261C180.415 102.623 180.618 103.114 180.618 103.627C180.618 104.139 180.415 104.63 180.052 104.992C179.689 105.355 179.196 105.558 178.683 105.558Z" fill="#A2D2EC"/>
<path d="M116.073 202.059C110.533 209.724 106.742 221.126 103.582 236.508C115.971 250.264 147.36 257.041 171.644 259.034C169.922 238.569 166.357 212.597 166.357 212.597L116.073 202.059Z" fill="black"/>
<path d="M173.305 146.642C173.305 146.642 185.688 154.973 191.476 153.393C199.623 151.19 203.206 130.482 203.559 128.643C203.911 126.804 205.479 117.482 207.105 114.004C208.372 111.217 209.361 108.313 210.058 105.333C210.367 104.099 211.202 103.481 212.04 103.62C212.776 103.731 213.277 104.308 212.85 106.157C212.371 108.295 211.947 110.446 211.555 112.276C211.431 112.853 211.196 113.396 211.601 112.986C212.547 112.035 213.784 111.097 214.752 111.443C216.567 112.1 218.505 118.231 216.551 123.057C214.597 127.884 211.48 127.356 210.939 129.636C210.398 131.917 207.585 160.846 205.334 166.141C202.093 173.756 171.035 168.199 171.035 168.199L173.305 146.642Z" fill="white"/>
<path d="M191.379 170.621C182.103 170.621 171.693 168.791 170.951 168.659L170.527 168.585L172.924 145.827L173.564 146.256C173.675 146.333 183.872 153.131 189.827 153.131C190.342 153.137 190.856 153.075 191.354 152.946C198.401 151.039 202.093 133.984 203.057 128.8L203.104 128.556L203.264 127.671C203.799 124.739 205.215 116.948 206.684 113.809C207.938 111.051 208.917 108.175 209.606 105.225C209.94 103.836 210.97 102.994 212.107 103.161C212.316 103.183 212.517 103.25 212.697 103.356C212.877 103.463 213.032 103.606 213.152 103.778C213.511 104.299 213.561 105.108 213.304 106.246C212.995 107.586 212.726 108.915 212.46 110.202C212.339 110.782 212.222 111.347 212.107 111.887C213.186 111.017 214.126 110.718 214.909 111.001C215.768 111.31 216.393 112.372 216.764 113.205C217.877 115.695 218.378 119.759 216.98 123.224C216.244 125.232 214.839 126.927 213.001 128.026C212.151 128.59 211.591 128.951 211.402 129.75C211.254 130.383 210.895 133.358 210.444 137.125C209.306 146.617 207.401 162.5 205.772 166.326C204.344 169.646 198.16 170.621 191.379 170.621ZM171.538 167.822C180.381 169.365 202.408 171.834 204.906 165.971C206.483 162.268 208.378 146.463 209.51 137.02C209.983 133.077 210.326 130.232 210.487 129.544C210.759 128.399 211.554 127.871 212.475 127.26C213.622 126.501 215.051 125.554 216.121 122.897C217.41 119.7 216.921 115.837 215.92 113.6C215.508 112.674 215.011 112.041 214.59 111.89C214.012 111.677 213.044 112.199 211.931 113.319C211.817 113.433 211.517 113.735 211.161 113.535C210.806 113.334 210.905 112.952 211.01 112.554C211.038 112.439 211.072 112.313 211.099 112.186C211.245 111.508 211.409 110.782 211.551 110.026C211.82 108.737 212.095 107.403 212.398 106.055C212.655 104.916 212.503 104.469 212.398 104.302C212.349 104.236 212.286 104.181 212.213 104.142C212.14 104.103 212.06 104.081 211.977 104.077C211.325 103.978 210.741 104.524 210.518 105.438C209.815 108.45 208.816 111.385 207.534 114.201C206.115 117.232 204.715 124.937 204.186 127.837C204.118 128.217 204.062 128.519 204.022 128.729L203.979 128.97C202.711 135.783 198.97 151.848 191.611 153.841C186.386 155.254 176.353 149.147 173.697 147.444L171.538 167.822Z" fill="black"/>
<path d="M100.105 156.479L91.2657 177.049C91.1389 177.357 90.9905 177.641 90.8452 177.934C90.179 179.277 89.8167 180.749 89.7837 182.246C89.7508 183.744 90.0481 185.23 90.6546 186.6C91.2611 187.971 92.1619 189.191 93.2934 190.175C94.4249 191.159 95.7593 191.883 97.2021 192.296L123.861 199.917L124.566 188.633L110.287 184.174C109.641 183.973 109.049 183.628 108.554 183.167C108.06 182.705 107.677 182.138 107.433 181.508C107.189 180.878 107.09 180.201 107.145 179.528C107.2 178.855 107.406 178.202 107.749 177.62L110.222 173.405L100.105 156.479Z" fill="white"/>
<path d="M124.288 200.525L97.0787 192.746C95.5685 192.316 94.1719 191.559 92.9887 190.528C91.8054 189.498 90.8645 188.22 90.2332 186.784C89.5964 185.353 89.2843 183.799 89.319 182.234C89.3538 180.668 89.7346 179.129 90.4342 177.728L90.4775 177.644C90.6105 177.379 90.7342 177.126 90.8486 176.867L100.044 155.461L110.767 173.405L108.154 177.857C107.846 178.38 107.661 178.965 107.612 179.569C107.564 180.172 107.653 180.78 107.873 181.344C108.091 181.91 108.434 182.419 108.878 182.833C109.321 183.247 109.853 183.556 110.433 183.736L125.057 188.303L124.288 200.525ZM100.171 157.494L91.6895 177.243C91.569 177.527 91.4298 177.805 91.2969 178.07L91.2567 178.154C90.6182 179.434 90.2705 180.838 90.2385 182.268C90.2064 183.697 90.4907 185.116 91.0712 186.423C91.6479 187.734 92.5076 188.902 93.5889 189.843C94.6701 190.784 95.9462 191.475 97.3261 191.867L123.431 199.328L124.077 188.981L110.145 184.634C109.432 184.412 108.778 184.032 108.233 183.522C107.688 183.012 107.265 182.386 106.998 181.69C106.727 180.995 106.618 180.248 106.678 179.506C106.738 178.763 106.966 178.043 107.344 177.401L109.681 173.423L100.171 157.494Z" fill="black"/>
<path d="M121.173 135.385C136.104 128.738 164.954 130.118 185.194 151.795C187.575 154.344 180.701 173.571 174.57 172.247C170.028 171.266 166.188 170.158 164.825 171.67C164.543 172.008 164.368 172.421 164.324 172.858C162.611 183.736 165.95 197.356 165.95 197.356C167.947 205.499 170.109 214.328 167.029 221.005C158.709 239.091 116.155 233.416 106.202 227.958C102.105 225.708 106.409 219.524 109.421 199.343C111.662 184.316 112.97 171.862 110.194 176.663C108.83 179.024 94.564 164.842 96.0543 160.617C99.3286 151.32 105.073 142.559 121.173 135.385Z" fill="#F1C40F"/>
<path d="M136.171 233.765C123.593 233.765 110.975 231.099 105.988 228.362C103.144 226.801 103.886 223.65 105.512 216.753C106.489 212.609 107.828 206.938 108.969 199.276C111.717 180.872 111.461 176.941 111.133 176.16C110.928 176.381 110.754 176.628 110.614 176.895C110.376 177.305 109.828 177.669 108.551 177.086C104.823 175.376 94.1925 164.558 95.6333 160.454C98.5614 152.122 103.864 142.593 121.002 134.962C129.119 131.349 140.441 130.433 151.303 132.512C164.458 135.023 176.462 141.67 185.558 151.48C187.271 153.313 185.011 161.423 181.963 166.773C179.489 171.093 176.845 173.207 174.499 172.701L172.869 172.34C169.295 171.544 166.209 170.853 165.192 171.982C164.972 172.253 164.837 172.582 164.806 172.929C163.127 183.594 166.392 197.109 166.426 197.245C168.392 205.268 170.621 214.359 167.474 221.2C165.378 225.758 161.049 229.143 154.608 231.266C149.173 233.052 142.677 233.765 136.171 233.765ZM111.173 175.154C111.255 175.154 111.337 175.168 111.414 175.194C112.107 175.435 113.399 175.886 109.887 199.414C108.737 207.113 107.395 212.807 106.415 216.963C104.869 223.588 104.207 226.328 106.436 227.55C113.879 231.633 138.626 235.552 154.302 230.386C160.486 228.35 164.629 225.14 166.614 220.82C169.626 214.275 167.542 205.734 165.507 197.474C165.476 197.338 162.168 183.64 163.875 172.788C163.932 172.262 164.148 171.766 164.493 171.365C165.875 169.822 169.048 170.544 173.064 171.442L174.684 171.8C176.573 172.207 178.932 170.211 181.146 166.32C184.402 160.605 186.031 153.36 184.857 152.125C175.894 142.46 164.066 135.911 151.105 133.438C140.429 131.392 129.31 132.284 121.364 135.823C104.544 143.312 99.3529 152.641 96.4929 160.778C95.3984 163.885 104.881 174.408 108.922 176.259C109.513 176.531 109.763 176.494 109.791 176.447C110.153 175.821 110.62 175.154 111.173 175.154Z" fill="black"/>
<path d="M158.131 101.121C159.495 101.43 160.407 104.046 160.765 105.392C161.956 109.82 160.765 120.651 157.587 121.706C154.408 122.761 154.551 121.262 152.247 122.897C150.392 124.202 150.374 126.22 149.962 130.611C149.938 130.892 155.753 131.846 155.883 132.099C156.174 132.667 153.506 140.347 142.498 140.193C132.066 140.048 129.859 133.253 129.766 132.768C129.707 132.478 137.434 131.074 137.539 130.778C138.927 126.893 139.549 120.33 139.549 120.33C139.549 120.33 143.806 97.9797 158.131 101.121Z" fill="white"/>
<path d="M142.815 140.665H142.506C131.313 140.511 129.34 132.95 129.325 132.867C129.223 132.336 129.749 132.207 130.902 131.923C131.656 131.741 132.673 131.516 133.654 131.306C134.949 131.025 136.678 130.645 137.178 130.47C138.492 126.665 139.095 120.364 139.102 120.287V120.243C139.204 119.713 141.665 107.197 149.135 102.275C151.862 100.479 154.926 99.936 158.24 100.661C159.858 101.016 160.804 103.698 161.224 105.265C162.411 109.687 161.329 120.953 157.743 122.138C156.79 122.491 155.771 122.63 154.759 122.545C154.066 122.499 153.646 122.471 152.527 123.267C151.005 124.347 150.854 126.011 150.526 129.658L150.464 130.343C150.999 130.503 152.319 130.778 153.247 130.96C156.051 131.546 156.178 131.602 156.32 131.886C156.586 132.401 156.039 133.71 155.421 134.706C154.274 136.518 150.823 140.665 142.815 140.665ZM130.33 133.025C130.849 134.41 133.422 139.61 142.503 139.736C148.337 139.822 151.639 137.647 153.374 135.814C154.768 134.339 155.306 132.944 155.418 132.42C154.945 132.287 153.872 132.062 153.031 131.889C149.75 131.207 149.447 131.13 149.5 130.584L149.589 129.59C149.936 125.773 150.109 123.857 151.976 122.53C153.365 121.542 154.032 121.586 154.808 121.635C155.702 121.714 156.601 121.591 157.44 121.274C160.241 120.348 161.459 109.789 160.315 105.537C159.864 103.852 158.995 101.809 158.03 101.596C154.969 100.927 152.156 101.423 149.633 103.08C142.62 107.709 140.119 119.855 140.004 120.425C139.958 120.925 139.34 127.146 137.976 130.963C137.856 131.3 137.837 131.349 133.836 132.228C132.612 132.472 131.007 132.824 130.333 133.025H130.33Z" fill="black"/>
<path d="M153.454 112.97C151.432 112.921 150.069 110.89 149.614 108.9C149.206 107.11 149.552 105.645 150.498 105.163C152.663 104.065 154.567 107.255 154.648 107.391C154.705 107.495 154.72 107.618 154.689 107.733C154.659 107.847 154.585 107.946 154.484 108.008C154.432 108.04 154.373 108.06 154.313 108.069C154.253 108.078 154.191 108.075 154.132 108.06C154.073 108.045 154.017 108.019 153.968 107.982C153.919 107.946 153.878 107.9 153.847 107.848C153.831 107.82 152.276 105.281 150.922 105.972C150.399 106.237 150.226 107.4 150.52 108.681C150.894 110.32 151.952 111.992 153.476 112.029C153.537 112.03 153.597 112.043 153.653 112.068C153.708 112.092 153.759 112.127 153.801 112.171C153.843 112.215 153.877 112.267 153.899 112.323C153.921 112.38 153.932 112.44 153.93 112.501C153.931 112.564 153.919 112.625 153.896 112.683C153.872 112.741 153.837 112.793 153.792 112.837C153.748 112.881 153.695 112.915 153.637 112.938C153.579 112.961 153.517 112.972 153.454 112.97Z" fill="black"/>
<path d="M162.667 96.2238C163.595 99.3096 160.478 100.399 158.156 102.651C155.754 104.978 155.729 107.95 154.282 108.024C154.103 108.024 153.419 107.326 153.045 106.428C152.427 104.929 148.37 104.87 150.773 110.326C154.554 118.907 164.426 139.68 160.358 155.378C157.096 167.952 151.499 174.201 124.909 174.747C102.647 175.194 92.3572 149.37 94.3174 139.014C98.6894 115.96 122.8 140.44 124.275 108.551C125.308 86.1951 144.969 74.099 159.653 90.509C161.134 92.1691 162.074 94.2582 162.667 96.2238Z" fill="black"/>
<path d="M226.039 45.1268C225.978 45.1269 225.918 45.115 225.862 45.0917C225.805 45.0684 225.754 45.0342 225.711 44.9911C225.668 44.948 225.633 44.8968 225.61 44.8404C225.586 44.784 225.574 44.7235 225.574 44.6624C225.574 44.6013 225.586 44.5408 225.61 44.4844C225.633 44.428 225.668 44.3768 225.711 44.3338L226.79 43.2599C226.833 43.2167 226.884 43.1823 226.941 43.1588C226.997 43.1354 227.057 43.1233 227.118 43.1233C227.179 43.1233 227.24 43.1354 227.296 43.1588C227.352 43.1823 227.403 43.2167 227.446 43.2599C227.532 43.3471 227.58 43.4646 227.58 43.587C227.58 43.7095 227.532 43.8269 227.446 43.9141L226.367 44.9911C226.28 45.0776 226.162 45.1264 226.039 45.1268Z" fill="black"/>
<path d="M230.113 41.0568C230.053 41.0575 229.992 41.0462 229.936 41.0234C229.88 41.0006 229.829 40.9669 229.786 40.9242C229.742 40.8811 229.708 40.8299 229.684 40.7735C229.661 40.7171 229.648 40.6566 229.648 40.5955C229.648 40.5344 229.661 40.4739 229.684 40.4175C229.708 40.3611 229.742 40.3099 229.786 40.2669L230.865 39.1931C230.908 39.1498 230.959 39.1154 231.015 39.0919C231.071 39.0685 231.131 39.0564 231.192 39.0564C231.253 39.0564 231.314 39.0685 231.37 39.0919C231.426 39.1154 231.477 39.1498 231.52 39.1931C231.606 39.2802 231.655 39.3977 231.655 39.5201C231.655 39.6426 231.606 39.7601 231.52 39.8472L230.441 40.9242C230.354 41.0099 230.236 41.0576 230.113 41.0568Z" fill="black"/>
<path d="M231.196 45.1268C231.135 45.1269 231.075 45.115 231.019 45.0917C230.962 45.0684 230.911 45.0342 230.868 44.9911L229.789 43.9141C229.746 43.8714 229.711 43.8204 229.688 43.7643C229.664 43.7081 229.652 43.6479 229.652 43.587C229.652 43.5262 229.664 43.4659 229.688 43.4098C229.711 43.3536 229.746 43.3027 229.789 43.2599C229.832 43.2167 229.883 43.1823 229.939 43.1588C229.996 43.1354 230.056 43.1233 230.117 43.1233C230.178 43.1233 230.238 43.1354 230.295 43.1588C230.351 43.1823 230.402 43.2167 230.445 43.2599L231.524 44.3338C231.61 44.4215 231.658 44.5395 231.658 44.6624C231.658 44.7853 231.61 44.9033 231.524 44.9911C231.436 45.077 231.319 45.1257 231.196 45.1268Z" fill="black"/>
<path d="M227.118 41.0568C227.057 41.0575 226.997 41.0462 226.941 41.0234C226.884 41.0006 226.833 40.9669 226.79 40.9242L225.711 39.8472C225.668 39.8045 225.633 39.7535 225.61 39.6974C225.586 39.6412 225.574 39.581 225.574 39.5201C225.574 39.4593 225.586 39.399 225.61 39.3429C225.633 39.2868 225.668 39.2358 225.711 39.1931C225.754 39.1498 225.805 39.1154 225.861 39.0919C225.918 39.0685 225.978 39.0564 226.039 39.0564C226.1 39.0564 226.16 39.0685 226.216 39.0919C226.273 39.1154 226.324 39.1498 226.367 39.1931L227.446 40.2669C227.532 40.3546 227.58 40.4726 227.58 40.5955C227.58 40.7184 227.532 40.8365 227.446 40.9242C227.358 41.0093 227.24 41.0569 227.118 41.0568Z" fill="black"/>
<path d="M82.3982 116.821C82.2754 116.821 82.1576 116.772 82.0705 116.685C82.0271 116.643 81.9927 116.592 81.9692 116.536C81.9457 116.479 81.9336 116.419 81.9336 116.358C81.9336 116.297 81.9457 116.237 81.9692 116.181C81.9927 116.125 82.0271 116.074 82.0705 116.031L83.1496 114.954C83.1924 114.911 83.2435 114.877 83.2997 114.853C83.356 114.83 83.4163 114.818 83.4773 114.818C83.5383 114.818 83.5987 114.83 83.6549 114.853C83.7112 114.877 83.7622 114.911 83.8051 114.954C83.8485 114.997 83.8829 115.048 83.9064 115.104C83.9299 115.16 83.942 115.221 83.942 115.281C83.942 115.342 83.9299 115.402 83.9064 115.459C83.8829 115.515 83.8485 115.566 83.8051 115.608L82.726 116.685C82.6389 116.772 82.5211 116.821 82.3982 116.821Z" fill="black"/>
<path d="M86.4725 112.754C86.3496 112.754 86.2318 112.705 86.1447 112.618C86.1014 112.576 86.0669 112.525 86.0434 112.469C86.0199 112.413 86.0078 112.352 86.0078 112.291C86.0078 112.231 86.0199 112.17 86.0434 112.114C86.0669 112.058 86.1014 112.007 86.1447 111.964L87.2238 110.887C87.2667 110.844 87.3177 110.81 87.374 110.786C87.4302 110.763 87.4906 110.751 87.5516 110.751C87.6126 110.751 87.6729 110.763 87.7292 110.786C87.7854 110.81 87.8365 110.844 87.8793 110.887C87.9227 110.93 87.9571 110.981 87.9806 111.037C88.0041 111.093 88.0162 111.154 88.0162 111.214C88.0162 111.275 88.0041 111.336 87.9806 111.392C87.9571 111.448 87.9227 111.499 87.8793 111.542L86.8002 112.618C86.7573 112.662 86.7062 112.696 86.65 112.719C86.5937 112.742 86.5334 112.754 86.4725 112.754Z" fill="black"/>
<path d="M87.5516 116.821C87.4287 116.821 87.3109 116.772 87.2238 116.685L86.1447 115.608C86.1014 115.566 86.0669 115.515 86.0434 115.459C86.0199 115.402 86.0078 115.342 86.0078 115.281C86.0078 115.221 86.0199 115.16 86.0434 115.104C86.0669 115.048 86.1014 114.997 86.1447 114.954C86.1876 114.911 86.2386 114.877 86.2949 114.853C86.3511 114.83 86.4115 114.818 86.4725 114.818C86.5335 114.818 86.5938 114.83 86.6501 114.853C86.7063 114.877 86.7574 114.911 86.8002 114.954L87.8793 116.031C87.9227 116.074 87.9571 116.125 87.9806 116.181C88.0041 116.237 88.0162 116.297 88.0162 116.358C88.0162 116.419 88.0041 116.479 87.9806 116.536C87.9571 116.592 87.9227 116.643 87.8793 116.685C87.7922 116.772 87.6745 116.821 87.5516 116.821Z" fill="black"/>
<path d="M83.4773 112.754C83.3544 112.754 83.2367 112.705 83.1496 112.618L82.0705 111.542C82.0271 111.499 81.9927 111.448 81.9692 111.392C81.9457 111.336 81.9336 111.275 81.9336 111.214C81.9336 111.154 81.9457 111.093 81.9692 111.037C81.9927 110.981 82.0271 110.93 82.0705 110.887C82.1134 110.844 82.1644 110.81 82.2207 110.786C82.2769 110.763 82.3373 110.751 82.3982 110.751C82.4592 110.751 82.5196 110.763 82.5759 110.786C82.6321 110.81 82.6832 110.844 82.726 110.887L83.8051 111.964C83.8485 112.007 83.8829 112.058 83.9064 112.114C83.9299 112.17 83.942 112.231 83.942 112.291C83.942 112.352 83.9299 112.413 83.9064 112.469C83.8829 112.525 83.8485 112.576 83.8051 112.618C83.718 112.705 83.6002 112.754 83.4773 112.754Z" fill="black"/>
<path d="M216.381 36.6349C215.75 36.6341 215.146 36.384 214.699 35.9392C214.253 35.4945 214.002 34.8914 214 34.262C214.001 33.6321 214.252 33.0282 214.698 32.5828C215.145 32.1374 215.75 31.8868 216.381 31.886C217.012 31.8868 217.616 32.1375 218.062 32.583C218.508 33.0285 218.758 33.6324 218.758 34.262C218.758 34.8911 218.507 35.4942 218.061 35.939C217.615 36.3839 217.011 36.6341 216.381 36.6349ZM216.381 32.8117C215.996 32.8125 215.626 32.9656 215.354 33.2374C215.082 33.5092 214.928 33.8776 214.928 34.262C214.929 34.6459 215.083 35.0135 215.355 35.2846C215.627 35.5558 215.996 35.7084 216.381 35.7092C216.765 35.7084 217.133 35.5557 217.405 35.2844C217.677 35.0132 217.83 34.6456 217.831 34.262C217.831 33.8779 217.678 33.5095 217.406 33.2376C217.134 32.9657 216.766 32.8125 216.381 32.8117Z" fill="black"/>
<path d="M82.3534 140.079C81.7222 140.078 81.1172 139.827 80.6709 139.382C80.2246 138.936 79.9735 138.332 79.9727 137.703C79.9743 137.073 80.2257 136.47 80.672 136.025C81.1182 135.581 81.7228 135.33 82.3534 135.33C82.9838 135.33 83.5881 135.581 84.0338 136.026C84.4795 136.47 84.7303 137.073 84.7311 137.703C84.7311 138.332 84.4807 138.936 84.0349 139.382C83.5891 139.827 82.9843 140.078 82.3534 140.079ZM82.3534 136.255C81.9685 136.255 81.5994 136.408 81.327 136.679C81.0545 136.95 80.901 137.318 80.9002 137.703C80.901 138.087 81.0544 138.455 81.3268 138.727C81.5991 138.999 81.9683 139.152 82.3534 139.153C82.7383 139.152 83.1071 138.999 83.379 138.727C83.6509 138.455 83.8035 138.087 83.8035 137.703C83.8035 137.512 83.766 137.324 83.6931 137.149C83.6203 136.973 83.5135 136.814 83.3788 136.679C83.2442 136.545 83.0843 136.438 82.9083 136.365C82.7324 136.293 82.5438 136.255 82.3534 136.255Z" fill="black"/>
<path d="M299.116 159.007C298.543 158.885 298.035 158.555 297.691 158.081C297.508 157.828 297.377 157.541 297.307 157.236C297.236 156.932 297.227 156.617 297.28 156.31C297.33 156.002 297.44 155.707 297.605 155.442C297.771 155.177 297.987 154.947 298.241 154.767C298.495 154.584 298.783 154.454 299.087 154.383C299.392 154.313 299.708 154.304 300.016 154.356C300.638 154.46 301.194 154.806 301.561 155.318C301.928 155.83 302.076 156.466 301.973 157.087C301.923 157.395 301.812 157.69 301.646 157.955C301.48 158.22 301.264 158.449 301.009 158.63C300.755 158.812 300.468 158.942 300.164 159.012C299.86 159.083 299.545 159.092 299.237 159.04L299.116 159.007ZM299.936 155.27H299.865C299.677 155.237 299.484 155.243 299.298 155.286C299.112 155.329 298.937 155.408 298.782 155.52C298.627 155.63 298.495 155.77 298.394 155.931C298.293 156.093 298.225 156.273 298.195 156.461C298.163 156.648 298.168 156.841 298.211 157.026C298.254 157.211 298.334 157.386 298.445 157.541C298.556 157.696 298.696 157.828 298.858 157.929C299.02 158.029 299.2 158.097 299.388 158.127C299.576 158.159 299.769 158.154 299.955 158.111C300.14 158.068 300.316 157.988 300.471 157.877C300.781 157.658 300.992 157.325 301.058 156.951C301.127 156.58 301.048 156.197 300.839 155.882C300.629 155.568 300.305 155.347 299.936 155.267V155.27Z" fill="black"/>
<path d="M282.243 216.056C282.17 216.039 282.102 216.006 282.045 215.957C281.998 215.918 281.959 215.87 281.931 215.816C281.903 215.761 281.886 215.702 281.881 215.642C281.875 215.581 281.882 215.519 281.901 215.461C281.92 215.403 281.95 215.349 281.989 215.303C289.932 205.885 295.124 196.853 299.443 184.859C299.485 184.744 299.572 184.65 299.683 184.598C299.794 184.547 299.921 184.54 300.037 184.581C300.094 184.601 300.146 184.633 300.191 184.674C300.236 184.714 300.272 184.763 300.298 184.818C300.324 184.873 300.339 184.932 300.342 184.993C300.345 185.053 300.335 185.114 300.315 185.17C296.319 196.379 290.351 206.786 282.691 215.901C282.637 215.965 282.567 216.013 282.488 216.04C282.409 216.067 282.324 216.072 282.243 216.056Z" fill="black"/>
<path d="M301.5 180.261H301.466C301.348 180.226 301.249 180.145 301.192 180.037C301.134 179.928 301.121 179.802 301.157 179.684C301.62 178.141 302.059 176.598 302.455 175.031C302.47 174.972 302.496 174.916 302.532 174.867C302.568 174.818 302.614 174.777 302.666 174.745C302.718 174.714 302.776 174.693 302.837 174.685C302.897 174.676 302.959 174.679 303.018 174.695C303.137 174.725 303.24 174.802 303.303 174.907C303.366 175.013 303.385 175.14 303.355 175.259C302.953 176.83 302.514 178.41 302.047 179.953C302.011 180.063 301.935 180.156 301.834 180.214C301.732 180.271 301.613 180.288 301.5 180.261Z" fill="black"/>
<path d="M282.738 206.95C282.677 206.937 282.62 206.912 282.571 206.876C282.52 206.841 282.477 206.797 282.444 206.746C282.411 206.694 282.389 206.637 282.378 206.577C282.368 206.517 282.369 206.456 282.382 206.396C282.396 206.337 282.421 206.28 282.456 206.231C290.609 194.616 295.906 181.282 298.194 166.607C298.203 166.546 298.225 166.489 298.256 166.437C298.288 166.385 298.33 166.339 298.38 166.304C298.429 166.268 298.485 166.242 298.544 166.228C298.604 166.214 298.665 166.211 298.726 166.221C298.786 166.229 298.845 166.25 298.897 166.281C298.95 166.312 298.995 166.353 299.032 166.403C299.068 166.452 299.093 166.508 299.107 166.567C299.121 166.627 299.123 166.689 299.112 166.749C296.8 181.56 291.451 195.03 283.214 206.762C283.162 206.836 283.089 206.894 283.004 206.927C282.919 206.961 282.827 206.969 282.738 206.95Z" fill="black"/>
<path d="M255.3 243.306C255.3 243.306 240.353 209.11 250.594 177.382C250.937 176.324 255.062 177.78 255.461 176.725C255.974 175.38 252.777 171.522 253.389 170.192C255.755 165.032 258.824 160.223 262.507 155.899C262.507 155.899 268.635 166.082 271.186 181.573C271.378 182.742 266.888 185.683 267.037 186.908C267.176 188.068 271.956 187.507 272.049 188.71C273.239 204.308 270.203 223.786 255.3 243.306Z" fill="#E6F6FD"/>
<path d="M242.923 203.262C242.276 202.253 238.034 205.487 237.357 204.527C236.68 203.568 239.017 197.168 238.356 196.267C225.37 178.619 210.887 170.007 210.887 170.007C209.117 178.214 208.614 186.643 209.397 195.002C209.514 196.276 215.108 198.732 215.272 199.988C215.46 201.364 210.683 202.765 210.943 204.129C214.666 224.079 224.442 240.125 234.336 252.81C242.435 250.537 250.249 247.352 257.628 243.318C255.386 226.708 249.932 214.173 242.923 203.262Z" fill="#52A5D8"/>
<path d="M244.726 242.362C244.639 242.356 244.555 242.33 244.48 242.285C244.406 242.24 244.344 242.177 244.299 242.103C240.898 236.295 237.571 230.318 234.457 224.335C234.393 224.21 234.381 224.066 234.423 223.932C234.465 223.799 234.559 223.687 234.683 223.622C234.808 223.557 234.954 223.544 235.088 223.586C235.223 223.629 235.335 223.723 235.4 223.847C238.492 229.815 241.807 235.774 245.214 241.566C245.25 241.626 245.273 241.692 245.283 241.761C245.293 241.83 245.289 241.9 245.271 241.968C245.254 242.035 245.223 242.098 245.181 242.154C245.139 242.209 245.086 242.256 245.026 242.291C244.934 242.343 244.83 242.368 244.726 242.362Z" fill="#A2D2EC"/>
<path d="M230.562 216.034C230.467 216.028 230.376 215.996 230.298 215.941C230.22 215.887 230.158 215.812 230.12 215.726C225.12 205.518 220.516 194.959 216.432 184.35L214.577 179.499C214.527 179.367 214.532 179.221 214.59 179.093C214.648 178.965 214.754 178.864 214.886 178.814C215.018 178.765 215.163 178.77 215.291 178.827C215.419 178.885 215.519 178.991 215.569 179.122L217.424 183.973C221.5 194.554 226.082 205.083 231.075 215.266C231.136 215.392 231.145 215.537 231.099 215.669C231.053 215.802 230.957 215.911 230.831 215.972C230.749 216.017 230.656 216.039 230.562 216.034Z" fill="#A2D2EC"/>
<path d="M254.224 245.099C254.224 245.099 249.682 209.267 285.195 199.084C285.195 199.084 286.2 230.195 254.224 245.099Z" fill="#A2D2EC"/>
<path d="M261.027 236.255C260.968 236.252 260.909 236.238 260.854 236.215C260.725 236.161 260.623 236.057 260.57 235.928C260.517 235.798 260.518 235.653 260.573 235.524C265.26 224.415 278.744 207.567 278.88 207.397C278.968 207.288 279.096 207.218 279.235 207.202C279.375 207.187 279.515 207.227 279.625 207.314C279.735 207.402 279.805 207.53 279.821 207.67C279.836 207.81 279.796 207.95 279.709 208.061C279.573 208.227 266.178 224.949 261.55 235.934C261.507 236.035 261.433 236.12 261.34 236.178C261.246 236.235 261.137 236.262 261.027 236.255Z" fill="#E5F5FD"/>
</g>
<defs>
<filter id="filter0_f_1941_54031" x="96" y="4" width="277" height="278" filterUnits="userSpaceOnUse" color-interpolation-filters="sRGB">
<feFlood flood-opacity="0" result="BackgroundImageFix"/>
<feBlend mode="normal" in="SourceGraphic" in2="BackgroundImageFix" result="shape"/>
<feGaussianBlur stdDeviation="20" result="effect1_foregroundBlur_1941_54031"/>
</filter>
<filter id="filter1_f_1941_54031" x="-12" y="-28" width="278" height="278" filterUnits="userSpaceOnUse" color-interpolation-filters="sRGB">
<feFlood flood-opacity="0" result="BackgroundImageFix"/>
<feBlend mode="normal" in="SourceGraphic" in2="BackgroundImageFix" result="shape"/>
<feGaussianBlur stdDeviation="30" result="effect1_foregroundBlur_1941_54031"/>
</filter>
<clipPath id="clip0_1941_54031">
<rect width="400" height="260" fill="white"/>
</clipPath>
</defs>
</svg>
