<svg width="400" height="260" viewBox="0 0 400 260" fill="none" xmlns="http://www.w3.org/2000/svg">
<g clip-path="url(#clip0_2034_53710)">
<path d="M224.412 0C216.001 0 139.264 1.15994 97.3309 64.4935C75.0095 98.2066 60.0327 153.333 81.9134 183.369C88.3736 192.242 91.7615 190.288 126.294 211.286C173.703 240.106 173.487 247.525 193.105 254.119C218.655 262.704 256.403 262.686 284.678 241.613C316.764 217.692 321.508 177.945 326.246 138.126C330.909 99.0445 335.622 59.4723 310.828 30.3177C285.128 0.0969113 243.795 0.031265 224.412 0Z" fill="#E5F6FF"/>
<g filter="url(#filter0_f_2034_53710)">
<ellipse cx="264.5" cy="122.5" rx="98.5" ry="89.5" fill="#B5E0FF" fill-opacity="0.6"/>
</g>
<g filter="url(#filter1_f_2034_53710)">
<circle cx="117" cy="141" r="79" fill="#FFE7C3" fill-opacity="0.6"/>
</g>
<g clip-path="url(#clip1_2034_53710)">
<path d="M323.643 173.33L175.238 152.695C173.437 152.465 171.782 151.586 170.582 150.222C169.383 148.859 168.721 147.105 168.721 145.289L166.684 41.7388C166.684 41.7388 170.068 39.297 171.997 38.3622C173.011 37.8692 174.147 37.6834 175.266 37.8276L323.227 56.7054C325.029 56.9344 326.684 57.8128 327.885 59.1757C329.085 60.5386 329.747 62.2926 329.747 64.109V165.817C329.748 166.674 329.559 167.521 329.194 168.296C328.828 169.071 328.294 169.754 327.631 170.298C326.434 171.264 323.643 173.33 323.643 173.33Z" fill="#52A5D8"/>
<path d="M319.114 174.706L171.149 155.831C169.348 155.601 167.693 154.722 166.494 153.358C165.294 151.995 164.633 150.241 164.633 148.425V46.7194C164.633 45.8956 164.808 45.0813 165.147 44.3306C165.486 43.5799 165.981 42.9101 166.599 42.3656C167.217 41.8211 167.944 41.4145 168.731 41.1727C169.518 40.9309 170.348 40.8596 171.165 40.9635L319.13 59.8413C320.93 60.071 322.585 60.9496 323.785 62.3125C324.984 63.6754 325.646 65.429 325.646 67.2448V168.953C325.646 169.777 325.471 170.591 325.131 171.342C324.792 172.092 324.297 172.762 323.679 173.306C323.061 173.85 322.335 174.257 321.547 174.498C320.76 174.739 319.931 174.81 319.114 174.706Z" fill="white"/>
<path d="M315.97 170.513L174.703 152.489C173.39 152.326 172.182 151.688 171.306 150.696C170.43 149.704 169.946 148.426 169.946 147.102V48.9954C169.946 48.4441 170.064 47.899 170.291 47.3967C170.518 46.8944 170.85 46.4464 171.264 46.0827C171.678 45.7189 172.165 45.4479 172.693 45.2875C173.22 45.1272 173.775 45.0813 174.322 45.153L315.589 63.1772C316.898 63.3445 318.102 63.9834 318.975 64.9743C319.847 65.9653 320.329 67.2404 320.33 68.5611V166.668C320.33 167.218 320.214 167.762 319.988 168.263C319.761 168.765 319.431 169.212 319.019 169.576C318.606 169.94 318.121 170.211 317.595 170.373C317.07 170.535 316.516 170.582 315.97 170.513Z" fill="#E6F6FD"/>
<path d="M319.845 175.222C319.58 175.222 319.314 175.205 319.051 175.172L171.077 156.297C169.165 156.048 167.408 155.113 166.134 153.664C164.859 152.216 164.155 150.354 164.151 148.424V46.7193C164.153 45.8316 164.344 44.9545 164.71 44.1461C165.077 43.3376 165.611 42.6162 166.277 42.0296C166.945 41.4412 167.73 41.0017 168.581 40.7402C169.432 40.4788 170.329 40.4014 171.212 40.5132L319.173 59.391C321.086 59.6377 322.844 60.5722 324.119 62.0202C325.394 63.4683 326.099 65.3308 326.102 67.2604V168.969C326.102 169.859 325.912 170.739 325.546 171.55C325.179 172.361 324.644 173.085 323.977 173.674C322.832 174.674 321.364 175.224 319.845 175.222ZM319.17 174.24C319.921 174.336 320.683 174.271 321.407 174.049C322.13 173.827 322.799 173.455 323.367 172.955C323.935 172.454 324.389 171.838 324.701 171.148C325.012 170.458 325.173 169.71 325.174 168.953V67.2448C325.171 65.5439 324.55 63.902 323.426 62.6255C322.303 61.3489 320.753 60.5249 319.067 60.3071L171.105 41.4261C170.354 41.3303 169.592 41.3955 168.868 41.6176C168.144 41.8398 167.476 42.2136 166.908 42.7142C166.339 43.2141 165.884 43.8297 165.572 44.5199C165.261 45.2101 165.1 45.9589 165.101 46.7162V148.421C165.104 150.123 165.725 151.765 166.849 153.042C167.972 154.319 169.522 155.144 171.208 155.362L319.17 174.24Z" fill="#52A5D8"/>
<path d="M232.791 234.607L80.6168 214.972C80.096 214.911 79.6172 214.656 79.2752 214.258C78.9331 213.86 78.7527 213.349 78.7696 212.824C78.7696 212.136 78.8353 207.29 78.8353 207.29L159.298 161.278C163.33 158.973 168.546 158.082 173.153 158.673L323.405 178.057C323.85 178.115 324.271 178.287 324.629 178.558C324.986 178.828 325.267 179.187 325.443 179.599L325.684 180.165C325.684 180.165 325.556 184.207 325.609 185.167C325.634 185.559 325.547 185.949 325.358 186.293C325.169 186.637 324.886 186.92 324.543 187.109L246.096 231.974C242.064 234.273 237.394 235.197 232.791 234.607Z" fill="#52A5D8"/>
<path d="M99.3349 211.968L81.1609 209.632C80.7212 209.576 80.3103 209.383 79.9863 209.08C79.6623 208.778 79.4417 208.381 79.3557 207.946C79.2696 207.511 79.3224 207.06 79.5067 206.657C79.6911 206.253 79.9975 205.918 80.3827 205.699L158.405 161.121C162.436 158.818 167.107 157.89 171.712 158.479L323.343 178.054C323.783 178.11 324.194 178.303 324.519 178.605C324.843 178.907 325.064 179.304 325.151 179.739C325.237 180.174 325.184 180.626 325 181.029C324.816 181.433 324.51 181.768 324.124 181.988L246.103 226.571C242.07 228.875 237.398 229.802 232.792 229.213L99.3381 211.968H99.3349Z" fill="white"/>
<path d="M262.479 204.467L130.997 187.353C130.6 187.302 130.228 187.128 129.935 186.855C129.642 186.582 129.442 186.223 129.364 185.83C129.286 185.437 129.333 185.029 129.5 184.664C129.666 184.299 129.943 183.996 130.291 183.798L161.207 166.314C164.848 164.233 169.068 163.396 173.227 163.929L304.712 181.043C305.109 181.094 305.481 181.269 305.774 181.542C306.066 181.816 306.266 182.174 306.343 182.567C306.421 182.96 306.373 183.368 306.207 183.733C306.04 184.097 305.763 184.4 305.415 184.598L274.499 202.085C270.858 204.165 266.638 205.001 262.479 204.467Z" fill="#E6F6FD"/>
<path d="M235.46 229.851C234.544 229.852 233.628 229.794 232.719 229.679L158.466 220.15C158.405 220.143 158.346 220.124 158.292 220.093C158.238 220.063 158.191 220.023 158.153 219.974C158.115 219.925 158.088 219.87 158.072 219.81C158.056 219.751 158.052 219.689 158.06 219.627C158.068 219.566 158.087 219.507 158.118 219.454C158.149 219.4 158.189 219.353 158.238 219.315C158.287 219.278 158.343 219.25 158.402 219.234C158.462 219.217 158.524 219.213 158.585 219.221L232.838 228.747C237.342 229.316 241.909 228.41 245.855 226.165L323.889 181.587C324.193 181.421 324.436 181.16 324.58 180.845C324.724 180.529 324.762 180.176 324.689 179.836C324.627 179.496 324.456 179.184 324.203 178.948C323.95 178.712 323.627 178.565 323.283 178.526L171.652 158.93C167.148 158.363 162.582 159.269 158.635 161.512L147.696 167.765C147.59 167.822 147.465 167.836 147.349 167.803C147.232 167.771 147.133 167.694 147.071 167.59C147.014 167.483 147 167.359 147.033 167.242C147.066 167.126 147.142 167.026 147.246 166.965L158.185 160.712C162.309 158.366 167.08 157.42 171.787 158.013L323.417 177.607C323.956 177.671 324.461 177.905 324.858 178.276C325.255 178.646 325.523 179.134 325.624 179.668C325.735 180.199 325.674 180.752 325.449 181.247C325.224 181.741 324.847 182.151 324.374 182.416L246.333 226.981C243.019 228.864 239.272 229.853 235.46 229.851Z" fill="#52A5D8"/>
<path d="M304.218 165.695L187.364 150.913C185.354 150.657 183.723 148.725 183.723 146.605V3.96443C183.723 1.84154 185.354 0.325158 187.364 0.578404L304.218 15.3637C306.231 15.62 307.859 17.5522 307.859 19.672V162.309C307.85 164.435 306.222 165.952 304.218 165.695Z" fill="white"/>
<path d="M304.65 166.192C304.483 166.193 304.316 166.182 304.15 166.161L187.298 151.376C185.064 151.094 183.235 148.953 183.235 146.605V3.96441C183.222 3.40238 183.331 2.84413 183.553 2.32776C183.775 1.8114 184.106 1.34906 184.523 0.972321C184.914 0.63094 185.373 0.377502 185.87 0.229166C186.368 0.0808307 186.891 0.0410596 187.405 0.112533L304.259 14.8978C306.494 15.1823 308.322 17.3208 308.322 19.672V162.309C308.336 162.871 308.228 163.429 308.006 163.945C307.784 164.462 307.454 164.924 307.038 165.301C306.379 165.883 305.529 166.2 304.65 166.192ZM304.269 165.233C304.65 165.288 305.039 165.261 305.409 165.153C305.779 165.045 306.121 164.859 306.413 164.607C306.729 164.318 306.979 163.964 307.147 163.569C307.314 163.174 307.394 162.747 307.382 162.319V19.6813C307.382 17.7866 305.931 16.064 304.15 15.8389L187.298 1.05361C186.917 0.997133 186.527 1.02374 186.157 1.13166C185.786 1.23958 185.443 1.42626 185.151 1.67891C184.835 1.96853 184.585 2.32281 184.418 2.7177C184.251 3.11259 184.17 3.53883 184.182 3.9675V146.608C184.182 148.499 185.633 150.225 187.414 150.45L304.269 165.233Z" fill="#52A5D8"/>
<path d="M97.7438 130.022C93.4121 131.629 89.7366 135.024 87.2363 139.467C80.8512 150.835 64.1929 184.151 72.072 209.876C81.7231 241.388 163.333 240.544 184.585 227.134C189.989 223.726 212.089 200.74 183.723 181.634C157.714 164.126 146.965 176.979 134.967 170.066C122.969 163.153 114.315 135.478 109.889 131.541C107.042 129.012 102.598 128.221 97.7438 130.022Z" fill="#52A5D8"/>
<path d="M122.843 205.849C122.719 205.849 122.6 205.799 122.512 205.711C111.729 194.931 86.6546 193.656 86.4045 193.643C86.343 193.64 86.2825 193.625 86.2267 193.599C86.1709 193.573 86.1208 193.536 86.0793 193.49C86.0378 193.445 86.0057 193.391 85.9848 193.333C85.9639 193.275 85.9546 193.214 85.9576 193.152C85.964 193.029 86.0189 192.913 86.1102 192.83C86.2014 192.747 86.3218 192.703 86.4451 192.708C87.489 192.755 112.139 194.015 123.175 205.045C123.218 205.089 123.253 205.141 123.277 205.198C123.301 205.255 123.313 205.317 123.313 205.378C123.313 205.44 123.301 205.502 123.277 205.559C123.253 205.616 123.218 205.668 123.175 205.711C123.131 205.755 123.08 205.79 123.023 205.813C122.966 205.837 122.905 205.849 122.843 205.849Z" fill="#A2D2EC"/>
<path d="M148.106 206.44C148.041 206.44 147.976 206.426 147.916 206.399C139.505 202.647 133.57 206.012 133.514 206.046C133.408 206.104 133.285 206.119 133.168 206.088C133.052 206.057 132.952 205.983 132.889 205.88C132.831 205.775 132.816 205.651 132.847 205.534C132.878 205.418 132.952 205.318 133.055 205.255C133.311 205.102 139.443 201.609 148.313 205.568C148.369 205.593 148.42 205.629 148.463 205.674C148.506 205.72 148.539 205.773 148.561 205.831C148.583 205.889 148.594 205.951 148.592 206.013C148.59 206.075 148.576 206.136 148.55 206.193C148.508 206.272 148.443 206.338 148.365 206.382C148.286 206.425 148.196 206.446 148.106 206.44Z" fill="#A2D2EC"/>
<path d="M186.392 226.381C186.467 226.628 195.474 236.811 195.474 236.811L189.467 239.178L182.213 230.342L186.392 226.381Z" fill="white"/>
<path d="M189.474 239.646C189.404 239.646 189.336 239.63 189.274 239.6C189.211 239.571 189.156 239.528 189.111 239.475L181.857 230.642C181.786 230.551 181.751 230.437 181.759 230.322C181.766 230.207 181.816 230.098 181.898 230.017L186.08 226.04C186.138 225.985 186.209 225.946 186.287 225.926C186.365 225.907 186.446 225.907 186.523 225.927C186.585 225.943 186.643 225.972 186.694 226.011C186.744 226.05 186.786 226.1 186.817 226.156C187.18 226.675 192.393 232.606 195.837 236.501C195.887 236.557 195.923 236.625 195.942 236.698C195.96 236.771 195.961 236.847 195.943 236.92C195.926 236.994 195.892 237.063 195.842 237.12C195.792 237.177 195.729 237.221 195.659 237.248L189.652 239.612C189.595 239.635 189.535 239.647 189.474 239.646ZM182.86 230.383L189.621 238.615L194.687 236.62C189.036 230.233 187.058 227.931 186.351 227.069L182.86 230.383Z" fill="black"/>
<path d="M189.374 235.029C189.639 234.408 190.103 233.894 190.693 233.565C191.209 233.303 191.791 233.2 192.366 233.269C192.94 233.338 193.482 233.576 193.921 233.953C196.187 235.829 202.332 241.172 205.798 246.281C207.026 248.088 206.31 250.386 203.388 250.227C198.6 249.967 191.043 247.725 184.876 241.957C184.527 241.633 184.266 241.226 184.115 240.774C183.965 240.322 183.931 239.84 184.017 239.371C184.178 238.459 184.434 237.567 184.779 236.708C184.958 236.285 185.282 235.94 185.692 235.734C186.102 235.527 186.571 235.474 187.017 235.582L187.845 235.779C188.148 235.852 188.466 235.817 188.745 235.68C189.024 235.543 189.247 235.313 189.374 235.029Z" fill="white"/>
<path d="M203.688 250.705H203.375C198.34 250.433 190.758 248.085 184.57 242.31C184.161 241.934 183.854 241.459 183.679 240.931C183.503 240.404 183.464 239.84 183.566 239.293C183.735 238.35 184 237.427 184.357 236.539C184.576 236.011 184.977 235.58 185.487 235.323C185.996 235.065 186.581 234.999 187.136 235.135L187.964 235.332C188.159 235.376 188.363 235.352 188.543 235.263C188.722 235.175 188.865 235.026 188.948 234.844C189.258 234.131 189.794 233.54 190.473 233.162C191.072 232.857 191.748 232.737 192.415 232.815C193.083 232.894 193.712 233.168 194.224 233.603C196.665 235.635 202.719 240.916 206.197 246.028C206.932 247.109 207.057 248.369 206.51 249.317C206.219 249.842 205.457 250.705 203.688 250.705ZM186.564 236.01C186.277 236.009 185.996 236.093 185.756 236.252C185.517 236.41 185.33 236.636 185.22 236.901C184.887 237.729 184.641 238.59 184.485 239.468C184.413 239.859 184.441 240.262 184.567 240.639C184.693 241.017 184.912 241.356 185.204 241.626C191.211 247.228 198.553 249.507 203.422 249.754C204.531 249.82 205.338 249.492 205.703 248.845C206.069 248.197 205.953 247.328 205.419 246.544C202.006 241.541 196.043 236.32 193.621 234.31C193.253 233.993 192.799 233.793 192.318 233.733C191.836 233.674 191.348 233.758 190.914 233.975C190.414 234.256 190.021 234.696 189.798 235.226C189.626 235.606 189.326 235.915 188.951 236.1C188.576 236.285 188.149 236.334 187.742 236.239L186.914 236.042C186.799 236.013 186.682 235.998 186.564 235.998V236.01Z" fill="black"/>
<path d="M202.403 248.335C199.628 248.335 194.387 247.15 186.107 240.875C186.008 240.8 185.943 240.689 185.926 240.566C185.909 240.443 185.942 240.318 186.017 240.219C186.092 240.119 186.204 240.054 186.328 240.037C186.451 240.02 186.577 240.053 186.676 240.128C199.218 249.636 204.369 247.1 204.419 247.075C204.528 247.019 204.654 247.009 204.771 247.045C204.888 247.081 204.986 247.161 205.044 247.269C205.1 247.378 205.11 247.504 205.074 247.621C205.038 247.738 204.958 247.836 204.85 247.894C204.775 247.947 203.994 248.335 202.403 248.335Z" fill="black"/>
<path d="M197.202 242.951C197.086 242.949 196.975 242.904 196.89 242.826C196.844 242.785 196.807 242.734 196.781 242.678C196.755 242.622 196.741 242.562 196.739 242.5C196.736 242.438 196.746 242.377 196.768 242.319C196.789 242.261 196.822 242.208 196.865 242.163L199.296 239.537C199.338 239.492 199.388 239.455 199.444 239.43C199.5 239.404 199.561 239.39 199.622 239.387C199.684 239.385 199.745 239.395 199.803 239.416C199.861 239.438 199.914 239.47 199.959 239.512C200.049 239.597 200.103 239.714 200.107 239.838C200.112 239.962 200.068 240.083 199.984 240.175L197.552 242.801C197.507 242.849 197.453 242.886 197.393 242.912C197.332 242.938 197.268 242.951 197.202 242.951Z" fill="black"/>
<path d="M195.052 241.182C194.991 241.182 194.93 241.17 194.873 241.146C194.816 241.122 194.764 241.088 194.721 241.044C194.633 240.956 194.584 240.837 194.584 240.713C194.584 240.588 194.633 240.469 194.721 240.381L197.399 237.683C197.443 237.639 197.494 237.604 197.551 237.581C197.608 237.557 197.669 237.545 197.731 237.545C197.792 237.545 197.853 237.557 197.91 237.581C197.967 237.604 198.019 237.639 198.062 237.683C198.15 237.771 198.199 237.89 198.199 238.014C198.199 238.139 198.15 238.258 198.062 238.346L195.384 241.044C195.34 241.088 195.289 241.123 195.232 241.146C195.175 241.17 195.114 241.182 195.052 241.182Z" fill="black"/>
<path d="M167.611 231.827L164.845 243.977L160.298 240.513L162.398 228.835L167.611 231.827Z" fill="white"/>
<path d="M164.843 244.446C164.74 244.446 164.639 244.412 164.558 244.349L160.011 240.897C159.942 240.845 159.889 240.775 159.857 240.694C159.826 240.613 159.817 240.526 159.833 240.441L161.936 228.76C161.949 228.686 161.98 228.617 162.026 228.557C162.071 228.498 162.131 228.451 162.198 228.419C162.266 228.387 162.341 228.371 162.416 228.374C162.491 228.377 162.564 228.398 162.63 228.435L167.843 231.43C167.93 231.48 167.998 231.556 168.039 231.648C168.079 231.74 168.089 231.842 168.068 231.94L165.302 244.089C165.283 244.167 165.244 244.239 165.189 244.298C165.135 244.357 165.066 244.402 164.989 244.427C164.942 244.441 164.892 244.447 164.843 244.446ZM160.808 240.312L164.558 243.164L167.083 232.062L162.752 229.56L160.808 240.312Z" fill="black"/>
<path d="M166.411 241.776C166.133 245.556 165.474 253.159 162.605 258.549C161.839 259.997 158.854 259.887 157.757 257.924C155.491 253.813 152.594 246.825 154.301 238.39C154.366 238.064 154.507 237.759 154.712 237.498C154.917 237.237 155.181 237.029 155.482 236.889C156.586 236.398 157.747 236.048 158.939 235.848C159.129 235.814 159.324 235.819 159.513 235.863C159.701 235.907 159.878 235.989 160.033 236.104C160.189 236.219 160.319 236.365 160.416 236.532C160.513 236.699 160.575 236.884 160.598 237.076L160.958 240.05L161.339 239.556C161.615 239.194 162.004 238.935 162.445 238.822C162.885 238.709 163.351 238.747 163.767 238.931L165.199 239.556C165.608 239.753 165.944 240.072 166.162 240.471C166.379 240.869 166.467 241.325 166.411 241.776Z" fill="white"/>
<path d="M160.62 260C159.96 260.006 159.309 259.838 158.735 259.512C158.16 259.185 157.682 258.713 157.348 258.143C153.698 251.521 152.516 244.843 153.842 238.29C153.922 237.892 154.094 237.52 154.345 237.201C154.596 236.883 154.918 236.628 155.285 236.457C156.426 235.951 157.625 235.59 158.855 235.382C159.108 235.335 159.367 235.341 159.618 235.399C159.868 235.457 160.104 235.566 160.311 235.72C160.519 235.872 160.693 236.066 160.822 236.288C160.952 236.511 161.034 236.758 161.064 237.014L161.296 238.912C161.653 238.596 162.093 238.389 162.565 238.315C163.036 238.241 163.518 238.304 163.955 238.496L165.387 239.121C165.884 239.356 166.296 239.741 166.563 240.223C166.831 240.704 166.941 241.257 166.877 241.804C166.524 246.628 165.737 253.638 163.021 258.765C162.618 259.525 161.733 259.984 160.652 259.994L160.62 260ZM159.202 236.289C159.144 236.284 159.087 236.284 159.03 236.289C157.877 236.481 156.754 236.819 155.686 237.292C155.452 237.402 155.247 237.565 155.088 237.768C154.928 237.971 154.818 238.208 154.767 238.462C153.488 244.786 154.635 251.252 158.176 257.674C158.431 258.101 158.794 258.453 159.229 258.694C159.664 258.935 160.155 259.057 160.652 259.046C161.371 259.046 161.961 258.759 162.214 258.315C165.152 252.772 165.743 244.746 165.965 241.726C166.014 241.371 165.95 241.01 165.781 240.695C165.613 240.379 165.349 240.125 165.027 239.968L163.596 239.343C163.275 239.201 162.915 239.17 162.575 239.257C162.235 239.344 161.934 239.543 161.721 239.822L161.339 240.316C161.283 240.389 161.206 240.444 161.118 240.474C161.03 240.503 160.935 240.506 160.846 240.481C160.756 240.457 160.676 240.407 160.615 240.336C160.554 240.266 160.516 240.179 160.505 240.087L160.145 237.114C160.129 236.985 160.087 236.861 160.021 236.748C159.956 236.636 159.868 236.538 159.764 236.461C159.6 236.344 159.403 236.284 159.202 236.289Z" fill="black"/>
<path d="M160.114 257.633C160.035 257.633 159.957 257.613 159.887 257.575C159.818 257.536 159.759 257.481 159.717 257.414C154.404 249.082 155.613 239.487 155.654 239.084C155.662 239.023 155.681 238.964 155.712 238.91C155.743 238.857 155.784 238.81 155.832 238.772C155.881 238.735 155.937 238.707 155.996 238.692C156.056 238.676 156.118 238.672 156.179 238.68C156.24 238.688 156.299 238.709 156.353 238.74C156.406 238.77 156.453 238.812 156.49 238.861C156.528 238.91 156.555 238.966 156.571 239.026C156.587 239.085 156.591 239.148 156.582 239.209C156.582 239.303 155.376 248.876 160.492 256.911C160.525 256.963 160.548 257.021 160.559 257.081C160.57 257.142 160.569 257.204 160.555 257.265C160.542 257.325 160.517 257.382 160.481 257.432C160.446 257.483 160.4 257.525 160.348 257.558C160.278 257.604 160.197 257.63 160.114 257.633Z" fill="black"/>
<path d="M165.48 247.425C165.436 247.425 165.392 247.419 165.349 247.406L161.811 246.387C161.693 246.351 161.594 246.27 161.535 246.161C161.477 246.052 161.464 245.924 161.499 245.806C161.535 245.688 161.616 245.59 161.724 245.531C161.832 245.473 161.959 245.459 162.077 245.493L165.615 246.512C165.733 246.548 165.832 246.63 165.891 246.739C165.949 246.848 165.962 246.975 165.927 247.094C165.898 247.189 165.838 247.273 165.758 247.332C165.678 247.392 165.58 247.424 165.48 247.425Z" fill="black"/>
<path d="M164.799 250.502C164.743 250.501 164.687 250.492 164.633 250.474L161.292 249.223C161.176 249.178 161.082 249.089 161.032 248.976C160.981 248.862 160.977 248.733 161.02 248.616C161.065 248.5 161.153 248.407 161.266 248.356C161.379 248.305 161.508 248.301 161.624 248.344L164.965 249.595C165.022 249.616 165.075 249.649 165.12 249.691C165.165 249.733 165.201 249.784 165.226 249.84C165.252 249.896 165.266 249.957 165.267 250.018C165.269 250.08 165.259 250.141 165.237 250.198C165.203 250.288 165.144 250.365 165.065 250.419C164.987 250.473 164.894 250.502 164.799 250.502Z" fill="black"/>
<path d="M136.77 176.313C136.77 176.313 153.7 174.296 168.961 182.932C170.849 184.002 172.416 185.556 173.503 187.435C174.589 189.313 175.154 191.448 175.14 193.618C175.093 202.391 174.165 218.43 168.792 232.349C168.72 232.537 168.61 232.708 168.469 232.852C168.328 232.996 168.159 233.11 167.973 233.188C167.787 233.265 167.588 233.303 167.386 233.301C167.185 233.299 166.986 233.256 166.802 233.175L159.926 230.133C159.699 230.033 159.5 229.877 159.349 229.681C159.198 229.484 159.098 229.252 159.06 229.007C158.554 225.79 156.847 213.559 158.557 204.689C160.541 194.39 127.375 183.476 127.375 183.476L136.77 176.313Z" fill="black"/>
<path d="M188.248 228.522L182.129 232.543C181.931 232.673 181.693 232.728 181.457 232.699C181.222 232.67 181.005 232.558 180.844 232.384C177.094 228.253 155.823 205.064 150.494 202.025C144.64 198.692 133.701 193.671 123.769 193.731C113.836 193.79 111.739 186.887 111.739 186.887L125.907 177.742C125.907 177.742 150.416 180.518 160.776 188.944C170.128 196.554 185.636 222.269 188.558 227.19C188.686 227.41 188.725 227.67 188.667 227.918C188.61 228.165 188.46 228.382 188.248 228.522Z" fill="black"/>
<path d="M175.025 205.88C174.951 205.88 174.877 205.863 174.811 205.829C174.745 205.795 174.687 205.746 174.644 205.686C170.512 199.937 164.086 192.242 160.479 189.3C156.576 186.124 150.203 183.388 141.53 181.171C141.471 181.157 141.414 181.13 141.365 181.093C141.316 181.056 141.274 181.01 141.243 180.957C141.212 180.904 141.191 180.846 141.182 180.785C141.174 180.724 141.177 180.662 141.193 180.602C141.207 180.543 141.234 180.486 141.27 180.437C141.307 180.387 141.353 180.345 141.406 180.314C141.459 180.282 141.518 180.262 141.579 180.253C141.64 180.245 141.702 180.249 141.761 180.265C150.566 182.519 157.076 185.317 161.07 188.578C164.739 191.564 171.24 199.346 175.403 205.149C175.439 205.198 175.465 205.255 175.48 205.315C175.494 205.375 175.496 205.437 175.486 205.498C175.476 205.558 175.454 205.617 175.422 205.669C175.389 205.721 175.347 205.766 175.297 205.802C175.217 205.856 175.121 205.883 175.025 205.88Z" fill="#52A5D8"/>
<path d="M125.681 155.418L127.494 159.155C129.651 163.603 132.972 167.385 137.105 170.097L138.78 171.195C139.852 171.9 141.128 172.23 142.408 172.133H142.605C144.56 171.981 146.502 172.553 148.062 173.74L143.671 175.15C140.994 176.016 138.083 175.791 135.57 174.525C132.527 172.996 129.865 170.804 127.778 168.112C122.647 161.421 121.459 157.304 121.459 157.304L125.681 155.418Z" fill="white"/>
<path d="M140.34 176.113C138.609 176.113 136.902 175.705 135.358 174.922C132.248 173.362 129.53 171.12 127.407 168.362C122.278 161.681 121.059 157.57 121.009 157.398C120.978 157.289 120.987 157.172 121.036 157.07C121.084 156.967 121.168 156.886 121.272 156.841L125.491 154.965C125.547 154.939 125.607 154.924 125.669 154.921C125.731 154.918 125.792 154.927 125.85 154.948C125.909 154.969 125.962 155.001 126.008 155.043C126.053 155.084 126.09 155.134 126.116 155.19L127.929 158.923C130.052 163.292 133.317 167.005 137.377 169.669L139.049 170.767C140.038 171.409 141.211 171.71 142.387 171.623H142.581C144.65 171.459 146.708 172.063 148.36 173.321C148.428 173.372 148.482 173.442 148.513 173.522C148.545 173.602 148.553 173.69 148.538 173.774C148.524 173.858 148.488 173.937 148.433 174.001C148.378 174.066 148.306 174.114 148.225 174.14L143.815 175.553C142.693 175.92 141.52 176.109 140.34 176.113ZM122.041 157.538C122.469 158.701 124.025 162.425 128.151 167.806C130.189 170.447 132.798 172.594 135.783 174.084C138.186 175.298 140.973 175.509 143.531 174.668L146.994 173.555C145.677 172.792 144.16 172.448 142.643 172.567H142.446C141.064 172.673 139.685 172.319 138.524 171.561L136.849 170.46C132.647 167.704 129.269 163.863 127.073 159.342L125.447 156.031L122.041 157.538Z" fill="black"/>
<path d="M120.09 191.239C120.09 191.239 114.524 195.491 111.461 194.265C108.398 193.04 113.671 187.806 115.212 187.603C116.752 187.399 120.09 191.239 120.09 191.239Z" fill="black"/>
<path d="M121.072 128.518C123.572 128.168 126.432 130.363 126.147 134.102C125.916 137.157 122.728 138.082 121.253 139.73C116.487 145.004 121.062 150.732 117.334 155.987C113.783 160.99 108.392 157.551 101.179 163.31C95.4969 167.84 116.143 160.956 108.917 165.736C103.151 169.55 92.3309 169.231 86.2176 162.222C80.4044 155.553 79.0668 145.545 85.0237 140.715C90.3775 136.375 94.1592 141.44 99.8661 137.366C105.492 133.348 103.948 129.456 107.464 127.78C112.261 125.476 113.962 129.503 121.072 128.518Z" fill="black"/>
<path d="M91.4336 165.861C91.7313 163.987 92.1489 162.135 92.6837 160.315C94.1433 155.834 95.1372 152.917 100.135 150.253C100.885 149.858 101.667 149.526 102.472 149.262L105.492 148.253C105.492 148.253 117.959 144.688 122.95 149.503C123.417 149.903 123.836 150.355 124.2 150.851L127.454 155.759H127.422C126.741 156.037 126.126 156.457 125.619 156.991C125.112 157.525 124.725 158.161 124.484 158.857C124.242 159.552 124.151 160.291 124.218 161.025C124.284 161.758 124.506 162.469 124.869 163.11C126.647 166.236 129.098 169.875 131.535 171.392C132.304 171.87 138.511 174.421 138.511 174.421C138.511 174.421 140.033 179.067 130.485 183.05C120.937 187.034 113.977 188.475 111.974 193.393C110.786 196.304 105.957 182.347 102.851 169.269C102.562 168.052 101.844 166.979 100.828 166.25C99.8122 165.52 98.567 165.182 97.3218 165.298L91.4336 165.861Z" fill="#F1C40F"/>
<path d="M111.567 194.272H111.504C111.051 194.234 109.995 194.153 107.185 186.089C105.535 181.356 103.788 175.272 102.394 169.397C102.126 168.293 101.471 167.321 100.549 166.659C99.6261 165.996 98.4966 165.687 97.3651 165.786L91.477 166.333C91.4054 166.34 91.3332 166.331 91.2659 166.305C91.1987 166.28 91.1383 166.239 91.0894 166.186C91.0403 166.133 91.004 166.069 90.9834 166C90.9628 165.931 90.9584 165.857 90.9706 165.786C91.2724 163.89 91.6984 162.017 92.2458 160.177C93.671 155.8 94.6992 152.63 99.9186 149.86C100.691 149.45 101.497 149.108 102.328 148.837L105.35 147.827C105.888 147.674 118.165 144.238 123.281 149.187L123.493 149.391C123.911 149.754 124.281 150.168 124.597 150.622L127.844 155.522C127.882 155.58 127.907 155.645 127.917 155.714C127.926 155.783 127.921 155.853 127.9 155.919C127.88 155.985 127.845 156.046 127.798 156.097C127.75 156.147 127.693 156.187 127.628 156.213H127.6C126.978 156.468 126.417 156.853 125.955 157.342C125.493 157.831 125.141 158.412 124.922 159.048C124.703 159.679 124.622 160.348 124.683 161.012C124.744 161.677 124.945 162.32 125.275 162.9C127.625 167.024 129.875 169.829 131.782 171.029C132.322 171.364 136.207 173.002 138.689 174.021C138.751 174.047 138.807 174.087 138.853 174.136C138.899 174.186 138.933 174.245 138.955 174.309C139.023 174.515 140.517 179.414 130.666 183.516C128.513 184.414 126.453 185.198 124.634 185.889C118.383 188.262 113.883 189.979 112.408 193.602C112.173 194.168 111.801 194.272 111.567 194.272ZM97.7965 164.829C99.0688 164.834 100.303 165.265 101.301 166.054C102.3 166.843 103.005 167.944 103.303 169.181C106.304 181.797 110.179 192.477 111.511 193.299C111.522 193.279 111.531 193.258 111.539 193.237C113.17 189.235 117.84 187.459 124.303 185.001C126.112 184.31 128.166 183.529 130.304 182.638C138.176 179.355 138.217 175.666 138.101 174.781C136.851 174.268 132.007 172.261 131.288 171.814C129.219 170.526 126.912 167.684 124.462 163.372C124.066 162.676 123.823 161.904 123.749 161.107C123.675 160.309 123.772 159.505 124.034 158.748C124.505 157.382 125.48 156.248 126.759 155.578L123.809 151.126C123.531 150.736 123.209 150.381 122.849 150.066L122.631 149.856C117.886 145.279 105.754 148.681 105.626 148.718L102.625 149.719C101.846 149.975 101.089 150.297 100.362 150.679C95.4743 153.286 94.543 156.144 93.1366 160.474C92.659 162.074 92.279 163.702 91.9989 165.348L97.2777 164.857C97.4527 164.836 97.6308 164.829 97.7965 164.829Z" fill="black"/>
<path d="M128.647 177.607L124.025 176.291C123.687 176.195 123.329 176.187 122.987 176.268C122.645 176.35 122.33 176.518 122.071 176.757L120.062 178.617C119.679 178.972 119.174 179.165 118.652 179.158C116.374 179.133 105.869 176.697 104.719 174.953C104.151 174.093 103.288 171.076 102.638 168.575C102.373 167.56 101.756 166.673 100.897 166.072C100.038 165.471 98.9933 165.196 97.9498 165.295L93.3086 165.73C93.3086 165.73 95.2964 176.854 99.3 180.224C102.407 182.841 109.429 183.845 119.465 182.678C119.465 182.678 121.559 182.322 123.215 180.115C124.265 178.708 127.053 179.249 128.66 178.758C128.783 178.72 128.891 178.642 128.967 178.538C129.043 178.433 129.084 178.307 129.082 178.178C129.081 178.049 129.038 177.923 128.959 177.82C128.881 177.718 128.772 177.643 128.647 177.607Z" fill="white"/>
<path d="M111.78 183.629C105.811 183.629 101.391 182.594 99.0067 180.584C94.9219 177.145 92.9404 166.274 92.8591 165.811C92.8475 165.747 92.8493 165.682 92.8643 165.619C92.8794 165.556 92.9075 165.497 92.9467 165.445C92.9843 165.396 93.0313 165.354 93.0849 165.323C93.1386 165.292 93.1978 165.272 93.2592 165.264L97.9004 164.829C99.0537 164.717 100.209 165.021 101.158 165.686C102.107 166.351 102.787 167.334 103.076 168.456C104.267 173.024 104.851 174.328 105.095 174.709C106.07 176.178 116.159 178.68 118.659 178.68C119.061 178.682 119.449 178.534 119.747 178.264L121.753 176.388C122.071 176.095 122.459 175.889 122.879 175.789C123.299 175.689 123.738 175.698 124.154 175.816L128.779 177.132C129.001 177.195 129.196 177.327 129.335 177.511C129.474 177.694 129.55 177.918 129.551 178.148C129.556 178.379 129.485 178.605 129.349 178.791C129.213 178.978 129.019 179.114 128.798 179.18C128.11 179.352 127.406 179.447 126.698 179.464C125.447 179.546 124.147 179.627 123.591 180.371C121.85 182.7 119.647 183.097 119.553 183.113C116.974 183.434 114.379 183.607 111.78 183.629ZM93.8812 166.149C94.3218 168.337 96.2627 177.041 99.6131 179.865C102.698 182.463 109.927 183.319 119.425 182.213C120.805 181.841 122.014 181.001 122.844 179.836C123.657 178.745 125.241 178.642 126.641 178.551C127.273 178.538 127.902 178.456 128.517 178.308C128.545 178.302 128.57 178.286 128.587 178.263C128.604 178.24 128.611 178.211 128.607 178.183C128.609 178.154 128.601 178.126 128.584 178.104C128.566 178.081 128.541 178.066 128.513 178.061L123.885 176.741C123.624 176.668 123.349 176.662 123.085 176.725C122.821 176.788 122.578 176.917 122.378 177.101L120.369 178.961C119.905 179.39 119.297 179.628 118.665 179.627H118.637C116.393 179.602 105.601 177.16 104.317 175.212C103.826 174.471 103.107 172.277 102.173 168.694C101.938 167.787 101.387 166.994 100.62 166.456C99.8534 165.919 98.9201 165.672 97.9879 165.761L93.8812 166.149Z" fill="black"/>
<path d="M106.016 148.353C106.016 148.353 108.62 139.955 108.707 138.936C108.707 138.936 107.879 138.498 107.926 137.219C108.013 134.787 110.426 135.993 110.426 135.993L110.664 136.05C112.046 136.384 113.496 136.313 114.839 135.843L117.652 134.859C117.652 134.859 118.243 135.893 117.555 137.894C117.227 138.832 117.289 139.958 117.465 141.115C117.486 141.262 117.449 141.412 117.36 141.532C117.272 141.652 117.14 141.733 116.993 141.756L116.239 141.871C115.945 142.654 115.466 143.355 114.842 143.913C114.664 144.074 114.429 144.158 114.189 144.147C113.712 144.125 113.242 144.019 112.801 143.835L112.376 147.399L114.252 147.352C114.252 147.352 114.927 149.588 111.383 151.204C109.426 152.095 106.657 151.914 104.566 151.573C104.331 151.536 104.112 151.426 103.942 151.26C103.771 151.094 103.656 150.878 103.612 150.644C103.569 150.409 103.599 150.167 103.699 149.951C103.798 149.734 103.963 149.554 104.169 149.434L106.016 148.353Z" fill="white"/>
<path d="M107.739 152.298C106.653 152.289 105.569 152.194 104.498 152.014C104.166 151.962 103.858 151.807 103.618 151.572C103.377 151.336 103.216 151.032 103.157 150.701C103.095 150.372 103.136 150.032 103.276 149.728C103.416 149.424 103.648 149.172 103.939 149.006L105.623 148.027C106.58 144.929 107.945 140.371 108.202 139.126C107.94 138.88 107.737 138.579 107.609 138.244C107.48 137.909 107.428 137.549 107.458 137.191C107.489 136.347 107.77 135.759 108.302 135.443C109.164 134.934 110.305 135.406 110.586 135.537L110.774 135.581C112.07 135.894 113.428 135.827 114.687 135.387L117.5 134.402C117.603 134.366 117.716 134.367 117.819 134.405C117.922 134.443 118.008 134.516 118.062 134.612C118.09 134.662 118.75 135.862 118 138.051C117.687 138.989 117.787 140.086 117.931 141.049C117.971 141.319 117.902 141.593 117.741 141.813C117.579 142.032 117.338 142.179 117.068 142.221L116.568 142.297C116.253 143.051 115.772 143.725 115.159 144.266C114.888 144.51 114.532 144.637 114.168 144.62C113.842 144.601 113.518 144.548 113.202 144.463L112.912 146.911L114.243 146.877C114.345 146.878 114.444 146.912 114.526 146.971C114.608 147.031 114.67 147.115 114.703 147.211C114.734 147.318 115.45 149.856 111.577 151.623C110.359 152.113 109.052 152.343 107.739 152.298ZM109.214 136.15C109.063 136.144 108.913 136.179 108.78 136.253C108.542 136.394 108.414 136.719 108.396 137.225C108.361 138.163 108.911 138.498 108.936 138.51C109.014 138.556 109.078 138.623 109.121 138.703C109.164 138.783 109.183 138.873 109.177 138.964C109.086 140.002 106.733 147.615 106.464 148.478C106.43 148.591 106.354 148.687 106.252 148.746L104.411 149.816C104.287 149.884 104.188 149.991 104.129 150.12C104.07 150.249 104.053 150.393 104.082 150.532C104.106 150.673 104.174 150.803 104.276 150.903C104.379 151.003 104.51 151.068 104.651 151.088C106.602 151.401 109.324 151.607 111.196 150.754C113.512 149.697 113.837 148.418 113.843 147.812L112.399 147.846C112.332 147.846 112.266 147.832 112.204 147.806C112.142 147.779 112.087 147.741 112.04 147.693C111.995 147.643 111.961 147.584 111.94 147.52C111.92 147.455 111.913 147.388 111.921 147.321L112.346 143.757C112.355 143.685 112.38 143.617 112.42 143.557C112.459 143.496 112.512 143.446 112.574 143.41C112.637 143.373 112.708 143.351 112.78 143.346C112.853 143.341 112.926 143.353 112.993 143.381C113.384 143.546 113.801 143.644 114.224 143.669C114.34 143.673 114.452 143.631 114.537 143.553C115.109 143.041 115.547 142.397 115.815 141.677C115.847 141.605 115.897 141.541 115.959 141.493C116.022 141.444 116.096 141.412 116.175 141.399L116.928 141.284C116.94 141.282 116.952 141.279 116.962 141.273C116.973 141.267 116.982 141.259 116.99 141.249C116.997 141.239 117.002 141.228 117.005 141.216C117.008 141.205 117.008 141.192 117.006 141.18C116.847 140.105 116.734 138.854 117.118 137.741C117.404 137.015 117.488 136.226 117.362 135.456L114.993 136.284C113.565 136.783 112.023 136.86 110.552 136.506L110.315 136.447C110.28 136.44 110.246 136.429 110.214 136.412C109.901 136.262 109.561 136.176 109.214 136.159V136.15Z" fill="black"/>
<path d="M112.811 144.288C112.742 144.289 112.674 144.274 112.611 144.244L112.095 144.001C112.039 143.975 111.989 143.938 111.947 143.892C111.905 143.847 111.873 143.793 111.852 143.735C111.831 143.677 111.822 143.615 111.825 143.553C111.828 143.491 111.843 143.431 111.87 143.375C111.896 143.319 111.933 143.269 111.978 143.227C112.024 143.185 112.077 143.152 112.136 143.132C112.194 143.111 112.256 143.101 112.317 143.105C112.379 143.108 112.44 143.123 112.495 143.15L113.014 143.391C113.127 143.444 113.213 143.54 113.255 143.657C113.297 143.774 113.292 143.903 113.239 144.016C113.201 144.098 113.141 144.166 113.065 144.215C112.989 144.263 112.901 144.288 112.811 144.288Z" fill="black"/>
<path d="M150.956 173.224L129.601 179.721L136.733 155.478C136.866 155.024 137.111 154.611 137.444 154.276C137.778 153.941 138.189 153.694 138.642 153.558L155.976 148.287C156.22 148.205 156.481 148.192 156.732 148.247C156.984 148.303 157.215 148.427 157.401 148.604C157.588 148.781 157.722 149.006 157.79 149.255C157.859 149.503 157.858 149.765 157.788 150.013L150.956 173.224Z" fill="black"/>
<path d="M145.865 163.672C145.721 164.126 145.477 164.541 145.153 164.889C144.829 165.238 144.432 165.51 143.99 165.686C143.209 165.924 142.777 165.408 143.031 164.535C143.175 164.082 143.418 163.667 143.743 163.318C144.067 162.97 144.464 162.698 144.906 162.522C145.687 162.278 146.118 162.794 145.865 163.672Z" fill="white"/>
<path d="M150.21 174.859L116.697 185.051C116.364 185.152 116.005 185.116 115.698 184.952C115.392 184.788 115.163 184.509 115.062 184.176L114.962 183.998L150.969 173.055L151.069 173.233C151.169 173.563 151.135 173.919 150.974 174.223C150.813 174.527 150.538 174.756 150.21 174.859Z" fill="black"/>
<path d="M78.3262 127.374C78.2645 127.375 78.2033 127.363 78.1463 127.339C78.0894 127.315 78.0378 127.28 77.9949 127.236C77.951 127.193 77.9162 127.141 77.8925 127.084C77.8687 127.027 77.8564 126.966 77.8564 126.905C77.8564 126.843 77.8687 126.782 77.8925 126.725C77.9162 126.668 77.951 126.617 77.9949 126.573L79.0856 125.482C79.1739 125.395 79.2929 125.346 79.4169 125.346C79.5409 125.346 79.6599 125.395 79.7482 125.482C79.8353 125.571 79.884 125.69 79.884 125.814C79.884 125.938 79.8353 126.057 79.7482 126.145L78.6575 127.236C78.6143 127.28 78.5627 127.315 78.5058 127.339C78.4489 127.362 78.3878 127.374 78.3262 127.374Z" fill="black"/>
<path d="M82.4452 123.253C82.3836 123.254 82.3224 123.242 82.2655 123.218C82.2085 123.195 82.157 123.16 82.114 123.115C82.0702 123.072 82.0353 123.02 82.0115 122.964C81.9878 122.907 81.9756 122.846 81.9756 122.784C81.9756 122.722 81.9878 122.661 82.0115 122.604C82.0353 122.548 82.0702 122.496 82.114 122.453L83.2048 121.361C83.2931 121.274 83.412 121.226 83.536 121.226C83.66 121.226 83.779 121.274 83.8673 121.361C83.9543 121.45 84.0031 121.569 84.0031 121.693C84.0031 121.817 83.9543 121.936 83.8673 122.024L82.7765 123.115C82.7334 123.159 82.6818 123.194 82.6248 123.218C82.5679 123.242 82.5069 123.253 82.4452 123.253Z" fill="black"/>
<path d="M83.536 127.374C83.4743 127.375 83.4132 127.363 83.3562 127.339C83.2992 127.315 83.2477 127.28 83.2048 127.236L82.114 126.145C82.0702 126.102 82.0353 126.05 82.0115 125.993C81.9878 125.936 81.9756 125.875 81.9756 125.814C81.9756 125.752 81.9878 125.691 82.0115 125.634C82.0353 125.577 82.0702 125.526 82.114 125.482C82.2023 125.395 82.3212 125.346 82.4452 125.346C82.5692 125.346 82.6882 125.395 82.7765 125.482L83.8673 126.573C83.9543 126.662 84.0031 126.781 84.0031 126.905C84.0031 127.029 83.9543 127.148 83.8673 127.236C83.824 127.28 83.7724 127.315 83.7155 127.338C83.6586 127.362 83.5976 127.374 83.536 127.374Z" fill="black"/>
<path d="M79.4169 123.253C79.3552 123.254 79.294 123.242 79.2371 123.218C79.1801 123.195 79.1286 123.16 79.0856 123.115L77.9949 122.024C77.951 121.981 77.9162 121.929 77.8925 121.872C77.8687 121.816 77.8564 121.755 77.8564 121.693C77.8564 121.631 77.8687 121.57 77.8925 121.513C77.9162 121.456 77.951 121.405 77.9949 121.361C78.0832 121.274 78.2022 121.226 78.3262 121.226C78.4502 121.226 78.5692 121.274 78.6575 121.361L79.7482 122.453C79.8353 122.541 79.884 122.66 79.884 122.784C79.884 122.908 79.8353 123.027 79.7482 123.115C79.7049 123.159 79.6534 123.194 79.5965 123.218C79.5396 123.241 79.4785 123.253 79.4169 123.253Z" fill="black"/>
<path d="M131.185 12.5248C131.119 12.5247 131.053 12.5104 130.993 12.4829C130.932 12.4554 130.878 12.4153 130.835 12.3653C130.794 12.3192 130.763 12.2654 130.742 12.2071C130.722 12.1488 130.714 12.0871 130.718 12.0255C130.721 11.9639 130.737 11.9037 130.764 11.8483C130.791 11.7929 130.829 11.7433 130.875 11.7025L132.029 10.6802C132.075 10.6392 132.129 10.6078 132.187 10.5877C132.245 10.5676 132.307 10.5592 132.368 10.563C132.43 10.5667 132.49 10.5826 132.546 10.6097C132.601 10.6368 132.65 10.6745 132.691 10.7208C132.732 10.767 132.764 10.8207 132.784 10.879C132.804 10.9374 132.812 10.9991 132.808 11.0606C132.805 11.1222 132.789 11.1824 132.762 11.2378C132.735 11.2933 132.697 11.3428 132.651 11.3836L131.497 12.406C131.411 12.4822 131.3 12.5244 131.185 12.5248Z" fill="black"/>
<path d="M135.548 8.6635C135.482 8.6628 135.417 8.64825 135.356 8.62079C135.296 8.59333 135.242 8.55356 135.198 8.50404C135.157 8.45789 135.126 8.40413 135.106 8.34581C135.086 8.28749 135.077 8.22579 135.081 8.16422C135.085 8.10265 135.101 8.04244 135.128 7.98702C135.155 7.9316 135.193 7.88203 135.239 7.84123L136.392 6.81889C136.438 6.77797 136.492 6.74653 136.55 6.72642C136.608 6.70631 136.67 6.69791 136.732 6.70169C136.793 6.70546 136.853 6.72135 136.909 6.74844C136.964 6.77552 137.014 6.81324 137.055 6.8595C137.095 6.90565 137.127 6.95946 137.147 7.01777C137.167 7.07609 137.176 7.13779 137.172 7.19936C137.168 7.26093 137.152 7.32114 137.125 7.37656C137.098 7.43198 137.06 7.48155 137.014 7.52235L135.861 8.54469C135.774 8.62087 135.663 8.66309 135.548 8.6635Z" fill="black"/>
<path d="M136.386 12.8405C136.32 12.8406 136.255 12.8267 136.195 12.7998C136.134 12.7728 136.08 12.7334 136.036 12.6842L135.014 11.5274C134.973 11.4815 134.942 11.428 134.922 11.3699C134.902 11.3119 134.894 11.2504 134.897 11.1891C134.901 11.1278 134.917 11.0678 134.944 11.0127C134.971 10.9575 135.009 10.9082 135.055 10.8677C135.1 10.8263 135.154 10.7944 135.212 10.7738C135.27 10.7533 135.331 10.7444 135.392 10.7479C135.454 10.7514 135.514 10.7672 135.569 10.7942C135.624 10.8212 135.674 10.8589 135.714 10.9052L136.736 12.062C136.777 12.108 136.809 12.1616 136.829 12.2198C136.85 12.278 136.858 12.3397 136.855 12.4012C136.852 12.4628 136.836 12.523 136.809 12.5786C136.782 12.6341 136.745 12.6838 136.699 12.7248C136.612 12.7996 136.501 12.8407 136.386 12.8405Z" fill="black"/>
<path d="M132.526 8.47593C132.46 8.47602 132.395 8.46215 132.334 8.43521C132.274 8.40827 132.22 8.36886 132.176 8.3196L131.154 7.16281C131.113 7.11692 131.082 7.0634 131.062 7.00534C131.042 6.94728 131.033 6.88583 131.037 6.82452C131.041 6.7632 131.057 6.70324 131.084 6.64808C131.111 6.59292 131.148 6.54366 131.195 6.50313C131.24 6.4621 131.294 6.43052 131.351 6.41019C131.409 6.38987 131.471 6.38117 131.532 6.38466C131.593 6.38815 131.653 6.40373 131.709 6.4305C131.764 6.45726 131.813 6.4947 131.854 6.54064L132.876 7.69743C132.917 7.74359 132.948 7.79735 132.968 7.85567C132.989 7.91398 132.997 7.97573 132.993 8.0373C132.989 8.09887 132.973 8.15908 132.946 8.2145C132.919 8.26992 132.882 8.31944 132.835 8.36025C132.75 8.43534 132.64 8.47649 132.526 8.47593Z" fill="black"/>
<path d="M120.094 26.7316H119.943C119.628 26.7137 119.32 26.6331 119.036 26.4946C118.752 26.3561 118.498 26.1625 118.29 25.9249C118.081 25.6885 117.92 25.4129 117.817 25.114C117.714 24.8152 117.671 24.499 117.69 24.1835C117.709 23.8682 117.79 23.5597 117.928 23.2758C118.066 22.9919 118.26 22.7383 118.496 22.5296C118.733 22.3197 119.008 22.1585 119.307 22.0555C119.606 21.9525 119.922 21.9096 120.237 21.9293C120.874 21.9687 121.468 22.2592 121.891 22.7369C122.313 23.2147 122.529 23.8407 122.491 24.4774C122.452 25.0873 122.182 25.6596 121.737 26.0783C121.292 26.4969 120.705 26.7304 120.094 26.7316ZM120.094 22.8578C119.736 22.8575 119.391 22.9888 119.125 23.2268C118.98 23.3533 118.862 23.5076 118.778 23.6805C118.693 23.8534 118.644 24.0414 118.634 24.2335C118.621 24.4266 118.647 24.6202 118.709 24.8034C118.771 24.9865 118.869 25.1556 118.997 25.3009C119.125 25.4461 119.28 25.5647 119.454 25.6498C119.627 25.7349 119.816 25.7848 120.009 25.7968C120.399 25.8216 120.782 25.6906 121.075 25.4327C121.368 25.1747 121.547 24.8108 121.572 24.4211C121.585 24.2279 121.56 24.0341 121.498 23.8508C121.436 23.6674 121.338 23.4982 121.21 23.3529C121.082 23.2075 120.927 23.089 120.753 23.004C120.579 22.919 120.39 22.8694 120.197 22.8578H120.094Z" fill="black"/>
<path d="M230.813 247.094C230.746 247.094 230.681 247.08 230.62 247.052C230.56 247.025 230.506 246.985 230.463 246.934C230.422 246.888 230.39 246.834 230.37 246.776C230.35 246.718 230.342 246.656 230.346 246.594C230.349 246.533 230.365 246.473 230.392 246.417C230.419 246.362 230.457 246.312 230.503 246.271L231.657 245.249C231.75 245.167 231.872 245.126 231.996 245.133C232.12 245.141 232.236 245.197 232.319 245.29C232.36 245.336 232.391 245.39 232.412 245.448C232.432 245.506 232.44 245.568 232.436 245.63C232.433 245.691 232.417 245.751 232.39 245.807C232.363 245.862 232.325 245.912 232.279 245.953L231.125 246.975C231.039 247.051 230.928 247.093 230.813 247.094Z" fill="black"/>
<path d="M235.175 243.233C235.112 243.232 235.049 243.219 234.99 243.194C234.932 243.169 234.879 243.132 234.835 243.086C234.794 243.039 234.763 242.986 234.742 242.927C234.722 242.869 234.714 242.807 234.718 242.746C234.721 242.684 234.737 242.624 234.764 242.569C234.791 242.513 234.829 242.464 234.875 242.423L236.029 241.4C236.075 241.359 236.129 241.328 236.187 241.308C236.245 241.288 236.307 241.279 236.368 241.283C236.43 241.287 236.49 241.303 236.546 241.33C236.601 241.357 236.65 241.395 236.691 241.441C236.732 241.487 236.764 241.541 236.784 241.599C236.804 241.658 236.812 241.719 236.808 241.781C236.805 241.842 236.789 241.903 236.762 241.958C236.735 242.014 236.697 242.063 236.651 242.104L235.494 243.126C235.405 243.2 235.291 243.238 235.175 243.233Z" fill="black"/>
<path d="M236.013 247.41C235.947 247.41 235.882 247.396 235.821 247.369C235.761 247.342 235.707 247.303 235.663 247.253L234.641 246.096C234.6 246.051 234.569 245.997 234.549 245.939C234.529 245.881 234.521 245.819 234.524 245.758C234.528 245.697 234.544 245.637 234.571 245.582C234.598 245.527 234.636 245.477 234.682 245.437C234.727 245.396 234.781 245.364 234.839 245.344C234.897 245.323 234.958 245.315 235.019 245.318C235.081 245.322 235.141 245.337 235.196 245.364C235.251 245.391 235.301 245.428 235.341 245.474L236.363 246.631C236.404 246.677 236.436 246.731 236.456 246.789C236.476 246.848 236.484 246.909 236.48 246.971C236.477 247.032 236.461 247.093 236.434 247.148C236.407 247.204 236.369 247.253 236.323 247.294C236.237 247.369 236.127 247.41 236.013 247.41Z" fill="black"/>
<path d="M232.154 243.045C232.087 243.045 232.021 243.031 231.961 243.004C231.9 242.977 231.845 242.938 231.801 242.889L230.779 241.732C230.697 241.639 230.655 241.517 230.663 241.394C230.671 241.27 230.727 241.154 230.819 241.072C230.865 241.031 230.919 240.999 230.977 240.979C231.035 240.959 231.097 240.95 231.158 240.953C231.22 240.957 231.28 240.973 231.336 240.999C231.391 241.026 231.441 241.064 231.482 241.11L232.504 242.266C232.545 242.313 232.576 242.366 232.596 242.425C232.616 242.483 232.625 242.545 232.621 242.606C232.617 242.668 232.601 242.728 232.574 242.784C232.547 242.839 232.509 242.888 232.463 242.929C232.378 243.004 232.268 243.046 232.154 243.045Z" fill="black"/>
<path d="M283.032 242.113C283.032 242.113 267.983 212.671 275.297 184.048C275.541 183.088 279.263 184.154 279.557 183.201C279.935 181.981 276.906 178.742 277.369 177.532C279.178 172.842 281.624 168.423 284.639 164.401C284.639 164.401 290.602 173.086 293.702 186.646C293.937 187.668 290.133 190.513 290.33 191.592C290.517 192.608 294.705 191.852 294.852 192.915C296.749 206.64 295.112 224.036 283.032 242.113Z" fill="#A2D2EC"/>
<path d="M269.933 207.359C269.308 206.499 265.739 209.591 265.104 208.778C264.47 207.966 266.17 202.175 265.535 201.416C253.1 186.508 239.864 179.677 239.864 179.677C238.748 187.029 238.763 194.509 239.907 201.856C240.079 202.979 245.149 204.848 245.37 205.949C245.611 207.156 241.473 208.666 241.767 209.848C246.124 227.316 255.634 240.978 265.057 251.658C272.082 249.207 278.806 245.966 285.1 241.998C282.206 227.425 276.715 216.629 269.933 207.359Z" fill="#52A5D8"/>
<path d="M273.652 241.851C273.575 241.851 273.499 241.833 273.431 241.797C273.363 241.761 273.305 241.708 273.262 241.644C269.93 236.692 266.698 231.583 263.61 226.462C263.579 226.409 263.557 226.351 263.548 226.29C263.539 226.229 263.542 226.167 263.557 226.107C263.572 226.047 263.598 225.991 263.634 225.941C263.671 225.892 263.717 225.85 263.77 225.818C263.823 225.786 263.881 225.765 263.942 225.756C264.003 225.747 264.065 225.749 264.125 225.764C264.185 225.779 264.241 225.806 264.29 225.842C264.34 225.879 264.382 225.925 264.414 225.977C267.48 231.089 270.717 236.182 274.04 241.119C274.109 241.223 274.135 241.35 274.111 241.472C274.086 241.595 274.015 241.703 273.912 241.773C273.835 241.824 273.745 241.851 273.652 241.851Z" fill="#CADDFF"/>
<path d="M259.719 219.324C259.636 219.325 259.555 219.303 259.484 219.261C259.412 219.219 259.353 219.159 259.313 219.087C254.347 210.332 249.709 201.237 245.527 192.07L243.614 187.881C243.562 187.767 243.557 187.638 243.601 187.521C243.644 187.403 243.732 187.308 243.845 187.256C243.959 187.204 244.089 187.199 244.206 187.242C244.323 187.285 244.418 187.374 244.471 187.487L246.383 191.68C250.552 200.818 255.178 209.885 260.135 218.621C260.195 218.73 260.21 218.858 260.177 218.978C260.143 219.097 260.064 219.199 259.957 219.262C259.884 219.303 259.803 219.325 259.719 219.324Z" fill="#CADDFF"/>
<path d="M282.182 243.755C282.182 243.755 276.225 212.293 307.032 201.372C307.032 201.372 309.595 228.838 282.182 243.755Z" fill="#52A5D8"/>
<path d="M287.707 235.563C287.655 235.564 287.603 235.556 287.554 235.538C287.496 235.518 287.442 235.487 287.396 235.446C287.35 235.405 287.312 235.355 287.285 235.3C287.259 235.244 287.243 235.184 287.24 235.122C287.237 235.061 287.246 234.999 287.266 234.941C290.798 224.849 301.784 209.222 301.896 209.063C301.968 208.962 302.078 208.894 302.2 208.873C302.322 208.852 302.448 208.88 302.549 208.95C302.65 209.023 302.719 209.133 302.74 209.256C302.761 209.379 302.733 209.505 302.662 209.607C302.553 209.76 291.639 225.283 288.151 235.244C288.119 235.337 288.06 235.418 287.98 235.475C287.901 235.532 287.805 235.563 287.707 235.563Z" fill="#CADDFF"/>
<path d="M109.946 100.47C109.873 100.47 109.801 100.453 109.736 100.42C109.627 100.364 109.544 100.267 109.505 100.15C109.466 100.033 109.475 99.9053 109.53 99.7949C112.404 94.1555 115.794 88.7945 119.656 83.7809C125.804 75.7873 133.108 68.7546 141.328 62.9146C141.378 62.8787 141.435 62.8532 141.495 62.8394C141.555 62.8256 141.617 62.8239 141.678 62.8343C141.738 62.8448 141.797 62.8672 141.849 62.9004C141.901 62.9335 141.946 62.9766 141.981 63.0272C142.053 63.1284 142.082 63.254 142.061 63.3765C142.041 63.499 141.972 63.6084 141.871 63.6806C133.726 69.4658 126.489 76.4332 120.397 84.3531C116.571 89.3211 113.212 94.6328 110.365 100.22C110.325 100.296 110.264 100.36 110.19 100.404C110.117 100.449 110.032 100.471 109.946 100.47Z" fill="black"/>
<path d="M145.35 53.2694C145.268 53.2695 145.188 53.2485 145.118 53.2085C145.047 53.1685 144.988 53.1108 144.946 53.0411C144.914 52.9884 144.893 52.9299 144.884 52.8689C144.875 52.808 144.878 52.7459 144.893 52.686C144.907 52.6262 144.934 52.5699 144.97 52.5203C145.007 52.4707 145.053 52.4289 145.106 52.3971C146.356 51.6404 147.647 50.8995 148.931 50.2085C149.039 50.1529 149.164 50.1411 149.281 50.1755C149.397 50.2098 149.496 50.2877 149.556 50.393C149.612 50.5013 149.623 50.6268 149.588 50.7433C149.553 50.8598 149.475 50.9583 149.369 51.0183C148.097 51.7186 146.822 52.4534 145.578 53.2068C145.508 53.2474 145.43 53.2689 145.35 53.2694Z" fill="black"/>
<path d="M113.68 82.696C113.584 82.6962 113.489 82.6656 113.411 82.6085C113.361 82.5732 113.318 82.5283 113.285 82.4762C113.252 82.4242 113.229 82.3661 113.219 82.3053C113.208 82.2445 113.21 82.1822 113.224 82.1221C113.237 82.062 113.263 82.0052 113.299 81.955C114.096 80.8357 114.924 79.7164 115.762 78.6284C123.827 68.1359 133.779 59.2409 145.106 52.4002C145.213 52.3367 145.34 52.3179 145.46 52.3477C145.581 52.3775 145.685 52.4537 145.75 52.5596C145.782 52.6124 145.803 52.6709 145.812 52.7318C145.821 52.7928 145.818 52.8549 145.803 52.9147C145.789 52.9745 145.762 53.0309 145.726 53.0804C145.689 53.13 145.643 53.1719 145.59 53.2037C134.363 59.9836 124.499 68.8002 116.506 79.2006C115.674 80.2792 114.852 81.3891 114.065 82.499C114.021 82.5601 113.963 82.6098 113.896 82.6441C113.829 82.6784 113.755 82.6962 113.68 82.696Z" fill="black"/>
<path d="M284.362 87.4486L204.516 77.3483C204.093 77.2776 203.708 77.0592 203.431 76.7318C203.154 76.4045 203.002 75.9895 203.002 75.5606V67.899C202.991 67.7022 203.024 67.5054 203.098 67.3227C203.172 67.1399 203.285 66.9756 203.429 66.8415C203.574 66.7075 203.746 66.6068 203.934 66.5468C204.121 66.4868 204.32 66.4689 204.516 66.4944L284.362 76.5915C284.784 76.6634 285.168 76.8822 285.444 77.2093C285.721 77.5364 285.874 77.9507 285.875 78.3792V86.044C285.886 86.2408 285.853 86.4376 285.779 86.6203C285.706 86.8031 285.592 86.9674 285.448 87.1014C285.303 87.2355 285.131 87.3361 284.943 87.3961C284.756 87.4561 284.557 87.474 284.362 87.4486Z" fill="#E6F6FD"/>
<path d="M284.966 109.237L204.516 99.0625C204.178 99.0045 203.871 98.8291 203.649 98.567C203.427 98.3049 203.305 97.973 203.304 97.6298V89.3297C203.296 89.1722 203.322 89.0147 203.381 88.8684C203.44 88.7221 203.531 88.5906 203.646 88.4833C203.762 88.376 203.9 88.2954 204.05 88.2474C204.2 88.1994 204.359 88.185 204.516 88.2054L284.966 98.3804C285.304 98.4377 285.611 98.6125 285.833 98.8741C286.054 99.1356 286.176 99.4671 286.178 99.8099V108.11C286.187 108.268 286.161 108.426 286.102 108.572C286.043 108.719 285.953 108.851 285.837 108.959C285.721 109.066 285.583 109.147 285.433 109.195C285.282 109.243 285.123 109.258 284.966 109.237Z" fill="#E6F6FD"/>
<path d="M272.418 130.319L216.46 123.243C215.996 123.163 215.575 122.922 215.272 122.563C214.968 122.204 214.801 121.749 214.8 121.278V113.931C214.786 113.714 214.821 113.497 214.901 113.294C214.981 113.092 215.105 112.91 215.263 112.761C215.422 112.613 215.611 112.501 215.818 112.434C216.025 112.367 216.244 112.346 216.46 112.374L272.418 119.478C272.882 119.557 273.303 119.797 273.607 120.157C273.911 120.517 274.078 120.972 274.078 121.443V128.787C274.089 129.002 274.052 129.217 273.971 129.417C273.889 129.617 273.765 129.796 273.607 129.942C273.448 130.088 273.26 130.198 273.054 130.263C272.849 130.328 272.631 130.347 272.418 130.319Z" fill="#F1C40F"/>
<path d="M257.024 57.5842C264.056 51.6081 264.288 40.3289 257.542 32.3914C250.796 24.4539 239.627 22.8639 232.596 28.84C225.564 34.816 225.332 46.0953 232.078 54.0328C238.823 61.9703 249.992 63.5603 257.024 57.5842Z" fill="#52A5D8"/>
<path d="M248.768 45.7346C251.223 43.6482 251.304 39.7108 248.95 36.94C246.595 34.1692 242.696 33.6143 240.241 35.7007C237.786 37.787 237.705 41.7245 240.06 44.4953C242.414 47.2661 246.313 47.8209 248.768 45.7346Z" fill="white"/>
<path d="M231.896 53.8122C234.001 51.7192 236.567 49.6699 239.286 48.4459C239.628 48.2986 239.997 48.2253 240.369 48.2306C240.741 48.236 241.107 48.32 241.444 48.4771C244.219 49.6948 246.375 49.5547 248.773 48.9473C249.075 48.8763 249.389 48.8672 249.695 48.9208C250.002 48.9743 250.294 49.0893 250.554 49.2588C253.581 51.1071 256.161 53.6023 258.11 56.5654C250.324 64.3858 237.866 61.6077 231.896 53.8122Z" fill="white"/>
<path d="M244.811 61.832C234.667 60.6049 226.417 51.2428 226.417 40.965C226.417 30.6872 234.667 23.3464 244.811 24.5766C254.955 25.8068 263.205 35.1658 263.205 45.4436C263.205 55.7214 254.952 63.0622 244.811 61.832ZM244.811 26.1089C235.496 24.9784 227.915 31.7337 227.915 41.1643C227.915 50.595 235.496 59.1878 244.811 60.3152C254.127 61.4427 261.704 54.6936 261.704 45.263C261.704 35.8323 254.127 27.2395 244.811 26.1089Z" fill="#E6F6FD"/>
</g>
</g>
<defs>
<filter id="filter0_f_2034_53710" x="126" y="-7" width="277" height="259" filterUnits="userSpaceOnUse" color-interpolation-filters="sRGB">
<feFlood flood-opacity="0" result="BackgroundImageFix"/>
<feBlend mode="normal" in="SourceGraphic" in2="BackgroundImageFix" result="shape"/>
<feGaussianBlur stdDeviation="20" result="effect1_foregroundBlur_2034_53710"/>
</filter>
<filter id="filter1_f_2034_53710" x="-22" y="2" width="278" height="278" filterUnits="userSpaceOnUse" color-interpolation-filters="sRGB">
<feFlood flood-opacity="0" result="BackgroundImageFix"/>
<feBlend mode="normal" in="SourceGraphic" in2="BackgroundImageFix" result="shape"/>
<feGaussianBlur stdDeviation="30" result="effect1_foregroundBlur_2034_53710"/>
</filter>
<clipPath id="clip0_2034_53710">
<rect width="400" height="260" fill="white"/>
</clipPath>
<clipPath id="clip1_2034_53710">
<rect width="260" height="260" fill="white" transform="translate(70)"/>
</clipPath>
</defs>
</svg>
