<svg width="400" height="260" viewBox="0 0 400 260" fill="none" xmlns="http://www.w3.org/2000/svg">
<g clip-path="url(#clip0_1636_48469)">
<path d="M137.833 250.307C149.379 255.497 187.704 262.313 215.2 259.226C250.469 255.263 278.288 235.64 293.917 216.553C345.777 153.219 312.274 37.2794 263.423 21.9239C254.56 19.1409 246.014 19.922 235.494 20.8853C202.043 23.9518 192.099 40.0942 156.572 50.9542C124.246 60.8335 120.609 51.0931 106.238 60.333C75.0653 80.3751 76.5166 136.39 85.9323 177.843C89.7425 194.581 95.5764 231.307 137.833 250.307Z" fill="#E5F6FF"/>
<g filter="url(#filter0_f_1636_48469)">
<ellipse cx="262.5" cy="118.5" rx="98.5" ry="89.5" fill="#B5E0FF" fill-opacity="0.6"/>
</g>
<g filter="url(#filter1_f_1636_48469)">
<circle cx="133" cy="158" r="79" fill="#FFE7C3" fill-opacity="0.6"/>
</g>
<path d="M129.883 93.7865C129.768 93.7865 129.658 93.7407 129.576 93.6594C129.495 93.578 129.449 93.4676 129.449 93.3525C129.449 93.2374 129.495 93.1271 129.576 93.0457C129.658 92.9643 129.768 92.9186 129.883 92.9186L131.415 92.8781C131.472 92.8766 131.529 92.8863 131.582 92.9067C131.635 92.9271 131.684 92.9578 131.725 92.997C131.766 93.0362 131.8 93.0832 131.823 93.1353C131.846 93.1873 131.859 93.2435 131.86 93.3005C131.862 93.3574 131.852 93.4142 131.832 93.4674C131.811 93.5206 131.781 93.5693 131.741 93.6107C131.702 93.652 131.655 93.6853 131.603 93.7085C131.551 93.7317 131.495 93.7444 131.438 93.746L129.906 93.7865H129.883Z" fill="black"/>
<path d="M135.68 93.6418C135.565 93.6418 135.454 93.5961 135.373 93.5147C135.292 93.4333 135.246 93.3229 135.246 93.2078C135.246 93.0928 135.292 92.9824 135.373 92.901C135.454 92.8196 135.565 92.7739 135.68 92.7739L137.215 92.7334C137.33 92.7334 137.44 92.7791 137.521 92.8605C137.603 92.9419 137.648 93.0522 137.648 93.1673C137.648 93.2824 137.603 93.3928 137.521 93.4742C137.44 93.5556 137.33 93.6013 137.215 93.6013L135.68 93.6418Z" fill="black"/>
<path d="M133.644 97.368C133.531 97.3681 133.423 97.3239 133.342 97.245C133.261 97.1662 133.214 97.0587 133.211 96.9457L133.17 95.4095C133.167 95.2944 133.21 95.1828 133.289 95.0993C133.368 95.0158 133.477 94.9671 133.592 94.964C133.707 94.961 133.819 95.0037 133.902 95.0829C133.986 95.1621 134.034 95.2713 134.037 95.3864L134.078 96.9225C134.079 96.9795 134.07 97.0362 134.049 97.0895C134.029 97.1427 133.998 97.1914 133.959 97.2328C133.92 97.2742 133.873 97.3074 133.821 97.3306C133.769 97.3538 133.713 97.3665 133.656 97.368H133.644Z" fill="black"/>
<path d="M133.492 91.5677C133.379 91.5678 133.27 91.5237 133.189 91.4448C133.108 91.3659 133.061 91.2584 133.058 91.1454L133.018 89.6092C133.015 89.4942 133.057 89.3826 133.137 89.299C133.216 89.2155 133.325 89.1668 133.44 89.1637C133.555 89.1607 133.666 89.2034 133.75 89.2826C133.833 89.3619 133.882 89.471 133.885 89.5861L133.925 91.1222C133.927 91.1792 133.917 91.236 133.897 91.2892C133.877 91.3424 133.846 91.3911 133.807 91.4325C133.768 91.4739 133.721 91.5071 133.669 91.5303C133.616 91.5535 133.56 91.5662 133.503 91.5677H133.492Z" fill="black"/>
<path d="M227.11 178.618L182.573 178.907C182.284 178.907 182.191 179.176 182.191 179.434V217.343C182.191 220.97 156.887 230.404 156.641 229.924L156.609 233.936C156.623 234.321 156.787 234.684 157.066 234.948C157.345 235.212 157.717 235.356 158.101 235.348H196.01C197.733 235.333 199.437 234.977 201.023 234.301L221.548 225.651C225.246 224.095 227.576 220.75 227.576 217.1V179.145C227.583 179.013 227.538 178.884 227.451 178.786C227.364 178.687 227.241 178.627 227.11 178.618Z" fill="#52A5D8"/>
<path d="M177.682 176.692V214.615C177.682 218.353 175.277 221.76 171.498 223.375L157.651 229.291C156.746 229.675 157.052 230.888 158.056 230.888H196.109C197.808 230.891 199.491 230.555 201.058 229.898L216.4 223.433C220.205 221.83 222.633 218.41 222.633 214.653V176.692C222.633 176.652 222.625 176.612 222.609 176.575C222.593 176.538 222.569 176.505 222.539 176.477C222.51 176.45 222.475 176.43 222.437 176.417C222.398 176.404 222.358 176.399 222.318 176.403H177.997C177.957 176.399 177.917 176.404 177.879 176.417C177.84 176.43 177.805 176.45 177.776 176.477C177.746 176.505 177.722 176.538 177.706 176.575C177.69 176.612 177.682 176.652 177.682 176.692Z" fill="white"/>
<path d="M94.7207 198.18L277.843 198.579H281.023H286.935C287.747 198.564 288.525 198.256 289.128 197.712C289.73 197.167 290.114 196.423 290.211 195.617L305.533 75.8762C305.906 72.9631 303.784 70.2119 300.852 70.2119L111.124 70.3826L94.7207 198.18Z" fill="#52A5D8"/>
<path d="M293.723 70.1836C297.028 70.1836 299.713 73.5133 299.291 76.7968L283.868 195.617C283.766 196.424 283.372 197.166 282.763 197.704C282.153 198.242 281.368 198.539 280.555 198.539L279.11 198.594L92.1798 198.539C91.7047 198.538 91.2353 198.436 90.8029 198.239C90.3704 198.043 89.9847 197.756 89.6715 197.398C89.3584 197.041 89.1249 196.621 88.9866 196.166C88.8483 195.711 88.8085 195.232 88.8697 194.761L104.602 73.5365C104.816 71.8673 106.1 70.1981 107.782 70.1981L293.723 70.1836Z" fill="#A2D2EC"/>
<path d="M100.327 106.898H100.272C100.215 106.891 100.161 106.872 100.111 106.844C100.062 106.816 100.018 106.778 99.9833 106.733C99.9484 106.688 99.9227 106.636 99.9077 106.581C99.8928 106.526 99.8888 106.468 99.8961 106.412L103.154 81.3128C103.162 81.2558 103.18 81.2009 103.209 81.1511C103.237 81.1012 103.276 81.0576 103.321 81.0225C103.367 80.9874 103.419 80.9617 103.474 80.9467C103.529 80.9318 103.587 80.9279 103.644 80.9353C103.701 80.9427 103.756 80.9613 103.806 80.9899C103.856 81.0186 103.899 81.0567 103.934 81.1023C103.969 81.1478 103.995 81.1998 104.01 81.2553C104.025 81.3108 104.029 81.3686 104.021 81.4256L100.763 106.516C100.751 106.622 100.699 106.72 100.618 106.791C100.538 106.861 100.434 106.899 100.327 106.898Z" fill="black"/>
<path d="M104.425 198.981H92.1789C91.642 198.981 91.1115 198.866 90.6226 198.644C90.1337 198.422 89.6977 198.099 89.3436 197.695C88.9896 197.291 88.7257 196.816 88.5696 196.302C88.4134 195.788 88.3685 195.247 88.438 194.714L92.0372 166.977C92.0444 166.92 92.0627 166.865 92.0912 166.815C92.1197 166.765 92.1577 166.722 92.203 166.686C92.2484 166.651 92.3003 166.625 92.3556 166.61C92.411 166.595 92.4688 166.591 92.5258 166.598C92.5827 166.605 92.6377 166.624 92.6875 166.652C92.7374 166.681 92.7811 166.719 92.8163 166.764C92.8515 166.81 92.8774 166.861 92.8925 166.917C92.9076 166.972 92.9117 167.03 92.9045 167.087L89.3053 194.824C89.2523 195.235 89.2875 195.653 89.4085 196.05C89.5295 196.446 89.7336 196.812 90.0072 197.123C90.2808 197.435 90.6175 197.684 90.995 197.855C91.3724 198.025 91.782 198.114 92.1962 198.114H104.442C104.557 198.114 104.667 198.159 104.749 198.241C104.83 198.322 104.876 198.432 104.876 198.547C104.876 198.663 104.83 198.773 104.749 198.854C104.667 198.936 104.557 198.981 104.442 198.981H104.425Z" fill="black"/>
<path d="M241.067 199.022L179.008 199.002C178.893 199.002 178.783 198.956 178.701 198.875C178.62 198.793 178.574 198.683 178.574 198.568C178.574 198.453 178.62 198.342 178.701 198.261C178.783 198.18 178.893 198.134 179.008 198.134L241.064 198.154C241.179 198.154 241.29 198.2 241.371 198.281C241.452 198.363 241.498 198.473 241.498 198.588C241.498 198.703 241.452 198.813 241.371 198.895C241.29 198.976 241.179 199.022 241.064 199.022H241.067Z" fill="black"/>
<path d="M285.462 183.787H285.407C285.35 183.78 285.296 183.762 285.246 183.734C285.197 183.705 285.153 183.668 285.118 183.622C285.083 183.577 285.058 183.526 285.043 183.471C285.028 183.416 285.024 183.358 285.031 183.301L298.861 76.744C298.945 75.963 298.863 75.1732 298.622 74.4257C298.381 73.6782 297.986 72.9896 297.462 72.4047C297.001 71.8582 296.43 71.4159 295.785 71.1072C295.141 70.7985 294.438 70.6304 293.724 70.614H274.604C274.489 70.614 274.378 70.5683 274.297 70.4869C274.216 70.4055 274.17 70.2951 274.17 70.18C274.17 70.0649 274.216 69.9546 274.297 69.8732C274.378 69.7918 274.489 69.7461 274.604 69.7461H293.724C294.562 69.7624 295.387 69.9569 296.144 70.3165C296.901 70.6761 297.573 71.1926 298.115 71.8319C298.723 72.5068 299.181 73.3033 299.457 74.1687C299.734 75.0341 299.824 75.9484 299.72 76.8511L285.893 183.408C285.879 183.513 285.827 183.609 285.748 183.679C285.669 183.748 285.567 183.787 285.462 183.787Z" fill="black"/>
<path d="M274.963 215.416C271.924 209.983 272.303 207.434 273.167 206.112C274.711 203.76 278.163 204.753 279.692 202.195C281.265 199.566 278.414 197.179 279.475 193.806C280.73 189.819 286.954 186.062 290.947 188.309C294.364 190.242 295.263 196.071 293.23 199.083C290.975 202.427 286.003 200.966 284.61 204.082C283.32 206.946 286.862 209.659 285.728 212.303C285.078 213.842 282.809 215.514 274.963 215.416Z" fill="white"/>
<path d="M274.389 218.069C274.34 218.068 274.292 218.059 274.247 218.043C274.194 218.024 274.144 217.995 274.102 217.958C274.059 217.92 274.025 217.874 274 217.823C273.975 217.772 273.961 217.717 273.958 217.66C273.954 217.603 273.962 217.547 273.981 217.493C279.558 201.365 286.863 196.146 287.172 195.932C287.267 195.867 287.384 195.841 287.497 195.862C287.611 195.883 287.711 195.947 287.777 196.042C287.842 196.137 287.867 196.254 287.847 196.367C287.826 196.481 287.761 196.581 287.667 196.647C287.595 196.696 280.275 201.949 274.799 217.765C274.772 217.853 274.718 217.93 274.644 217.984C274.57 218.039 274.481 218.069 274.389 218.069Z" fill="#A2D2EC"/>
<path d="M270.249 213.553C270.217 208.476 271.669 205.386 273.001 203.503C275.435 200.063 278.13 199.71 279.072 196.389C279.94 193.253 277.896 192.302 278.584 188.769C279.402 184.563 282.631 184.274 283.461 180.808C284.472 176.593 280.31 174.461 278.219 168.539C275.514 160.882 279.997 157.419 278.971 150.268C277.309 138.661 262.652 127.963 256.384 130.885C250.475 133.633 250.045 149.4 254.82 160.867C259.911 173.081 267.798 172.905 268.945 183.117C269.737 190.172 266.424 194.306 268.13 205.152C268.576 208.012 269.285 210.824 270.249 213.553Z" fill="#52A5D8"/>
<path d="M271.801 218.3C271.718 218.3 271.636 218.276 271.567 218.231C271.497 218.185 271.442 218.121 271.407 218.046C268.355 211.392 269.592 204.079 271.159 194.839C271.98 189.987 272.911 184.491 273.272 178.439C274.275 161.579 260.199 141.181 260.058 140.976C260.022 140.929 259.995 140.876 259.981 140.819C259.966 140.762 259.963 140.702 259.972 140.644C259.981 140.586 260.001 140.53 260.032 140.48C260.064 140.43 260.105 140.387 260.153 140.354C260.201 140.32 260.256 140.296 260.314 140.285C260.371 140.273 260.431 140.273 260.488 140.285C260.546 140.297 260.6 140.32 260.649 140.354C260.697 140.388 260.738 140.431 260.769 140.481C260.913 140.686 275.16 161.333 274.139 178.491C273.775 184.589 272.838 190.112 272.015 194.98C270.471 204.073 269.254 211.256 272.194 217.681C272.219 217.733 272.233 217.789 272.235 217.846C272.238 217.904 272.229 217.961 272.21 218.015C272.19 218.069 272.16 218.118 272.121 218.16C272.082 218.202 272.035 218.236 271.983 218.26C271.925 218.285 271.863 218.299 271.801 218.3Z" fill="#A2D2EC"/>
<path d="M266.509 214.78C265.552 210.27 265.163 205.659 265.352 201.053C265.743 191.7 268.336 187.72 265.728 184.222C262.855 180.369 258.015 182.949 254.587 178.367C252.251 175.239 253.43 172.598 250.213 169.659C249.6 169.098 247.611 167.322 244.801 167.105C242.199 166.902 241.274 168.227 237.946 169.387C231.922 171.49 229.236 169.135 227.022 171.346C225.059 173.307 224.668 177.644 226.539 180.024C230.063 184.532 239.38 179.281 242.878 183.557C245.865 187.207 240.716 193.054 243.986 197.121C246.929 200.787 252.823 198.18 255.24 202.019C257.087 204.953 254.5 207.843 256.211 210.9C257.995 214.106 262.91 214.71 266.509 214.78Z" fill="white"/>
<path d="M268.751 218.162C268.655 218.161 268.561 218.128 268.485 218.069C265.406 215.688 264.348 211.745 262.741 205.771C261.532 201.273 260.029 195.675 257.121 188.819C250.608 173.466 232.837 175.222 232.67 175.248C232.613 175.255 232.555 175.249 232.5 175.233C232.445 175.217 232.394 175.191 232.349 175.155C232.304 175.119 232.267 175.075 232.239 175.024C232.212 174.974 232.194 174.919 232.188 174.862C232.182 174.805 232.187 174.747 232.203 174.692C232.219 174.637 232.246 174.586 232.281 174.541C232.317 174.496 232.362 174.459 232.412 174.432C232.462 174.404 232.517 174.387 232.574 174.38C235.97 174.128 239.384 174.463 242.666 175.373C247.673 176.75 254.383 180.137 257.919 188.475C260.85 195.386 262.365 201.015 263.579 205.543C265.137 211.346 266.181 215.179 269.017 217.381C269.107 217.451 269.166 217.555 269.18 217.669C269.194 217.783 269.163 217.897 269.092 217.988C269.053 218.042 269.002 218.086 268.942 218.116C268.883 218.146 268.818 218.162 268.751 218.162Z" fill="#A2D2EC"/>
<path d="M257.52 217.635C258.023 217.858 284.009 217.635 284.009 217.635L280.765 244.172C280.686 244.89 280.516 245.594 280.26 246.269C279.623 247.883 278.517 249.268 277.083 250.243C275.65 251.219 273.956 251.741 272.223 251.74C270.269 251.74 268.373 251.076 266.845 249.858C265.317 248.64 264.247 246.939 263.81 245.034L257.52 217.635Z" fill="#A2D2EC"/>
<path d="M262.313 37.0854C262.198 37.085 262.088 37.0393 262.007 36.9581C261.966 36.918 261.934 36.8703 261.912 36.8177C261.89 36.765 261.879 36.7085 261.879 36.6515C261.879 36.5944 261.89 36.538 261.912 36.4853C261.934 36.4327 261.966 36.3849 262.007 36.3448L263.016 35.3352C263.098 35.2586 263.207 35.2168 263.319 35.2188C263.431 35.2208 263.539 35.2663 263.618 35.3458C263.698 35.4254 263.743 35.5326 263.745 35.645C263.747 35.7574 263.705 35.8663 263.629 35.9485L262.62 36.9581C262.538 37.0393 262.428 37.085 262.313 37.0854Z" fill="black"/>
<path d="M266.124 33.27C266.009 33.2696 265.899 33.2238 265.817 33.1427C265.777 33.1026 265.745 33.0549 265.723 33.0022C265.701 32.9496 265.689 32.8931 265.689 32.8361C265.689 32.779 265.701 32.7225 265.723 32.6699C265.745 32.6173 265.777 32.5695 265.817 32.5294L266.826 31.5198C266.909 31.4431 267.017 31.4014 267.13 31.4034C267.242 31.4054 267.349 31.4509 267.429 31.5304C267.508 31.6099 267.554 31.7172 267.556 31.8296C267.558 31.942 267.516 32.0508 267.439 32.1331L266.43 33.1427C266.349 33.2238 266.239 33.2696 266.124 33.27Z" fill="black"/>
<path d="M267.133 37.0854C267.018 37.085 266.908 37.0393 266.827 36.9581L265.818 35.9485C265.741 35.8663 265.699 35.7574 265.701 35.645C265.703 35.5326 265.749 35.4254 265.828 35.3458C265.908 35.2663 266.015 35.2208 266.127 35.2188C266.24 35.2168 266.348 35.2586 266.43 35.3352L267.439 36.3448C267.48 36.3849 267.512 36.4327 267.534 36.4853C267.556 36.538 267.567 36.5944 267.567 36.6515C267.567 36.7085 267.556 36.765 267.534 36.8177C267.512 36.8703 267.48 36.918 267.439 36.9581C267.358 37.0393 267.248 37.085 267.133 37.0854Z" fill="black"/>
<path d="M263.322 33.27C263.265 33.2701 263.209 33.2589 263.156 33.2371C263.104 33.2152 263.056 33.1831 263.016 33.1427L262.007 32.1331C261.93 32.0508 261.889 31.942 261.891 31.8296C261.893 31.7172 261.938 31.6099 262.018 31.5304C262.097 31.4509 262.204 31.4054 262.317 31.4034C262.429 31.4014 262.538 31.4431 262.62 31.5198L263.629 32.5294C263.669 32.5695 263.702 32.6173 263.724 32.6699C263.746 32.7225 263.757 32.779 263.757 32.8361C263.757 32.8931 263.746 32.9496 263.724 33.0022C263.702 33.0549 263.669 33.1026 263.629 33.1427C263.547 33.2238 263.437 33.2696 263.322 33.27Z" fill="black"/>
<path d="M83.831 112.897C83.7161 112.897 83.6059 112.851 83.5245 112.77C83.484 112.73 83.4518 112.682 83.4298 112.63C83.4078 112.577 83.3965 112.52 83.3965 112.463C83.3965 112.406 83.4078 112.35 83.4298 112.297C83.4518 112.245 83.484 112.197 83.5245 112.157L84.5334 111.147C84.5735 111.107 84.6212 111.074 84.6738 111.052C84.7264 111.03 84.7829 111.019 84.8399 111.019C84.8969 111.019 84.9533 111.03 85.0059 111.052C85.0585 111.074 85.1063 111.107 85.1463 111.147C85.2268 111.229 85.2719 111.339 85.2719 111.454C85.2719 111.569 85.2268 111.679 85.1463 111.76L84.1374 112.77C84.056 112.851 83.9459 112.897 83.831 112.897Z" fill="black"/>
<path d="M87.6415 109.084C87.5266 109.084 87.4165 109.038 87.3351 108.957C87.2945 108.917 87.2623 108.869 87.2403 108.817C87.2183 108.764 87.207 108.708 87.207 108.651C87.207 108.593 87.2183 108.537 87.2403 108.484C87.2623 108.432 87.2945 108.384 87.3351 108.344L88.344 107.334C88.4262 107.258 88.5349 107.216 88.6472 107.218C88.7596 107.22 88.8668 107.265 88.9462 107.345C89.0257 107.424 89.0712 107.532 89.0732 107.644C89.0752 107.756 89.0335 107.865 88.9569 107.948L87.9479 108.957C87.8665 109.038 87.7564 109.084 87.6415 109.084Z" fill="black"/>
<path d="M88.6505 112.897C88.5935 112.897 88.5371 112.886 88.4845 112.864C88.4319 112.842 88.3842 112.81 88.3441 112.77L87.3351 111.76C87.2585 111.678 87.2168 111.569 87.2188 111.457C87.2208 111.344 87.2663 111.237 87.3458 111.157C87.4252 111.078 87.5324 111.032 87.6447 111.03C87.7571 111.028 87.8658 111.07 87.948 111.147L88.9569 112.156C88.9975 112.196 89.0297 112.244 89.0517 112.297C89.0736 112.349 89.085 112.406 89.085 112.463C89.085 112.52 89.0736 112.577 89.0517 112.629C89.0297 112.682 88.9975 112.73 88.9569 112.77C88.8755 112.851 88.7654 112.897 88.6505 112.897Z" fill="black"/>
<path d="M84.8401 109.084C84.7832 109.084 84.7267 109.073 84.6742 109.051C84.6216 109.029 84.5738 108.997 84.5337 108.957L83.5247 107.947C83.4821 107.907 83.448 107.86 83.4243 107.806C83.4006 107.753 83.3878 107.696 83.3868 107.637C83.3858 107.579 83.3965 107.521 83.4183 107.467C83.4401 107.413 83.4725 107.364 83.5137 107.323C83.5549 107.282 83.604 107.249 83.658 107.227C83.7119 107.206 83.7698 107.195 83.828 107.196C83.8862 107.197 83.9436 107.21 83.9968 107.233C84.05 107.257 84.0979 107.291 84.1376 107.334L85.1465 108.344C85.2071 108.404 85.2483 108.482 85.265 108.566C85.2817 108.65 85.2732 108.737 85.2404 108.816C85.2076 108.895 85.1521 108.963 85.0808 109.011C85.0096 109.059 84.9258 109.084 84.8401 109.084Z" fill="black"/>
<path d="M253.283 29.1211C252.842 29.1211 252.412 28.9904 252.046 28.7455C251.68 28.5006 251.394 28.1525 251.226 27.7453C251.057 27.3381 251.013 26.8901 251.1 26.4579C251.186 26.0257 251.398 25.6288 251.71 25.3174C252.021 25.006 252.418 24.7941 252.85 24.7085C253.282 24.6228 253.73 24.6674 254.137 24.8364C254.543 25.0054 254.891 25.2914 255.135 25.6581C255.379 26.0248 255.509 26.4558 255.509 26.8964C255.508 27.4867 255.273 28.0526 254.856 28.4697C254.438 28.8868 253.873 29.1211 253.283 29.1211ZM253.283 25.5368C253.014 25.5368 252.751 25.6165 252.528 25.7659C252.304 25.9153 252.13 26.1277 252.027 26.3761C251.925 26.6246 251.898 26.898 251.95 27.1617C252.002 27.4255 252.132 27.6677 252.322 27.8579C252.512 28.048 252.754 28.1775 253.018 28.23C253.281 28.2825 253.554 28.2555 253.803 28.1526C254.051 28.0497 254.263 27.8754 254.412 27.6518C254.562 27.4282 254.641 27.1654 254.641 26.8964C254.641 26.5358 254.498 26.19 254.243 25.935C253.989 25.68 253.643 25.5368 253.283 25.5368Z" fill="black"/>
<path d="M83.7875 134.701C83.3471 134.701 82.9164 134.571 82.55 134.327C82.1835 134.082 81.8978 133.735 81.7289 133.328C81.5599 132.921 81.5155 132.473 81.601 132.04C81.6866 131.608 81.8984 131.211 82.2095 130.899C82.5207 130.587 82.9174 130.375 83.3493 130.289C83.7811 130.202 84.2289 130.246 84.6358 130.415C85.0427 130.583 85.3905 130.869 85.6352 131.235C85.88 131.602 86.0106 132.032 86.0106 132.473C86.0098 133.063 85.7755 133.629 85.3588 134.046C84.9421 134.464 84.3771 134.699 83.7875 134.701ZM83.7875 131.116C83.5185 131.116 83.2554 131.195 83.0315 131.344C82.8076 131.493 82.633 131.706 82.5298 131.954C82.4266 132.203 82.3995 132.477 82.4518 132.741C82.5041 133.005 82.6336 133.247 82.8238 133.437C83.014 133.628 83.2564 133.757 83.5202 133.81C83.7841 133.862 84.0575 133.835 84.3059 133.732C84.5543 133.628 84.7665 133.454 84.9156 133.23C85.0646 133.006 85.1439 132.742 85.1433 132.473C85.1445 132.294 85.1103 132.117 85.0427 131.951C84.9751 131.785 84.8754 131.634 84.7494 131.507C84.6235 131.38 84.4737 131.279 84.3086 131.21C84.1435 131.141 83.9664 131.105 83.7875 131.105V131.116Z" fill="black"/>
<path d="M309.905 134.926C309.334 134.925 308.787 134.705 308.374 134.312C307.961 133.918 307.714 133.381 307.684 132.812C307.663 132.372 307.772 131.936 307.997 131.559C308.223 131.182 308.556 130.88 308.953 130.691C309.35 130.503 309.794 130.437 310.229 130.501C310.664 130.565 311.07 130.757 311.396 131.052C311.722 131.347 311.953 131.732 312.061 132.159C312.168 132.585 312.146 133.034 311.999 133.449C311.851 133.863 311.584 134.224 311.232 134.487C310.879 134.749 310.456 134.901 310.017 134.923L309.905 134.926ZM309.905 131.342H309.835C309.475 131.36 309.137 131.52 308.896 131.788C308.776 131.92 308.683 132.075 308.624 132.243C308.564 132.411 308.539 132.59 308.549 132.768C308.562 133.033 308.653 133.288 308.81 133.502C308.967 133.716 309.183 133.879 309.432 133.971C309.681 134.063 309.951 134.08 310.209 134.021C310.467 133.961 310.702 133.826 310.885 133.634C311.068 133.442 311.19 133.2 311.237 132.939C311.284 132.678 311.254 132.409 311.149 132.165C311.045 131.921 310.871 131.713 310.65 131.567C310.429 131.421 310.17 131.342 309.905 131.342Z" fill="black"/>
<path d="M305.886 190.537C305.811 190.537 305.738 190.517 305.674 190.48C305.609 190.443 305.555 190.39 305.516 190.326C305.478 190.263 305.456 190.19 305.453 190.116C305.451 190.041 305.467 189.967 305.501 189.901C310.627 180.114 313.967 169.491 315.365 158.53C315.38 158.415 315.44 158.311 315.532 158.24C315.624 158.169 315.74 158.138 315.855 158.153C315.97 158.168 316.075 158.228 316.145 158.32C316.216 158.412 316.247 158.528 316.233 158.643C314.822 169.705 311.452 180.426 306.279 190.303C306.242 190.375 306.185 190.434 306.116 190.476C306.046 190.517 305.967 190.538 305.886 190.537Z" fill="black"/>
<path d="M316.327 153.918H316.292C316.235 153.914 316.18 153.898 316.13 153.873C316.079 153.847 316.034 153.811 315.997 153.768C315.96 153.725 315.933 153.674 315.915 153.62C315.898 153.566 315.891 153.509 315.896 153.453C316.012 151.96 316.098 150.438 316.15 148.928C316.155 148.813 316.204 148.704 316.289 148.626C316.33 148.587 316.379 148.557 316.433 148.537C316.486 148.517 316.543 148.508 316.6 148.51C316.657 148.512 316.713 148.525 316.765 148.549C316.817 148.573 316.863 148.607 316.902 148.648C316.941 148.69 316.971 148.739 316.991 148.793C317.011 148.846 317.02 148.903 317.018 148.96C316.966 150.479 316.879 152.015 316.76 153.519C316.752 153.628 316.702 153.73 316.622 153.804C316.541 153.878 316.436 153.919 316.327 153.918Z" fill="black"/>
<path d="M304.518 182.107C304.447 182.108 304.376 182.091 304.313 182.058C304.25 182.024 304.196 181.976 304.156 181.916C304.116 181.857 304.092 181.788 304.086 181.717C304.079 181.645 304.091 181.574 304.119 181.508C309.248 169.239 311.419 155.972 310.581 142.072C310.574 141.958 310.613 141.846 310.689 141.76C310.765 141.674 310.871 141.622 310.985 141.615C311.042 141.61 311.1 141.617 311.154 141.635C311.208 141.653 311.258 141.682 311.301 141.719C311.344 141.757 311.379 141.803 311.404 141.855C311.429 141.906 311.443 141.963 311.445 142.02C312.295 156.053 310.098 169.45 304.92 181.841C304.887 181.92 304.831 181.987 304.76 182.035C304.688 182.082 304.604 182.107 304.518 182.107Z" fill="black"/>
<path d="M196.242 63.9497C196.242 55.5979 192.42 43.1613 174.017 43.9163C175.055 33.3398 164.983 18.8059 143.04 20.1337C132.448 20.7759 130.277 28.2107 129.126 27.8404C114.357 23.0555 94.7881 33.8143 98.8036 50.8217C90.5962 51.6317 85.3377 58.2246 85.5285 66.4608C85.6528 71.8126 89.0525 75.9292 94.5626 75.9292H183.857C190.507 75.9292 196.069 70.8204 196.236 64.3576C196.242 64.2187 196.242 64.0857 196.242 63.9497Z" fill="#52A5D8"/>
<path d="M198.835 65.4037C198.835 57.266 193.446 41.3 175.418 42.0348C171.507 25.9907 163.236 21.2984 148.515 21.1798C134.141 21.0612 131.496 30.4892 130.389 30.0813C114.923 24.3852 98.5889 37.0677 101.714 52.024C93.6801 52.8138 89.416 59.5803 89.416 67.5589V67.666C89.4536 72.8732 93.8738 77.0766 99.2683 77.0766H186.698C193.22 77.0766 198.655 72.095 198.823 65.7943C198.832 65.6641 198.835 65.5339 198.835 65.4037Z" fill="#E5F6FF"/>
<path d="M186.704 77.5108H99.2742C93.6427 77.5108 89.0259 73.0962 88.9883 67.6749V67.565C88.9883 58.8082 93.767 52.6144 101.205 51.654C99.9969 45.0784 102.454 38.4247 107.831 33.7729C110.895 31.1355 114.606 29.3629 118.583 28.6378C122.559 27.9127 126.656 28.2613 130.453 29.6476C130.742 29.3561 131.006 29.0406 131.242 28.7046C133.058 26.3179 137.293 20.752 148.261 20.752H148.527C156.465 20.8156 162.114 22.2563 166.28 25.2909C170.781 28.557 173.796 33.744 175.762 41.5954C182.238 41.4073 187.615 43.3311 191.763 47.306C197.302 52.626 199.28 60.3848 199.28 65.4098C199.28 65.5457 199.28 65.6788 199.28 65.8119C199.092 72.2602 193.458 77.5108 186.704 77.5108ZM122.647 29.1327C117.418 29.1259 112.361 31.003 108.401 34.4209C103.136 38.9744 100.798 45.521 102.145 51.9346C102.158 51.994 102.158 52.0556 102.145 52.1151C102.132 52.1746 102.107 52.2305 102.07 52.2789C102.034 52.3284 101.988 52.3698 101.936 52.4003C101.883 52.4307 101.824 52.4495 101.763 52.4553C94.5359 53.167 89.8556 59.0946 89.8556 67.5592V67.6662C89.8902 72.6131 94.1168 76.6343 99.2742 76.6343H186.704C192.992 76.6343 198.236 71.7626 198.395 65.7743C198.395 65.6499 198.395 65.5226 198.395 65.3953C198.395 60.541 196.499 53.0484 191.168 47.9164C187.121 44.0341 181.839 42.2 175.447 42.4603C175.348 42.4639 175.25 42.4331 175.17 42.373C175.091 42.3129 175.034 42.2273 175.011 42.1305C171.391 27.2928 164.213 21.7327 148.524 21.5909H148.27C137.726 21.5909 133.676 26.9167 131.939 29.2021C131.213 30.151 130.817 30.6775 130.25 30.4663C127.814 29.5766 125.24 29.1251 122.647 29.1327Z" fill="#52A5D8"/>
<path d="M172.274 51.8827L186.167 45.0583C197.473 39.5045 208.022 32.5261 217.557 24.293L218.239 20.0665C218.239 20.0665 222.952 20.1185 223.958 20.0665C224.616 20.0284 225.275 20.1285 225.892 20.3601C226.509 20.5918 227.071 20.9499 227.542 21.4117C237.895 31.5485 249.681 40.1066 262.523 46.8114L271.617 51.55C273.728 52.6522 274.508 54.5933 273.869 57.385L261.996 107.577C256.827 121.619 236.013 140.409 224.299 150.189C222.245 151.908 219.648 152.841 216.97 152.822C215.814 152.822 211.058 152.967 211.058 152.967C210.429 151.747 209.642 150.616 208.717 149.602C198.188 138.898 179.715 118.292 175.968 102.063L169.753 57.1998C169.512 56.1589 169.63 55.0671 170.088 54.1018C170.545 53.1365 171.316 52.3544 172.274 51.8827Z" fill="#52A5D8"/>
<path d="M167.012 52.1517L180.798 45.3795C192.017 39.8698 202.485 32.9468 211.948 24.779L215.501 21.7126C216.393 20.9407 217.542 20.5327 218.72 20.5697C219.898 20.6067 221.02 21.0859 221.861 21.9122C232.132 31.9701 243.826 40.462 256.567 47.1152L265.581 51.822C266.592 52.3501 267.376 53.2286 267.788 54.2934C268.199 55.3581 268.209 56.5363 267.815 57.6078L256.035 107.409C250.906 121.341 230.034 140.16 218.406 149.866C216.235 151.677 213.463 152.604 210.64 152.464C207.816 152.323 205.149 151.125 203.168 149.108C192.723 138.485 174.392 118.038 170.677 101.936L164.508 57.4226C164.271 56.3903 164.389 55.3081 164.844 54.3514C165.298 53.3947 166.062 52.6196 167.012 52.1517Z" fill="white"/>
<path d="M175.48 58.0648L186.896 52.4584C196.184 47.8922 204.851 42.1563 212.686 35.3902L215.629 32.8502C216.367 32.2126 217.317 31.8757 218.292 31.9062C219.266 31.9367 220.194 32.3325 220.89 33.0151C229.394 41.3443 239.076 48.3752 249.626 53.8817L257.088 57.7784C257.926 58.216 258.577 58.9444 258.917 59.8273C259.258 60.7101 259.265 61.687 258.938 62.5749L249.184 103.822C244.94 115.356 227.655 130.937 218.031 138.974C216.232 140.471 213.936 141.236 211.599 141.118C209.262 141 207.055 140.008 205.415 138.337C196.766 129.543 181.591 112.613 178.512 99.283L173.407 62.4273C173.211 61.5728 173.309 60.6773 173.686 59.8856C174.062 59.0938 174.694 58.4523 175.48 58.0648Z" fill="#E5F6FF"/>
<path d="M211.197 152.892C209.644 152.897 208.105 152.592 206.671 151.996C205.236 151.4 203.935 150.525 202.842 149.42C192.267 138.667 173.97 118.215 170.238 102.043V102.006L168.645 90.4975C168.63 90.3825 168.66 90.2658 168.73 90.1733C168.801 90.0808 168.905 90.02 169.02 90.0043C169.135 89.9886 169.251 90.0192 169.344 90.0895C169.436 90.1597 169.497 90.2638 169.513 90.3789L171.103 101.867C174.797 117.827 192.97 138.126 203.481 148.81C205.393 150.737 207.955 151.879 210.665 152.014C213.376 152.149 216.038 151.266 218.132 149.539C229.953 139.671 250.534 121.067 255.622 107.302L267.396 57.5271L267.411 57.4779C267.767 56.5051 267.758 55.4359 267.386 54.4691C267.014 53.5022 266.304 52.7036 265.387 52.2215L256.359 47.5002C243.58 40.828 231.853 32.3107 221.552 22.222C220.791 21.4643 219.77 21.0241 218.697 20.9903C217.624 20.9564 216.578 21.3315 215.77 22.0398L212.217 25.1062C202.73 33.2954 192.236 40.2377 180.99 45.7645L167.203 52.5368C166.336 52.9579 165.638 53.6617 165.224 54.5324C164.81 55.403 164.704 56.3887 164.925 57.3275C164.926 57.3399 164.926 57.3526 164.925 57.3651L167.57 76.4583C167.586 76.5733 167.555 76.69 167.485 76.7825C167.415 76.875 167.311 76.9358 167.196 76.9515C167.08 76.9672 166.964 76.9366 166.872 76.8663C166.779 76.7961 166.718 76.692 166.703 76.5769L164.06 57.4837C163.801 56.3567 163.931 55.1749 164.429 54.1313C164.927 53.0878 165.764 52.2442 166.804 51.7384L180.591 44.969C191.775 39.475 202.213 32.5724 211.648 24.4293L215.201 21.3628C216.171 20.5155 217.426 20.0672 218.713 20.108C220 20.1488 221.224 20.6757 222.139 21.5827C232.38 31.6108 244.04 40.0774 256.743 46.7105L265.757 51.4172C266.858 51.9938 267.712 52.9496 268.163 54.1079C268.614 55.2662 268.63 56.5486 268.209 57.718L256.434 107.493C256.434 107.511 256.434 107.528 256.434 107.543C251.294 121.533 230.566 140.276 218.678 150.199C216.578 151.947 213.929 152.901 211.197 152.892Z" fill="black"/>
<path d="M224.127 70.0911L223.919 56.882C223.873 54.8225 223.049 52.8569 221.613 51.3808C220.177 49.9046 218.236 49.0277 216.18 48.9266C215.066 48.8787 213.955 49.0602 212.914 49.4599C211.874 49.8596 210.926 50.4689 210.131 51.25C209.335 52.0312 208.709 52.9675 208.29 54.001C207.871 55.0345 207.668 56.1431 207.695 57.2581L207.787 61.3545C207.795 61.693 207.734 62.0295 207.606 62.3432C207.479 62.6569 207.289 62.9411 207.047 63.1784C206.806 63.4156 206.518 63.6008 206.203 63.7225C205.887 63.8441 205.55 63.8997 205.212 63.8858C204.579 63.8607 203.98 63.5937 203.539 63.14C203.097 62.6863 202.847 62.0803 202.838 61.4471L202.78 57.5561C202.722 55.7555 203.037 53.9622 203.706 52.2897C204.375 50.6171 205.383 49.1014 206.667 47.8384C207.951 46.5754 209.482 45.5925 211.165 44.9518C212.848 44.311 214.645 44.0263 216.443 44.1156C222.881 44.3789 228.773 50.0461 228.932 56.9486L229.099 70.2878L224.127 70.0911Z" fill="white"/>
<path d="M229.1 70.7273H229.082L224.11 70.5247C223.999 70.5196 223.894 70.4725 223.817 70.393C223.74 70.3135 223.696 70.2075 223.694 70.0966L223.485 56.8905C223.437 54.9435 222.655 53.0867 221.297 51.692C219.938 50.2972 218.104 49.4675 216.16 49.3689C215.11 49.3178 214.06 49.4853 213.078 49.8608C212.096 50.2362 211.202 50.8115 210.453 51.5502C209.699 52.2925 209.104 53.1817 208.706 54.1629C208.309 55.1441 208.116 56.1964 208.14 57.255L208.233 61.3542C208.24 61.7364 208.172 62.1162 208.032 62.472C207.892 62.8278 207.684 63.1526 207.419 63.4278C207.154 63.703 206.837 63.9233 206.487 64.076C206.137 64.2287 205.76 64.311 205.378 64.318C204.996 64.325 204.617 64.2567 204.261 64.117C203.906 63.9772 203.581 63.7687 203.306 63.5035C203.031 63.2382 202.811 62.9213 202.658 62.5709C202.506 62.2205 202.423 61.8434 202.416 61.4613L202.359 57.5703C202.298 55.7102 202.624 53.8579 203.315 52.1301C204.006 50.4023 205.048 48.8367 206.374 47.5319C207.7 46.2271 209.282 45.2116 211.02 44.5494C212.758 43.8872 214.615 43.5926 216.472 43.6843H216.55C223.352 44.0054 229.218 50.0487 229.377 56.9396L229.545 70.2817C229.546 70.3392 229.535 70.3963 229.513 70.4496C229.492 70.5029 229.46 70.5514 229.42 70.5923C229.38 70.6332 229.331 70.6657 229.278 70.6879C229.226 70.7101 229.169 70.7215 229.111 70.7215L229.1 70.7273ZM224.555 69.6742L228.66 69.842L228.498 56.9599C228.348 50.4971 222.821 44.8097 216.426 44.5551C216.401 44.5581 216.376 44.5581 216.351 44.5551C214.618 44.4788 212.887 44.7618 211.269 45.3862C209.65 46.0107 208.178 46.9631 206.944 48.1838C205.711 49.4045 204.743 50.8672 204.101 52.4799C203.459 54.0927 203.157 55.8208 203.214 57.5558L203.272 61.4497C203.282 61.9914 203.507 62.5069 203.896 62.8829C204.286 63.2588 204.809 63.4644 205.351 63.4545C205.892 63.4445 206.407 63.2198 206.783 62.8297C207.159 62.4396 207.364 61.9161 207.354 61.3745L207.262 57.2752C207.236 56.0972 207.453 54.9264 207.897 53.8353C208.342 52.7442 209.005 51.7557 209.846 50.9311C210.68 50.1065 211.676 49.4646 212.771 49.0463C213.866 48.6279 215.036 48.4422 216.206 48.501C218.372 48.6115 220.417 49.5377 221.929 51.0937C223.441 52.6498 224.309 54.7206 224.359 56.8905L224.555 69.6742Z" fill="black"/>
<path d="M218.612 106.405L213.044 106.625C205.334 106.434 198.52 97.2117 199.251 86.3749L200.408 69.0377L233.179 68.7744C233.882 68.784 234.575 68.9353 235.218 69.2194C235.86 69.5034 236.439 69.9144 236.919 70.4276C237.399 70.9408 237.771 71.5458 238.012 72.2061C238.253 72.8665 238.359 73.5688 238.322 74.2709L237.31 88.9119C236.989 93.656 234.879 98.1009 231.408 101.348C227.937 104.596 223.363 106.403 218.612 106.405Z" fill="#52A5D8"/>
<path d="M213.243 106.133C210.674 106.133 208.132 105.605 205.776 104.581C203.419 103.557 201.298 102.06 199.543 100.182C197.789 98.3035 196.439 96.0847 195.577 93.6628C194.715 91.241 194.36 88.6677 194.533 86.1027L195.669 69.2949H230.314C230.691 69.2948 231.064 69.3724 231.41 69.5227C231.757 69.6731 232.068 69.8931 232.326 70.169C232.583 70.4449 232.781 70.7709 232.908 71.1266C233.034 71.4824 233.086 71.8603 233.06 72.237L231.953 88.634C231.633 93.3811 229.522 97.8291 226.048 101.078C222.575 104.327 217.998 106.134 213.243 106.133Z" fill="white"/>
<path d="M213.244 106.568C208.643 106.55 204.2 104.886 200.718 101.877C197.235 98.8679 194.944 94.7115 194.256 90.159C194.248 90.102 194.251 90.0439 194.266 89.9882C194.28 89.9324 194.305 89.88 194.339 89.8339C194.374 89.7878 194.417 89.749 194.467 89.7197C194.516 89.6903 194.571 89.671 194.628 89.6628C194.685 89.6547 194.743 89.6578 194.799 89.6721C194.854 89.6863 194.907 89.7114 194.953 89.7459C194.999 89.7805 195.038 89.8237 195.067 89.8732C195.096 89.9228 195.116 89.9776 195.124 90.0346C195.782 94.5106 198.07 98.5851 201.549 101.475C205.028 104.364 209.452 105.864 213.969 105.687C218.487 105.51 222.78 103.667 226.022 100.514C229.264 97.3607 231.226 93.1193 231.532 88.6055L232.645 72.1159C232.666 71.8095 232.623 71.5022 232.52 71.213C232.417 70.9238 232.256 70.6588 232.046 70.4345C231.837 70.2102 231.583 70.0313 231.302 69.909C231.021 69.7867 230.717 69.7236 230.41 69.7235H198.382C197.755 69.725 197.151 69.9649 196.694 70.3945C196.237 70.8241 195.96 71.4115 195.919 72.0378L195.763 74.3347C195.754 74.4498 195.701 74.557 195.614 74.6327C195.527 74.7084 195.414 74.7464 195.299 74.7383C195.184 74.7303 195.076 74.6768 195.001 74.5897C194.925 74.5027 194.887 74.3891 194.895 74.274L195.051 71.977C195.11 71.1333 195.486 70.3431 196.103 69.7655C196.72 69.1879 197.534 68.8659 198.379 68.8643H230.399C230.824 68.8645 231.245 68.9522 231.635 69.1218C232.026 69.2915 232.377 69.5396 232.667 69.8507C232.958 70.1617 233.182 70.5292 233.324 70.9303C233.467 71.3314 233.526 71.7576 233.498 72.1824L232.385 88.672C232.042 93.5224 229.879 98.0634 226.328 101.383C222.777 104.703 218.103 106.555 213.244 106.568Z" fill="black"/>
<path d="M212.812 95.5018C212.602 95.5018 212.395 95.4589 212.203 95.3758C212.011 95.2927 211.838 95.1711 211.695 95.0185C211.552 94.8659 211.441 94.6855 211.37 94.4885C211.299 94.2915 211.269 94.0821 211.282 93.8731L212.115 80.8058C212.137 80.4149 212.308 80.0473 212.592 79.7783C212.876 79.5094 213.253 79.3595 213.644 79.3594C213.854 79.3593 214.061 79.4023 214.253 79.4856C214.445 79.5689 214.619 79.6908 214.762 79.8437C214.905 79.9966 215.016 80.1773 215.087 80.3747C215.157 80.572 215.187 80.7817 215.173 80.991L214.341 94.0756C214.314 94.4629 214.141 94.8255 213.857 95.0902C213.573 95.3549 213.2 95.502 212.812 95.5018Z" fill="black"/>
<path d="M217.338 85.9851C219.54 83.7809 219.54 80.2073 217.338 78.0032C215.135 75.799 211.564 75.799 209.361 78.0032C207.159 80.2073 207.159 83.7809 209.361 85.9851C211.564 88.1892 215.135 88.1892 217.338 85.9851Z" fill="black"/>
<path d="M196.279 115.441C196.683 113.8 195.682 112.141 194.041 111.737C192.401 111.332 190.744 112.334 190.34 113.976C189.935 115.617 190.937 117.275 192.577 117.68C194.217 118.085 195.875 117.082 196.279 115.441Z" fill="#52A5D8"/>
<path d="M203.477 117.09C204.814 116.057 205.062 114.135 204.03 112.797C202.998 111.459 201.077 111.211 199.74 112.244C198.402 113.277 198.155 115.199 199.187 116.537C200.219 117.875 202.14 118.123 203.477 117.09Z" fill="#52A5D8"/>
<path d="M213.17 115.443C213.574 113.802 212.572 112.144 210.932 111.739C209.292 111.334 207.635 112.337 207.23 113.978C206.826 115.619 207.828 117.278 209.468 117.682C211.108 118.087 212.765 117.085 213.17 115.443Z" fill="#52A5D8"/>
<path d="M220.612 117.091C221.949 116.058 222.197 114.136 221.165 112.798C220.132 111.46 218.212 111.212 216.874 112.245C215.537 113.278 215.29 115.2 216.322 116.538C217.354 117.876 219.275 118.124 220.612 117.091Z" fill="#52A5D8"/>
<path d="M228.996 116.624C230.191 115.428 230.191 113.491 228.996 112.295C227.802 111.1 225.865 111.1 224.671 112.295C223.476 113.491 223.476 115.428 224.671 116.624C225.865 117.819 227.802 117.819 228.996 116.624Z" fill="#52A5D8"/>
<path d="M238.345 115.145C238.735 113.5 237.719 111.851 236.075 111.461C234.431 111.071 232.783 112.088 232.393 113.733C232.003 115.378 233.02 117.027 234.664 117.417C236.307 117.807 237.956 116.79 238.345 115.145Z" fill="#52A5D8"/>
<path d="M129.322 205.673C124.141 212.859 120.597 223.548 117.643 237.969C129.224 250.866 158.575 257.219 181.28 259.088C179.667 239.902 176.337 215.555 176.337 215.555L129.322 205.673Z" fill="black"/>
<path d="M182.834 153.719C182.834 153.719 194.398 161.53 199.824 160.049C207.441 157.983 210.792 138.569 211.121 136.845C211.451 135.121 212.917 126.381 214.437 123.121C215.622 120.508 216.546 117.785 217.198 114.992C217.487 113.835 218.265 113.256 219.051 113.386C219.739 113.49 220.208 114.031 219.809 115.764C219.361 117.769 218.962 119.785 218.595 121.501C218.482 122.042 218.262 122.551 218.641 122.166C219.525 121.275 220.682 120.396 221.584 120.72C223.284 121.336 225.093 127.084 223.269 131.609C221.445 136.133 218.528 135.638 218.022 137.776C217.516 139.914 214.885 167.035 212.781 171.999C209.751 179.139 180.709 173.929 180.709 173.929L182.834 153.719Z" fill="white"/>
<path d="M199.732 176.2C191.059 176.2 181.328 174.484 180.634 174.36L180.238 174.291L182.479 152.955L183.077 153.36C183.181 153.43 192.715 159.803 198.283 159.803C198.765 159.808 199.245 159.75 199.712 159.629C206.3 157.841 209.752 141.852 210.654 136.992L210.694 136.764C210.732 136.57 210.784 136.286 210.847 135.933C211.347 133.185 212.672 125.881 214.045 122.938C215.216 120.357 216.131 117.666 216.777 114.905C217.086 113.603 218.049 112.813 219.115 112.972C219.31 112.993 219.498 113.055 219.667 113.155C219.836 113.255 219.981 113.39 220.093 113.551C220.428 114.04 220.474 114.801 220.234 115.865C219.945 117.121 219.694 118.371 219.445 119.574C219.332 120.118 219.222 120.647 219.115 121.154C220.124 120.338 221.003 120.057 221.717 120.323C222.521 120.613 223.108 121.608 223.452 122.389C224.493 124.723 224.958 128.533 223.651 131.782C222.958 133.662 221.64 135.247 219.919 136.272C219.124 136.801 218.598 137.14 218.424 137.889C218.286 138.482 217.95 141.271 217.528 144.803C216.464 153.702 214.681 168.591 213.16 172.182C211.859 175.286 206.072 176.2 199.732 176.2ZM181.184 173.576C189.452 175.022 210.047 177.337 212.382 171.84C213.857 168.369 215.629 153.551 216.687 144.699C217.129 141.002 217.45 138.335 217.601 137.689C217.855 136.616 218.598 136.121 219.459 135.549C220.532 134.837 221.868 133.949 222.868 131.458C224.073 128.461 223.614 124.839 222.68 122.745C222.293 121.877 221.83 121.281 221.437 121.139C220.893 120.939 219.991 121.428 218.951 122.479C218.844 122.586 218.563 122.869 218.231 122.681C217.898 122.493 217.991 122.134 218.086 121.761C218.115 121.654 218.147 121.535 218.173 121.417C218.309 120.78 218.448 120.103 218.595 119.392C218.847 118.185 219.104 116.933 219.387 115.672C219.627 114.601 219.483 114.182 219.387 114.025C219.341 113.963 219.282 113.912 219.214 113.876C219.146 113.839 219.071 113.818 218.994 113.814C218.384 113.722 217.838 114.234 217.629 115.093C216.971 117.916 216.036 120.666 214.84 123.306C213.513 126.147 212.203 133.37 211.709 136.09C211.645 136.445 211.593 136.729 211.556 136.926L211.515 137.151C210.33 143.539 206.832 158.599 199.951 160.468C195.066 161.793 185.685 156.068 183.201 154.471L181.184 173.576Z" fill="black"/>
<path d="M114.394 162.942L106.129 182.226C106.008 182.515 105.872 182.781 105.733 183.056C105.11 184.315 104.771 185.695 104.741 187.1C104.71 188.504 104.988 189.898 105.555 191.183C106.122 192.468 106.964 193.613 108.022 194.536C109.08 195.459 110.328 196.138 111.677 196.526L136.611 203.668L137.27 193.089L123.92 188.912C123.316 188.722 122.762 188.399 122.3 187.966C121.838 187.534 121.479 187.002 121.251 186.411C121.022 185.82 120.93 185.186 120.981 184.554C121.031 183.923 121.224 183.311 121.544 182.764L123.856 178.812L114.394 162.942Z" fill="white"/>
<path d="M137.003 204.235L111.563 196.942C110.153 196.537 108.849 195.827 107.743 194.862C106.637 193.897 105.757 192.7 105.164 191.357C104.571 190.014 104.281 188.557 104.313 187.089C104.345 185.621 104.7 184.178 105.351 182.862L105.391 182.784C105.516 182.535 105.631 182.298 105.735 182.055L114.336 161.987L124.361 178.812L121.919 182.984C121.632 183.472 121.459 184.02 121.413 184.585C121.368 185.15 121.45 185.718 121.655 186.246C121.859 186.775 122.181 187.251 122.595 187.637C123.009 188.024 123.505 188.312 124.046 188.48L137.723 192.762L137.003 204.235ZM114.454 163.893L106.524 182.408C106.412 182.674 106.282 182.934 106.157 183.183L106.12 183.261C105.525 184.463 105.201 185.781 105.171 187.121C105.142 188.462 105.407 189.793 105.948 191.019C106.49 192.246 107.294 193.338 108.305 194.219C109.315 195.1 110.506 195.748 111.795 196.117L136.203 203.112L136.807 193.412L123.78 189.336C123.114 189.128 122.503 188.771 121.994 188.293C121.484 187.816 121.089 187.229 120.837 186.578C120.586 185.926 120.484 185.226 120.54 184.53C120.596 183.833 120.808 183.158 121.161 182.555L123.344 178.826L114.454 163.893Z" fill="black"/>
<path d="M134.098 143.165C148.058 136.934 175.033 138.227 193.957 158.55C196.183 160.94 189.756 178.965 184.024 177.724C179.777 176.807 176.186 175.766 174.912 177.183C174.647 177.499 174.484 177.887 174.443 178.297C172.842 188.494 175.964 201.264 175.964 201.264C177.831 208.901 179.849 217.175 176.97 223.435C169.19 240.39 129.406 235.07 120.1 229.953C116.269 227.844 120.293 222.046 123.106 203.13C125.205 189.038 126.428 177.363 123.829 181.867C122.557 184.077 109.218 170.784 110.612 166.824C113.664 158.104 119.036 149.892 134.098 143.165Z" fill="#F1C40F"/>
<path d="M148.113 235.397C136.352 235.397 124.554 232.898 119.891 230.332C117.229 228.868 117.926 225.917 119.446 219.449C120.36 215.567 121.609 210.246 122.678 203.066C125.245 185.813 125.008 182.125 124.702 181.393C124.512 181.602 124.349 181.834 124.216 182.084C123.996 182.466 123.485 182.807 122.291 182.261C118.804 180.658 108.865 170.515 110.213 166.668C112.95 158.857 117.905 149.926 133.918 142.769C141.504 139.382 152.093 138.523 162.249 140.472C174.549 142.826 185.772 149.058 194.278 158.255C195.876 159.974 193.766 167.576 190.916 172.592C188.603 176.642 186.131 178.624 183.934 178.15L182.413 177.811C179.071 177.065 176.186 176.417 175.235 177.476C175.029 177.729 174.903 178.038 174.874 178.364C173.304 188.362 176.357 201.033 176.389 201.16C178.227 208.681 180.309 217.204 177.369 223.618C175.406 227.89 171.361 231.064 165.34 233.054C160.269 234.729 154.195 235.397 148.113 235.397ZM124.739 180.45C124.816 180.45 124.892 180.462 124.965 180.487C125.613 180.713 126.821 181.135 123.537 203.194C122.461 210.411 121.207 215.749 120.29 219.648C118.845 225.857 118.226 228.426 120.308 229.571C127.266 233.398 150.408 237.072 165.065 232.23C170.847 230.32 174.721 227.312 176.577 223.262C179.392 217.123 177.444 209.115 175.542 201.371C175.51 201.244 172.417 188.402 174.012 178.228C174.068 177.736 174.269 177.271 174.591 176.894C175.88 175.448 178.849 176.125 182.604 176.966L184.119 177.302C185.885 177.684 188.091 175.812 190.161 172.164C193.205 166.807 194.726 160.014 193.63 158.857C185.251 149.796 174.193 143.656 162.076 141.337C152.093 139.419 141.698 140.255 134.265 143.574C118.541 150.595 113.685 159.34 111.01 166.969C109.99 169.882 118.856 179.747 122.632 181.482C123.184 181.737 123.421 181.702 123.447 181.662C123.785 181.074 124.219 180.45 124.739 180.45Z" fill="black"/>
<path d="M168.648 111.042C169.922 111.332 170.772 113.785 171.111 115.046C172.221 119.198 171.125 129.352 168.139 130.341C165.196 131.316 165.3 129.925 163.146 131.458C161.412 132.681 161.391 134.573 161.01 138.69C160.984 138.953 166.424 139.847 166.543 140.084C166.832 140.617 164.32 147.817 154.028 147.673C144.277 147.537 142.213 141.166 142.123 140.712C142.071 140.443 149.296 139.124 149.394 138.846C150.692 135.204 151.27 129.051 151.27 129.051C151.27 129.051 155.254 108.098 168.648 111.042Z" fill="white"/>
<path d="M154.33 148.115H154.023C143.555 147.971 141.714 140.883 141.699 140.805C141.604 140.307 142.095 140.186 143.173 139.92C143.879 139.749 144.827 139.538 145.746 139.341C146.958 139.075 148.574 138.719 149.042 138.557C150.268 134.987 150.834 129.083 150.84 129.011V128.97C150.936 128.473 153.234 116.739 160.218 112.125C162.771 110.441 165.636 109.932 168.735 110.612C170.247 110.944 171.132 113.458 171.525 114.928C172.635 119.073 171.623 129.635 168.27 130.746C167.379 131.079 166.427 131.209 165.48 131.128C164.832 131.085 164.439 131.059 163.393 131.805C161.97 132.818 161.829 134.38 161.522 137.796L161.461 138.439C161.964 138.589 163.196 138.846 164.063 139.017C166.685 139.564 166.801 139.616 166.937 139.885C167.186 140.368 166.674 141.595 166.093 142.529C165.04 144.227 161.814 148.115 154.33 148.115ZM142.656 140.941C143.139 142.24 145.547 147.114 154.035 147.233C159.493 147.314 162.577 145.277 164.202 143.556C165.506 142.173 166.009 140.869 166.11 140.374C165.671 140.247 164.665 140.035 163.878 139.873C160.814 139.234 160.531 139.162 160.577 138.65L160.664 137.718C160.984 134.14 161.149 132.343 162.895 131.099C164.193 130.174 164.818 130.214 165.543 130.26C166.379 130.334 167.219 130.218 168.004 129.922C170.623 129.054 171.762 119.154 170.692 115.168C170.27 113.588 169.455 111.673 168.556 111.474C165.694 110.846 163.063 111.312 160.704 112.865C154.147 117.205 151.809 128.591 151.702 129.126C151.658 129.595 151.08 135.427 149.802 139.006C149.693 139.321 149.675 139.367 145.934 140.192C144.787 140.435 143.286 140.764 142.656 140.941Z" fill="black"/>
<path d="M164.27 122.152C162.376 122.105 161.09 120.202 160.679 118.336C160.298 116.658 160.621 115.284 161.506 114.833C163.53 113.803 165.311 116.794 165.386 116.921C165.444 117.021 165.461 117.139 165.432 117.251C165.404 117.363 165.332 117.458 165.233 117.517C165.133 117.576 165.015 117.593 164.903 117.564C164.791 117.535 164.696 117.463 164.637 117.364C164.623 117.338 163.168 114.957 161.899 115.605C161.414 115.854 161.252 116.944 161.523 118.145C161.873 119.681 162.865 121.249 164.29 121.284C164.405 121.284 164.515 121.329 164.597 121.411C164.678 121.492 164.724 121.603 164.724 121.718C164.724 121.833 164.678 121.943 164.597 122.025C164.515 122.106 164.405 122.152 164.29 122.152H164.27Z" fill="black"/>
<path d="M172.889 106.452C173.756 109.345 170.842 110.366 168.671 112.478C166.425 114.662 166.399 117.445 165.049 117.514C164.881 117.514 164.242 116.86 163.893 116.019C163.314 114.613 159.519 114.558 161.768 119.672C165.303 127.717 174.531 147.193 170.73 161.909C167.68 173.7 162.447 179.555 137.585 180.068C116.771 180.487 107.147 156.276 108.982 146.568C113.07 124.955 135.614 147.904 136.993 118.009C137.958 97.0497 156.341 85.7095 170.07 101.097C171.455 102.65 172.334 104.609 172.889 106.452Z" fill="black"/>
<path d="M144.417 56.9163L142.702 55.8402C142.567 55.7563 142.458 55.6356 142.388 55.4922C142.319 55.3488 142.291 55.1886 142.309 55.0302C142.352 54.6888 142.381 54.3503 142.396 54.0119C142.403 53.853 142.455 53.6994 142.546 53.5692C142.637 53.439 142.763 53.3376 142.91 53.2771L144.772 52.4902C144.953 52.4167 145.103 52.283 145.196 52.1116C145.289 51.9402 145.32 51.7417 145.284 51.55L144.995 49.9676C144.959 49.7778 144.859 49.6059 144.713 49.4803C144.566 49.3546 144.381 49.2826 144.188 49.2762L142.164 49.1923C142.005 49.1844 141.85 49.1324 141.718 49.042C141.586 48.9516 141.481 48.8264 141.416 48.6802C141.283 48.3707 141.127 48.0669 140.979 47.769C140.904 47.6277 140.871 47.4679 140.884 47.3085C140.897 47.1491 140.955 46.9967 141.051 46.8693L142.269 45.2608C142.384 45.1076 142.445 44.9193 142.439 44.7272C142.433 44.5351 142.362 44.3508 142.237 44.2049L141.184 42.9783C141.057 42.8328 140.886 42.7339 140.696 42.6972C140.506 42.6605 140.31 42.6882 140.138 42.7758L138.346 43.7073C138.203 43.7805 138.043 43.8127 137.883 43.8005C137.724 43.7882 137.57 43.7319 137.441 43.6379C137.172 43.4354 136.891 43.2444 136.599 43.0593C136.464 42.9743 136.355 42.8525 136.286 42.7081C136.217 42.5636 136.19 42.4025 136.209 42.2435L136.452 40.2474C136.474 40.0564 136.43 39.8636 136.329 39.7007C136.227 39.5377 136.072 39.4143 135.891 39.3506L134.362 38.8096C134.18 38.7469 133.983 38.7463 133.801 38.8081C133.618 38.8699 133.462 38.9905 133.356 39.151L132.272 40.8491C132.186 40.9843 132.065 41.0925 131.92 41.1611C131.776 41.2298 131.615 41.256 131.457 41.2368C131.113 41.1934 130.771 41.1673 130.43 41.1529C130.271 41.1456 130.116 41.0935 129.985 41.0024C129.853 40.9113 129.75 40.785 129.687 40.6379L128.892 38.7923C128.814 38.6157 128.679 38.4703 128.509 38.3791C128.339 38.2879 128.143 38.2562 127.953 38.2889L126.357 38.5782C126.168 38.6127 125.996 38.7105 125.869 38.8555C125.742 39.0006 125.669 39.1843 125.66 39.3766L125.579 41.4017C125.574 41.5608 125.523 41.715 125.433 41.8462C125.343 41.9774 125.217 42.0801 125.07 42.1422C124.755 42.2753 124.443 42.4315 124.14 42.5762C123.998 42.6494 123.838 42.6811 123.679 42.6678C123.52 42.6545 123.368 42.5967 123.241 42.501L121.616 41.2917C121.46 41.178 121.271 41.1194 121.078 41.1251C120.886 41.1309 120.701 41.2007 120.552 41.3236L119.318 42.365C119.17 42.4884 119.07 42.6585 119.033 42.847C118.996 43.0355 119.025 43.2309 119.115 43.4007L120.058 45.1798C120.132 45.3207 120.165 45.4799 120.152 45.6387C120.139 45.7975 120.081 45.9494 119.985 46.0766C119.783 46.3456 119.589 46.6234 119.407 46.9098C119.321 47.0454 119.198 47.1538 119.053 47.2225C118.907 47.2911 118.746 47.3171 118.586 47.2974L116.562 47.0544C116.371 47.0303 116.178 47.0718 116.013 47.1722C115.849 47.2726 115.724 47.4259 115.658 47.6069L115.114 49.1228C115.05 49.3043 115.049 49.5023 115.112 49.6842C115.175 49.8662 115.298 50.0212 115.461 50.1238L117.175 51.1999C117.311 51.284 117.419 51.4048 117.488 51.5482C117.557 51.6916 117.584 51.8518 117.566 52.01C117.525 52.3484 117.496 52.6898 117.482 53.0283C117.474 53.1869 117.422 53.3402 117.331 53.4703C117.24 53.6004 117.114 53.7019 116.967 53.7631L115.105 54.5499C114.928 54.6235 114.781 54.7558 114.689 54.9248C114.597 55.0938 114.565 55.2892 114.6 55.4786L114.889 57.061C114.927 57.2494 115.026 57.4199 115.172 57.5456C115.317 57.6712 115.5 57.745 115.692 57.7553L117.716 57.8392C117.875 57.8444 118.03 57.8948 118.162 57.9844C118.294 58.074 118.398 58.1991 118.462 58.3454C118.595 58.6579 118.751 58.9645 118.904 59.2683C118.977 59.4093 119.009 59.5683 118.995 59.7266C118.981 59.8849 118.923 60.036 118.826 60.1622L117.609 61.7677C117.493 61.9213 117.434 62.1097 117.44 62.3018C117.447 62.4939 117.518 62.678 117.644 62.8237L118.696 64.0502C118.823 64.1951 118.994 64.2936 119.183 64.3303C119.372 64.3669 119.568 64.3397 119.74 64.2527L121.532 63.3212C121.675 63.2485 121.835 63.2167 121.995 63.2295C122.154 63.2422 122.307 63.299 122.437 63.3936C122.709 63.5961 122.989 63.7889 123.278 63.9721C123.415 64.0565 123.524 64.1781 123.594 64.3226C123.663 64.4672 123.69 64.6286 123.671 64.7879L123.428 66.784C123.405 66.9755 123.448 67.1692 123.55 67.3329C123.652 67.4966 123.807 67.6204 123.989 67.6837L125.519 68.2247C125.701 68.2872 125.898 68.2873 126.08 68.2249C126.263 68.1626 126.419 68.0414 126.525 67.8805L127.606 66.1823C127.693 66.0486 127.816 65.9416 127.96 65.8732C128.105 65.8048 128.265 65.7776 128.424 65.7947C128.768 65.8381 129.109 65.867 129.45 65.8815C129.609 65.8904 129.762 65.9429 129.893 66.0332C130.025 66.1235 130.128 66.2482 130.193 66.3935L130.988 68.2421C131.067 68.4176 131.201 68.5619 131.371 68.6525C131.541 68.7431 131.735 68.7748 131.925 68.7425L133.521 68.4532C133.71 68.4199 133.883 68.323 134.01 68.1784C134.137 68.0338 134.211 67.8501 134.22 67.6577L134.301 65.6471C134.307 65.4869 134.358 65.3316 134.449 65.1998C134.541 65.0679 134.668 64.9651 134.816 64.9037C135.128 64.7735 135.434 64.6288 135.735 64.4726C135.878 64.4003 136.038 64.369 136.198 64.3823C136.358 64.3955 136.511 64.4528 136.64 64.5478L138.265 65.7571C138.42 65.8708 138.609 65.9294 138.802 65.9237C138.995 65.9179 139.18 65.8481 139.329 65.7252L140.563 64.6838C140.71 64.5604 140.81 64.3903 140.847 64.2018C140.884 64.0133 140.855 63.8179 140.765 63.6481L139.823 61.869C139.748 61.7277 139.715 61.568 139.728 61.4086C139.741 61.2492 139.799 61.0968 139.895 60.9693C140.097 60.7031 140.288 60.4254 140.473 60.1361C140.562 60.002 140.685 59.895 140.831 59.8271C140.976 59.7591 141.138 59.7329 141.297 59.7514L143.321 59.9944C143.512 60.0152 143.704 59.9719 143.868 59.8714C144.032 59.7708 144.158 59.6187 144.226 59.4389L144.769 57.9231C144.835 57.7403 144.836 57.5403 144.772 57.3569C144.708 57.1736 144.582 57.0179 144.417 56.9163ZM129.349 60.4023C127.993 60.2735 126.705 59.7459 125.647 58.886C124.59 58.0261 123.81 56.8723 123.407 55.57C123.004 54.2677 122.995 52.875 123.381 51.5674C123.767 50.2599 124.531 49.0959 125.577 48.222C126.623 47.3482 127.903 46.8036 129.258 46.6568C130.613 46.51 131.98 46.7676 133.189 47.3972C134.397 48.0268 135.393 49.0002 136.05 50.1947C136.706 51.3893 136.995 52.7517 136.88 54.1102C136.798 55.0184 136.538 55.9016 136.116 56.7093C135.693 57.517 135.115 58.2335 134.415 58.8178C133.716 59.4021 132.908 59.8427 132.038 60.1146C131.168 60.3865 130.254 60.4842 129.346 60.4023H129.349Z" fill="white"/>
<path d="M162.825 47.04L161.837 46.0419C161.758 45.9642 161.702 45.8654 161.678 45.7572C161.653 45.6489 161.66 45.5359 161.698 45.4315C161.782 45.2088 161.854 44.9831 161.918 44.7546C161.948 44.6484 162.008 44.553 162.09 44.4797C162.172 44.4064 162.274 44.3583 162.383 44.3409L163.765 44.1008C163.897 44.0801 164.019 44.014 164.108 43.9137C164.197 43.8134 164.248 43.6853 164.254 43.5512L164.306 42.4345C164.311 42.3004 164.271 42.1684 164.191 42.0602C164.112 41.9519 163.998 41.8738 163.869 41.8386L162.51 41.4625C162.403 41.4327 162.306 41.3732 162.231 41.2908C162.156 41.2084 162.105 41.1065 162.085 40.9967C162.045 40.7653 161.993 40.5367 161.935 40.3111C161.906 40.2039 161.909 40.0907 161.943 39.9851C161.977 39.8794 162.04 39.7857 162.126 39.7152L163.207 38.8213C163.31 38.7361 163.381 38.6178 163.407 38.4864C163.432 38.3551 163.412 38.2188 163.349 38.1009L162.831 37.1058C162.77 36.9871 162.669 36.8934 162.546 36.8406C162.423 36.7879 162.286 36.7794 162.158 36.8165L160.796 37.1607C160.688 37.1888 160.574 37.1858 160.468 37.152C160.361 37.1182 160.267 37.055 160.195 36.9698C160.044 36.7904 159.885 36.6169 159.718 36.4491C159.638 36.3708 159.583 36.2713 159.559 36.1625C159.535 36.0537 159.543 35.9402 159.582 35.8358L160.062 34.5224C160.109 34.3964 160.111 34.2578 160.067 34.1306C160.023 34.0033 159.937 33.8953 159.822 33.8252L158.874 33.2177C158.761 33.1449 158.627 33.1124 158.494 33.1255C158.36 33.1387 158.235 33.1967 158.139 33.29L157.139 34.2678C157.06 34.3472 156.96 34.402 156.851 34.4256C156.742 34.4493 156.628 34.4407 156.523 34.4009C156.298 34.3199 156.072 34.2447 155.844 34.181C155.736 34.1526 155.64 34.0938 155.565 34.0117C155.49 33.9296 155.44 33.8277 155.422 33.7182L155.176 32.3411C155.154 32.2076 155.087 32.0859 154.985 31.9972C154.883 31.9084 154.753 31.8581 154.618 31.8551L153.494 31.7973C153.36 31.788 153.227 31.8257 153.117 31.9038C153.008 31.9819 152.93 32.0956 152.895 32.2254L152.525 33.5735C152.496 33.6804 152.437 33.7767 152.355 33.8511C152.273 33.9254 152.172 33.9747 152.062 33.993C151.828 34.0335 151.594 34.0827 151.366 34.1405C151.258 34.1695 151.144 34.1666 151.038 34.1322C150.932 34.0978 150.838 34.0334 150.767 33.9467L149.86 32.8734C149.773 32.7705 149.654 32.6999 149.523 32.6731C149.391 32.6463 149.254 32.6649 149.134 32.7259L148.134 33.235C148.016 33.2964 147.924 33.3963 147.871 33.518C147.818 33.6396 147.809 33.7756 147.845 33.9033L148.2 35.2572C148.229 35.3641 148.227 35.4771 148.194 35.5827C148.16 35.6884 148.097 35.7822 148.012 35.8531C147.833 36.0036 147.657 36.1598 147.489 36.3247C147.41 36.4041 147.31 36.4589 147.201 36.4825C147.092 36.5061 146.978 36.4975 146.873 36.4577L145.549 35.9746C145.424 35.9258 145.286 35.9221 145.158 35.9644C145.03 36.0066 144.921 36.0921 144.85 36.2061L144.243 37.1463C144.169 37.2581 144.137 37.3918 144.151 37.5247C144.166 37.6576 144.225 37.7815 144.321 37.8753L145.309 38.8762C145.388 38.9542 145.443 39.0532 145.467 39.1615C145.491 39.2697 145.483 39.3825 145.445 39.4866C145.364 39.7094 145.289 39.935 145.228 40.1607C145.199 40.2674 145.139 40.3634 145.057 40.4372C144.974 40.5111 144.872 40.5597 144.763 40.5772L143.378 40.8145C143.246 40.8352 143.124 40.9013 143.035 41.0016C142.946 41.1019 142.895 41.23 142.89 41.3641L142.84 42.4808C142.834 42.615 142.874 42.7473 142.953 42.8561C143.031 42.9649 143.145 43.0437 143.274 43.0796L144.633 43.4557C144.74 43.4834 144.838 43.5416 144.913 43.6231C144.988 43.7047 145.039 43.8063 145.058 43.9157C145.101 44.15 145.15 44.3814 145.211 44.61C145.233 44.7166 145.224 44.8272 145.185 44.929C145.147 45.0309 145.081 45.1198 144.994 45.1856L143.916 46.0825C143.813 46.167 143.742 46.2847 143.716 46.4154C143.689 46.5461 143.709 46.682 143.771 46.7999L144.289 47.7979C144.353 47.9147 144.455 48.0065 144.577 48.0589C144.7 48.1113 144.836 48.1213 144.965 48.0872L146.324 47.7401C146.432 47.7127 146.546 47.7164 146.652 47.7506C146.759 47.7849 146.853 47.8484 146.925 47.9339C147.079 48.1104 147.238 48.2868 147.405 48.4546C147.484 48.5329 147.539 48.6324 147.564 48.7412C147.588 48.85 147.58 48.9635 147.541 49.0679L147.061 50.3784C147.014 50.5041 147.011 50.6424 147.055 50.7696C147.098 50.8968 147.184 51.005 147.298 51.0756L148.246 51.686C148.36 51.7582 148.494 51.79 148.628 51.7763C148.762 51.7627 148.887 51.7044 148.984 51.6108L149.984 50.633C150.062 50.5542 150.162 50.4997 150.271 50.4761C150.379 50.4525 150.493 50.4608 150.597 50.4999C150.822 50.5838 151.051 50.6561 151.279 50.7198C151.386 50.7489 151.483 50.8083 151.557 50.8909C151.631 50.9735 151.68 51.0758 151.698 51.1855L151.947 52.5626C151.968 52.6956 152.036 52.8169 152.137 52.9056C152.238 52.9944 152.367 53.0449 152.502 53.0486L153.626 53.1064C153.76 53.1222 153.895 53.0909 154.008 53.0181C154.12 52.9452 154.204 52.8353 154.245 52.7072L154.618 51.3591C154.647 51.2513 154.706 51.1541 154.788 51.0791C154.871 51.0042 154.974 50.9548 155.084 50.9368C155.315 50.8991 155.546 50.85 155.774 50.7892C155.883 50.7625 155.996 50.7665 156.103 50.8007C156.209 50.835 156.303 50.8981 156.376 50.983L157.281 52.0592C157.367 52.1617 157.486 52.232 157.618 52.2588C157.749 52.2855 157.886 52.2672 158.006 52.2067L159.006 51.6976C159.124 51.6361 159.218 51.5357 159.27 51.4135C159.323 51.2912 159.332 51.1545 159.296 51.0264L158.94 49.6754C158.911 49.5683 158.914 49.4551 158.948 49.3494C158.982 49.2438 159.045 49.1501 159.131 49.0795C159.31 48.9291 159.483 48.7729 159.651 48.6051C159.731 48.5272 159.832 48.4736 159.942 48.4505C160.051 48.4275 160.165 48.4359 160.27 48.4749L161.594 48.958C161.719 49.0041 161.857 49.0063 161.984 48.9643C162.111 48.9223 162.22 48.8385 162.293 48.7266L162.901 47.7864C162.979 47.6733 163.014 47.5361 163 47.3993C162.986 47.2626 162.925 47.1352 162.825 47.04ZM152.08 47.0169C151.182 46.7156 150.393 46.155 149.812 45.4057C149.232 44.6564 148.886 43.752 148.818 42.8064C148.751 41.8608 148.964 40.9163 149.432 40.092C149.9 39.2676 150.601 38.6003 151.447 38.1741C152.294 37.7479 153.247 37.5818 154.187 37.6969C155.128 37.8119 156.013 38.2029 156.732 38.8206C157.45 39.4383 157.97 40.2551 158.226 41.1679C158.482 42.0808 158.461 43.0489 158.168 43.9504C157.767 45.1645 156.9 46.1695 155.758 46.7445C154.617 47.3195 153.294 47.4175 152.08 47.0169Z" fill="white"/>
</g>
<defs>
<filter id="filter0_f_1636_48469" x="124" y="-11" width="277" height="259" filterUnits="userSpaceOnUse" color-interpolation-filters="sRGB">
<feFlood flood-opacity="0" result="BackgroundImageFix"/>
<feBlend mode="normal" in="SourceGraphic" in2="BackgroundImageFix" result="shape"/>
<feGaussianBlur stdDeviation="20" result="effect1_foregroundBlur_1636_48469"/>
</filter>
<filter id="filter1_f_1636_48469" x="-6" y="19" width="278" height="278" filterUnits="userSpaceOnUse" color-interpolation-filters="sRGB">
<feFlood flood-opacity="0" result="BackgroundImageFix"/>
<feBlend mode="normal" in="SourceGraphic" in2="BackgroundImageFix" result="shape"/>
<feGaussianBlur stdDeviation="30" result="effect1_foregroundBlur_1636_48469"/>
</filter>
<clipPath id="clip0_1636_48469">
<rect width="400" height="260" fill="white"/>
</clipPath>
</defs>
</svg>
