<svg width="400" height="260" viewBox="0 0 400 260" fill="none" xmlns="http://www.w3.org/2000/svg">
<g clip-path="url(#clip0_1941_42681)">
<path d="M132.811 65.5001C159.945 38.1943 152.177 21.0857 170.745 8.44657C199.32 -11.0128 252.628 5.72854 284.084 32.482C322.611 65.2522 342.491 125.071 319.844 179.212C295.731 236.855 232.283 266.779 175.668 257.762C125.111 249.708 75.4113 209.87 70.4309 162.091C69.8908 156.912 67.5105 128.919 84.2195 104.783C98.0364 84.8308 111.307 87.144 132.811 65.5001Z" fill="#E5F6FF"/>
<g filter="url(#filter0_f_1941_42681)">
<ellipse cx="136.5" cy="152.5" rx="98.5" ry="89.5" fill="#B5E0FF" fill-opacity="0.6"/>
</g>
<g filter="url(#filter1_f_1941_42681)">
<circle cx="292" cy="126" r="79" fill="#FFE7C3" fill-opacity="0.6"/>
</g>
<path d="M294.478 76.5265L100.743 69.0503C98.5278 69.0528 96.4039 69.9335 94.8374 71.4992C93.2709 73.065 92.3897 75.1878 92.3872 77.4021V212.579C92.3897 214.793 93.2709 216.916 94.8374 218.482C96.4039 220.047 98.5278 220.928 100.743 220.931L170.748 216.191L161.76 248.977L152.249 249.052C150.845 249.086 149.51 249.667 148.529 250.672C147.549 251.676 147 253.024 147 254.427C147 255.831 147.549 257.178 148.529 258.183C149.51 259.187 150.845 259.768 152.249 259.802L231.887 256.004C234.852 256.004 229.303 220.931 229.303 220.931C229.303 220.931 299.084 76.5265 294.478 76.5265Z" fill="#52A5D8"/>
<path d="M228.054 203.649H178.649L164.634 254.778H242.069L228.054 203.649Z" fill="white"/>
<path d="M242.069 255.249H164.634C164.562 255.248 164.49 255.231 164.425 255.199C164.36 255.166 164.304 255.12 164.26 255.062C164.216 255.005 164.186 254.938 164.172 254.867C164.158 254.796 164.16 254.722 164.179 254.652L178.197 203.524C178.224 203.424 178.282 203.337 178.364 203.274C178.446 203.212 178.546 203.178 178.649 203.178H228.054C228.157 203.178 228.257 203.212 228.339 203.274C228.421 203.337 228.479 203.424 228.506 203.524L242.524 254.652C242.543 254.722 242.546 254.796 242.532 254.867C242.517 254.938 242.487 255.005 242.443 255.062C242.399 255.12 242.343 255.166 242.278 255.199C242.213 255.231 242.142 255.248 242.069 255.249ZM165.253 254.307H241.463L227.706 204.12H179.032L165.253 254.307Z" fill="black"/>
<path d="M301.983 69.5242H104.722C100.368 69.5242 96.8374 73.0526 96.8374 77.4052V212.579C96.8374 216.931 100.368 220.46 104.722 220.46H301.983C306.338 220.46 309.868 216.931 309.868 212.579V77.4052C309.868 73.0526 306.338 69.5242 301.983 69.5242Z" fill="#E5F6FF"/>
<path d="M301.983 220.927H104.719C102.505 220.925 100.381 220.044 98.8155 218.479C97.2496 216.914 96.3687 214.792 96.3662 212.579V77.4021C96.3687 75.1884 97.2494 73.066 98.8153 71.5003C100.381 69.9347 102.504 69.0536 104.719 69.0503H301.983C304.198 69.0536 306.321 69.9347 307.887 71.5003C309.453 73.066 310.334 75.1884 310.336 77.4021V212.579C310.334 214.792 309.453 216.914 307.887 218.479C306.321 220.044 304.198 220.925 301.983 220.927ZM104.719 69.9919C102.754 69.9944 100.87 70.776 99.4805 72.1652C98.0911 73.5545 97.3099 75.4379 97.3083 77.4021V212.579C97.3108 214.542 98.0924 216.425 99.4816 217.814C100.871 219.202 102.754 219.983 104.719 219.986H301.983C303.948 219.983 305.831 219.202 307.221 217.814C308.61 216.425 309.392 214.542 309.394 212.579V77.4021C309.392 75.4379 308.611 73.5545 307.222 72.1652C305.833 70.776 303.948 69.9944 301.983 69.9919H104.719Z" fill="black"/>
<path d="M250.478 249.523H156.225C154.945 249.556 153.729 250.086 152.835 251.003C151.941 251.919 151.441 253.148 151.441 254.427C151.441 255.707 151.941 256.936 152.835 257.852C153.729 258.768 154.945 259.299 156.225 259.331H250.478C251.758 259.299 252.974 258.768 253.868 257.852C254.762 256.936 255.262 255.707 255.262 254.427C255.262 253.148 254.762 251.919 253.868 251.003C252.974 250.086 251.758 249.556 250.478 249.523Z" fill="white"/>
<path d="M250.478 259.802H156.225C154.821 259.768 153.486 259.187 152.505 258.183C151.525 257.178 150.976 255.831 150.976 254.427C150.976 253.024 151.525 251.676 152.505 250.672C153.486 249.667 154.821 249.086 156.225 249.052H250.478C251.882 249.086 253.216 249.667 254.197 250.672C255.178 251.676 255.727 253.024 255.727 254.427C255.727 255.831 255.178 257.178 254.197 258.183C253.216 259.187 251.882 259.768 250.478 259.802ZM156.225 249.994C155.069 250.025 153.971 250.505 153.164 251.333C152.357 252.161 151.906 253.271 151.906 254.427C151.906 255.583 152.357 256.693 153.164 257.521C153.971 258.349 155.069 258.83 156.225 258.86H250.478C251.634 258.83 252.732 258.349 253.539 257.521C254.345 256.693 254.797 255.583 254.797 254.427C254.797 253.271 254.345 252.161 253.539 251.333C252.732 250.505 251.634 250.025 250.478 249.994H156.225Z" fill="black"/>
<path d="M298.928 213.925H107.765C106.599 213.925 105.481 213.462 104.657 212.638C103.832 211.814 103.369 210.696 103.369 209.531V177.059C103.369 176.934 103.419 176.814 103.507 176.726C103.595 176.638 103.715 176.588 103.84 176.588C103.965 176.588 104.085 176.638 104.173 176.726C104.262 176.814 104.311 176.934 104.311 177.059V209.537C104.311 210.453 104.675 211.331 105.323 211.978C105.971 212.626 106.849 212.989 107.765 212.989H298.928C299.844 212.989 300.723 212.626 301.371 211.978C302.018 211.331 302.382 210.453 302.382 209.537V176.629C302.382 176.504 302.432 176.384 302.52 176.296C302.609 176.208 302.728 176.158 302.853 176.158C302.978 176.158 303.098 176.208 303.186 176.296C303.275 176.384 303.324 176.504 303.324 176.629V209.537C303.323 210.701 302.859 211.817 302.034 212.64C301.21 213.463 300.093 213.925 298.928 213.925Z" fill="black"/>
<path d="M103.843 95.8225C103.718 95.8225 103.598 95.7729 103.51 95.6846C103.421 95.5964 103.372 95.4766 103.372 95.3518V87.0406C103.372 86.9158 103.421 86.796 103.51 86.7077C103.598 86.6194 103.718 86.5698 103.843 86.5698C103.968 86.5698 104.087 86.6194 104.176 86.7077C104.264 86.796 104.314 86.9158 104.314 87.0406V95.3392C104.315 95.4021 104.304 95.4646 104.281 95.5232C104.259 95.5818 104.224 95.6352 104.18 95.6802C104.136 95.7253 104.084 95.7611 104.026 95.7855C103.968 95.81 103.906 95.8226 103.843 95.8225Z" fill="black"/>
<path d="M103.843 80.9018C103.718 80.9018 103.598 80.8522 103.51 80.7639C103.421 80.6756 103.372 80.5558 103.372 80.431C103.372 79.2656 103.835 78.1479 104.659 77.3239C105.484 76.4998 106.602 76.0369 107.768 76.0369H119.136C119.26 76.0369 119.38 76.0865 119.469 76.1748C119.557 76.263 119.607 76.3828 119.607 76.5077C119.607 76.6325 119.557 76.7523 119.469 76.8406C119.38 76.9289 119.26 76.9785 119.136 76.9785H107.768C106.852 76.9785 105.973 77.3422 105.325 77.9897C104.678 78.6371 104.314 79.5153 104.314 80.431C104.314 80.5558 104.264 80.6756 104.176 80.7639C104.087 80.8522 103.968 80.9018 103.843 80.9018Z" fill="black"/>
<path d="M302.86 87.5115C302.735 87.5115 302.615 87.4619 302.527 87.3736C302.438 87.2853 302.389 87.1655 302.389 87.0407V80.4495C302.389 79.5339 302.025 78.6557 301.377 78.0082C300.729 77.3608 299.85 76.997 298.934 76.997H287.246C287.121 76.997 287.002 76.9474 286.913 76.8591C286.825 76.7708 286.775 76.6511 286.775 76.5262C286.775 76.4014 286.825 76.2816 286.913 76.1933C287.002 76.105 287.121 76.0554 287.246 76.0554H298.928C300.094 76.0554 301.212 76.5184 302.037 77.3424C302.861 78.1665 303.324 79.2841 303.324 80.4495V87.0407C303.324 87.1642 303.275 87.2826 303.188 87.3705C303.101 87.4584 302.983 87.509 302.86 87.5115Z" fill="black"/>
<path d="M302.859 105.923C302.734 105.923 302.614 105.873 302.526 105.785C302.438 105.697 302.388 105.577 302.388 105.452V96.2809C302.388 96.156 302.438 96.0362 302.526 95.9479C302.614 95.8597 302.734 95.8101 302.859 95.8101C302.984 95.8101 303.104 95.8597 303.192 95.9479C303.281 96.0362 303.33 96.156 303.33 96.2809V105.468C303.325 105.59 303.274 105.705 303.186 105.79C303.098 105.874 302.981 105.922 302.859 105.923Z" fill="black"/>
<path d="M275.408 212.94H127.9V44.18C127.899 42.7186 128.187 41.2715 128.746 39.9212C129.306 38.5709 130.125 37.344 131.159 36.3105C132.193 35.277 133.42 34.4571 134.771 33.8978C136.122 33.3384 137.57 33.0505 139.032 33.0505H264.272C265.735 33.0501 267.183 33.3377 268.534 33.8969C269.885 34.456 271.113 35.2758 272.147 36.3094C273.181 37.3429 274.001 38.57 274.561 39.9205C275.12 41.2709 275.408 42.7184 275.408 44.18V212.94Z" fill="#A2D2EC"/>
<path d="M275.408 56.5558C275.283 56.5558 275.164 56.5062 275.075 56.4179C274.987 56.3296 274.937 56.2098 274.937 56.085V44.1801C274.937 41.3499 273.812 38.6356 271.81 36.6343C269.808 34.633 267.092 33.5087 264.26 33.5087H251.103C250.978 33.5087 250.858 33.4591 250.77 33.3708C250.681 33.2825 250.632 33.1628 250.632 33.0379C250.632 32.9131 250.681 32.7933 250.77 32.705C250.858 32.6167 250.978 32.5671 251.103 32.5671H264.26C267.342 32.5671 270.297 33.7906 272.476 35.9685C274.655 38.1464 275.879 41.1002 275.879 44.1801V56.0913C275.878 56.215 275.827 56.3332 275.739 56.4201C275.651 56.5071 275.532 56.5558 275.408 56.5558Z" fill="black"/>
<path d="M222.898 33.5087H195.22C195.095 33.5087 194.975 33.4591 194.887 33.3708C194.799 33.2825 194.749 33.1628 194.749 33.0379C194.749 32.9131 194.799 32.7933 194.887 32.705C194.975 32.6167 195.095 32.5671 195.22 32.5671H222.898C223.023 32.5671 223.143 32.6167 223.231 32.705C223.32 32.7933 223.369 32.9131 223.369 33.0379C223.369 33.1628 223.32 33.2825 223.231 33.3708C223.143 33.4591 223.023 33.5087 222.898 33.5087Z" fill="black"/>
<path d="M127.9 92.7506C127.775 92.7506 127.655 92.701 127.567 92.6127C127.478 92.5244 127.429 92.4047 127.429 92.2798V44.1801C127.429 41.1029 128.651 38.1514 130.826 35.974C133.002 33.7966 135.953 32.5713 139.032 32.5671H183.287C183.412 32.5671 183.532 32.6167 183.62 32.705C183.709 32.7933 183.758 32.9131 183.758 33.0379C183.758 33.1628 183.709 33.2825 183.62 33.3708C183.532 33.4591 183.412 33.5087 183.287 33.5087H139.032C136.203 33.5129 133.491 34.639 131.492 36.6399C129.493 38.6407 128.371 41.3526 128.371 44.1801V92.2798C128.371 92.4047 128.321 92.5244 128.233 92.6127C128.144 92.701 128.025 92.7506 127.9 92.7506Z" fill="black"/>
<path d="M208.466 43.7971H137.258V48.2885H208.466V43.7971Z" fill="#E5F6FF"/>
<path d="M245.979 51.4114H162.745V56.0848H245.979V51.4114Z" fill="white"/>
<path d="M264.514 59.1196H181.28V63.793H264.514V59.1196Z" fill="white"/>
<path d="M254.482 66.825H211.458V71.4984H254.482V66.825Z" fill="white"/>
<path d="M208.466 105.452H137.258V109.943H208.466V105.452Z" fill="#E5F6FF"/>
<path d="M245.979 113.066H162.745V117.74H245.979V113.066Z" fill="white"/>
<path d="M258.065 120.775H181.28V125.448H258.065V120.775Z" fill="white"/>
<path d="M264.519 128.48H211.458V133.153H264.519V128.48Z" fill="white"/>
<path d="M245.979 74.5334H162.745V79.2068H245.979V74.5334Z" fill="white"/>
<path d="M264.514 82.2388H181.28V86.9121H264.514V82.2388Z" fill="white"/>
<path d="M244.443 97.6523H211.458V102.326H244.443V97.6523Z" fill="white"/>
<path d="M264.519 89.947H211.458V94.6205H264.519V89.947Z" fill="white"/>
<path d="M208.466 136.279H137.258V140.77H208.466V136.279Z" fill="#E5F6FF"/>
<path d="M245.979 143.893H162.745V148.567H245.979V143.893Z" fill="white"/>
<path d="M261.84 151.602H181.28V156.275H261.84V151.602Z" fill="white"/>
<path d="M262.983 159.307H209.922V163.981H262.983V159.307Z" fill="#E5F6FF"/>
<path d="M226.258 197.843H181.28V202.516H226.258V197.843Z" fill="#E5F6FF"/>
<path d="M245.979 167.016H162.745V171.689H245.979V167.016Z" fill="white"/>
<path d="M264.514 174.721H181.28V179.394H264.514V174.721Z" fill="white"/>
<path d="M264.519 190.135H211.458V194.808H264.519V190.135Z" fill="white"/>
<path d="M241.833 182.429H211.458V187.103H241.833V182.429Z" fill="white"/>
<path d="M308.921 161.134C308.921 160.786 289.451 157.71 288.195 154.154C286.311 148.843 283.984 142.462 283.984 142.462L279.12 145.532L282.26 160.808L308.921 161.134Z" fill="white"/>
<path d="M308.92 161.605L282.228 161.291C282.121 161.289 282.017 161.251 281.935 161.182C281.852 161.114 281.795 161.019 281.773 160.914L278.633 145.639C278.613 145.545 278.622 145.447 278.66 145.359C278.698 145.271 278.762 145.196 278.843 145.146L283.707 142.076C283.766 142.039 283.833 142.015 283.903 142.007C283.972 141.998 284.043 142.006 284.109 142.029C284.176 142.052 284.236 142.089 284.287 142.137C284.337 142.186 284.376 142.246 284.401 142.312C284.423 142.377 286.759 148.758 288.615 154.009C289.473 156.445 301.49 159.006 306.034 159.973C309.375 160.685 309.375 160.685 309.375 161.153C309.373 161.278 309.322 161.397 309.234 161.486C309.148 161.563 309.036 161.606 308.92 161.605ZM282.627 160.349L304.609 160.619C296.72 158.915 288.65 156.891 287.742 154.32C286.204 149.97 284.338 144.841 283.732 143.181L279.65 145.764L282.627 160.349Z" fill="black"/>
<path d="M253.367 126.05C258.011 124.534 265.086 123.448 273.546 126.141C275.055 126.626 276.393 127.535 277.4 128.76C278.407 129.984 279.04 131.472 279.223 133.046L286.113 172.703C286.455 175.584 282.602 178.387 279.886 179.417C277.06 180.49 272.758 181.507 266.697 181.507C260.187 181.507 255.455 181.887 252.817 180.729C250.619 179.771 247.325 177.449 247.215 175.06L247.692 134.299C247.606 132.493 248.114 130.708 249.138 129.219C250.163 127.729 251.648 126.616 253.367 126.05Z" fill="#F1C40F"/>
<path d="M285.905 143.09C285.905 143.09 280.401 127.861 274.236 126.411L277.377 147.989L285.905 143.09Z" fill="#F1C40F"/>
<path d="M240.539 150.579C240.539 150.579 241.142 140.388 242.021 136.455C243.874 128.172 251.778 126.92 251.778 126.92L252.739 149.163L240.539 150.579Z" fill="#F1C40F"/>
<path d="M259.512 129.358C257.215 129.361 254.921 129.176 252.654 128.806C252.529 128.784 252.418 128.713 252.345 128.609C252.272 128.505 252.244 128.377 252.266 128.252C252.288 128.127 252.359 128.016 252.463 127.943C252.567 127.871 252.695 127.842 252.82 127.864C252.911 127.883 261.911 129.465 268.415 127.055C268.532 127.011 268.662 127.016 268.776 127.068C268.89 127.12 268.979 127.215 269.022 127.332C269.066 127.45 269.061 127.58 269.009 127.694C268.957 127.807 268.862 127.896 268.744 127.94C265.786 129.048 262.407 129.358 259.512 129.358Z" fill="black"/>
<path d="M242.09 150.158C242.09 150.158 241.497 157.926 244.577 163.143C248.255 169.373 266.81 160.983 266.81 160.983L268.971 159.762C269.693 159.354 270.492 159.099 271.317 159.015C272.142 158.931 272.976 159.018 273.766 159.273L277.252 160.399C277.252 160.399 274.372 156.947 271.913 155.629C270.767 155.001 269.279 155.594 268.022 156.391C265.848 157.746 263.317 158.42 260.756 158.325L253.373 158.105C252.775 158.087 252.204 157.851 251.768 157.44C251.333 157.029 251.064 156.473 251.012 155.877L250.45 149.449L242.09 150.158Z" fill="white"/>
<path d="M250.189 165.905C247.507 165.905 245.252 165.236 244.159 163.394C241.038 158.108 241.584 150.453 241.61 150.13C241.617 150.019 241.665 149.914 241.743 149.834C241.821 149.755 241.925 149.706 242.037 149.697L250.408 148.99C250.47 148.985 250.532 148.991 250.591 149.01C250.65 149.028 250.704 149.058 250.752 149.098C250.799 149.138 250.838 149.186 250.866 149.241C250.895 149.296 250.912 149.356 250.917 149.417L251.476 155.845C251.519 156.327 251.737 156.776 252.089 157.107C252.441 157.439 252.902 157.629 253.385 157.644L260.765 157.863C263.232 157.957 265.67 157.309 267.765 156.002C269.539 154.879 271.008 154.618 272.136 155.224C274.648 156.57 277.474 159.963 277.6 160.108C277.664 160.186 277.701 160.283 277.705 160.384C277.71 160.485 277.682 160.585 277.625 160.669C277.568 160.753 277.486 160.816 277.39 160.85C277.295 160.883 277.191 160.885 277.094 160.855L273.609 159.731C272.88 159.497 272.112 159.417 271.351 159.494C270.59 159.571 269.853 159.805 269.187 160.18L267.03 161.404L266.992 161.423C266.439 161.661 256.95 165.905 250.189 165.905ZM242.526 150.579C242.46 152.214 242.395 158.529 244.97 162.891C245.874 164.423 247.796 164.988 250.138 164.988C256.541 164.988 266.091 160.773 266.584 160.55L268.725 159.339C269.505 158.899 270.366 158.625 271.257 158.535C272.147 158.445 273.046 158.54 273.897 158.814L275.716 159.398C274.67 158.303 273.094 156.787 271.687 156.03C270.688 155.494 269.278 156.137 268.27 156.777C266.016 158.187 263.39 158.885 260.734 158.783L253.354 158.563C252.638 158.545 251.954 158.264 251.433 157.774C250.912 157.283 250.589 156.618 250.528 155.905L250.006 149.941L242.526 150.579Z" fill="black"/>
<path d="M270.553 235.616L266.531 247.612C266.531 247.612 270.927 247.238 271.332 247.32C271.737 247.401 276.875 236.378 276.875 236.378L270.553 235.616Z" fill="white"/>
<path d="M266.531 248.083C266.455 248.083 266.38 248.065 266.313 248.031C266.246 247.996 266.188 247.946 266.145 247.885C266.101 247.823 266.073 247.752 266.062 247.677C266.052 247.602 266.059 247.526 266.085 247.455L270.107 235.459C270.142 235.357 270.211 235.27 270.302 235.213C270.394 235.155 270.503 235.132 270.61 235.145L276.931 235.908C277.005 235.917 277.076 235.943 277.137 235.984C277.199 236.026 277.25 236.082 277.286 236.147C277.323 236.211 277.344 236.284 277.346 236.358C277.349 236.432 277.334 236.506 277.301 236.573C277.301 236.602 276.005 239.364 274.686 242.082C271.859 247.901 271.69 247.866 271.231 247.778C270.943 247.741 268.628 247.901 266.562 248.077L266.531 248.083ZM270.88 236.128L267.206 247.082C268.503 246.975 270.402 246.831 271.153 246.84C271.759 245.989 274.086 241.241 276.177 236.768L270.88 236.128ZM271.385 246.853H271.423H271.385Z" fill="black"/>
<path d="M267.451 244.975C267.451 244.975 273.502 242.496 274.62 245.603C276.042 249.561 278.269 255.6 278.269 255.6C278.356 255.845 278.386 256.106 278.356 256.365C278.327 256.623 278.238 256.871 278.096 257.09C277.955 257.308 277.766 257.491 277.542 257.625C277.319 257.758 277.068 257.839 276.809 257.859C274.61 258.038 271.301 258.173 269.762 257.643C267.338 256.792 263.315 249.118 263.315 249.118L264.555 242.59C264.555 242.59 266.747 242.286 267.451 244.975Z" fill="#52A5D8"/>
<path d="M273.251 258.494C271.813 258.494 270.466 258.39 269.608 258.089C267.08 257.204 263.328 250.142 262.898 249.341C262.846 249.245 262.83 249.135 262.851 249.028L264.091 242.499C264.11 242.403 264.158 242.314 264.23 242.247C264.301 242.179 264.392 242.136 264.49 242.123C265.325 242.003 267.002 242.345 267.752 244.354C268.889 243.952 271.781 243.099 273.622 243.902C273.956 244.044 274.257 244.253 274.505 244.518C274.754 244.783 274.944 245.097 275.063 245.44C276.47 249.351 278.69 255.371 278.712 255.434C278.825 255.747 278.864 256.082 278.827 256.412C278.789 256.743 278.676 257.061 278.495 257.34C278.315 257.62 278.072 257.855 277.786 258.025C277.5 258.196 277.179 258.298 276.847 258.324C275.735 258.422 274.46 258.494 273.251 258.494ZM263.808 249.05C264.97 251.247 268.114 256.582 269.919 257.21C271.031 257.599 273.465 257.668 276.771 257.401C276.959 257.387 277.141 257.329 277.302 257.233C277.464 257.137 277.601 257.005 277.703 256.847C277.806 256.689 277.87 256.509 277.891 256.322C277.912 256.136 277.89 255.946 277.826 255.769C277.804 255.713 275.584 249.69 274.177 245.776C274.101 245.552 273.977 245.348 273.814 245.176C273.652 245.005 273.454 244.87 273.235 244.781C271.643 244.072 268.647 245.001 267.627 245.409C267.566 245.436 267.499 245.45 267.432 245.45C267.365 245.45 267.299 245.436 267.237 245.409C267.176 245.377 267.122 245.333 267.08 245.279C267.038 245.225 267.008 245.162 266.993 245.095C266.553 243.406 265.485 243.102 264.942 243.058L263.808 249.05Z" fill="black"/>
<path d="M276.718 255.722H270.506C270.381 255.722 270.261 255.672 270.173 255.584C270.085 255.495 270.035 255.376 270.035 255.251C270.035 255.126 270.085 255.006 270.173 254.918C270.261 254.83 270.381 254.78 270.506 254.78H276.718C276.843 254.78 276.962 254.83 277.051 254.918C277.139 255.006 277.189 255.126 277.189 255.251C277.189 255.376 277.139 255.495 277.051 255.584C276.962 255.672 276.843 255.722 276.718 255.722Z" fill="black"/>
<path d="M259.148 238.563L260.514 250.631L266.012 249.125L265.589 238.25L259.148 238.563Z" fill="white"/>
<path d="M260.514 251.102C260.42 251.102 260.328 251.073 260.25 251.02C260.194 250.982 260.146 250.931 260.111 250.873C260.076 250.814 260.054 250.749 260.046 250.681L258.68 238.616C258.673 238.552 258.679 238.488 258.698 238.426C258.717 238.364 258.748 238.307 258.79 238.258C258.832 238.209 258.883 238.169 258.941 238.141C258.999 238.112 259.062 238.096 259.126 238.092L265.567 237.778C265.629 237.775 265.691 237.784 265.75 237.805C265.808 237.826 265.862 237.858 265.908 237.901C265.954 237.943 265.991 237.994 266.017 238.05C266.043 238.107 266.058 238.168 266.06 238.23L266.483 249.102C266.487 249.209 266.456 249.313 266.393 249.399C266.33 249.485 266.24 249.548 266.138 249.576L260.64 251.083C260.599 251.095 260.556 251.102 260.514 251.102ZM259.675 239.009L260.932 250.032L265.541 248.776L265.149 238.751L259.675 239.009Z" fill="black"/>
<path d="M259.99 259.52H268.689C268.965 259.52 269.237 259.461 269.489 259.346C269.74 259.232 269.963 259.065 270.144 258.856C270.325 258.648 270.46 258.403 270.538 258.139C270.616 257.874 270.636 257.596 270.598 257.323C270.309 255.358 269.364 252.103 266.516 247.621C266.363 247.38 266.152 247.182 265.902 247.044C265.653 246.906 265.372 246.834 265.087 246.833H262.439C262.219 246.834 262.007 246.915 261.844 247.063C261.68 247.21 261.577 247.412 261.554 247.631L261.353 249.539L260.204 248.02C258.886 251.037 258.155 254.277 258.049 257.568C258.047 257.824 258.095 258.078 258.191 258.315C258.287 258.553 258.43 258.768 258.611 258.95C258.791 259.132 259.006 259.276 259.243 259.374C259.48 259.471 259.734 259.521 259.99 259.52Z" fill="#52A5D8"/>
<path d="M268.694 259.991H259.99C259.671 259.991 259.355 259.927 259.061 259.804C258.767 259.681 258.5 259.5 258.276 259.273C258.053 259.046 257.877 258.776 257.758 258.48C257.64 258.184 257.582 257.868 257.587 257.549C257.688 254.195 258.435 250.891 259.785 247.819C259.82 247.746 259.873 247.683 259.939 247.636C260.005 247.589 260.082 247.56 260.162 247.552C260.243 247.544 260.324 247.556 260.398 247.588C260.472 247.62 260.537 247.67 260.586 247.734L261.02 248.306L261.095 247.584C261.128 247.249 261.286 246.938 261.536 246.712C261.786 246.486 262.111 246.362 262.448 246.363H265.096C265.461 246.362 265.82 246.454 266.14 246.631C266.459 246.807 266.729 247.061 266.923 247.37C269.812 251.931 270.77 255.264 271.065 257.254C271.115 257.595 271.09 257.942 270.994 258.273C270.897 258.604 270.73 258.91 270.505 259.17C270.279 259.431 270 259.64 269.687 259.783C269.373 259.926 269.033 260 268.688 260L268.694 259.991ZM260.332 248.943C259.245 251.693 258.638 254.609 258.536 257.565C258.532 257.758 258.567 257.951 258.639 258.131C258.71 258.312 258.817 258.476 258.953 258.614C259.089 258.752 259.252 258.862 259.431 258.937C259.61 259.011 259.802 259.05 259.996 259.049H268.694C268.904 259.05 269.111 259.005 269.301 258.918C269.492 258.831 269.661 258.705 269.798 258.546C269.935 258.388 270.037 258.202 270.095 258.002C270.154 257.801 270.169 257.59 270.139 257.383C269.856 255.481 268.933 252.289 266.132 247.863C266.022 247.689 265.87 247.546 265.69 247.447C265.51 247.348 265.307 247.295 265.102 247.295H262.455C262.351 247.295 262.251 247.334 262.174 247.403C262.096 247.473 262.048 247.568 262.037 247.672L261.839 249.58C261.828 249.674 261.79 249.762 261.729 249.834C261.668 249.906 261.588 249.959 261.497 249.985C261.406 250.01 261.309 250.007 261.22 249.977C261.13 249.947 261.052 249.89 260.994 249.815L260.332 248.943Z" fill="black"/>
<path d="M269.762 257.919H259.361C259.236 257.919 259.116 257.869 259.028 257.781C258.94 257.693 258.89 257.573 258.89 257.448C258.89 257.323 258.94 257.203 259.028 257.115C259.116 257.027 259.236 256.977 259.361 256.977H269.774C269.899 256.977 270.019 257.027 270.107 257.115C270.196 257.203 270.245 257.323 270.245 257.448C270.245 257.573 270.196 257.693 270.107 257.781C270.019 257.869 269.899 257.919 269.774 257.919H269.762Z" fill="black"/>
<path d="M279.799 166.09C279.688 165.816 279.517 165.57 279.3 165.369C279.083 165.169 278.825 165.018 278.543 164.928C274.248 163.652 269.727 163.321 265.292 163.959C260.857 164.596 256.613 166.188 252.853 168.623C252.583 168.791 252.357 169.022 252.193 169.294C252.03 169.567 251.933 169.875 251.911 170.192C251.496 175.992 249.957 206.308 259.554 242.202L266.016 241.744L267.335 180.37C267.335 180.37 276.907 202.868 269.122 238.677L275.845 239.933C275.845 239.933 285.684 227.004 287.445 207.247C289.009 189.742 281.542 170.352 279.799 166.09Z" fill="black"/>
<path d="M267.902 186.456C267.78 186.457 267.662 186.41 267.574 186.325C267.486 186.239 267.435 186.123 267.431 186.001L267.212 178.324C267.21 178.246 267.227 178.169 267.262 178.099C267.297 178.03 267.349 177.97 267.412 177.925L271.441 175.1C271.544 175.028 271.671 175 271.794 175.021C271.917 175.043 272.027 175.112 272.099 175.215C272.171 175.317 272.2 175.444 272.178 175.567C272.157 175.691 272.087 175.8 271.985 175.872L268.154 178.55L268.373 185.973C268.375 186.034 268.365 186.096 268.342 186.154C268.32 186.211 268.287 186.264 268.244 186.309C268.202 186.354 268.151 186.39 268.094 186.415C268.038 186.441 267.977 186.454 267.915 186.456H267.902Z" fill="white"/>
<path d="M259.189 111.49C256.733 109.378 256.171 109.089 255.455 107.878C254.874 106.892 253.571 104.686 254.45 102.357C255.213 100.342 257.317 99.1242 259.255 99.0175C260.995 98.9265 262.263 99.7488 262.935 100.182C263.227 100.37 265.815 102.096 266.324 104.915C266.465 105.678 266.361 106.029 266.71 106.509C267.495 107.589 268.908 107.037 269.9 107.934C271.138 109.058 270.566 111.453 270.528 111.641C269.881 114.196 267.118 115.891 264.876 115.655C263.557 115.517 263.698 115.364 259.189 111.49Z" fill="black"/>
<path d="M265.956 124.13C265.372 123.741 264.897 123.211 264.574 122.589C264.251 121.967 264.091 121.274 264.109 120.574L264.244 114.667L264.364 114.554C264.364 114.554 266.731 114.711 267.077 113.505C267.422 112.3 265.745 112.071 265.745 112.071C265.745 112.071 267.315 108.744 263.233 108.782C262.134 108.782 261.742 106.974 259.939 106.566C259.939 106.566 259.047 106.487 258.146 108.826L256.168 111.754L257.163 112.287C256.897 113.483 256.83 114.714 256.965 115.931C256.987 116.114 257.06 116.287 257.177 116.43C257.294 116.572 257.449 116.678 257.625 116.735C258.006 116.859 258.398 116.944 258.796 116.989L258.482 120.944C258.411 121.799 258.153 122.628 257.726 123.372C257.299 124.116 256.713 124.757 256.011 125.25C255.16 125.844 254.278 126.392 253.37 126.892C258.611 127.436 263.907 127.127 269.049 125.975C269.049 125.975 267.425 125.096 265.956 124.13Z" fill="white"/>
<path d="M258.234 127.623C256.586 127.637 254.939 127.551 253.301 127.366C253.202 127.352 253.11 127.308 253.039 127.239C252.967 127.17 252.919 127.08 252.901 126.982C252.884 126.884 252.898 126.783 252.942 126.694C252.985 126.604 253.056 126.531 253.144 126.484C254.036 125.992 254.902 125.454 255.738 124.871C256.385 124.42 256.925 123.831 257.317 123.146C257.71 122.462 257.946 121.699 258.008 120.913L258.291 117.394C258.016 117.344 257.746 117.276 257.48 117.19C257.219 117.106 256.987 116.948 256.813 116.735C256.639 116.522 256.529 116.264 256.497 115.991C256.369 114.84 256.414 113.676 256.633 112.539L255.948 112.162C255.889 112.13 255.839 112.085 255.799 112.03C255.759 111.976 255.732 111.914 255.719 111.848C255.703 111.785 255.701 111.719 255.713 111.655C255.724 111.591 255.749 111.529 255.785 111.475L257.735 108.591C258.711 106.102 259.785 106.08 259.989 106.08H260.052C261.158 106.331 261.789 107.021 262.298 107.586C262.69 108.019 262.948 108.286 263.24 108.286H263.318C264.731 108.286 265.698 108.675 266.188 109.444C266.678 110.213 266.54 111.145 266.377 111.72C266.786 111.844 267.143 112.099 267.394 112.445C267.503 112.617 267.572 112.81 267.598 113.012C267.623 113.214 267.604 113.419 267.542 113.612C267.187 114.846 265.501 115.003 264.716 115.009L264.59 120.558C264.572 121.18 264.712 121.796 264.998 122.348C265.285 122.899 265.707 123.369 266.226 123.713C267.655 124.654 269.259 125.536 269.275 125.545C269.359 125.591 269.427 125.662 269.47 125.747C269.513 125.833 269.529 125.929 269.516 126.024C269.503 126.119 269.461 126.207 269.396 126.278C269.331 126.348 269.246 126.397 269.153 126.418C265.569 127.221 261.907 127.626 258.234 127.623ZM254.868 126.569C259.175 126.86 263.503 126.595 267.743 125.781C267.159 125.439 266.414 124.987 265.708 124.525C265.057 124.095 264.526 123.506 264.166 122.813C263.806 122.121 263.629 121.348 263.651 120.568L263.786 114.658C263.787 114.595 263.801 114.533 263.827 114.476C263.853 114.419 263.89 114.367 263.937 114.325L264.053 114.215C264.099 114.17 264.154 114.135 264.215 114.113C264.276 114.091 264.34 114.082 264.405 114.086C265.058 114.127 266.455 114.011 266.634 113.38C266.66 113.317 266.671 113.248 266.666 113.18C266.66 113.112 266.639 113.046 266.603 112.988C266.421 112.702 265.871 112.564 265.692 112.539C265.616 112.529 265.543 112.501 265.479 112.458C265.416 112.414 265.364 112.356 265.328 112.288C265.294 112.222 265.277 112.15 265.277 112.076C265.277 112.002 265.294 111.93 265.328 111.864C265.328 111.864 265.862 110.706 265.388 109.981C264.995 109.372 264.009 109.256 263.249 109.259H263.233C262.517 109.259 262.049 108.747 261.6 108.248C261.151 107.749 260.69 107.25 259.924 107.049C259.789 107.097 259.223 107.363 258.595 109.002C258.582 109.035 258.565 109.067 258.545 109.096L256.856 111.607L257.392 111.902C257.481 111.951 257.552 112.027 257.593 112.119C257.635 112.211 257.646 112.314 257.625 112.413C257.368 113.558 257.304 114.738 257.433 115.904C257.445 115.997 257.483 116.086 257.543 116.159C257.603 116.231 257.683 116.286 257.772 116.315C258.123 116.426 258.484 116.503 258.85 116.547C258.971 116.561 259.082 116.622 259.16 116.716C259.238 116.81 259.276 116.931 259.267 117.052L258.953 121.007C258.88 121.931 258.602 122.828 258.141 123.632C257.679 124.436 257.045 125.128 256.284 125.658C255.775 125.994 255.279 126.308 254.868 126.569Z" fill="black"/>
<path d="M258.796 116.996C258.796 116.996 261.39 117.087 262.423 115.674L258.796 116.996Z" fill="white"/>
<path d="M258.899 117.47H258.78C258.718 117.468 258.657 117.453 258.601 117.428C258.544 117.402 258.494 117.366 258.451 117.321C258.409 117.275 258.376 117.222 258.354 117.164C258.333 117.107 258.322 117.045 258.324 116.983C258.33 116.859 258.384 116.742 258.475 116.657C258.566 116.572 258.687 116.525 258.811 116.528C258.836 116.528 261.173 116.591 262.043 115.401C262.078 115.349 262.124 115.304 262.177 115.27C262.23 115.236 262.29 115.213 262.352 115.202C262.414 115.191 262.478 115.193 262.54 115.207C262.601 115.222 262.659 115.249 262.71 115.286C262.761 115.323 262.804 115.37 262.837 115.425C262.869 115.479 262.89 115.539 262.899 115.602C262.907 115.664 262.903 115.728 262.887 115.789C262.87 115.85 262.842 115.907 262.802 115.957C261.76 117.379 259.458 117.47 258.899 117.47Z" fill="black"/>
<path d="M311.985 159.596H287.155L305.563 131.298C305.853 130.86 306.247 130.501 306.711 130.254C307.174 130.006 307.692 129.877 308.217 129.88H328.371C328.657 129.87 328.941 129.939 329.191 130.079C329.442 130.219 329.649 130.425 329.79 130.674C329.932 130.924 330.002 131.207 329.994 131.493C329.985 131.78 329.899 132.059 329.743 132.299L311.985 159.596Z" fill="black"/>
<path d="M317.282 139.801C316.475 141.056 314.742 142.048 313.407 142.048C312.072 142.048 311.645 141.04 312.465 139.801C313.285 138.561 315.008 137.556 316.34 137.556C317.671 137.556 318.083 138.561 317.282 139.801Z" fill="#52A5D8"/>
<path d="M309.51 161.959H268.169C267.488 161.959 266.835 161.689 266.353 161.207C265.871 160.726 265.601 160.073 265.601 159.392H312.076C312.076 159.729 312.01 160.063 311.882 160.374C311.753 160.686 311.564 160.969 311.326 161.207C311.087 161.446 310.804 161.635 310.493 161.764C310.182 161.893 309.848 161.959 309.51 161.959Z" fill="black"/>
<path d="M310.695 160.092H289.369C289.245 160.092 289.125 160.042 289.036 159.954C288.948 159.866 288.898 159.746 288.898 159.621C288.898 159.496 288.948 159.376 289.036 159.288C289.125 159.2 289.245 159.15 289.369 159.15H310.695C310.82 159.15 310.94 159.2 311.028 159.288C311.116 159.376 311.166 159.496 311.166 159.621C311.166 159.746 311.116 159.866 311.028 159.954C310.94 160.042 310.82 160.092 310.695 160.092Z" fill="white"/>
<path opacity="0.71" d="M223.872 105.995C233.538 96.3338 233.538 80.6701 223.872 71.009C214.206 61.3479 198.534 61.3479 188.868 71.009C179.202 80.6701 179.202 96.3338 188.868 105.995C198.534 115.656 214.206 115.656 223.872 105.995Z" fill="white"/>
<path d="M206.352 109.997C203.717 109.999 201.105 109.515 198.646 108.569C198.529 108.524 198.435 108.434 198.385 108.32C198.334 108.206 198.331 108.076 198.376 107.96C198.421 107.843 198.51 107.749 198.624 107.699C198.739 107.648 198.868 107.645 198.985 107.69C203.776 109.521 209.076 109.507 213.857 107.652C213.915 107.629 213.976 107.617 214.038 107.618C214.1 107.619 214.161 107.632 214.218 107.657C214.275 107.682 214.326 107.718 214.369 107.763C214.411 107.808 214.445 107.861 214.466 107.919C214.512 108.035 214.509 108.164 214.459 108.278C214.409 108.393 214.315 108.482 214.199 108.528C211.923 109.417 209.511 109.91 207.068 109.984C206.829 109.993 206.606 109.997 206.352 109.997Z" fill="#CADDFF"/>
<path d="M184.728 87.5369H184.69C184.566 87.5265 184.452 87.4675 184.371 87.3728C184.29 87.2782 184.251 87.1555 184.26 87.0316C184.52 83.8643 185.474 80.7931 187.055 78.0362C187.084 77.9795 187.124 77.9293 187.173 77.8886C187.222 77.8479 187.279 77.8176 187.34 77.7995C187.401 77.7814 187.465 77.7758 187.529 77.7832C187.592 77.7906 187.653 77.8107 187.708 77.8423C187.764 77.874 187.812 77.9166 187.85 77.9674C187.889 78.0183 187.916 78.0764 187.932 78.1382C187.947 78.2001 187.949 78.2644 187.939 78.3272C187.929 78.3901 187.906 78.4501 187.871 78.5039C187.529 79.1065 187.209 79.7311 186.929 80.3682C185.972 82.4992 185.388 84.7785 185.202 87.1069C185.192 87.2251 185.137 87.335 185.049 87.4148C184.962 87.4945 184.847 87.5381 184.728 87.5369Z" fill="#CADDFF"/>
<path d="M227.931 85.6383C227.82 85.6385 227.713 85.5996 227.628 85.5284C227.543 85.4572 227.486 85.3583 227.466 85.2491C225.714 75.2055 218.57 71.2194 216.221 69.9106C214.183 68.7675 211.965 67.9819 209.661 67.588C209.536 67.5672 209.425 67.4976 209.351 67.3946C209.278 67.2916 209.248 67.1636 209.269 67.0387C209.29 66.9139 209.359 66.8024 209.462 66.7288C209.565 66.6552 209.693 66.6256 209.818 66.6464C212.227 67.0598 214.548 67.8814 216.68 69.0757C219.126 70.441 226.565 74.5934 228.396 85.0828C228.407 85.1438 228.405 85.2063 228.392 85.2668C228.379 85.3273 228.353 85.3846 228.318 85.4353C228.282 85.4861 228.237 85.5293 228.185 85.5625C228.132 85.5957 228.074 85.6183 228.013 85.6289C227.986 85.6352 227.959 85.6383 227.931 85.6383Z" fill="#CADDFF"/>
<path d="M178.687 88.5005C178.687 104.04 191.173 116.638 206.575 116.638C221.978 116.638 234.461 104.04 234.461 88.5005C234.461 72.9611 221.975 60.3657 206.575 60.3657C191.176 60.3657 178.687 72.9611 178.687 88.5005ZM182.364 88.5005C182.364 75.0043 193.204 64.0725 206.575 64.0725C219.946 64.0725 230.787 75.0106 230.787 88.5005C230.787 101.99 219.946 112.916 206.575 112.916C193.204 112.916 182.364 101.99 182.364 88.5005Z" fill="black"/>
<path d="M180.906 123.81C181.091 123.947 181.302 124.046 181.525 124.102C181.749 124.157 181.982 124.167 182.209 124.132C182.437 124.097 182.655 124.016 182.852 123.896C183.048 123.775 183.218 123.617 183.353 123.43L191.495 112.216L188.669 110.128L180.542 121.343C180.266 121.719 180.149 122.189 180.217 122.651C180.285 123.113 180.533 123.529 180.906 123.81Z" fill="black"/>
<path d="M91.3357 236.755L84.7946 241.937L79.9272 236.043L86.6222 231.046L91.3357 236.755Z" fill="#52A5D8"/>
<path d="M128.349 243.921L128.108 248.465H120.502L120.986 243.921H128.349Z" fill="#52A5D8"/>
<path d="M127.81 248.302H120.747C120.501 248.303 120.262 248.377 120.058 248.514C119.854 248.652 119.696 248.847 119.604 249.074C118.976 250.609 117.704 254.2 117.874 257.605C117.896 258.052 118.088 258.474 118.412 258.783C118.736 259.092 119.166 259.264 119.614 259.266H140.339C140.564 259.265 140.786 259.214 140.989 259.118C141.192 259.021 141.371 258.881 141.513 258.707C141.655 258.532 141.756 258.329 141.81 258.111C141.864 257.893 141.869 257.665 141.824 257.445C141.595 256.318 140.807 254.834 138.537 253.5C134.856 251.34 130.234 249.181 128.777 248.513C128.473 248.373 128.143 248.301 127.81 248.302Z" fill="white"/>
<path d="M140.348 259.736H119.623C119.055 259.737 118.509 259.518 118.1 259.125C117.69 258.733 117.448 258.197 117.424 257.63C117.245 254.09 118.599 250.342 119.189 248.895C119.315 248.582 119.532 248.313 119.811 248.123C120.091 247.934 120.421 247.832 120.759 247.831H127.822C128.221 247.83 128.615 247.917 128.977 248.086C130.337 248.713 135.06 250.91 138.781 253.107C141.265 254.564 142.059 256.227 142.292 257.363C142.35 257.652 142.343 257.95 142.272 258.235C142.201 258.521 142.068 258.788 141.882 259.016C141.696 259.244 141.461 259.428 141.196 259.554C140.93 259.681 140.639 259.748 140.345 259.749L140.348 259.736ZM120.762 248.773C120.611 248.773 120.462 248.819 120.336 248.904C120.21 248.989 120.113 249.109 120.056 249.25C119.491 250.64 118.194 254.231 118.36 257.583C118.375 257.907 118.514 258.213 118.747 258.438C118.981 258.663 119.292 258.791 119.616 258.795H140.342C140.497 258.793 140.649 258.758 140.789 258.691C140.928 258.624 141.051 258.527 141.149 258.407C141.247 258.288 141.317 258.148 141.354 257.997C141.392 257.847 141.396 257.691 141.366 257.539C141.089 256.177 140.028 254.922 138.301 253.905C134.617 251.745 129.932 249.561 128.582 248.942C128.343 248.83 128.082 248.773 127.819 248.773H120.762Z" fill="black"/>
<path d="M129.436 254.947C129.343 254.947 129.252 254.92 129.175 254.868C129.071 254.799 128.998 254.692 128.973 254.57C128.948 254.447 128.972 254.32 129.04 254.215L131.866 249.953C131.9 249.901 131.944 249.856 131.995 249.821C132.046 249.786 132.104 249.762 132.164 249.749C132.225 249.736 132.288 249.736 132.349 249.748C132.41 249.76 132.468 249.784 132.519 249.818C132.623 249.887 132.696 249.995 132.721 250.117C132.746 250.239 132.722 250.366 132.654 250.471L129.828 254.733C129.785 254.799 129.727 254.852 129.659 254.89C129.59 254.927 129.514 254.946 129.436 254.947Z" fill="black"/>
<path d="M132.161 256.569C132.076 256.569 131.992 256.546 131.919 256.503C131.846 256.459 131.786 256.396 131.746 256.321C131.706 256.246 131.686 256.162 131.69 256.077C131.694 255.991 131.721 255.909 131.769 255.838L134.595 251.576C134.667 251.479 134.773 251.414 134.891 251.393C135.01 251.372 135.132 251.397 135.233 251.464C135.333 251.53 135.404 251.632 135.432 251.749C135.459 251.867 135.441 251.99 135.38 252.094L132.554 256.359C132.51 256.423 132.452 256.476 132.383 256.513C132.315 256.55 132.239 256.569 132.161 256.569Z" fill="black"/>
<path d="M84.6853 242.072L80.3141 236.476C80.1638 236.283 79.959 236.139 79.7262 236.063C79.4934 235.987 79.2432 235.982 79.0077 236.049C77.4376 236.504 73.8389 237.719 71.2953 239.963C70.9609 240.262 70.7524 240.676 70.7122 241.123C70.672 241.569 70.8029 242.014 71.0786 242.367L83.9096 258.779C84.0469 258.957 84.2221 259.101 84.4224 259.202C84.6227 259.303 84.8431 259.358 85.0674 259.363C85.2917 259.368 85.5142 259.322 85.7187 259.23C85.9232 259.138 86.1044 259.001 86.2491 258.83C86.9839 257.951 87.6496 256.407 87.2822 253.783C86.6825 249.53 85.5018 244.53 85.1187 242.964C85.041 242.639 84.893 242.334 84.6853 242.072Z" fill="white"/>
<path d="M85.1059 259.834H85.0808C84.7846 259.829 84.4933 259.758 84.2282 259.626C83.963 259.494 83.7308 259.304 83.5484 259.071L70.7173 242.656C70.3664 242.209 70.1995 241.645 70.2508 241.079C70.3022 240.513 70.5679 239.988 70.9936 239.611C73.6377 237.276 77.3935 236.027 78.8851 235.597C79.211 235.503 79.5576 235.509 79.8801 235.615C80.2025 235.72 80.486 235.919 80.6939 236.187L85.0682 241.78C85.3135 242.097 85.4901 242.462 85.5864 242.85C85.9412 244.313 87.1565 249.417 87.7562 253.716C88.1613 256.585 87.3605 258.246 86.6194 259.134C86.4341 259.354 86.2023 259.531 85.9407 259.652C85.6791 259.773 85.3941 259.835 85.1059 259.834ZM79.3435 236.473C79.2735 236.473 79.2038 236.482 79.1363 236.501C77.7044 236.912 74.1119 238.108 71.5998 240.314C71.3542 240.533 71.2012 240.837 71.172 241.164C71.1429 241.491 71.2397 241.817 71.4427 242.075L84.2768 258.49C84.3706 258.612 84.4903 258.711 84.6273 258.78C84.7643 258.85 84.9151 258.888 85.0686 258.891C85.2222 258.895 85.3746 258.864 85.5147 258.801C85.6548 258.738 85.7791 258.645 85.8784 258.528C86.7671 257.467 87.0905 255.848 86.8205 253.848C86.2238 249.592 85.0211 244.527 84.6662 243.073C84.6043 242.814 84.4865 242.57 84.3208 242.361L79.9496 236.768C79.8781 236.675 79.7862 236.601 79.6811 236.549C79.576 236.498 79.4605 236.472 79.3435 236.473Z" fill="black"/>
<path d="M80.8911 247.652C80.7661 247.657 80.6444 247.613 80.5525 247.528C80.4606 247.443 80.4063 247.325 80.4013 247.2C80.3963 247.076 80.441 246.954 80.5258 246.862C80.6106 246.77 80.7285 246.716 80.8534 246.711L85.9155 246.303C86.0404 246.293 86.1642 246.333 86.2596 246.414C86.355 246.495 86.4142 246.611 86.4242 246.736C86.4342 246.861 86.3942 246.984 86.3129 247.08C86.2316 247.175 86.1157 247.234 85.9908 247.244L80.9288 247.652H80.8911Z" fill="black"/>
<path d="M81.312 250.816C81.1871 250.821 81.0654 250.776 80.9735 250.692C80.8816 250.607 80.8272 250.489 80.8222 250.364C80.8172 250.239 80.862 250.118 80.9468 250.026C81.0316 249.934 81.1494 249.879 81.2743 249.874L86.3364 249.466C86.3979 249.461 86.4598 249.468 86.5186 249.487C86.5773 249.506 86.6317 249.536 86.6787 249.576C86.7257 249.616 86.7643 249.665 86.7924 249.72C86.8204 249.775 86.8373 249.835 86.842 249.896C86.8472 249.958 86.8402 250.02 86.8213 250.079C86.8025 250.138 86.7722 250.193 86.7323 250.24C86.6923 250.287 86.6435 250.326 86.5885 250.354C86.5335 250.383 86.4734 250.4 86.4118 250.405L81.3498 250.813L81.312 250.816Z" fill="black"/>
<path d="M111.584 169.52C111.584 169.52 109.154 177.414 108.35 188.945C107.546 200.476 90.3657 213.508 84.4087 231.047L90.7331 238.702C90.7331 238.702 109.832 223.95 113.497 217.852C117.369 211.415 122.029 198.041 122.029 198.041L118.697 173.34L118.113 173.202C116.615 172.827 115.163 172.289 113.782 171.598C112.856 171.144 112.089 170.42 111.584 169.52Z" fill="black"/>
<path d="M113.487 171.607C113.487 171.607 111.81 182.046 117.12 190.574C121.129 197.043 122.512 204.798 120.986 212.253C120.019 216.647 117.604 229.794 120.986 243.922C123.363 244.793 125.973 244.793 128.35 243.922C128.35 243.922 138.609 220.535 139.093 206.164C139.576 191.792 133.541 172.304 133.541 172.304C133.541 172.304 121.448 175.917 113.487 171.607Z" fill="black"/>
<path d="M178.146 125.718C177.979 125.609 177.837 125.466 177.728 125.298C177.62 125.131 177.548 124.942 177.518 124.745C177.314 123.402 177.034 120.257 178.51 118.427C180.426 116.051 183.71 115.113 184.094 115.775C184.477 116.437 179.606 120.69 181.248 123.176C181.248 123.176 182.753 123.65 184.891 121.873C184.961 121.817 185.045 121.78 185.134 121.765C185.223 121.751 185.314 121.76 185.398 121.792C185.483 121.824 185.557 121.877 185.615 121.946C185.672 122.015 185.711 122.098 185.726 122.187C185.821 122.721 185.774 123.53 185.19 124.626C184.442 126.023 183.082 126.986 182.219 127.491C181.994 127.622 181.737 127.688 181.477 127.681C181.216 127.674 180.963 127.594 180.746 127.451L178.146 125.718Z" fill="white"/>
<path d="M181.522 128.141C181.156 128.139 180.798 128.03 180.492 127.827L177.886 126.107C177.666 125.961 177.479 125.77 177.337 125.548C177.194 125.325 177.1 125.075 177.06 124.814C176.805 123.138 176.604 120.044 178.149 118.126C179.839 116.032 182.486 115.006 183.683 115.1C183.846 115.096 184.008 115.134 184.152 115.211C184.297 115.287 184.419 115.399 184.508 115.536C184.791 116.023 184.377 116.588 183.544 117.715C182.467 119.177 180.863 121.359 181.553 122.752C181.955 122.796 183.076 122.771 184.596 121.497C184.729 121.387 184.888 121.314 185.057 121.285C185.226 121.256 185.4 121.271 185.562 121.33C185.723 121.388 185.867 121.488 185.978 121.619C186.089 121.751 186.164 121.908 186.195 122.077C186.342 122.893 186.144 123.816 185.611 124.817C184.835 126.274 183.472 127.281 182.47 127.868C182.185 128.043 181.857 128.137 181.522 128.141ZM183.513 116.029C182.697 116.029 180.373 116.861 178.884 118.722C177.515 120.417 177.804 123.449 177.992 124.686C178.011 124.818 178.058 124.944 178.13 125.056C178.201 125.169 178.296 125.265 178.407 125.338L181.013 127.058C181.157 127.154 181.324 127.206 181.496 127.211C181.669 127.215 181.839 127.171 181.987 127.084C182.728 126.654 184.072 125.731 184.782 124.403C185.319 123.396 185.344 122.686 185.268 122.272C185.268 122.272 185.268 122.25 185.24 122.244C185.212 122.237 185.202 122.244 185.199 122.244C182.888 124.165 181.186 123.656 181.117 123.634L180.957 123.584L180.866 123.446C179.591 121.516 181.516 118.901 182.791 117.169C183.076 116.779 183.419 116.315 183.573 116.039L183.513 116.029Z" fill="black"/>
<path d="M101.755 163.08C101.755 163.08 93.4235 162.308 91.3415 163.501C89.2596 164.693 89.4574 166.162 90.3713 166.793C91.0715 167.28 95.4521 166.969 97.3771 166.793C97.4084 166.792 97.4393 166.801 97.4645 166.82C97.4898 166.839 97.5079 166.865 97.516 166.896C97.524 166.926 97.5215 166.958 97.5088 166.987C97.4961 167.016 97.474 167.039 97.4461 167.054C96.3376 167.54 94.5509 168.453 94.7424 169.251C95.0219 170.371 102.031 168.127 102.031 168.127L101.755 163.08Z" fill="white"/>
<path d="M95.6223 170.016C95.2992 170.036 94.9761 169.977 94.6802 169.846C94.5844 169.797 94.5001 169.728 94.433 169.643C94.3659 169.559 94.3175 169.461 94.2909 169.357C94.1338 168.729 94.6048 168.082 95.7353 167.401C90.8962 167.715 90.309 167.32 90.1049 167.175C89.832 166.992 89.6105 166.742 89.4615 166.45C89.3126 166.157 89.2411 165.831 89.2539 165.502C89.2759 164.985 89.5491 163.983 91.1129 163.092C93.2608 161.862 100.932 162.53 101.79 162.612L102.192 162.646L102.506 168.459L102.16 168.569C100.976 168.952 97.4845 170.016 95.6223 170.016ZM95.2141 169.074C95.9112 169.284 98.8975 168.619 101.542 167.797L101.306 163.528C98.7688 163.318 93.0912 163.057 91.5714 163.924C90.7015 164.42 90.2085 165 90.1834 165.559C90.1781 165.73 90.217 165.899 90.2962 166.05C90.3754 166.201 90.4923 166.329 90.6356 166.422C90.8962 166.585 92.6045 166.755 97.3337 166.35C97.4761 166.34 97.6173 166.38 97.7329 166.464C97.8485 166.548 97.9311 166.669 97.9662 166.807C98.0014 166.946 97.9869 167.092 97.9252 167.22C97.8636 167.349 97.7587 167.452 97.6289 167.511C95.8201 168.29 95.3051 168.854 95.2141 169.058V169.074Z" fill="black"/>
<path d="M119.776 155.817C122.514 146.072 126.86 133.081 134.425 131.132L134.303 125.222C134.303 125.222 147.806 127.733 148.876 135.404C154.903 137.013 161.306 136.407 166.923 133.696C170.334 132.042 173.832 128.301 177.239 124.553L182.854 128.207C182.854 128.207 171.122 156.954 144.725 149.01C144.725 149.01 136.636 155.08 137.763 170.183C137.763 170.183 127.086 178.893 112.412 170.977C112.4 170.961 117.041 165.56 119.776 155.817Z" fill="#52A5D8"/>
<path d="M100.467 161.947L101.073 169.376C101.073 169.376 121.714 181.639 137.5 144.773L123.978 143.392C123.978 143.392 119.309 157.845 100.467 161.947Z" fill="#52A5D8"/>
<path d="M112.63 171.903C112.505 171.917 112.38 171.881 112.281 171.803C112.183 171.724 112.12 171.61 112.106 171.485C112.091 171.36 112.127 171.235 112.206 171.137C112.284 171.038 112.398 170.975 112.523 170.961C124.4 168.136 129.082 161.809 132.841 156.721C132.876 156.668 132.922 156.622 132.975 156.587C133.028 156.552 133.088 156.529 133.151 156.517C133.214 156.506 133.279 156.508 133.341 156.523C133.403 156.537 133.462 156.564 133.513 156.602C133.564 156.64 133.608 156.688 133.64 156.743C133.672 156.799 133.693 156.86 133.701 156.923C133.709 156.986 133.703 157.051 133.686 157.112C133.668 157.173 133.638 157.23 133.597 157.28C129.747 162.49 124.955 168.977 112.74 171.878C112.704 171.891 112.668 171.899 112.63 171.903Z" fill="black"/>
<path d="M140.15 140.378H140.131C140.069 140.376 140.008 140.361 139.952 140.336C139.896 140.31 139.845 140.273 139.803 140.227C139.761 140.182 139.729 140.129 139.707 140.071C139.686 140.012 139.676 139.951 139.679 139.889C139.846 135.842 138.837 131.834 136.774 128.348C136.704 128.244 136.678 128.117 136.702 127.995C136.726 127.872 136.797 127.764 136.901 127.694C137.005 127.624 137.132 127.598 137.255 127.622C137.378 127.646 137.486 127.717 137.556 127.821C139.751 131.465 140.817 135.677 140.621 139.927C140.615 140.048 140.563 140.162 140.476 140.246C140.388 140.331 140.271 140.378 140.15 140.378Z" fill="black"/>
<path d="M145.127 148.978C145.061 148.978 144.996 148.964 144.936 148.937C144.876 148.91 144.822 148.871 144.779 148.821C144.737 148.776 144.704 148.722 144.683 148.664C144.662 148.605 144.653 148.543 144.656 148.481C144.66 148.419 144.675 148.359 144.702 148.303C144.729 148.247 144.767 148.197 144.813 148.156C148.167 145.152 148.079 141.904 148.079 141.879C148.074 141.754 148.118 141.633 148.202 141.541C148.286 141.449 148.404 141.395 148.528 141.389C148.652 141.387 148.771 141.432 148.862 141.516C148.953 141.599 149.009 141.715 149.018 141.838C149.018 141.988 149.147 145.551 145.441 148.868C145.354 148.943 145.242 148.982 145.127 148.978Z" fill="black"/>
<path d="M151.025 118.879C151.025 118.879 154.699 118.122 154.338 120.473C153.976 122.824 153.845 128.367 151.96 129.048C150.076 129.729 148.016 127.058 146.719 128.244C145.422 129.431 144.521 131.204 143.893 133.401C143.198 133.655 142.444 133.701 141.723 133.533C139.783 133.062 139.029 131.141 138.954 130.944C139.493 130.372 139.987 129.76 140.433 129.114C141.208 128.003 142.062 126.499 142.373 124.933L151.025 118.879Z" fill="white"/>
<path d="M142.546 134.104C142.222 134.105 141.899 134.067 141.585 133.991C139.421 133.464 138.576 131.349 138.488 131.107L138.385 130.834L138.589 130.62C139.109 130.064 139.588 129.47 140.021 128.844C140.702 127.868 141.591 126.38 141.886 124.842L141.924 124.657L150.814 118.436L150.908 118.417C151.15 118.367 153.298 117.959 154.309 118.919C154.519 119.128 154.673 119.387 154.756 119.671C154.839 119.956 154.848 120.256 154.783 120.545C154.711 121.007 154.648 121.616 154.579 122.262C154.265 125.197 153.885 128.853 152.101 129.481C151.008 129.877 149.935 129.365 148.989 128.916C148.044 128.467 147.419 128.204 147.017 128.58C145.865 129.638 144.982 131.254 144.32 133.524L144.254 133.753L144.028 133.834C143.553 134.009 143.051 134.1 142.546 134.104ZM139.484 131.041C139.741 131.578 140.445 132.745 141.808 133.075C142.362 133.206 142.941 133.19 143.488 133.028C144.191 130.715 145.139 129.032 146.383 127.896C147.287 127.071 148.405 127.604 149.394 128.075C150.214 128.464 151.056 128.866 151.781 128.605C153.009 128.163 153.405 124.406 153.643 122.162C153.712 121.506 153.778 120.887 153.854 120.401C153.895 120.263 153.898 120.116 153.864 119.976C153.83 119.836 153.759 119.707 153.659 119.604C153.134 119.102 151.756 119.224 151.191 119.321L142.772 125.212C142.387 126.717 141.715 128.133 140.793 129.384C140.393 129.962 139.958 130.516 139.49 131.041H139.484Z" fill="black"/>
<path d="M150.71 125.187C150.656 125.187 150.601 125.178 150.55 125.159C149.193 124.666 148.729 122.996 148.87 121.559C148.999 120.253 149.583 119.334 150.358 119.214C151.753 119.004 152.488 120.649 152.701 121.653C152.721 121.773 152.694 121.895 152.626 121.996C152.558 122.096 152.454 122.166 152.336 122.192C152.217 122.217 152.093 122.196 151.99 122.132C151.887 122.069 151.812 121.968 151.781 121.851C151.781 121.829 151.348 120.021 150.5 120.147C150.236 120.187 149.897 120.774 149.809 121.65C149.705 122.692 149.994 123.954 150.873 124.274C150.978 124.312 151.065 124.385 151.121 124.481C151.176 124.577 151.196 124.69 151.176 124.799C151.157 124.908 151.099 125.007 151.014 125.078C150.929 125.149 150.821 125.188 150.71 125.187Z" fill="black"/>
<path d="M151.888 120.737C151.888 120.737 155.656 121.437 155.54 117.702C155.424 113.967 152.774 110.304 145.692 111.763C145.692 111.763 144.081 106.851 139.977 108.273C135.873 109.695 137.201 116.148 141.306 116.716C141.306 116.716 137.873 123.028 142.248 125.335C143.362 125.895 144.639 126.044 145.853 125.755C147.143 125.473 148.811 124.83 149.486 123.376C149.486 123.376 148.899 120.369 150.045 119.761C151.191 119.152 151.888 120.737 151.888 120.737Z" fill="black"/>
<path d="M82.6754 136.609C82.269 136.607 81.8673 136.523 81.4947 136.361C80.8633 136.087 80.3463 135.603 80.0318 134.992C79.7174 134.38 79.6249 133.678 79.7702 133.006C79.9154 132.334 80.2895 131.733 80.8285 131.305C81.3676 130.878 82.0382 130.65 82.7262 130.662C83.4143 130.673 84.077 130.922 84.6016 131.368C85.1261 131.813 85.4801 132.426 85.603 133.103C85.7259 133.779 85.6102 134.478 85.2756 135.079C84.941 135.68 84.4083 136.146 83.7682 136.398C83.4203 136.536 83.0496 136.608 82.6754 136.609ZM82.6754 131.587C82.4195 131.588 82.1659 131.637 81.928 131.731C81.4923 131.904 81.1299 132.221 80.9025 132.631C80.6751 133.04 80.5967 133.516 80.6807 133.977C80.7648 134.437 81.006 134.855 81.3634 135.158C81.7207 135.46 82.172 135.63 82.6405 135.638C83.109 135.645 83.5657 135.49 83.9327 135.199C84.2996 134.908 84.5542 134.499 84.6532 134.041C84.7521 133.583 84.6891 133.105 84.4751 132.689C84.261 132.272 83.9091 131.943 83.4793 131.756C83.2267 131.651 82.9553 131.599 82.6817 131.603L82.6754 131.587Z" fill="black"/>
<path d="M319.546 164.818C319.446 164.819 319.349 164.787 319.268 164.729C319.187 164.67 319.126 164.587 319.096 164.492C319.065 164.397 319.065 164.295 319.096 164.2C319.128 164.105 319.188 164.023 319.27 163.964L320.491 163.086C320.541 163.049 320.598 163.023 320.658 163.009C320.719 162.995 320.781 162.992 320.842 163.002C320.903 163.012 320.962 163.033 321.014 163.066C321.067 163.098 321.113 163.141 321.149 163.191C321.185 163.241 321.212 163.298 321.226 163.358C321.24 163.418 321.243 163.48 321.233 163.541C321.223 163.602 321.201 163.661 321.169 163.714C321.137 163.766 321.094 163.812 321.044 163.848L319.819 164.727C319.74 164.785 319.644 164.817 319.546 164.818Z" fill="black"/>
<path d="M315.257 167.895C315.158 167.894 315.061 167.862 314.981 167.804C314.901 167.746 314.842 167.663 314.811 167.569C314.78 167.475 314.78 167.373 314.811 167.279C314.841 167.185 314.901 167.103 314.981 167.044L316.205 166.162C316.307 166.089 316.433 166.06 316.557 166.08C316.68 166.1 316.79 166.169 316.863 166.27C316.936 166.372 316.966 166.498 316.945 166.622C316.925 166.745 316.857 166.855 316.755 166.928L315.533 167.807C315.453 167.864 315.356 167.894 315.257 167.895Z" fill="black"/>
<path d="M316.918 164.389C316.843 164.388 316.769 164.37 316.703 164.335C316.636 164.301 316.579 164.252 316.535 164.191L315.656 162.97C315.583 162.868 315.553 162.742 315.574 162.619C315.594 162.495 315.662 162.385 315.764 162.312C315.866 162.24 315.992 162.21 316.115 162.23C316.239 162.251 316.349 162.319 316.422 162.421L317.301 163.642C317.352 163.712 317.383 163.795 317.389 163.882C317.396 163.968 317.379 164.055 317.339 164.133C317.299 164.21 317.239 164.275 317.165 164.32C317.09 164.365 317.005 164.389 316.918 164.389Z" fill="black"/>
<path d="M319.995 168.666C319.92 168.667 319.847 168.65 319.78 168.616C319.713 168.582 319.656 168.533 319.612 168.472L318.733 167.248C318.66 167.146 318.63 167.02 318.651 166.897C318.671 166.773 318.74 166.663 318.841 166.59C318.943 166.517 319.069 166.488 319.193 166.508C319.316 166.529 319.426 166.597 319.499 166.699L320.378 167.923C320.415 167.973 320.441 168.03 320.455 168.09C320.469 168.15 320.471 168.213 320.46 168.274C320.45 168.335 320.428 168.393 320.395 168.445C320.362 168.498 320.319 168.543 320.268 168.579C320.189 168.636 320.093 168.667 319.995 168.666Z" fill="black"/>
<path d="M246.085 25.091C245.983 25.091 245.884 25.058 245.802 24.9969C245.677 24.9027 233.081 15.5998 209.69 14.269C209.565 14.2619 209.448 14.2055 209.364 14.1123C209.281 14.019 209.238 13.8964 209.245 13.7715C209.252 13.6467 209.309 13.5297 209.402 13.4464C209.496 13.3632 209.618 13.3203 209.743 13.3274C233.427 14.6739 246.226 24.1463 246.352 24.2436C246.402 24.2805 246.444 24.3268 246.476 24.38C246.507 24.4332 246.528 24.4922 246.537 24.5535C246.546 24.6148 246.542 24.6773 246.527 24.7372C246.511 24.7972 246.484 24.8534 246.446 24.9027C246.404 24.959 246.349 25.005 246.287 25.0376C246.224 25.0702 246.155 25.0884 246.085 25.091Z" fill="black"/>
<path d="M254.495 23.3333C254.379 23.3324 254.267 23.2888 254.181 23.2109C254.137 23.1701 249.568 19.0428 240.455 15.2074C232.042 11.667 217.911 7.65897 198.442 8.66647C198.317 8.67271 198.195 8.6291 198.102 8.54522C198.009 8.46135 197.954 8.34408 197.947 8.21921C197.941 8.09435 197.985 7.97212 198.069 7.87942C198.153 7.78671 198.27 7.73112 198.395 7.72488C218.078 6.70796 232.357 10.7725 240.867 14.36C250.111 18.2582 254.627 22.3447 254.815 22.5204C254.884 22.5844 254.933 22.6676 254.954 22.7593C254.975 22.851 254.969 22.9469 254.935 23.0347C254.901 23.1226 254.842 23.1983 254.764 23.2521C254.687 23.3058 254.596 23.3352 254.501 23.3365L254.495 23.3333Z" fill="black"/>
<path d="M193.65 11.1271C193.535 11.1296 193.423 11.0894 193.336 11.0142L192.227 10.0726C192.132 9.99182 192.072 9.87652 192.062 9.75203C192.052 9.62754 192.091 9.50405 192.172 9.40874C192.253 9.31343 192.368 9.25409 192.493 9.24379C192.617 9.23349 192.741 9.27307 192.836 9.35381L193.945 10.2954C194.019 10.3584 194.071 10.4426 194.095 10.5365C194.119 10.6304 194.114 10.7294 194.079 10.82C194.045 10.9107 193.983 10.9885 193.903 11.0429C193.823 11.0973 193.728 11.1256 193.631 11.124L193.65 11.1271Z" fill="black"/>
<path d="M189.775 7.83474C189.66 7.83781 189.548 7.79872 189.461 7.72489L188.352 6.78329C188.305 6.74311 188.266 6.69402 188.238 6.63883C188.21 6.58364 188.193 6.52344 188.188 6.46165C188.183 6.39986 188.19 6.3377 188.209 6.27872C188.228 6.21974 188.259 6.16509 188.299 6.1179C188.339 6.07071 188.388 6.03189 188.443 6.00367C188.498 5.97544 188.559 5.95837 188.621 5.95341C188.682 5.94846 188.745 5.95573 188.804 5.97479C188.863 5.99386 188.917 6.02436 188.964 6.06454L190.07 7.00614C190.144 7.06912 190.196 7.15331 190.22 7.2472C190.244 7.3411 190.239 7.44013 190.204 7.53078C190.17 7.62142 190.108 7.69926 190.028 7.75366C189.948 7.80806 189.853 7.83638 189.756 7.83474H189.775Z" fill="black"/>
<path d="M192.334 7.63121C192.244 7.63019 192.157 7.60371 192.081 7.55486C192.006 7.50601 191.946 7.43679 191.909 7.35525C191.871 7.27372 191.858 7.18321 191.869 7.09427C191.881 7.00532 191.918 6.9216 191.976 6.85283L192.918 5.74803C192.958 5.70083 193.007 5.66202 193.063 5.63379C193.118 5.60557 193.178 5.5885 193.24 5.58354C193.302 5.57859 193.364 5.58585 193.423 5.60492C193.482 5.62398 193.537 5.65448 193.584 5.69467C193.631 5.73486 193.67 5.78394 193.698 5.83913C193.726 5.89432 193.743 5.95452 193.748 6.01631C193.753 6.0781 193.746 6.14026 193.727 6.19924C193.708 6.25822 193.677 6.31287 193.637 6.36006L192.695 7.46486C192.651 7.51707 192.595 7.55898 192.533 7.5877C192.471 7.61642 192.403 7.63127 192.334 7.63121Z" fill="black"/>
<path d="M189.04 11.5008C188.925 11.5033 188.813 11.463 188.726 11.3878C188.679 11.3477 188.64 11.2987 188.611 11.2435C188.583 11.1883 188.566 11.128 188.561 11.0662C188.556 11.0044 188.563 10.9422 188.583 10.8832C188.602 10.8242 188.632 10.7695 188.673 10.7224L189.615 9.61763C189.653 9.56597 189.702 9.52275 189.758 9.49065C189.814 9.45854 189.876 9.43823 189.94 9.43098C190.004 9.42372 190.068 9.42967 190.13 9.44846C190.192 9.46725 190.249 9.49847 190.298 9.54021C190.347 9.58194 190.387 9.6333 190.415 9.6911C190.444 9.7489 190.46 9.81191 190.463 9.87624C190.466 9.94057 190.456 10.0048 190.433 10.0651C190.411 10.1253 190.376 10.1803 190.331 10.2265L189.389 11.3345C189.346 11.3852 189.292 11.4263 189.232 11.455C189.172 11.4837 189.107 11.4993 189.04 11.5008Z" fill="black"/>
<path d="M81.4567 159.486C81.3568 159.486 81.2593 159.455 81.1783 159.396C81.0973 159.338 81.037 159.255 81.0063 159.16C80.9755 159.065 80.9758 158.963 81.0071 158.868C81.0384 158.773 81.0991 158.69 81.1804 158.632L82.402 157.753C82.4521 157.717 82.5088 157.691 82.569 157.677C82.6292 157.662 82.6916 157.66 82.7527 157.67C82.8138 157.679 82.8723 157.701 82.9251 157.734C82.9778 157.766 83.0235 157.808 83.0598 157.858C83.0961 157.909 83.1222 157.965 83.1366 158.025C83.1509 158.086 83.1532 158.148 83.1435 158.209C83.1337 158.27 83.112 158.329 83.0796 158.381C83.0472 158.434 83.0047 158.48 82.9546 158.516L81.73 159.395C81.6508 159.453 81.5551 159.485 81.4567 159.486Z" fill="black"/>
<path d="M77.1765 162.562C77.0774 162.562 76.9809 162.53 76.9009 162.472C76.8208 162.413 76.7612 162.331 76.7306 162.237C76.7 162.142 76.6998 162.041 76.7303 161.947C76.7607 161.852 76.8202 161.77 76.9002 161.711L78.1249 160.83C78.2265 160.757 78.3529 160.727 78.4763 160.747C78.5996 160.768 78.7099 160.836 78.7828 160.938C78.8556 161.039 78.8851 161.166 78.8648 161.289C78.8445 161.412 78.776 161.522 78.6744 161.595L77.4528 162.474C77.372 162.531 77.2755 162.562 77.1765 162.562Z" fill="black"/>
<path d="M78.8283 159.053C78.7533 159.053 78.6793 159.035 78.6127 159C78.5461 158.966 78.4887 158.916 78.4452 158.855L77.5659 157.634C77.493 157.533 77.4635 157.406 77.4838 157.283C77.5041 157.16 77.5726 157.05 77.6742 156.977C77.7758 156.904 77.9022 156.874 78.0256 156.895C78.149 156.915 78.2592 156.983 78.3321 157.085L79.2114 158.306C79.2624 158.376 79.2929 158.459 79.2996 158.546C79.3062 158.633 79.2888 158.72 79.2491 158.797C79.2094 158.874 79.1491 158.939 79.0749 158.984C79.0006 159.03 78.9152 159.053 78.8283 159.053Z" fill="black"/>
<path d="M81.9054 163.334C81.8306 163.334 81.7567 163.317 81.69 163.283C81.6233 163.249 81.5657 163.2 81.5223 163.139L80.6431 161.915C80.5702 161.813 80.5406 161.687 80.561 161.564C80.5813 161.441 80.6498 161.33 80.7514 161.258C80.853 161.185 80.9794 161.155 81.1027 161.175C81.2261 161.196 81.3364 161.264 81.4093 161.366L82.2885 162.59C82.3248 162.64 82.3507 162.697 82.3647 162.757C82.3788 162.817 82.3808 162.88 82.3706 162.941C82.3604 163.002 82.3381 163.06 82.3052 163.113C82.2722 163.165 82.2292 163.21 82.1786 163.246C82.0991 163.303 82.0034 163.334 81.9054 163.334Z" fill="black"/>
<path d="M151.7 238.588C151.498 238.588 151.296 238.573 151.097 238.541C150.141 238.388 149.281 237.872 148.697 237.099C148.114 236.327 147.852 235.359 147.966 234.398C148.08 233.437 148.562 232.558 149.311 231.944C150.059 231.33 151.016 231.029 151.981 231.105C152.947 231.18 153.845 231.626 154.489 232.348C155.133 233.071 155.473 234.015 155.436 234.982C155.4 235.949 154.99 236.864 154.294 237.536C153.598 238.209 152.668 238.586 151.7 238.588ZM151.7 232.035C151.183 232.035 150.676 232.178 150.234 232.448C149.793 232.718 149.436 233.104 149.2 233.565C148.965 234.025 148.862 234.542 148.902 235.057C148.942 235.572 149.123 236.067 149.426 236.485C149.697 236.86 150.055 237.162 150.47 237.364C150.885 237.567 151.344 237.664 151.805 237.647C152.267 237.63 152.717 237.5 153.116 237.268C153.515 237.035 153.851 236.708 154.093 236.315C154.335 235.922 154.477 235.475 154.505 235.014C154.533 234.553 154.447 234.093 154.254 233.673C154.062 233.254 153.768 232.888 153.401 232.609C153.033 232.33 152.602 232.145 152.146 232.073C151.995 232.047 151.843 232.035 151.69 232.035H151.7Z" fill="black"/>
</g>
<defs>
<filter id="filter0_f_1941_42681" x="-12" y="13" width="297" height="279" filterUnits="userSpaceOnUse" color-interpolation-filters="sRGB">
<feFlood flood-opacity="0" result="BackgroundImageFix"/>
<feBlend mode="normal" in="SourceGraphic" in2="BackgroundImageFix" result="shape"/>
<feGaussianBlur stdDeviation="25" result="effect1_foregroundBlur_1941_42681"/>
</filter>
<filter id="filter1_f_1941_42681" x="153" y="-13" width="278" height="278" filterUnits="userSpaceOnUse" color-interpolation-filters="sRGB">
<feFlood flood-opacity="0" result="BackgroundImageFix"/>
<feBlend mode="normal" in="SourceGraphic" in2="BackgroundImageFix" result="shape"/>
<feGaussianBlur stdDeviation="30" result="effect1_foregroundBlur_1941_42681"/>
</filter>
<clipPath id="clip0_1941_42681">
<rect width="400" height="260" fill="white"/>
</clipPath>
</defs>
</svg>
