<svg width="400" height="260" viewBox="0 0 400 260" fill="none" xmlns="http://www.w3.org/2000/svg">
<g clip-path="url(#clip0_2021_37891)">
<path d="M74.0016 213.063C81.6575 231.68 99.5506 240.486 110.987 246.112C156.065 268.294 224.548 265.694 273.848 225.227C285.385 215.757 342.25 166.149 329.015 98.9828C317.318 39.5981 258.452 5.14886 208.876 0.572132C167.802 -3.22145 114.164 11.7681 95.2057 47.9966C83.2833 70.7769 97.6052 78.0101 87.8536 129.629C79.4115 174.306 64.6384 190.298 74.0016 213.063Z" fill="#E5F6FF"/>
<g filter="url(#filter0_f_2021_37891)">
<ellipse cx="286.5" cy="122.5" rx="80.5" ry="89.5" fill="#B5E0FF" fill-opacity="0.6"/>
</g>
<g filter="url(#filter1_f_2021_37891)">
<circle cx="118" cy="149" r="79" fill="#FFE7C3" fill-opacity="0.6"/>
</g>
<path d="M230.52 228.059L74.3187 198.481C73.7884 198.431 73.2969 198.181 72.9436 197.782C72.5902 197.383 72.4012 196.865 72.4147 196.332C72.4147 195.624 72.4836 190.634 72.4836 190.634L154.824 143.313C158.977 140.941 164.347 140.024 169.092 140.631L323.852 169.833C324.31 169.892 324.744 170.07 325.112 170.348C325.481 170.627 325.769 170.997 325.95 171.422L326.201 172.004C326.201 172.004 326.066 176.168 326.122 177.139C326.148 177.542 326.058 177.944 325.864 178.298C325.67 178.653 325.38 178.945 325.026 179.14L244.233 225.349C240.078 227.72 235.264 228.671 230.52 228.059Z" fill="#A2D2EC"/>
<path d="M230.518 222.505L74.3389 193.102C73.892 193.035 73.4766 192.832 73.1497 192.52C72.8227 192.208 72.6002 191.803 72.5125 191.359C72.4247 190.916 72.476 190.456 72.6595 190.043C72.8429 189.63 73.1495 189.284 73.5372 189.052L153.899 143.137C158.051 140.764 162.862 139.809 167.605 140.418L323.788 169.833C324.235 169.899 324.652 170.102 324.98 170.414C325.307 170.727 325.531 171.133 325.618 171.577C325.706 172.021 325.654 172.482 325.47 172.895C325.286 173.309 324.978 173.655 324.589 173.887L244.228 219.783C240.075 222.157 235.262 223.113 230.518 222.505Z" fill="white"/>
<path d="M233.281 223.15C232.339 223.151 231.397 223.09 230.463 222.968L175.999 212.719C175.938 212.707 175.88 212.684 175.829 212.65C175.777 212.617 175.732 212.573 175.698 212.522C175.663 212.471 175.638 212.414 175.625 212.354C175.613 212.293 175.612 212.231 175.623 212.17C175.634 212.11 175.658 212.052 175.691 212C175.725 211.948 175.768 211.904 175.819 211.869C175.87 211.834 175.928 211.809 175.988 211.797C176.048 211.784 176.111 211.783 176.171 211.794L230.607 222.041C235.24 222.62 239.936 221.685 243.994 219.375L324.355 173.461C324.666 173.284 324.914 173.013 325.062 172.688C325.211 172.362 325.254 171.998 325.185 171.647C325.116 171.296 324.938 170.975 324.677 170.731C324.415 170.486 324.084 170.33 323.729 170.284L192.261 145.537C192.2 145.525 192.143 145.502 192.091 145.469C192.039 145.435 191.995 145.391 191.96 145.34C191.925 145.29 191.9 145.232 191.887 145.172C191.875 145.112 191.874 145.049 191.885 144.989C191.896 144.927 191.918 144.869 191.952 144.817C191.985 144.765 192.029 144.72 192.08 144.685C192.131 144.65 192.189 144.625 192.249 144.613C192.31 144.6 192.373 144.6 192.433 144.613L323.873 169.36C324.42 169.438 324.928 169.685 325.327 170.067C325.727 170.448 325.997 170.944 326.101 171.487C326.204 172.029 326.135 172.591 325.905 173.092C325.674 173.594 325.292 174.011 324.813 174.285L244.461 220.193C241.053 222.13 237.201 223.149 233.281 223.15Z" fill="black"/>
<path d="M261.099 197.018L125.672 170.172C125.262 170.12 124.879 169.941 124.577 169.659C124.275 169.378 124.069 169.008 123.989 168.603C123.908 168.198 123.958 167.778 124.129 167.402C124.301 167.026 124.587 166.714 124.946 166.51L156.787 148.501C160.538 146.358 164.885 145.496 169.169 146.045L304.596 172.891C305.005 172.943 305.389 173.122 305.691 173.404C305.993 173.685 306.199 174.055 306.279 174.46C306.359 174.865 306.31 175.285 306.139 175.661C305.967 176.037 305.681 176.349 305.322 176.553L273.481 194.562C269.73 196.705 265.383 197.567 261.099 197.018Z" fill="#E6F6FD"/>
<path d="M286.778 176.562H286.687L194.119 158.192C193.996 158.167 193.889 158.095 193.82 157.991C193.75 157.887 193.725 157.76 193.749 157.638C193.761 157.577 193.785 157.52 193.819 157.469C193.853 157.418 193.897 157.374 193.948 157.34C194 157.306 194.057 157.282 194.117 157.27C194.178 157.259 194.24 157.259 194.3 157.271L286.868 175.638C286.93 175.644 286.99 175.662 287.045 175.691C287.099 175.72 287.148 175.76 287.187 175.807C287.227 175.855 287.256 175.91 287.274 175.97C287.293 176.029 287.299 176.091 287.293 176.153C287.287 176.215 287.269 176.275 287.24 176.329C287.211 176.384 287.171 176.432 287.123 176.472C287.075 176.511 287.02 176.541 286.961 176.559C286.902 176.577 286.839 176.583 286.778 176.577V176.562Z" fill="#52A5D8"/>
<path d="M277.601 181.678C277.571 181.681 277.541 181.681 277.511 181.678L241.886 174.617C241.762 174.592 241.652 174.519 241.581 174.414C241.51 174.308 241.485 174.179 241.509 174.054C241.534 173.93 241.606 173.82 241.712 173.749C241.817 173.678 241.947 173.652 242.071 173.677L277.695 180.747C277.82 180.759 277.935 180.82 278.014 180.917C278.094 181.014 278.132 181.138 278.12 181.263C278.108 181.387 278.047 181.502 277.95 181.582C277.854 181.661 277.729 181.699 277.605 181.687L277.601 181.678Z" fill="#52A5D8"/>
<path d="M224.873 171.223C224.841 171.227 224.81 171.227 224.779 171.223L188.766 164.081C188.703 164.072 188.643 164.05 188.589 164.016C188.534 163.983 188.488 163.939 188.451 163.887C188.414 163.835 188.389 163.776 188.376 163.714C188.362 163.652 188.362 163.588 188.374 163.525C188.386 163.463 188.411 163.404 188.447 163.351C188.483 163.299 188.529 163.254 188.583 163.22C188.636 163.186 188.696 163.163 188.759 163.153C188.822 163.142 188.886 163.145 188.948 163.16L224.976 170.303C225.1 170.315 225.215 170.376 225.295 170.472C225.374 170.569 225.412 170.693 225.4 170.818C225.388 170.942 225.327 171.057 225.23 171.137C225.134 171.216 225.01 171.254 224.885 171.242L224.873 171.223Z" fill="#52A5D8"/>
<path d="M268.442 186.789H268.351L184.113 169.895C183.991 169.871 183.883 169.799 183.814 169.696C183.745 169.593 183.719 169.466 183.743 169.344C183.769 169.222 183.841 169.115 183.945 169.046C184.049 168.977 184.175 168.951 184.297 168.974L268.536 185.868C268.66 185.881 268.775 185.942 268.854 186.039C268.933 186.136 268.971 186.261 268.959 186.385C268.946 186.51 268.885 186.624 268.788 186.704C268.691 186.783 268.566 186.82 268.442 186.808V186.789Z" fill="#52A5D8"/>
<path d="M324.737 167.258L172.125 136.906C170.274 136.67 168.572 135.768 167.339 134.368C166.105 132.968 165.424 131.166 165.423 129.3L163.328 22.9574C163.328 22.9574 166.807 20.4513 168.78 19.4896C169.822 18.982 170.991 18.7914 172.14 18.9414L324.295 47.4732C326.147 47.7079 327.849 48.6099 329.083 50.01C330.317 51.4101 330.999 53.2124 331 55.0791V159.529C331 160.41 330.805 161.28 330.429 162.077C330.053 162.873 329.504 163.576 328.824 164.134C327.605 165.134 324.737 167.258 324.737 167.258Z" fill="#52A5D8"/>
<path d="M320.062 168.675L167.659 140.074C165.804 139.838 164.098 138.933 162.862 137.528C161.626 136.124 160.945 134.317 160.945 132.446V27.6732C160.945 26.825 161.126 25.9865 161.475 25.2135C161.824 24.4406 162.334 23.7509 162.97 23.1904C163.606 22.6299 164.355 22.2115 165.166 21.9631C165.976 21.7146 166.831 21.6418 167.672 21.7495L320.078 50.3658C321.934 50.603 323.64 51.5092 324.876 52.9146C326.112 54.32 326.793 56.1281 326.792 58V162.754C326.791 163.602 326.61 164.441 326.26 165.213C325.91 165.986 325.4 166.675 324.764 167.235C324.127 167.795 323.378 168.213 322.568 168.461C321.757 168.71 320.903 168.782 320.062 168.675Z" fill="#A2D2EC"/>
<path d="M316.838 164.358L171.3 136.628C169.951 136.456 168.711 135.797 167.812 134.776C166.913 133.755 166.418 132.441 166.418 131.08V30.0254C166.418 29.459 166.538 28.899 166.771 28.3827C167.005 27.8665 167.345 27.4058 167.77 27.0312C168.194 26.6567 168.694 26.3769 169.235 26.2104C169.776 26.0439 170.347 25.9946 170.909 26.0658L316.431 53.805C317.78 53.9772 319.02 54.6357 319.919 55.6569C320.818 56.6782 321.313 57.9922 321.313 59.3528V160.398C321.313 160.963 321.193 161.521 320.961 162.036C320.729 162.551 320.39 163.011 319.967 163.386C319.544 163.76 319.046 164.04 318.507 164.208C317.968 164.375 317.399 164.426 316.838 164.358Z" fill="white"/>
<path d="M250.899 142.845C247.977 143.062 242.647 143.945 241.15 141.213L224.39 111.159C224.152 110.718 223.875 110.299 223.563 109.906C215.553 99.8024 210.414 87.7255 208.686 74.9463L201.286 20.2166C200.994 18.0617 201.519 15.8757 202.757 14.088C203.994 12.3004 205.856 11.0404 207.975 10.5557L248.215 1.36778C250.382 0.873047 252.656 1.22608 254.572 2.35455L298.132 28.0419C299.617 28.9169 300.81 30.2134 301.558 31.7671C302.306 33.3209 302.576 35.0618 302.334 36.7693L295.758 83.0911C293.307 100.209 284.757 115.864 271.683 127.176L258.64 139.537C256.474 141.432 253.764 142.59 250.899 142.845Z" fill="#52A5D8"/>
<path d="M238.66 139.446L218.283 114.288C208.999 102.832 203.04 89.0435 201.06 74.4291L193.995 22.1679C193.701 20.0007 194.234 17.8023 195.486 16.01C196.739 14.2176 198.62 12.9625 200.756 12.4944L240.949 3.67304C243.106 3.1998 245.361 3.56371 247.259 4.69113L290.847 30.5633C292.326 31.4426 293.512 32.7403 294.255 34.293C294.998 35.8456 295.265 37.5836 295.021 39.2876L288.943 81.7375C286.196 100.934 276.607 118.492 261.943 131.176L251.12 140.54C250.239 141.304 249.212 141.883 248.102 142.243C246.992 142.603 245.821 142.735 244.659 142.633C243.496 142.531 242.366 142.197 241.336 141.649C240.305 141.102 239.395 140.353 238.66 139.446Z" fill="white"/>
<path d="M251.137 124.26C250.254 125.023 249.227 125.601 248.117 125.96C247.006 126.319 245.835 126.45 244.673 126.348C243.511 126.245 242.381 125.909 241.351 125.361C240.321 124.813 239.411 124.063 238.676 123.157L223.018 103.829C216.623 95.93 212.519 86.4254 211.156 76.3526L204.934 29.5453C204.645 27.3806 205.181 25.1865 206.433 23.3982C207.686 21.6098 209.565 20.3579 211.698 19.8906L240.361 13.6003C242.45 13.141 244.635 13.4678 246.499 14.5182L280.006 33.3921C281.538 34.2549 282.774 35.5615 283.55 37.1399C284.325 38.7184 284.605 40.4948 284.353 42.2354L278.475 82.646C276.581 95.8786 269.972 107.981 259.864 116.726L251.137 124.26Z" fill="#E6F6FD"/>
<path d="M245.44 143.133C245.164 143.133 244.886 143.133 244.61 143.096C243.383 142.993 242.19 142.642 241.103 142.063C240.016 141.485 239.058 140.692 238.287 139.731L217.914 114.573C208.576 103.049 202.588 89.1771 200.603 74.4762L198.955 62.2935C198.939 62.1698 198.973 62.0447 199.048 61.9456C199.124 61.8464 199.236 61.7812 199.359 61.764C199.42 61.7557 199.483 61.7596 199.542 61.7754C199.602 61.7912 199.658 61.8187 199.707 61.8563C199.756 61.8939 199.797 61.9408 199.827 61.9943C199.858 62.0479 199.878 62.1069 199.885 62.1682L201.536 74.3509C203.498 88.8783 209.417 102.586 218.643 113.975L239.023 139.133C239.719 139.991 240.579 140.7 241.554 141.219C242.528 141.738 243.597 142.055 244.697 142.153C245.797 142.25 246.905 142.126 247.956 141.787C249.006 141.448 249.978 140.901 250.814 140.179L261.636 130.813C276.213 118.203 285.745 100.749 288.477 81.6655L294.552 39.2156C294.787 37.6034 294.537 35.9577 293.834 34.4879C293.132 33.0181 292.008 31.7905 290.606 30.9612L247.037 5.08588C245.239 4.01316 243.1 3.66696 241.056 4.11791L200.862 12.9393C198.847 13.393 197.075 14.583 195.891 16.2763C194.708 17.9695 194.199 20.0439 194.465 22.0928L197.145 41.9253C197.162 42.0499 197.128 42.176 197.052 42.2759C196.976 42.3758 196.863 42.4412 196.738 42.4578C196.614 42.4744 196.488 42.4409 196.388 42.3645C196.288 42.2881 196.223 42.1752 196.206 42.0506L193.525 22.2181C193.231 19.9353 193.799 17.6247 195.118 15.7391C196.438 13.8535 198.414 12.5288 200.659 12.0246L240.849 3.20632C243.123 2.70311 245.503 3.08626 247.504 4.27767L291.073 30.1592C292.632 31.0846 293.881 32.4526 294.662 34.0896C295.443 35.7266 295.719 37.5588 295.457 39.3534L289.407 81.8064C286.642 101.114 276.998 118.772 262.25 131.53L251.427 140.897C249.768 142.343 247.641 143.138 245.44 143.133Z" fill="black"/>
<path d="M236.836 19.7812L261.036 24.4802C261.69 24.6078 262.28 24.9587 262.704 25.4729C263.129 25.9871 263.361 26.6327 263.363 27.2995V70.8145C263.363 71.0996 263.3 71.3813 263.179 71.6395C263.059 71.8977 262.882 72.1262 262.663 72.3086C262.444 72.491 262.188 72.6229 261.912 72.6949C261.636 72.7669 261.348 72.7773 261.067 72.7254L229.539 66.8893C229.01 66.7886 228.533 66.5062 228.19 66.091C227.847 65.6758 227.659 65.1537 227.66 64.615L227.688 28.6465L236.836 19.7812Z" fill="white"/>
<path d="M261.411 73.2291C261.263 73.228 261.115 73.2144 260.969 73.1884L229.438 67.3524C228.798 67.2338 228.221 66.8949 227.806 66.3948C227.39 65.8946 227.163 65.2647 227.164 64.6145L227.192 28.6459C227.193 28.5833 227.206 28.5214 227.23 28.4638C227.255 28.4062 227.291 28.3542 227.336 28.3108L236.496 19.4486C236.551 19.3961 236.617 19.3574 236.689 19.3356C236.762 19.3138 236.838 19.3096 236.913 19.3233L261.11 24.0222C261.872 24.1711 262.559 24.5802 263.053 25.1796C263.547 25.779 263.818 26.5314 263.819 27.3083V70.8139C263.819 71.4534 263.565 72.0668 263.114 72.5195C262.662 72.9723 262.05 73.2275 261.411 73.2291ZM228.144 28.8464L228.116 64.6145C228.116 65.0451 228.267 65.4622 228.542 65.7935C228.817 66.1247 229.199 66.3493 229.622 66.4283L261.151 72.2643C261.363 72.3035 261.582 72.2958 261.791 72.2417C262.001 72.1876 262.196 72.0884 262.363 71.951C262.529 71.8127 262.662 71.6393 262.754 71.4432C262.845 71.2472 262.892 71.0334 262.892 70.817V27.2989C262.891 26.74 262.697 26.1986 262.342 25.7672C261.986 25.3358 261.492 25.0412 260.944 24.9338L236.985 20.2944L228.144 28.8464Z" fill="black"/>
<path d="M234.831 30.0526C234.713 30.0538 234.594 30.0454 234.477 30.0276L227.71 29.0659C227.585 29.048 227.473 28.9814 227.398 28.8806C227.322 28.7799 227.29 28.6532 227.308 28.5286C227.325 28.404 227.392 28.2916 227.493 28.2161C227.593 28.1406 227.72 28.1082 227.845 28.1261L234.609 29.0878C234.832 29.1192 235.06 29.1018 235.276 29.0369C235.492 28.972 235.692 28.8612 235.861 28.7119C236.032 28.5609 236.168 28.3752 236.261 28.1671C236.354 27.9591 236.401 27.7337 236.4 27.5058L236.315 19.9437C236.315 19.8196 236.363 19.7003 236.45 19.6116C236.537 19.523 236.655 19.4724 236.779 19.4707C236.902 19.4707 237.021 19.5193 237.109 19.6061C237.197 19.6929 237.247 19.8108 237.249 19.9343L237.333 27.4964C237.337 27.8297 237.274 28.1603 237.148 28.4692C237.023 28.778 236.838 29.059 236.604 29.2958C236.369 29.5326 236.09 29.7206 235.783 29.8489C235.475 29.9772 235.145 30.0433 234.812 30.0432L234.831 30.0526Z" fill="black"/>
<path d="M245.682 36.8821H245.597L232.197 34.4324C232.136 34.4219 232.078 34.3993 232.026 34.3661C231.974 34.3329 231.929 34.2897 231.894 34.239C231.859 34.1883 231.834 34.1311 231.821 34.0708C231.808 34.0104 231.807 33.9481 231.818 33.8873C231.841 33.7649 231.91 33.6561 232.012 33.5851C232.115 33.514 232.241 33.4864 232.363 33.5083L245.766 35.9549C245.891 35.9661 246.006 36.0263 246.086 36.1224C246.166 36.2185 246.205 36.3424 246.194 36.4671C246.183 36.5917 246.122 36.7067 246.026 36.7869C245.93 36.8671 245.806 36.9059 245.682 36.8946V36.8821Z" fill="#A2D2EC"/>
<path d="M258.907 46.6717C258.878 46.6748 258.85 46.6748 258.822 46.6717L253.749 45.7319C253.626 45.709 253.518 45.6384 253.448 45.5356C253.377 45.4328 253.35 45.3062 253.373 45.1837C253.396 45.0611 253.467 44.9527 253.569 44.8822C253.672 44.8117 253.799 44.7849 253.921 44.8078L258.991 45.7475C259.116 45.7588 259.231 45.819 259.311 45.9151C259.391 46.0111 259.43 46.1351 259.419 46.2597C259.407 46.3843 259.347 46.4994 259.251 46.5796C259.155 46.6598 259.031 46.6985 258.907 46.6873V46.6717Z" fill="#A2D2EC"/>
<path d="M258.906 53.9834C258.878 53.9865 258.85 53.9865 258.822 53.9834L251.118 52.5581C251.057 52.5467 251 52.5236 250.948 52.4899C250.896 52.4562 250.852 52.4127 250.817 52.3618C250.782 52.3109 250.757 52.2536 250.745 52.1932C250.732 52.1328 250.731 52.0705 250.742 52.0099C250.754 51.9492 250.777 51.8913 250.81 51.8396C250.844 51.7879 250.888 51.7433 250.939 51.7084C250.989 51.6735 251.047 51.6489 251.107 51.6361C251.167 51.6234 251.23 51.6226 251.29 51.6339L258.991 53.0593C259.115 53.0705 259.23 53.1308 259.311 53.2268C259.391 53.3229 259.429 53.4468 259.418 53.5715C259.407 53.6961 259.347 53.8111 259.251 53.8913C259.155 53.9715 259.031 54.0103 258.906 53.9991V53.9834Z" fill="#A2D2EC"/>
<path d="M234.336 49.4659C234.306 49.4692 234.275 49.4692 234.245 49.4659L232.188 49.0587C232.125 49.0493 232.065 49.0273 232.01 48.994C231.956 48.9606 231.91 48.9167 231.873 48.8647C231.836 48.8128 231.811 48.7539 231.797 48.6917C231.784 48.6296 231.784 48.5653 231.796 48.503C231.808 48.4406 231.833 48.3814 231.869 48.3289C231.905 48.2764 231.951 48.2317 232.005 48.1976C232.058 48.1634 232.118 48.1405 232.181 48.1302C232.244 48.1199 232.308 48.1225 232.369 48.1377L234.427 48.5449C234.488 48.5509 234.548 48.569 234.603 48.5981C234.658 48.6272 234.706 48.6668 234.746 48.7147C234.785 48.7625 234.815 48.8177 234.833 48.877C234.851 48.9363 234.857 48.9986 234.851 49.0603C234.845 49.122 234.827 49.1819 234.798 49.2366C234.769 49.2913 234.729 49.3398 234.681 49.3792C234.634 49.4186 234.578 49.4482 234.519 49.4663C234.46 49.4844 234.398 49.4907 234.336 49.4847V49.4659Z" fill="#A2D2EC"/>
<path d="M258.905 61.297H258.821L247.71 59.2514C247.649 59.2401 247.591 59.217 247.54 59.1833C247.488 59.1496 247.443 59.1061 247.408 59.0552C247.374 59.0043 247.349 58.947 247.336 58.8866C247.324 58.8262 247.323 58.7639 247.334 58.7032C247.345 58.6426 247.368 58.5848 247.401 58.5331C247.435 58.4814 247.478 58.4368 247.528 58.4019C247.579 58.3669 247.636 58.3423 247.696 58.3295C247.756 58.3167 247.819 58.316 247.879 58.3273L258.977 60.3791C259.102 60.3904 259.217 60.4506 259.297 60.5467C259.377 60.6427 259.416 60.7667 259.405 60.8913C259.393 61.0159 259.333 61.131 259.237 61.2112C259.141 61.2914 259.017 61.3301 258.893 61.3189L258.905 61.297Z" fill="#A2D2EC"/>
<path d="M238.41 57.5065C238.382 57.5096 238.354 57.5096 238.326 57.5065L232.194 56.3725C232.134 56.3612 232.076 56.3381 232.024 56.3044C231.972 56.2707 231.928 56.2272 231.893 56.1763C231.858 56.1254 231.833 56.0681 231.821 56.0077C231.808 55.9473 231.807 55.885 231.819 55.8243C231.83 55.7636 231.853 55.7058 231.887 55.654C231.92 55.6023 231.964 55.5577 232.015 55.5228C232.066 55.4879 232.123 55.4634 232.183 55.4506C232.244 55.4378 232.306 55.4371 232.367 55.4484L238.495 56.5824C238.556 56.5933 238.614 56.6162 238.666 56.6497C238.718 56.6832 238.763 56.7267 238.798 56.7777C238.834 56.8286 238.858 56.886 238.871 56.9466C238.884 57.0072 238.885 57.0697 238.874 57.1306C238.851 57.2367 238.793 57.3318 238.708 57.4002C238.624 57.4686 238.519 57.5061 238.41 57.5065Z" fill="#A2D2EC"/>
<path d="M242.866 55.374C242.547 55.3744 242.235 55.2771 241.972 55.0952C241.71 54.9132 241.509 54.6552 241.398 54.3559L236.281 40.654C236.135 40.2647 236.15 39.8337 236.323 39.4556C236.495 39.0776 236.811 38.7835 237.2 38.6381C237.589 38.4927 238.02 38.5079 238.398 38.6803C238.776 38.8528 239.07 39.1683 239.215 39.5575L242.885 49.3908C245.97 41.8537 249.427 36.2934 253.398 32.4747C253.697 32.1864 254.098 32.0288 254.513 32.0364C254.928 32.044 255.323 32.2164 255.612 32.5154C255.9 32.8145 256.057 33.2159 256.05 33.6313C256.042 34.0466 255.87 34.4419 255.571 34.7302C251.356 38.8026 247.576 45.3967 244.338 54.3528C244.229 54.6545 244.03 54.9155 243.768 55.1004C243.506 55.2852 243.193 55.3852 242.873 55.3866L242.866 55.374Z" fill="#52A5D8"/>
<path d="M245.215 68.0228V64.6521C245.214 63.7024 244.882 62.7827 244.275 62.0522C243.668 61.3218 242.825 60.8264 241.892 60.6518L220.911 56.7391C220.324 56.6303 219.72 56.6519 219.143 56.8023C218.565 56.9528 218.028 57.2285 217.568 57.6099C217.109 57.9913 216.739 58.4691 216.485 59.0094C216.231 59.5497 216.099 60.1392 216.098 60.7363V98.4623C216.098 99.4092 216.429 100.326 217.032 101.056C217.636 101.785 218.475 102.282 219.405 102.459L266.594 111.428C267.182 111.541 267.789 111.523 268.37 111.374C268.95 111.226 269.491 110.951 269.953 110.569C270.415 110.187 270.788 109.708 271.043 109.165C271.299 108.623 271.432 108.031 271.432 107.431V76.4369C271.432 75.4918 271.103 74.5761 270.502 73.8468C269.901 73.1175 269.065 72.6201 268.138 72.4397L245.215 68.0228Z" fill="#52A5D8"/>
<path d="M265.974 79.0225H265.887L222.005 70.6804H221.948L221.507 70.5958C221.194 70.5081 221.068 70.3796 221.131 70.0601C221.142 69.9995 221.165 69.9418 221.199 69.8902C221.233 69.8386 221.276 69.7942 221.327 69.7595C221.378 69.7248 221.435 69.7006 221.496 69.6882C221.556 69.6758 221.618 69.6755 221.679 69.6873H221.729L265.965 78.0921H266.025H266.056C266.18 78.1037 266.295 78.1644 266.375 78.2607C266.455 78.3571 266.493 78.4812 266.482 78.6059C266.47 78.7305 266.409 78.8454 266.313 78.9253C266.217 79.0052 266.093 79.0435 265.968 79.0319L265.974 79.0225Z" fill="white"/>
<path d="M138.082 241.231C138.755 240.554 142.632 228.484 142.632 228.484L150.298 233.954L141.896 245.25L138.082 241.231Z" fill="white"/>
<path d="M141.896 245.719C141.832 245.719 141.769 245.706 141.71 245.681C141.652 245.656 141.599 245.619 141.555 245.572L137.744 241.569C137.661 241.481 137.615 241.365 137.615 241.244C137.615 241.124 137.661 241.008 137.744 240.92C138.245 240.294 140.734 232.876 142.191 228.352C142.211 228.28 142.249 228.213 142.301 228.159C142.352 228.104 142.417 228.063 142.488 228.039C142.559 228.016 142.633 228.01 142.707 228.021C142.78 228.032 142.85 228.059 142.911 228.102L150.574 233.574C150.625 233.611 150.669 233.657 150.702 233.711C150.735 233.765 150.756 233.825 150.765 233.887C150.774 233.949 150.771 234.011 150.756 234.072C150.741 234.132 150.714 234.189 150.677 234.238L142.275 245.538C142.234 245.592 142.182 245.637 142.122 245.67C142.062 245.702 141.996 245.721 141.928 245.726L141.896 245.719ZM138.655 241.161L141.843 244.52L149.625 234.057L142.873 229.239C141.896 232.296 139.595 239.332 138.655 241.161Z" fill="black"/>
<path d="M139.28 235.104L134.248 240.555C133.748 241.096 133.462 241.801 133.444 242.537C133.426 243.274 133.678 243.991 134.151 244.556C138.022 249.167 147.278 259.905 149.145 259.323C153.551 257.969 145.841 241.273 145.841 241.273C145.021 241.621 144.097 241.638 143.264 241.32C142.431 241.002 141.754 240.373 141.375 239.565L139.28 235.104Z" fill="#F1C40F"/>
<path d="M148.988 259.824C148.064 259.824 145.23 258.486 133.803 244.86C133.258 244.207 132.969 243.377 132.989 242.527C133.01 241.676 133.34 240.862 133.916 240.236L138.948 234.785C139 234.728 139.066 234.685 139.138 234.66C139.211 234.635 139.289 234.628 139.365 234.641C139.441 234.652 139.513 234.682 139.575 234.728C139.637 234.774 139.686 234.835 139.719 234.904L141.786 239.378C142.111 240.076 142.696 240.62 143.415 240.895C144.134 241.17 144.932 241.155 145.641 240.853C145.697 240.826 145.758 240.811 145.82 240.809C145.883 240.806 145.945 240.816 146.003 240.838C146.062 240.86 146.115 240.894 146.16 240.936C146.206 240.979 146.242 241.031 146.267 241.088C146.517 241.633 152.424 254.514 150.623 258.549C150.507 258.845 150.326 259.11 150.094 259.327C149.862 259.544 149.585 259.706 149.283 259.802C149.186 259.824 149.087 259.831 148.988 259.824ZM139.149 235.932L134.583 240.875C134.162 241.333 133.922 241.928 133.907 242.55C133.892 243.171 134.103 243.778 134.502 244.255C144.485 256.159 148.315 259.047 148.998 258.875C149.17 258.819 149.327 258.726 149.458 258.601C149.59 258.476 149.691 258.324 149.755 258.154C151.061 255.225 147.341 245.756 145.581 241.865C144.685 242.13 143.724 242.064 142.873 241.68C142.021 241.296 141.335 240.619 140.94 239.772L139.149 235.932Z" fill="black"/>
<path d="M149.737 259.029C149.669 259.029 149.602 259.014 149.541 258.985C149.479 258.956 149.424 258.915 149.38 258.863L138.191 245.643C138.152 245.596 138.121 245.541 138.102 245.483C138.084 245.424 138.077 245.362 138.082 245.3C138.087 245.239 138.104 245.179 138.132 245.124C138.16 245.069 138.199 245.02 138.246 244.981C138.293 244.941 138.348 244.91 138.407 244.892C138.465 244.873 138.527 244.866 138.589 244.871C138.65 244.876 138.71 244.893 138.765 244.921C138.82 244.949 138.869 244.988 138.909 245.035L150.098 258.252C150.138 258.299 150.168 258.353 150.187 258.412C150.205 258.471 150.212 258.533 150.207 258.594C150.202 258.656 150.185 258.715 150.156 258.77C150.128 258.825 150.089 258.873 150.041 258.913C149.957 258.987 149.849 259.028 149.737 259.029Z" fill="black"/>
<path d="M164.236 238.929L168.905 243.628C169.736 244.466 170.259 245.562 170.387 246.735L170.86 251.121L179.474 247.86L169.648 234.703L164.236 238.929Z" fill="white"/>
<path d="M170.859 251.594C170.773 251.593 170.689 251.57 170.615 251.525C170.553 251.487 170.502 251.436 170.463 251.375C170.425 251.315 170.4 251.246 170.392 251.174L169.92 246.789C169.8 245.723 169.325 244.73 168.57 243.969L163.901 239.27C163.854 239.223 163.818 239.166 163.795 239.104C163.772 239.042 163.762 238.976 163.767 238.91C163.771 238.844 163.789 238.779 163.819 238.72C163.85 238.661 163.893 238.61 163.945 238.569L169.359 234.336C169.408 234.298 169.465 234.27 169.525 234.254C169.585 234.238 169.648 234.234 169.71 234.243C169.772 234.251 169.831 234.272 169.885 234.303C169.939 234.335 169.986 234.377 170.023 234.427L179.85 247.584C179.893 247.643 179.922 247.711 179.935 247.782C179.948 247.854 179.945 247.928 179.925 247.998C179.906 248.069 179.87 248.134 179.82 248.189C179.771 248.243 179.709 248.285 179.64 248.311L171.025 251.572C170.972 251.59 170.915 251.597 170.859 251.594ZM164.94 238.979L169.237 243.296C170.143 244.21 170.713 245.405 170.853 246.685L171.26 250.469L178.722 247.65L169.559 235.376L164.94 238.979Z" fill="black"/>
<path d="M169.438 245.279L167.932 252.534C168.006 253.321 168.366 254.054 168.943 254.594C169.519 255.134 170.273 255.444 171.063 255.467C177.492 255.676 192.639 255.971 193.516 254.073C195.583 249.599 176.794 243.816 176.794 243.816C176.493 244.694 175.866 245.423 175.043 245.851C174.22 246.28 173.264 246.376 172.372 246.119L169.438 245.279Z" fill="#F1C40F"/>
<path d="M179.776 256.087C176.575 256.087 173.431 256.012 171.032 255.933C170.132 255.902 169.273 255.544 168.617 254.926C167.961 254.308 167.552 253.472 167.466 252.575C167.459 252.528 167.459 252.481 167.466 252.434L168.972 245.182C168.985 245.118 169.011 245.057 169.049 245.003C169.087 244.949 169.135 244.903 169.191 244.869C169.246 244.836 169.307 244.815 169.371 244.807C169.435 244.799 169.499 244.804 169.561 244.822L172.479 245.658C173.255 245.886 174.09 245.805 174.807 245.431C175.524 245.057 176.069 244.42 176.328 243.653C176.368 243.538 176.451 243.443 176.559 243.388C176.668 243.332 176.794 243.321 176.91 243.356C177.537 243.547 191.976 248.036 193.893 252.337C194.041 252.635 194.12 252.963 194.125 253.296C194.13 253.628 194.06 253.958 193.921 254.26C193.579 255.003 192.177 255.792 184.363 256.021C182.879 256.071 181.32 256.087 179.776 256.087ZM168.405 252.553C168.483 253.21 168.794 253.818 169.281 254.265C169.768 254.713 170.4 254.971 171.061 254.993C187.774 255.542 192.762 254.546 193.072 253.872C193.153 253.691 193.192 253.493 193.186 253.295C193.18 253.096 193.129 252.902 193.038 252.725C191.635 249.593 181.395 245.768 177.048 244.39C176.638 245.271 175.927 245.976 175.042 246.378C174.158 246.78 173.159 246.853 172.226 246.582L169.792 245.884L168.405 252.553Z" fill="black"/>
<path d="M173.612 253.245C173.488 253.245 173.368 253.196 173.28 253.107C173.192 253.019 173.143 252.9 173.143 252.775C173.143 252.651 173.192 252.531 173.28 252.443C173.368 252.355 173.488 252.305 173.612 252.305L193.473 252.236C193.597 252.236 193.717 252.286 193.805 252.374C193.893 252.462 193.942 252.582 193.942 252.706C193.942 252.831 193.893 252.95 193.805 253.038C193.717 253.127 193.597 253.176 193.473 253.176L173.612 253.245Z" fill="black"/>
<path d="M117.135 176.346C117.135 176.346 157.801 171.609 169.895 182.082C181.989 192.554 150.793 237.585 150.793 237.585L140.932 230.267L150.285 198.44L112.707 187.761L117.135 176.346Z" fill="black"/>
<path d="M94.7515 197.087C100.661 198.966 111.23 201.388 126.004 201.184C128.062 201.154 130.087 201.701 131.851 202.762C133.615 203.823 135.046 205.357 135.984 207.189C140.369 215.773 149.829 231.229 165.258 241.247L172.626 237.278L153.818 194.928C152.97 193.012 151.745 191.285 150.216 189.852C148.687 188.419 146.886 187.308 144.919 186.586L107.653 172.912C107.653 172.912 96.0949 169.683 90.4299 180.001C89.4184 181.846 87.5395 178.551 87.0917 180.039C85.5541 185.136 89.6784 195.461 94.7515 197.087Z" fill="black"/>
<path d="M165.433 220.296C165.343 220.296 165.256 220.27 165.18 220.222C165.105 220.173 165.045 220.105 165.007 220.024L153.392 195.113C152.565 193.257 151.375 191.586 149.892 190.197C148.409 188.808 146.664 187.729 144.758 187.025L139.338 185.039C139.229 184.991 139.142 184.904 139.095 184.795C139.048 184.686 139.044 184.563 139.084 184.452C139.123 184.34 139.204 184.247 139.309 184.192C139.414 184.137 139.536 184.124 139.651 184.155L145.068 186.145C147.091 186.891 148.943 188.034 150.517 189.507C152.092 190.98 153.355 192.753 154.234 194.722L165.859 219.642C165.893 219.713 165.908 219.792 165.903 219.871C165.898 219.95 165.873 220.027 165.83 220.093C165.788 220.16 165.729 220.215 165.659 220.252C165.59 220.29 165.512 220.31 165.433 220.309V220.296Z" fill="#E6F6FD"/>
<path d="M155.657 235.11C155.594 235.11 155.531 235.098 155.473 235.073C155.415 235.048 155.362 235.012 155.319 234.966C153.349 232.917 147.687 225.928 147.048 225.139C147.009 225.091 146.98 225.036 146.963 224.977C146.945 224.918 146.939 224.856 146.946 224.794C146.952 224.733 146.971 224.673 147 224.619C147.029 224.565 147.069 224.517 147.117 224.478C147.165 224.439 147.22 224.41 147.279 224.393C147.339 224.375 147.401 224.369 147.462 224.376C147.523 224.382 147.583 224.4 147.637 224.43C147.691 224.459 147.739 224.499 147.778 224.547C148.404 225.333 154.041 232.294 155.995 234.314C156.061 234.38 156.105 234.464 156.122 234.555C156.14 234.646 156.13 234.741 156.094 234.826C156.057 234.911 155.996 234.984 155.919 235.035C155.841 235.085 155.75 235.112 155.657 235.11Z" fill="#E6F6FD"/>
<path d="M169.359 117.206L160.935 121.087C159.563 121.715 158.485 122.849 157.926 124.251C156.066 128.95 151.018 139.736 143.756 140.541C134.458 141.562 125.264 128.699 125.264 128.699L119.092 141.907C119.092 141.907 128.154 155.922 142.525 153.663C154.863 151.724 159.495 135.525 160.556 130.989C160.633 130.668 160.802 130.377 161.041 130.15C161.281 129.923 161.581 129.77 161.906 129.711C163.109 129.483 164.978 128.772 165.814 126.613C166.223 125.605 166.467 124.538 166.538 123.452C166.556 123.037 166.67 122.631 166.869 122.266C167.069 121.901 167.35 121.587 167.69 121.347C168.918 120.486 170.712 119.631 170.471 117.826C170.455 117.703 170.411 117.586 170.341 117.484C170.272 117.381 170.179 117.296 170.071 117.236C169.963 117.176 169.842 117.142 169.719 117.136C169.595 117.131 169.472 117.155 169.359 117.206Z" fill="white"/>
<path d="M139.432 154.361C126.753 154.361 118.783 142.278 118.698 142.144C118.655 142.077 118.63 142 118.624 141.921C118.619 141.841 118.633 141.762 118.667 141.689L124.839 128.482C124.874 128.408 124.928 128.344 124.995 128.296C125.062 128.249 125.14 128.22 125.222 128.213C125.304 128.205 125.386 128.219 125.46 128.253C125.535 128.287 125.6 128.34 125.647 128.407C125.738 128.532 134.791 141.041 143.707 140.054C150.725 139.284 155.685 128.617 157.486 124.078C158.087 122.558 159.253 121.33 160.739 120.651L169.166 116.773C169.345 116.69 169.54 116.65 169.737 116.657C169.933 116.664 170.125 116.717 170.298 116.812C170.47 116.906 170.617 117.041 170.728 117.203C170.839 117.366 170.91 117.552 170.936 117.747C171.183 119.589 169.683 120.566 168.496 121.356C168.311 121.478 168.13 121.597 167.961 121.716C167.681 121.916 167.451 122.177 167.288 122.479C167.125 122.782 167.034 123.117 167.021 123.461C166.945 124.595 166.691 125.711 166.266 126.766C165.327 129.19 163.194 129.93 162.008 130.155C161.772 130.198 161.554 130.308 161.38 130.472C161.206 130.636 161.084 130.847 161.027 131.079C159.878 135.985 155.159 152.14 142.611 154.11C141.56 154.278 140.497 154.361 139.432 154.361ZM119.632 141.83C120.84 143.56 129.515 155.197 142.451 153.167C154.42 151.288 158.986 135.609 160.101 130.851C160.198 130.441 160.412 130.068 160.717 129.778C161.023 129.487 161.406 129.292 161.82 129.215C163.038 128.987 164.638 128.313 165.377 126.412C165.766 125.45 166 124.433 166.069 123.398C166.09 122.91 166.223 122.434 166.458 122.006C166.693 121.578 167.022 121.21 167.422 120.93C167.597 120.804 167.788 120.682 167.979 120.554C169.307 119.683 170.172 119.025 170.006 117.853C169.999 117.805 169.981 117.759 169.953 117.719C169.925 117.678 169.889 117.645 169.846 117.622C169.801 117.599 169.752 117.586 169.702 117.586C169.652 117.586 169.602 117.599 169.558 117.622L161.131 121.5C159.868 122.077 158.876 123.119 158.362 124.41C156.484 129.109 151.335 140.161 143.807 140.985C135.455 141.896 127.388 132.213 125.359 129.585L119.632 141.83Z" fill="black"/>
<path d="M160.507 128.461C160.395 128.46 160.287 128.42 160.203 128.346C160.118 128.273 160.063 128.172 160.046 128.061C160.03 127.951 160.053 127.838 160.112 127.743C160.171 127.648 160.262 127.577 160.369 127.544C160.369 127.544 162.063 126.995 162.248 125.664C162.348 124.937 162.561 124.051 163.46 123.631C164.287 123.233 164.766 122.826 164.769 122.513C164.77 122.465 164.76 122.417 164.738 122.374C164.716 122.331 164.683 122.295 164.644 122.268C164.6 122.241 164.55 122.225 164.499 122.222C164.447 122.219 164.396 122.228 164.349 122.249L161.08 123.715C161.023 123.742 160.962 123.757 160.9 123.76C160.837 123.762 160.775 123.753 160.716 123.731C160.658 123.709 160.604 123.676 160.558 123.633C160.513 123.59 160.476 123.539 160.451 123.481C160.425 123.424 160.411 123.363 160.41 123.3C160.409 123.238 160.42 123.175 160.443 123.117C160.466 123.059 160.5 123.006 160.544 122.962C160.588 122.917 160.64 122.881 160.698 122.857L163.967 121.391C164.157 121.304 164.366 121.268 164.574 121.284C164.782 121.301 164.983 121.37 165.157 121.485C165.329 121.597 165.47 121.751 165.567 121.932C165.663 122.114 165.712 122.317 165.708 122.522C165.708 123.249 165.098 123.888 163.864 124.477C163.585 124.611 163.306 124.862 163.178 125.792C162.912 127.719 160.738 128.408 160.645 128.439C160.6 128.453 160.553 128.46 160.507 128.461Z" fill="black"/>
<path d="M93.3843 122.371C93.3843 122.371 98.7925 121.725 115.728 122.339C119.868 122.49 124.794 127.687 125.279 131.803C123.964 135.75 117.892 155.238 128.492 170.465C129.995 172.624 135.563 178.103 135.563 178.103C135.563 178.103 132.682 180.411 114.914 181.182C103.264 181.527 98.9929 194.505 91.4678 192.876C90.2497 192.613 88.7872 191.936 87.2684 190.26C86.0474 188.89 85.1435 187.267 84.6212 185.507C84.0988 183.748 83.9709 181.894 84.2465 180.079C84.8947 175.572 86.4792 170.055 86.0064 166.161C84.1055 150.476 82.1327 141.605 84.9135 133.407C85.7308 130.819 93.3843 122.371 93.3843 122.371Z" fill="#F1C40F"/>
<path d="M133.585 134.6C133.585 134.6 124.688 123.392 116.844 122.496L120.711 152.181L133.585 134.6Z" fill="#F1C40F"/>
<path d="M118.848 155.025C117.654 154.491 116.356 154.233 115.049 154.27C112.75 154.344 110.459 154.594 108.197 155.019L90.213 159.22C89.7521 159.163 89.3079 159.012 88.9089 158.774C88.5099 158.537 88.1648 158.218 87.8958 157.84C87.6267 157.461 87.4395 157.031 87.3462 156.576C87.2529 156.121 87.2555 155.651 87.3539 155.197L89.6931 144.431C89.721 144.302 89.718 144.169 89.6842 144.042C89.6505 143.915 89.587 143.798 89.499 143.701L79.3215 132.461C79.2201 132.349 79.0897 132.266 78.9446 132.223C78.7995 132.18 78.6454 132.178 78.4992 132.217C78.3529 132.256 78.2202 132.334 78.1156 132.444C78.011 132.553 77.9385 132.689 77.906 132.837C76.857 137.689 69.288 159.06 74.4206 167.819C76.8538 171.963 82.4092 172.433 87.8205 171.687C93.0877 170.957 99.3132 165.031 104.706 162.23C105.777 161.672 106.974 161.4 108.18 161.44C109.387 161.48 110.563 161.831 111.595 162.459L113.474 163.602C117.858 165.861 121.03 164.15 121.243 162.731C121.522 160.852 115.55 157.719 115.55 157.719C114.924 157.287 115.074 156.845 115.841 156.76C116.678 156.67 117.673 156.692 117.905 156.811C119.555 157.634 120.677 155.959 118.845 155.031L118.848 155.025Z" fill="white"/>
<path d="M83.8165 172.455C79.0222 172.455 75.7341 170.983 74.018 168.069C69.6558 160.629 74.0744 144.926 76.4481 136.489C76.9084 134.854 77.2717 133.564 77.447 132.755C77.4972 132.523 77.6105 132.308 77.7746 132.136C77.9386 131.964 78.1471 131.84 78.377 131.778C78.6068 131.717 78.8492 131.72 79.0774 131.787C79.3056 131.855 79.5108 131.984 79.6704 132.16L89.8479 143.4C89.9877 143.552 90.0891 143.736 90.1435 143.935C90.198 144.135 90.204 144.344 90.161 144.547L87.8218 155.313C87.7377 155.697 87.7333 156.094 87.809 156.479C87.8847 156.864 88.0388 157.23 88.2617 157.553C88.4846 157.876 88.7716 158.15 89.1048 158.357C89.438 158.565 89.8104 158.702 90.1987 158.759L108.098 154.58C110.39 154.146 112.713 153.893 115.044 153.822C116.421 153.781 117.789 154.052 119.046 154.615H119.068C120.249 155.213 120.459 156.115 120.142 156.745C119.826 157.375 118.846 157.801 117.712 157.234C117.114 157.156 116.507 157.156 115.909 157.234C115.851 157.24 115.793 157.25 115.736 157.265L115.808 157.321C116.911 157.901 122.034 160.726 121.724 162.813C121.62 163.502 121.06 164.153 120.186 164.601C118.357 165.541 115.774 165.325 113.275 164.031L113.247 164.016L111.368 162.872C110.402 162.289 109.303 161.964 108.176 161.927C107.049 161.89 105.931 162.143 104.929 162.662C103.013 163.655 101.021 165.027 98.9137 166.481C95.206 169.037 91.3729 171.681 87.8907 172.164C86.541 172.355 85.1797 172.452 83.8165 172.455ZM78.7153 132.671C78.6831 132.667 78.6505 132.667 78.6182 132.671C78.555 132.686 78.4974 132.72 78.4525 132.767C78.4075 132.814 78.377 132.873 78.3646 132.937C78.1829 133.777 77.8166 135.08 77.3531 136.728C75.1829 144.437 70.6672 160.482 74.829 167.581C76.7831 170.911 81.1328 172.138 87.756 171.221C91.016 170.77 94.7582 168.191 98.3751 165.695C100.414 164.288 102.524 162.835 104.491 161.813C105.636 161.221 106.915 160.932 108.204 160.975C109.493 161.017 110.749 161.39 111.853 162.058L113.713 163.192C117.011 164.893 119.168 164.05 119.751 163.753C120.449 163.395 120.744 162.954 120.787 162.662C120.947 161.607 117.631 159.332 115.342 158.126L115.298 158.101C114.672 157.672 114.672 157.234 114.719 157.008C114.766 156.782 114.991 156.382 115.802 156.288C116.256 156.237 117.662 156.15 118.126 156.382C118.752 156.695 119.187 156.529 119.297 156.313C119.406 156.096 119.241 155.752 118.649 155.451C117.521 154.952 116.296 154.709 115.063 154.74C112.788 154.813 110.523 155.061 108.286 155.482L90.2393 159.696H90.1579C89.6326 159.631 89.1265 159.458 88.6719 159.187C88.2172 158.916 87.8239 158.553 87.517 158.121C87.2101 157.69 86.9962 157.2 86.8891 156.681C86.782 156.163 86.784 155.627 86.8949 155.11L89.2372 144.343C89.2481 144.288 89.2462 144.231 89.2315 144.176C89.2169 144.122 89.1899 144.072 89.1527 144.03L78.9752 132.787C78.944 132.748 78.9045 132.716 78.8596 132.694C78.8147 132.671 78.7654 132.659 78.7153 132.658V132.671Z" fill="black"/>
<path d="M71.1738 144.998C71.1738 144.998 74.1206 137.768 76.0528 132.975C80.343 122.324 93.8337 122.324 93.8337 122.324L90.7616 150.417L71.1738 144.998Z" fill="#F1C40F"/>
<path d="M105.88 112.547L106.456 120.563C106.519 121.072 106.732 121.551 107.07 121.937C107.408 122.323 107.854 122.599 108.351 122.728L111.169 123.461L109.344 124.855C105.295 127.937 99.6861 128.57 95.6307 125.481L92.7402 123.288L96.2382 122.508C97.2434 122.283 98.0138 120.851 98.1986 119.839L99.7424 109.232L105.88 112.547Z" fill="white"/>
<path d="M101.785 127.995C99.4638 128.013 97.201 127.265 95.3469 125.868L92.4565 123.675C92.3844 123.622 92.3294 123.549 92.2983 123.465C92.2671 123.381 92.2611 123.289 92.2811 123.202C92.3002 123.114 92.344 123.034 92.4072 122.97C92.4704 122.906 92.5506 122.862 92.6381 122.842L96.1329 122.062C96.8625 121.899 97.5609 120.721 97.7331 119.766L99.277 109.174C99.2875 109.099 99.3159 109.028 99.3599 108.967C99.4039 108.906 99.4621 108.856 99.5296 108.822C99.597 108.788 99.6716 108.771 99.7471 108.773C99.8225 108.774 99.8965 108.793 99.9627 108.83L106.104 112.135C106.173 112.172 106.232 112.226 106.276 112.293C106.319 112.359 106.345 112.435 106.351 112.514L106.927 120.53C106.979 120.942 107.154 121.33 107.43 121.641C107.705 121.952 108.068 122.173 108.471 122.275L111.29 123.008C111.374 123.031 111.451 123.077 111.511 123.141C111.571 123.206 111.612 123.285 111.629 123.372C111.646 123.458 111.639 123.547 111.609 123.629C111.578 123.712 111.525 123.784 111.455 123.838L109.63 125.229C107.388 126.985 104.632 127.956 101.785 127.995ZM93.8313 123.537L95.9137 125.104C99.5995 127.901 104.882 127.644 109.066 124.477L110.125 123.672L108.246 123.18C107.657 123.029 107.128 122.703 106.728 122.246C106.328 121.789 106.075 121.221 106.003 120.618L105.446 112.836L100.122 109.973L98.6726 119.913C98.4753 121.022 97.6235 122.691 96.3521 122.973L93.8313 123.537Z" fill="black"/>
<path d="M114.987 101.389C113.058 100.371 114.612 103.547 108.273 98.0622C105.753 95.8694 105.662 99.9418 105.004 99.3904C102.583 97.3041 102.668 97.3699 101.137 97.1068C100.125 96.9313 98.7724 98.3285 98.3684 99.6504C97.8392 101.395 98.9947 102.438 98.6033 106.458C98.3246 109.277 97.4352 110.668 98.2494 111.47C99.0636 112.272 100.41 111.291 101.381 112.096C102.634 113.155 101.206 115.508 102.126 117.177C102.709 118.23 104.631 119.467 108.637 119.37C108.953 119.362 109.257 119.244 109.495 119.037C109.734 118.829 109.893 118.545 109.946 118.233C110.08 117.406 110.259 116.353 110.321 115.348C110.682 110.53 109.645 108.929 110.666 108.105C112.232 106.852 114.89 109.192 116.021 108.083C117.151 106.974 117.624 102.796 114.987 101.389Z" fill="black"/>
<path d="M105.401 104.092L105.482 105.408C105.519 106.029 105.514 106.652 105.467 107.272C105.376 108.434 105.238 110.433 105.244 111.56C105.244 113.214 110.364 113.537 110.364 113.537L111.013 112.813L111.614 112.838C111.729 112.847 111.845 112.824 111.949 112.773C112.073 112.712 112.173 112.613 112.235 112.49C112.296 112.368 112.316 112.228 112.29 112.093C112.049 110.633 111.626 107.394 112.096 104.888C111.137 104.202 110.021 103.769 108.851 103.63C107.68 103.491 106.494 103.65 105.401 104.092Z" fill="white"/>
<path d="M110.365 114.007H110.334C109.41 113.948 104.788 113.553 104.775 111.564C104.775 110.405 104.913 108.356 104.998 107.234C105.045 106.636 105.05 106.035 105.013 105.436L104.935 104.121C104.929 104.021 104.954 103.923 105.008 103.839C105.061 103.755 105.14 103.69 105.233 103.654C106.402 103.178 107.673 103.01 108.926 103.164C110.179 103.318 111.372 103.79 112.391 104.534C112.457 104.587 112.507 104.657 112.536 104.737C112.565 104.816 112.573 104.902 112.557 104.985C112.097 107.46 112.557 110.727 112.755 112.018C112.793 112.25 112.758 112.489 112.652 112.699C112.547 112.91 112.378 113.081 112.169 113.189C111.99 113.277 111.792 113.318 111.593 113.309H111.214L110.716 113.866C110.67 113.912 110.615 113.949 110.555 113.973C110.495 113.997 110.43 114.009 110.365 114.007ZM105.893 104.415L105.953 105.38C105.99 106.022 105.984 106.665 105.934 107.306C105.849 108.412 105.709 110.439 105.715 111.557C105.715 112.259 107.979 112.882 110.168 113.052L110.663 112.5C110.709 112.449 110.767 112.409 110.83 112.383C110.894 112.356 110.963 112.344 111.032 112.347L111.633 112.372C111.668 112.373 111.701 112.368 111.734 112.356C111.767 112.34 111.795 112.313 111.811 112.28C111.828 112.246 111.834 112.208 111.828 112.171C111.565 110.571 111.201 107.582 111.583 105.11C110.752 104.566 109.806 104.22 108.819 104.1C107.833 103.979 106.832 104.087 105.893 104.415Z" fill="black"/>
<path d="M104.521 108.148C104.521 108.148 104.333 104.984 102.911 105.382C101.489 105.78 101.787 109.264 104.521 108.148Z" fill="white"/>
<path d="M174.88 160.523H155.045L164.22 132.035H184.055L174.88 160.523Z" fill="white"/>
<path d="M174.88 160.993H155.042C154.969 160.992 154.896 160.975 154.83 160.942C154.765 160.909 154.708 160.861 154.663 160.802C154.62 160.742 154.591 160.672 154.58 160.598C154.568 160.525 154.574 160.45 154.598 160.379L163.773 131.894C163.806 131.802 163.866 131.722 163.947 131.666C164.027 131.61 164.123 131.58 164.221 131.581H184.062C184.136 131.581 184.208 131.599 184.274 131.632C184.34 131.665 184.397 131.713 184.441 131.772C184.486 131.832 184.515 131.902 184.527 131.975C184.539 132.049 184.533 132.124 184.51 132.195L175.335 160.68C175.302 160.773 175.24 160.854 175.158 160.91C175.077 160.966 174.98 160.995 174.88 160.993ZM155.687 160.053H174.536L183.411 132.508H164.562L155.687 160.053Z" fill="black"/>
<path d="M115.338 178.244H174.587V179.184C174.587 179.775 174.352 180.341 173.935 180.759C173.517 181.177 172.951 181.411 172.36 181.411H117.559C116.968 181.411 116.402 181.177 115.984 180.759C115.567 180.341 115.332 179.775 115.332 179.184V178.244H115.338Z" fill="#A2D2EC"/>
<path d="M172.356 181.903H117.554C116.839 181.902 116.153 181.617 115.648 181.112C115.143 180.606 114.858 179.921 114.857 179.206V178.266C114.857 178.141 114.907 178.022 114.995 177.934C115.083 177.845 115.203 177.796 115.327 177.796H174.576C174.7 177.796 174.82 177.845 174.908 177.934C174.996 178.022 175.046 178.141 175.046 178.266V179.206C175.044 179.919 174.76 180.603 174.256 181.109C173.752 181.614 173.069 181.899 172.356 181.903ZM115.794 178.72V179.206C115.795 179.671 115.98 180.118 116.309 180.447C116.638 180.777 117.085 180.962 117.551 180.963H172.352C172.819 180.963 173.266 180.778 173.596 180.448C173.926 180.119 174.112 179.672 174.112 179.206V178.72H115.794Z" fill="black"/>
<path d="M174.586 178.31H140.684L151.456 146.592C151.779 146.1 152.221 145.696 152.74 145.417C153.259 145.139 153.839 144.995 154.428 144.997H183.088C183.376 144.991 183.661 145.056 183.918 145.184C184.176 145.313 184.398 145.502 184.567 145.735C184.735 145.969 184.845 146.24 184.885 146.525C184.926 146.81 184.897 147.101 184.801 147.372C184.632 147.817 184.45 148.255 184.303 148.703L174.586 178.31Z" fill="#A2D2EC"/>
<path d="M174.586 178.776H140.684C140.608 178.777 140.534 178.759 140.466 178.725C140.399 178.691 140.341 178.641 140.297 178.579C140.253 178.518 140.225 178.446 140.215 178.371C140.205 178.296 140.213 178.22 140.239 178.149L151.012 146.435C151.023 146.397 151.04 146.361 151.062 146.328C151.428 145.769 151.928 145.311 152.516 144.995C153.105 144.679 153.763 144.516 154.431 144.521H183.088C183.461 144.517 183.829 144.604 184.16 144.776C184.491 144.949 184.775 145.2 184.986 145.507C185.189 145.799 185.319 146.136 185.363 146.489C185.407 146.843 185.365 147.201 185.239 147.534L185.095 147.91C184.97 148.223 184.851 148.537 184.748 148.85L175.04 178.453C175.009 178.549 174.949 178.632 174.867 178.69C174.785 178.748 174.686 178.778 174.586 178.776ZM141.338 177.836H174.244L183.855 148.559C183.968 148.22 184.096 147.891 184.218 147.572C184.269 147.45 184.315 147.327 184.362 147.205C184.433 147.014 184.457 146.809 184.431 146.607C184.404 146.405 184.329 146.213 184.212 146.046C184.087 145.865 183.919 145.717 183.723 145.615C183.527 145.514 183.308 145.463 183.088 145.467H154.431C153.929 145.463 153.434 145.582 152.989 145.814C152.544 146.047 152.163 146.384 151.879 146.798L141.338 177.836Z" fill="black"/>
<path d="M162.003 161.225C161.599 162.566 162.216 163.938 163.384 164.289C164.552 164.639 165.82 163.841 166.224 162.5C166.628 161.159 166.011 159.787 164.846 159.433C163.681 159.079 162.407 159.884 162.003 161.225Z" fill="white"/>
<path d="M180.467 50.4122L203.765 57.1849L220.297 38.7871L180.467 50.4122Z" fill="#52A5D8"/>
<path d="M192.077 61.348L188.826 52.843L210.484 43.9902L192.919 54.0334L197.792 55.4493L192.077 61.348Z" fill="#A2D2EC"/>
<path d="M192.63 58.9388H192.576C192.462 58.9247 192.357 58.8657 192.285 58.7747C192.214 58.6838 192.181 58.5682 192.194 58.4532L192.658 54.644C192.68 54.5361 192.742 54.4405 192.832 54.3763C192.921 54.312 193.032 54.2838 193.141 54.2972C193.25 54.3106 193.351 54.3647 193.422 54.4487C193.493 54.5327 193.53 54.6404 193.526 54.7505L193.062 58.5597C193.049 58.6649 192.998 58.7616 192.918 58.8315C192.838 58.9014 192.736 58.9396 192.63 58.9388Z" fill="#E6F6FD"/>
<path d="M86.8176 45.003L90.848 45.7861C90.8198 35.5519 99.1465 28.9108 109.531 30.9313C119.915 32.9518 128.458 42.8759 128.696 53.154L132.726 53.9372C137.968 54.9584 142.271 59.9893 142.337 65.1769C142.402 70.3645 138.209 73.7446 132.97 72.7234L87.0619 63.7892C81.8197 62.768 77.517 57.737 77.4481 52.5494C77.3792 47.3618 81.5754 43.9817 86.8176 45.003Z" fill="white"/>
<path d="M134.826 73.3778C134.173 73.3754 133.522 73.3103 132.881 73.1835L110.626 68.8512C110.562 68.8427 110.501 68.8214 110.446 68.7884C110.391 68.7555 110.344 68.7117 110.306 68.6597C110.269 68.6077 110.242 68.5486 110.229 68.4861C110.215 68.4235 110.214 68.3588 110.226 68.2959C110.239 68.2331 110.263 68.1733 110.3 68.1204C110.336 68.0675 110.382 68.0226 110.436 67.9883C110.49 67.9541 110.551 67.9312 110.614 67.9212C110.677 67.9112 110.742 67.9143 110.804 67.9302L133.06 72.2626C135.506 72.7387 137.757 72.2312 139.442 70.8404C141.036 69.5059 141.9 67.4979 141.869 65.1829C141.806 60.2146 137.663 55.3778 132.637 54.4005L128.607 53.6142C128.502 53.5935 128.407 53.5375 128.338 53.4554C128.269 53.3734 128.23 53.2702 128.228 53.1631C127.996 43.1387 119.569 33.365 109.439 31.3946C104.45 30.4235 99.8093 31.451 96.3771 34.2891C93.1046 37.0114 91.3072 41.0838 91.3197 45.7827C91.3196 45.8519 91.3044 45.9203 91.2752 45.983C91.246 46.0458 91.2035 46.1014 91.1506 46.146C91.0967 46.1895 91.0342 46.2209 90.9673 46.2382C90.9003 46.2554 90.8304 46.2582 90.7623 46.2463L86.7288 45.4694C84.2831 44.9932 82.0316 45.4976 80.3499 46.8916C78.7528 48.2261 77.8917 50.2341 77.9198 52.5491C77.9856 57.5174 82.1255 62.3541 87.1516 63.3315L103.896 66.5863C103.959 66.5947 104.02 66.6161 104.075 66.649C104.13 66.6819 104.178 66.7257 104.215 66.7777C104.253 66.8297 104.279 66.8888 104.293 66.9514C104.307 67.0139 104.307 67.0786 104.295 67.1415C104.283 67.2044 104.258 67.2641 104.222 67.317C104.186 67.3699 104.139 67.4148 104.085 67.4491C104.031 67.4834 103.971 67.5062 103.907 67.5162C103.844 67.5262 103.779 67.5232 103.717 67.5073L86.9856 64.265C81.5461 63.2062 77.0649 57.9591 76.9929 52.5679C76.9616 49.9678 77.9323 47.6998 79.7612 46.1805C81.6401 44.6142 84.1923 44.0253 86.9199 44.5578L90.4021 45.2345C90.5305 40.4854 92.4345 36.3629 95.7977 33.5812C99.4522 30.5582 104.366 29.4618 109.636 30.4862C120.045 32.513 128.738 42.4621 129.167 52.7809L132.831 53.492C138.271 54.5508 142.752 59.7979 142.821 65.186C142.855 67.7892 141.881 70.0572 140.056 71.5765C138.582 72.779 136.728 73.4175 134.826 73.3778Z" fill="black"/>
<path d="M128.815 46.2733C128.691 46.2837 128.567 46.2442 128.472 46.1634C128.376 46.0826 128.317 45.9672 128.306 45.8426C128.296 45.718 128.335 45.5943 128.416 45.4989C128.497 45.4034 128.612 45.3439 128.737 45.3336C129.542 45.1957 130.378 45.0735 131.22 44.9702C131.345 44.9552 131.47 44.9904 131.569 45.0679C131.667 45.1455 131.731 45.2591 131.746 45.3837C131.761 45.5083 131.726 45.6338 131.649 45.7325C131.571 45.8311 131.458 45.895 131.333 45.91C130.506 46.0133 129.686 46.1324 128.893 46.2671L128.815 46.2733Z" fill="#52A5D8"/>
<path d="M135.972 93.9764C134.719 93.9483 133.432 93.8668 132.182 93.7321C132.121 93.7255 132.061 93.7068 132.006 93.6772C131.952 93.6475 131.904 93.6073 131.865 93.559C131.826 93.5107 131.797 93.4553 131.779 93.3957C131.762 93.3362 131.756 93.2738 131.763 93.2121C131.769 93.1504 131.788 93.0906 131.818 93.0361C131.847 92.9816 131.888 92.9335 131.936 92.8945C131.984 92.8555 132.039 92.8264 132.099 92.8089C132.159 92.7914 132.221 92.7857 132.283 92.7923C133.504 92.9239 134.753 93.0053 135.99 93.0304C136.115 93.0304 136.234 93.0799 136.323 93.168C136.411 93.2561 136.46 93.3757 136.46 93.5003C136.46 93.6249 136.411 93.7444 136.323 93.8326C136.234 93.9207 136.115 93.9702 135.99 93.9702L135.972 93.9764ZM139.729 93.8887C139.605 93.8929 139.484 93.8474 139.393 93.7622C139.302 93.677 139.248 93.5591 139.244 93.4345C139.24 93.3099 139.285 93.1887 139.37 93.0977C139.456 93.0066 139.574 92.9531 139.698 92.949C140.919 92.8675 142.163 92.7359 143.393 92.5542C143.518 92.536 143.645 92.5679 143.746 92.6431C143.847 92.7183 143.914 92.8306 143.932 92.9552C143.95 93.0798 143.918 93.2066 143.843 93.3077C143.768 93.4087 143.656 93.4757 143.531 93.494C142.278 93.6788 141.004 93.8073 139.773 93.895L139.729 93.8887ZM128.512 93.1651C128.482 93.1681 128.452 93.1681 128.421 93.1651C127.191 92.9176 125.951 92.6138 124.732 92.2598C124.613 92.2249 124.512 92.1439 124.452 92.0346C124.392 91.9254 124.378 91.7968 124.413 91.6771C124.448 91.5575 124.529 91.4566 124.638 91.3967C124.747 91.3368 124.876 91.3227 124.995 91.3576C126.185 91.7053 127.401 92.0029 128.603 92.241C128.728 92.253 128.842 92.3141 128.922 92.4107C129.001 92.5074 129.039 92.6317 129.027 92.7563C129.015 92.8809 128.954 92.9957 128.858 93.0753C128.761 93.1549 128.637 93.1928 128.512 93.1808V93.1651ZM147.154 92.8017C147.093 92.8085 147.03 92.8031 146.971 92.7857C146.911 92.7684 146.855 92.7395 146.807 92.7006C146.709 92.6222 146.647 92.5081 146.633 92.3835C146.619 92.2589 146.655 92.1339 146.734 92.0361C146.812 91.9383 146.926 91.8756 147.051 91.8619C148.238 91.5925 149.45 91.273 150.649 90.9222C150.769 90.886 150.898 90.8989 151.008 90.9579C151.118 91.017 151.2 91.1174 151.236 91.237C151.272 91.3566 151.259 91.4857 151.2 91.5959C151.141 91.706 151.041 91.7882 150.921 91.8244C149.7 92.1909 148.466 92.5167 147.258 92.7923L147.154 92.8017ZM121.31 91.0537C121.247 91.0533 121.186 91.0405 121.128 91.0161C119.946 90.5177 118.813 89.9083 117.746 89.1961C117.69 89.1642 117.641 89.1211 117.602 89.0695C117.564 89.0178 117.536 88.9588 117.521 88.8961C117.507 88.8333 117.505 88.7682 117.516 88.7047C117.528 88.6412 117.552 88.5808 117.588 88.5271C117.623 88.4735 117.67 88.4278 117.724 88.3928C117.778 88.3579 117.839 88.3345 117.903 88.3241C117.966 88.3137 118.031 88.3164 118.094 88.3323C118.156 88.3481 118.215 88.3766 118.266 88.4161C119.284 89.094 120.364 89.675 121.491 90.1515C121.591 90.1939 121.673 90.2693 121.723 90.3649C121.773 90.4605 121.789 90.5706 121.768 90.6766C121.746 90.7826 121.689 90.878 121.606 90.9467C121.522 91.0153 121.418 91.0532 121.31 91.0537ZM154.344 90.6402C154.234 90.6408 154.126 90.6023 154.041 90.5315C153.956 90.4606 153.899 90.362 153.879 90.253C153.86 90.144 153.879 90.0316 153.935 89.9357C153.99 89.8397 154.077 89.7664 154.181 89.7286C155.321 89.3026 156.483 88.8264 157.626 88.3158C157.739 88.2682 157.867 88.2669 157.981 88.3121C158.095 88.3574 158.187 88.4456 158.237 88.5579C158.287 88.6702 158.291 88.7976 158.248 88.9128C158.206 89.028 158.119 89.1218 158.008 89.1742C156.84 89.6942 155.663 90.1766 154.504 90.6089C154.452 90.6297 154.397 90.6403 154.341 90.6402H154.344ZM161.218 87.5922C161.113 87.5919 161.011 87.5565 160.929 87.4915C160.846 87.4265 160.788 87.3357 160.763 87.2336C160.738 87.1315 160.748 87.0241 160.791 86.9284C160.835 86.8327 160.909 86.7543 161.002 86.7057C162.092 86.1481 163.194 85.5466 164.284 84.917C164.337 84.8862 164.397 84.8663 164.458 84.8585C164.519 84.8507 164.581 84.855 164.641 84.8713C164.701 84.8876 164.757 84.9156 164.805 84.9535C164.854 84.9914 164.895 85.0386 164.926 85.0924C164.985 85.1986 165 85.3237 164.968 85.4409C164.935 85.5581 164.859 85.6579 164.754 85.7189C163.651 86.3454 162.533 86.9719 161.431 87.5295C161.361 87.5695 161.283 87.5911 161.202 87.5922H161.218ZM115.075 86.9344C114.958 86.9317 114.847 86.8859 114.762 86.8059C113.836 85.9253 112.979 84.9743 112.2 83.9615C112.158 83.9133 112.126 83.8569 112.106 83.7958C112.087 83.7347 112.08 83.6703 112.086 83.6064C112.092 83.5426 112.111 83.4807 112.142 83.4246C112.173 83.3684 112.216 83.3192 112.266 83.28C112.317 83.2408 112.375 83.2124 112.438 83.1966C112.5 83.1808 112.564 83.1778 112.628 83.188C112.691 83.1981 112.752 83.2211 112.806 83.2556C112.86 83.29 112.906 83.3352 112.942 83.3882C113.692 84.3616 114.516 85.2759 115.407 86.123C115.475 86.1871 115.522 86.2698 115.542 86.3608C115.563 86.4518 115.556 86.5468 115.522 86.6338C115.489 86.7208 115.43 86.7959 115.354 86.8494C115.277 86.9029 115.187 86.9325 115.094 86.9344H115.075ZM167.732 83.8393C167.631 83.8384 167.533 83.8049 167.452 83.7438C167.372 83.6828 167.313 83.5974 167.285 83.5003C167.257 83.4032 167.261 83.2997 167.296 83.205C167.331 83.1103 167.396 83.0296 167.481 82.9748C168.514 82.3138 169.557 81.6121 170.588 80.8884C170.69 80.817 170.816 80.7891 170.939 80.8108C171.062 80.8325 171.171 80.9021 171.242 81.0043C171.313 81.1065 171.341 81.2329 171.32 81.3557C171.298 81.4785 171.228 81.5876 171.126 81.6591C170.086 82.3858 169.031 83.0969 167.995 83.7673C167.915 83.8176 167.822 83.8427 167.728 83.8393H167.732ZM110.484 81.02C110.401 81.0197 110.319 80.9975 110.247 80.9557C110.175 80.9139 110.115 80.854 110.074 80.7819C109.446 79.6707 108.892 78.5197 108.414 77.3361C108.367 77.2202 108.369 77.0905 108.418 76.9757C108.467 76.8608 108.56 76.7702 108.675 76.7236C108.791 76.6771 108.921 76.6785 109.036 76.7276C109.151 76.7766 109.241 76.8693 109.288 76.9852C109.747 78.129 110.282 79.2405 110.891 80.312C110.948 80.4189 110.962 80.5438 110.929 80.6606C110.897 80.7773 110.82 80.8769 110.716 80.9386C110.643 80.9861 110.558 81.0132 110.471 81.0169L110.484 81.02ZM173.891 79.5226C173.793 79.5214 173.698 79.4897 173.619 79.4321C173.54 79.3744 173.481 79.2936 173.449 79.2007C173.418 79.1079 173.416 79.0076 173.444 78.9138C173.473 78.8199 173.529 78.7371 173.606 78.6768C174.583 77.9313 175.57 77.1481 176.537 76.3493C176.585 76.3069 176.64 76.2745 176.7 76.254C176.76 76.2335 176.823 76.2253 176.886 76.2299C176.949 76.2346 177.011 76.252 177.067 76.2811C177.124 76.3101 177.173 76.3503 177.214 76.3991C177.254 76.448 177.284 76.5045 177.302 76.5652C177.32 76.626 177.326 76.6898 177.318 76.7527C177.311 76.8156 177.291 76.8765 177.26 76.9315C177.228 76.9865 177.186 77.0346 177.136 77.0729C176.159 77.8811 175.163 78.6737 174.176 79.4255C174.094 79.4885 173.992 79.5216 173.888 79.5195L173.891 79.5226ZM179.697 74.7329C179.602 74.733 179.509 74.7042 179.43 74.6502C179.352 74.5962 179.292 74.5196 179.258 74.4305C179.224 74.3415 179.218 74.2442 179.24 74.1516C179.263 74.0591 179.313 73.9755 179.384 73.9121C180.324 73.0883 181.244 72.2331 182.146 71.3779C182.237 71.2957 182.356 71.2522 182.479 71.2567C182.601 71.2612 182.717 71.3133 182.801 71.4019C182.886 71.4905 182.932 71.6087 182.931 71.7312C182.93 71.8536 182.881 71.9708 182.794 72.0576C181.883 72.9222 180.947 73.7837 180.007 74.6138C179.921 74.6909 179.809 74.7323 179.694 74.7297L179.697 74.7329ZM107.672 74.0656C107.568 74.0659 107.466 74.0312 107.384 73.967C107.301 73.9029 107.243 73.8129 107.218 73.7116C106.902 72.4761 106.671 71.22 106.529 69.9525C106.515 69.8279 106.551 69.7028 106.629 69.6047C106.707 69.5066 106.821 69.4435 106.945 69.4294C107.07 69.4152 107.195 69.4512 107.293 69.5294C107.391 69.6075 107.454 69.7214 107.468 69.846C107.606 71.0712 107.829 72.2854 108.135 73.4798C108.15 73.5397 108.153 73.6019 108.144 73.663C108.135 73.724 108.114 73.7827 108.083 73.8356C108.051 73.8886 108.009 73.9347 107.96 73.9715C107.91 74.0083 107.854 74.0349 107.794 74.05C107.756 74.0587 107.717 74.0629 107.678 74.0625L107.672 74.0656ZM185.143 69.5453C185.025 69.5418 184.913 69.4936 184.83 69.4106C184.786 69.3672 184.751 69.3155 184.727 69.2585C184.703 69.2015 184.691 69.1403 184.691 69.0785C184.691 69.0167 184.703 68.9556 184.727 68.8986C184.751 68.8416 184.786 68.7899 184.83 68.7465C185.722 67.8349 186.59 66.9202 187.407 66.0211C187.493 65.9413 187.606 65.8965 187.723 65.8956C187.84 65.8948 187.954 65.9378 188.041 66.0164C188.128 66.095 188.183 66.2033 188.194 66.3201C188.205 66.4369 188.173 66.5538 188.102 66.6476C187.279 67.5529 186.402 68.4802 185.503 69.3981C185.457 69.4452 185.402 69.4824 185.341 69.5072C185.28 69.532 185.215 69.5439 185.149 69.5422L185.143 69.5453ZM106.855 66.6194H106.836C106.716 66.6106 106.604 66.5564 106.523 66.4679C106.443 66.3794 106.399 66.2632 106.4 66.1433C106.447 64.8636 106.604 63.5903 106.867 62.3372C106.899 62.2215 106.973 62.1224 107.076 62.06C107.178 61.9975 107.3 61.9766 107.417 62.0014C107.535 62.0262 107.638 62.0949 107.706 62.1935C107.774 62.292 107.802 62.4129 107.785 62.5314C107.533 63.7332 107.384 64.954 107.337 66.1809C107.328 66.3005 107.274 66.4123 107.185 66.4932C107.097 66.5742 106.981 66.6182 106.861 66.6163L106.855 66.6194ZM190.2 63.9567C190.093 63.9567 189.989 63.919 189.906 63.8502C189.81 63.7712 189.749 63.6576 189.736 63.5339C189.723 63.4102 189.759 63.2863 189.837 63.1892L189.978 63.0138C190.016 62.9655 190.064 62.9252 190.118 62.8952C190.172 62.8653 190.231 62.8463 190.293 62.8393C190.354 62.8323 190.416 62.8375 190.476 62.8546C190.535 62.8716 190.59 62.9002 190.639 62.9386C190.687 62.9771 190.727 63.0247 190.757 63.0787C190.787 63.1328 190.806 63.1922 190.813 63.2535C190.82 63.3149 190.815 63.3771 190.798 63.4364C190.781 63.4958 190.752 63.5513 190.714 63.5996L190.567 63.7813C190.523 63.8341 190.468 63.8767 190.405 63.9059C190.343 63.9351 190.275 63.9503 190.207 63.9505L190.2 63.9567ZM108.439 59.3142C108.375 59.3146 108.312 59.3006 108.254 59.2735C108.196 59.2496 108.143 59.2143 108.099 59.1695C108.055 59.1248 108.02 59.0715 107.997 59.013C107.974 58.9545 107.963 58.8919 107.965 58.829C107.966 58.7661 107.981 58.7042 108.007 58.647C108.508 57.4629 109.138 56.3378 109.886 55.2919C109.922 55.242 109.968 55.1996 110.02 55.1673C110.073 55.135 110.131 55.1133 110.192 55.1036C110.253 55.0938 110.315 55.0962 110.375 55.1105C110.435 55.1248 110.492 55.1508 110.542 55.187C110.592 55.2232 110.634 55.2689 110.667 55.3215C110.699 55.374 110.721 55.4325 110.73 55.4934C110.74 55.5543 110.738 55.6166 110.723 55.6766C110.709 55.7367 110.683 55.7933 110.647 55.8433C109.934 56.8325 109.333 57.8979 108.856 59.0197C108.822 59.102 108.765 59.173 108.692 59.2245C108.62 59.276 108.534 59.3061 108.445 59.3111L108.439 59.3142Z" fill="#52A5D8"/>
<path d="M170.688 129.914C170.65 129.919 170.612 129.919 170.575 129.914C170.515 129.9 170.458 129.873 170.409 129.836C170.359 129.8 170.317 129.754 170.285 129.7C170.253 129.647 170.233 129.589 170.224 129.527C170.215 129.466 170.218 129.404 170.234 129.344C170.234 129.328 170.572 127.984 171.042 125.685C171.054 125.625 171.078 125.567 171.113 125.516C171.147 125.465 171.191 125.421 171.243 125.387C171.294 125.353 171.352 125.329 171.413 125.318C171.473 125.306 171.535 125.306 171.596 125.319C171.656 125.331 171.714 125.355 171.765 125.39C171.816 125.424 171.86 125.468 171.894 125.52C171.928 125.571 171.951 125.629 171.963 125.69C171.975 125.75 171.975 125.813 171.962 125.873C171.486 128.194 171.148 129.557 171.145 129.57C171.117 129.669 171.058 129.757 170.975 129.82C170.892 129.882 170.791 129.915 170.688 129.914ZM172.213 122.54H172.128C172.067 122.529 172.009 122.506 171.957 122.473C171.905 122.439 171.86 122.396 171.825 122.345C171.79 122.294 171.765 122.236 171.752 122.176C171.739 122.115 171.738 122.053 171.749 121.992C171.969 120.773 172.178 119.526 172.376 118.292C172.395 118.168 172.463 118.056 172.565 117.981C172.667 117.907 172.794 117.876 172.919 117.896C173.044 117.915 173.155 117.984 173.23 118.086C173.304 118.188 173.335 118.315 173.315 118.439C173.121 119.692 172.911 120.946 172.689 122.158C172.666 122.266 172.606 122.363 172.519 122.431C172.432 122.499 172.323 122.534 172.213 122.531V122.54ZM173.381 115.109H173.318C173.257 115.101 173.198 115.081 173.144 115.05C173.091 115.019 173.044 114.978 173.006 114.929C172.969 114.88 172.941 114.823 172.926 114.764C172.91 114.704 172.906 114.641 172.914 114.58C173.083 113.327 173.227 112.074 173.378 110.859C173.392 110.734 173.455 110.62 173.553 110.542C173.651 110.464 173.776 110.428 173.901 110.442C174.025 110.456 174.139 110.519 174.217 110.617C174.295 110.715 174.331 110.84 174.317 110.965C174.179 112.218 174.023 113.471 173.854 114.724C173.833 114.834 173.774 114.933 173.688 115.003C173.601 115.074 173.492 115.111 173.381 115.109ZM174.223 107.635H174.183C174.121 107.63 174.061 107.613 174.006 107.584C173.951 107.556 173.902 107.516 173.863 107.469C173.823 107.421 173.793 107.367 173.775 107.307C173.757 107.248 173.751 107.186 173.757 107.124C173.869 105.871 173.966 104.618 174.045 103.387C174.054 103.263 174.112 103.148 174.206 103.066C174.299 102.984 174.422 102.942 174.546 102.949C174.67 102.958 174.785 103.015 174.867 103.108C174.949 103.201 174.991 103.323 174.984 103.447C174.903 104.678 174.806 105.953 174.693 107.206C174.682 107.323 174.628 107.432 174.541 107.511C174.454 107.591 174.341 107.635 174.223 107.635ZM174.712 100.117H174.693C174.569 100.111 174.452 100.057 174.367 99.9652C174.283 99.8737 174.238 99.7526 174.242 99.6282C174.289 98.3751 174.323 97.1033 174.336 95.869C174.336 95.8074 174.348 95.7463 174.372 95.6894C174.396 95.6325 174.431 95.581 174.475 95.5378C174.519 95.4947 174.571 95.4607 174.629 95.438C174.686 95.4152 174.747 95.4042 174.809 95.4054C174.871 95.4058 174.931 95.4184 174.988 95.4424C175.045 95.4664 175.097 95.5013 175.14 95.5452C175.183 95.5892 175.218 95.6412 175.241 95.6984C175.264 95.7555 175.276 95.8167 175.275 95.8784C175.275 97.1095 175.228 98.3845 175.181 99.6532C175.182 99.7153 175.17 99.7769 175.147 99.8345C175.123 99.892 175.089 99.9444 175.045 99.9886C175.002 100.033 174.95 100.068 174.892 100.092C174.835 100.116 174.774 100.129 174.712 100.129V100.117ZM174.787 92.5986C174.664 92.5986 174.546 92.5504 174.458 92.4643C174.37 92.3782 174.32 92.2611 174.317 92.1381C174.292 90.8851 174.245 89.6164 174.179 88.3978C174.173 88.2733 174.217 88.1515 174.3 88.0588C174.383 87.9662 174.5 87.9101 174.624 87.9028C174.748 87.8984 174.869 87.9424 174.961 88.0253C175.053 88.1083 175.11 88.2239 175.119 88.3477C175.185 89.5788 175.232 90.8537 175.257 92.1068C175.258 92.1686 175.248 92.2301 175.225 92.2878C175.203 92.3455 175.17 92.3981 175.127 92.4427C175.084 92.4873 175.033 92.523 174.976 92.5476C174.919 92.5722 174.858 92.5853 174.796 92.5861L174.787 92.5986ZM174.374 85.0803C174.257 85.0801 174.144 85.0363 174.058 84.9575C173.972 84.8787 173.918 84.7706 173.907 84.6543C173.788 83.4013 173.644 82.1482 173.481 80.9359C173.464 80.8113 173.497 80.685 173.573 80.5848C173.649 80.4847 173.762 80.4188 173.887 80.4018C174.011 80.3848 174.137 80.4179 174.238 80.494C174.338 80.5701 174.403 80.6829 174.421 80.8075C174.586 82.0229 174.734 83.2885 174.85 84.5666C174.861 84.6903 174.823 84.8135 174.744 84.9092C174.664 85.0049 174.55 85.0653 174.427 85.0772L174.374 85.0803ZM173.35 77.6248C173.24 77.6246 173.134 77.5864 173.049 77.5167C172.965 77.447 172.907 77.3501 172.886 77.2426C172.654 75.9895 172.391 74.7678 172.103 73.59C172.089 73.5299 172.086 73.4676 172.095 73.4065C172.105 73.3454 172.126 73.2868 172.158 73.234C172.191 73.1812 172.233 73.1352 172.283 73.0988C172.333 73.0623 172.389 73.036 172.449 73.0214C172.509 73.0068 172.572 73.0042 172.633 73.0137C172.694 73.0231 172.752 73.0446 172.805 73.0767C172.858 73.1089 172.904 73.1511 172.94 73.201C172.977 73.2509 173.003 73.3075 173.018 73.3675C173.309 74.5611 173.575 75.8047 173.81 77.0703C173.822 77.131 173.821 77.1935 173.809 77.254C173.796 77.3146 173.772 77.372 173.737 77.423C173.702 77.474 173.657 77.5176 173.605 77.5511C173.553 77.5847 173.495 77.6076 173.434 77.6185L173.35 77.6248ZM171.555 70.3258C171.455 70.3257 171.358 70.2938 171.277 70.2347C171.197 70.1755 171.137 70.0922 171.107 69.9969C170.728 68.7877 170.309 67.6067 169.855 66.4852C169.813 66.3701 169.817 66.2431 169.868 66.1314C169.918 66.0196 170.01 65.9319 170.124 65.887C170.238 65.842 170.365 65.8434 170.478 65.8908C170.591 65.9382 170.681 66.0278 170.728 66.1406C171.179 67.2809 171.605 68.4838 171.981 69.7181C171.999 69.7773 172.006 69.8396 172 69.9013C171.994 69.963 171.976 70.023 171.947 70.0778C171.918 70.1325 171.878 70.1809 171.83 70.2203C171.783 70.2596 171.727 70.2891 171.668 70.307C171.632 70.3247 171.594 70.3383 171.555 70.3477V70.3258ZM168.774 63.3495C168.687 63.3497 168.602 63.3255 168.527 63.2795C168.453 63.2336 168.393 63.1677 168.355 63.0895C167.791 61.9649 167.184 60.8747 166.542 59.8535C166.476 59.7474 166.455 59.6198 166.483 59.4984C166.512 59.3769 166.586 59.2715 166.692 59.2051C166.744 59.1719 166.802 59.1495 166.863 59.1391C166.924 59.1287 166.986 59.1306 167.046 59.1446C167.106 59.1586 167.163 59.1844 167.213 59.2206C167.263 59.2569 167.305 59.3027 167.337 59.3554C168.011 60.4294 168.631 61.5366 169.194 62.6728C169.249 62.7839 169.257 62.9119 169.218 63.0292C169.178 63.1465 169.095 63.2436 168.984 63.2994C168.921 63.3389 168.849 63.3635 168.774 63.3714V63.3495ZM164.775 57.006C164.705 57.0066 164.635 56.9908 164.571 56.9598C164.508 56.9288 164.452 56.8835 164.409 56.8274C163.642 55.8624 162.818 54.944 161.941 54.077C161.895 54.0344 161.858 53.9829 161.831 53.9255C161.805 53.8681 161.791 53.8061 161.789 53.743C161.788 53.68 161.799 53.6173 161.822 53.5586C161.845 53.4999 161.879 53.4465 161.923 53.4015C161.968 53.3565 162.02 53.3208 162.079 53.2967C162.137 53.2725 162.199 53.2603 162.262 53.2607C162.325 53.2612 162.388 53.2744 162.445 53.2994C162.503 53.3245 162.556 53.3609 162.599 53.4066C163.505 54.2998 164.355 55.2476 165.145 56.2447C165.221 56.3425 165.256 56.4666 165.241 56.5898C165.227 56.7131 165.164 56.8255 165.067 56.9026C164.987 56.9775 164.884 57.0219 164.775 57.0279V57.006ZM159.452 51.7589C159.349 51.7593 159.248 51.7251 159.167 51.6617C158.185 50.9205 157.157 50.2435 156.088 49.6349C155.98 49.5735 155.901 49.4714 155.867 49.3513C155.834 49.2312 155.85 49.1028 155.912 48.9943C155.973 48.8859 156.075 48.8064 156.195 48.7732C156.315 48.74 156.444 48.7559 156.552 48.8173C157.657 49.4463 158.72 50.1463 159.734 50.9131C159.813 50.9722 159.871 51.0547 159.9 51.1489C159.93 51.243 159.929 51.344 159.897 51.4376C159.866 51.5311 159.806 51.6125 159.726 51.6702C159.646 51.7278 159.55 51.7589 159.452 51.7589ZM152.951 48.0561C152.889 48.0557 152.829 48.0429 152.772 48.0185C151.632 47.5527 150.466 47.1521 149.281 46.8187C149.217 46.8059 149.157 46.7801 149.104 46.743C149.051 46.7059 149.007 46.6583 148.973 46.6032C148.939 46.548 148.917 46.4865 148.909 46.4224C148.9 46.3584 148.904 46.2932 148.922 46.231C148.939 46.1688 148.969 46.1108 149.01 46.0608C149.051 46.0107 149.102 45.9697 149.159 45.9402C149.217 45.9106 149.28 45.8933 149.344 45.8892C149.409 45.8852 149.473 45.8945 149.534 45.9166C150.756 46.2572 151.956 46.6693 153.129 47.1508C153.23 47.1918 153.314 47.2668 153.366 47.3629C153.418 47.4589 153.435 47.57 153.414 47.6772C153.392 47.7843 153.335 47.8807 153.25 47.9498C153.166 48.019 153.06 48.0566 152.951 48.0561ZM145.748 46.0199C145.722 46.023 145.696 46.023 145.67 46.0199C144.483 45.8194 143.246 45.6691 141.99 45.572C141.929 45.5676 141.869 45.5511 141.813 45.5233C141.758 45.4955 141.709 45.457 141.669 45.4101C141.629 45.3632 141.598 45.3088 141.579 45.25C141.56 45.1912 141.553 45.1292 141.558 45.0676C141.569 44.9437 141.627 44.8289 141.722 44.748C141.816 44.6672 141.938 44.6267 142.062 44.6353C143.346 44.7324 144.611 44.8891 145.82 45.0927C145.945 45.1031 146.06 45.1625 146.141 45.258C146.222 45.3535 146.261 45.4771 146.251 45.6017C146.24 45.7263 146.181 45.8417 146.086 45.9225C145.99 46.0033 145.866 46.0428 145.742 46.0325L145.748 46.0199ZM134.518 45.5751C134.394 45.5797 134.273 45.5345 134.181 45.4497C134.09 45.3648 134.036 45.2471 134.032 45.1224C134.027 44.9978 134.072 44.8765 134.157 44.7851C134.242 44.6938 134.359 44.6399 134.484 44.6353C135.768 44.5413 137.043 44.4944 138.27 44.4912C138.332 44.4908 138.393 44.5026 138.45 44.5258C138.507 44.5491 138.558 44.5834 138.602 44.6268C138.646 44.6702 138.68 44.7218 138.704 44.7786C138.728 44.8355 138.74 44.8964 138.74 44.958C138.74 45.0829 138.69 45.2027 138.602 45.2914C138.514 45.38 138.395 45.4302 138.27 45.431C137.064 45.431 135.812 45.4811 134.55 45.572L134.518 45.5751Z" fill="#52A5D8"/>
<path d="M301.846 118.65H299.829C299.705 118.65 299.585 118.6 299.497 118.512C299.409 118.424 299.359 118.304 299.359 118.18C299.359 118.055 299.409 117.936 299.497 117.848C299.585 117.759 299.705 117.71 299.829 117.71H301.846C301.97 117.71 302.09 117.759 302.178 117.848C302.266 117.936 302.316 118.055 302.316 118.18C302.316 118.304 302.266 118.424 302.178 118.512C302.09 118.6 301.97 118.65 301.846 118.65Z" fill="black"/>
<path d="M309.47 118.65H307.444C307.32 118.65 307.2 118.6 307.112 118.512C307.024 118.424 306.975 118.304 306.975 118.18C306.975 118.055 307.024 117.936 307.112 117.848C307.2 117.759 307.32 117.71 307.444 117.71H309.461C309.586 117.71 309.705 117.759 309.793 117.848C309.881 117.936 309.931 118.055 309.931 118.18C309.931 118.304 309.881 118.424 309.793 118.512C309.705 118.6 309.586 118.65 309.461 118.65H309.47Z" fill="black"/>
<path d="M304.652 123.47C304.527 123.47 304.407 123.421 304.319 123.332C304.231 123.244 304.182 123.125 304.182 123V120.98C304.182 120.855 304.231 120.736 304.319 120.647C304.407 120.559 304.527 120.51 304.652 120.51C304.776 120.51 304.896 120.559 304.984 120.647C305.072 120.736 305.121 120.855 305.121 120.98V123C305.121 123.125 305.072 123.244 304.984 123.332C304.896 123.421 304.776 123.47 304.652 123.47Z" fill="black"/>
<path d="M304.652 115.846C304.527 115.846 304.407 115.797 304.319 115.708C304.231 115.62 304.182 115.501 304.182 115.376V113.356C304.182 113.231 304.231 113.111 304.319 113.023C304.407 112.935 304.527 112.886 304.652 112.886C304.776 112.886 304.896 112.935 304.984 113.023C305.072 113.111 305.121 113.231 305.121 113.356V115.376C305.121 115.501 305.072 115.62 304.984 115.708C304.896 115.797 304.776 115.846 304.652 115.846Z" fill="black"/>
<path d="M282.08 245.89C281.956 245.889 281.836 245.84 281.748 245.752C281.704 245.709 281.669 245.657 281.645 245.6C281.622 245.543 281.609 245.482 281.609 245.42C281.609 245.358 281.622 245.297 281.645 245.24C281.669 245.183 281.704 245.131 281.748 245.088L283.186 243.647C283.275 243.56 283.394 243.511 283.518 243.511C283.642 243.511 283.762 243.56 283.85 243.647C283.894 243.69 283.929 243.742 283.953 243.799C283.977 243.856 283.989 243.917 283.989 243.979C283.989 244.041 283.977 244.102 283.953 244.159C283.929 244.216 283.894 244.268 283.85 244.311L282.412 245.752C282.324 245.84 282.205 245.889 282.08 245.89Z" fill="black"/>
<path d="M287.509 240.451C287.416 240.451 287.325 240.423 287.248 240.371C287.17 240.32 287.11 240.246 287.075 240.161C287.039 240.075 287.03 239.98 287.048 239.889C287.066 239.798 287.111 239.715 287.176 239.649L288.617 238.211C288.661 238.167 288.713 238.132 288.77 238.108C288.827 238.085 288.888 238.072 288.95 238.072C289.011 238.072 289.072 238.085 289.129 238.108C289.186 238.132 289.238 238.167 289.282 238.211C289.369 238.3 289.418 238.419 289.418 238.543C289.418 238.667 289.369 238.787 289.282 238.875L287.841 240.316C287.797 240.359 287.745 240.394 287.688 240.417C287.631 240.44 287.57 240.452 287.509 240.451Z" fill="black"/>
<path d="M288.95 245.89C288.888 245.89 288.827 245.878 288.77 245.854C288.713 245.83 288.661 245.796 288.618 245.752L287.177 244.311C287.094 244.222 287.049 244.104 287.051 243.982C287.053 243.86 287.102 243.744 287.188 243.658C287.274 243.572 287.391 243.523 287.512 243.521C287.634 243.518 287.752 243.564 287.841 243.647L289.282 245.088C289.369 245.176 289.418 245.295 289.418 245.42C289.418 245.544 289.369 245.663 289.282 245.752C289.193 245.839 289.074 245.888 288.95 245.89Z" fill="black"/>
<path d="M283.515 240.452C283.391 240.452 283.272 240.404 283.183 240.317L281.745 238.876C281.699 238.833 281.662 238.781 281.636 238.724C281.611 238.666 281.597 238.604 281.596 238.541C281.595 238.478 281.606 238.415 281.63 238.356C281.654 238.298 281.689 238.245 281.733 238.2C281.778 238.156 281.831 238.12 281.89 238.097C281.948 238.073 282.011 238.061 282.074 238.063C282.137 238.064 282.199 238.078 282.257 238.103C282.314 238.129 282.366 238.166 282.409 238.212L283.847 239.65C283.891 239.694 283.926 239.746 283.95 239.803C283.974 239.86 283.986 239.922 283.986 239.984C283.986 240.046 283.974 240.107 283.95 240.164C283.926 240.222 283.891 240.273 283.847 240.317C283.804 240.361 283.752 240.395 283.695 240.418C283.638 240.441 283.577 240.453 283.515 240.452Z" fill="black"/>
<path d="M305.466 226.01C304.989 226.01 304.523 225.868 304.126 225.603C303.73 225.338 303.421 224.961 303.238 224.521C303.056 224.08 303.008 223.595 303.101 223.127C303.194 222.659 303.424 222.229 303.761 221.892C304.098 221.555 304.528 221.325 304.996 221.232C305.463 221.139 305.948 221.187 306.389 221.369C306.829 221.552 307.206 221.861 307.471 222.258C307.736 222.654 307.877 223.121 307.877 223.598C307.876 224.237 307.622 224.85 307.17 225.302C306.718 225.755 306.105 226.009 305.466 226.01ZM305.466 222.125C305.175 222.125 304.89 222.212 304.648 222.373C304.406 222.535 304.218 222.765 304.106 223.034C303.995 223.303 303.966 223.599 304.022 223.885C304.079 224.17 304.219 224.433 304.425 224.639C304.631 224.845 304.893 224.985 305.179 225.042C305.464 225.098 305.76 225.069 306.029 224.958C306.298 224.846 306.528 224.658 306.69 224.416C306.851 224.174 306.938 223.889 306.938 223.598C306.938 223.404 306.9 223.213 306.826 223.034C306.752 222.856 306.643 222.693 306.507 222.557C306.37 222.42 306.208 222.311 306.029 222.237C305.851 222.163 305.659 222.125 305.466 222.125Z" fill="black"/>
<path d="M194.464 115.64C193.987 115.64 193.521 115.498 193.124 115.233C192.728 114.968 192.419 114.591 192.236 114.151C192.054 113.71 192.006 113.225 192.099 112.757C192.192 112.289 192.422 111.859 192.759 111.522C193.096 111.185 193.526 110.955 193.994 110.862C194.461 110.769 194.946 110.816 195.387 110.999C195.827 111.182 196.204 111.491 196.469 111.887C196.734 112.284 196.875 112.75 196.875 113.228C196.874 113.867 196.62 114.48 196.168 114.932C195.716 115.384 195.103 115.639 194.464 115.64ZM194.464 111.758C194.173 111.758 193.888 111.845 193.646 112.007C193.404 112.169 193.215 112.399 193.104 112.668C192.993 112.937 192.964 113.233 193.021 113.519C193.078 113.805 193.218 114.067 193.424 114.273C193.631 114.479 193.893 114.619 194.179 114.675C194.465 114.732 194.761 114.702 195.029 114.59C195.298 114.478 195.528 114.289 195.689 114.046C195.851 113.804 195.936 113.519 195.936 113.228C195.936 113.034 195.898 112.843 195.824 112.665C195.75 112.486 195.641 112.324 195.505 112.188C195.368 112.051 195.206 111.943 195.027 111.869C194.848 111.796 194.657 111.758 194.464 111.758Z" fill="black"/>
<path d="M203.953 123.025C203.953 122.641 204.066 122.265 204.279 121.945C204.492 121.625 204.795 121.376 205.15 121.229C205.505 121.081 205.896 121.042 206.273 121.117C206.65 121.192 206.996 121.377 207.268 121.649C207.539 121.921 207.724 122.267 207.799 122.644C207.874 123.021 207.835 123.412 207.688 123.767C207.54 124.122 207.291 124.425 206.971 124.638C206.652 124.852 206.276 124.965 205.892 124.965C205.378 124.964 204.885 124.759 204.522 124.396C204.158 124.032 203.954 123.539 203.953 123.025Z" fill="#E6F6FD"/>
</g>
<defs>
<filter id="filter0_f_2021_37891" x="166" y="-7" width="241" height="259" filterUnits="userSpaceOnUse" color-interpolation-filters="sRGB">
<feFlood flood-opacity="0" result="BackgroundImageFix"/>
<feBlend mode="normal" in="SourceGraphic" in2="BackgroundImageFix" result="shape"/>
<feGaussianBlur stdDeviation="20" result="effect1_foregroundBlur_2021_37891"/>
</filter>
<filter id="filter1_f_2021_37891" x="-21" y="10" width="278" height="278" filterUnits="userSpaceOnUse" color-interpolation-filters="sRGB">
<feFlood flood-opacity="0" result="BackgroundImageFix"/>
<feBlend mode="normal" in="SourceGraphic" in2="BackgroundImageFix" result="shape"/>
<feGaussianBlur stdDeviation="30" result="effect1_foregroundBlur_2021_37891"/>
</filter>
<clipPath id="clip0_2021_37891">
<rect width="400" height="260" fill="white"/>
</clipPath>
</defs>
</svg>
