<svg width="400" height="260" viewBox="0 0 400 260" fill="none" xmlns="http://www.w3.org/2000/svg">
<rect width="400" height="260" fill="#ADADAD"/>
<rect width="1760" height="2060" transform="translate(-852 -251)" fill="white"/>
<path d="M-371 -106.5H772C780.56 -106.5 787.5 -99.5604 787.5 -91V1237C787.5 1245.56 780.56 1252.5 772 1252.5H-371C-379.56 1252.5 -386.5 1245.56 -386.5 1237V-91C-386.5 -99.5604 -379.56 -106.5 -371 -106.5Z" stroke="#EDEDEF"/>
<g clip-path="url(#clip0_1636_39759)">
<path d="M244.753 241.819C201.116 267.052 132.55 267.831 88.9346 189.138C79.1355 171.458 59.6755 133.434 86.9183 111.583C111.402 91.9423 91.7303 28.7595 127.428 12.6999C134.265 9.63095 141.643 8.16401 149.076 7.17582C174.468 3.80002 194.852 13.3474 215.886 7.17582C306.898 -19.4746 315.933 88.9471 314.003 116.199C312.269 140.726 306.91 205.879 244.753 241.819Z" fill="#E5F6FF"/>
<g filter="url(#filter0_f_1636_39759)">
<ellipse cx="250.5" cy="110.5" rx="98.5" ry="89.5" fill="#B5E0FF" fill-opacity="0.6"/>
</g>
<g filter="url(#filter1_f_1636_39759)">
<circle cx="123" cy="163" r="79" fill="#FFE7C3" fill-opacity="0.6"/>
</g>
<path d="M90.7329 171.682C90.7329 174.51 91.8565 177.223 93.8564 179.223C95.8564 181.223 98.569 182.346 101.397 182.346H165.311C168.139 182.346 170.852 181.223 172.852 179.223C174.852 177.223 175.975 174.51 175.975 171.682V66.725C175.975 63.8966 174.852 61.1841 172.852 59.1841C170.852 57.1841 168.139 56.0605 165.311 56.0605C165.311 56.0605 100.557 56.0851 100.145 56.1342C97.5518 56.4408 95.1609 57.6885 93.426 59.6405C91.6911 61.5926 90.7329 64.1134 90.7329 66.725V171.682Z" fill="white"/>
<path d="M165.311 182.81H101.398C98.4477 182.806 95.6195 181.633 93.5338 179.546C91.4481 177.46 90.2754 174.632 90.273 171.682V90.2142C90.273 90.0921 90.3214 89.975 90.4078 89.8887C90.4941 89.8024 90.6112 89.7539 90.7333 89.7539C90.8554 89.7539 90.9725 89.8024 91.0588 89.8887C91.1451 89.975 91.1936 90.0921 91.1936 90.2142V171.682C91.1969 174.387 92.273 176.981 94.1859 178.893C96.0989 180.806 98.6925 181.883 101.398 181.886H165.311C168.016 181.883 170.61 180.806 172.523 178.893C174.436 176.981 175.512 174.387 175.515 171.682V66.7247C175.512 64.0194 174.436 61.4258 172.523 59.5129C170.61 57.5999 168.016 56.5238 165.311 56.5206H101.398C100.997 56.521 100.596 56.5446 100.198 56.5912C97.7171 56.8836 95.43 58.0763 93.7703 59.943C92.1106 61.8097 91.1937 64.2207 91.1936 66.7186V79.7246C91.1936 79.8467 91.1451 79.9638 91.0588 80.0501C90.9725 80.1365 90.8554 80.185 90.7333 80.185C90.6112 80.185 90.4941 80.1365 90.4078 80.0501C90.3214 79.9638 90.273 79.8467 90.273 79.7246V66.7401C90.2716 64.0151 91.271 61.3844 93.0814 59.3478C94.8918 57.3111 97.3871 56.0101 100.093 55.692C100.527 55.6403 100.964 55.6147 101.401 55.6152H165.314C168.264 55.6185 171.091 56.7916 173.177 58.8772C175.262 60.9628 176.436 63.7906 176.439 66.7401V171.682C176.436 174.632 175.263 177.461 173.177 179.548C171.091 181.634 168.262 182.807 165.311 182.81V182.81Z" fill="black"/>
<path d="M143.171 125.231H125.642C125.096 125.21 124.58 124.978 124.201 124.585C123.822 124.191 123.611 123.667 123.611 123.121C123.611 122.575 123.822 122.05 124.201 121.656C124.58 121.263 125.096 121.032 125.642 121.011H143.171C143.717 121.032 144.233 121.263 144.612 121.656C144.991 122.05 145.202 122.575 145.202 123.121C145.202 123.667 144.991 124.191 144.612 124.585C144.233 124.978 143.717 125.21 143.171 125.231V125.231Z" fill="#A2D2EC"/>
<path d="M164.196 136.807H104.604C104.058 136.786 103.542 136.554 103.163 136.161C102.784 135.768 102.573 135.243 102.573 134.697C102.573 134.151 102.784 133.626 103.163 133.233C103.542 132.839 104.058 132.608 104.604 132.587H164.196C164.742 132.608 165.258 132.839 165.637 133.233C166.015 133.626 166.227 134.151 166.227 134.697C166.227 135.243 166.015 135.768 165.637 136.161C165.258 136.554 164.742 136.786 164.196 136.807V136.807Z" fill="#E5F6FF"/>
<path d="M164.196 144.93H104.604C104.058 144.909 103.542 144.677 103.163 144.284C102.784 143.891 102.573 143.366 102.573 142.82C102.573 142.274 102.784 141.749 103.163 141.356C103.542 140.962 104.058 140.731 104.604 140.71H164.196C164.742 140.731 165.258 140.962 165.637 141.356C166.015 141.749 166.227 142.274 166.227 142.82C166.227 143.366 166.015 143.891 165.637 144.284C165.258 144.677 164.742 144.909 164.196 144.93V144.93Z" fill="#E5F6FF"/>
<path d="M118.694 102.493C122.461 106.053 127.448 108.036 132.631 108.036C137.814 108.036 142.801 106.053 146.569 102.493C137.476 99.7763 127.787 99.7763 118.694 102.493Z" fill="#A2D2EC"/>
<path d="M139.599 88.7634L141.505 82.3708C141.757 81.5246 141.807 80.6314 141.653 79.7621C141.499 78.8929 141.144 78.0716 140.617 77.3636C140.089 76.6556 139.404 76.0805 138.615 75.6839C137.826 75.2873 136.956 75.0802 136.073 75.0791H129.668C128.237 75.0802 126.86 75.6217 125.811 76.5951L125.461 76.9205C124.645 77.6771 124.07 78.6571 123.808 79.7381C123.546 80.8192 123.607 81.9536 123.985 83L126.093 88.8493L139.599 88.7634Z" fill="#E5F6FF"/>
<path d="M133.084 78.0801H125.986V88.5942C125.959 89.6479 126.198 90.6915 126.68 91.6286C127.163 92.5657 127.874 93.366 128.748 93.9556V99.7466C128.748 100.845 129.185 101.899 129.961 102.676C130.738 103.453 131.792 103.89 132.891 103.89C133.99 103.89 135.044 103.453 135.821 102.676C136.598 101.899 137.034 100.845 137.034 99.7466V94.1152C138.569 92.8692 139.796 90.8621 139.796 88.5911V84.5647C139.796 80.9127 136.727 78.0801 133.084 78.0801Z" fill="white"/>
<path d="M132.752 104.349C131.531 104.349 130.36 103.864 129.497 103.001C128.634 102.138 128.149 100.967 128.149 99.7459V94.0101C128.149 93.8881 128.197 93.771 128.284 93.6846C128.37 93.5983 128.487 93.5498 128.609 93.5498C128.731 93.5498 128.848 93.5983 128.935 93.6846C129.021 93.771 129.07 93.8881 129.07 94.0101V99.7459C129.07 100.723 129.458 101.659 130.148 102.35C130.839 103.041 131.776 103.429 132.752 103.429C133.729 103.429 134.666 103.041 135.356 102.35C136.047 101.659 136.435 100.723 136.435 99.7459V94.2464C136.435 94.1244 136.483 94.0073 136.57 93.9209C136.656 93.8346 136.773 93.7861 136.895 93.7861C137.017 93.7861 137.135 93.8346 137.221 93.9209C137.307 94.0073 137.356 94.1244 137.356 94.2464V99.7459C137.356 100.967 136.871 102.138 136.007 103.001C135.144 103.864 133.973 104.349 132.752 104.349V104.349Z" fill="#E5F6FF"/>
<path d="M132.854 95.8976C132.732 95.8976 132.615 95.8491 132.528 95.7628C132.442 95.6764 132.394 95.5593 132.394 95.4373C132.394 95.3152 132.442 95.1981 132.528 95.1117C132.615 95.0254 132.732 94.9769 132.854 94.9769C134.546 94.9753 136.169 94.3022 137.366 93.1055C138.563 91.9087 139.236 90.286 139.237 88.5936V84.5641C139.235 82.9356 138.588 81.3742 137.438 80.2212C136.288 79.0683 134.728 78.4174 133.099 78.4109H126.486V88.5936C126.488 89.8188 126.841 91.0178 127.504 92.0481C128.168 93.0785 129.112 93.8968 130.227 94.4061C130.284 94.4298 130.335 94.4647 130.379 94.5087C130.422 94.5528 130.456 94.605 130.479 94.6625C130.501 94.7199 130.512 94.7812 130.51 94.8429C130.509 94.9046 130.495 94.9654 130.469 95.0216C130.444 95.0777 130.407 95.1282 130.362 95.17C130.316 95.2118 130.263 95.244 130.205 95.2647C130.147 95.2855 130.085 95.2943 130.023 95.2908C129.962 95.2872 129.902 95.2712 129.846 95.2439C128.568 94.6638 127.483 93.7286 126.722 92.5495C125.96 91.3705 125.553 89.9973 125.55 88.5936V77.9506C125.55 77.8285 125.598 77.7114 125.685 77.6251C125.771 77.5387 125.888 77.4902 126.01 77.4902H133.084C134.957 77.4967 136.751 78.2446 138.073 79.5702C139.396 80.8959 140.14 82.6914 140.143 84.5641V88.5936C140.14 90.5273 139.372 92.3814 138.006 93.7502C136.64 95.119 134.788 95.8911 132.854 95.8976V95.8976Z" fill="#E5F6FF"/>
<path d="M137.319 77.6963L126.271 84.8775V77.951C126.271 77.951 137.319 77.8681 137.319 77.6963Z" fill="#E5F6FF"/>
<path d="M132.633 108.496C128.582 108.496 124.619 107.312 121.232 105.089C117.845 102.866 115.181 99.7019 113.569 95.9852C111.957 92.2685 111.466 88.1616 112.158 84.1698C112.849 80.178 114.693 76.4753 117.461 73.5173C120.229 70.5594 123.802 68.4751 127.739 67.521C131.676 66.5669 135.807 66.7845 139.622 68.1472C143.437 69.5098 146.771 71.958 149.213 75.1905C151.655 78.423 153.099 82.2989 153.367 86.3413C153.375 86.4634 153.334 86.5837 153.254 86.6758C153.173 86.7679 153.059 86.8242 152.937 86.8323C152.815 86.8404 152.695 86.7998 152.603 86.7192C152.511 86.6386 152.454 86.5247 152.446 86.4027C152.141 81.8178 150.255 77.4808 147.109 74.1313C143.964 70.7817 139.754 68.627 135.197 68.0345C130.64 67.442 126.019 68.4485 122.122 70.8823C118.224 73.3162 115.292 77.0266 113.824 81.3809C112.357 85.7352 112.445 90.4638 114.074 94.7603C115.703 99.0568 118.772 102.655 122.758 104.942C126.743 107.228 131.399 108.062 135.93 107.299C140.461 106.537 144.588 104.227 147.606 100.762C147.688 100.67 147.802 100.614 147.925 100.607C147.986 100.603 148.046 100.611 148.104 100.631C148.161 100.651 148.215 100.682 148.26 100.722C148.306 100.763 148.343 100.811 148.369 100.866C148.396 100.921 148.412 100.98 148.415 101.041C148.419 101.101 148.411 101.162 148.391 101.22C148.371 101.277 148.34 101.33 148.3 101.376C146.348 103.613 143.94 105.405 141.238 106.633C138.536 107.861 135.602 108.496 132.633 108.496V108.496Z" fill="#E5F6FF"/>
<path d="M315.899 57.5645H252.241C246.368 57.5645 241.607 62.3254 241.607 68.1982V172.937C241.607 178.81 246.368 183.571 252.241 183.571H315.899C321.772 183.571 326.533 178.81 326.533 172.937V68.1982C326.533 62.3254 321.772 57.5645 315.899 57.5645Z" fill="white"/>
<path d="M315.899 184.031H252.238C249.297 184.027 246.477 182.857 244.397 180.777C242.318 178.697 241.148 175.878 241.144 172.937V68.1976C241.148 65.2565 242.318 62.4371 244.397 60.3574C246.477 58.2777 249.297 57.1076 252.238 57.1035H315.899C318.842 57.1051 321.663 58.2743 323.744 60.3543C325.826 62.4344 326.996 65.2552 327 68.1976V172.937C326.996 175.879 325.826 178.7 323.744 180.78C321.663 182.86 318.842 184.029 315.899 184.031V184.031ZM252.238 58.0242C249.541 58.0274 246.955 59.1003 245.048 61.0075C243.14 62.9147 242.067 65.5005 242.064 68.1976V172.937C242.067 175.634 243.14 178.22 245.048 180.127C246.955 182.034 249.541 183.107 252.238 183.11H315.899C318.598 183.109 321.186 182.037 323.094 180.13C325.003 178.222 326.076 175.635 326.079 172.937V68.1976C326.076 65.5008 325.004 62.915 323.098 61.0077C321.191 59.1004 318.605 58.0274 315.909 58.0242H252.238Z" fill="black"/>
<path d="M263.841 90.5118C263.844 86.5066 265.036 82.5923 267.263 79.2639C269.491 75.9354 272.656 73.3421 276.357 71.8119C280.059 70.2817 284.131 69.8832 288.058 70.6668C291.986 71.4505 295.594 73.381 298.424 76.2144C301.255 79.0478 303.183 82.6569 303.963 86.5855C304.743 90.514 304.34 94.5857 302.807 98.2857C301.273 101.986 298.677 105.148 295.347 107.373C292.016 109.598 288.101 110.785 284.096 110.785C281.434 110.785 278.799 110.261 276.34 109.242C273.882 108.222 271.648 106.729 269.767 104.846C267.886 102.963 266.394 100.728 265.377 98.2687C264.361 95.8091 263.838 93.1733 263.841 90.5118V90.5118Z" fill="white"/>
<path d="M284.099 111.246C280.766 111.241 277.483 110.432 274.528 108.889C271.574 107.347 269.034 105.115 267.124 102.383C265.215 99.6505 263.991 96.4986 263.558 93.1937C263.124 89.8887 263.493 86.5279 264.633 83.3957C264.68 83.2892 264.765 83.2043 264.872 83.1581C264.979 83.112 265.099 83.1079 265.209 83.1468C265.318 83.1857 265.409 83.2646 265.463 83.3677C265.517 83.4708 265.529 83.5904 265.499 83.7026C263.793 88.3684 263.901 93.5047 265.802 98.0945C267.703 102.684 271.258 106.393 275.764 108.486C280.269 110.579 285.396 110.904 290.13 109.397C294.863 107.89 298.859 104.66 301.324 100.347C303.79 96.0339 304.546 90.9524 303.443 86.1085C302.34 81.2645 299.458 77.0114 295.368 74.1911C291.279 71.3708 286.279 70.189 281.359 70.8797C276.44 71.5704 271.959 74.0833 268.804 77.9207C268.766 77.9695 268.719 78.0102 268.666 78.0404C268.612 78.0707 268.553 78.0899 268.492 78.0969C268.43 78.1039 268.368 78.0985 268.309 78.0811C268.25 78.0637 268.195 78.0347 268.148 77.9957C268.1 77.9566 268.061 77.9085 268.032 77.854C268.003 77.7995 267.986 77.7398 267.981 77.6784C267.975 77.6171 267.983 77.5553 268.002 77.4968C268.021 77.4382 268.051 77.3841 268.092 77.3376C270.312 74.6418 273.177 72.5508 276.422 71.2587C279.666 69.9666 283.185 69.5154 286.65 69.9469C290.116 70.3785 293.416 71.6788 296.245 73.7271C299.073 75.7754 301.338 78.5053 302.83 81.6633C304.321 84.8212 304.99 88.3048 304.774 91.7905C304.559 95.2761 303.466 98.6509 301.598 101.601C299.729 104.552 297.145 106.982 294.086 108.666C291.027 110.351 287.592 111.235 284.099 111.237V111.246Z" fill="#E5F6FF"/>
<path d="M283.792 77.1586C283.792 77.1586 280.082 74.0897 275.217 80.5344C270.921 86.2211 276.424 91.3155 274.573 94.854C272.722 98.3924 266.453 100.326 266.453 100.326C266.453 100.326 268.463 104.349 270.955 106.12H297.406C297.406 106.12 302.871 100.166 302.871 98.4753C302.871 98.4753 297.004 98.1684 296.602 93.0863C296.2 88.0041 298.443 84.8524 293.425 79.1258C288.239 73.1966 283.792 77.1586 283.792 77.1586Z" fill="#E5F6FF"/>
<path d="M270.203 105.256C273.959 108.807 278.932 110.786 284.101 110.786C289.27 110.786 294.243 108.807 297.998 105.256C288.931 102.547 279.27 102.547 270.203 105.256V105.256Z" fill="#A2D2EC"/>
<path d="M284.099 111.246C278.812 111.253 273.724 109.228 269.887 105.59C269.829 105.534 269.786 105.465 269.763 105.388C269.74 105.311 269.738 105.229 269.756 105.151C269.775 105.073 269.813 105.001 269.868 104.942C269.922 104.883 269.992 104.84 270.068 104.816C279.223 102.079 288.979 102.079 298.134 104.816C298.209 104.841 298.277 104.884 298.331 104.943C298.385 105.002 298.423 105.073 298.44 105.151C298.458 105.229 298.456 105.311 298.433 105.388C298.409 105.465 298.367 105.534 298.309 105.59C294.472 109.227 289.386 111.251 284.099 111.246V111.246ZM271.118 105.464C274.717 108.599 279.328 110.325 284.101 110.325C288.874 110.325 293.485 108.599 297.084 105.464C288.591 103.091 279.611 103.091 271.118 105.464V105.464Z" fill="#E5F6FF"/>
<path d="M284.222 106.648C283.802 106.649 283.386 106.566 282.998 106.406C282.609 106.245 282.257 106.01 281.96 105.712C281.663 105.415 281.427 105.063 281.267 104.675C281.106 104.286 281.024 103.87 281.024 103.45V87.1299H287.41V103.45C287.411 104.297 287.076 105.11 286.478 105.709C285.88 106.309 285.069 106.647 284.222 106.648Z" fill="white"/>
<path d="M284.222 107.108C283.252 107.107 282.322 106.721 281.636 106.036C280.95 105.35 280.565 104.42 280.564 103.45V87.1293C280.564 87.0072 280.612 86.8901 280.699 86.8038C280.785 86.7175 280.902 86.6689 281.024 86.6689H287.411C287.533 86.6689 287.65 86.7175 287.736 86.8038C287.823 86.8901 287.871 87.0072 287.871 87.1293V103.45C287.87 104.418 287.486 105.347 286.802 106.032C286.118 106.718 285.19 107.105 284.222 107.108V107.108ZM281.485 87.5896V103.45C281.472 103.817 281.534 104.182 281.666 104.525C281.798 104.868 281.997 105.18 282.253 105.444C282.508 105.708 282.814 105.918 283.152 106.062C283.49 106.205 283.853 106.279 284.221 106.279C284.588 106.279 284.951 106.205 285.289 106.062C285.627 105.918 285.933 105.708 286.188 105.444C286.444 105.18 286.643 104.868 286.775 104.525C286.907 104.182 286.969 103.817 286.957 103.45V87.5927L281.485 87.5896Z" fill="#E5F6FF"/>
<path d="M284.314 98.4753C286.041 98.4745 287.698 97.7877 288.919 96.5659C290.14 95.3442 290.826 93.6874 290.826 91.96V88.1208C290.827 87.2938 290.664 86.4748 290.348 85.7106C290.032 84.9465 289.568 84.252 288.984 83.667C288.399 83.0819 287.705 82.6177 286.942 82.3009C286.178 81.984 285.359 81.8207 284.532 81.8203H277.802V91.9477C277.801 93.1987 278.161 94.4233 278.838 95.4752C279.515 96.5272 280.481 97.362 281.62 97.8799L284.314 98.4753Z" fill="white"/>
<path d="M284.314 98.9489C284.192 98.9489 284.075 98.9004 283.989 98.814C283.902 98.7277 283.854 98.6106 283.854 98.4885C283.854 98.3664 283.902 98.2493 283.989 98.163C284.075 98.0767 284.192 98.0282 284.314 98.0282C285.919 98.0258 287.457 97.3869 288.592 96.2519C289.726 95.1168 290.365 93.5781 290.366 91.9732V88.1217C290.366 86.5753 289.752 85.0921 288.658 83.9986C287.565 82.9051 286.082 82.2908 284.535 82.2908H278.265V91.9702C278.266 93.134 278.6 94.2733 279.229 95.2525C279.858 96.2318 280.755 97.0099 281.813 97.4942C281.868 97.5194 281.918 97.5552 281.959 97.5995C282 97.6438 282.032 97.6958 282.053 97.7525C282.074 97.8092 282.084 97.8695 282.082 97.93C282.079 97.9905 282.065 98.0499 282.04 98.1049C282.015 98.1599 281.979 98.2094 281.935 98.2506C281.891 98.2918 281.839 98.3239 281.782 98.3449C281.725 98.366 281.665 98.3757 281.604 98.3735C281.544 98.3713 281.484 98.3572 281.429 98.332C280.212 97.7745 279.181 96.8797 278.457 95.7538C277.733 94.6279 277.347 93.318 277.345 91.9794V81.8519C277.345 81.7298 277.393 81.6128 277.48 81.5264C277.566 81.4401 277.683 81.3916 277.805 81.3916H284.535C286.326 81.3916 288.043 82.1029 289.309 83.3691C290.576 84.6353 291.287 86.3526 291.287 88.1432V91.9824C291.283 93.8299 290.547 95.6004 289.24 96.9061C287.933 98.2119 286.162 98.9464 284.314 98.9489V98.9489Z" fill="#E5F6FF"/>
<path d="M284.716 82.0696L278.044 88.4253V81.8271C278.044 81.8271 284.716 82.223 284.716 82.0696Z" fill="#E5F6FF"/>
<path d="M304.866 136.807H254.33C253.785 136.786 253.268 136.554 252.89 136.161C252.511 135.768 252.299 135.243 252.299 134.697C252.299 134.151 252.511 133.626 252.89 133.233C253.268 132.839 253.785 132.608 254.33 132.587H304.866C305.412 132.608 305.928 132.839 306.307 133.233C306.685 133.626 306.897 134.151 306.897 134.697C306.897 135.243 306.685 135.768 306.307 136.161C305.928 136.554 305.412 136.786 304.866 136.807V136.807Z" fill="#E5F6FF"/>
<path d="M313.871 145.74H254.334C253.788 145.719 253.272 145.488 252.893 145.095C252.514 144.701 252.303 144.176 252.303 143.63C252.303 143.084 252.514 142.56 252.893 142.166C253.272 141.773 253.788 141.541 254.334 141.521H313.871C314.416 141.541 314.933 141.773 315.311 142.166C315.69 142.56 315.902 143.084 315.902 143.63C315.902 144.176 315.69 144.701 315.311 145.095C314.933 145.488 314.416 145.719 313.871 145.74V145.74Z" fill="#E5F6FF"/>
<path d="M304.866 154.678H254.33C253.785 154.657 253.268 154.426 252.89 154.032C252.511 153.639 252.299 153.114 252.299 152.568C252.299 152.022 252.511 151.497 252.89 151.104C253.268 150.71 253.785 150.479 254.33 150.458H304.866C305.412 150.479 305.928 150.71 306.307 151.104C306.685 151.497 306.897 152.022 306.897 152.568C306.897 153.114 306.685 153.639 306.307 154.032C305.928 154.426 305.412 154.657 304.866 154.678V154.678Z" fill="#E5F6FF"/>
<path d="M313.871 163.614H272.551C272.005 163.593 271.489 163.362 271.11 162.968C270.732 162.575 270.52 162.05 270.52 161.504C270.52 160.958 270.732 160.433 271.11 160.04C271.489 159.646 272.005 159.415 272.551 159.394H313.871C314.416 159.415 314.933 159.646 315.312 160.04C315.69 160.433 315.902 160.958 315.902 161.504C315.902 162.05 315.69 162.575 315.312 162.968C314.933 163.362 314.416 163.593 313.871 163.614V163.614Z" fill="#E5F6FF"/>
<path d="M292.855 125.23H275.343C274.798 125.209 274.281 124.978 273.903 124.584C273.524 124.191 273.313 123.666 273.312 123.12C273.313 122.574 273.524 122.049 273.903 121.656C274.281 121.263 274.798 121.031 275.343 121.01H292.855C293.139 120.999 293.422 121.046 293.687 121.147C293.952 121.248 294.195 121.402 294.399 121.599C294.604 121.796 294.767 122.032 294.878 122.294C294.989 122.555 295.047 122.836 295.047 123.12C295.047 123.404 294.989 123.685 294.878 123.947C294.767 124.208 294.604 124.444 294.399 124.641C294.195 124.838 293.952 124.992 293.687 125.093C293.422 125.194 293.139 125.241 292.855 125.23V125.23Z" fill="#A2D2EC"/>
<path d="M243.34 33.3193H179.51C173.629 33.3193 168.861 38.0871 168.861 43.9685V152.955C168.861 158.836 173.629 163.604 179.51 163.604H243.34C249.222 163.604 253.989 158.836 253.989 152.955V43.9685C253.989 38.0871 249.222 33.3193 243.34 33.3193Z" fill="white"/>
<path d="M243.338 164.065H179.504C176.561 164.06 173.739 162.888 171.657 160.807C169.576 158.726 168.404 155.905 168.398 152.961V43.9718C168.402 41.0261 169.574 38.2022 171.657 36.1196C173.741 34.037 176.565 32.8656 179.511 32.8623H243.344C246.29 32.8647 249.115 34.0359 251.198 36.1187C253.281 38.2015 254.453 41.0258 254.456 43.9718V103.334C254.456 103.456 254.408 103.573 254.322 103.659C254.235 103.746 254.118 103.794 253.996 103.794C253.874 103.794 253.757 103.746 253.671 103.659C253.584 103.573 253.536 103.456 253.536 103.334V43.9718C253.533 41.27 252.458 38.6799 250.547 36.7697C248.636 34.8596 246.046 33.7854 243.344 33.783H179.511C176.809 33.7854 174.218 34.8596 172.308 36.7697C170.397 38.6799 169.322 41.27 169.319 43.9718V152.961C169.322 155.663 170.397 158.253 172.308 160.163C174.218 162.073 176.809 163.148 179.511 163.15H243.344C246.045 163.146 248.634 162.071 250.543 160.161C252.452 158.251 253.526 155.662 253.53 152.961V116.932C253.53 116.81 253.578 116.693 253.664 116.607C253.751 116.52 253.868 116.472 253.99 116.472C254.112 116.472 254.229 116.52 254.316 116.607C254.402 116.693 254.45 116.81 254.45 116.932V152.961C254.445 155.906 253.273 158.729 251.19 160.81C249.106 162.892 246.283 164.062 243.338 164.065V164.065Z" fill="black"/>
<path d="M219.63 102.082H202.094C201.534 102.082 200.997 101.86 200.601 101.464C200.205 101.068 199.982 100.531 199.982 99.9708C199.982 99.4108 200.205 98.8738 200.601 98.4778C200.997 98.0818 201.534 97.8594 202.094 97.8594H219.636C220.196 97.8594 220.733 98.0818 221.129 98.4778C221.525 98.8738 221.747 99.4108 221.747 99.9708C221.747 100.531 221.525 101.068 221.129 101.464C220.733 101.86 220.196 102.082 219.636 102.082H219.63Z" fill="#A2D2EC"/>
<path d="M240.68 114.474H181.042C180.482 114.474 179.945 114.251 179.549 113.855C179.153 113.459 178.931 112.922 178.931 112.362C178.931 111.802 179.153 111.265 179.549 110.869C179.945 110.473 180.482 110.251 181.042 110.251H240.68C241.24 110.251 241.777 110.473 242.173 110.869C242.569 111.265 242.792 111.802 242.792 112.362C242.792 112.922 242.569 113.459 242.173 113.855C241.777 114.251 241.24 114.474 240.68 114.474V114.474Z" fill="#E5F6FF"/>
<path d="M240.68 123.681H181.042C180.482 123.681 179.945 123.458 179.549 123.062C179.153 122.666 178.931 122.129 178.931 121.569C178.931 121.009 179.153 120.472 179.549 120.076C179.945 119.68 180.482 119.458 181.042 119.458H240.68C241.24 119.458 241.777 119.68 242.173 120.076C242.569 120.472 242.792 121.009 242.792 121.569C242.792 122.129 242.569 122.666 242.173 123.062C241.777 123.458 241.24 123.681 240.68 123.681Z" fill="#E5F6FF"/>
<path d="M220.963 132.887H181.042C180.482 132.887 179.945 132.665 179.549 132.269C179.153 131.873 178.931 131.336 178.931 130.776C178.931 130.216 179.153 129.679 179.549 129.283C179.945 128.887 180.482 128.665 181.042 128.665H220.963C221.522 128.665 222.06 128.887 222.456 129.283C222.851 129.679 223.074 130.216 223.074 130.776C223.074 131.336 222.851 131.873 222.456 132.269C222.06 132.665 221.522 132.887 220.963 132.887V132.887Z" fill="#E5F6FF"/>
<path d="M240.68 142.094H181.042C180.482 142.094 179.945 141.872 179.549 141.476C179.153 141.08 178.931 140.543 178.931 139.983C178.931 139.423 179.153 138.886 179.549 138.49C179.945 138.094 180.482 137.872 181.042 137.872H240.68C241.24 137.872 241.777 138.094 242.173 138.49C242.569 138.886 242.792 139.423 242.792 139.983C242.792 140.543 242.569 141.08 242.173 141.476C241.777 141.872 241.24 142.094 240.68 142.094Z" fill="#E5F6FF"/>
<path d="M191.838 52.4721C189.341 55.5253 187.643 59.1518 186.896 63.0249C186.15 66.8979 186.379 70.8958 187.563 74.6583C188.746 78.4208 190.847 81.8297 193.677 84.5779C196.506 87.3261 199.975 89.3272 203.77 90.4008L201.036 100.175C200.942 100.509 200.985 100.865 201.155 101.167C201.325 101.468 201.608 101.69 201.941 101.783C202.274 101.877 202.631 101.834 202.932 101.664C203.234 101.494 203.456 101.211 203.549 100.878L206.311 90.9686C209.573 91.5183 212.913 91.3796 216.118 90.5614C219.323 89.7433 222.322 88.2637 224.921 86.2179C235.245 78.1068 238.252 62.084 228.929 52.8373C222.349 46.3097 218.255 44.1062 210.822 43.7012C199.492 43.0935 191.838 52.4721 191.838 52.4721Z" fill="white"/>
<path d="M203.816 75.5018C202.87 75.5045 201.936 75.2919 201.084 74.8801C200.233 74.4684 199.486 73.8683 198.9 73.1252C198.315 72.3821 197.906 71.5156 197.705 70.5912C197.504 69.6668 197.516 68.7087 197.74 67.7896C199.345 61.3449 202.865 53.0128 210.433 51.8313C218.323 50.6037 222.583 60.2278 224.663 67.5717C224.923 68.5003 224.964 69.4765 224.783 70.4236C224.603 71.3708 224.205 72.2632 223.622 73.0311C223.039 73.7989 222.286 74.4213 221.422 74.8494C220.558 75.2775 219.606 75.4998 218.642 75.4987L203.816 75.5018Z" fill="black"/>
<path d="M210.138 88.2074C215.969 88.0662 219.879 86.8079 224.083 82.8398C219.219 81.333 216.816 81.2686 211.04 81.2686C205.265 81.2686 201.754 81.557 196.89 83.0639C196.877 83.0761 202.401 88.4099 210.138 88.2074Z" fill="#52A5D8"/>
<path d="M196.782 83.5608C196.671 83.5605 196.563 83.5196 196.479 83.4458C196.395 83.3719 196.341 83.2701 196.327 83.1593C196.313 83.0485 196.339 82.9364 196.402 82.8437C196.464 82.751 196.558 82.6841 196.666 82.6555C205.64 80.3286 215.045 80.2127 224.074 82.3179C224.137 82.3277 224.197 82.3503 224.251 82.3844C224.304 82.4184 224.35 82.4632 224.386 82.5159C224.421 82.5686 224.445 82.6281 224.457 82.6906C224.468 82.7531 224.466 82.8172 224.452 82.879C224.437 82.9408 224.41 82.9989 224.371 83.0497C224.333 83.1004 224.285 83.1427 224.23 83.1739C224.174 83.205 224.113 83.2244 224.05 83.2308C223.987 83.2372 223.923 83.2305 223.862 83.211C219.66 82.2232 215.357 81.7299 211.041 81.741C206.269 81.723 201.516 82.3297 196.902 83.5455C196.863 83.5551 196.823 83.5603 196.782 83.5608V83.5608Z" fill="black"/>
<path d="M211.179 85.3659C210.692 85.3663 210.21 85.2708 209.76 85.0848C209.311 84.8989 208.902 84.6261 208.558 84.2821C208.213 83.9381 207.94 83.5296 207.754 83.08C207.568 82.6304 207.472 82.1485 207.472 81.6618V59.4766H214.886V81.6618C214.886 82.1485 214.79 82.6304 214.604 83.08C214.418 83.5296 214.144 83.9381 213.8 84.2821C213.456 84.6261 213.047 84.8989 212.597 85.0848C212.148 85.2708 211.666 85.3663 211.179 85.3659V85.3659Z" fill="white"/>
<path d="M211.179 85.8257C210.073 85.8265 209.012 85.3883 208.23 84.6074C207.447 83.8265 207.007 82.7667 207.005 81.6612V59.476C207.005 59.3539 207.053 59.2368 207.14 59.1505C207.226 59.0641 207.343 59.0156 207.465 59.0156H214.877C214.999 59.0156 215.116 59.0641 215.202 59.1505C215.288 59.2368 215.337 59.3539 215.337 59.476V81.6612C215.335 82.7641 214.897 83.8215 214.118 84.602C213.338 85.3824 212.282 85.8224 211.179 85.8257ZM207.926 59.9363V81.6612C207.951 82.5046 208.305 83.3048 208.911 83.8923C209.516 84.4797 210.327 84.8083 211.171 84.8083C212.015 84.8083 212.825 84.4797 213.431 83.8923C214.037 83.3048 214.39 82.5046 214.416 81.6612V59.9363H207.926Z" fill="black"/>
<path d="M208.41 71.9422C206.007 70.7545 204.338 68.1245 204.338 65.0709V61.1274C204.338 56.8309 207.551 53.3262 211.519 53.3262C215.229 53.3262 218.237 56.5915 218.237 60.621V65.0678C218.237 69.2354 215.125 72.6143 211.286 72.6143L208.41 71.9422Z" fill="white"/>
<path d="M211.301 73.074C211.179 73.074 211.062 73.0255 210.976 72.9392C210.89 72.8529 210.841 72.7358 210.841 72.6137C210.841 72.4916 210.89 72.3745 210.976 72.2882C211.062 72.2019 211.179 72.1534 211.301 72.1534C214.88 72.1534 217.792 68.974 217.792 65.0672V60.6204C217.792 56.8518 214.984 53.7859 211.535 53.7859C207.827 53.7859 204.814 57.0789 204.814 61.1268V65.0672C204.814 67.8293 206.311 70.3795 208.628 71.512C208.683 71.5388 208.731 71.576 208.771 71.6215C208.811 71.667 208.841 71.7199 208.86 71.7772C208.88 71.8345 208.888 71.895 208.884 71.9553C208.88 72.0157 208.864 72.0746 208.837 72.1288C208.81 72.183 208.773 72.2314 208.728 72.2712C208.682 72.3111 208.629 72.3415 208.572 72.3609C208.515 72.3803 208.454 72.3882 208.394 72.3842C208.333 72.3802 208.274 72.3643 208.22 72.3375C205.59 71.0394 203.893 68.1791 203.893 65.055V61.1268C203.893 56.5694 207.321 52.8652 211.535 52.8652C215.494 52.8652 218.713 56.3454 218.713 60.6204V65.0672C218.698 69.4865 215.374 73.074 211.301 73.074Z" fill="black"/>
<path d="M204.283 59.0098H218.725C218.427 57.1088 217.396 55.4003 215.853 54.2499C213.656 52.6295 210.722 52.473 208.23 53.5931C206.539 54.3511 204.793 55.7168 204.47 58.1505L204.283 59.0098Z" fill="black"/>
<path d="M211.301 68.2352C210.872 68.237 210.447 68.1499 210.053 67.9793C209.659 67.8087 209.304 67.5583 209.012 67.2439C208.93 67.1545 208.887 67.0365 208.892 66.9155C208.897 66.7945 208.949 66.6803 209.037 66.5975C209.126 66.5147 209.243 66.4702 209.364 66.4734C209.485 66.4766 209.6 66.5274 209.684 66.6148C209.891 66.8356 210.142 67.0117 210.419 67.132C210.697 67.2523 210.997 67.3144 211.3 67.3144C211.603 67.3144 211.902 67.2523 212.18 67.132C212.458 67.0117 212.708 66.8356 212.916 66.6148C212.957 66.5698 213.006 66.5334 213.062 66.5077C213.117 66.482 213.177 66.4676 213.238 66.4652C213.298 66.4628 213.359 66.4725 213.416 66.4938C213.473 66.5151 213.526 66.5475 213.57 66.5891C213.615 66.6307 213.65 66.6808 213.675 66.7364C213.7 66.792 213.714 66.8519 213.716 66.9129C213.717 66.9738 213.707 67.0344 213.685 67.0912C213.663 67.1481 213.63 67.2 213.588 67.2439C213.296 67.5581 212.942 67.8083 212.548 67.9789C212.155 68.1495 211.73 68.2368 211.301 68.2352V68.2352Z" fill="black"/>
<path d="M202.29 102.297C202.131 102.297 201.972 102.275 201.818 102.233C201.594 102.171 201.385 102.065 201.202 101.922C201.02 101.779 200.867 101.601 200.753 101.399C200.639 101.197 200.566 100.975 200.538 100.744C200.51 100.514 200.528 100.28 200.59 100.057L203.202 90.7149C198.442 89.2851 194.242 86.4149 191.181 82.4994C187.778 78.1636 185.955 72.7979 186.011 67.2866C186.066 61.7754 187.998 56.4477 191.488 52.1816C191.566 52.0912 191.677 52.0349 191.796 52.0248C191.916 52.0147 192.034 52.0515 192.127 52.1274C192.22 52.2033 192.279 52.3123 192.293 52.4313C192.306 52.5503 192.273 52.6699 192.2 52.7647C188.87 56.8794 187.03 61.9993 186.978 67.2923C186.926 72.5853 188.666 77.7403 191.914 81.9194C194.952 85.8041 199.152 88.616 203.902 89.9446C204.017 89.9808 204.113 90.0603 204.17 90.1663C204.227 90.2723 204.241 90.3964 204.209 90.5124L201.48 100.305C201.444 100.414 201.43 100.528 201.44 100.642C201.449 100.756 201.481 100.867 201.535 100.968C201.589 101.069 201.662 101.159 201.751 101.23C201.84 101.302 201.943 101.355 202.053 101.386C202.163 101.417 202.279 101.425 202.392 101.41C202.505 101.394 202.615 101.356 202.713 101.298C202.811 101.239 202.896 101.161 202.964 101.069C203.031 100.976 203.078 100.871 203.104 100.759L205.866 90.8499C205.896 90.7406 205.966 90.6465 206.062 90.5858C206.158 90.5251 206.273 90.5022 206.384 90.5216C210.214 91.1671 214.144 90.8461 217.818 89.5877C221.493 88.3293 224.794 86.1734 227.424 83.3156C230.054 80.4577 231.928 76.9885 232.877 73.2226C233.827 69.4567 233.82 65.5134 232.859 61.7505C231.898 57.9877 230.013 54.5244 227.374 51.6748C224.735 48.8253 221.427 46.6798 217.749 45.4331C214.071 44.1863 210.139 43.8777 206.312 44.5352C202.484 45.1928 198.881 46.7958 195.83 49.1986C195.734 49.2697 195.614 49.3004 195.495 49.2842C195.376 49.268 195.269 49.2063 195.195 49.1121C195.121 49.0179 195.087 48.8986 195.099 48.7795C195.112 48.6604 195.171 48.551 195.263 48.4744C198.42 45.9876 202.147 44.325 206.107 43.6361C210.067 42.9472 214.136 43.2536 217.948 44.5278C221.76 45.8019 225.195 48.0038 227.945 50.9354C230.695 53.867 232.673 57.4362 233.701 61.3219C234.728 65.2077 234.774 69.288 233.833 73.1957C232.893 77.1035 230.995 80.7161 228.312 83.7084C225.628 86.7008 222.243 88.979 218.46 90.3381C214.678 91.6972 210.616 92.0946 206.642 91.4944L203.981 101.008C203.878 101.378 203.657 101.703 203.352 101.936C203.047 102.168 202.674 102.295 202.29 102.297V102.297ZM210.27 88.6219C206.206 88.6243 202.227 87.4526 198.814 85.2478C195.4 83.0429 192.696 79.8988 191.026 76.1935C189.357 72.4882 188.793 68.3795 189.404 64.3616C190.014 60.3437 191.772 56.5877 194.466 53.5452C197.161 50.5028 200.677 48.3035 204.591 47.2118C208.506 46.1202 212.653 46.1826 216.533 47.3917C220.412 48.6008 223.861 50.905 226.462 54.0273C229.063 57.1495 230.708 60.9568 231.197 64.9913C231.211 65.1134 231.177 65.2363 231.101 65.333C231.025 65.4296 230.914 65.4922 230.791 65.5068C230.669 65.5215 230.546 65.487 230.45 65.4111C230.353 65.3351 230.291 65.2238 230.276 65.1017C229.669 60.0603 227.185 55.4326 223.319 52.1408C219.453 48.849 214.488 47.1348 209.415 47.3399C204.341 47.545 199.531 49.6542 195.943 53.2473C192.355 56.8404 190.253 61.6535 190.055 66.7274C189.857 71.8013 191.579 76.7634 194.876 80.6249C198.173 84.4864 202.805 86.9637 207.847 87.5631C212.889 88.1624 217.972 86.8399 222.083 83.859C226.193 80.8782 229.03 76.4578 230.027 71.4789C230.051 71.3569 230.122 71.2492 230.225 71.1795C230.276 71.145 230.333 71.1209 230.394 71.1086C230.454 71.0963 230.516 71.0959 230.577 71.1076C230.637 71.1193 230.695 71.1428 230.746 71.1767C230.797 71.2106 230.842 71.2544 230.876 71.3054C230.911 71.3564 230.935 71.4137 230.947 71.474C230.959 71.5343 230.96 71.5965 230.948 71.657C229.994 76.4368 227.413 80.7383 223.644 83.8297C219.876 86.9211 215.153 88.6113 210.279 88.6127L210.27 88.6219Z" fill="black"/>
<path d="M126.185 229.457L123.178 235.113C123.178 235.113 122.153 238.181 124.199 239.142C126.246 240.103 128.652 239.265 128.652 239.265L132.43 231.863L126.185 229.457Z" fill="black"/>
<path d="M160.587 229.577C160.587 229.577 159.145 236.752 160.925 238.783L161.554 239.882L156.674 241.377C154.698 241.99 152.378 241.496 151.832 239.505C151.832 239.505 152.854 236.856 153.504 228.585L160.587 229.577Z" fill="black"/>
<path d="M152.615 150.549C152.615 150.549 152.615 150.613 152.615 150.647C153.486 169.459 133.793 194.8 126.796 223.073L125.661 228.567C125.583 228.937 125.584 229.319 125.662 229.689C125.74 230.058 125.894 230.408 126.115 230.715L126.164 230.786C126.774 231.641 127.626 232.294 128.611 232.661C129.595 233.028 130.667 233.092 131.688 232.845C132.249 232.713 132.753 232.406 133.127 231.967C136.752 227.732 156.288 204.638 159.413 195.033C162.856 184.436 169.54 162.754 169.54 162.754L152.615 150.549Z" fill="black"/>
<path d="M164.415 159.182C164.657 168.177 162.831 175.84 161.039 180.225C156.393 191.598 151.832 207.081 152.283 227.931C152.286 228.437 152.425 228.932 152.687 229.364C152.948 229.797 153.322 230.15 153.769 230.387C155.572 231.311 157.607 231.686 159.621 231.464C160.054 231.414 160.468 231.26 160.828 231.015C161.188 230.77 161.484 230.442 161.69 230.058C164.961 223.979 183.108 195.993 184.338 175.036C184.795 167.259 186.714 158.648 187.1 150.444L164.415 159.182Z" fill="black"/>
<path d="M152.633 209.518C152.592 209.524 152.551 209.524 152.51 209.518C152.395 209.484 152.298 209.405 152.241 209.299C152.184 209.193 152.17 209.069 152.204 208.954C154.597 200.21 157.24 192.099 158.915 187.422C158.962 187.316 159.047 187.231 159.154 187.185C159.261 187.139 159.381 187.135 159.491 187.173C159.6 187.212 159.691 187.291 159.745 187.394C159.799 187.497 159.811 187.617 159.781 187.729C158.111 192.391 155.484 200.474 153.093 209.193C153.064 209.291 153.002 209.376 152.919 209.435C152.836 209.493 152.735 209.523 152.633 209.518V209.518Z" fill="#F2EFE0"/>
<path d="M150.067 242.755C150.067 242.755 148.732 244.52 148.435 246.021C148.137 247.521 149.101 249.418 151 250.253C152.9 251.087 158.399 251.48 161.597 249.154C163.932 247.461 166.058 245.497 167.931 243.305C168.597 242.436 170.531 239.88 169.435 237.36C168.189 234.491 150.067 242.755 150.067 242.755Z" fill="black"/>
<path d="M152.277 239.115C152.503 239.365 152.754 239.591 153.026 239.79C155.853 241.871 159.836 239.695 159.698 236.187L159.643 234.812C161.102 235.19 162.592 235.431 164.096 235.534C165.409 235.598 167.066 235.73 168.125 236.316C169.73 237.203 169.208 240.106 168.005 241.19C166.802 242.273 160.744 246.622 159.581 247.208C157.669 248.168 154.625 248.586 152.038 247.278C150.734 246.619 150.154 245.778 150.074 244.679C149.948 242.97 151.369 240.125 151.875 239.155C151.895 239.121 151.923 239.092 151.956 239.07C151.989 239.049 152.027 239.036 152.066 239.032C152.105 239.028 152.145 239.033 152.182 239.048C152.218 239.062 152.251 239.085 152.277 239.115V239.115Z" fill="white"/>
<path d="M155.634 248.57C154.314 248.58 153.01 248.278 151.829 247.69C150.435 246.984 149.711 246.011 149.613 244.713C149.481 242.911 150.868 240.085 151.454 238.949C151.508 238.85 151.585 238.764 151.679 238.7C151.773 238.637 151.881 238.596 151.993 238.582C152.106 238.568 152.22 238.582 152.326 238.621C152.433 238.66 152.528 238.724 152.605 238.808C152.809 239.036 153.036 239.242 153.283 239.422C153.841 239.84 154.508 240.089 155.204 240.138C155.899 240.187 156.594 240.034 157.205 239.698C157.838 239.368 158.364 238.864 158.721 238.245C159.078 237.627 159.252 236.919 159.222 236.206L159.142 234.202L159.756 234.367C161.182 234.736 162.64 234.973 164.11 235.073C165.645 235.15 167.244 235.306 168.342 235.914C168.695 236.122 168.99 236.412 169.204 236.761C169.418 237.109 169.544 237.504 169.57 237.912C169.72 239.219 169.192 240.742 168.315 241.53C167.124 242.604 161.051 246.984 159.789 247.619C158.494 248.246 157.073 248.572 155.634 248.57V248.57ZM152.145 239.643C151.605 240.699 150.423 243.181 150.533 244.645C150.604 245.618 151.147 246.302 152.246 246.867C154.655 248.095 157.561 247.708 159.372 246.797C160.465 246.244 166.455 241.966 167.698 240.846C168.349 240.263 168.766 239.005 168.652 238.016C168.64 237.756 168.565 237.502 168.435 237.277C168.305 237.051 168.123 236.859 167.904 236.718C166.964 236.2 165.448 236.061 164.07 235.994C162.741 235.909 161.42 235.712 160.124 235.405L160.155 236.169C160.194 237.056 159.979 237.935 159.536 238.704C159.093 239.473 158.44 240.1 157.653 240.511C156.886 240.926 156.017 241.114 155.147 241.052C154.277 240.99 153.443 240.681 152.743 240.162C152.532 240.003 152.332 239.829 152.145 239.643V239.643Z" fill="black"/>
<path d="M163.08 240.315C163.018 240.314 162.957 240.302 162.899 240.278C162.843 240.254 162.792 240.219 162.749 240.175C162.706 240.131 162.673 240.079 162.65 240.021C162.628 239.964 162.617 239.903 162.619 239.842C162.621 239.78 162.635 239.72 162.66 239.664C162.66 239.624 163.581 237.402 162.543 235.742C162.482 235.639 162.463 235.516 162.49 235.4C162.518 235.283 162.59 235.182 162.691 235.117C162.792 235.053 162.915 235.031 163.032 235.055C163.149 235.079 163.253 235.149 163.32 235.248C164.636 237.329 163.553 239.916 163.504 240.026C163.47 240.111 163.412 240.184 163.336 240.235C163.261 240.287 163.172 240.314 163.08 240.315V240.315Z" fill="black"/>
<path d="M165.406 239.591C165.356 239.59 165.307 239.582 165.259 239.566C165.143 239.527 165.048 239.444 164.994 239.334C164.94 239.225 164.932 239.099 164.971 238.983C164.971 238.946 165.584 237.056 164.704 236C164.625 235.906 164.587 235.785 164.597 235.664C164.608 235.542 164.667 235.43 164.76 235.351C164.854 235.272 164.975 235.234 165.097 235.245C165.218 235.256 165.331 235.314 165.409 235.408C166.637 236.865 165.876 239.179 165.842 239.275C165.812 239.366 165.753 239.446 165.675 239.503C165.597 239.56 165.503 239.59 165.406 239.591V239.591Z" fill="black"/>
<path d="M119.848 239.029C119.848 239.029 119.173 239.83 118.473 240.68C117.386 241.996 117.132 243.921 118.473 246.02C119.814 248.119 122.499 249.982 126.403 248.736C130.132 247.545 130.236 245.452 131.635 244.602C132.633 243.988 140.185 239.655 136.834 234.855L119.848 239.029Z" fill="black"/>
<path d="M130.561 233.98L131.942 233.799C133.011 233.658 134.097 233.754 135.124 234.082C135.457 234.188 135.764 234.36 136.029 234.588C136.293 234.815 136.509 235.093 136.665 235.406C136.82 235.718 136.911 236.058 136.933 236.406C136.955 236.755 136.906 237.104 136.791 237.433L136.665 237.792C136.315 238.787 135.753 239.695 135.018 240.452C134.283 241.209 133.393 241.798 132.408 242.177L130.567 242.892C130.088 243.077 129.554 243.669 129.207 244.12C128.754 244.711 128.198 245.217 127.566 245.612C126.77 246.104 125.859 246.378 124.925 246.406C123.99 246.434 123.064 246.215 122.241 245.771C120.762 245.031 119.988 243.494 119.596 242.282C119.438 241.803 119.402 241.293 119.491 240.797C119.579 240.301 119.789 239.835 120.102 239.44L123.361 235.668C123.762 236.19 124.255 236.634 124.816 236.979C125.343 237.31 125.944 237.504 126.565 237.545C127.186 237.585 127.807 237.471 128.373 237.211C128.939 236.952 129.431 236.556 129.805 236.059C130.18 235.562 130.425 234.979 130.518 234.364L130.561 233.98Z" fill="white"/>
<path d="M124.807 246.87C123.837 246.858 122.883 246.62 122.021 246.176C120.388 245.357 119.565 243.681 119.145 242.417C118.964 241.866 118.923 241.279 119.026 240.709C119.128 240.138 119.37 239.602 119.731 239.149L123.389 234.913L123.727 235.401C124.096 235.87 124.543 236.271 125.05 236.586C125.505 236.88 126.028 237.054 126.569 237.091C127.11 237.128 127.652 237.027 128.143 236.798C128.645 236.572 129.083 236.224 129.417 235.785C129.75 235.347 129.968 234.832 130.052 234.287L130.159 233.578L131.884 233.348C133.018 233.201 134.171 233.306 135.26 233.655C135.651 233.78 136.014 233.982 136.326 234.249C136.638 234.516 136.893 234.844 137.076 235.211C137.259 235.579 137.367 235.98 137.392 236.39C137.418 236.8 137.36 237.211 137.224 237.599L137.098 237.958C136.726 239.016 136.129 239.982 135.348 240.786C134.566 241.591 133.619 242.217 132.572 242.619L130.73 243.335C130.266 243.599 129.867 243.965 129.564 244.406C129.076 245.04 128.48 245.582 127.802 246.008C126.904 246.568 125.866 246.867 124.807 246.87ZM123.346 236.371L120.44 239.747C120.178 240.081 120.002 240.476 119.929 240.894C119.856 241.313 119.887 241.743 120.02 242.147C120.376 243.242 121.085 244.691 122.435 245.366C123.188 245.775 124.037 245.977 124.894 245.952C125.751 245.928 126.586 245.677 127.314 245.225C127.905 244.859 128.425 244.391 128.849 243.841C129.423 243.117 129.945 242.659 130.405 242.481L132.246 241.766C133.169 241.411 134.004 240.859 134.692 240.15C135.381 239.44 135.908 238.59 136.236 237.657L136.362 237.298C136.457 237.027 136.498 236.739 136.48 236.452C136.462 236.164 136.387 235.884 136.259 235.626C136.131 235.368 135.952 235.139 135.733 234.952C135.515 234.765 135.261 234.623 134.987 234.536C134.025 234.229 133.008 234.137 132.007 234.269L130.97 234.407V234.435C130.864 235.131 130.585 235.79 130.16 236.351C129.734 236.912 129.175 237.358 128.533 237.648C127.901 237.937 127.206 238.062 126.513 238.013C125.82 237.965 125.15 237.743 124.565 237.369C124.118 237.085 123.709 236.747 123.346 236.362V236.371Z" fill="black"/>
<path d="M132.786 237.59C132.757 237.593 132.727 237.593 132.697 237.59C132.578 237.566 132.473 237.496 132.405 237.394C132.337 237.293 132.312 237.169 132.335 237.049C132.404 236.566 132.325 236.073 132.11 235.635C131.894 235.197 131.551 234.834 131.126 234.594C131.074 234.563 131.029 234.522 130.993 234.474C130.956 234.425 130.93 234.37 130.915 234.311C130.901 234.253 130.897 234.191 130.906 234.132C130.915 234.072 130.935 234.014 130.967 233.962C130.998 233.91 131.039 233.865 131.087 233.829C131.136 233.792 131.191 233.766 131.25 233.751C131.308 233.737 131.369 233.733 131.429 233.742C131.489 233.751 131.547 233.771 131.599 233.802C132.189 234.14 132.663 234.649 132.956 235.263C133.249 235.877 133.347 236.565 133.238 237.237C133.213 237.338 133.155 237.428 133.074 237.492C132.992 237.556 132.89 237.59 132.786 237.59V237.59Z" fill="black"/>
<path d="M134.536 236.491C134.42 236.491 134.308 236.447 134.223 236.368C134.138 236.289 134.087 236.18 134.079 236.064C134.079 236.064 133.956 234.674 132.943 234.205C132.838 234.15 132.757 234.057 132.718 233.945C132.679 233.832 132.686 233.709 132.736 233.601C132.786 233.493 132.875 233.409 132.986 233.366C133.097 233.323 133.22 233.324 133.33 233.37C134.84 234.066 134.99 235.917 134.996 235.997C135.005 236.118 134.965 236.238 134.885 236.331C134.805 236.423 134.692 236.479 134.57 236.488L134.536 236.491Z" fill="black"/>
<path d="M138.912 142.834C137.344 142.991 127.459 143.718 121.419 137.718C121.402 137.701 121.381 137.687 121.358 137.678C121.334 137.669 121.309 137.666 121.285 137.667C121.26 137.669 121.236 137.676 121.214 137.688C121.192 137.7 121.173 137.717 121.158 137.737C120.094 139.096 112.038 148.813 98.9518 148.963C98.9191 148.963 98.887 148.972 98.8592 148.989C98.8314 149.007 98.809 149.032 98.7946 149.061C98.7803 149.09 98.7744 149.123 98.7778 149.156C98.7812 149.188 98.7936 149.219 98.8137 149.245C99.5595 150.166 102.082 153.118 105.126 154.864C108.438 156.767 110.936 159.775 111.353 160.296C111.372 160.321 111.397 160.339 111.426 160.35C111.455 160.361 111.486 160.364 111.516 160.358C112.82 160.149 126.517 157.811 134.26 150.924C138.326 147.309 139.007 143.915 139.118 143.031C139.122 143.003 139.119 142.975 139.11 142.949C139.101 142.923 139.086 142.899 139.065 142.88C139.045 142.86 139.021 142.846 138.994 142.838C138.968 142.831 138.939 142.829 138.912 142.834V142.834Z" fill="white"/>
<path d="M111.47 160.83C111.376 160.831 111.283 160.81 111.198 160.769C111.114 160.728 111.04 160.668 110.982 160.594C110.528 160.029 108.103 157.126 104.881 155.272C101.757 153.48 99.1635 150.436 98.4362 149.543C98.3592 149.452 98.3104 149.34 98.2957 149.222C98.281 149.104 98.301 148.984 98.3533 148.877C98.4048 148.768 98.486 148.676 98.5876 148.611C98.6891 148.547 98.8069 148.512 98.9272 148.511C111.875 148.364 119.9 138.577 120.775 137.463C120.83 137.393 120.9 137.335 120.979 137.293C121.059 137.252 121.146 137.227 121.235 137.221C121.325 137.215 121.415 137.229 121.499 137.261C121.583 137.292 121.659 137.342 121.723 137.405C127.572 143.202 137.025 142.573 138.86 142.386C138.955 142.377 139.051 142.389 139.141 142.422C139.231 142.456 139.312 142.508 139.378 142.577C139.445 142.646 139.495 142.728 139.526 142.819C139.556 142.91 139.565 143.006 139.554 143.101C139.431 144.086 138.7 147.585 134.545 151.28C126.741 158.222 113.099 160.578 111.568 160.824C111.536 160.829 111.503 160.831 111.47 160.83V160.83ZM99.5349 149.417C100.535 150.595 102.757 152.992 105.338 154.474C108.505 156.294 110.924 159.078 111.593 159.888C113.713 159.532 126.554 157.157 133.937 150.589C137.454 147.465 138.36 144.553 138.59 143.334C136.055 143.54 127.131 143.813 121.306 138.277C119.759 140.167 111.869 149.003 99.5349 149.417Z" fill="black"/>
<path d="M129.291 150.092C128.911 150.092 119.913 149.801 116.567 145.384C116.499 145.287 116.471 145.167 116.489 145.049C116.508 144.931 116.571 144.825 116.666 144.753C116.761 144.681 116.881 144.649 116.999 144.663C117.117 144.677 117.226 144.737 117.301 144.829C120.37 148.895 129.227 149.172 129.316 149.172C129.438 149.176 129.553 149.227 129.637 149.316C129.721 149.404 129.766 149.522 129.764 149.644C129.762 149.705 129.749 149.764 129.724 149.819C129.699 149.875 129.664 149.924 129.62 149.966C129.576 150.008 129.525 150.04 129.468 150.062C129.412 150.084 129.352 150.094 129.291 150.092Z" fill="#52A5D8"/>
<path d="M125.227 153.293H125.154C124.847 153.244 117.788 152.066 114.351 147.769C114.275 147.674 114.239 147.552 114.252 147.431C114.265 147.309 114.326 147.198 114.422 147.122C114.517 147.045 114.639 147.009 114.76 147.023C114.881 147.036 114.993 147.097 115.069 147.192C118.298 151.222 125.23 152.385 125.301 152.409C125.416 152.428 125.519 152.489 125.591 152.581C125.662 152.673 125.697 152.788 125.688 152.904C125.678 153.019 125.626 153.128 125.541 153.207C125.455 153.286 125.344 153.33 125.227 153.33V153.293Z" fill="#52A5D8"/>
<path d="M108.121 153.081C108.051 153.081 107.982 153.066 107.918 153.035C107.842 152.999 105.973 152.087 105.156 151.099C105.083 151.004 105.05 150.885 105.064 150.766C105.077 150.647 105.137 150.537 105.229 150.462C105.322 150.386 105.44 150.349 105.56 150.359C105.679 150.369 105.79 150.425 105.868 150.516C106.433 151.206 107.823 151.971 108.324 152.207C108.417 152.252 108.493 152.328 108.538 152.422C108.583 152.516 108.595 152.622 108.572 152.724C108.549 152.825 108.492 152.916 108.41 152.981C108.329 153.046 108.228 153.081 108.124 153.081H108.121Z" fill="#52A5D8"/>
<path d="M139.581 135.432C139.581 135.432 139.013 137.172 138.688 138.381C138.347 139.664 138.909 142.1 137.743 142.935C137.473 143.128 136.966 142.874 136.515 142.911C135.027 143.033 130.89 147.235 129.53 146.47C127.621 145.399 128.303 143.095 132.851 138.651C133.867 137.66 135.392 133.83 135.392 133.83L139.581 135.432Z" fill="white"/>
<path d="M129.901 147.023C129.687 147.028 129.475 146.976 129.288 146.872C128.963 146.719 128.682 146.488 128.468 146.2C128.254 145.912 128.114 145.576 128.06 145.221C127.858 143.687 129.266 141.48 132.498 138.322C133.274 137.564 134.52 134.698 134.934 133.658L135.103 133.237L140.139 135.158L140.001 135.576C140.001 135.576 139.433 137.316 139.117 138.501C139.021 138.999 138.98 139.506 138.995 140.013C138.97 141.241 138.946 142.628 137.994 143.309C137.842 143.396 137.674 143.45 137.5 143.468C137.327 143.487 137.151 143.469 136.984 143.417C136.833 143.383 136.679 143.368 136.524 143.371C136.018 143.411 134.861 144.23 133.842 144.951C132.363 146.01 130.936 147.023 129.901 147.023ZM135.634 134.419C135.189 135.487 134.041 138.102 133.158 138.982C130.233 141.839 128.83 143.893 128.99 145.099C129.024 145.31 129.11 145.509 129.241 145.679C129.372 145.848 129.543 145.982 129.739 146.068C130.267 146.375 132.194 145.01 133.326 144.199C134.603 143.297 135.708 142.515 136.463 142.453C136.695 142.441 136.929 142.459 137.156 142.509C137.266 142.531 137.378 142.545 137.491 142.548C138.049 142.125 138.071 140.996 138.105 139.998C138.09 139.415 138.141 138.832 138.258 138.261C138.488 137.402 138.835 136.3 139.022 135.708L135.634 134.419Z" fill="black"/>
<path d="M157.245 91.549C166.259 88.388 180.023 90.4718 184.369 94.3939C188.714 98.3159 189.672 102.431 190.598 104.552C191.525 106.673 193.833 113.532 194.797 113.759C195.168 113.854 194.711 109.432 195.441 106.013C195.543 105.52 195.747 105.055 196.04 104.647C196.334 104.239 196.71 103.897 197.144 103.644C197.578 103.39 198.061 103.231 198.561 103.177C199.06 103.122 199.566 103.174 200.045 103.327L203.368 104.386C208.214 103.199 202.616 132.804 197.734 133.311C192.79 133.82 182.733 119.461 184.206 123.634C192.734 147.814 191.537 179.538 191.264 184.945C191.253 185.174 191.165 185.391 191.013 185.562C190.861 185.733 190.655 185.847 190.43 185.884L188.469 186.191C188.065 186.253 187.652 186.181 187.293 185.987C186.934 185.792 186.649 185.486 186.48 185.114C185.811 183.629 184.731 181.152 184.105 179.283C184.043 179.099 183.928 178.939 183.773 178.822C183.618 178.706 183.432 178.639 183.238 178.631C183.045 178.623 182.854 178.674 182.69 178.778C182.526 178.881 182.398 179.031 182.322 179.209C181.401 181.324 179.866 184.387 178.97 186.096C178.776 186.474 178.471 186.783 178.095 186.982C177.72 187.181 177.293 187.261 176.871 187.21C174.02 186.866 167.529 186.016 163.089 184.948C152.394 182.367 140.738 177.138 136.576 175.186C136.373 175.091 136.191 174.955 136.042 174.788C135.892 174.62 135.778 174.424 135.706 174.212C135.634 173.999 135.606 173.774 135.623 173.55C135.64 173.326 135.702 173.108 135.806 172.909C138.737 167.409 148.616 148.665 150.776 142.03C154.56 130.401 155.941 119.648 154.956 116.122C153.397 110.527 144.617 131.107 142.849 135.474C141.849 137.93 133.421 133.535 133.495 133.225C136.392 120.737 145.35 95.7227 157.245 91.549Z" fill="#F1C40F"/>
<path d="M202.619 105.7C201.879 105.763 201.136 105.622 200.471 105.292C199.75 104.938 199.135 104.4 198.688 103.733C198.743 103.374 198.798 103.006 198.851 102.625C198.851 102.625 198.399 99.495 200.812 97.6475C203.15 95.8583 205.636 93.9893 205.891 98.7738C205.901 99.0321 205.946 99.288 206.023 99.5349C206.241 100.228 206.462 102.076 203.678 104.009C203.399 104.203 202.917 104.506 202.834 104.832L202.619 105.7Z" fill="white"/>
<path d="M202.3 106.163C201.591 106.17 200.89 106.012 200.253 105.7C199.219 105.175 198.154 104.107 198.221 103.665C198.277 103.325 198.326 102.978 198.378 102.622C198.32 102.119 198.102 99.1356 200.526 97.2819C202.091 96.082 203.712 94.8422 204.97 95.4222C205.808 95.8089 206.243 96.8646 206.345 98.7489C206.353 98.9686 206.39 99.1864 206.455 99.3964C206.707 100.197 206.962 102.284 203.933 104.39L203.847 104.448C203.699 104.549 203.313 104.813 203.273 104.945L202.981 106.114L202.674 106.154C202.55 106.166 202.425 106.169 202.3 106.163V106.163ZM199.173 103.619C199.578 104.142 200.094 104.568 200.683 104.868C201.172 105.11 201.711 105.238 202.257 105.243L202.389 104.709C202.506 104.242 203.003 103.914 203.334 103.674L203.417 103.619C205.946 101.864 205.777 100.265 205.587 99.6604C205.498 99.3756 205.446 99.0806 205.433 98.7826C205.335 96.9628 204.924 96.3981 204.595 96.2477C203.841 95.8979 202.318 97.064 201.094 98.0001C198.946 99.6542 199.305 102.521 199.308 102.548V102.613V102.677C199.265 102.996 199.219 103.312 199.173 103.619Z" fill="black"/>
<path d="M183.018 175.879H182.978C182.918 175.874 182.859 175.857 182.806 175.829C182.752 175.801 182.704 175.762 182.666 175.716C182.627 175.669 182.598 175.616 182.58 175.558C182.562 175.5 182.555 175.439 182.561 175.379C182.582 175.097 184.921 146.804 179.056 127.08C179.021 126.963 179.035 126.837 179.093 126.73C179.152 126.622 179.25 126.543 179.367 126.508C179.485 126.474 179.611 126.487 179.718 126.545C179.825 126.604 179.905 126.702 179.94 126.82C185.854 146.709 183.5 175.173 183.478 175.459C183.468 175.574 183.414 175.68 183.329 175.758C183.244 175.836 183.133 175.879 183.018 175.879V175.879Z" fill="white"/>
<path d="M178.234 120.642C178.127 120.642 178.024 120.604 177.941 120.536C177.859 120.467 177.803 120.373 177.782 120.268C177.782 120.237 177.144 116.981 176.77 113.516C176.757 113.394 176.793 113.272 176.87 113.177C176.947 113.081 177.059 113.02 177.181 113.007C177.303 112.994 177.425 113.03 177.521 113.107C177.616 113.184 177.677 113.296 177.69 113.418C178.059 116.849 178.682 120.066 178.688 120.099C178.711 120.219 178.686 120.343 178.618 120.444C178.551 120.545 178.445 120.616 178.326 120.639C178.295 120.644 178.264 120.645 178.234 120.642V120.642Z" fill="white"/>
<path d="M181.607 74.9129C182.377 75.1768 182.736 76.7543 182.859 77.5706C183.261 80.2221 181.852 86.3538 179.953 86.8541C177.28 87.5538 177.353 86.1697 176.027 86.983C174.904 87.6704 174.723 88.7967 174.186 91.3255C174.152 91.4881 178.608 92.1878 178.667 92.3413C178.802 92.6911 176.356 97.4357 169.975 96.6378C163.933 95.8767 164.507 91.7582 164.482 91.4697C164.482 91.2979 167.631 91.0063 167.711 90.8406C168.769 88.6709 169.552 84.893 169.552 84.893C169.552 84.893 173.496 72.157 181.607 74.9129Z" fill="white"/>
<path d="M171.406 97.1837C170.913 97.1826 170.421 97.1508 169.932 97.0886C166.087 96.6037 163.936 94.5874 164.034 91.5645V91.494C163.994 90.9876 164.313 90.9416 166.081 90.6868C166.508 90.6255 167.115 90.5365 167.385 90.4751C168.37 88.3606 169.11 84.8344 169.116 84.7976V84.7546C169.211 84.4477 171.476 77.2573 176.202 74.842C177.048 74.4038 177.976 74.1457 178.927 74.0839C179.877 74.0221 180.831 74.1579 181.726 74.483C182.736 74.8267 183.135 76.5238 183.285 77.5058C183.693 80.2126 182.306 86.7126 180.041 87.3049C178.507 87.71 177.761 87.4675 177.227 87.3049C177.072 87.2211 176.895 87.1849 176.72 87.2008C176.544 87.2166 176.377 87.2838 176.239 87.3939C175.346 87.9402 175.156 88.8516 174.705 91.0459C175.147 91.1502 175.96 91.3068 176.595 91.4264C178.918 91.8745 178.964 91.8899 179.084 92.1967C179.283 92.7246 178.439 93.8355 178.268 94.0534C177.503 95.0386 175.352 97.1837 171.406 97.1837ZM164.961 91.7916C164.961 94.2468 166.732 95.7567 170.055 96.1741C175.165 96.8185 177.574 93.7189 178.117 92.6448C177.697 92.5527 177.006 92.4177 176.457 92.3134C174.075 91.8561 173.977 91.8162 173.827 91.5891L173.719 91.4295L173.833 90.8648C174.315 88.5233 174.557 87.3479 175.797 86.5898C176.049 86.4093 176.344 86.2979 176.653 86.2667C176.961 86.2355 177.272 86.2855 177.556 86.4118C178.004 86.5591 178.559 86.7433 179.845 86.4118C181.352 86.0159 182.819 80.3231 182.411 77.6409C182.227 76.4133 181.837 75.4926 181.469 75.3545C180.687 75.0684 179.854 74.9479 179.023 75.0008C178.192 75.0536 177.381 75.2786 176.641 75.6614C172.369 77.8434 170.153 84.5981 170.025 85.0093C169.951 85.3592 169.187 88.9099 168.146 91.0398C168.005 91.3282 167.8 91.3681 166.222 91.5983C165.817 91.6474 165.268 91.7272 164.961 91.7916Z" fill="black"/>
<path d="M178.157 81.6956H178.093C176.822 81.5237 176.107 80.1611 175.966 78.9151C175.834 77.7582 176.181 76.8498 176.844 76.5981C178.029 76.1501 178.974 77.4359 179.348 78.2645C179.398 78.376 179.402 78.5029 179.358 78.6171C179.315 78.7314 179.228 78.8237 179.116 78.8737C179.005 78.9238 178.878 78.9275 178.764 78.884C178.65 78.8406 178.557 78.7535 178.507 78.642C178.507 78.6267 177.829 77.2119 177.169 77.4605C176.991 77.528 176.792 78.0344 176.881 78.8108C176.979 79.6885 177.439 80.6767 178.219 80.7841C178.279 80.7881 178.338 80.804 178.393 80.8309C178.447 80.8578 178.495 80.895 178.535 80.9406C178.575 80.9862 178.606 81.0393 178.625 81.0966C178.645 81.154 178.652 81.2147 178.648 81.2751C178.644 81.3356 178.628 81.3947 178.602 81.449C178.575 81.5033 178.538 81.5518 178.492 81.5917C178.446 81.6316 178.393 81.6621 178.336 81.6815C178.279 81.7009 178.218 81.7088 178.157 81.7048V81.6956Z" fill="black"/>
<path d="M184.618 73.4485C184.697 73.8835 184.677 74.3309 184.559 74.7571C184.44 75.1832 184.227 75.577 183.934 75.9087C183.642 76.2405 183.278 76.5016 182.87 76.6724C182.462 76.8432 182.021 76.9193 181.579 76.8949C180.26 76.8275 178.938 76.8552 177.623 76.9777C177.346 76.9998 177.078 77.0859 176.839 77.2291C176.601 77.3723 176.398 77.5688 176.249 77.8033C175.429 78.724 175.678 98.0428 172.038 104.883C169.221 110.18 164.059 117.003 154.947 116.751C141.95 116.389 138.572 102.566 140.867 97.7973C146.821 85.4203 159.894 96.8766 162.187 78.3281C163.513 67.5869 175.779 59.4297 183.237 69.9284C183.945 70.9888 184.416 72.1895 184.618 73.4485V73.4485Z" fill="white"/>
<path d="M155.447 117.218C155.278 117.218 155.109 117.218 154.938 117.218C149.503 117.067 144.997 114.502 142.254 109.997C139.437 105.375 139.225 100.176 140.455 97.6043C143.171 91.9544 147.275 91.0982 151.243 90.2726C156.205 89.2354 160.492 88.3392 161.732 78.2793C162.518 71.9052 167.045 66.2829 172.495 64.905C176.724 63.837 180.674 65.5188 183.617 69.6679C184.365 70.7821 184.862 72.0463 185.071 73.3721C185.165 73.8757 185.143 74.3941 185.007 74.888C184.871 75.3819 184.625 75.8384 184.286 76.2228C183.948 76.6073 183.526 76.9096 183.053 77.1069C182.58 77.3042 182.069 77.3914 181.557 77.3617C180.267 77.2948 178.974 77.3214 177.687 77.4415C177.494 77.4498 177.304 77.5028 177.135 77.5965C176.965 77.6903 176.819 77.8221 176.709 77.9816L176.613 78.0952C176.417 78.5156 176.242 81.0935 176.073 83.5916C175.622 90.2941 174.938 100.422 172.446 105.105C168.165 113.142 162.447 117.218 155.447 117.218ZM174.913 65.4973C174.172 65.5003 173.434 65.5952 172.716 65.7796C167.704 67.0471 163.371 72.4607 162.644 78.3622C161.321 89.0758 156.291 90.1253 151.427 91.1411C147.677 91.9237 143.801 92.7339 141.281 97.9726C140.139 100.345 140.483 105.301 143.036 109.487C144.859 112.479 148.407 116.085 154.959 116.266C161.824 116.457 167.428 112.547 171.633 104.641C174.029 100.133 174.732 89.7202 175.153 83.4996C175.459 79.0251 175.57 77.8466 175.908 77.4722L175.981 77.3801C176.165 77.1272 176.401 76.9174 176.674 76.7652C176.947 76.6131 177.25 76.5224 177.562 76.4994C178.905 76.3699 180.256 76.3401 181.603 76.4104C181.976 76.4326 182.349 76.3697 182.693 76.2263C183.037 76.083 183.345 75.8631 183.591 75.5832C183.838 75.3033 184.018 74.9709 184.117 74.6112C184.216 74.2514 184.232 73.8739 184.163 73.5072C183.977 72.3138 183.533 71.1753 182.862 70.1713C180.68 67.1238 177.915 65.4973 174.913 65.4973Z" fill="black"/>
<path d="M156.573 110.742C154.952 110.746 153.37 110.241 152.05 109.3C151.95 109.229 151.882 109.121 151.862 109.001C151.842 108.88 151.87 108.757 151.941 108.657C152.011 108.557 152.119 108.49 152.24 108.469C152.36 108.449 152.484 108.477 152.584 108.548C153.613 109.281 154.824 109.716 156.085 109.805C157.345 109.895 158.606 109.636 159.729 109.056C160.852 108.477 161.793 107.599 162.45 106.52C163.107 105.441 163.454 104.201 163.454 102.938C163.454 102.816 163.502 102.699 163.588 102.612C163.675 102.526 163.792 102.478 163.914 102.478C164.036 102.478 164.153 102.526 164.24 102.612C164.326 102.699 164.374 102.816 164.374 102.938C164.373 105.007 163.55 106.99 162.088 108.453C160.625 109.917 158.642 110.74 156.573 110.742V110.742Z" fill="black"/>
<path d="M153.2 102.825C152.128 102.823 151.081 102.495 150.2 101.883C149.319 101.272 148.645 100.407 148.268 99.4027C148.246 99.3459 148.236 99.2853 148.237 99.2244C148.239 99.1635 148.253 99.1035 148.278 99.0479C148.303 98.9923 148.338 98.9422 148.383 98.9005C148.427 98.8588 148.479 98.8263 148.537 98.805C148.594 98.7837 148.654 98.7739 148.715 98.7762C148.776 98.7785 148.836 98.7929 148.891 98.8186C148.947 98.8442 148.996 98.8805 149.037 98.9255C149.078 98.9705 149.11 99.0231 149.131 99.0805C149.412 99.8264 149.892 100.481 150.519 100.973C151.146 101.465 151.896 101.775 152.687 101.87C153.479 101.965 154.281 101.841 155.007 101.511C155.732 101.182 156.354 100.659 156.803 100.001C156.835 99.9475 156.878 99.9009 156.929 99.8644C156.98 99.8278 157.037 99.802 157.099 99.7885C157.16 99.775 157.223 99.7741 157.284 99.7858C157.346 99.7976 157.404 99.8218 157.456 99.8569C157.508 99.892 157.552 99.9373 157.586 99.99C157.619 100.043 157.642 100.102 157.652 100.164C157.662 100.225 157.66 100.288 157.645 100.349C157.629 100.41 157.602 100.467 157.564 100.517C157.081 101.229 156.43 101.811 155.669 102.214C154.909 102.616 154.061 102.826 153.2 102.825Z" fill="black"/>
<path d="M113.465 49.9372C112.664 49.9119 111.903 49.5757 111.345 48.9998C110.787 48.4239 110.475 47.6534 110.475 46.8514C110.475 46.0495 110.787 45.279 111.345 44.703C111.903 44.1271 112.664 43.7909 113.465 43.7656C113.587 43.7656 113.704 43.8141 113.791 43.9005C113.877 43.9868 113.925 44.1039 113.925 44.226C113.925 44.3481 113.877 44.4651 113.791 44.5515C113.704 44.6378 113.587 44.6863 113.465 44.6863C113.036 44.6863 112.617 44.8134 112.261 45.0517C111.905 45.2899 111.627 45.6284 111.463 46.0245C111.299 46.4206 111.256 46.8564 111.34 47.2768C111.424 47.6971 111.631 48.0832 111.934 48.3861C112.237 48.689 112.624 48.8951 113.044 48.9784C113.465 49.0616 113.901 49.0183 114.296 48.8538C114.692 48.6893 115.03 48.4112 115.268 48.0544C115.506 47.6977 115.632 47.2785 115.632 46.8499C115.632 46.7278 115.68 46.6107 115.767 46.5244C115.853 46.4381 115.97 46.3895 116.092 46.3895C116.214 46.3895 116.331 46.4381 116.418 46.5244C116.504 46.6107 116.552 46.7278 116.552 46.8499C116.552 47.6684 116.226 48.4532 115.647 49.0321C115.068 49.6109 114.284 49.9364 113.465 49.9372V49.9372Z" fill="black"/>
<path d="M184.259 224.081C184.136 224.08 184.018 224.032 183.93 223.946L182.586 222.598C182.541 222.556 182.504 222.505 182.479 222.449C182.454 222.393 182.441 222.332 182.44 222.27C182.438 222.208 182.45 222.147 182.473 222.089C182.496 222.032 182.531 221.98 182.574 221.936C182.618 221.892 182.67 221.858 182.727 221.835C182.785 221.812 182.846 221.8 182.908 221.801C182.97 221.802 183.031 221.816 183.087 221.841C183.144 221.866 183.194 221.903 183.237 221.948L184.584 223.295C184.669 223.382 184.717 223.499 184.717 223.62C184.717 223.742 184.669 223.859 184.584 223.946C184.497 224.031 184.38 224.08 184.259 224.081Z" fill="black"/>
<path d="M188.969 228.791C188.846 228.791 188.728 228.742 188.641 228.656L187.296 227.309C187.215 227.222 187.171 227.106 187.173 226.987C187.175 226.868 187.223 226.754 187.308 226.669C187.392 226.585 187.506 226.537 187.625 226.535C187.744 226.533 187.86 226.577 187.947 226.658L189.294 228.005C189.38 228.092 189.428 228.209 189.428 228.331C189.428 228.453 189.38 228.569 189.294 228.656C189.207 228.742 189.091 228.79 188.969 228.791V228.791Z" fill="black"/>
<path d="M182.91 228.791C182.788 228.791 182.672 228.742 182.585 228.656C182.542 228.614 182.508 228.563 182.485 228.507C182.461 228.451 182.449 228.391 182.449 228.331C182.449 228.27 182.461 228.21 182.485 228.155C182.508 228.099 182.542 228.048 182.585 228.006L183.929 226.658C184.016 226.572 184.133 226.523 184.255 226.522C184.377 226.522 184.495 226.57 184.581 226.657C184.668 226.743 184.717 226.86 184.717 226.983C184.718 227.105 184.669 227.222 184.583 227.309L183.236 228.656C183.149 228.742 183.032 228.791 182.91 228.791V228.791Z" fill="black"/>
<path d="M187.622 224.081C187.5 224.08 187.383 224.032 187.297 223.946C187.254 223.903 187.219 223.853 187.196 223.797C187.173 223.741 187.161 223.681 187.161 223.62C187.161 223.56 187.173 223.5 187.196 223.444C187.219 223.388 187.254 223.338 187.297 223.295L188.641 221.948C188.727 221.861 188.844 221.812 188.966 221.812C189.089 221.812 189.206 221.86 189.293 221.946C189.38 222.033 189.428 222.15 189.429 222.272C189.429 222.394 189.381 222.512 189.294 222.598L187.947 223.946C187.861 224.032 187.744 224.08 187.622 224.081V224.081Z" fill="black"/>
<path d="M249.515 214.487C249.455 214.487 249.395 214.475 249.339 214.452C249.283 214.429 249.233 214.395 249.19 214.352L247.843 213.005C247.8 212.962 247.766 212.911 247.742 212.856C247.719 212.8 247.707 212.74 247.707 212.679C247.707 212.619 247.719 212.559 247.742 212.503C247.766 212.447 247.8 212.397 247.843 212.354C247.93 212.269 248.046 212.221 248.168 212.221C248.29 212.221 248.407 212.269 248.494 212.354L249.841 213.701C249.926 213.788 249.974 213.905 249.974 214.027C249.974 214.148 249.926 214.265 249.841 214.352C249.754 214.437 249.637 214.486 249.515 214.487V214.487Z" fill="black"/>
<path d="M254.226 219.198C254.166 219.199 254.106 219.187 254.05 219.163C253.994 219.14 253.944 219.106 253.901 219.063L252.554 217.716C252.511 217.674 252.477 217.623 252.453 217.567C252.43 217.511 252.418 217.451 252.418 217.391C252.418 217.33 252.43 217.27 252.453 217.215C252.477 217.159 252.511 217.108 252.554 217.065C252.641 216.98 252.757 216.932 252.879 216.932C253.001 216.932 253.118 216.98 253.204 217.065L254.552 218.413C254.637 218.499 254.685 218.616 254.685 218.738C254.685 218.86 254.637 218.977 254.552 219.063C254.465 219.149 254.348 219.197 254.226 219.198V219.198Z" fill="black"/>
<path d="M248.168 219.198C248.046 219.197 247.929 219.149 247.843 219.063C247.8 219.02 247.766 218.97 247.742 218.914C247.719 218.858 247.707 218.798 247.707 218.738C247.707 218.677 247.719 218.617 247.742 218.561C247.766 218.505 247.8 218.455 247.843 218.412L249.19 217.065C249.277 216.984 249.393 216.939 249.512 216.941C249.631 216.944 249.745 216.992 249.829 217.076C249.914 217.161 249.962 217.274 249.964 217.394C249.966 217.513 249.922 217.628 249.841 217.716L248.494 219.063C248.407 219.149 248.29 219.197 248.168 219.198V219.198Z" fill="black"/>
<path d="M252.879 214.487C252.757 214.486 252.64 214.438 252.554 214.352C252.511 214.309 252.477 214.259 252.453 214.203C252.43 214.147 252.418 214.087 252.418 214.027C252.418 213.966 252.43 213.906 252.453 213.85C252.477 213.794 252.511 213.744 252.554 213.701L253.901 212.354C253.988 212.273 254.104 212.228 254.223 212.231C254.342 212.233 254.456 212.281 254.54 212.365C254.625 212.45 254.673 212.563 254.675 212.683C254.677 212.802 254.633 212.917 254.552 213.005L253.204 214.352C253.162 214.395 253.111 214.429 253.055 214.452C253 214.475 252.94 214.487 252.879 214.487V214.487Z" fill="black"/>
<path d="M240.886 206.327C240.242 206.327 239.614 206.136 239.079 205.779C238.544 205.421 238.127 204.913 237.88 204.319C237.634 203.724 237.57 203.07 237.695 202.439C237.821 201.808 238.131 201.229 238.586 200.774C239.041 200.319 239.62 200.009 240.251 199.883C240.882 199.758 241.536 199.822 242.131 200.068C242.725 200.315 243.233 200.732 243.591 201.267C243.948 201.802 244.139 202.43 244.139 203.074C244.137 203.936 243.794 204.763 243.184 205.372C242.575 205.982 241.748 206.325 240.886 206.327V206.327ZM240.886 200.741C240.425 200.741 239.974 200.878 239.59 201.135C239.206 201.391 238.908 201.755 238.731 202.181C238.555 202.607 238.508 203.076 238.598 203.529C238.688 203.981 238.91 204.397 239.237 204.723C239.563 205.049 239.978 205.271 240.431 205.361C240.883 205.451 241.352 205.405 241.778 205.229C242.205 205.052 242.569 204.753 242.825 204.37C243.081 203.986 243.218 203.535 243.218 203.074C243.217 202.456 242.971 201.863 242.534 201.426C242.097 200.988 241.504 200.742 240.886 200.741V200.741Z" fill="black"/>
<path d="M232.667 213.299C232.242 213.299 231.827 213.173 231.474 212.937C231.12 212.701 230.845 212.366 230.683 211.973C230.52 211.581 230.477 211.149 230.56 210.732C230.643 210.315 230.848 209.933 231.148 209.632C231.449 209.332 231.831 209.127 232.248 209.044C232.665 208.961 233.097 209.004 233.489 209.166C233.882 209.329 234.217 209.604 234.453 209.958C234.69 210.311 234.816 210.726 234.816 211.151C234.816 211.721 234.589 212.267 234.186 212.67C233.783 213.073 233.237 213.299 232.667 213.299V213.299ZM232.667 209.945C232.424 209.945 232.187 210.017 231.985 210.152C231.783 210.287 231.626 210.479 231.533 210.703C231.44 210.927 231.416 211.174 231.463 211.412C231.511 211.65 231.628 211.869 231.799 212.041C231.971 212.212 232.19 212.329 232.428 212.377C232.666 212.424 232.913 212.4 233.137 212.307C233.361 212.214 233.553 212.057 233.688 211.855C233.823 211.653 233.895 211.415 233.895 211.173C233.895 210.847 233.766 210.535 233.535 210.305C233.305 210.074 232.993 209.945 232.667 209.945Z" fill="black"/>
<path d="M283.685 219.443C283.624 219.443 283.563 219.431 283.507 219.407C283.45 219.384 283.399 219.349 283.357 219.305C283.271 219.219 283.222 219.102 283.222 218.98C283.222 218.858 283.271 218.741 283.357 218.654C288.38 213.748 292.915 208.367 296.9 202.585C296.971 202.489 297.076 202.424 297.194 202.404C297.312 202.384 297.433 202.411 297.532 202.479C297.63 202.547 297.698 202.65 297.722 202.768C297.745 202.885 297.723 203.007 297.658 203.107C293.64 208.937 289.067 214.364 284.001 219.311C283.917 219.395 283.804 219.442 283.685 219.443V219.443Z" fill="black"/>
<path d="M121.622 209.941C121.553 209.941 121.485 209.926 121.423 209.897C121.361 209.868 121.306 209.825 121.263 209.772C118.676 206.582 116.257 203.259 114.017 199.817C113.979 199.766 113.952 199.709 113.937 199.647C113.922 199.586 113.92 199.522 113.931 199.46C113.942 199.398 113.966 199.338 114.001 199.286C114.036 199.233 114.081 199.188 114.134 199.154C114.187 199.119 114.246 199.096 114.309 199.086C114.371 199.075 114.435 199.078 114.496 199.093C114.557 199.108 114.615 199.136 114.665 199.175C114.715 199.213 114.756 199.261 114.787 199.316C117.013 202.731 119.415 206.028 121.984 209.192C122.022 209.239 122.05 209.293 122.068 209.351C122.085 209.409 122.09 209.47 122.084 209.53C122.078 209.59 122.06 209.648 122.031 209.702C122.002 209.755 121.963 209.802 121.916 209.84C121.833 209.906 121.729 209.942 121.622 209.941Z" fill="black"/>
<path d="M272.109 235.804C272.03 235.803 271.953 235.783 271.884 235.744C271.815 235.706 271.757 235.65 271.716 235.583C271.653 235.479 271.633 235.354 271.662 235.235C271.691 235.117 271.765 235.014 271.869 234.951C289.203 224.322 303.44 209.326 313.156 191.464C313.214 191.357 313.312 191.277 313.429 191.242C313.546 191.207 313.673 191.221 313.78 191.279C313.888 191.337 313.967 191.435 314.002 191.553C314.037 191.67 314.024 191.796 313.966 191.903C304.174 209.907 289.824 225.022 272.351 235.734C272.278 235.779 272.195 235.803 272.109 235.804V235.804Z" fill="black"/>
<path d="M289.967 51.439C289.854 51.4375 289.745 51.395 289.66 51.3193C281.954 44.2449 273.324 38.2497 264.004 33.4981C263.95 33.4705 263.903 33.4326 263.863 33.3865C263.824 33.3404 263.795 33.287 263.776 33.2295C263.758 33.1719 263.751 33.1113 263.755 33.051C263.76 32.9907 263.777 32.932 263.805 32.8782C263.832 32.8244 263.87 32.7766 263.916 32.7374C263.962 32.6983 264.016 32.6686 264.073 32.6501C264.131 32.6315 264.192 32.6245 264.252 32.6295C264.312 32.6344 264.371 32.6511 264.425 32.6787C273.817 37.4697 282.515 43.5122 290.283 50.6411C290.351 50.7036 290.398 50.785 290.419 50.8746C290.44 50.9642 290.433 51.0581 290.4 51.144C290.367 51.2298 290.309 51.3038 290.233 51.3564C290.158 51.409 290.068 51.4378 289.976 51.439H289.967Z" fill="black"/>
<path d="M120.155 40.9457C120.071 40.9456 119.989 40.9222 119.918 40.8781C119.814 40.8156 119.739 40.7144 119.709 40.5965C119.679 40.4786 119.697 40.3537 119.759 40.249C123.466 34.0375 128.103 29.2009 133.538 25.8527C139.428 22.2345 146.446 20.2581 154.407 19.9788C154.467 19.9766 154.528 19.9863 154.584 20.0074C154.641 20.0285 154.693 20.0605 154.737 20.1017C154.782 20.1429 154.818 20.1924 154.843 20.2474C154.868 20.3024 154.882 20.3618 154.884 20.4223C154.886 20.4827 154.877 20.543 154.856 20.5997C154.835 20.6564 154.802 20.7084 154.761 20.7527C154.72 20.797 154.671 20.8328 154.616 20.858C154.561 20.8832 154.501 20.8973 154.441 20.8995C139.286 21.4304 128.205 27.915 120.56 40.7186C120.519 40.7891 120.46 40.8474 120.388 40.8874C120.317 40.9273 120.236 40.9474 120.155 40.9457V40.9457Z" fill="black"/>
<path d="M236.092 29.1185C236.031 29.1184 235.97 29.1059 235.914 29.0816C235.857 29.0589 235.804 29.0247 235.76 28.9811C235.716 28.9375 235.682 28.8854 235.658 28.828C235.635 28.7706 235.624 28.7091 235.625 28.6472C235.626 28.5853 235.64 28.5243 235.666 28.4679L244.719 6.72766C244.742 6.67034 244.776 6.61827 244.82 6.57454C244.864 6.53081 244.916 6.49632 244.973 6.47312C245.03 6.44992 245.092 6.43849 245.154 6.43952C245.215 6.44054 245.276 6.45399 245.333 6.47908C245.39 6.50287 245.441 6.53765 245.484 6.58144C245.528 6.62523 245.562 6.67715 245.585 6.7342C245.608 6.79126 245.62 6.85233 245.619 6.91388C245.618 6.97544 245.606 7.03627 245.581 7.09286L236.528 28.8331C236.492 28.9188 236.432 28.9919 236.354 29.0428C236.276 29.0937 236.185 29.12 236.092 29.1185V29.1185Z" fill="black"/>
<path d="M243.672 28.8485C243.585 28.8484 243.499 28.8234 243.425 28.7764C243.352 28.7294 243.293 28.6623 243.256 28.5832C243.219 28.504 243.205 28.4159 243.216 28.3292C243.227 28.2425 243.263 28.1608 243.319 28.0936L247.379 23.2171C247.457 23.1231 247.57 23.064 247.691 23.0527C247.813 23.0415 247.934 23.0791 248.028 23.1572C248.122 23.2354 248.181 23.3477 248.193 23.4694C248.204 23.5911 248.166 23.7123 248.088 23.8063L244.025 28.6705C243.983 28.7246 243.93 28.7686 243.868 28.7993C243.807 28.8301 243.74 28.8469 243.672 28.8485V28.8485Z" fill="black"/>
<path d="M211.992 27.7646C211.869 27.7646 211.752 27.7161 211.666 27.6297C211.58 27.5434 211.531 27.4263 211.531 27.3042V11.9965C211.531 11.8744 211.58 11.7573 211.666 11.671C211.752 11.5846 211.869 11.5361 211.992 11.5361C212.114 11.5361 212.231 11.5846 212.317 11.671C212.403 11.7573 212.452 11.8744 212.452 11.9965V27.3042C212.452 27.4263 212.403 27.5434 212.317 27.6297C212.231 27.7161 212.114 27.7646 211.992 27.7646Z" fill="black"/>
<path d="M206.937 184.547C206.898 184.551 206.859 184.551 206.82 184.547C206.702 184.515 206.601 184.438 206.54 184.332C206.478 184.226 206.461 184.1 206.492 183.982L210.101 170.264C210.133 170.146 210.21 170.045 210.316 169.983C210.422 169.922 210.547 169.905 210.666 169.935C210.724 169.951 210.779 169.977 210.827 170.014C210.875 170.051 210.915 170.096 210.945 170.149C210.976 170.201 210.995 170.258 211.003 170.318C211.011 170.378 211.007 170.439 210.991 170.497L207.382 184.218C207.353 184.314 207.295 184.397 207.214 184.457C207.134 184.516 207.037 184.547 206.937 184.547Z" fill="black"/>
<path d="M227.874 196.098C227.771 196.098 227.672 196.064 227.591 196.001C227.511 195.938 227.453 195.85 227.429 195.751L220.57 168.674C220.55 168.614 220.543 168.551 220.548 168.488C220.554 168.425 220.573 168.364 220.603 168.308C220.633 168.253 220.675 168.205 220.725 168.166C220.774 168.127 220.832 168.099 220.893 168.084C220.954 168.068 221.018 168.065 221.08 168.075C221.142 168.085 221.202 168.108 221.255 168.142C221.308 168.176 221.354 168.221 221.389 168.273C221.424 168.326 221.448 168.385 221.46 168.447L228.322 195.524C228.351 195.643 228.332 195.768 228.269 195.873C228.207 195.978 228.105 196.054 227.987 196.085C227.95 196.094 227.912 196.098 227.874 196.098V196.098Z" fill="black"/>
</g>
<defs>
<filter id="filter0_f_1636_39759" x="102" y="-29" width="297" height="279" filterUnits="userSpaceOnUse" color-interpolation-filters="sRGB">
<feFlood flood-opacity="0" result="BackgroundImageFix"/>
<feBlend mode="normal" in="SourceGraphic" in2="BackgroundImageFix" result="shape"/>
<feGaussianBlur stdDeviation="25" result="effect1_foregroundBlur_1636_39759"/>
</filter>
<filter id="filter1_f_1636_39759" x="-16" y="24" width="278" height="278" filterUnits="userSpaceOnUse" color-interpolation-filters="sRGB">
<feFlood flood-opacity="0" result="BackgroundImageFix"/>
<feBlend mode="normal" in="SourceGraphic" in2="BackgroundImageFix" result="shape"/>
<feGaussianBlur stdDeviation="30" result="effect1_foregroundBlur_1636_39759"/>
</filter>
<clipPath id="clip0_1636_39759">
<rect width="400" height="260" fill="white"/>
</clipPath>
</defs>
</svg>
