<svg viewBox="0 0 20 20" fill="none" xmlns="http://www.w3.org/2000/svg">
    <circle cx="10" cy="10" r="9.5" stroke="#7A7B7D"/>
    <path
        d="M13.5469 10.4814C13.8294 10.6729 14.0641 10.9235 14.251 11.2334C14.4378 11.5433 14.5312 11.9193 14.5312 12.3613C14.5312 12.8125 14.4333 13.2044 14.2373 13.5371C14.0413 13.8698 13.7861 14.1432 13.4717 14.3574C13.1663 14.5671 12.82 14.7266 12.4326 14.8359C12.0498 14.9453 11.6533 15 11.2432 15H6.64941V14.5146C6.75879 14.5055 6.91829 14.4873 7.12793 14.46C7.33757 14.4281 7.48796 14.3916 7.5791 14.3506C7.72038 14.2868 7.82064 14.2025 7.87988 14.0977C7.93913 13.9883 7.96875 13.8493 7.96875 13.6807V6.70801C7.96875 6.55306 7.94141 6.41634 7.88672 6.29785C7.83659 6.17936 7.73405 6.08366 7.5791 6.01074C7.44238 5.94238 7.28971 5.88997 7.12109 5.85352C6.95247 5.81706 6.8112 5.79427 6.69727 5.78516V5.2998H11.1748C11.5212 5.2998 11.8516 5.33398 12.166 5.40234C12.485 5.4707 12.7881 5.59147 13.0752 5.76465C13.3441 5.92415 13.5651 6.14062 13.7383 6.41406C13.9115 6.6875 13.998 7.02018 13.998 7.41211C13.998 7.75391 13.9365 8.05924 13.8135 8.32812C13.6904 8.59245 13.5173 8.82031 13.2939 9.01172C13.0843 9.19401 12.8428 9.34896 12.5693 9.47656C12.3005 9.59961 12.0088 9.69531 11.6943 9.76367V9.8252C11.9723 9.8571 12.2822 9.92773 12.624 10.0371C12.9704 10.1419 13.278 10.29 13.5469 10.4814ZM11.8994 9.01855C12.068 8.82259 12.1842 8.6084 12.248 8.37598C12.3164 8.14355 12.3506 7.86784 12.3506 7.54883C12.3506 7.01562 12.2048 6.59863 11.9131 6.29785C11.6214 5.99251 11.1611 5.83984 10.5322 5.83984C10.3864 5.83984 10.2018 5.8444 9.97852 5.85352C9.75977 5.85807 9.5752 5.86263 9.4248 5.86719V9.59277H10.293C10.6667 9.59277 10.9857 9.54492 11.25 9.44922C11.5189 9.35352 11.7354 9.20996 11.8994 9.01855ZM12.8428 12.1152C12.8428 11.541 12.6491 11.0693 12.2617 10.7002C11.8789 10.3311 11.3298 10.1465 10.6143 10.1465C10.3226 10.1465 10.0765 10.151 9.87598 10.1602C9.67546 10.1647 9.52507 10.1693 9.4248 10.1738V13.5918C9.4248 13.8789 9.54102 14.0954 9.77344 14.2412C10.0059 14.387 10.3294 14.46 10.7441 14.46C11.4232 14.46 11.9427 14.2617 12.3027 13.8652C12.6628 13.4688 12.8428 12.8854 12.8428 12.1152Z"
        fill="#7A7B7D"/>
</svg>
