<svg viewBox="0 0 20 20" fill="none" xmlns="http://www.w3.org/2000/svg">
    <circle cx="10" cy="10" r="9.5" stroke="#7A7B7D"/>
    <path
        d="M14.1963 7.72656H13.6836C13.5879 7.36654 13.3874 6.98145 13.082 6.57129C12.7812 6.16113 12.4919 5.93555 12.2139 5.89453C12.0726 5.8763 11.904 5.86263 11.708 5.85352C11.5166 5.8444 11.2979 5.83984 11.0518 5.83984H9.4248V9.73633H10.5391C10.8763 9.73633 11.1383 9.70215 11.3252 9.63379C11.512 9.56087 11.6715 9.4515 11.8037 9.30566C11.8949 9.2054 11.9769 9.05046 12.0498 8.84082C12.1273 8.62663 12.1774 8.39876 12.2002 8.15723H12.7197V11.9648H12.2002C12.1865 11.7643 12.1387 11.5365 12.0566 11.2812C11.9792 11.026 11.8949 10.8415 11.8037 10.7275C11.667 10.5589 11.4938 10.445 11.2842 10.3857C11.0791 10.3219 10.8307 10.29 10.5391 10.29H9.4248V13.6328C9.4248 13.7832 9.45443 13.9176 9.51367 14.0361C9.57292 14.1546 9.67773 14.2503 9.82812 14.3232C9.89648 14.3551 10.0446 14.3939 10.2725 14.4395C10.5003 14.485 10.6735 14.5101 10.792 14.5146V15H6.58789V14.5146C6.72461 14.5055 6.9069 14.4919 7.13477 14.4736C7.36263 14.4508 7.51074 14.4235 7.5791 14.3916C7.71582 14.3324 7.8138 14.2458 7.87305 14.1318C7.93685 14.0133 7.96875 13.8721 7.96875 13.708V6.70801C7.96875 6.55762 7.94368 6.42546 7.89355 6.31152C7.84342 6.19303 7.73861 6.09733 7.5791 6.02441C7.45605 5.96517 7.28971 5.91276 7.08008 5.86719C6.875 5.82161 6.71094 5.79427 6.58789 5.78516V5.2998H14.1963V7.72656Z"
        fill="#7A7B7D"/>
</svg>
