<svg width="40" height="40" fill="none" xmlns="http://www.w3.org/2000/svg">
    <circle cx="20" cy="20" r="19.5" stroke="#7A7B7D"/>
    <path
        d="M11.9688 25.3594C10.6642 23.1602 10.2074 20.5605 10.684 18.0483C11.1606 15.5361 12.5379 13.2844 14.5572 11.7158C16.5766 10.1473 19.0991 9.36984 21.6511 9.52954C24.2031 9.68923 26.6091 10.7751 28.4171 12.5831C30.2252 14.3912 31.311 16.7971 31.4707 19.3491C31.6304 21.9011 30.853 24.4236 29.2845 26.443C27.716 28.4624 25.4642 29.8397 22.952 30.3163C20.4398 30.7929 17.8401 30.3361 15.6409 29.0315L15.6409 29.0314L12.0144 30.0676C11.8644 30.1104 11.7056 30.1124 11.5546 30.0733C11.4035 30.0341 11.2657 29.9553 11.1553 29.8449C11.045 29.7346 10.9662 29.5968 10.927 29.4457C10.8879 29.2947 10.8898 29.1359 10.9327 28.9858L11.9689 25.3593L11.9688 25.3594Z"
        stroke="#7A7B7D" stroke-width="2" stroke-linecap="round" stroke-linejoin="round" class="comment"/>
    <path
        d="M21 21.3125C21.7249 21.3125 22.3125 20.7249 22.3125 20C22.3125 19.2751 21.7249 18.6875 21 18.6875C20.2751 18.6875 19.6875 19.2751 19.6875 20C19.6875 20.7249 20.2751 21.3125 21 21.3125Z"
        fill="#7A7B7D" class="dots"/>
    <path
        d="M15.75 21.3125C16.4749 21.3125 17.0625 20.7249 17.0625 20C17.0625 19.2751 16.4749 18.6875 15.75 18.6875C15.0251 18.6875 14.4375 19.2751 14.4375 20C14.4375 20.7249 15.0251 21.3125 15.75 21.3125Z"
        fill="#7A7B7D" class="dots"/>
    <path
        d="M26.25 21.3125C26.9749 21.3125 27.5625 20.7249 27.5625 20C27.5625 19.2751 26.9749 18.6875 26.25 18.6875C25.5251 18.6875 24.9375 19.2751 24.9375 20C24.9375 20.7249 25.5251 21.3125 26.25 21.3125Z"
        fill="#7A7B7D" class="dots"/>

</svg>
