<svg viewBox="0 0 20 20" fill="none" xmlns="http://www.w3.org/2000/svg">
    <circle cx="10" cy="10" r="9.5" stroke="#7A7B7D"/>
    <path
        d="M13.5039 5.44824C13.9323 5.89486 14.2673 6.4349 14.5088 7.06836C14.7503 7.69727 14.8711 8.39453 14.8711 9.16016C14.8711 9.77083 14.7913 10.3359 14.6318 10.8555C14.4723 11.375 14.2467 11.8398 13.9551 12.25C13.6771 12.6419 13.3467 12.9837 12.9639 13.2754C12.5811 13.5671 12.1527 13.7972 11.6787 13.9658C11.6878 14.4671 11.8678 14.916 12.2188 15.3125C12.5697 15.7135 12.9479 15.9141 13.3535 15.9141C13.7272 15.9141 14.012 15.9004 14.208 15.873C14.404 15.8503 14.5658 15.8275 14.6934 15.8047V16.3447C14.4883 16.404 14.2308 16.4655 13.9209 16.5293C13.6156 16.5977 13.1895 16.6318 12.6426 16.6318C12.3372 16.6318 12.0387 16.5863 11.7471 16.4951C11.4554 16.4085 11.1911 16.2673 10.9541 16.0713C10.7171 15.8753 10.5189 15.627 10.3594 15.3262C10.2044 15.0254 10.1042 14.6562 10.0586 14.2188C9.4069 14.196 8.80306 14.057 8.24707 13.8018C7.69108 13.542 7.21484 13.1888 6.81836 12.7422C6.41732 12.291 6.10514 11.7624 5.88184 11.1562C5.65853 10.5456 5.54688 9.88021 5.54688 9.16016C5.54688 8.37174 5.66992 7.66992 5.91602 7.05469C6.16211 6.4349 6.50163 5.89941 6.93457 5.44824C7.36296 5.00163 7.8597 4.65983 8.4248 4.42285C8.99447 4.18587 9.58919 4.06738 10.209 4.06738C10.8516 4.06738 11.4577 4.18815 12.0273 4.42969C12.597 4.67122 13.0892 5.01074 13.5039 5.44824ZM12.4854 12.3252C12.7406 11.9105 12.9251 11.4411 13.0391 10.917C13.1576 10.3929 13.2168 9.80729 13.2168 9.16016C13.2168 8.49479 13.1507 7.88411 13.0186 7.32812C12.891 6.77214 12.7018 6.29818 12.4512 5.90625C12.2005 5.51888 11.8861 5.2181 11.5078 5.00391C11.1296 4.78516 10.6966 4.67578 10.209 4.67578C9.66211 4.67578 9.19727 4.80111 8.81445 5.05176C8.43164 5.30241 8.11947 5.63737 7.87793 6.05664C7.65007 6.45768 7.47917 6.92708 7.36523 7.46484C7.25586 8.0026 7.20117 8.56771 7.20117 9.16016C7.20117 9.81641 7.26042 10.4089 7.37891 10.9375C7.4974 11.4661 7.68424 11.9355 7.93945 12.3457C8.18555 12.7467 8.49544 13.0612 8.86914 13.2891C9.24284 13.5124 9.68945 13.624 10.209 13.624C10.6966 13.624 11.1364 13.5101 11.5283 13.2822C11.9202 13.0544 12.2393 12.7354 12.4854 12.3252Z"
        fill="#7A7B7D"/>
</svg>
