<svg viewBox="0 0 20 20" fill="none" xmlns="http://www.w3.org/2000/svg">
    <circle cx="10" cy="10" r="9.5" stroke="#7A7B7D"/>
    <path
        d="M14.96 10.208C14.96 11.0329 14.805 11.7484 14.4951 12.3545C14.1852 12.9606 13.7819 13.4574 13.2852 13.8447C12.7839 14.2321 12.221 14.5215 11.5967 14.7129C10.9723 14.9043 10.3275 15 9.66211 15H5.64258V14.5146C5.77474 14.5146 5.94564 14.5033 6.15527 14.4805C6.36947 14.4531 6.51074 14.4235 6.5791 14.3916C6.71582 14.3324 6.8138 14.2458 6.87305 14.1318C6.93685 14.0133 6.96875 13.8721 6.96875 13.708V6.70801C6.96875 6.55306 6.94141 6.41406 6.88672 6.29102C6.83659 6.16797 6.73405 6.06999 6.5791 5.99707C6.43783 5.92871 6.28516 5.87858 6.12109 5.84668C5.95703 5.81478 5.81576 5.79427 5.69727 5.78516V5.2998H9.93555C10.5189 5.2998 11.0931 5.39095 11.6582 5.57324C12.2233 5.75098 12.7155 5.99251 13.1348 6.29785C13.7044 6.70345 14.151 7.23438 14.4746 7.89062C14.7982 8.54688 14.96 9.31934 14.96 10.208ZM13.2852 10.2012C13.2852 9.54948 13.1986 8.96159 13.0254 8.4375C12.8522 7.90885 12.5993 7.44857 12.2666 7.05664C11.9521 6.68294 11.5648 6.389 11.1045 6.1748C10.6488 5.96061 10.1406 5.85352 9.58008 5.85352C9.39323 5.85352 9.18132 5.85807 8.94434 5.86719C8.71191 5.87174 8.53874 5.8763 8.4248 5.88086V13.3389C8.4248 13.7536 8.54557 14.0407 8.78711 14.2002C9.02865 14.3597 9.40007 14.4395 9.90137 14.4395C10.4801 14.4395 10.986 14.3369 11.4189 14.1318C11.8519 13.9268 12.2028 13.6419 12.4717 13.2773C12.7542 12.8945 12.9593 12.4525 13.0869 11.9512C13.2191 11.4453 13.2852 10.862 13.2852 10.2012Z"
        fill="#7A7B7D"/>
</svg>
