<svg viewBox="0 0 20 20" fill="none" xmlns="http://www.w3.org/2000/svg">
    <circle cx="10" cy="10" r="9.5" stroke="#7A7B7D"/>
    <path
        d="M9.07158 13.96H7.21474V13.3499C6.89053 13.6114 6.59579 13.7857 6.30105 13.931C6.00632 14.0762 5.71158 14.1053 5.32842 14.1053C4.62105 14.1053 4.06105 13.8438 3.61895 13.2918C3.20632 12.7689 3 12.0426 3 11.113C3 10.6191 3.05895 10.1834 3.20632 9.8057C3.35368 9.42803 3.53053 9.10847 3.79579 8.84701C4.03158 8.58555 4.32632 8.38219 4.65053 8.26599C5.00421 8.12073 5.32842 8.06263 5.65263 8.06263C6.00632 8.06263 6.30105 8.09168 6.50737 8.17883C6.71368 8.26599 6.94947 8.35314 7.18526 8.46935V6H9.04211V13.96H9.07158ZM7.21474 12.3622V9.54424C7.09684 9.48613 6.94947 9.45708 6.80211 9.42803C6.65474 9.39898 6.53684 9.39898 6.38947 9.39898C5.88842 9.39898 5.53474 9.54424 5.29895 9.8638C5.06316 10.1834 4.94526 10.5901 4.94526 11.113C4.94526 11.665 5.03368 12.0717 5.24 12.3331C5.44632 12.5946 5.74105 12.7108 6.18316 12.7108C6.36 12.7108 6.53684 12.6818 6.71368 12.6237C6.89053 12.5656 7.06737 12.4784 7.21474 12.3622Z"
        fill="#7A7B7D"/>
    <path
        d="M17 13.96H14.8189L13.1979 11.4616L12.6968 12.0717V13.96H10.84V6H12.6968V10.7353L14.701 8.20789H16.8526L14.76 10.6772L17 13.96Z"
        fill="#7A7B7D"/>
</svg>
