<svg viewBox="0 0 20 20" fill="none" xmlns="http://www.w3.org/2000/svg">
    <circle cx="10" cy="10" r="9.5" stroke="#7A7B7D"/>
    <g clip-path="url(#clip0_706_6216)">
        <path
            d="M11.0975 3.16773C10.5833 3.57087 10.2163 3.95678 10.038 4.28204C9.8871 4.55874 9.85628 4.68995 9.87677 4.97838C9.90082 5.3401 9.99345 5.51987 10.4906 6.15335C10.9021 6.6778 11.0393 6.97887 11.0359 7.36479C11.0325 7.67062 10.9468 7.91104 10.7204 8.25829L10.5524 8.51319L10.7683 8.35541C11.2415 8.00578 11.653 7.53081 11.7525 7.21672C11.78 7.13903 11.7903 6.9983 11.78 6.86471C11.7595 6.59515 11.677 6.43976 11.2759 5.91531C11.1216 5.71374 10.9536 5.46856 10.8987 5.36906C10.5491 4.73301 10.6415 4.06801 11.1838 3.24487C11.2691 3.11422 11.3377 3.00244 11.3309 3.00006C11.3241 2.99767 11.2208 3.07061 11.0975 3.16773Z"
            fill="#7A7B7D"/>
        <path
            d="M8.40269 4.84546C8.13174 5.11006 7.88146 5.44522 7.77173 5.68546C7.68605 5.87475 7.66895 5.95739 7.66895 6.13459C7.66895 6.48184 7.77173 6.65171 8.28957 7.17909C8.84857 7.74715 8.96168 7.95349 8.93087 8.36872C8.92053 8.55087 8.88972 8.66485 8.8108 8.82995C8.75594 8.94888 8.7114 9.05095 8.71817 9.05571C8.72494 9.06047 8.83823 8.94888 8.96845 8.80558C9.38333 8.36377 9.5376 8.01414 9.4553 7.71783C9.40043 7.51388 9.26665 7.32935 8.92089 6.98485C8.45773 6.52674 8.31059 6.27111 8.26944 5.86797C8.24201 5.62279 8.31736 5.28525 8.47519 4.94294C8.54039 4.80459 8.58492 4.69043 8.57798 4.69043C8.56693 4.69006 8.49176 4.76061 8.40269 4.84546Z"
            fill="#7A7B7D"/>
        <path
            d="M5.21655 9.42103C5.1754 9.43514 5.10967 9.49433 5.06567 9.5515C4.99441 9.64679 4.99014 9.67134 5.0108 10.056C5.076 11.2447 5.33661 12.504 5.7303 13.5023C6.05611 14.3382 6.64236 15.3859 7.03069 15.8233L7.18496 15.9997H12.2734L12.4106 15.841C12.5887 15.6365 12.9352 15.1214 13.1231 14.7828C13.2054 14.6382 13.2877 14.5079 13.3048 14.4971C13.3227 14.483 13.418 14.4619 13.514 14.4513C13.61 14.4372 13.8398 14.3879 14.0215 14.3384C15.0228 14.0819 15.8937 13.5688 16.4183 12.9346C17.1968 11.9927 17.1932 10.9839 16.4046 10.5854C16.0205 10.3948 15.4033 10.3838 14.7278 10.567C14.5529 10.6129 14.4056 10.6482 14.402 10.6447C14.3984 10.6413 14.4123 10.4472 14.4328 10.218C14.4706 9.72412 14.4569 9.60427 14.3368 9.48773L14.2477 9.40307L9.76937 9.39611C7.30485 9.39281 5.25431 9.40344 5.21655 9.42103ZM16.193 11.0471C16.5492 11.2341 16.6112 11.6115 16.3679 12.116C16.0829 12.7086 15.4455 13.2236 14.6466 13.4988C14.3616 13.5976 13.8407 13.7211 13.7172 13.7246H13.6383L13.7096 13.5376C13.8643 13.1347 13.9948 12.7225 14.1004 12.3031C14.2272 11.8093 14.3336 11.6251 14.6594 11.3502C14.9954 11.0646 15.3383 10.9376 15.746 10.9482C15.9667 10.9553 16.059 10.9731 16.193 11.0471Z"
            fill="#7A7B7D"/>
    </g>
    <defs>
        <clipPath id="clip0_706_6216">
            <rect width="12" height="13" fill="white" transform="translate(5 3)"/>
        </clipPath>
    </defs>
</svg>
