<svg viewBox="0 0 20 20" fill="none" xmlns="http://www.w3.org/2000/svg">
    <circle cx="10" cy="10" r="9.5" stroke="#7A7B7D"/>
    <path
        d="M15.623 6.28516C15.4954 6.28971 15.2995 6.32617 15.0352 6.39453C14.7708 6.46289 14.5817 6.53353 14.4678 6.60645C14.3037 6.72038 14.1921 6.93913 14.1328 7.2627C14.0781 7.58626 14.0508 7.99642 14.0508 8.49316V15.5957H13.4561L7.57715 7.65918V12.6631C7.57715 13.2236 7.61133 13.6543 7.67969 13.9551C7.7526 14.2559 7.86198 14.4701 8.00781 14.5977C8.11263 14.6979 8.3291 14.7913 8.65723 14.8779C8.98535 14.9645 9.20182 15.0101 9.30664 15.0146V15.5H5.32812V15.0146C5.45117 15.0055 5.65853 14.9622 5.9502 14.8848C6.24186 14.8027 6.42415 14.7298 6.49707 14.666C6.65658 14.5384 6.76595 14.3447 6.8252 14.085C6.88444 13.8206 6.91406 13.3717 6.91406 12.7383V7.95996C6.91406 7.75033 6.8776 7.54069 6.80469 7.33105C6.73177 7.12142 6.63379 6.95964 6.51074 6.8457C6.34668 6.69531 6.12337 6.56771 5.84082 6.46289C5.56283 6.35352 5.33724 6.29427 5.16406 6.28516V5.7998H7.93262L13.3877 13.1963V8.58203C13.3877 8.01693 13.3512 7.58398 13.2783 7.2832C13.2054 6.97786 13.1006 6.77507 12.9639 6.6748C12.8363 6.58822 12.6266 6.50391 12.335 6.42188C12.0479 6.33984 11.8291 6.29427 11.6787 6.28516V5.7998H15.623V6.28516Z"
        fill="#7A7B7D"/>
</svg>
