<svg viewBox="0 0 20 20" fill="none" xmlns="http://www.w3.org/2000/svg">
    <circle cx="10" cy="10" r="9.5" stroke="#7A7B7D"/>
    <path
        d="M10 8.91304C11.1046 8.91304 12 8.03708 12 6.95652C12 5.87596 11.1046 5 10 5C8.89543 5 8 5.87596 8 6.95652C8 8.03708 8.89543 8.91304 10 8.91304Z"
        fill="#7A7B7D"/>
    <path
        d="M16 6.95605H14.2314C14.1456 8.98786 12.2858 10.6152 10.0027 10.6152C7.71952 10.6152 5.8544 8.98786 5.76865 6.95605H4C4.06967 9.33452 5.8544 11.3326 8.28763 11.9826V17.13H11.8249V11.9489C14.1992 11.27 15.9303 9.30082 16 6.95605Z"
        fill="#7A7B7D"/>
</svg>
