<svg width="32" height="32" fill="none" xmlns="http://www.w3.org/2000/svg">
    <g clip-path="url(#a)">
        <path
            d="M30 18v-2h-6v10h2v-4h3v-2h-3v-2h4ZM19 26h-4V16h4a3 3 0 0 1 3 3v4a3 3 0 0 1-3 3Zm-2-2h2a1 1 0 0 0 1-1v-4a1 1 0 0  0-1-1h-2v6ZM11 16H6v10h2v-3h3a2 2 0 0 0 2-2v-3a2 2 0 0 0-2-2Zm-3 5v-3h3v3H8Z"/>
        <path
            d="M22 14v-4a.891.891 0 0 0-.3-.7l-7-7A.89.89 0 0 0 14 2H4a2 2 0 0 0-2 2v24a2 2 0 0 0 2 2h16v-2H4V4h8v6a2 2 0 0 0 2 2h6v2h2Zm-8-4V4.4l5.6 5.6H14Z"/>
    </g>
    <defs>
        <clipPath id="a">
            <path fill="#fff" d="M0 0h32v32H0z"/>
        </clipPath>
    </defs>
</svg>