<svg viewBox="0 0 20 20" fill="none" xmlns="http://www.w3.org/2000/svg">
    <circle cx="10" cy="10" r="9.5" stroke="#7A7B7D"/>
    <path
        d="M12.7061 10.5498C12.9111 10.7777 13.0615 11.0283 13.1572 11.3018C13.2575 11.5706 13.3076 11.8851 13.3076 12.2451C13.3076 13.1019 12.9909 13.8083 12.3574 14.3643C11.724 14.9202 10.9378 15.1982 9.99902 15.1982C9.56608 15.1982 9.13314 15.1322 8.7002 15C8.26725 14.8633 7.89355 14.6992 7.5791 14.5078L7.28516 15.0068H6.73828L6.64258 11.6846H7.19629C7.31022 12.0947 7.44238 12.4661 7.59277 12.7988C7.74772 13.127 7.95052 13.4346 8.20117 13.7217C8.43815 13.9906 8.71387 14.2048 9.02832 14.3643C9.34733 14.5238 9.71647 14.6035 10.1357 14.6035C10.4502 14.6035 10.7236 14.5625 10.9561 14.4805C11.193 14.3984 11.3844 14.2822 11.5303 14.1318C11.6761 13.9814 11.7832 13.806 11.8516 13.6055C11.9245 13.4004 11.9609 13.1657 11.9609 12.9014C11.9609 12.514 11.8516 12.154 11.6328 11.8213C11.4141 11.484 11.0882 11.2288 10.6553 11.0557C10.359 10.9372 10.0195 10.8073 9.63672 10.666C9.25391 10.5202 8.9235 10.3835 8.64551 10.2559C8.09863 10.0098 7.67253 9.68848 7.36719 9.29199C7.06641 8.89095 6.91602 8.36914 6.91602 7.72656C6.91602 7.35742 6.99121 7.01335 7.1416 6.69434C7.29199 6.37533 7.50618 6.09049 7.78418 5.83984C8.0485 5.60286 8.36068 5.41829 8.7207 5.28613C9.08073 5.14941 9.45671 5.08105 9.84863 5.08105C10.2952 5.08105 10.694 5.14941 11.0449 5.28613C11.4004 5.42285 11.724 5.58236 12.0156 5.76465L12.2959 5.2998H12.8428L12.8975 8.51953H12.3438C12.2435 8.15039 12.1296 7.7972 12.002 7.45996C11.8789 7.12272 11.7171 6.81738 11.5166 6.54395C11.3206 6.27962 11.0814 6.06999 10.7988 5.91504C10.5163 5.75553 10.1699 5.67578 9.75977 5.67578C9.32682 5.67578 8.95768 5.81478 8.65234 6.09277C8.34701 6.37077 8.19434 6.71029 8.19434 7.11133C8.19434 7.5306 8.29232 7.87923 8.48828 8.15723C8.68424 8.43066 8.96908 8.65625 9.34277 8.83398C9.67546 8.99349 10.0013 9.13249 10.3203 9.25098C10.6439 9.36491 10.9561 9.48796 11.2568 9.62012C11.5303 9.73861 11.7923 9.87305 12.043 10.0234C12.2982 10.1738 12.5192 10.3493 12.7061 10.5498Z"
        fill="#7A7B7D"/>
</svg>
