<svg viewBox="0 0 20 20" fill="none" xmlns="http://www.w3.org/2000/svg">
    <circle cx="10" cy="10" r="9.5" stroke="#7A7B7D"/>
    <path
        d="M16.8633 6.78516C16.7493 6.78971 16.6172 6.81706 16.4668 6.86719C16.3164 6.91276 16.1774 6.97428 16.0498 7.05176C15.8903 7.15202 15.7604 7.26823 15.6602 7.40039C15.5645 7.52799 15.4801 7.70801 15.4072 7.94043C15.0837 8.99316 14.7077 10.2236 14.2793 11.6318C13.8509 13.0355 13.3883 14.5326 12.8916 16.123H12.2627L9.81543 8.6582L7.26562 16.123H6.66406C6.21289 14.528 5.74577 12.8737 5.2627 11.1602C4.77962 9.44206 4.45605 8.29134 4.29199 7.70801C4.25098 7.56673 4.18945 7.44141 4.10742 7.33203C4.02995 7.22266 3.92285 7.1224 3.78613 7.03125C3.6722 6.95378 3.53776 6.89681 3.38281 6.86035C3.23242 6.81934 3.0957 6.79427 2.97266 6.78516V6.2998H6.93066V6.78516C6.58431 6.80339 6.28809 6.83757 6.04199 6.8877C5.80046 6.93783 5.67969 7.02214 5.67969 7.14062C5.67969 7.1862 5.68652 7.24772 5.7002 7.3252C5.71387 7.39811 5.72526 7.45736 5.73438 7.50293C5.83919 7.90397 6.02376 8.56706 6.28809 9.49219C6.55697 10.4128 6.95345 11.7936 7.47754 13.6348L9.89746 6.43652H10.5674L13.0078 13.792C13.3359 12.6618 13.6185 11.6751 13.8555 10.832C14.0924 9.98438 14.2884 9.25977 14.4434 8.6582C14.5527 8.23438 14.6211 7.94499 14.6484 7.79004C14.6758 7.63053 14.6895 7.49609 14.6895 7.38672C14.6895 7.23177 14.5824 7.10189 14.3682 6.99707C14.1585 6.89225 13.8167 6.82161 13.3428 6.78516V6.2998H16.8633V6.78516Z"
        fill="#7A7B7D"/>
</svg>
