<svg width="13" height="18" viewBox="0 0 13 18" fill="none" xmlns="http://www.w3.org/2000/svg">
<path d="M6.5 14.1905C7.39375 14.1905 8.125 13.5048 8.125 12.6667C8.125 11.8286 7.39375 11.1429 6.5 11.1429C5.60625 11.1429 4.875 11.8286 4.875 12.6667C4.875 13.5048 5.60625 14.1905 6.5 14.1905ZM11.375 7.33333H10.5625V3.80952C10.5625 1.70667 8.7425 0 6.5 0C4.2575 0 2.4375 1.70667 2.4375 3.80952H3.98125C3.98125 2.50667 5.11063 1.44762 6.5 1.44762C7.88937 1.44762 9.01875 2.50667 9.01875 3.80952V7.33333H1.625C0.73125 7.33333 0 8.01905 0 8.85714V16.4762C0 17.3143 0.73125 18 1.625 18H11.375C12.2688 18 13 17.3143 13 16.4762V8.85714C13 8.01905 12.2688 7.33333 11.375 7.33333ZM11.375 16.4762H1.625V8.85714H11.375V16.4762Z" fill="#8BBA43"/>
</svg>
