<svg width="30" height="30" viewBox="0 0 30 30" fill="none" xmlns="http://www.w3.org/2000/svg">
<circle cx="15" cy="15" r="15" fill="#8BBA43"/>
<path d="M8.15404 19.4539C7.12903 17.726 6.77006 15.6833 7.14454 13.7094C7.51902 11.7356 8.60119 9.96632 10.1878 8.73389C11.7745 7.50146 13.7565 6.89063 15.7616 7.01611C17.7667 7.14159 19.6571 7.99473 21.0777 9.41535C22.4984 10.836 23.3515 12.7263 23.477 14.7315C23.6025 16.7366 22.9917 18.7186 21.7593 20.3052C20.5268 21.8919 18.7576 22.9741 16.7837 23.3486C14.8099 23.7231 12.7672 23.3641 11.0393 22.3391L11.0393 22.339L8.18991 23.1531C8.07202 23.1868 7.94727 23.1884 7.82858 23.1576C7.70989 23.1268 7.60159 23.0649 7.51489 22.9782C7.4282 22.8915 7.36626 22.7832 7.33551 22.6645C7.30476 22.5458 7.3063 22.4211 7.33998 22.3032L8.1541 19.4538L8.15404 19.4539Z" stroke="white" stroke-width="1.5" stroke-linecap="round" stroke-linejoin="round"/>
<path d="M15.25 16.2744C15.8195 16.2744 16.2812 15.8126 16.2812 15.2431C16.2812 14.6736 15.8195 14.2119 15.25 14.2119C14.6805 14.2119 14.2188 14.6736 14.2188 15.2431C14.2188 15.8126 14.6805 16.2744 15.25 16.2744Z" fill="white"/>
<path d="M11.125 16.2744C11.6945 16.2744 12.1562 15.8126 12.1562 15.2431C12.1562 14.6736 11.6945 14.2119 11.125 14.2119C10.5555 14.2119 10.0938 14.6736 10.0938 15.2431C10.0938 15.8126 10.5555 16.2744 11.125 16.2744Z" fill="white"/>
<path d="M19.375 16.2744C19.9445 16.2744 20.4062 15.8126 20.4062 15.2431C20.4062 14.6736 19.9445 14.2119 19.375 14.2119C18.8055 14.2119 18.3438 14.6736 18.3438 15.2431C18.3438 15.8126 18.8055 16.2744 19.375 16.2744Z" fill="white"/>
</svg>
