<svg width="30" height="30" viewBox="0 0 30 30" fill="none" xmlns="http://www.w3.org/2000/svg">
<circle cx="15" cy="15" r="15" fill="#8BBA43"/>
<path d="M19.3077 19.9231H21.7692C22.0957 19.9231 22.4087 19.7934 22.6395 19.5626C22.8703 19.3318 23 19.0187 23 18.6923V13.1538C23 12.8274 22.8703 12.5144 22.6395 12.2835C22.4087 12.0527 22.0957 11.9231 21.7692 11.9231H8.23077C7.90435 11.9231 7.5913 12.0527 7.36048 12.2835C7.12967 12.5144 7 12.8274 7 13.1538V18.6923C7 19.0187 7.12967 19.3318 7.36048 19.5626C7.5913 19.7934 7.90435 19.9231 8.23077 19.9231H10.6923" stroke="white" stroke-width="1.5" stroke-linecap="round" stroke-linejoin="round"/>
<path d="M10.6924 18.0769V22.3846C10.6924 22.5478 10.7572 22.7043 10.8726 22.8197C10.988 22.9351 11.1446 23 11.3078 23H18.6924C18.8556 23 19.0121 22.9351 19.1275 22.8197C19.2429 22.7043 19.3078 22.5478 19.3078 22.3846V18.0769H10.6924Z" stroke="white" stroke-width="1.5" stroke-linecap="round" stroke-linejoin="round"/>
<path d="M19.3078 11.9231V7.61538C19.3078 7.45217 19.2429 7.29565 19.1275 7.18024C19.0121 7.06483 18.8556 7 18.6924 7H11.3078C11.1446 7 10.988 7.06483 10.8726 7.18024C10.7572 7.29565 10.6924 7.45217 10.6924 7.61538V11.9231" stroke="white" stroke-width="1.5" stroke-linecap="round" stroke-linejoin="round"/>
<path d="M19.9232 15H18.6924" stroke="white" stroke-width="1.5" stroke-linecap="round" stroke-linejoin="round"/>
</svg>
