<svg width="30" height="30" viewBox="0 0 30 30" fill="none" xmlns="http://www.w3.org/2000/svg">
<circle cx="15" cy="15" r="15" fill="#8BBA43"/>
<path d="M11.9976 13.9956L8.33729 17.6217C8.23042 17.7277 8.14559 17.8538 8.0877 17.9928C8.0298 18.1317 8 18.2808 8 18.4313C8 18.5818 8.0298 18.7309 8.0877 18.8698C8.14559 19.0088 8.23042 19.1349 8.33729 19.2409L10.7547 21.6583C10.8607 21.7652 10.9868 21.85 11.1258 21.9079C11.2647 21.9658 11.4138 21.9956 11.5643 21.9956C11.7148 21.9956 11.8639 21.9658 12.0028 21.9079C12.1418 21.85 12.2679 21.7652 12.3739 21.6583L16 17.998" stroke="white" stroke-width="1.5" stroke-linecap="round" stroke-linejoin="round"/>
<path d="M18.0154 16L21.657 12.3739C21.7644 12.2679 21.8496 12.1418 21.9077 12.0028C21.9659 11.8639 21.9958 11.7148 21.9958 11.5643C21.9958 11.4138 21.9659 11.2647 21.9077 11.1258C21.8496 10.9868 21.7644 10.8607 21.657 10.7547L19.2636 8.33729C19.1572 8.23042 19.0305 8.14559 18.891 8.0877C18.7514 8.0298 18.6017 8 18.4505 8C18.2994 8 18.1497 8.0298 18.0101 8.0877C17.8706 8.14559 17.7439 8.23042 17.6375 8.33729L13.9958 11.9976" stroke="white" stroke-width="1.5" stroke-linecap="round" stroke-linejoin="round"/>
<path d="M17.5058 12.5059L12.5058 17.5059" stroke="white" stroke-width="1.5" stroke-linecap="round" stroke-linejoin="round"/>
</svg>
