<svg width="13" height="16" viewBox="0 0 13 16" fill="none" xmlns="http://www.w3.org/2000/svg">
<path d="M11.375 5.33333H10.5625V3.80952C10.5625 1.70667 8.7425 0 6.5 0C4.2575 0 2.4375 1.70667 2.4375 3.80952V5.33333H1.625C0.73125 5.33333 0 6.01905 0 6.85714V14.4762C0 15.3143 0.73125 16 1.625 16H11.375C12.2688 16 13 15.3143 13 14.4762V6.85714C13 6.01905 12.2688 5.33333 11.375 5.33333ZM4.0625 3.80952C4.0625 2.54476 5.15125 1.52381 6.5 1.52381C7.84875 1.52381 8.9375 2.54476 8.9375 3.80952V5.33333H4.0625V3.80952ZM11.375 14.4762H1.625V6.85714H11.375V14.4762ZM6.5 12.1905C7.39375 12.1905 8.125 11.5048 8.125 10.6667C8.125 9.82857 7.39375 9.14286 6.5 9.14286C5.60625 9.14286 4.875 9.82857 4.875 10.6667C4.875 11.5048 5.60625 12.1905 6.5 12.1905Z" fill="#8BBA43"/>
</svg>
