<svg width="32" height="32" viewBox="0 0 32 32" fill="none" xmlns="http://www.w3.org/2000/svg">
<circle cx="16" cy="16" r="15.25" fill="black" fill-opacity="0.15" stroke="white" stroke-width="1.5"/>
<path d="M24.5661 9.22864C24.3656 9.2358 24.0576 9.29309 23.6423 9.40051C23.2269 9.50793 22.9297 9.61894 22.7507 9.73352C22.4928 9.91256 22.3174 10.2563 22.2243 10.7648C22.1384 11.2732 22.0954 11.9178 22.0954 12.6984V23.8595H21.1608L11.9225 11.3878V19.2511C11.9225 20.132 11.9762 20.8087 12.0837 21.2814C12.1982 21.754 12.3701 22.0906 12.5993 22.2911C12.764 22.4487 13.1042 22.5955 13.6198 22.7316C14.1354 22.8676 14.4756 22.9392 14.6403 22.9464V23.7091H8.38835V22.9464C8.58171 22.9321 8.90756 22.8641 9.36589 22.7423C9.82422 22.6134 10.1107 22.4988 10.2253 22.3986C10.4759 22.198 10.6478 21.8937 10.7409 21.4855C10.834 21.0701 10.8805 20.3647 10.8805 19.3693V11.8605C10.8805 11.531 10.8232 11.2016 10.7087 10.8722C10.5941 10.5428 10.4401 10.2885 10.2467 10.1095C9.98894 9.87317 9.63803 9.67265 9.19402 9.50793C8.75717 9.33606 8.40267 9.24296 8.13054 9.22864V8.46594H12.4811L21.0534 20.089V12.838C21.0534 11.95 20.9961 11.2697 20.8815 10.797C20.7669 10.3172 20.6022 9.99849 20.3874 9.84094C20.1869 9.70487 19.8574 9.57239 19.3991 9.44348C18.9479 9.31458 18.6042 9.24296 18.3678 9.22864V8.46594H24.5661V9.22864Z" fill="white"/>
</svg>
