<?xml version="1.0" standalone="no"?>
<!DOCTYPE svg PUBLIC "-//W3C//DTD SVG 20010904//EN"
 "http://www.w3.org/TR/2001/REC-SVG-20010904/DTD/svg10.dtd">
<svg version="1.0" xmlns="http://www.w3.org/2000/svg"
 width="512.000000pt" height="512.000000pt" viewBox="0 0 512.000000 512.000000"
 preserveAspectRatio="xMidYMid meet">
<metadata>
Created by potrace 1.11, written by Peter Selinger 2001-2013
</metadata>
<g transform="translate(0.000000,512.000000) scale(0.100000,-0.100000)"
fill="#000000" stroke="none">
<path d="M2323 5040 c-575 -56 -1112 -310 -1523 -720 -382 -383 -623 -863
-707 -1410 -24 -161 -24 -539 0 -700 96 -628 400 -1167 882 -1568 350 -292
767 -477 1235 -549 160 -24 538 -24 700 0 552 84 1034 328 1423 722 374 378
611 855 694 1395 24 161 24 539 0 700 -84 546 -322 1021 -705 1407 -380 381
-865 627 -1402 708 -125 19 -467 27 -597 15z m-318 -1369 c11 -7 277 -347 590
-755 l570 -742 3 501 c1 331 -1 518 -9 553 -19 94 -75 139 -186 149 -98 9
-117 29 -121 130 -4 94 15 139 68 165 31 16 73 18 408 18 413 0 425 -2 462
-62 24 -40 27 -132 6 -183 -17 -40 -60 -65 -113 -66 -93 -1 -161 -61 -182
-159 -8 -35 -11 -334 -11 -936 0 -981 3 -931 -65 -960 -42 -17 -169 -18 -207
-1 -23 10 -363 447 -1195 1537 l-34 44 3 -559 c3 -512 5 -563 21 -600 36 -80
92 -114 200 -121 131 -10 147 -27 147 -150 0 -90 -17 -130 -65 -150 -50 -20
-840 -21 -889 0 -54 23 -66 49 -66 147 0 48 3 95 6 104 9 22 57 45 96 45 85 0
169 53 209 131 18 37 19 67 19 792 l0 753 -40 39 c-41 40 -41 40 -137 45 -92
6 -96 7 -124 38 -27 30 -29 38 -29 116 0 81 1 86 30 115 17 16 40 32 53 34 12
3 144 4 292 3 212 -1 274 -4 290 -15z"/>
</g>
</svg>
