<svg width="12" height="9" viewBox="0 0 12 9" fill="none" xmlns="http://www.w3.org/2000/svg">
<path d="M11.6492 2.11338L5.31639 8.6377C5.09101 8.86969 4.78546 9 4.46688 9C4.14831 9 3.84276 8.86969 3.61738 8.6377L0.348485 5.26933C0.124696 5.0369 -0.000606583 4.72259 2.20805e-06 4.39519C0.000610999 4.06779 0.127082 3.75397 0.351733 3.52242C0.576384 3.29088 0.880917 3.16046 1.19868 3.15972C1.51644 3.15898 1.82154 3.28797 2.04721 3.51847L4.46718 6.01186L9.949 0.362509C10.1743 0.13037 10.48 -2.86172e-05 10.7986 4.7108e-09C11.1173 2.86266e-05 11.4229 0.130482 11.6482 0.362661C11.8735 0.594841 12 0.909728 12 1.23805C12 1.56637 11.8734 1.88124 11.648 2.11338H11.6492Z" fill="#F2C30D"/>
</svg>
