<svg width="42" height="46" viewBox="0 0 42 46" fill="none" xmlns="http://www.w3.org/2000/svg">
<g clip-path="url(#clip0_3713_8178)">
<path d="M31.8625 46C37.4616 46 42.0005 41.4949 42.0005 35.9375C42.0005 30.3801 37.4616 25.875 31.8625 25.875C26.2635 25.875 21.7246 30.3801 21.7246 35.9375C21.7246 41.4949 26.2635 46 31.8625 46Z" fill="#F2C30D"/>
<path d="M33.3107 35.9375V30.1875H30.4141V35.9375H27.5176L31.8624 41.6875L36.2072 35.9375H33.3107Z" fill="white"/>
<path d="M21.0317 43.125H2.89655V2.875H20.2759V14.375H31.8621V23C32.8371 23.0029 33.8088 23.1147 34.7586 23.3333V12.3427L22.3234 0H0V46H23.6884C22.6622 45.1797 21.7666 44.2105 21.0317 43.125ZM23.1724 4.90727L29.8146 11.5H23.1724V4.90727Z" fill="#00384E"/>
<path d="M18.8275 35.9375C18.8275 29.794 23.1723 24.6459 28.9654 23.3333V14.375H20.2757V5.75H5.79297V40.25H19.5878C19.0878 38.8662 18.8306 37.4076 18.8275 35.9375Z" fill="#72C6EF"/>
<path d="M24.6205 21.5625H10.1377V24.4375H24.6205V21.5625Z" fill="#00384D"/>
<path d="M22.1765 27.3125H10.1377V30.1875H20.2032C20.7273 29.1452 21.3911 28.1781 22.1765 27.3125Z" fill="#00384D"/>
<path d="M10.1377 33.0625V35.9375H18.8274C18.8303 34.9697 18.943 34.0053 19.1632 33.0625H10.1377Z" fill="#00384D"/>
</g>
<defs>
<clipPath id="clip0_3713_8178">
<rect width="42" height="46" fill="white"/>
</clipPath>
</defs>
</svg>
