<svg width="14" height="10" viewBox="0 0 14 10" fill="none" xmlns="http://www.w3.org/2000/svg">
<path d="M13.5907 2.3482L6.20246 9.59745C5.93951 9.85521 5.58304 10 5.21136 10C4.83969 10 4.48322 9.85521 4.22027 9.59745L0.406565 5.85482C0.145479 5.59656 -0.000707681 5.24732 2.57606e-06 4.88354C0.000712833 4.51976 0.148262 4.17108 0.410355 3.9138C0.672448 3.65653 1.02774 3.51162 1.39846 3.5108C1.76918 3.50997 2.12513 3.6533 2.38841 3.90941L5.21171 6.67984L11.6072 0.402787C11.8701 0.144855 12.2266 -3.17969e-05 12.5984 5.23422e-09C12.9701 3.18073e-05 13.3267 0.14498 13.5895 0.402957C13.8524 0.660935 14 1.01081 14 1.37561C14 1.74042 13.8523 2.09026 13.5894 2.3482H13.5907Z" fill="#F1C40F"/>
</svg>
