<svg width="32" height="32" viewBox="0 0 32 32" fill="none" xmlns="http://www.w3.org/2000/svg">
<circle cx="16" cy="16" r="15.25" fill="black" fill-opacity="0.15" stroke="white" stroke-width="1.5"/>
<path d="M17.0246 6.26932C16.1286 6.91652 15.4893 7.5346 15.1786 8.05641C14.9157 8.50015 14.862 8.71049 14.8993 9.17364C14.9412 9.75369 15.1025 10.0419 15.9688 11.058C16.6857 11.899 16.9247 12.3817 16.9188 13.0006C16.9129 13.4911 16.7636 13.8766 16.3691 14.4334L16.0765 14.8421L16.4526 14.5891C17.2769 14.0285 17.9939 13.2654 18.1674 12.7632C18.2152 12.6386 18.2332 12.4129 18.2152 12.1987C18.1795 11.7665 18.0358 11.5173 17.3368 10.6764C17.0681 10.3528 16.7754 9.95999 16.6798 9.80041C16.0706 8.78046 16.2316 7.71359 17.1764 6.39391C17.3235 6.18377 17.443 6.00458 17.4318 6.00033C17.4188 5.99285 17.2394 6.11359 17.0246 6.26932Z" fill="white"/>
<path d="M13.569 7.38087C13.2359 7.85031 12.9282 8.44382 12.7933 8.86967C12.688 9.20498 12.667 9.35162 12.667 9.6657C12.667 10.2811 12.7933 10.5822 13.4299 11.516C14.1171 12.5219 14.2562 12.8885 14.2183 13.6244C14.2056 13.9472 14.1677 14.1493 14.0707 14.4419C14.0032 14.6527 13.9485 14.8336 13.9568 14.8421C13.9651 14.8505 14.1044 14.6527 14.2645 14.3988C14.7745 13.6164 14.9641 12.996 14.863 12.4709C14.7955 12.1095 14.6311 11.7824 14.206 11.1715C13.6367 10.3582 13.4558 9.90646 13.4052 9.19201C13.3715 8.75745 13.4641 8.15925 13.6581 7.55255C13.7383 7.30666 13.793 7.10547 13.7845 7.10547C13.7713 7.10569 13.6787 7.23043 13.569 7.38087Z" fill="white"/>
<path d="M8.46485 15.8869C8.40361 15.9064 8.30579 15.9884 8.24031 16.0676C8.13426 16.1996 8.1279 16.2336 8.15865 16.7662C8.25568 18.4124 8.64353 20.1564 9.23021 21.5389C9.71509 22.6966 10.5876 24.1474 11.1642 24.7532L11.3937 24.9976H18.967L19.1712 24.7778C19.4363 24.4946 19.9519 23.7812 20.2316 23.3123C20.3541 23.112 20.4766 22.9316 20.502 22.9166C20.5285 22.8971 20.6704 22.8679 20.8132 22.8532C20.9561 22.8337 21.2981 22.7654 21.5685 22.6969C23.0587 22.3416 24.3548 21.631 25.1355 20.7527C26.2941 19.4483 26.2888 18.0513 25.1151 17.4994C24.5436 17.2354 23.625 17.2202 22.6197 17.474C22.3593 17.5374 22.1401 17.5864 22.1348 17.5816C22.1295 17.5768 22.1502 17.308 22.1807 16.9906C22.2369 16.3054 22.2165 16.1407 22.0378 15.9793L21.9052 15.862L15.2404 15.8524C11.5732 15.8478 8.52105 15.8625 8.46485 15.8869ZM24.7999 18.1389C25.3301 18.3977 25.4224 18.9205 25.0602 19.6191C24.6361 20.4398 23.6875 21.1529 22.4985 21.5341C22.0744 21.6709 21.2992 21.8419 21.1155 21.8467H20.998L21.1041 21.5879C21.3343 21.0299 21.5286 20.459 21.6857 19.8782C21.8745 19.193 22.0327 18.9393 22.5176 18.5586C23.0176 18.163 23.5279 17.9871 24.1348 18.0018C24.4632 18.0117 24.6008 18.0364 24.7999 18.1389Z" fill="white"/>
</svg>
