<svg width="140" height="47" fill="none" xmlns="http://www.w3.org/2000/svg"><g clip-path="url(#a)"><path d="M135.333.002H4.667A4.667 4.667 0 0 0 0 4.669v37.333a4.667 4.667 0 0 0 4.667 4.667h130.666A4.666 4.666 0 0 0 140 42.002V4.669a4.667 4.667 0 0 0-4.667-4.667Z" fill="#343A49"/><path d="M39.223 22.837a5.056 5.056 0 0 1 2.334-4.099 5.39 5.39 0 0 0-3.89-2.177c-1.64-.171-3.29.956-4.067.956-.778 0-2.162-.956-3.547-.956a5.15 5.15 0 0 0-4.386 2.698c-1.906 3.314-.521 8.19 1.299 10.89.948 1.306 1.99 2.784 3.375 2.698 1.385-.085 1.906-.87 3.547-.87 1.64 0 2.084.87 3.554.87 1.47 0 2.427-1.306 3.29-2.613a9.967 9.967 0 0 0 1.431-3.01 4.814 4.814 0 0 1-2.94-4.387ZM36.556 14.818a5.444 5.444 0 0 0 1.12-3.484 4.667 4.667 0 0 0-3.112 1.657 4.409 4.409 0 0 0-1.12 3.344 4.122 4.122 0 0 0 3.111-1.517ZM58.963 32.669h-1.905L56 29.37h-3.617l-.949 3.298h-1.82l3.633-11.24h2.255l3.461 11.24Zm-3.29-4.667-.949-2.963c-.085-.265-.264-1.05-.606-2.093a24.816 24.816 0 0 1-.521 2.093l-.95 2.963h3.026ZM68.227 28.585a4.667 4.667 0 0 1-1.12 3.306 3.36 3.36 0 0 1-2.513 1.042 2.333 2.333 0 0 1-2.255-1.128v4.27h-1.82v-8.71c0-.872 0-1.743-.086-2.7h1.556l.086 1.307a2.978 2.978 0 0 1 2.683-1.478 2.792 2.792 0 0 1 2.333 1.128 3.709 3.709 0 0 1 1.136 2.963Zm-1.82 0a3.158 3.158 0 0 0-.514-1.913 1.766 1.766 0 0 0-1.555-.778c-.44.012-.866.165-1.213.436-.353.289-.597.69-.693 1.135a1.556 1.556 0 0 0-.085.521v1.393c-.012.54.174 1.064.52 1.477a1.727 1.727 0 0 0 1.385.615 1.766 1.766 0 0 0 1.556-.778 3.19 3.19 0 0 0 .599-2.108ZM77.498 28.585a4.667 4.667 0 0 1-1.128 3.306 3.33 3.33 0 0 1-2.481 1.05 2.333 2.333 0 0 1-2.248-1.128v4.27H69.79v-8.719c0-.87 0-1.742-.086-2.699h1.556l.086 1.307a2.978 2.978 0 0 1 2.683-1.478 2.776 2.776 0 0 1 2.333 1.128 3.716 3.716 0 0 1 1.136 2.963Zm-1.82 0a3.112 3.112 0 0 0-.521-1.913 1.742 1.742 0 0 0-1.556-.778 2.03 2.03 0 0 0-1.213.436 1.929 1.929 0 0 0-.692 1.135 1.556 1.556 0 0 0-.086.521v1.393a2.216 2.216 0 0 0 .513 1.477 1.913 1.913 0 0 0 2.948-.17c.45-.604.665-1.35.607-2.1ZM87.889 29.558a3.236 3.236 0 0 1-.957 2.333 4.098 4.098 0 0 1-3.025.957 5.36 5.36 0 0 1-2.863-.7l.436-1.478c.79.454 1.686.695 2.598.7a2.613 2.613 0 0 0 1.555-.436 1.602 1.602 0 0 0 .514-1.22 1.688 1.688 0 0 0-.428-1.136 4.417 4.417 0 0 0-1.556-.871c-1.99-.7-2.94-1.828-2.94-3.22a2.824 2.824 0 0 1 1.035-2.271 3.959 3.959 0 0 1 2.776-.872 5.335 5.335 0 0 1 2.505.53l-.428 1.462a4.183 4.183 0 0 0-2.162-.522 2.473 2.473 0 0 0-1.478.436 1.44 1.44 0 0 0-.428 1.042 1.557 1.557 0 0 0 .514 1.136 7.11 7.11 0 0 0 1.648.87c.815.3 1.553.776 2.163 1.393.346.56.527 1.208.52 1.867ZM93.769 25.972h-1.991v3.889c0 .957.35 1.485 1.042 1.485.263.028.529-.004.778-.093l.085 1.4a3.19 3.19 0 0 1-1.384.171 2.013 2.013 0 0 1-1.641-.606c-.481-.618-.7-1.4-.607-2.178v-4.068h-1.213V24.58h1.213v-1.478l1.727-.544v2.022h1.99v1.392ZM102.667 28.585a4.488 4.488 0 0 1-1.043 3.05 3.946 3.946 0 0 1-2.94 1.22 3.648 3.648 0 0 1-2.862-1.22 4.262 4.262 0 0 1-1.034-2.964 4.13 4.13 0 0 1 1.128-3.049 3.817 3.817 0 0 1 2.94-1.221 3.632 3.632 0 0 1 2.854 1.221 4.67 4.67 0 0 1 .957 2.963Zm-1.906.086a3.279 3.279 0 0 0-.521-1.913 1.834 1.834 0 0 0-1.641-.957 1.851 1.851 0 0 0-1.649.957 3.562 3.562 0 0 0-.521 1.913 3.383 3.383 0 0 0 .521 1.921 1.867 1.867 0 0 0 1.649.957 1.959 1.959 0 0 0 1.641-.957 3.519 3.519 0 0 0 .544-1.921h-.023ZM108.492 26.15c-.171 0-.35-.092-.606-.092a1.835 1.835 0 0 0-1.47.7 2.975 2.975 0 0 0-.436 1.555v4.278h-1.82v-5.569a23.181 23.181 0 0 0-.086-2.528h1.556l.086 1.556h.062a3.49 3.49 0 0 1 .863-1.307 2.636 2.636 0 0 1 1.299-.435h.436v1.835l.116.008ZM116.457 28.235c.024.263-.005.527-.086.778h-5.367a2.247 2.247 0 0 0 .778 1.828 2.787 2.787 0 0 0 1.735.614 5.596 5.596 0 0 0 2.162-.35l.257 1.222a6.381 6.381 0 0 1-2.684.52 3.76 3.76 0 0 1-2.94-1.135 4.108 4.108 0 0 1-1.042-2.932 4.93 4.93 0 0 1 .957-3.05 3.443 3.443 0 0 1 2.854-1.306 2.876 2.876 0 0 1 2.598 1.307 3.68 3.68 0 0 1 .778 2.504Zm-1.641-.435a2.537 2.537 0 0 0-.35-1.392 1.556 1.556 0 0 0-1.385-.778 1.672 1.672 0 0 0-1.384.7 3.268 3.268 0 0 0-.521 1.392h3.64v.078ZM55.152 14.562a2.84 2.84 0 0 1-.863 2.263 3.577 3.577 0 0 1-2.334.692c-.434.02-.87-.008-1.298-.085v-5.398a7.88 7.88 0 0 1 1.555-.093 3.212 3.212 0 0 1 2.162.614c.514.54.794 1.261.778 2.007Zm-.949 0a2.044 2.044 0 0 0-.536-1.486 2.006 2.006 0 0 0-1.47-.521 1.69 1.69 0 0 0-.693.086v4.098h.607a2.091 2.091 0 0 0 1.556-.528c.384-.46.576-1.051.536-1.65ZM59.998 15.433a2.037 2.037 0 0 1-.521 1.478 1.765 1.765 0 0 1-1.47.606 1.61 1.61 0 0 1-1.385-.606 2.077 2.077 0 0 1-.52-1.478 2.084 2.084 0 0 1 .52-1.486 1.773 1.773 0 0 1 1.47-.606 1.602 1.602 0 0 1 1.385.607 2.048 2.048 0 0 1 .52 1.485Zm-.864 0a1.804 1.804 0 0 0-.256-.964.778.778 0 0 0-.778-.436.917.917 0 0 0-.778.436 1.93 1.93 0 0 0 0 1.92.778.778 0 0 0 .778.436.847.847 0 0 0 .778-.52c.176-.255.258-.563.233-.872h.023ZM66.671 13.426l-1.213 4.006h-.778l-.521-1.742a7.397 7.397 0 0 1-.381-1.307 7.36 7.36 0 0 1-.343 1.307l-.52 1.742h-.778l-1.3-4.006h.864l.436 1.921.256 1.307c.094-.441.211-.877.35-1.307l.521-1.92h.693l.513 1.827c.16.423.277.86.35 1.307l.257-1.307.52-1.828h1.074ZM71.174 17.432h-.87v-2.263c0-.7-.257-1.043-.778-1.043a.779.779 0 0 0-.607.257 1.011 1.011 0 0 0-.257.7v2.333h-.87v-3.99h.777v.576c.117-.194.26-.37.428-.521.228-.162.498-.254.778-.265a1.315 1.315 0 0 1 .956.35 1.554 1.554 0 0 1 .436 1.307l.007 2.559ZM73.593 17.432h-.863v-5.833h.863v5.833ZM78.797 15.433a2.077 2.077 0 0 1-.521 1.478 1.773 1.773 0 0 1-1.47.607 1.625 1.625 0 0 1-1.361-.607 2.069 2.069 0 0 1-.514-1.478 1.922 1.922 0 0 1 1.991-2.092 1.61 1.61 0 0 1 1.385.607c.35.412.525.945.49 1.485Zm-.871 0a1.805 1.805 0 0 0-.257-.964.779.779 0 0 0-.778-.436.91.91 0 0 0-.778.436 1.874 1.874 0 0 0 0 1.92.778.778 0 0 0 .778.437.84.84 0 0 0 .778-.522c.184-.251.275-.56.257-.87ZM83.035 17.432h-.777l-.086-.436a1.392 1.392 0 0 1-1.128.521.995.995 0 0 1-.863-.342 1.557 1.557 0 0 1-.35-.777 1.191 1.191 0 0 1 .607-1.136 3.267 3.267 0 0 1 1.734-.35v-.086a.7.7 0 0 0-.778-.777 2.07 2.07 0 0 0-1.034.264l-.171-.607c.408-.27.896-.394 1.384-.35 1.035 0 1.556.521 1.556 1.657v1.478a4.35 4.35 0 0 0-.094.941Zm-.863-1.392v-.607c-.956 0-1.478.257-1.478.778a.614.614 0 0 0 .607.614c.186-.015.365-.077.521-.179a.856.856 0 0 0 .35-.435v-.171ZM88.06 17.432h-.778v-.607a1.275 1.275 0 0 1-1.299.7 1.554 1.554 0 0 1-1.205-.529 1.991 1.991 0 0 1-.436-1.477 2.435 2.435 0 0 1 .521-1.556 1.718 1.718 0 0 1 1.214-.521 1.291 1.291 0 0 1 1.12.52V11.67h.87v5.747l-.007.016Zm-.871-1.65v-.963a1.926 1.926 0 0 0-.342-.522.778.778 0 0 0-.607-.17.895.895 0 0 0-.778.435 1.797 1.797 0 0 0-.264 1.042c-.019.34.074.675.264.957a.896.896 0 0 0 .778.435.778.778 0 0 0 .692-.342c.151-.267.24-.565.257-.871ZM95.589 15.433a2.038 2.038 0 0 1-.521 1.478 1.765 1.765 0 0 1-1.47.607 1.603 1.603 0 0 1-1.385-.607 2.038 2.038 0 0 1-.52-1.478 2.046 2.046 0 0 1 .52-1.485 1.765 1.765 0 0 1 1.47-.607 1.603 1.603 0 0 1 1.385.607 2.045 2.045 0 0 1 .52 1.485Zm-.949 0a1.812 1.812 0 0 0-.264-.964.778.778 0 0 0-.778-.436.911.911 0 0 0-.778.436 1.874 1.874 0 0 0 0 1.92.779.779 0 0 0 .778.436.832.832 0 0 0 .778-.52c.187-.251.28-.56.264-.872ZM100.333 17.432h-.863v-2.263c0-.7-.264-1.043-.778-1.043a.779.779 0 0 0-.606.257.98.98 0 0 0-.265.7v2.333h-.863v-3.99h.778v.576c.118-.194.265-.37.435-.521.227-.163.498-.255.778-.264a1.316 1.316 0 0 1 .949.35 1.507 1.507 0 0 1 .435 1.306v2.559ZM106.237 14.126h-.949v1.914c0 .52.171.7.521.7h.428v.692a1.69 1.69 0 0 1-.693.085.844.844 0 0 1-.777-.342 1.725 1.725 0 0 1-.257-1.05v-1.999h-.607v-.7h.607v-.7l.863-.256v.956h.949v.7h-.085ZM110.919 17.432h-.871v-2.263c0-.7-.257-1.043-.778-1.043a.831.831 0 0 0-.863.607v2.699h-.864v-5.833h.864v2.403a1.367 1.367 0 0 1 1.213-.692.99.99 0 0 1 .863.35c.299.368.454.832.436 1.306v2.466ZM115.679 15.254v.436h-2.598a1.168 1.168 0 0 0 .342.87c.255.18.56.273.871.265.352 0 .702-.058 1.035-.17l.171.606a2.9 2.9 0 0 1-1.299.264 2.029 2.029 0 0 1-1.47-.529 2.062 2.062 0 0 1-.521-1.477 2.061 2.061 0 0 1 .521-1.478 1.596 1.596 0 0 1 1.385-.615 1.346 1.346 0 0 1 1.298.615c.202.371.293.792.265 1.213Zm-.778-.256a1.674 1.674 0 0 0-.179-.7.71.71 0 0 0-.692-.35.779.779 0 0 0-.692.35 1.008 1.008 0 0 0-.257.7h1.82Z" fill="#fff"/></g><defs><clipPath id="a"><path fill="#fff" d="M0 .002h140v46.667H0z"/></clipPath></defs></svg>