<svg width="140" height="47" fill="none" xmlns="http://www.w3.org/2000/svg"><g clip-path="url(#a)"><path d="M135.333.002H4.667A4.667 4.667 0 0 0 0 4.669v37.333a4.667 4.667 0 0 0 4.667 4.667h130.666A4.666 4.666 0 0 0 140 42.002V4.669a4.667 4.667 0 0 0-4.667-4.667Z" fill="#343A49"/><path d="M73.173 17.51a2.567 2.567 0 0 1-2.605-2.59 2.551 2.551 0 0 1 2.597-2.583 2.599 2.599 0 0 1 1.86 4.418 2.504 2.504 0 0 1-1.852.755Zm-21.988 0a2.576 2.576 0 0 1-1.858-.778 2.59 2.59 0 0 1 .854-4.245c.32-.127.661-.188 1.005-.18.358 0 .712.07 1.042.21.296.125.561.313.777.552l.047.062-.552.529-.054-.063a1.556 1.556 0 0 0-1.284-.544 1.797 1.797 0 0 0-1.812 1.843 1.741 1.741 0 0 0 .537 1.322 1.773 1.773 0 0 0 1.275.514 1.797 1.797 0 0 0 1.315-.514c.222-.21.368-.49.412-.793h-1.797v-.778h2.528l.047.133c.007.127.007.254 0 .38a2.2 2.2 0 0 1-.63 1.65 2.472 2.472 0 0 1-1.852.7Zm29.23-.11h-.778l-2.388-3.74V17.4h-.778v-4.955h.894l2.24 3.531v-3.531h.778l.031 4.955Zm-13.106 0h-.778v-4.176h-1.377v-.778h3.524v.778h-1.37v4.216-.04Zm-2.8 0h-.778v-4.954h.778v4.955Zm-4.426 0h-.777v-4.176h-1.377v-.778h3.515v.778h-1.36v4.177Zm-2.66 0h-2.979v-4.954h3.018v.778h-2.24v1.322h2.007v.74h-2.007v1.36h2.225l-.024.755Zm14.467-1.15a1.766 1.766 0 0 0 1.283.52 1.725 1.725 0 0 0 1.276-.52 1.79 1.79 0 0 0 .521-1.323 1.765 1.765 0 0 0-.521-1.314 1.75 1.75 0 0 0-1.276-.521 1.703 1.703 0 0 0-1.275.52 1.937 1.937 0 0 0 0 2.638h-.008Z" fill="#fff"/><path fill-rule="evenodd" clip-rule="evenodd" d="M70.498 24.323a3.407 3.407 0 1 0 3.484 3.407 3.383 3.383 0 0 0-3.484-3.407Zm0 5.445a2.06 2.06 0 1 1 1.96-2.061 1.984 1.984 0 0 1-1.96 2.076v-.015Zm-7.6-5.445a3.407 3.407 0 1 0 3.485 3.407 3.39 3.39 0 0 0-3.484-3.407Zm0 5.445a2.06 2.06 0 1 1 1.96-2.061 1.99 1.99 0 0 1-1.96 2.076v-.015Zm-9.045-4.402v1.438h3.531a2.978 2.978 0 0 1-.777 1.813 3.603 3.603 0 0 1-2.715 1.057 3.842 3.842 0 1 1 2.652-6.65l1.012-1.018a5.173 5.173 0 0 0-3.687-1.455 5.444 5.444 0 0 0-5.445 5.281 5.444 5.444 0 0 0 5.445 5.281 4.986 4.986 0 0 0 3.757-1.485 4.737 4.737 0 0 0 1.283-3.384c.002-.3-.026-.6-.086-.894h-4.977l.007.015Zm36.984 1.12a3.212 3.212 0 0 0-2.948-2.17 3.267 3.267 0 0 0-3.275 3.406 3.362 3.362 0 0 0 3.423 3.391 3.46 3.46 0 0 0 2.893-1.555l-1.182-.778a1.984 1.984 0 0 1-1.704.941 1.781 1.781 0 0 1-1.71-.941L91 26.898l-.163-.413ZM86.1 27.62a1.883 1.883 0 0 1 1.789-1.952 1.33 1.33 0 0 1 1.283.715L86.1 27.621Zm-3.764 3.298h1.555v-9.995h-1.555v9.995Zm-2.505-5.834h-.054a2.443 2.443 0 0 0-1.836-.777 3.407 3.407 0 0 0 0 6.805 2.427 2.427 0 0 0 1.836-.777h.054v.49a1.758 1.758 0 0 1-1.851 1.998 1.914 1.914 0 0 1-1.758-1.197l-1.33.544a3.32 3.32 0 0 0 3.111 2.007c1.79 0 3.306-1.035 3.306-3.547v-6.105H79.87v.56h-.039Zm-1.75 4.667a2.069 2.069 0 0 1 0-4.122 1.928 1.928 0 0 1 1.843 2.069 1.898 1.898 0 0 1-1.843 2.084v-.03ZM98 20.924h-3.648v9.995h1.556v-3.78H98a3.112 3.112 0 0 0 0-6.222v.007Zm.047 4.815h-2.17v-3.43H98a1.716 1.716 0 0 1 1.834 1.715A1.718 1.718 0 0 1 98 25.739h.047Zm9.411-1.431a2.886 2.886 0 0 0-2.722 1.555l1.353.545a1.665 1.665 0 0 1 2.994.552v.109a3.422 3.422 0 0 0-1.555-.381c-1.462 0-2.94.777-2.94 2.248a2.336 2.336 0 0 0 2.473 2.177 2.14 2.14 0 0 0 1.937-.98h.054v.778h1.47v-3.834c0-1.782-1.345-2.77-3.088-2.77h.024Zm-.195 5.444c-.497 0-1.197-.24-1.197-.855 0-.778.871-1.066 1.617-1.066.485-.017.964.102 1.385.342a1.81 1.81 0 0 1-1.828 1.61l.023-.03Zm8.626-5.226-1.75 4.332h-.055l-1.82-4.332h-1.641l2.723 6.058-1.556 3.368h1.556l4.184-9.426h-1.641Zm-13.728 6.393h1.556v-9.995h-1.556v9.995ZM22.929 14.329v17.733a1.556 1.556 0 0 0 .887 1.385l10.328-10.252-10.328-10.274a1.556 1.556 0 0 0-.887 1.408Zm3.197 18.604 11.293-6.486-2.42-2.334-8.874 8.82Zm14.777-10.982a1.557 1.557 0 0 1 0 2.473L38.5 25.801l-2.621-2.606 2.62-2.613 2.404 1.369Zm-3.515-2.015-11.255-6.478L35 22.308l2.388-2.372Z" fill="#fff"/><path opacity=".2" fill-rule="evenodd" clip-rule="evenodd" d="m36.952 26.229-11.845 6.595a1.361 1.361 0 0 1-1.634 0l-.062.062.062.055a1.376 1.376 0 0 0 1.634 0l11.923-6.643-.078-.07Z" fill="#fff"/><path opacity=".12" fill-rule="evenodd" clip-rule="evenodd" d="m41.012 23.965-4.075 2.264.077.07 3.99-2.186a1.416 1.416 0 0 0 .848-1.159 1.454 1.454 0 0 1-.84 1.011Z" fill="#fff"/><path opacity=".25" fill-rule="evenodd" clip-rule="evenodd" d="m25.099 13.022 15.913 8.859a1.5 1.5 0 0 1 .856 1.042 1.416 1.416 0 0 0-.856-1.143L25.1 12.905c-1.143-.637-2.069-.108-2.069 1.175v.117c0-1.284.926-1.805 2.069-1.175Z" fill="#fff"/></g><defs><clipPath id="a"><path fill="#fff" d="M0 .002h140v46.667H0z"/></clipPath></defs></svg>